<svg width="843" height="320" viewBox="0 0 843 320" fill="none" xmlns="http://www.w3.org/2000/svg">
<path d="M594.667 222.695C583.298 215.04 581.262 203.613 579.249 192.204C578.114 185.775 577.135 179.319 575.586 169.806C567.636 179.138 561.695 186.479 555.343 193.445C550.877 198.341 546.496 203.794 540.955 207.142C523.731 217.55 505.07 209.103 500.546 189.542C493.868 160.667 512.264 111.731 536.219 94.3378C548.017 85.7713 560.323 87.3433 572.032 93.4853C580.861 98.1169 583.362 94.4798 586.233 86.8358C595.756 61.4807 603.519 35.2269 620.887 13.5641C622.28 11.8275 623.576 9.9728 625.188 8.46106C629.949 3.99467 634.885 0.0485569 641.941 4.19973C648.95 8.32323 650.02 14.4005 647.781 21.5198C642.761 37.4821 636.575 53.1635 632.776 69.4062C624.158 106.244 616.532 143.318 608.95 180.388C607.919 185.431 609.452 190.999 609.949 198.662C615.715 195.367 619.502 193.89 622.442 191.409C638.012 178.271 651.05 162.81 658.284 143.727C663.33 130.418 671.539 120.044 681.09 110.146C683.869 107.267 686.538 103.971 688.194 100.376C694.215 87.313 701.803 84.1562 714.899 89.8738C736.392 99.2573 745.603 117.591 741.087 140.489C740.051 145.739 741.294 151.438 741.488 156.93C747.719 155.377 755.678 155.686 759.8 151.861C767.083 145.103 774.918 136.624 777.445 127.465C787.716 90.2295 795.964 52.4386 805.21 14.9144C806.704 8.84815 806.149 0.643651 815.671 0.079931C825.676 -0.512321 835.918 2.06728 838.732 11.8349C841.902 22.8432 843.861 35.6303 841.459 46.5707C830.07 98.4482 816.965 149.948 804.599 201.613C802.525 210.277 799.825 219.064 799.634 227.843C799.347 241.029 790.41 241.777 781.602 241.654C772.154 241.522 767.742 234.264 767.841 225.821C768.01 211.348 769.541 196.891 770.486 182.427C770.789 177.783 771.046 173.136 771.326 168.469C757.613 171.72 745.066 174.346 732.786 177.898C730.3 178.617 728.859 182.86 726.881 185.436C720.355 193.937 714.814 203.513 707.054 210.684C690.279 226.185 668.024 222.579 655.451 203.565C654.462 202.069 653.245 200.724 651.577 198.598C635.054 212.391 621.763 233.403 594.667 222.695ZM681.529 195.315C684.01 195.431 687.398 196.662 688.834 195.494C706.749 180.911 713.109 149.344 702.29 127.162C687.979 147.49 678.185 168.493 681.529 195.315ZM553.051 149.657C566.938 127.565 566.938 127.565 563.608 119.935C549.648 129.358 535.455 156.789 539.755 170.599C544.598 163.056 548.436 157.078 553.051 149.657Z" fill="#F9BB20"/>
<path d="M309.62 135.218C319.37 124.55 329.038 113.806 338.897 103.24C346.024 95.6019 354.048 94.7145 362.775 100.699C370.681 106.12 377.447 111.943 374.753 123.133C370.68 140.047 366.654 156.978 363.048 173.995C361.514 181.231 361.092 188.703 359.729 199.527C366.55 196.319 371.723 195.472 374.256 192.428C387.012 177.099 399.14 161.245 411.336 145.456C413.804 142.261 414.842 137.205 417.929 135.442C421.473 133.418 427.554 132.359 430.687 134.136C433.434 135.695 435.892 142.757 434.601 145.671C422.026 174.065 403.694 198.361 377.645 215.56C361.121 226.47 335.278 212.058 331.601 189.827C329.638 177.955 331.253 165.492 329.266 152.271C325.12 159.387 320.715 166.367 316.889 173.65C311.201 184.476 306 195.557 300.44 206.452C297.147 212.904 295.088 220.866 284.923 219.354C273.909 217.717 264.81 213.77 261.667 201.838C260.932 199.048 260.411 196.201 259.864 193.712C251.338 203.118 243.512 213.011 234.394 221.522C219.728 235.211 196.394 230.497 189.165 211.688C185.2 201.37 185.306 189.487 183.601 178.474C176.089 186.367 167.28 195.545 158.562 204.808C150.921 212.926 141.872 216.925 130.572 215.042C116.562 212.706 110.726 205.357 111.763 191.197C111.974 188.319 112.091 185.435 112.353 180.742C103.516 188.715 96.0369 195.832 88.1699 202.491C66.9392 220.462 44.8433 222.654 22.7413 209.276C4.31027 198.12 -3.355 180.541 1.35645 158.62C7.35862 130.693 23.9383 109.347 46.2087 92.8251C65.3063 78.6571 92.9844 84.9288 103.725 104.077C108.018 111.729 106.658 122.409 101.031 125.238C94.3924 128.574 87.8345 124.587 83.7189 114.758C83.3229 113.812 82.696 112.963 81.7057 111.259C60.8783 128.858 47.0545 149.958 42.7484 176.819C42.4555 178.646 42.337 180.532 42.405 182.381C42.9736 197.838 49.1212 202.436 61.4053 193.53C82.6617 178.118 102.959 161.183 122.32 143.427C135.954 130.923 146.683 115.296 159.938 102.319C180.679 82.0135 204.095 84.6311 221.489 107.952C222.588 109.426 223.653 111.163 225.161 112.058C239.142 120.351 239.577 131.525 233.95 145.444C228.133 159.831 223.785 174.831 219.197 189.687C217.641 194.725 217.309 200.14 216.418 205.383C217.967 206.507 219.515 207.63 221.063 208.754C223.554 204.773 225.958 200.736 228.547 196.821C247.894 167.57 269.042 139.361 280.379 105.535C282.019 100.644 284.653 96.0683 287.003 91.436C290.519 84.5074 295.427 79.787 303.767 83.5397C311.361 86.9567 317.277 92.218 315.351 101.584C313.265 111.733 310.367 121.714 307.426 133.166C307.173 135.149 307.317 135.732 307.461 136.316C308.18 135.95 308.9 135.584 309.62 135.218ZM166.999 153.57C175.419 142.117 191.248 135.925 191.972 118.985C180.17 128.321 169.911 138.781 166.999 153.57Z" fill="white"/>
<path d="M798.205 271.28C796.798 283.57 794.464 294.93 794.439 306.295C794.422 314.635 790.582 317.311 783.859 319.119C776.554 321.082 768.264 320.072 767.035 312.949C764.376 297.547 762.738 281.519 764.096 266.046C764.896 256.935 776.254 258.125 783.808 258.244C791.368 258.363 797.573 261.404 798.205 271.28Z" fill="#F6BB28"/>
<path d="M610.994 307.767C611.298 288.302 611.583 269.843 612.029 251.389C612.043 250.806 613.727 250.263 616.192 248.734C622.279 263.059 628.199 276.99 634.119 290.92C635.061 290.884 636.003 290.848 636.944 290.811C636.944 277.11 636.944 263.408 636.944 247.756C645.009 255.322 645.654 308.767 638.745 318.334C632.036 302.464 625.737 287.562 619.438 272.66C618.841 272.806 618.243 272.952 617.646 273.098C617.646 287.31 617.646 301.522 617.646 315.733C616.508 316.136 615.37 316.538 614.232 316.94C613.154 314.218 612.077 311.496 610.994 307.767Z" fill="white"/>
<path d="M192.743 283.449C192.744 273.891 192.508 265.333 192.885 256.801C192.999 254.205 194.805 251.684 195.836 249.128C196.837 249.424 197.837 249.721 198.837 250.017C198.837 272.034 198.837 294.052 198.837 316.069C197.949 316.484 197.061 316.9 196.173 317.315C186.539 304.573 183.914 288.094 175.546 272.771C171.558 287.927 177.865 303.274 171.599 316.634C170.613 316.534 169.626 316.435 168.64 316.336C168.64 294.391 168.64 272.446 168.64 247.299C181.432 261.644 182.707 278.841 192.741 294.465C192.741 289.709 192.741 287.084 192.743 283.449Z" fill="white"/>
<path d="M326.819 294.816C326.809 279.335 326.809 264.889 326.809 250.442C327.999 249.959 329.19 249.476 330.381 248.992C331.737 251.557 334.186 254.089 334.266 256.693C334.675 270.083 334.257 283.497 334.623 296.889C334.73 300.799 335.434 305.548 337.775 308.267C339.632 310.424 345.117 311.61 347.701 310.422C350.708 309.04 353.986 304.721 354.22 301.466C355.098 289.242 354.798 276.932 354.911 264.654C354.953 259.965 354.918 255.276 354.918 250.587C356.125 250.188 357.332 249.79 358.54 249.391C359.778 251.822 362.027 254.227 362.089 256.688C362.432 270.453 362.511 284.238 362.166 298.004C361.833 311.297 356.69 317.081 345.747 317.619C333.722 318.21 328.953 313.505 327.094 299.19C326.951 298.084 326.916 296.964 326.819 294.816Z" fill="white"/>
<path d="M117.802 265.881C117.889 277.952 118.319 289.093 117.667 300.17C116.959 312.187 111.019 317.694 100.465 317.613C89.4509 317.527 83.6451 311.483 83.2493 298.929C82.9225 288.562 82.9442 278.172 83.2135 267.803C83.5311 255.581 88.725 249.672 99.1132 248.952C109.82 248.21 114.981 252.652 117.802 265.881ZM93.4274 308.562C105.331 313.507 109.837 311.073 110.042 299.261C110.235 288.143 110.798 276.947 109.693 265.936C109.314 262.165 104.498 256.172 101.491 256.037C98.0359 255.881 91.3787 260.973 91.2518 264.002C90.6523 278.302 91.8111 292.676 93.4274 308.562Z" fill="white"/>
<path d="M726.903 301.824C726.904 307.218 726.904 311.576 726.904 315.181C722.152 315.699 718.413 315.583 714.994 316.575C703.424 319.933 694.189 314.846 693.415 302.967C692.549 289.668 692.671 276.233 693.459 262.922C694.011 253.604 701.903 248.225 711.417 248.974C720.476 249.688 726.899 256.943 726.306 266.287C726.198 267.992 724.423 269.592 723.418 271.24C722.074 269.923 720.348 268.82 719.464 267.245C717.399 263.569 716.726 258.204 713.706 256.165C707.701 252.11 700.884 256.951 700.463 265.514C699.899 276.998 700.043 288.528 700.232 300.032C700.331 306.044 702.147 311.05 709.729 311.122C717.329 311.194 718.851 305.954 719.61 300.162C719.991 297.254 719.676 294.256 719.676 290.744C716.436 289.757 713.196 288.77 709.957 287.783C709.949 286.863 709.941 285.943 709.934 285.022C715.222 284.502 720.511 283.981 726.901 283.352C726.901 289.795 726.901 295.291 726.903 301.824Z" fill="white"/>
<path d="M15.021 310.433C24.9986 312.616 27.811 307.885 28.1599 299.688C28.2577 297.393 30.5592 295.191 31.8498 292.946C33.0538 295.498 35.379 298.098 35.2699 300.592C34.7709 311.996 28.8315 317.974 19.0911 317.819C9.72959 317.671 3.00481 311.129 2.57697 300.653C2.10661 289.135 2.06486 277.572 2.49868 266.053C2.91855 254.905 9.87827 248.516 20.0266 248.919C30.1558 249.321 36.3533 256.736 35.5601 267.947C35.4342 269.727 33.8224 271.402 32.8976 273.125C31.3339 271.644 29.2214 270.425 28.3576 268.611C27.4531 266.711 28.4058 263.844 27.3633 262.113C25.8252 259.558 23.3949 256.058 21.0626 255.829C17.9897 255.527 12.0194 257.687 11.8198 259.336C9.76461 276.312 5.58364 293.563 15.021 310.433Z" fill="white"/>
<path d="M278.242 259.242C278.212 262.731 277.944 265.425 277.521 269.691C274.544 267.654 273.883 267.376 273.465 266.888C270.192 263.069 267.343 258.727 263.464 255.699C262.484 254.935 255.754 258.868 255.938 259.724C257.018 264.749 258.493 270.143 261.479 274.202C266.487 281.009 274.474 286.104 277.86 293.46C280.258 298.67 279.446 308.626 275.828 312.416C272.233 316.181 262.794 316.894 256.906 315.299C249.581 313.315 247.523 305.837 249.37 294.622C252.589 298.931 254.741 300.742 255.493 303.017C257.81 310.026 263.15 313.739 268.764 309.739C271.606 307.713 272.018 299.165 270.351 294.771C268.552 290.028 262.955 286.775 259.177 282.719C255.902 279.202 251.844 275.932 249.927 271.734C246.473 264.169 246.455 256.323 254.661 251.2C262.887 246.065 271.746 248.987 278.242 259.242Z" fill="white"/>
<path d="M486.99 277.774C486.99 270.074 486.99 263.465 486.99 256.402C482.227 255.702 478.254 255.119 474.281 254.536C474.358 253.557 474.435 252.579 474.512 251.601C484.916 251.601 495.32 251.601 505.724 251.601C505.805 252.416 505.885 253.231 505.966 254.047C504.444 254.541 502.952 255.255 501.391 255.473C499.605 255.723 497.758 255.531 494.467 255.531C494.467 273.146 494.634 290.423 494.304 307.689C494.248 310.597 492.048 313.463 490.838 316.349C489.562 313.489 487.329 310.675 487.185 307.759C486.713 298.148 486.996 288.5 486.99 277.774Z" fill="white"/>
<path d="M411.801 302.088C411.801 284.385 411.801 267.785 411.801 251.186C412.895 250.665 413.989 250.144 415.082 249.623C416.493 252.193 419.072 254.738 419.126 257.335C419.49 274.679 419.315 292.035 419.315 310.215C426.106 310.755 432.339 311.252 438.573 311.748C438.602 312.764 438.632 313.78 438.662 314.796C430.599 318.779 421.547 314.946 411.801 317.094C411.801 311.818 411.801 307.505 411.801 302.088Z" fill="white"/>
<path d="M553.297 315.247C552.679 293.214 552.679 272.111 552.679 251.007C553.562 250.438 554.445 249.868 555.329 249.299C556.922 251.346 559.859 253.367 559.899 255.445C560.26 274.01 560.272 292.59 559.84 311.153C559.8 312.873 555.98 314.505 553.297 315.247Z" fill="white"/>
</svg>
