<svg width="1272" height="320" viewBox="0 0 1272 320" fill="none" xmlns="http://www.w3.org/2000/svg">
<g clip-path="url(#clip0_1_40)">
<mask id="mask0_1_40" style="mask-type:luminance" maskUnits="userSpaceOnUse" x="0" y="0" width="1272" height="320">
<path d="M1271.11 0H0V320H1271.11V0Z" fill="white"/>
</mask>
<g mask="url(#mask0_1_40)">
<mask id="mask1_1_40" style="mask-type:luminance" maskUnits="userSpaceOnUse" x="0" y="0" width="1265" height="320">
<path d="M1264.39 0H0V320H1264.39V0Z" fill="white"/>
</mask>
<g mask="url(#mask1_1_40)">
<mask id="mask2_1_40" style="mask-type:luminance" maskUnits="userSpaceOnUse" x="0" y="4" width="1264" height="315">
<path d="M1263.24 4.09082H0.642578V318.139H1263.24V4.09082Z" fill="white"/>
</mask>
<g mask="url(#mask2_1_40)">
<path fill-rule="evenodd" clip-rule="evenodd" d="M663.708 84.9421C676.678 98.2595 683.706 115.671 684.757 137.154C685.105 145.318 685.277 152.429 685.277 158.462C685.277 166.452 685.105 175.244 684.757 184.838C683.706 206.147 676.678 223.469 663.708 236.772C650.71 250.095 631.941 256.768 607.387 256.768C582.834 256.768 564.063 250.095 551.079 236.772C538.096 223.469 531.082 206.147 530.031 184.838C529.669 175.244 529.497 166.452 529.497 158.462C529.497 152.429 529.669 145.318 530.031 137.154C531.082 115.845 538.096 98.4808 551.079 85.0738C564.063 71.6668 582.834 64.9609 607.387 64.9609C631.941 64.9609 650.71 71.6244 663.708 84.9421ZM577.799 108.909C570.325 116.02 566.257 125.878 565.55 138.485C565.202 147.365 565.03 154.825 565.03 160.858C565.03 167.078 565.202 174.631 565.55 183.511C566.257 196.114 570.325 205.931 577.799 212.938C585.241 219.963 595.11 223.469 607.387 223.469C619.663 223.469 629.533 219.963 636.989 212.938C644.449 205.931 648.517 196.114 649.223 183.511C649.586 179.069 649.758 171.521 649.758 160.858C649.758 150.387 649.586 142.924 649.223 138.485C648.517 125.878 644.449 116.02 636.989 108.909C629.533 101.812 619.663 98.2595 607.387 98.2595C595.11 98.2595 585.241 101.812 577.799 108.909Z" fill="white"/>
<path fill-rule="evenodd" clip-rule="evenodd" d="M974.462 160.86C974.462 169.565 974.276 176.134 973.92 180.577C972.525 203.843 965.414 221.909 952.614 234.789C939.805 247.654 921.12 254.097 896.569 254.097H836.022C834.088 254.097 832.429 253.396 831.015 251.965C829.616 250.549 828.924 248.854 828.924 246.911V74.8216C828.924 72.864 829.616 71.184 831.015 69.7534C832.429 68.3369 834.088 67.6216 836.022 67.6216H895.245C920.329 67.6216 939.36 74.064 952.338 86.944C965.334 99.8241 972.525 117.89 973.92 141.156C974.276 145.584 974.462 152.167 974.462 160.86ZM864.443 100.92V220.798H895.245C909.102 220.798 919.591 217.16 926.694 209.871C933.805 202.6 937.698 192.831 938.409 180.577C938.756 176.134 938.925 169.565 938.925 160.86C938.925 152.167 938.756 145.584 938.409 141.156C937.698 128.901 933.707 119.133 926.427 111.843C919.147 104.573 908.311 100.92 893.929 100.92H864.443Z" fill="white"/>
<path fill-rule="evenodd" clip-rule="evenodd" d="M178.782 245.042L114.326 76.6936C113.271 73.4936 112.002 71.1876 110.514 69.7523C109.013 68.3359 106.954 67.6206 104.327 67.6206H75.3857C72.7454 67.6206 70.6815 68.3359 69.1985 69.7523C67.6971 71.1876 66.428 73.4936 65.3728 76.6936L0.916839 245.042L0.642578 246.91C0.642578 248.854 1.34915 250.548 2.74834 251.964C4.16149 253.395 5.821 254.096 7.75478 254.096H26.6974C31.9641 254.096 35.3807 251.875 36.9659 247.438L89.8562 108.646L142.747 247.438C144.318 251.875 147.734 254.096 153.002 254.096H171.944C173.878 254.096 175.551 253.395 176.95 251.964C178.35 250.548 179.056 248.854 179.056 246.91L178.782 245.042Z" fill="white"/>
<path fill-rule="evenodd" clip-rule="evenodd" d="M339.93 74.8216V184.036C339.93 206.413 333.435 224.125 320.452 237.184C307.469 250.238 288.786 256.77 264.405 256.77C239.838 256.77 221.155 250.285 208.358 237.316C195.547 224.347 189.155 206.587 189.155 184.036V74.8216C189.155 72.864 189.848 71.184 191.247 69.7534C192.66 68.3369 194.32 67.6216 196.254 67.6216H217.577C219.496 67.6216 221.155 68.3369 222.569 69.7534C223.968 71.184 224.674 72.864 224.674 74.8216V182.709C224.674 196.727 228.179 207.038 235.189 213.613C242.218 220.181 251.956 223.471 264.405 223.471C276.858 223.471 286.681 220.181 293.882 213.613C301.063 207.038 304.671 196.727 304.671 182.709V74.8216C304.671 72.864 305.363 71.184 306.777 69.7534C308.176 68.3369 309.835 67.6216 311.769 67.6216H332.817C334.751 67.6216 336.425 68.3369 337.824 69.7534C339.223 71.184 339.93 72.864 339.93 74.8216Z" fill="white"/>
<path fill-rule="evenodd" clip-rule="evenodd" d="M514.58 69.7534C515.979 71.184 516.686 72.864 516.686 74.8216V93.7343C516.686 95.6925 515.979 97.3725 514.58 98.8027C513.181 100.22 511.507 100.92 509.587 100.92H462.21V246.911C462.21 248.869 461.517 250.549 460.105 251.965C458.706 253.396 457.046 254.097 455.112 254.097H433.803C431.874 254.097 430.196 253.396 428.797 251.965C427.397 250.549 426.691 248.869 426.691 246.911V100.92H379.328C377.398 100.92 375.738 100.22 374.339 98.8027C372.921 97.3725 372.215 95.6925 372.215 93.7343V74.8216C372.215 72.864 372.921 71.184 374.339 69.7534C375.738 68.3369 377.398 67.6216 379.328 67.6216H509.587C511.507 67.6216 513.181 68.3369 514.58 69.7534Z" fill="white"/>
<path fill-rule="evenodd" clip-rule="evenodd" d="M1135.5 119.687C1134.11 121.015 1132.35 121.673 1130.24 121.673H1111.81C1109.01 121.673 1106.83 121.146 1105.24 120.083C1103.66 119.015 1102.25 117.41 1101.04 115.292C1098.05 110.313 1093.75 106.309 1088.14 103.302C1082.53 100.276 1078 98.7745 1068.35 98.7745C1058.88 98.7745 1052.45 100.732 1045.96 104.629C1039.48 108.543 1036.24 113.772 1036.24 120.346C1036.24 125.673 1037.77 129.81 1040.84 132.727C1043.89 135.663 1048.68 138.106 1055.17 140.059C1061.65 142.016 1069.17 144.591 1083.9 147.786C1105.12 152.403 1120.49 158.887 1129.96 167.226C1139.43 175.579 1144.16 187.029 1144.16 201.593C1144.16 212.252 1141.08 221.805 1134.96 230.233C1128.81 238.671 1120 245.273 1108.51 250.078C1097.01 254.869 1085.11 257.263 1069.66 257.263C1056.51 257.263 1047.34 255.132 1035.95 250.869C1024.53 246.619 1015.33 240.53 1008.32 232.629C1001.3 224.727 997.529 215.716 996.996 205.593C996.818 203.462 997.423 201.72 998.836 200.393C1000.24 199.066 1002 198.393 1004.11 198.393H1022.52C1025.32 198.393 1027.56 198.935 1029.22 199.998C1030.9 201.066 1032.27 202.657 1033.31 204.789C1036.29 210.647 1040.63 215.306 1046.33 218.765C1052.04 222.243 1057.74 223.965 1069.66 223.965C1081.24 223.965 1089.34 222.111 1097.07 218.375C1104.77 214.647 1108.64 209.052 1108.64 201.593C1108.64 197.325 1107.16 193.909 1104.17 191.339C1101.18 188.77 1096.97 186.638 1091.55 184.943C1086.11 183.263 1079.41 181.085 1068.35 178.412C1063.98 177.536 1059.82 176.196 1052.81 174.426C1034.38 169.81 1021.1 163.503 1012.93 155.513C1004.78 147.509 1000.7 135.796 1000.7 120.346C1000.7 109.871 1003.73 100.455 1009.78 92.1159C1015.83 83.7579 1024.12 77.2309 1034.65 72.5296C1045.16 67.8238 1055.38 65.4756 1068.35 65.4756C1083.09 65.4756 1092.75 68.0026 1103.54 73.0709C1114.33 78.1203 1122.52 84.4732 1128.13 92.1159C1133.74 99.7532 1136.82 107.198 1137.35 114.487C1137.51 116.619 1136.91 118.342 1135.5 119.687Z" fill="white"/>
<path fill-rule="evenodd" clip-rule="evenodd" d="M802.205 147.918C803.618 149.335 804.31 151.015 804.31 152.972V174.558C804.31 176.516 803.618 178.196 802.205 179.612C800.806 181.029 799.146 181.744 797.213 181.744H716.956C715.022 181.744 713.349 181.029 711.95 179.612C710.55 178.196 709.844 176.516 709.844 174.558V152.972C709.844 151.015 710.55 149.335 711.95 147.918C713.349 146.502 715.022 145.787 716.956 145.787H797.213C799.146 145.787 800.806 146.502 802.205 147.918Z" fill="#CE945B"/>
<path fill-rule="evenodd" clip-rule="evenodd" d="M652.512 6.22259C653.926 7.63906 654.618 9.31904 654.618 11.2767V32.8626C654.618 34.8202 653.926 36.5002 652.512 37.9167C651.113 39.3473 649.454 40.0485 647.519 40.0485H567.263C565.334 40.0485 563.656 39.3473 562.257 37.9167C560.858 36.5002 560.151 34.8202 560.151 32.8626V11.2767C560.151 9.31904 560.858 7.63906 562.257 6.22259C563.656 4.80612 565.334 4.09082 567.263 4.09082H647.519C649.454 4.09082 651.113 4.80612 652.512 6.22259Z" fill="#A4D3CB"/>
<path fill-rule="evenodd" clip-rule="evenodd" d="M1261.13 150.372C1262.53 151.789 1263.24 153.483 1263.24 155.44V177.012C1263.24 178.97 1262.53 180.664 1261.13 182.08C1259.73 183.497 1258.06 184.212 1256.14 184.212H1175.87C1173.95 184.212 1172.28 183.497 1170.88 182.08C1169.47 180.664 1168.77 178.97 1168.77 177.012V155.44C1168.77 153.483 1169.47 151.789 1170.88 150.372C1172.28 148.956 1173.95 148.24 1175.87 148.24H1256.14C1258.06 148.24 1259.73 148.956 1261.13 150.372Z" fill="#CECBA2"/>
<path fill-rule="evenodd" clip-rule="evenodd" d="M1115.7 284.313C1117.09 285.729 1117.81 287.409 1117.81 289.367V310.939C1117.81 312.896 1117.09 314.591 1115.7 316.007C1114.29 317.423 1112.62 318.139 1110.7 318.139H1030.44C1028.52 318.139 1026.85 317.423 1025.44 316.007C1024.03 314.591 1023.33 312.896 1023.33 310.939V289.367C1023.33 287.409 1024.03 285.729 1025.44 284.313C1026.85 282.882 1028.52 282.182 1030.44 282.182H1110.7C1112.62 282.182 1114.29 282.882 1115.7 284.313Z" fill="#E2B3B1"/>
<path fill-rule="evenodd" clip-rule="evenodd" d="M309.662 284.313C311.075 285.729 311.767 287.409 311.767 289.367V310.939C311.767 312.896 311.075 314.591 309.662 316.007C308.263 317.423 306.603 318.139 304.669 318.139H224.413C222.479 318.139 220.806 317.423 219.407 316.007C218.007 314.591 217.301 312.896 217.301 310.939V289.367C217.301 287.409 218.007 285.729 219.407 284.313C220.806 282.882 222.479 282.182 224.413 282.182H304.669C306.603 282.182 308.263 282.882 309.662 284.313Z" fill="#A4D3CB"/>
<path fill-rule="evenodd" clip-rule="evenodd" d="M367.888 131.502C369.302 132.933 369.994 134.613 369.994 136.571V158.142C369.994 160.1 369.302 161.794 367.888 163.211C366.489 164.627 364.816 165.342 362.896 165.342H282.626C280.706 165.342 279.032 164.627 277.633 163.211C276.234 161.794 275.527 160.1 275.527 158.142V136.571C275.527 134.613 276.234 132.933 277.633 131.502C279.032 130.086 280.706 129.385 282.626 129.385H362.896C364.816 129.385 366.489 130.086 367.888 131.502Z" fill="#E2B3B1"/>
<path fill-rule="evenodd" clip-rule="evenodd" d="M462.21 166.219V247.48C462.21 249.423 461.517 251.117 460.104 252.534C458.705 253.965 457.045 254.666 455.111 254.666H433.802C431.869 254.666 430.195 253.965 428.796 252.534C427.397 251.117 426.69 249.423 426.69 247.48V166.219H462.21Z" fill="#CECBA2"/>
<path fill-rule="evenodd" clip-rule="evenodd" d="M857.327 67.6206H845.701H836.019C834.084 67.6206 832.425 68.3218 831.012 69.7523C829.613 71.1689 828.92 72.8629 828.92 74.8065V156.068H864.439V88.11V74.8065V67.6206H857.327Z" fill="#A4D3CB"/>
<path fill-rule="evenodd" clip-rule="evenodd" d="M134.983 167.213C136.382 168.629 137.075 170.323 137.075 172.28V191.207C137.075 193.165 136.382 194.86 134.983 196.276C133.584 197.693 131.911 198.407 129.977 198.407H49.7204C47.8052 198.407 46.127 197.693 44.7278 196.276C43.3147 194.86 42.6221 193.165 42.6221 191.207V172.28C42.6221 170.323 43.3147 168.629 44.7278 167.213C46.127 165.796 47.8052 165.08 49.7204 165.08H129.977C131.911 165.08 133.584 165.796 134.983 167.213Z" fill="#CE945B"/>
</g>
</g>
</g>
</g>
<defs>
<clipPath id="clip0_1_40">
<rect width="1271.11" height="320" fill="white"/>
</clipPath>
</defs>
</svg>
