<svg width="1100" height="308" viewBox="0 0 1100 308" fill="none" xmlns="http://www.w3.org/2000/svg">
<g clip-path="url(#clip0_51_3)">
<path d="M238.412 58.9923C238.308 58.3317 237.985 57.7252 237.495 57.2698C237.005 56.8145 236.377 56.5365 235.71 56.4803C234.59 56.3879 212.645 56.054 212.645 56.054C212.645 56.054 194.296 38.2287 192.483 36.4205C190.669 34.6071 187.13 35.1516 185.753 35.5626C185.738 35.5729 182.311 36.6311 176.538 38.4187C175.396 34.6796 173.917 31.0517 172.12 27.5797C165.596 15.1123 156.02 8.52158 144.462 8.50103H144.416C143.615 8.50103 142.824 8.57808 142.017 8.64486C141.679 8.2364 141.331 7.83562 140.974 7.44281C135.94 2.04899 129.478 -0.570861 121.741 -0.339697C106.813 0.0866711 91.9419 10.8692 79.8854 30.0198C71.3991 43.4992 64.9471 60.4307 63.1132 73.5402L33.7246 82.6481C25.0688 85.3655 24.7965 85.6275 23.6664 93.7901C22.8239 99.9545 0.180176 275.038 0.180176 275.038L189.94 307.863L272.183 287.418C272.183 287.418 238.623 60.5488 238.412 58.9923ZM167.029 41.3622L152.306 45.9187C152.193 38.3622 151.3 27.8417 147.776 18.7544C159.103 20.9017 164.676 33.7184 167.029 41.3622ZM142.377 48.9958L110.697 58.8074C113.759 47.0848 119.563 35.4085 126.699 27.7595C129.349 24.9085 133.058 21.739 137.455 19.9256C141.586 28.5455 142.479 40.7407 142.377 48.9958ZM122.034 9.5952C125.543 9.51815 128.491 10.2887 131.014 11.9479C126.976 14.0438 123.077 17.0541 119.42 20.9787C109.937 31.1499 102.668 46.9461 99.7706 62.1824C90.7296 64.982 81.8888 67.7252 73.7467 70.2371C78.8837 46.2526 98.9898 10.263 122.034 9.5952Z" fill="#95BF47"/>
<path d="M235.715 56.4906C234.595 56.393 212.655 56.0591 212.655 56.0591C212.655 56.0591 194.306 38.239 192.493 36.4307C191.79 35.778 190.898 35.3675 189.945 35.2595L189.95 307.853L272.188 287.418C272.188 287.418 238.633 60.5591 238.417 59.0026C238.313 58.3414 237.99 57.7343 237.5 57.278C237.011 56.8218 236.382 56.5427 235.715 56.4855V56.4906Z" fill="#5E8E3E"/>
<path d="M144.359 98.773L134.805 134.506C134.805 134.506 124.15 129.662 111.524 130.453C92.9999 131.629 92.8047 143.305 92.9948 146.239C94.0016 162.22 136.043 165.708 138.406 203.146C140.26 232.596 122.784 252.743 97.6026 254.336C67.3716 256.237 50.7329 238.411 50.7329 238.411L57.1387 211.17C57.1387 211.17 73.8852 223.807 87.2927 222.959C96.0513 222.404 99.1848 215.279 98.8663 210.245C97.5513 189.399 63.3134 190.627 61.1507 156.374C59.3271 127.55 78.2568 98.3364 120.031 95.7062C136.125 94.6686 144.359 98.773 144.359 98.773Z" fill="white"/>
<path d="M380.48 173.603C371.028 168.466 366.163 164.146 366.163 158.197C366.163 150.636 372.913 145.776 383.46 145.776C395.732 145.776 406.689 150.908 406.689 150.908L415.329 124.427C415.329 124.427 407.382 118.211 383.994 118.211C351.441 118.211 328.879 136.853 328.879 163.057C328.879 177.918 339.41 189.266 353.47 197.367C364.817 203.844 368.871 208.442 368.871 215.192C368.871 222.214 363.194 227.891 352.663 227.891C336.965 227.891 322.139 219.784 322.139 219.784L312.955 246.26C312.955 246.26 326.65 255.445 349.694 255.445C383.192 255.445 407.239 238.966 407.239 209.249C407.228 193.324 395.079 181.976 380.48 173.603ZM513.944 117.949C497.464 117.949 484.493 125.783 474.502 137.665L473.963 137.393L488.279 62.5624H450.995L414.795 253.021H452.079L464.511 187.915C469.37 163.324 482.069 148.206 493.956 148.206C502.329 148.206 505.576 153.877 505.576 161.983C505.576 167.12 505.036 173.336 503.957 178.463L489.913 253.026H527.197L541.781 176.033C543.404 167.922 544.488 158.208 544.488 151.715C544.473 130.638 533.397 117.944 513.949 117.944L513.944 117.949ZM628.755 117.949C583.904 117.949 554.197 158.47 554.197 203.582C554.197 232.488 572.022 255.718 605.526 255.718C649.56 255.718 679.277 216.281 679.277 170.084C679.277 143.341 663.604 117.944 628.755 117.944V117.949ZM610.385 227.094C597.687 227.094 592.283 216.286 592.283 202.776C592.283 181.437 603.363 146.588 623.623 146.588C636.861 146.588 641.176 157.941 641.176 169.011C641.176 191.973 630.111 227.094 610.385 227.094ZM774.64 117.949C749.474 117.949 735.193 140.1 735.193 140.1H734.659L736.821 120.112H703.863C702.244 133.622 699.265 154.144 696.301 169.545L670.364 305.967H707.649L717.907 250.858H718.724C718.724 250.858 726.373 255.718 740.607 255.718C784.369 255.718 813.003 210.877 813.003 165.487C813.003 140.372 801.922 117.949 774.64 117.949ZM738.979 227.624C729.301 227.624 723.573 222.225 723.573 222.225L729.789 187.375C734.114 164.146 746.268 148.745 759.239 148.745C770.587 148.745 774.095 159.276 774.095 169.278C774.095 193.319 759.779 227.624 738.979 227.624ZM866.222 64.4579C854.34 64.4579 844.883 73.9099 844.883 86.064C844.883 97.1445 851.905 104.711 862.441 104.711H862.98C874.6 104.711 884.591 96.8722 884.864 83.1C884.864 72.2918 877.569 64.4579 866.222 64.4579ZM814.087 253.021H851.36L876.763 120.923H839.206L814.087 253.021ZM971.586 120.651H945.65L946.995 114.436C949.158 101.737 956.725 90.3945 969.151 90.3945C973.186 90.4036 977.195 91.0414 981.033 92.2849L988.327 63.1069C988.327 63.1069 981.845 59.8706 968.062 59.8706C954.824 59.8706 941.596 63.6514 931.595 72.2918C918.896 83.1 912.953 98.7626 909.984 114.436L908.91 120.651H891.614L886.21 148.75H903.506L883.785 253.031H921.069L940.79 148.75H966.454L971.586 120.651ZM1061.27 120.929C1061.27 120.929 1037.97 179.644 1027.5 211.694H1026.96C1026.25 201.368 1017.77 120.923 1017.77 120.923H978.598L1001.03 242.213C1001.58 244.915 1001.3 246.543 1000.22 248.428C995.889 256.801 988.6 264.913 979.954 270.856C972.932 275.988 965.098 279.23 958.888 281.387L969.151 313C976.718 311.382 992.381 305.161 1005.62 292.74C1022.64 276.8 1038.31 252.214 1054.51 218.716L1100.17 120.913H1061.27V120.929Z" fill="white"/>
</g>
<defs>
<clipPath id="clip0_51_3">
<rect width="1100" height="308" fill="white"/>
</clipPath>
</defs>
</svg>
