<svg width="1234" height="320" viewBox="0 0 1234 320" fill="none" xmlns="http://www.w3.org/2000/svg">
<path d="M318.989 187.141C318.577 198.537 317.753 209.506 317.836 220.467C318.072 251.512 304.331 275.516 280.933 294.626C260.853 311.026 237.862 318.992 211.721 318.715C181.684 318.397 151.635 319.347 121.597 319.062C107.011 318.924 92.099 318.856 77.9341 315.891C48.4995 309.731 28.4944 290.365 13.5996 265.069C2.92699 246.944 0.494169 227.089 0.49682 206.562C0.50009 181.245 -0.211171 155.925 0.0628128 130.614C0.230702 115.104 -0.513994 99.0995 2.95401 84.2026C12.3231 43.9573 36.1168 15.2212 77.0934 4.14964C89.5074 0.795459 103.082 1.10712 116.144 0.907761C144.957 0.467969 173.783 0.583686 202.601 0.837975C221.505 1.00478 240.365 1.64164 257.853 10.5648C285.818 24.8332 307.207 45.0962 314.943 76.3474C318.009 88.7363 317.921 102.008 318.402 114.911C319.107 133.802 319.065 152.722 319.264 171.631C319.317 176.656 319.089 181.684 318.989 187.141ZM89.5409 200.712C85.4671 218.682 81.2571 236.622 77.3664 254.632C74.6996 266.976 80.3441 276.092 92.6055 279.125C104.905 282.167 116.596 280.404 126.885 272.67C129.892 270.409 132.195 267.21 134.82 264.441C133.651 263.709 133.235 263.779 132.817 263.806C129.816 263.997 126.35 265.212 123.922 264.121C120.387 262.532 121.763 258.645 122.469 255.526C133.6 206.365 144.749 157.208 155.854 108.041C159.242 93.0421 162.844 78.0795 165.709 62.979C167.512 53.4794 162.947 45.8282 154.65 42.0607C141.144 35.9286 121.518 40.0172 111.643 51.1081C110.357 52.553 109.458 54.3435 108.678 55.5223C112.443 55.5223 116.449 54.4496 119.006 55.9112C120.627 56.8372 121.005 61.7426 120.385 64.5155C110.282 109.694 99.931 154.816 89.5409 200.712ZM185.739 111.921C180.678 134.179 175.601 156.435 170.56 178.698C164.78 204.225 158.901 229.732 153.332 255.305C150.927 266.348 156.117 275.435 166.631 278.55C179.962 282.5 192.596 280.693 203.787 272.036C206.178 270.186 207.982 267.578 210.494 264.844C208.933 264.569 208.455 264.337 208.061 264.437C199.298 266.667 196.558 264.171 198.524 255.469C209.661 206.191 220.863 156.928 232.008 107.652C235.33 92.9601 238.924 78.3141 241.676 63.5139C243.687 52.703 238.607 44.4887 228.626 41.3425C215.823 37.3063 203.551 38.9303 192.527 46.7544C189.29 49.0511 186.875 52.5046 184.038 55.4752C188.426 55.4752 192.367 54.3776 195.064 55.7406C198.813 57.6353 197.068 62.0171 196.331 65.3278C192.929 80.6263 189.358 95.8872 185.739 111.921Z" fill="white"/>
<path d="M554.555 292.156C553.7 294.979 553.5 298.27 551.874 300.541C545.981 308.772 537.386 312.941 527.651 314.717C516.926 316.673 506.443 315.784 496.27 311.493C494.787 310.867 492.509 311.39 490.85 312.031C464.559 322.187 437.98 322.887 411.906 312.361C380.22 299.57 363.474 274.677 358.897 241.364C355.968 220.054 358.456 199.282 368.488 180.024C382.514 153.097 405.593 138.803 435.113 134.412C452.514 131.824 469.777 132.868 487.261 138.58C487.773 130.982 488.295 123.765 488.74 116.543C490.447 88.8641 492.137 61.1836 493.803 33.5018C493.912 31.6841 493.925 29.8335 493.717 28.0287C492.936 21.2407 487.193 17.8248 480.787 20.2766C479.433 20.7948 478.121 21.4232 476.411 22.1653C478.626 14.4338 484.718 8.05579 493.288 4.36187C505.88 -1.06612 518.787 -1.3243 531.655 3.0091C546.043 7.85442 553.693 19.3873 552.933 35.0391C552.106 52.0841 550.852 69.1082 549.809 86.1429C547.657 121.274 545.539 156.408 543.376 191.538C541.465 222.561 539.488 253.58 537.608 284.605C537.351 288.847 537.876 293.071 542.333 295.141C546.777 297.204 550.942 296.548 554.489 292.525C554.585 292.232 554.555 292.156 554.555 292.156ZM444.158 297.032C454.808 299.853 463.831 296.529 470.037 288.039C474.792 281.532 478.939 274.083 481.304 266.42C488.586 242.826 488.53 218.717 483.585 194.631C481.079 182.422 476.962 170.869 467.586 161.969C458.489 153.335 445.711 152.863 436.054 160.805C428.977 166.626 424.991 174.472 422.084 182.887C415.656 201.495 414.709 220.748 416.028 240.176C416.95 253.765 419.311 267.077 425.644 279.352C429.642 287.103 434.827 293.728 444.158 297.032Z" fill="white"/>
<path d="M1216.93 290.538C1218.87 300.263 1225.92 302.144 1233.88 295.457C1233.35 306.099 1221.36 315.857 1205.02 318.936C1183.33 323.024 1169.28 315.44 1159.86 294.324C1152.56 304.459 1143.32 311.941 1131.54 315.893C1114.49 321.612 1097.54 321.305 1081.29 313.37C1046.86 296.552 1042.81 250.492 1073.54 227.56C1086.18 218.133 1100.81 212.933 1115.4 207.593C1124.96 204.095 1134.83 201.098 1143.79 196.395C1160.27 187.738 1158.88 182.189 1150.69 169.847C1142.25 157.118 1130.23 150.599 1114.48 152.601C1113.16 152.77 1111.88 153.317 1109.91 153.875C1111.11 155.327 1112.02 156.439 1112.94 157.538C1120.83 166.956 1121.76 179.703 1115.3 189.847C1109.08 199.605 1096.44 204.31 1084.83 201.194C1073.35 198.115 1065.32 187.781 1064.82 175.678C1064.35 164.423 1068.93 155.54 1077.49 148.615C1087.5 140.516 1099.34 136.717 1111.86 134.917C1133.71 131.777 1155.4 132.148 1176.36 139.902C1202.51 149.576 1216.56 170.174 1216.58 198.128C1216.61 225.141 1216.58 252.154 1216.6 279.167C1216.61 282.821 1216.79 286.475 1216.93 290.538ZM1138.77 219.513C1132.86 223.509 1126.42 226.909 1121.16 231.624C1109.4 242.162 1107.14 260.427 1115.25 273.355C1122.67 285.196 1135.78 287.561 1145.82 277.918C1150.36 273.558 1153.67 267.544 1156.37 261.738C1160.34 253.226 1159.15 243.825 1159.17 234.708C1159.19 226.122 1159.18 217.536 1159.18 208.649C1152.21 212.378 1145.79 215.806 1138.77 219.513Z" fill="white"/>
<path d="M577.626 176.411C595.511 147.077 622.425 134.628 655.414 133.295C673.212 132.575 690.4 135.372 706.295 143.718C727.357 154.776 741.141 172.004 747.41 194.902C754.896 222.245 753.324 249.022 739.815 274.294C726.023 300.097 703.536 313.962 675.117 318.32C654.398 321.498 633.973 319.762 614.817 310.58C585.177 296.373 569.832 271.876 565.923 239.898C563.216 217.752 566.399 196.451 577.626 176.411ZM693.787 215.827C692.951 209.332 692.479 202.766 691.202 196.36C688.739 184.01 684.959 172.123 675.711 162.892C664.905 152.104 649.701 152.33 640.061 164.221C635.465 169.889 631.615 176.657 629.251 183.552C621.32 206.684 621.163 230.529 624.976 254.452C626.836 266.124 630.268 277.334 637.606 286.904C648.698 301.368 666.347 301.951 677.651 287.72C681.825 282.464 685.113 276.176 687.456 269.858C693.811 252.725 694.535 234.746 693.787 215.827Z" fill="white"/>
<path d="M777.07 187.165C790.353 156.028 814.386 139.432 846.789 134.471C867.639 131.279 888.229 132.981 907.575 142.113C935.323 155.211 950.328 177.927 954.921 207.69C958.141 228.552 956.398 249.128 947.433 268.518C934.001 297.568 910.635 313.619 879.431 318.354C858.863 321.475 838.608 319.701 819.579 310.632C791.145 297.079 775.646 273.869 771.043 243.188C768.196 224.205 769.757 205.503 777.07 187.165ZM885.043 284.514C887.339 279.903 890.197 275.483 891.839 270.649C900.599 244.867 900.514 218.628 894.94 192.262C892.745 181.877 888.875 172.116 881.636 164.097C870.635 151.91 854.196 152.042 844.022 164.892C839.943 170.044 836.649 176.132 834.319 182.294C827.577 200.12 826.764 218.817 827.73 237.642C828.421 251.106 830.283 264.437 836.318 276.603C839.163 282.339 843.022 288.042 847.748 292.281C859.057 302.426 874.066 299.127 885.043 284.514Z" fill="white"/>
<path d="M975.327 197.596C978.312 150.178 981.27 103.195 984.196 56.2093C984.641 49.0596 985.15 41.9037 985.253 34.7452C985.398 24.5994 978.656 20.735 969.808 25.6482C969.183 25.9951 968.452 26.1506 967.638 26.4428C969.538 19.6959 973.621 14.4082 980.691 10.5332C995.705 2.30449 1011.29 1.81634 1026.82 8.68283C1038.92 14.0342 1045.17 25.409 1044.37 38.619C1040.5 102.337 1036.64 166.055 1032.77 229.773C1031.57 249.697 1030.32 269.618 1029.14 289.544C1028.9 293.551 1029.68 297.31 1033.75 299.182C1037.83 301.058 1041.77 300.575 1045.23 297.519C1045.57 297.221 1045.97 296.988 1047.2 297.166C1045.86 299.749 1044.82 302.546 1043.14 304.872C1038.59 311.138 1032.22 315.021 1024.94 317.26C1014.64 320.424 1004.19 320.514 993.817 317.62C977.392 313.037 968.842 300.313 969.989 283.342C971.91 254.915 973.539 226.469 975.327 197.596Z" fill="white"/>
<path d="M554.578 292.194C554.78 292.344 554.99 292.532 555.199 292.721C555.067 292.663 554.934 292.604 554.679 292.351C554.556 292.156 554.586 292.232 554.578 292.194Z" fill="#1F1F1F"/>
<path d="M89.5888 200.331C99.9313 154.816 110.283 109.693 120.385 64.5153C121.005 61.7424 120.627 56.8371 119.007 55.911C116.449 54.4495 112.443 55.5221 108.679 55.5221C109.458 54.3433 110.357 52.5529 111.643 51.1079C121.518 40.0171 141.144 35.9284 154.65 42.0605C162.948 45.8281 167.512 53.4792 165.71 62.9788C162.845 78.0794 159.242 93.042 155.854 108.041C144.749 157.208 133.6 206.365 122.469 255.526C121.763 258.645 120.388 262.532 123.922 264.121C126.35 265.212 129.816 263.997 132.817 263.806C133.236 263.779 133.651 263.709 134.82 264.441C132.195 267.21 129.893 270.409 126.885 272.669C116.597 280.404 104.906 282.167 92.6057 279.125C80.3444 276.092 74.6999 266.976 77.3667 254.632C81.2574 236.622 85.4674 218.682 89.5888 200.331Z" fill="#303030"/>
<path d="M185.793 111.541C189.358 95.8869 192.929 80.6261 196.332 65.3275C197.068 62.0168 198.813 57.6351 195.064 55.7403C192.367 54.3774 188.426 55.475 184.038 55.475C186.875 52.5043 189.29 49.0509 192.527 46.7541C203.552 38.93 215.823 37.3061 228.626 41.3423C238.607 44.4885 243.687 52.7027 241.676 63.5136C238.924 78.3138 235.331 92.9598 232.008 107.652C220.863 156.928 209.661 206.191 198.524 255.469C196.558 264.171 199.298 266.666 208.061 264.437C208.455 264.337 208.934 264.569 210.494 264.844C207.982 267.578 206.178 270.186 203.787 272.036C192.596 280.692 179.963 282.5 166.631 278.55C156.117 275.434 150.928 266.347 153.332 255.305C158.902 229.731 164.78 204.225 170.56 178.698C175.601 156.434 180.678 134.179 185.793 111.541Z" fill="#303030"/>
</svg>
