<svg width="608" height="120" viewBox="0 0 608 120" fill="none" xmlns="http://www.w3.org/2000/svg">
<path d="M582.503 86.8428C591.181 86.8428 599.981 83.9145 606.402 78.8357C606.524 78.7289 606.524 78.6069 606.402 78.6069L600.088 70.9353C599.981 70.8286 599.859 70.8286 599.859 70.9353C594.567 74.6567 588.817 76.5784 582.732 76.5784C573.596 76.5784 568.06 72.2927 566.718 64.2856L566.596 63.3858H607.76V60.5642C607.76 45.4498 595.589 33.035 580.703 32.9282C580.581 32.9282 580.475 32.9282 580.353 32.9282C572.239 32.9282 565.025 35.643 559.946 40.7066C555.096 45.5566 552.396 52.4351 552.396 59.8931C552.503 76.2429 564.232 86.8428 582.503 86.8428ZM567.724 52.6639C569.646 46.6852 574.16 43.4214 580.353 43.4214C586.56 43.4214 590.952 46.6852 592.981 52.6639C593.21 53.2282 593.103 53.7925 592.767 54.25C592.417 54.6923 591.868 55.0431 591.303 55.0431H569.539C568.975 55.0431 568.41 54.6923 568.06 54.25C567.617 53.7925 567.511 53.2282 567.724 52.6639Z" fill="white"/>
<path d="M499.503 60.1067C499.503 75.4499 511.918 87.0716 528.481 87.0716C536.61 87.0716 544.053 84.2501 549.467 79.0645V78.729L541.796 70.3711C538.867 74.0925 534.231 76.3497 529.396 76.3497C526.91 76.3497 524.546 75.7854 522.289 74.6568C522.167 74.6568 522.06 74.55 521.953 74.4433L521.831 74.3213L521.603 74.2145C518.445 72.6283 515.853 69.8068 514.511 66.4361C514.16 65.6431 513.946 64.85 513.717 63.9501C513.595 63.4926 513.489 63.157 513.489 62.8215L513.382 62.2572C513.382 62.0284 513.26 61.6929 513.26 61.4641C513.26 61.1286 513.26 60.793 513.26 60.4575C513.26 60.2287 513.26 60.1067 513.26 60.1067C513.26 59.7712 513.26 59.4356 513.26 59.1001V58.8713C513.26 58.7646 513.26 58.7646 513.26 58.6426C513.489 56.8429 513.946 54.9212 514.724 53.2282C514.846 52.9994 514.953 52.6639 515.075 52.4351C516.539 49.5068 518.796 47.3716 521.496 45.9074C523.86 44.55 526.575 43.8637 529.396 43.8637C534.231 43.8637 538.745 46.0142 541.903 49.8424L549.574 41.2709C544.16 36.0854 536.61 33.157 528.374 33.157C511.918 33.157 499.503 44.7788 499.503 60.1067Z" fill="white"/>
<path d="M491.832 84.5856V58.307C491.389 46.3497 488.11 35.2923 468.161 35.2923C463.982 35.2923 460.261 35.8566 457.104 37.1072L455.975 37.5495V35.5211C455.975 35.4143 455.868 35.4143 455.868 35.4143H444.704C444.597 35.4143 444.597 35.5211 444.597 35.5211V84.5856C444.597 84.7077 444.704 84.8144 444.811 84.8144H457.668C457.79 84.8144 457.897 84.7077 457.897 84.5856V56.9496C457.897 55.3787 458.126 53.9146 458.461 52.5572C459.925 48.7138 463.875 46.0142 468.268 45.9074C472.554 45.9074 476.611 48.607 478.075 52.4352C478.532 53.7926 478.639 55.2567 478.639 56.8429V84.4789C478.639 84.5856 478.761 84.7077 478.868 84.7077H491.725C491.725 84.8144 491.832 84.7077 491.832 84.5856Z" fill="white"/>
<path d="M386.184 35.5211V61.9217C386.626 73.879 389.905 84.9212 409.854 84.9212C430.154 84.9212 433.082 71.393 433.54 61.3574V35.5211C433.54 35.4143 433.433 35.2923 433.311 35.2923H420.454C420.347 35.2923 420.241 35.4143 420.241 35.5211V63.1571C420.241 64.7432 420.012 66.2074 419.676 67.5648C418.212 71.393 414.262 74.0925 409.854 74.2145C405.568 74.2145 401.512 71.4997 400.047 67.6716C399.605 66.3142 399.483 64.85 399.483 63.2638V35.5211C399.483 35.4143 399.376 35.2923 399.254 35.2923H386.412C386.29 35.2923 386.184 35.4143 386.184 35.5211Z" fill="white"/>
<path d="M348.863 32.9282C332.391 32.9282 319.869 44.55 319.869 59.8931C319.869 75.2211 332.284 86.8428 348.863 86.8428C365.426 86.8428 377.947 75.2211 377.947 59.8931C377.947 44.428 365.426 32.9282 348.863 32.9282ZM348.863 75.6786C340.291 75.6786 333.748 68.9069 333.748 59.8931C333.748 50.9709 340.398 44.0924 348.863 44.0924C357.419 44.0924 364.084 51.0929 364.084 59.8931C364.084 68.6781 357.312 75.6786 348.863 75.6786Z" fill="white"/>
<path d="M289.656 85.943C303.306 85.943 313.677 74.6568 313.677 59.7712C313.677 44.9924 303.184 33.3859 289.656 33.3859C282.442 33.3859 275.899 36.3142 271.277 41.7285L269.813 43.2994V10.3711C269.813 10.2643 269.691 10.1423 269.584 10.1423H256.727C256.621 10.1423 256.499 10.2643 256.499 10.3711V84.5856C256.499 84.7077 256.621 84.8144 256.727 84.8144H268.791C268.913 84.8144 269.02 84.7077 269.02 84.5856V75.3431L270.484 77.0361C275.106 82.786 281.877 85.943 289.656 85.943ZM286.834 44.6568C295.406 44.6568 301.72 50.971 301.72 59.6644C301.72 68.2359 295.299 74.6568 286.834 74.6568C278.385 74.6568 271.72 68.1139 271.72 59.7712C271.72 51.1998 278.263 44.6568 286.834 44.6568Z" fill="white"/>
<path d="M246.128 84.8144C246.234 84.8144 246.356 84.7077 246.356 84.5856V58.307C245.899 46.3497 242.635 35.2923 222.671 35.2923C218.507 35.2923 214.785 35.8566 211.628 37.1072L210.5 37.5495V35.5211C210.5 35.4143 210.378 35.4143 210.271 35.4143H199.107C199 35.4143 199 35.5211 199 35.5211V84.5856C199 84.7077 199.107 84.8144 199.214 84.8144H212.071C212.193 84.8144 212.299 84.7077 212.299 84.5856V56.9496C212.299 55.3787 212.528 53.9146 212.864 52.5572C214.328 48.7138 218.278 46.0142 222.671 45.9074C226.956 45.9074 231.013 48.607 232.477 52.4352C232.935 53.7926 233.042 55.2567 233.042 56.8429V84.4789C233.042 84.5856 233.164 84.7077 233.27 84.7077H246.128V84.8144Z" fill="white"/>
<path d="M141.486 35.5211V61.9217C141.928 73.879 145.207 84.9212 165.172 84.9212C185.457 84.9212 188.4 71.393 188.842 61.3574V35.5211C188.842 35.4143 188.736 35.2923 188.614 35.2923H175.757C175.65 35.2923 175.543 35.4143 175.543 35.5211V63.1571C175.543 64.7432 175.314 66.2074 174.979 67.5648C173.515 71.393 169.564 74.0925 165.172 74.2145C160.886 74.2145 156.814 71.4997 155.35 67.6716C154.908 66.3142 154.786 64.85 154.786 63.2638V35.5211C154.786 35.4143 154.679 35.2923 154.572 35.2923H141.715C141.486 35.2923 141.486 35.4143 141.486 35.5211Z" fill="white"/>
<path d="M60.515 0C27.3732 0 0.530273 26.8429 0.530273 60C0.530273 93.1571 27.3732 120 60.515 120C93.6721 120 120.515 93.1571 120.515 60C120.515 26.8429 93.6721 0 60.515 0ZM58.3798 83.5791L53.9873 96.543C53.8653 97.0005 53.6365 97.336 53.423 97.6716C52.8587 98.5714 52.1724 99.2578 51.2725 99.7001C50.4794 100.158 49.5796 100.386 48.6797 100.386C48.1154 100.386 47.4444 100.264 46.88 100.036C44.394 99.1357 42.8231 96.665 43.1586 94.179C30.7438 87.8648 22.2944 74.8856 22.2944 60C22.2944 38.8002 39.4372 21.5353 60.7438 21.5353C63.2298 21.5353 65.5938 21.7641 67.9578 22.2064C69.3152 20.0712 72.0148 19.0493 74.5008 19.8424C75.8582 20.2999 76.8648 21.1998 77.5511 22.3284C78.1154 23.335 78.451 24.4637 78.3442 25.7143C78.3442 26.1566 78.2222 26.6141 78.1154 26.9497L73.7077 39.9288L58.3798 83.5791ZM63.2298 98.3427L68.5221 82.3284C77.6579 79.0646 84.2008 70.3711 84.2008 60C84.2008 55.15 82.7367 50.5287 80.1439 46.8073L85.4362 30.7931C93.6721 37.7783 98.9797 48.2715 98.9797 60C98.8577 80.2999 83.179 96.8785 63.2298 98.3427Z" fill="white"/>
<path d="M36.8442 60C36.8442 68.3427 41.2367 75.6787 47.7797 79.9644L62.6653 36.421C61.979 36.3142 61.2011 36.3142 60.5148 36.3142C47.4441 36.3142 36.8442 46.9141 36.8442 60Z" fill="white"/>
</svg>
