<svg width="508" height="120" viewBox="0 0 508 120" fill="none" xmlns="http://www.w3.org/2000/svg">
<path d="M200.265 30.423V43.482H180.722V94.3493H165.744V43.482H146.293V30.423H200.265ZM230.725 71.4273L245.886 94.3493H229.447L225.52 87.8653L221.044 80.2857L216.57 87.8653L212.46 94.3493H196.296L211.457 71.4273L197.482 49.2357H213.647L217.848 56.0847L221.135 62.2947L224.606 56.0847L228.808 49.2357H244.605L230.725 71.4273ZM283.859 92.6143C280.328 94.38 276.34 95.2623 271.897 95.2623C266.964 95.2623 263.069 93.8927 260.206 91.153C257.344 88.3523 255.916 83.8773 255.916 77.7283V60.651H248.244V49.2357H255.916V38.0027L270.16 36.45V49.2357H281.395V60.651H270.16V77.7283C270.16 79.5547 270.619 80.9247 271.53 81.838C272.444 82.6903 273.692 83.1167 275.276 83.1167C277.04 83.1167 278.777 82.6903 280.48 81.838L283.859 92.6143ZM322.12 95.8103C315.24 95.8103 309.182 94.4103 303.947 91.6097C298.77 88.809 294.752 84.882 291.893 79.8287C289.092 74.7757 287.691 68.9613 287.691 62.386C287.691 55.8107 289.122 49.9967 291.981 44.9433C294.905 39.829 298.953 35.9023 304.127 33.1625C309.304 30.3621 315.209 28.9616 321.845 28.9616C331.282 28.9616 339.378 32.2797 346.138 38.916L336.915 48.1397C332.835 44.2433 327.933 42.295 322.212 42.295C318.374 42.295 314.965 43.1473 311.983 44.852C309.06 46.4957 306.775 48.84 305.133 51.884C303.549 54.928 302.757 58.429 302.757 62.386C302.757 66.3433 303.549 69.844 305.133 72.8883C306.775 75.9323 309.06 78.307 311.983 80.0117C314.965 81.6553 318.374 82.4773 322.212 82.4773C325.254 82.4773 328.178 81.9293 330.979 80.8333C333.777 79.7377 336.215 78.1547 338.285 76.0847L347.051 85.8563C340.171 92.4927 331.86 95.8103 322.12 95.8103ZM400.148 49.2357V94.3493H387.728L386.818 88.9613C382.978 93.1623 377.988 95.2623 371.838 95.2623C367.638 95.2623 363.895 94.2883 360.608 92.3403C357.378 90.3313 354.851 87.561 353.028 84.0297C351.201 80.4377 350.288 76.3587 350.288 71.7923C350.288 67.2263 351.201 63.1777 353.028 59.6467C354.851 56.0543 357.378 53.2843 360.608 51.336C363.895 49.327 367.638 48.3223 371.838 48.3223C374.881 48.3223 377.681 48.87 380.238 49.966C382.798 51.0013 384.988 52.523 386.818 54.5323L387.728 49.2357H400.148ZM375.218 83.2077C378.381 83.2077 380.971 82.173 382.978 80.1027C384.988 77.972 385.995 75.202 385.995 71.7923C385.995 68.383 384.988 65.6433 382.978 63.5733C380.971 61.4423 378.381 60.377 375.218 60.377C372.051 60.377 369.461 61.4423 367.455 63.5733C365.505 65.7043 364.535 68.444 364.535 71.7923C364.535 75.141 365.505 77.8807 367.455 80.0117C369.461 82.1423 372.051 83.2077 375.218 83.2077ZM436.561 48.231C438.631 48.231 440.705 48.6267 442.775 49.418C444.845 50.1487 446.638 51.2447 448.161 52.7057L442.135 63.208C440.855 62.4163 439.668 61.8383 438.571 61.4727C437.478 61.1077 436.321 60.925 435.101 60.925C432.058 60.925 429.651 61.899 427.888 63.8473C426.121 65.7953 425.238 68.657 425.238 72.4317V94.3493H410.901V49.2357H423.415L424.508 54.8977C427.431 50.4533 431.451 48.231 436.561 48.231ZM485.325 92.6143C481.791 94.38 477.805 95.2623 473.361 95.2623C468.428 95.2623 464.535 93.8927 461.671 91.153C458.808 88.3523 457.378 83.8773 457.378 77.7283V60.651H449.708V49.2357H457.378V38.0027L471.625 36.45V49.2357H482.858V60.651H471.625V77.7283C471.625 79.5547 472.085 80.9247 472.995 81.838C473.908 82.6903 475.158 83.1167 476.741 83.1167C478.505 83.1167 480.241 82.6903 481.945 81.838L485.325 92.6143Z" fill="white"/>
<path d="M495.888 33.2715C494.018 33.2715 492.185 33.8263 490.628 34.8663C489.071 35.9063 487.861 37.3846 487.141 39.1143C486.428 40.8436 486.241 42.7466 486.605 44.5826C486.971 46.4186 487.871 48.105 489.195 49.4286C490.518 50.7523 492.208 51.654 494.041 52.019C495.875 52.384 497.781 52.1967 499.508 51.4803C501.238 50.764 502.718 49.551 503.755 47.9943C504.798 46.438 505.351 44.608 505.351 42.736C505.351 41.4933 505.108 40.2626 504.631 39.1143C504.158 37.9656 503.458 36.9223 502.581 36.0433C501.701 35.1646 500.658 34.4673 499.508 33.992C498.361 33.516 497.131 33.2715 495.888 33.2715ZM495.888 50.3077C494.391 50.3077 492.925 49.8637 491.681 49.0317C490.435 48.2 489.468 47.017 488.891 45.6336C488.321 44.25 488.171 42.7276 488.461 41.259C488.755 39.79 489.475 38.441 490.535 37.382C491.591 36.3233 492.945 35.602 494.411 35.31C495.878 35.0177 497.401 35.1677 498.785 35.7407C500.168 36.3137 501.351 37.2843 502.185 38.5297C503.015 39.7747 503.458 41.2386 503.458 42.736C503.458 44.7443 502.661 46.67 501.241 48.09C499.821 49.5103 497.898 50.3077 495.888 50.3077ZM496.125 43.938H494.761V46.995H493.048V38.6757H496.131C496.945 38.626 497.748 38.8567 498.405 39.329C498.678 39.5593 498.891 39.851 499.028 40.18C499.168 40.509 499.228 40.8657 499.201 41.2217C499.218 41.7207 499.091 42.2143 498.831 42.6416C498.565 43.0633 498.175 43.3933 497.715 43.588L499.511 46.9857V47.0803H497.678L496.125 44.0233M494.761 42.6416H496.141C496.505 42.6616 496.861 42.5433 497.135 42.31C497.261 42.1883 497.358 42.0403 497.421 41.8763C497.481 41.713 497.501 41.5376 497.488 41.3636C497.501 41.1913 497.478 41.0183 497.425 40.855C497.365 40.692 497.275 40.543 497.158 40.4173C497.018 40.2953 496.855 40.203 496.681 40.146C496.501 40.0887 496.318 40.0686 496.131 40.086H494.761V42.6416Z" fill="white"/>
<path d="M123.421 56.4827C123.288 55.7577 123.222 55.033 123.159 54.308C122.961 52.726 122.762 51.0787 122.435 49.4967C120.261 38.6227 115.194 29.0006 107.362 20.9603C97.2897 10.6792 84.9834 4.61597 70.6354 2.83646C54.7721 0.991162 40.2261 4.48417 27.3256 13.3812C14.6227 22.1464 6.59279 34.0753 3.36752 48.9037C3.03859 50.5513 2.7752 52.199 2.57767 53.7807C2.51182 54.5057 2.38041 55.2967 2.24872 56.0213V59.9757V63.073V63.139C2.38041 63.864 2.44598 64.589 2.51182 65.314C2.70936 66.9613 2.90689 68.609 3.23583 70.2567C4.88139 78.89 8.50142 86.8647 14.0301 93.9823C14.1618 94.114 14.2935 94.312 14.4252 94.4433C13.9645 95.1027 12.9772 96.3547 10.871 98.8593C10.6076 99.1887 10.4101 99.3867 10.3445 99.4523C7.77739 102.616 5.34199 105.845 2.97273 109.272C1.85365 110.854 1.72197 112.633 2.57767 114.215C3.56506 116.126 5.86876 117.444 8.10662 117.444C20.0856 117.444 32.262 117.51 44.0438 117.576C50.0988 117.576 56.0884 117.642 62.1448 117.642H62.4064C76.8204 117.642 89.7221 113.358 100.714 104.922C112.494 95.8937 119.867 84.0307 122.567 69.7293C122.828 68.4113 122.961 67.0933 123.159 65.7753C123.222 65.182 123.288 64.589 123.421 63.9957V60.0413V56.6803V56.4827ZM99.1328 102.813C88.6034 110.92 76.2281 115.006 62.4064 115.006H62.2108C56.1541 115.006 50.1648 114.94 44.1094 114.94C32.3278 114.874 20.1514 114.808 8.17249 114.808C6.92172 114.808 5.53952 114.017 4.94722 112.963C4.55242 112.238 4.68386 111.513 5.21059 110.722C5.47369 110.326 5.73709 109.997 6.00046 109.602C6.92172 110.524 8.36972 111.117 9.68606 111.117C27.5232 111.051 45.2941 111.117 63.1311 111.117C76.7541 111.117 89.2617 107.559 100.45 99.65C105.913 95.7617 110.519 91.2143 114.01 86.008C110.324 92.3347 105.387 98.0023 99.1328 102.813Z" fill="#0081FF"/>
<path d="M48.8094 76.6653H41.7261L23.7344 34.16H30.8263L48.8094 76.6653Z" fill="white"/>
<path d="M48.1967 90.4257C51.2367 90.4257 53.7007 87.9617 53.7007 84.9217C53.7007 81.882 51.2367 79.4174 48.1967 79.4174C45.1567 79.4174 42.6924 81.882 42.6924 84.9217C42.6924 87.9617 45.1567 90.4257 48.1967 90.4257Z" fill="white"/>
<path d="M75.4102 90.4257C78.4519 90.4257 80.9146 87.9617 80.9146 84.9217C80.9146 81.882 78.4519 79.4174 75.4102 79.4174C72.3722 79.4174 69.9062 81.882 69.9062 84.9217C69.9062 87.9617 72.3722 90.4257 75.4102 90.4257Z" fill="white"/>
<path d="M61.0413 66.5747L58.2286 60.153H45.752L48.5556 66.5747H61.0413Z" fill="white"/>
<path d="M56.0958 45.4757H65.9332L62.9278 38.4423H53.0898L56.0958 45.4757Z" fill="white"/>
<path d="M43.9454 56.1773H56.4518L53.6694 49.45H41.1621L43.9454 56.1773Z" fill="white"/>
<path d="M69.8364 45.4757H79.689L76.6984 38.4423H66.8457L69.8364 45.4757Z" fill="white"/>
<path d="M91.1292 62.5993L92.2286 60.153H90.0879L91.1292 62.5993Z" fill="white"/>
<path d="M67.4597 49.45H57.6797L60.444 56.1773H70.217L67.4597 49.45Z" fill="white"/>
<path d="M76.5367 70.856H66.8457L69.3757 76.666H79.0774L76.5367 70.856Z" fill="white"/>
<path d="M84.2789 56.1773L81.4612 49.45H71.4355L74.2462 56.1773H84.2789Z" fill="white"/>
<path d="M62.7563 70.856H50.3359L52.9016 76.666H65.3196L62.7563 70.856Z" fill="white"/>
<path d="M52.1744 45.4757L49.1511 38.4423H36.5791L39.6118 45.4757H52.1744Z" fill="white"/>
<path d="M80.6094 70.856L83.1454 76.666H84.659L87.3367 70.856H80.6094Z" fill="white"/>
<path d="M74.8 66.5747L72.0244 60.153H62.2627L65.0384 66.5747H74.8Z" fill="white"/>
<path d="M86.0387 60.153H76.0254L78.8554 66.5747H88.8687L86.0387 60.153Z" fill="white"/>
<path d="M85.5049 49.45L88.2552 56.1773H93.9052L96.8192 49.45H85.5049Z" fill="white"/>
<path d="M80.915 38.4423L83.878 45.4757H98.569L101.709 38.4423H80.915Z" fill="white"/>
</svg>
