<svg width="1362" height="420" viewBox="0 0 1362 420" fill="none" xmlns="http://www.w3.org/2000/svg">
<path d="M550.227 290.333H515.076L568.636 135.182H610.909L664.394 290.333H629.242L590.379 170.636H589.167L550.227 290.333ZM548.03 229.348H631.061V254.954H548.03V229.348ZM742.955 173.97V198.212H671.136V173.97H742.955ZM687.576 290.333V165.561C687.576 157.126 689.217 150.131 692.5 144.576C695.833 139.02 700.379 134.853 706.136 132.076C711.894 129.298 718.434 127.909 725.758 127.909C730.707 127.909 735.227 128.288 739.318 129.045C743.46 129.803 746.54 130.485 748.561 131.091L742.803 155.333C741.54 154.929 739.975 154.55 738.106 154.197C736.288 153.843 734.419 153.667 732.5 153.667C727.753 153.667 724.444 154.778 722.576 157C720.707 159.172 719.773 162.227 719.773 166.167V290.333H687.576ZM824.564 173.97V198.212H754.489V173.97H824.564ZM770.398 146.091H802.67V254.576C802.67 257.555 803.125 259.879 804.034 261.545C804.943 263.162 806.206 264.298 807.822 264.954C809.489 265.611 811.408 265.939 813.58 265.939C815.095 265.939 816.61 265.813 818.125 265.561C819.64 265.257 820.802 265.03 821.61 264.879L826.686 288.894C825.069 289.399 822.797 289.98 819.867 290.636C816.938 291.343 813.378 291.773 809.186 291.924C801.408 292.227 794.59 291.192 788.731 288.818C782.923 286.444 778.403 282.757 775.17 277.757C771.938 272.757 770.347 266.444 770.398 258.818V146.091ZM897.367 292.606C885.398 292.606 875.095 290.182 866.458 285.333C857.872 280.434 851.256 273.515 846.61 264.576C841.963 255.586 839.64 244.954 839.64 232.682C839.64 220.712 841.963 210.207 846.61 201.167C851.256 192.126 857.797 185.081 866.231 180.03C874.716 174.98 884.665 172.454 896.08 172.454C903.756 172.454 910.903 173.692 917.519 176.167C924.186 178.591 929.994 182.252 934.943 187.151C939.943 192.05 943.832 198.212 946.61 205.636C949.388 213.01 950.776 221.646 950.776 231.545V240.409H852.519V220.409H920.398C920.398 215.763 919.388 211.646 917.367 208.061C915.347 204.475 912.544 201.672 908.958 199.651C905.423 197.581 901.307 196.545 896.61 196.545C891.711 196.545 887.367 197.682 883.58 199.954C879.842 202.177 876.913 205.182 874.792 208.97C872.67 212.707 871.585 216.874 871.534 221.47V240.485C871.534 246.242 872.595 251.217 874.716 255.409C876.888 259.601 879.943 262.833 883.883 265.106C887.822 267.379 892.494 268.515 897.898 268.515C901.484 268.515 904.766 268.01 907.746 267C910.726 265.99 913.276 264.475 915.398 262.454C917.519 260.434 919.135 257.96 920.246 255.03L950.095 257C948.58 264.172 945.473 270.434 940.776 275.788C936.13 281.091 930.12 285.232 922.746 288.212C915.423 291.141 906.963 292.606 897.367 292.606ZM971.837 290.333V173.97H1003.12V194.273H1004.34C1006.46 187.05 1010.02 181.596 1015.02 177.909C1020.02 174.172 1025.78 172.303 1032.29 172.303C1033.91 172.303 1035.65 172.404 1037.52 172.606C1039.39 172.808 1041.03 173.086 1042.44 173.439V202.076C1040.93 201.621 1038.83 201.217 1036.16 200.864C1033.48 200.51 1031.03 200.333 1028.81 200.333C1024.06 200.333 1019.82 201.369 1016.08 203.439C1012.39 205.46 1009.46 208.288 1007.29 211.924C1005.17 215.561 1004.11 219.752 1004.11 224.5V290.333H971.837ZM1059.73 290.333V135.182H1092.54V263.288H1159.05V290.333H1059.73ZM1180.17 290.333V173.97H1212.44V290.333H1180.17ZM1196.38 158.97C1191.58 158.97 1187.47 157.379 1184.03 154.197C1180.65 150.965 1178.96 147.101 1178.96 142.606C1178.96 138.162 1180.65 134.348 1184.03 131.167C1187.47 127.934 1191.58 126.318 1196.38 126.318C1201.18 126.318 1205.27 127.934 1208.66 131.167C1212.09 134.348 1213.81 138.162 1213.81 142.606C1213.81 147.101 1212.09 150.965 1208.66 154.197C1205.27 157.379 1201.18 158.97 1196.38 158.97ZM1238.9 290.333V135.182H1271.17V193.515H1272.16C1273.57 190.384 1275.62 187.202 1278.3 183.97C1281.02 180.687 1284.56 177.96 1288.9 175.788C1293.3 173.566 1298.75 172.454 1305.27 172.454C1313.75 172.454 1321.58 174.677 1328.75 179.121C1335.92 183.515 1341.65 190.156 1345.95 199.045C1350.24 207.884 1352.39 218.97 1352.39 232.303C1352.39 245.283 1350.29 256.242 1346.1 265.182C1341.96 274.071 1336.3 280.813 1329.13 285.409C1322.01 289.954 1314.03 292.227 1305.19 292.227C1298.93 292.227 1293.6 291.192 1289.2 289.121C1284.86 287.05 1281.3 284.449 1278.52 281.318C1275.74 278.136 1273.62 274.929 1272.16 271.697H1270.72V290.333H1238.9ZM1270.49 232.151C1270.49 239.071 1271.45 245.106 1273.37 250.257C1275.29 255.409 1278.07 259.424 1281.7 262.303C1285.34 265.131 1289.76 266.545 1294.96 266.545C1300.21 266.545 1304.66 265.106 1308.3 262.227C1311.93 259.298 1314.68 255.257 1316.55 250.106C1318.47 244.904 1319.43 238.919 1319.43 232.151C1319.43 225.434 1318.5 219.525 1316.63 214.424C1314.76 209.323 1312.01 205.333 1308.37 202.454C1304.73 199.576 1300.27 198.136 1294.96 198.136C1289.71 198.136 1285.27 199.525 1281.63 202.303C1278.04 205.081 1275.29 209.02 1273.37 214.121C1271.45 219.222 1270.49 225.232 1270.49 232.151Z" fill="white"/>
<path d="M171.667 216.667L125 146.667L40 300H125L171.667 216.667Z" fill="white"/>
<path fill-rule="evenodd" clip-rule="evenodd" d="M210 420C325.98 420 420 325.98 420 210C420 94.0202 325.98 0 210 0C94.0202 0 0 94.0202 0 210C0 325.98 94.0202 420 210 420ZM210 403.333C316.775 403.333 403.333 316.775 403.333 210C403.333 103.225 316.775 16.6667 210 16.6667C103.225 16.6667 16.6667 103.225 16.6667 210C16.6667 316.775 103.225 403.333 210 403.333Z" fill="white"/>
<path d="M206.667 16.6667L168.333 81.6667L300 306.667H376.667L206.667 16.6667Z" fill="white"/>
</svg>
