<svg width="48" height="48" viewBox="0 0 48 48" fill="none" xmlns="http://www.w3.org/2000/svg">
<g opacity="0.6">
<g clip-path="url(#clip0_1107_66607)">
<path opacity="0.4" d="M39.4231 39.4233C42.6544 36.192 38.3687 26.6672 29.8506 18.1491C21.3326 9.63106 11.8078 5.34533 8.57645 8.57667C5.34511 11.808 9.63084 21.3328 18.1489 29.8509C26.667 38.3689 36.1918 42.6547 39.4231 39.4233Z" fill="white"/>
<path d="M39.4231 39.4233C42.6544 36.192 38.3687 26.6672 29.8506 18.1491C21.3326 9.63106 11.8078 5.34533 8.57645 8.57667C5.34511 11.808 9.63084 21.3328 18.1489 29.8509C26.667 38.3689 36.1918 42.6547 39.4231 39.4233Z" stroke="white" stroke-width="2" stroke-linecap="round" stroke-linejoin="round"/>
<path d="M29.8506 29.8509C38.3687 21.3328 42.6544 11.808 39.4231 8.57666C36.1918 5.34532 26.667 9.63106 18.1489 18.1491C9.63084 26.6672 5.34511 36.192 8.57645 39.4233C11.8078 42.6547 21.3326 38.3689 29.8506 29.8509Z" stroke="white" stroke-width="2" stroke-linecap="round" stroke-linejoin="round"/>
<path d="M24 26.25C25.2426 26.25 26.25 25.2426 26.25 24C26.25 22.7574 25.2426 21.75 24 21.75C22.7574 21.75 21.75 22.7574 21.75 24C21.75 25.2426 22.7574 26.25 24 26.25Z" fill="white"/>
</g>
</g>
<defs>
<clipPath id="clip0_1107_66607">
<rect width="48" height="48" fill="white"/>
</clipPath>
</defs>
</svg>
