<svg width="48" height="48" viewBox="0 0 48 48" fill="none" xmlns="http://www.w3.org/2000/svg">
<g opacity="0.6">
<g clip-path="url(#clip0_1107_66615)">
<path opacity="0.4" d="M28.5 39V30C28.5 29.6022 28.342 29.2206 28.0607 28.9393C27.7794 28.658 27.3978 28.5 27 28.5H21C20.6022 28.5 20.2206 28.658 19.9393 28.9393C19.658 29.2206 19.5 29.6022 19.5 30V39C19.5 39.3978 19.342 39.7794 19.0607 40.0607C18.7794 40.342 18.3978 40.5 18 40.5H9C8.60218 40.5 8.22064 40.342 7.93934 40.0607C7.65804 39.7794 7.5 39.3978 7.5 39V21.6638C7.50002 21.4547 7.54373 21.248 7.62833 21.0568C7.71293 20.8657 7.83654 20.6943 7.99125 20.5538L22.9913 6.39001C23.2674 6.13862 23.6275 5.9993 24.0009 5.9993C24.3744 5.9993 24.7344 6.13862 25.0106 6.39001L40.0106 20.5538C40.1653 20.6943 40.2889 20.8657 40.3735 21.0568C40.4581 21.248 40.5019 21.4547 40.5019 21.6638V39C40.5019 39.3978 40.3438 39.7794 40.0625 40.0607C39.7812 40.342 39.3997 40.5 39.0019 40.5H30C29.6022 40.5 29.2206 40.342 28.9393 40.0607C28.658 39.7794 28.5 39.3978 28.5 39Z" fill="white"/>
<path d="M28.5 39V30C28.5 29.6022 28.342 29.2206 28.0607 28.9393C27.7794 28.658 27.3978 28.5 27 28.5H21C20.6022 28.5 20.2206 28.658 19.9393 28.9393C19.658 29.2206 19.5 29.6022 19.5 30V39C19.5 39.3978 19.342 39.7794 19.0607 40.0607C18.7794 40.342 18.3978 40.5 18 40.5H9C8.60218 40.5 8.22064 40.342 7.93934 40.0607C7.65804 39.7794 7.5 39.3978 7.5 39V21.6638C7.50002 21.4547 7.54373 21.248 7.62833 21.0568C7.71293 20.8657 7.83654 20.6943 7.99125 20.5538L22.9913 6.39001C23.2674 6.13862 23.6275 5.9993 24.0009 5.9993C24.3744 5.9993 24.7344 6.13862 25.0106 6.39001L40.0106 20.5538C40.1653 20.6943 40.2889 20.8657 40.3735 21.0568C40.4581 21.248 40.5019 21.4547 40.5019 21.6638V39C40.5019 39.3978 40.3438 39.7794 40.0625 40.0607C39.7812 40.342 39.3997 40.5 39.0019 40.5H30C29.6022 40.5 29.2206 40.342 28.9393 40.0607C28.658 39.7794 28.5 39.3978 28.5 39Z" stroke="white" stroke-width="2" stroke-linecap="round" stroke-linejoin="round"/>
</g>
</g>
<defs>
<clipPath id="clip0_1107_66615">
<rect width="48" height="48" fill="white"/>
</clipPath>
</defs>
</svg>
