<svg width="1076" height="114" viewBox="0 0 1076 114" fill="none" xmlns="http://www.w3.org/2000/svg">
<path d="M138 4.5L165.5 0V3L100 114C93.3333 102.167 78.4 76.1 72 66.5C65.6 56.9 54.6667 58.1667 50 60L73.5 22.5L102 68L138 4.5Z" fill="#EE1E5C"/>
<path d="M0 36.5L23 30L44.5 67.5C44.6667 67.3333 46.2 65.3 51 58.5C62.2 55.7 70 63 72.5 67L44 113.5L0 36.5Z" fill="#0789C3"/>
<path d="M248.264 47.2063H231.689C231.468 45.5046 231.015 43.9686 230.33 42.5985C229.645 41.2283 228.739 40.057 227.611 39.0846C226.484 38.1122 225.147 37.3718 223.6 36.8635C222.075 36.3331 220.385 36.0679 218.528 36.0679C215.236 36.0679 212.396 36.8746 210.009 38.4879C207.644 40.1012 205.821 42.4327 204.539 45.4825C203.279 48.5323 202.65 52.223 202.65 56.5545C202.65 61.0629 203.291 64.842 204.572 67.8918C205.876 70.9195 207.699 73.2068 210.042 74.7538C212.407 76.2787 215.202 77.0412 218.429 77.0412C220.241 77.0412 221.888 76.8091 223.368 76.345C224.871 75.8809 226.186 75.2069 227.313 74.3229C228.462 73.4168 229.402 72.3228 230.131 71.041C230.882 69.7371 231.402 68.2675 231.689 66.6321L248.264 66.7316C247.977 69.7371 247.104 72.6985 245.645 75.6157C244.208 78.5329 242.231 81.1959 239.711 83.6048C237.192 85.9916 234.12 87.8922 230.495 89.3066C226.893 90.721 222.761 91.4282 218.097 91.4282C211.954 91.4282 206.451 90.0801 201.589 87.3839C196.749 84.6656 192.926 80.7097 190.119 75.5163C187.312 70.3228 185.909 64.0022 185.909 56.5545C185.909 49.0848 187.334 42.7532 190.185 37.5597C193.036 32.3662 196.893 28.4214 201.755 25.7252C206.617 23.029 212.064 21.6809 218.097 21.6809C222.208 21.6809 226.009 22.2555 229.501 23.4047C232.993 24.5318 236.065 26.1893 238.717 28.3772C241.369 30.543 243.523 33.206 245.181 36.3663C246.838 39.5266 247.866 43.1399 248.264 47.2063ZM321.732 56.5545C321.732 64.0243 320.296 70.3559 317.423 75.5494C314.55 80.7429 310.66 84.6877 305.754 87.3839C300.87 90.0801 295.389 91.4282 289.312 91.4282C283.212 91.4282 277.72 90.0691 272.836 87.3508C267.952 84.6325 264.074 80.6876 261.201 75.5163C258.35 70.3228 256.924 64.0022 256.924 56.5545C256.924 49.0848 258.35 42.7532 261.201 37.5597C264.074 32.3662 267.952 28.4214 272.836 25.7252C277.72 23.029 283.212 21.6809 289.312 21.6809C295.389 21.6809 300.87 23.029 305.754 25.7252C310.66 28.4214 314.55 32.3662 317.423 37.5597C320.296 42.7532 321.732 49.0848 321.732 56.5545ZM304.958 56.5545C304.958 52.1346 304.329 48.3997 303.069 45.3499C301.831 42.3001 300.041 39.9907 297.699 38.4216C295.378 36.8525 292.582 36.0679 289.312 36.0679C286.063 36.0679 283.267 36.8525 280.925 38.4216C278.582 39.9907 276.781 42.3001 275.521 45.3499C274.284 48.3997 273.665 52.1346 273.665 56.5545C273.665 60.9745 274.284 64.7094 275.521 67.7592C276.781 70.809 278.582 73.1184 280.925 74.6875C283.267 76.2566 286.063 77.0412 289.312 77.0412C292.582 77.0412 295.378 76.2566 297.699 74.6875C300.041 73.1184 301.831 70.809 303.069 67.7592C304.329 64.7094 304.958 60.9745 304.958 56.5545ZM389.093 22.6091V90.5H375.17L348.153 51.3169H347.722V90.5H331.312V22.6091H345.434L372.153 61.7259H372.717V22.6091H389.093ZM414.825 22.6091L430.008 72.3339H430.571L445.754 22.6091H464.119L441.213 90.5H419.367L396.46 22.6091H414.825ZM471.429 90.5V22.6091H518.767V35.9353H487.838V49.8583H516.347V63.2177H487.838V77.1738H518.767V90.5H471.429ZM529.043 90.5V22.6091H557.088C562.171 22.6091 566.558 23.5262 570.248 25.3605C573.961 27.1727 576.823 29.7805 578.834 33.1839C580.845 36.5652 581.851 40.5763 581.851 45.2173C581.851 49.9246 580.823 53.9247 578.768 57.2175C576.713 60.4883 573.795 62.9856 570.016 64.7094C566.237 66.4111 561.762 67.2619 556.591 67.2619H538.855V54.3335H553.541C556.016 54.3335 558.082 54.0131 559.74 53.3722C561.419 52.7092 562.69 51.7147 563.552 50.3887C564.414 49.0406 564.845 47.3168 564.845 45.2173C564.845 43.1178 564.414 41.383 563.552 40.0128C562.69 38.6205 561.419 37.5818 559.74 36.8967C558.06 36.1895 555.994 35.8359 553.541 35.8359H545.452V90.5H529.043ZM567.265 59.4717L584.171 90.5H566.27L549.695 59.4717H567.265ZM627.548 42.9631C627.327 40.5321 626.343 38.6426 624.598 37.2945C622.874 35.9243 620.41 35.2392 617.205 35.2392C615.084 35.2392 613.316 35.5154 611.901 36.0679C610.487 36.6204 609.426 37.3829 608.719 38.3553C608.012 39.3056 607.647 40.3995 607.625 41.6371C607.581 42.6537 607.78 43.5487 608.222 44.3222C608.686 45.0957 609.349 45.7808 610.211 46.3775C611.095 46.9521 612.155 47.4604 613.393 47.9024C614.63 48.3444 616.023 48.7312 617.57 49.0627L623.404 50.3887C626.763 51.118 629.725 52.0904 632.288 53.3059C634.874 54.5214 637.04 55.9689 638.786 57.6485C640.554 59.3281 641.891 61.2618 642.797 63.4497C643.703 65.6376 644.167 68.0907 644.189 70.809C644.167 75.0964 643.084 78.776 640.94 81.8479C638.797 84.9198 635.714 87.2734 631.692 88.9088C627.692 90.5442 622.863 91.3619 617.205 91.3619C611.525 91.3619 606.575 90.511 602.354 88.8094C598.133 87.1077 594.851 84.522 592.508 81.0523C590.166 77.5826 588.961 73.1958 588.895 67.8918H604.608C604.741 70.0797 605.326 71.9029 606.365 73.3615C607.404 74.8201 608.829 75.9251 610.641 76.6765C612.476 77.4279 614.597 77.8036 617.006 77.8036C619.216 77.8036 621.095 77.5053 622.642 76.9086C624.211 76.3119 625.415 75.4831 626.255 74.4223C627.095 73.3615 627.526 72.146 627.548 70.7758C627.526 69.494 627.128 68.4001 626.354 67.494C625.581 66.5658 624.388 65.7702 622.774 65.1072C621.183 64.4221 619.15 63.7923 616.675 63.2177L609.581 61.5602C603.702 60.2121 599.072 58.0352 595.691 55.0297C592.31 52.002 590.63 47.9135 590.652 42.7642C590.63 38.5652 591.757 34.8856 594.033 31.7253C596.31 28.565 599.459 26.1009 603.481 24.3329C607.503 22.5649 612.089 21.6809 617.238 21.6809C622.498 21.6809 627.062 22.5759 630.929 24.366C634.819 26.134 637.835 28.6203 639.979 31.8248C642.123 35.0292 643.217 38.742 643.261 42.9631H627.548ZM668.886 22.6091V90.5H652.477V22.6091H668.886ZM743.266 56.5545C743.266 64.0243 741.829 70.3559 738.956 75.5494C736.083 80.7429 732.194 84.6877 727.288 87.3839C722.403 90.0801 716.923 91.4282 710.845 91.4282C704.746 91.4282 699.254 90.0691 694.37 87.3508C689.486 84.6325 685.607 80.6876 682.734 75.5163C679.883 70.3228 678.458 64.0022 678.458 56.5545C678.458 49.0848 679.883 42.7532 682.734 37.5597C685.607 32.3662 689.486 28.4214 694.37 25.7252C699.254 23.029 704.746 21.6809 710.845 21.6809C716.923 21.6809 722.403 23.029 727.288 25.7252C732.194 28.4214 736.083 32.3662 738.956 37.5597C741.829 42.7532 743.266 49.0848 743.266 56.5545ZM726.492 56.5545C726.492 52.1346 725.862 48.3997 724.602 45.3499C723.365 42.3001 721.575 39.9907 719.232 38.4216C716.912 36.8525 714.116 36.0679 710.845 36.0679C707.597 36.0679 704.801 36.8525 702.458 38.4216C700.116 39.9907 698.315 42.3001 697.055 45.3499C695.817 48.3997 695.198 52.1346 695.198 56.5545C695.198 60.9745 695.817 64.7094 697.055 67.7592C698.315 70.809 700.116 73.1184 702.458 74.6875C704.801 76.2566 707.597 77.0412 710.845 77.0412C714.116 77.0412 716.912 76.2566 719.232 74.6875C721.575 73.1184 723.365 70.809 724.602 67.7592C725.862 64.7094 726.492 60.9745 726.492 56.5545ZM810.626 22.6091V90.5H796.703L769.686 51.3169H769.255V90.5H752.846V22.6091H766.968L793.687 61.7259H794.25V22.6091H810.626ZM862.812 90.5L843.983 22.6091H854.757L867.984 75.1848H868.614L882.371 22.6091H893.045L906.802 75.2179H907.432L920.626 22.6091H931.433L912.57 90.5H902.261L887.973 39.6481H887.443L873.155 90.5H862.812ZM951.016 22.6091V90.5H940.773V22.6091H951.016ZM1002.96 40.4437C1002.61 37.3055 1001.15 34.8745 998.586 33.1507C996.022 31.4049 992.796 30.5319 988.906 30.5319C986.122 30.5319 983.713 30.9739 981.68 31.8579C979.646 32.7198 978.066 33.9132 976.939 35.4381C975.834 36.9409 975.282 38.6536 975.282 40.5763C975.282 42.1896 975.657 43.5819 976.409 44.7532C977.182 45.9245 978.188 46.9079 979.425 47.7035C980.685 48.477 982.033 49.129 983.47 49.6594C984.906 50.1677 986.287 50.5876 987.613 50.9191L994.243 52.6429C996.409 53.1733 998.63 53.8915 1000.91 54.7976C1003.18 55.7037 1005.29 56.8971 1007.24 58.3778C1009.18 59.8585 1010.75 61.6928 1011.95 63.8807C1013.16 66.0686 1013.77 68.6874 1013.77 71.7372C1013.77 75.5826 1012.77 78.997 1010.79 81.9805C1008.82 84.964 1005.96 87.3176 1002.2 89.0414C998.464 90.7652 993.945 91.6271 988.641 91.6271C983.558 91.6271 979.16 90.8204 975.447 89.2072C971.735 87.5939 968.828 85.3065 966.729 82.3451C964.629 79.3616 963.469 75.8257 963.248 71.7372H973.525C973.724 74.1903 974.519 76.2345 975.911 77.8699C977.326 79.4832 979.127 80.6876 981.315 81.4832C983.525 82.2567 985.945 82.6435 988.575 82.6435C991.47 82.6435 994.044 82.1904 996.299 81.2843C998.575 80.3561 1000.36 79.0743 1001.67 77.439C1002.97 75.7815 1003.62 73.8477 1003.62 71.6377C1003.62 69.6266 1003.05 67.9802 1001.9 66.6984C1000.77 65.4166 999.238 64.3558 997.293 63.516C995.37 62.6762 993.194 61.9359 990.763 61.295L982.74 59.1071C977.304 57.6264 972.994 55.4495 969.812 52.5766C966.652 49.7036 965.071 45.9024 965.071 41.173C965.071 37.2613 966.132 33.8469 968.254 30.9297C970.375 28.0125 973.248 25.7473 976.873 24.134C980.497 22.4986 984.586 21.6809 989.138 21.6809C993.735 21.6809 997.79 22.4875 1001.3 24.1008C1004.84 25.7141 1007.62 27.9352 1009.66 30.764C1011.69 33.5706 1012.75 36.7972 1012.84 40.4437H1002.96ZM1026.01 90.5V22.6091H1068.57V31.427H1036.25V52.1125H1066.35V60.8972H1036.25V81.6821H1068.97V90.5H1026.01Z" fill="white"/>
</svg>
