<svg width="68" height="98" viewBox="0 0 68 98" fill="none" xmlns="http://www.w3.org/2000/svg">
<g clip-path="url(#clip0_72_1965)">
<path d="M0 8.31485e-05C1.98 8.31485e-05 3.96 8.31485e-05 6 8.31485e-05C6 30.3601 6 60.7201 6 92.0001C10.29 92.0001 14.58 92.0001 19 92.0001C19 81.1101 19 70.2201 19 59.0001C29 58.6251 29 58.6251 32.1016 58.5221C40.8152 58.1494 49.3058 57.0935 56 51.0001C61.2046 43.8631 62.5786 35.9969 61.7422 27.3282C60.6067 20.515 58.6612 15.1881 53.1875 10.6876C45.2171 6.46795 37.4343 6.59083 28.5625 6.37508C24.0869 6.25133 19.6112 6.12758 15 6.00008C15 16.8901 15 27.7801 15 39.0001C18.9188 38.8763 22.8375 38.7526 26.875 38.6251C28.1098 38.5911 29.3445 38.5571 30.6167 38.5221C31.5862 38.4864 32.5558 38.4508 33.5547 38.4141C34.5497 38.3827 35.5447 38.3513 36.5698 38.3189C39.1785 38.2276 39.1785 38.2276 41 36.0001C41.2429 33.56 41.2429 33.56 41.125 30.8751C41.0837 29.2663 41.0425 27.6576 41 26.0001C35.72 25.6701 30.44 25.3401 25 25.0001C25 28.6301 25 32.2601 25 36.0001C23.02 36.0001 21.04 36.0001 19 36.0001C19 30.3901 19 24.7801 19 19.0001C22.2088 18.9188 25.4156 18.8595 28.625 18.8126C29.5286 18.7874 30.4323 18.7623 31.3633 18.7364C36.69 18.6781 40.4014 18.9877 45 22.0001C48.4256 25.7683 48.5252 29.6721 48.3359 34.5626C47.8091 38.3855 46.7264 40.2737 44 43.0001C36.8515 46.6925 29.2763 46.3554 21.4375 46.1876C17.3331 46.1257 13.2288 46.0638 9 46.0001C9 30.8201 9 15.6401 9 8.31485e-05C14.5481 -0.0824169 20.0963 -0.164917 25.8125 -0.249917C28.4032 -0.304541 28.4032 -0.304541 31.0461 -0.360268C42.6682 -0.50386 52.5471 0.684416 61.3438 9.06649C68.7198 17.6776 68.6244 28.0208 68.1792 38.8077C67.5922 45.9898 64.6492 52.3675 59.6953 57.5704C52.1004 63.9753 42.6075 65.3398 33 65.1251C29.04 65.0632 29.04 65.0632 25 65.0001C25 75.8901 25 86.7801 25 98.0001C16.75 98.0001 8.5 98.0001 0 98.0001C0 65.6601 0 33.3201 0 8.31485e-05Z" fill="#00FFD1"/>
<path d="M19 8.99981C21.9794 8.94525 24.9578 8.90587 27.9375 8.87481C29.1837 8.84967 29.1837 8.84967 30.4551 8.82403C38.775 8.75928 46.4194 9.49046 53 14.9998C58.0597 21.1838 59.6808 28.1026 59 35.9998C57.8669 42.9332 55.6995 47.0831 50.3281 51.6248C43.1528 55.8626 35.6536 55.2387 27.5625 55.1248C23.4169 55.0836 19.2712 55.0423 15 54.9998C15 66.5498 15 78.0998 15 89.9998C13.02 89.9998 11.04 89.9998 9 89.9998C9 76.4698 9 62.9398 9 48.9998C24.625 48.6873 24.625 48.6873 29.522 48.6119C30.8064 48.5788 32.0908 48.5456 33.4141 48.5115C35.3779 48.4723 35.3779 48.4723 37.3813 48.4322C41.2099 47.9747 43.6549 46.8523 47 44.9998C47.66 44.9998 48.32 44.9998 49 44.9998C52.121 36.7123 53.1142 29.845 49.5 21.5623C43.8581 15.7794 35.6331 15.5213 27.9375 15.3123C27.0719 15.2782 26.2063 15.244 25.3145 15.2088C23.2101 15.1274 21.1051 15.0619 19 14.9998C19 13.0198 19 11.0398 19 8.99981Z" fill="#00FFD1"/>
</g>
<defs>
<clipPath id="clip0_72_1965">
<rect width="68" height="98" fill="white"/>
</clipPath>
</defs>
</svg>
