<svg width="24" height="24" viewBox="0 0 24 24" fill="none" xmlns="http://www.w3.org/2000/svg">
<g clip-path="url(#clip0_453_35162)">
<path d="M2 12L12 22L22 12L12 2L2 12Z" fill="currentColor" fill-opacity="0.2"/>
<path d="M1.57574 11.5757C1.34142 11.8101 1.34142 12.1899 1.57574 12.4243L11.5757 22.4243C11.8101 22.6586 12.1899 22.6586 12.4243 22.4243L22.4243 12.4243C22.6586 12.1899 22.6586 11.8101 22.4243 11.5757L12.4243 1.57573C12.1899 1.34142 11.8101 1.34142 11.5757 1.57573L1.57574 11.5757Z" stroke="currentColor" stroke-opacity="0.6" stroke-width="1.2" stroke-miterlimit="10" stroke-linecap="round" stroke-linejoin="round"/>
<path opacity="0.6" fill-rule="evenodd" clip-rule="evenodd" d="M12.5861 14.505C12.3518 14.7393 12.3518 15.1192 12.5861 15.3536C12.8204 15.5879 13.2003 15.5879 13.4346 15.3536L16.4651 12.3231C16.5776 12.2106 16.6408 12.0579 16.6408 11.8988C16.6408 11.7397 16.5776 11.5871 16.4651 11.4745L13.4346 8.4441C13.2003 8.2097 12.8204 8.2097 12.5861 8.4441C12.3518 8.6784 12.3518 9.0583 12.5861 9.2926L14.5923 11.2988L7.45449 11.2988C7.12312 11.2988 6.85449 11.5674 6.85449 11.8988C6.85449 12.2302 7.12312 12.4988 7.45449 12.4988L14.5923 12.4988L12.5861 14.505Z" fill="currentColor"/>
</g>
<defs>
<clipPath id="clip0_453_35162">
<rect width="24" height="24" fill="white" transform="translate(0 24) rotate(-90)"/>
</clipPath>
</defs>
</svg>
