<svg version="1.1" id="Layer_1" xmlns="http://www.w3.org/2000/svg" xmlns:xlink="http://www.w3.org/1999/xlink" x="0px" y="0px"
	 width="100%" viewBox="0 0 4561 673" enable-background="new 0 0 4561 673" xml:space="preserve">
<path fill="#FFFFFF" opacity="1.000000" stroke="none" 
	d="
M0.999993,542.000000 
	C1.000000,361.682587 1.000000,181.365173 1.000000,1.000000 
	C1283.037598,1.000000 2565.075195,1.000000 3847.435059,1.325346 
	C3843.712158,4.395277 3839.630859,7.088443 3835.627686,9.892752 
	C3806.604004,30.222548 3777.585205,50.559841 3748.586670,70.925545 
	C3729.340820,84.441833 3710.174805,98.071815 3690.895508,111.539726 
	C3661.043945,132.393234 3631.122070,153.145721 3601.237793,173.952347 
	C3578.597900,189.715271 3555.927490,205.435150 3533.393799,221.348709 
	C3530.685791,223.261230 3529.129883,223.083160 3526.502441,221.255722 
	C3495.543701,199.723892 3464.463623,178.366516 3433.436768,156.932434 
	C3414.896240,144.124466 3396.428711,131.210999 3377.865723,118.435997 
	C3344.114014,95.208496 3310.287109,72.089966 3276.548096,48.844475 
	C3257.583008,35.778240 3238.747559,22.523571 3219.808350,9.419776 
	C3216.867920,7.385360 3213.682861,5.705028 3210.000244,3.494354 
	C3210.000244,35.080696 3209.965820,65.566025 3210.114014,96.050446 
	C3210.120605,97.426735 3211.477295,99.232033 3212.720459,100.101913 
	C3232.784668,114.142685 3252.927734,128.070801 3273.062500,142.011002 
	C3297.498291,158.929230 3321.914062,175.876373 3346.391602,192.734268 
	C3372.742676,210.882523 3399.178223,228.907333 3425.533936,247.048965 
	C3457.811035,269.266876 3490.036865,291.560059 3522.300293,313.798126 
	C3530.191406,319.237030 3530.083984,318.998993 3538.151855,313.459747 
	C3567.217285,293.503845 3596.417725,273.744507 3625.498535,253.810776 
	C3648.535400,238.019760 3671.439453,222.035217 3694.460449,206.220886 
	C3723.255615,186.439758 3752.091553,166.717926 3780.945312,147.022018 
	C3802.109375,132.575302 3823.322998,118.201134 3844.531250,103.819145 
	C3848.397705,101.197166 3850.221191,98.138916 3850.165039,92.973602 
	C3849.831055,62.318779 3850.000000,31.658468 3850.000000,1.000000 
	C4087.317139,1.000000 4324.634277,1.000000 4561.975586,1.000000 
	C4561.975586,225.301941 4561.975586,449.603882 4561.975586,674.000000 
	C3126.629150,674.000000 1691.258179,674.000000 255.614075,673.641846 
	C261.605408,672.191284 267.867096,671.082886 274.134827,670.009399 
	C293.690918,666.660095 312.428772,660.656738 330.348267,652.214661 
	C355.935242,640.160278 378.290680,623.812256 396.552368,602.005127 
	C409.257904,586.832825 419.550476,570.299805 426.646851,551.788208 
	C434.976440,530.059631 438.923828,507.596741 437.954620,484.343323 
	C437.563812,474.966492 436.957092,465.578918 435.933441,456.252777 
	C434.394684,442.233673 430.546539,428.739136 424.919769,415.832611 
	C412.683380,387.765289 392.446289,366.074066 368.765320,347.476410 
	C346.328552,329.855896 321.583008,315.750458 296.082764,303.128906 
	C268.858063,289.653809 240.984772,277.478394 213.882385,263.771179 
	C197.452225,255.461472 181.700867,245.713058 166.107605,235.876923 
	C154.478638,228.541443 144.674652,218.940842 137.972214,206.689026 
	C130.291534,192.649002 129.425415,177.532883 132.041321,162.139786 
	C135.149796,143.848297 144.525742,129.355698 159.723465,118.686943 
	C174.430130,108.362930 191.012680,103.828758 208.715378,101.845070 
	C224.498505,100.076477 239.976715,101.063995 255.251419,104.729836 
	C284.425293,111.731422 306.740601,128.809036 324.401062,152.653229 
	C328.079102,157.619080 330.493561,164.463058 338.436707,164.787537 
	C340.526001,164.872894 342.675842,165.333633 344.645935,166.043594 
	C347.595398,167.106491 349.828918,166.050873 352.111725,164.388489 
	C367.435516,153.229279 382.789520,142.111588 398.126953,130.971024 
	C405.091827,125.911964 412.041138,120.831398 419.784149,115.187187 
	C411.489319,104.182861 404.192108,93.030899 395.431915,83.179916 
	C375.876312,61.189194 352.653931,44.020412 325.537354,32.059303 
	C295.392700,18.762518 263.648438,13.583899 231.110550,12.101631 
	C223.373917,11.749188 215.563293,12.455338 207.815643,13.051147 
	C197.668259,13.831503 187.501511,14.641338 177.428238,16.048176 
	C153.828094,19.344185 131.545486,26.711805 110.385818,37.807499 
	C89.127464,48.954929 70.828499,63.404366 56.013126,82.394676 
	C34.773037,109.620171 24.962168,140.738510 24.134451,174.857239 
	C23.911760,184.036636 25.308180,193.257538 26.000225,202.456451 
	C27.291088,219.615067 32.226524,235.838165 39.734657,251.161453 
	C49.449188,270.987732 63.070511,287.786560 79.721100,302.469666 
	C99.042976,319.508423 120.439217,333.292633 143.214127,344.866516 
	C162.854752,354.847626 183.039062,363.815063 203.274139,372.556732 
	C231.374252,384.696259 259.164368,397.450409 284.172302,415.240784 
	C294.329834,422.466705 304.238525,430.700531 312.214203,440.194733 
	C327.537567,458.435577 332.816223,480.063599 330.155914,503.971130 
	C327.563782,527.265808 316.380829,545.646973 299.023560,560.186646 
	C278.564392,577.324646 253.911819,584.089966 227.619751,584.859558 
	C219.446030,585.098816 211.221313,583.701477 203.024002,583.005615 
	C189.699142,581.874573 177.084946,578.000488 165.019318,572.466003 
	C134.699493,558.558472 114.111198,534.362793 96.529114,507.059357 
	C94.160980,503.381866 92.454620,497.838684 89.113594,496.516998 
	C81.365967,493.452179 72.566513,489.676819 65.230789,498.225372 
	C64.927742,498.578583 64.392159,498.722809 63.993202,499.004486 
	C48.645927,509.839355 33.361328,520.764465 17.925579,531.471741 
	C12.473002,535.253967 6.652508,538.505920 0.999993,542.000000 
M597.499817,29.000000 
	C569.747314,29.000000 541.994812,29.000000 514.237427,29.000000 
	C514.237427,238.646851 514.237427,447.579926 514.237427,656.702637 
	C548.861389,656.702637 583.247375,656.702637 618.172913,656.702637 
	C618.172913,566.353210 618.172913,476.299683 618.172913,386.238739 
	C719.647400,386.238739 820.581604,386.238739 922.055542,386.238739 
	C922.055542,476.529053 922.055542,566.582520 922.055542,656.642212 
	C956.983337,656.642212 991.369690,656.642212 1025.761719,656.642212 
	C1025.761719,447.351257 1025.761719,238.418152 1025.761719,29.298328 
	C991.136780,29.298328 956.750793,29.298328 921.825195,29.298328 
	C921.825195,117.315384 921.825195,205.035614 921.825195,292.760284 
	C820.350647,292.760284 719.416443,292.760284 617.942444,292.760284 
	C617.942444,204.802307 617.942444,117.082077 617.942444,29.000000 
	C611.104736,29.000000 604.802185,29.000000 597.499817,29.000000 
M1757.002197,186.384445 
	C1755.627808,177.838684 1754.994751,169.092346 1752.746948,160.782883 
	C1744.359497,129.779709 1730.481079,101.935387 1705.867798,80.162094 
	C1695.463257,70.958138 1684.317505,63.071301 1672.119263,56.638275 
	C1655.447266,47.845871 1637.738159,41.982391 1619.393555,37.560631 
	C1596.919922,32.143597 1574.076294,29.439581 1551.169189,29.222057 
	C1485.015137,28.593859 1418.851318,29.000004 1352.691284,29.000004 
	C1350.917603,29.000004 1349.144043,29.000002 1347.329346,29.000002 
	C1347.329346,238.620758 1347.329346,447.658783 1347.329346,656.613892 
	C1382.378052,656.613892 1417.095825,656.613892 1452.166016,656.613892 
	C1452.166016,573.298462 1452.166016,490.368622 1452.166016,407.162598 
	C1453.467529,407.097504 1454.429810,407.015259 1455.392822,407.006165 
	C1491.323975,406.666595 1527.259399,406.552551 1563.184082,405.875610 
	C1574.996826,405.653046 1586.878174,404.603302 1598.557617,402.816833 
	C1616.446655,400.080505 1634.027954,395.718628 1650.874634,388.928467 
	C1672.956665,380.028168 1693.238403,368.112396 1710.182495,351.208710 
	C1724.216797,337.208069 1735.151489,321.057312 1743.169922,302.773560 
	C1752.970703,280.425262 1757.338623,256.975677 1758.901733,232.891754 
	C1759.504883,223.598495 1759.235596,214.225235 1758.914429,204.903900 
	C1758.711792,199.020996 1757.677124,193.166748 1757.002197,186.384445 
M1238.000000,356.500000 
	C1238.000000,247.423889 1238.000000,138.347778 1238.000000,29.400311 
	C1202.925537,29.400311 1168.541382,29.400311 1134.256104,29.400311 
	C1134.256104,238.717255 1134.256104,447.633789 1134.256104,656.687988 
	C1168.896240,656.687988 1203.279541,656.687988 1238.000000,656.687988 
	C1238.000000,556.750916 1238.000000,457.125458 1238.000000,356.500000 
z"/>
<path fill="#F68C24" opacity="1.000000" stroke="none" 
	d="
M0.999993,542.399963 
	C6.652508,538.505920 12.473002,535.253967 17.925579,531.471741 
	C33.361328,520.764465 48.645927,509.839355 63.993202,499.004486 
	C64.392159,498.722809 64.927742,498.578583 65.230789,498.225372 
	C72.566513,489.676819 81.365967,493.452179 89.113594,496.516998 
	C92.454620,497.838684 94.160980,503.381866 96.529114,507.059357 
	C114.111198,534.362793 134.699493,558.558472 165.019318,572.466003 
	C177.084946,578.000488 189.699142,581.874573 203.024002,583.005615 
	C211.221313,583.701477 219.446030,585.098816 227.619751,584.859558 
	C253.911819,584.089966 278.564392,577.324646 299.023560,560.186646 
	C316.380829,545.646973 327.563782,527.265808 330.155914,503.971130 
	C332.816223,480.063599 327.537567,458.435577 312.214203,440.194733 
	C304.238525,430.700531 294.329834,422.466705 284.172302,415.240784 
	C259.164368,397.450409 231.374252,384.696259 203.274139,372.556732 
	C183.039062,363.815063 162.854752,354.847626 143.214127,344.866516 
	C120.439217,333.292633 99.042976,319.508423 79.721100,302.469666 
	C63.070511,287.786560 49.449188,270.987732 39.734657,251.161453 
	C32.226524,235.838165 27.291088,219.615067 26.000225,202.456451 
	C25.308180,193.257538 23.911760,184.036636 24.134451,174.857239 
	C24.962168,140.738510 34.773037,109.620171 56.013126,82.394676 
	C70.828499,63.404366 89.127464,48.954929 110.385818,37.807499 
	C131.545486,26.711805 153.828094,19.344185 177.428238,16.048176 
	C187.501511,14.641338 197.668259,13.831503 207.815643,13.051147 
	C215.563293,12.455338 223.373917,11.749188 231.110550,12.101631 
	C263.648438,13.583899 295.392700,18.762518 325.537354,32.059303 
	C352.653931,44.020412 375.876312,61.189194 395.431915,83.179916 
	C404.192108,93.030899 411.489319,104.182861 419.784149,115.187187 
	C412.041138,120.831398 405.091827,125.911964 398.126953,130.971024 
	C382.789520,142.111588 367.435516,153.229279 352.111725,164.388489 
	C349.828918,166.050873 347.595398,167.106491 344.645935,166.043594 
	C342.675842,165.333633 340.526001,164.872894 338.436707,164.787537 
	C330.493561,164.463058 328.079102,157.619080 324.401062,152.653229 
	C306.740601,128.809036 284.425293,111.731422 255.251419,104.729836 
	C239.976715,101.063995 224.498505,100.076477 208.715378,101.845070 
	C191.012680,103.828758 174.430130,108.362930 159.723465,118.686943 
	C144.525742,129.355698 135.149796,143.848297 132.041321,162.139786 
	C129.425415,177.532883 130.291534,192.649002 137.972214,206.689026 
	C144.674652,218.940842 154.478638,228.541443 166.107605,235.876923 
	C181.700867,245.713058 197.452225,255.461472 213.882385,263.771179 
	C240.984772,277.478394 268.858063,289.653809 296.082764,303.128906 
	C321.583008,315.750458 346.328552,329.855896 368.765320,347.476410 
	C392.446289,366.074066 412.683380,387.765289 424.919769,415.832611 
	C430.546539,428.739136 434.394684,442.233673 435.933441,456.252777 
	C436.957092,465.578918 437.563812,474.966492 437.954620,484.343323 
	C438.923828,507.596741 434.976440,530.059631 426.646851,551.788208 
	C419.550476,570.299805 409.257904,586.832825 396.552368,602.005127 
	C378.290680,623.812256 355.935242,640.160278 330.348267,652.214661 
	C312.428772,660.656738 293.690918,666.660095 274.134827,670.009399 
	C267.867096,671.082886 261.605408,672.191284 255.170471,673.641846 
	C236.312439,674.000000 217.624878,674.000000 198.267120,673.624268 
	C190.954773,672.499817 184.267227,672.025024 177.681946,670.933289 
	C169.328400,669.548462 160.992401,667.933777 152.762894,665.946045 
	C116.472061,657.180420 84.462723,640.094116 56.786591,615.154480 
	C39.826481,599.871338 25.487263,582.235901 12.987553,563.107605 
	C9.180486,557.281738 5.006107,551.695862 0.999989,546.000000 
	C1.000000,544.933289 1.000000,543.866638 0.999993,542.399963 
z"/>
<path fill="#F68C24" opacity="1.000000" stroke="none" 
	d="
M3849.666748,1.000000 
	C3850.000000,31.658468 3849.831055,62.318779 3850.165039,92.973602 
	C3850.221191,98.138916 3848.397705,101.197166 3844.531250,103.819145 
	C3823.322998,118.201134 3802.109375,132.575302 3780.945312,147.022018 
	C3752.091553,166.717926 3723.255615,186.439758 3694.460449,206.220886 
	C3671.439453,222.035217 3648.535400,238.019760 3625.498535,253.810776 
	C3596.417725,273.744507 3567.217285,293.503845 3538.151855,313.459747 
	C3530.083984,318.998993 3530.191406,319.237030 3522.300293,313.798126 
	C3490.036865,291.560059 3457.811035,269.266876 3425.533936,247.048965 
	C3399.178223,228.907333 3372.742676,210.882523 3346.391602,192.734268 
	C3321.914062,175.876373 3297.498291,158.929230 3273.062500,142.011002 
	C3252.927734,128.070801 3232.784668,114.142685 3212.720459,100.101913 
	C3211.477295,99.232033 3210.120605,97.426735 3210.114014,96.050446 
	C3209.965820,65.566025 3210.000244,35.080696 3210.000244,3.494354 
	C3213.682861,5.705028 3216.867920,7.385360 3219.808350,9.419776 
	C3238.747559,22.523571 3257.583008,35.778240 3276.548096,48.844475 
	C3310.287109,72.089966 3344.114014,95.208496 3377.865723,118.435997 
	C3396.428711,131.210999 3414.896240,144.124466 3433.436768,156.932434 
	C3464.463623,178.366516 3495.543701,199.723892 3526.502441,221.255722 
	C3529.129883,223.083160 3530.685791,223.261230 3533.393799,221.348709 
	C3555.927490,205.435150 3578.597900,189.715271 3601.237793,173.952347 
	C3631.122070,153.145721 3661.043945,132.393234 3690.895508,111.539726 
	C3710.174805,98.071815 3729.340820,84.441833 3748.586670,70.925545 
	C3777.585205,50.559841 3806.604004,30.222548 3835.627686,9.892752 
	C3839.630859,7.088443 3843.712158,4.395277 3847.878662,1.325346 
	C3848.444580,1.000000 3848.888916,1.000000 3849.666748,1.000000 
z"/>
<path fill="#FFFFFF" opacity="1.000000" stroke="none" 
	d="
M0.999989,546.468628 
	C5.006107,551.695862 9.180486,557.281738 12.987553,563.107605 
	C25.487263,582.235901 39.826481,599.871338 56.786591,615.154480 
	C84.462723,640.094116 116.472061,657.180420 152.762894,665.946045 
	C160.992401,667.933777 169.328400,669.548462 177.681946,670.933289 
	C184.267227,672.025024 190.954773,672.499817 197.798462,673.624268 
	C132.421829,674.000000 66.843658,674.000000 1.000000,674.000000 
	C1.000000,631.646118 1.000000,589.291748 0.999989,546.468628 
z"/>
<path fill="#F68C24" opacity="1.000000" stroke="none" 
	d="
M597.999756,29.000000 
	C604.802185,29.000000 611.104736,29.000000 617.942444,29.000000 
	C617.942444,117.082077 617.942444,204.802307 617.942444,292.760284 
	C719.416443,292.760284 820.350647,292.760284 921.825195,292.760284 
	C921.825195,205.035614 921.825195,117.315384 921.825195,29.298328 
	C956.750793,29.298328 991.136780,29.298328 1025.761719,29.298328 
	C1025.761719,238.418152 1025.761719,447.351257 1025.761719,656.642212 
	C991.369690,656.642212 956.983337,656.642212 922.055542,656.642212 
	C922.055542,566.582520 922.055542,476.529053 922.055542,386.238739 
	C820.581604,386.238739 719.647400,386.238739 618.172913,386.238739 
	C618.172913,476.299683 618.172913,566.353210 618.172913,656.702637 
	C583.247375,656.702637 548.861389,656.702637 514.237427,656.702637 
	C514.237427,447.579926 514.237427,238.646851 514.237427,29.000000 
	C541.994812,29.000000 569.747314,29.000000 597.999756,29.000000 
z"/>
<path fill="#F68C24" opacity="1.000000" stroke="none" 
	d="
M1757.009033,186.842041 
	C1757.677124,193.166748 1758.711792,199.020996 1758.914429,204.903900 
	C1759.235596,214.225235 1759.504883,223.598495 1758.901733,232.891754 
	C1757.338623,256.975677 1752.970703,280.425262 1743.169922,302.773560 
	C1735.151489,321.057312 1724.216797,337.208069 1710.182495,351.208710 
	C1693.238403,368.112396 1672.956665,380.028168 1650.874634,388.928467 
	C1634.027954,395.718628 1616.446655,400.080505 1598.557617,402.816833 
	C1586.878174,404.603302 1574.996826,405.653046 1563.184082,405.875610 
	C1527.259399,406.552551 1491.323975,406.666595 1455.392822,407.006165 
	C1454.429810,407.015259 1453.467529,407.097504 1452.166016,407.162598 
	C1452.166016,490.368622 1452.166016,573.298462 1452.166016,656.613892 
	C1417.095825,656.613892 1382.378052,656.613892 1347.329346,656.613892 
	C1347.329346,447.658783 1347.329346,238.620758 1347.329346,29.000002 
	C1349.144043,29.000002 1350.917603,29.000004 1352.691284,29.000004 
	C1418.851318,29.000004 1485.015137,28.593859 1551.169189,29.222057 
	C1574.076294,29.439581 1596.919922,32.143597 1619.393555,37.560631 
	C1637.738159,41.982391 1655.447266,47.845871 1672.119263,56.638275 
	C1684.317505,63.071301 1695.463257,70.958138 1705.867798,80.162094 
	C1730.481079,101.935387 1744.359497,129.779709 1752.746948,160.782883 
	C1754.994751,169.092346 1755.627808,177.838684 1757.009033,186.842041 
M1581.720581,122.905952 
	C1567.475586,120.937302 1553.271606,117.738968 1538.976929,117.263496 
	C1511.688965,116.355843 1484.349243,116.996269 1457.031006,117.009598 
	C1455.434082,117.010376 1453.837036,117.149185 1452.368164,117.217781 
	C1452.368164,185.055298 1452.368164,252.415573 1452.368164,320.946472 
	C1486.925049,319.959412 1521.088745,319.090240 1555.243774,317.956238 
	C1569.204224,317.492737 1582.769653,314.482361 1595.953003,309.925049 
	C1612.670898,304.145966 1627.515991,295.600677 1638.429688,281.130554 
	C1648.369629,267.951599 1653.168457,252.991821 1655.047852,236.795563 
	C1656.964844,220.274597 1656.501343,203.881882 1652.948975,187.652039 
	C1648.960938,169.431870 1640.045166,153.872894 1625.481567,142.190536 
	C1612.966064,132.151123 1598.327759,126.135208 1581.720581,122.905952 
z"/>
<path fill="#F68C24" opacity="1.000000" stroke="none" 
	d="
M1238.000000,357.000000 
	C1238.000000,457.125458 1238.000000,556.750916 1238.000000,656.687988 
	C1203.279541,656.687988 1168.896240,656.687988 1134.256104,656.687988 
	C1134.256104,447.633789 1134.256104,238.717255 1134.256104,29.400311 
	C1168.541382,29.400311 1202.925537,29.400311 1238.000000,29.400311 
	C1238.000000,138.347778 1238.000000,247.423889 1238.000000,357.000000 
z"/>
<path fill="#FFFFFF" opacity="1.000000" stroke="none" 
	d="
M1582.142822,122.946136 
	C1598.327759,126.135208 1612.966064,132.151123 1625.481567,142.190536 
	C1640.045166,153.872894 1648.960938,169.431870 1652.948975,187.652039 
	C1656.501343,203.881882 1656.964844,220.274597 1655.047852,236.795563 
	C1653.168457,252.991821 1648.369629,267.951599 1638.429688,281.130554 
	C1627.515991,295.600677 1612.670898,304.145966 1595.953003,309.925049 
	C1582.769653,314.482361 1569.204224,317.492737 1555.243774,317.956238 
	C1521.088745,319.090240 1486.925049,319.959412 1452.368164,320.946472 
	C1452.368164,252.415573 1452.368164,185.055298 1452.368164,117.217781 
	C1453.837036,117.149185 1455.434082,117.010376 1457.031006,117.009598 
	C1484.349243,116.996269 1511.688965,116.355843 1538.976929,117.263496 
	C1553.271606,117.738968 1567.475586,120.937302 1582.142822,122.946136 
z"/>
</svg>