<svg width="2164" height="518" viewBox="0 0 2164 518" fill="none" xmlns="http://www.w3.org/2000/svg">
<path d="M1022.66 315.973L994.775 393.423C994.775 396.534 991.673 396.534 991.673 396.534H948.288C945.186 396.534 945.186 396.534 945.186 393.423C969.973 328.376 1007.17 216.85 1035.05 142.491C1035.05 139.405 1038.16 133.203 1038.16 117.715C1038.16 114.614 1038.16 114.614 1041.26 114.614H1100.14C1103.24 111.513 1103.24 114.614 1103.24 114.614C1134.21 204.449 1171.41 300.486 1202.4 390.337C1202.4 393.425 1202.4 393.425 1199.31 393.425H1149.71C1146.62 393.425 1146.62 393.425 1146.62 390.337L1118.72 312.892H1022.66V315.973ZM1109.43 272.61C1100.14 244.731 1078.44 185.875 1072.25 154.896C1066.05 182.774 1047.45 232.341 1035.06 272.61H1109.43ZM1230.3 291.199C1230.3 229.24 1276.79 179.672 1351.14 179.672C1360.46 179.672 1369.75 179.672 1375.96 182.772V89.8361C1375.96 86.7354 1375.96 86.7354 1379.05 86.7354H1425.53C1428.62 86.7354 1428.62 86.7354 1428.62 89.8361V371.732C1428.62 374.844 1428.62 374.844 1425.53 374.844C1397.63 387.219 1366.64 396.534 1338.77 396.534C1273.67 399.624 1230.3 365.559 1230.3 291.199ZM1372.84 226.14C1366.64 223.039 1357.35 223.039 1348.05 223.039C1307.78 223.039 1282.99 247.832 1282.99 291.199C1282.99 340.751 1310.86 359.358 1344.97 359.358C1354.26 359.358 1366.64 356.242 1375.96 356.242V226.14H1372.84ZM1688.94 288.114C1688.94 356.244 1645.54 399.624 1583.57 399.624C1509.21 399.624 1478.22 343.869 1478.22 291.199C1478.22 226.14 1521.59 182.772 1586.68 182.772C1651.75 179.672 1688.94 229.24 1688.94 288.114ZM1530.91 288.114C1530.91 331.466 1549.49 359.36 1583.57 359.36C1611.47 359.36 1633.17 340.753 1633.17 288.114C1633.17 247.832 1617.68 216.852 1580.48 216.852C1552.58 219.938 1530.91 244.731 1530.91 288.114ZM1781.91 89.8361C1785 89.8361 1785 89.8361 1785 92.9369V192.059C1800.49 185.873 1815.99 182.772 1831.49 182.772C1890.38 182.772 1927.57 226.14 1927.57 281.912C1927.57 356.242 1868.68 402.71 1800.49 402.71C1778.82 402.71 1757.13 399.622 1735.43 393.423C1732.34 393.423 1732.34 390.335 1732.34 390.335V92.9369C1732.34 89.8361 1732.34 89.8361 1735.43 89.8361H1781.91ZM1822.19 223.039C1809.82 223.039 1797.41 226.14 1788.12 229.24V356.242C1794.32 359.358 1803.61 359.358 1812.9 359.358C1843.89 359.358 1881.08 334.58 1881.08 284.993C1877.97 244.731 1853.19 223.039 1822.19 223.039ZM2026.74 300.486C2026.74 334.582 2048.41 356.242 2091.81 356.242C2107.3 356.242 2125.89 353.154 2144.5 346.955C2144.5 346.955 2147.59 346.954 2147.59 350.07V384.135C2147.59 387.219 2147.59 387.219 2144.5 390.335C2129.01 399.622 2107.3 402.71 2079.4 402.71C2001.93 402.71 1970.93 350.07 1970.93 294.281C1970.93 232.339 2008.13 182.77 2073.23 182.77C2138.29 182.77 2163.08 232.339 2163.08 272.606C2163.08 291.197 2159.99 300.484 2159.99 300.484L2026.74 300.486ZM2094.9 266.406C2110.39 266.406 2113.51 263.323 2113.51 263.323V257.119C2113.51 244.731 2104.22 216.852 2070.11 216.852C2042.24 216.852 2026.74 238.528 2023.63 266.406H2094.9Z" fill="#ED2224"/>
<path d="M368.775 0L585.704 517.337V0H368.775ZM0 0V517.337L216.929 0H0ZM198.331 412.026H297.506L340.889 517.337H430.756L291.302 188.958L198.331 412.026Z" fill="#ED2224"/>
</svg>
