<?xml version="1.0" encoding="UTF-8"?>
<svg width="374px" height="100px" viewBox="0 0 374 100" version="1.1" xmlns="http://www.w3.org/2000/svg" xmlns:xlink="http://www.w3.org/1999/xlink">
    <title>logo</title>
    <defs>
        <linearGradient x1="-0%" y1="50.0532617%" x2="56.9034177%" y2="50.0529069%" id="linearGradient-1">
            <stop stop-color="#00594A" offset="0%"></stop>
            <stop stop-color="#087F66" offset="67.0588%"></stop>
            <stop stop-color="#11A683" offset="100%"></stop>
        </linearGradient>
        <linearGradient x1="-0%" y1="50.0113989%" x2="57.0482178%" y2="50.0112754%" id="linearGradient-2">
            <stop stop-color="#00594A" offset="0%"></stop>
            <stop stop-color="#087F66" offset="67.0588%"></stop>
            <stop stop-color="#11A683" offset="100%"></stop>
        </linearGradient>
        <linearGradient x1="-0%" y1="49.9919357%" x2="57.2040541%" y2="49.9918481%" id="linearGradient-3">
            <stop stop-color="#00594A" offset="0%"></stop>
            <stop stop-color="#087F66" offset="67.0588%"></stop>
            <stop stop-color="#11A683" offset="100%"></stop>
        </linearGradient>
        <linearGradient x1="-0%" y1="49.9690148%" x2="57.0482178%" y2="49.9688913%" id="linearGradient-4">
            <stop stop-color="#00594A" offset="0%"></stop>
            <stop stop-color="#087F66" offset="67.0588%"></stop>
            <stop stop-color="#11A683" offset="100%"></stop>
        </linearGradient>
        <linearGradient x1="-0%" y1="49.9149175%" x2="56.9034177%" y2="49.9146291%" id="linearGradient-5">
            <stop stop-color="#00594A" offset="0%"></stop>
            <stop stop-color="#087F66" offset="67.0588%"></stop>
            <stop stop-color="#11A683" offset="100%"></stop>
        </linearGradient>
        <linearGradient x1="2.85266e-07%" y1="50.0109%" x2="56.9565%" y2="49.9824%" id="linearGradient-6">
            <stop stop-color="#00594A" offset="0%"></stop>
            <stop stop-color="#087F66" offset="67.0588%"></stop>
            <stop stop-color="#11A683" offset="100%"></stop>
        </linearGradient>
    </defs>
    <g id="页面-1" stroke="none" stroke-width="1" fill="none" fill-rule="evenodd">
        <g id="logo">
            <polygon id="路径" fill="url(#linearGradient-1)" points="0 0 48.7234472 0 48.7234472 11.1015449 0 11.1015449"></polygon>
            <polygon id="路径" fill="#000000" points="137.535807 65.9925171 151.104362 65.9925171 151.104362 33.9213873 137.535807 33.9213873"></polygon>
            <path d="M144.320084,14.8020599 C148.637352,14.8020599 152.337867,17.8858224 152.337867,22.2030899 C152.337867,26.5203573 148.637352,30.2208723 144.320084,30.2208723 C140.002817,30.2208723 136.919054,26.5203573 136.919054,22.2030899 C136.919054,17.8858224 140.002817,14.8020599 144.320084,14.8020599 Z" id="路径" fill="#000000"></path>
            <path d="M180.708481,14.8020599 C191.193274,14.8020599 199.827809,23.4365949 199.827809,33.9213873 C199.827809,44.4061797 191.193274,53.0407147 180.091729,53.0407147 L172.073947,53.0407147 L172.073947,65.9925171 L158.505392,65.9925171 L158.505392,14.8020599 L162.205907,14.8020599 L172.073947,14.8020599 L180.091729,14.8020599 L180.708481,14.8020599 L180.708481,14.8020599 Z M172.073947,39.4721598 L180.091729,39.4721598 C183.175491,39.4721598 185.642501,37.0051498 185.642501,33.9213873 C185.642501,30.8376248 183.175491,28.3706148 180.091729,28.3706148 L172.073947,28.3706148 L172.073947,39.4721598 Z" id="形状" fill="#000000"></path>
            <polygon id="路径" fill="#000000" points="206.612086 65.9925171 220.180641 65.9925171 220.180641 33.9213873 206.612086 33.9213873"></polygon>
            <path d="M223.881156,65.9925171 L237.449711,65.9925171 L241.766979,57.3579822 L260.269554,57.3579822 L264.586821,65.9925171 L278.772128,65.9925171 L254.718781,14.8020599 L254.718781,14.8020599 L247.317751,14.8020599 L247.317751,14.8020599 L223.881156,65.9925171 Z M246.700999,47.4899422 L251.018266,37.6219023 L255.952286,47.4899422 L246.700999,47.4899422 Z" id="形状" fill="#000000"></path>
            <path d="M373.752013,30.2208723 C373.752013,20.9695849 364.500725,14.1853074 352.165676,14.1853074 C339.830626,14.1853074 330.579338,20.9695849 330.579338,30.2208723 C330.579338,39.4721598 339.830626,46.8731897 352.165676,46.8731897 C355.249438,46.8731897 357.716448,48.7234472 357.716448,50.5737047 C357.716448,53.0407147 355.249438,54.8909722 352.165676,54.8909722 C349.081913,54.8909722 346.614903,53.0407147 346.614903,50.5737047 L329.962586,50.5737047 C329.962586,59.8249922 339.830626,67.2260221 352.165676,67.2260221 C364.500725,67.2260221 373.752013,59.8249922 373.752013,50.5737047 C373.752013,46.8731897 372.518508,43.1726748 369.434745,40.7056648 C365.117478,37.0051498 358.949953,34.5381398 352.165676,34.5381398 C349.081913,34.5381398 346.614903,32.6878823 346.614903,30.2208723 C346.614903,27.7538623 349.081913,25.9036049 352.165676,25.9036049 C355.249438,25.9036049 357.716448,27.7538623 357.716448,30.2208723 L373.752013,30.2208723 Z" id="路径" fill="#000000" fill-rule="nonzero"></path>
            <path d="M300.975218,14.8020599 C315.160526,14.8020599 326.878823,26.5203573 326.878823,40.7056648 C326.878823,54.8909722 315.160526,65.9925171 300.975218,65.9925171 L300.975218,65.9925171 L296.041198,65.9925171 L281.855891,65.9925171 L281.855891,14.8020599 L296.041198,14.8020599 L300.975218,14.8020599 Z M300.975218,52.4239622 L300.975218,52.4239622 C307.759496,52.4239622 313.310268,46.8731897 313.310268,40.7056648 C313.310268,33.9213873 307.759496,28.3706148 300.975218,28.3706148 L296.041198,28.3706148 L296.041198,52.4239622 L300.975218,52.4239622 Z" id="形状" fill="#000000"></path>
            <path d="M111.632202,14.8020599 C122.116994,14.8020599 130.751529,23.4365949 130.751529,33.9213873 C130.751529,44.4061797 122.116994,53.0407147 111.632202,53.0407147 L102.997667,53.0407147 L102.997667,65.9925171 L89.429112,65.9925171 L89.429112,14.8020599 L93.129627,14.8020599 L102.997667,14.8020599 L111.632202,14.8020599 L111.632202,14.8020599 L111.632202,14.8020599 Z M102.997667,39.4721598 L111.632202,39.4721598 C114.715964,39.4721598 117.182974,37.0051498 117.182974,33.9213873 C117.182974,30.8376248 114.715964,28.3706148 111.632202,28.3706148 L102.997667,28.3706148 L102.997667,39.4721598 Z" id="形状" fill="#000000"></path>
            <path d="M213.396364,14.8020599 C217.713631,14.8020599 220.797394,17.8858224 220.797394,22.2030899 C220.797394,26.5203573 217.713631,30.2208723 213.396364,30.2208723 C209.079096,30.2208723 205.378581,26.5203573 205.378581,22.2030899 C205.378581,17.8858224 209.079096,14.8020599 213.396364,14.8020599 Z" id="路径" fill="#000000"></path>
            <polygon id="路径" fill="url(#linearGradient-2)" points="0 14.8020599 62.2920021 14.8020599 62.2920021 25.9036049 0 25.9036049"></polygon>
            <polygon id="路径" fill="url(#linearGradient-3)" points="0 29.6041198 68.4595271 29.6041198 68.4595271 40.7056648 0 40.7056648"></polygon>
            <polygon id="路径" fill="url(#linearGradient-4)" points="0 44.4061797 62.2920021 44.4061797 62.2920021 55.5077247 0 55.5077247"></polygon>
            <polygon id="路径" fill="url(#linearGradient-5)" points="0 59.2082397 48.7234472 59.2082397 48.7234472 70.3097846 0 70.3097846"></polygon>
            <polygon id="路径" fill="url(#linearGradient-6)" points="0 73.3935471 24.0533474 73.3935471 24.0533474 85.1118445 0 85.1118445"></polygon>
            <polygon id="路径" fill="url(#linearGradient-6)" points="0 88.195607 24.0533474 88.195607 24.0533474 99.9139044 0 99.9139044"></polygon>
            <path d="M96.830142,80.1778245 C98.6803994,80.1778245 99.9139044,80.794577 100.530657,81.4113295 C101.764162,81.4113295 102.997667,82.6448345 103.614419,83.261587 C103.614419,84.495092 104.231172,85.728597 104.231172,86.962102 C104.231172,88.195607 103.614419,88.8123595 103.614419,90.0458645 C102.997667,90.662617 101.764162,91.896122 100.530657,91.896122 C99.9139044,92.5128745 98.6803994,93.129627 96.830142,93.129627 L93.7463795,93.129627 L93.7463795,99.2971519 L89.429112,99.2971519 L89.429112,80.1778245 L96.830142,80.1778245 Z M96.830142,89.429112 C98.0636469,89.429112 98.6803994,89.429112 99.2971519,88.8123595 C99.9139044,88.195607 99.9139044,87.5788545 99.9139044,86.962102 C99.9139044,86.3453495 99.9139044,85.728597 99.2971519,85.1118445 C99.2971519,85.1118445 99.2971519,84.495092 98.6803994,84.495092 C98.0636469,83.8783395 97.4468944,83.8783395 96.830142,83.8783395 L93.7463795,83.8783395 L93.7463795,89.429112 L96.830142,89.429112 Z" id="形状" fill="#332C2B" fill-rule="nonzero"></path>
            <path d="M120.266737,79.561072 C120.883489,79.561072 121.500242,79.561072 122.116994,80.1778245 C122.733747,80.1778245 122.733747,80.794577 122.733747,81.4113295 C122.733747,82.028082 122.733747,82.6448345 122.116994,83.261587 C121.500242,83.261587 120.883489,83.8783395 120.266737,83.8783395 C119.649984,83.8783395 119.033232,83.261587 119.033232,83.261587 C118.416479,82.6448345 118.416479,82.028082 118.416479,81.4113295 C118.416479,80.794577 118.416479,80.1778245 119.033232,80.1778245 C119.033232,79.561072 119.649984,79.561072 120.266737,79.561072 Z M118.416479,99.2971519 L118.416479,85.1118445 L122.733747,85.1118445 L122.733747,99.2971519 L118.416479,99.2971519 Z" id="1" fill="#332C2B" fill-rule="nonzero"></path>
            <path d="M144.936837,80.1778245 C146.170342,80.1778245 147.403847,80.794577 148.637352,81.4113295 C149.870857,81.4113295 150.487609,82.6448345 151.104362,83.261587 C151.721114,84.495092 152.337867,85.728597 152.337867,86.962102 C152.337867,88.195607 151.721114,88.8123595 151.104362,90.0458645 C150.487609,90.662617 149.870857,91.896122 148.637352,91.896122 C147.403847,92.5128745 146.170342,93.129627 144.936837,93.129627 L141.236322,93.129627 L141.236322,99.2971519 L137.535807,99.2971519 L137.535807,80.1778245 L144.936837,80.1778245 Z M144.936837,89.429112 C145.553589,89.429112 146.787094,89.429112 146.787094,88.8123595 C147.403847,88.195607 148.020599,87.5788545 148.020599,86.962102 C148.020599,86.3453495 147.403847,85.728597 147.403847,85.1118445 C147.403847,85.1118445 146.787094,84.495092 146.787094,84.495092 C146.170342,83.8783395 145.553589,83.8783395 144.936837,83.8783395 L141.236322,83.8783395 L141.236322,89.429112 L144.936837,89.429112 Z" id="2" fill="#332C2B" fill-rule="nonzero"></path>
            <path d="M168.373432,79.561072 C168.990184,79.561072 169.606937,79.561072 170.223689,80.1778245 C170.223689,80.1778245 170.840442,80.794577 170.840442,81.4113295 C170.840442,82.028082 170.223689,82.6448345 170.223689,83.261587 C169.606937,83.261587 168.990184,83.8783395 168.373432,83.8783395 C167.756679,83.8783395 167.139927,83.261587 166.523174,83.261587 C166.523174,82.6448345 165.906422,82.028082 165.906422,81.4113295 C165.906422,80.794577 166.523174,80.1778245 166.523174,80.1778245 C167.139927,79.561072 167.756679,79.561072 168.373432,79.561072 Z M166.523174,99.2971519 L166.523174,85.1118445 L170.223689,85.1118445 L170.223689,99.2971519 L166.523174,99.2971519 Z" id="3" fill="#332C2B" fill-rule="nonzero"></path>
            <path d="M196.127294,95.596637 L189.343016,95.596637 L188.109511,99.2971519 L183.792244,99.2971519 L190.576521,80.1778245 L193.660284,80.1778245 L194.893789,80.1778245 L201.678066,99.2971519 L197.360799,99.2971519 L196.127294,95.596637 Z M194.893789,92.5128745 L192.426779,85.728597 L190.576521,92.5128745 L194.893789,92.5128745 Z" id="4" fill="#332C2B" fill-rule="nonzero"></path>
            <path d="M220.797394,80.1778245 C222.647651,80.1778245 224.497909,80.794577 225.731414,81.4113295 C226.964919,82.028082 228.198424,83.261587 228.815176,84.495092 C229.431929,86.3453495 230.048681,87.5788545 230.048681,89.429112 L230.048681,90.0458645 C230.048681,91.896122 229.431929,93.7463795 228.815176,94.9798845 C228.198424,96.2133895 226.964919,97.4468944 225.731414,98.0636469 C224.497909,99.2971519 222.647651,99.2971519 220.797394,99.2971519 L217.096879,99.2971519 L215.246621,99.2971519 L215.246621,80.1778245 L218.947136,80.1778245 L220.797394,80.1778245 Z M225.731414,89.429112 C225.731414,87.5788545 225.114661,86.3453495 224.497909,85.1118445 C223.264404,84.495092 222.647651,83.8783395 220.797394,83.8783395 L218.947136,83.8783395 L218.947136,96.2133895 L220.797394,96.2133895 C222.647651,96.2133895 223.264404,95.596637 224.497909,94.363132 C225.114661,93.7463795 225.731414,91.896122 225.731414,90.0458645 L225.731414,89.429112 Z" id="5" fill="#332C2B" fill-rule="nonzero"></path>
            <path d="M250.401514,91.2793695 C249.168009,91.2793695 247.934504,90.662617 246.700999,90.0458645 C246.084246,89.429112 245.467494,88.8123595 244.850741,88.195607 C244.233989,87.5788545 243.617236,86.3453495 243.617236,85.728597 C243.617236,84.495092 244.233989,83.261587 244.850741,82.6448345 C245.467494,82.028082 246.084246,81.4113295 247.317751,80.794577 C248.551256,80.1778245 249.784761,80.1778245 251.018266,80.1778245 C252.251771,80.1778245 253.485276,80.1778245 254.718781,80.794577 C255.952286,81.4113295 256.569039,82.028082 257.185791,82.6448345 C257.802544,83.8783395 258.419296,85.1118445 258.419296,85.728597 L254.102029,85.728597 C254.102029,85.1118445 253.485276,84.495092 252.868524,83.8783395 C252.868524,83.8783395 251.635019,83.261587 251.018266,83.261587 C249.784761,83.261587 249.168009,83.8783395 249.168009,83.8783395 C248.551256,84.495092 247.934504,85.1118445 247.934504,85.728597 C247.934504,85.728597 248.551256,86.3453495 249.168009,86.962102 C249.784761,87.5788545 250.401514,87.5788545 251.635019,88.195607 C254.102029,88.8123595 255.335534,89.429112 256.569039,90.662617 C257.802544,91.2793695 258.419296,92.5128745 258.419296,94.363132 C258.419296,95.596637 257.802544,96.2133895 257.185791,97.4468944 C256.569039,98.0636469 255.952286,98.6803994 254.718781,99.2971519 C254.102029,99.2971519 252.868524,99.9139044 251.018266,99.9139044 C249.784761,99.9139044 248.551256,99.2971519 247.317751,99.2971519 C246.084246,98.6803994 245.467494,98.0636469 244.233989,96.830142 C243.617236,95.596637 243.000484,94.9798845 243.000484,93.129627 L247.317751,93.129627 C247.317751,94.363132 247.934504,94.9798845 248.551256,95.596637 C249.168009,96.2133895 249.784761,96.2133895 251.018266,96.2133895 C252.251771,96.2133895 252.868524,96.2133895 253.485276,95.596637 C253.485276,95.596637 254.102029,94.9798845 254.102029,94.363132 C254.102029,93.7463795 253.485276,93.7463795 253.485276,93.129627 C253.485276,93.129627 252.868524,92.5128745 252.868524,92.5128745 C252.251771,91.896122 251.018266,91.896122 250.401514,91.2793695 Z" id="6" fill="#332C2B" fill-rule="nonzero"></path>
            <path d="M274.454861,94.9798845 C275.071613,94.9798845 275.688366,95.596637 275.688366,95.596637 C276.305118,95.596637 276.305118,96.2133895 276.305118,96.2133895 C276.921871,96.830142 276.921871,96.830142 276.921871,97.4468944 C276.921871,98.0636469 276.921871,98.0636469 276.305118,98.6803994 C276.305118,98.6803994 276.305118,99.2971519 275.688366,99.2971519 C275.688366,99.2971519 275.071613,99.2971519 274.454861,99.2971519 C273.838108,99.2971519 273.838108,99.2971519 273.221356,99.2971519 C273.221356,99.2971519 272.604603,98.6803994 272.604603,98.6803994 C272.604603,98.0636469 271.987851,98.0636469 271.987851,97.4468944 C271.987851,96.830142 272.604603,96.830142 272.604603,96.2133895 C272.604603,96.2133895 273.221356,95.596637 273.221356,95.596637 C273.838108,95.596637 273.838108,94.9798845 274.454861,94.9798845 Z" id="7" fill="#332C2B" fill-rule="nonzero"></path>
            <path d="M307.142743,93.129627 C307.142743,94.363132 306.525991,95.596637 305.909238,96.2133895 C305.292486,97.4468944 304.675733,98.0636469 303.442228,98.6803994 C302.208723,99.2971519 300.975218,99.9139044 299.124961,99.9139044 C297.891456,99.9139044 296.041198,99.2971519 294.807693,98.6803994 C293.574188,98.0636469 292.957436,96.830142 292.340683,95.596637 C291.723931,93.7463795 291.107178,92.5128745 291.107178,90.662617 L291.107178,89.429112 C291.107178,87.5788545 291.723931,85.728597 292.340683,84.495092 C292.957436,83.261587 293.574188,82.028082 294.807693,81.4113295 C296.041198,80.1778245 297.891456,80.1778245 299.124961,80.1778245 C300.975218,80.1778245 302.208723,80.1778245 303.442228,80.794577 C304.675733,81.4113295 305.292486,82.028082 305.909238,83.261587 C306.525991,84.495092 307.142743,85.728597 307.142743,86.962102 L302.825476,86.962102 C302.825476,85.728597 302.208723,85.1118445 302.208723,84.495092 C301.591971,83.8783395 300.358466,83.261587 299.124961,83.261587 C297.891456,83.261587 297.274703,83.8783395 296.657951,85.1118445 C296.041198,85.728597 295.424446,87.5788545 295.424446,89.429112 L295.424446,90.662617 C295.424446,91.896122 296.041198,93.129627 296.041198,93.7463795 C296.041198,94.363132 296.657951,94.9798845 297.274703,95.596637 C297.891456,96.2133895 298.508208,96.2133895 299.124961,96.2133895 C300.358466,96.2133895 300.975218,96.2133895 301.591971,95.596637 C302.208723,94.9798845 302.825476,94.363132 302.825476,93.129627 L307.142743,93.129627 Z" id="8" fill="#332C2B" fill-rule="nonzero"></path>
            <path d="M336.746863,90.0458645 C336.746863,92.5128745 336.746863,93.7463795 336.130111,95.596637 C335.513358,96.830142 334.279853,98.0636469 333.046348,98.6803994 C331.812843,99.2971519 330.579338,99.9139044 328.729081,99.9139044 C326.878823,99.9139044 325.645318,99.2971519 324.411813,98.6803994 C323.178308,98.0636469 322.561556,96.830142 321.328051,95.596637 C320.711298,93.7463795 320.711298,92.5128745 320.711298,90.0458645 L320.711298,89.429112 C320.711298,87.5788545 320.711298,85.728597 321.328051,84.495092 C321.944803,83.261587 323.178308,82.028082 324.411813,81.4113295 C325.645318,80.1778245 326.878823,80.1778245 328.729081,80.1778245 C330.579338,80.1778245 331.812843,80.1778245 333.046348,81.4113295 C334.279853,82.028082 335.513358,83.261587 336.130111,84.495092 C336.746863,85.728597 336.746863,87.5788545 336.746863,89.429112 L336.746863,90.0458645 Z M332.429596,89.429112 C332.429596,87.5788545 332.429596,86.3453495 331.812843,85.1118445 C331.196091,83.8783395 329.962586,83.8783395 328.729081,83.8783395 C327.495576,83.8783395 326.262071,83.8783395 325.645318,85.1118445 C325.028566,86.3453495 325.028566,87.5788545 325.028566,89.429112 L325.028566,90.0458645 C325.028566,91.896122 325.028566,93.7463795 325.645318,94.9798845 C326.262071,95.596637 327.495576,96.2133895 328.729081,96.2133895 C329.962586,96.2133895 331.196091,95.596637 331.812843,94.363132 C332.429596,93.7463795 332.429596,91.896122 332.429596,90.0458645 L332.429596,89.429112 Z" id="9" fill="#332C2B" fill-rule="nonzero"></path>
            <polygon id="10" fill="#332C2B" fill-rule="nonzero" points="371.285003 99.2971519 367.584488 99.2971519 367.584488 94.9798845 367.584488 85.728597 362.650468 99.2971519 360.183458 99.2971519 355.249438 85.728597 355.249438 94.9798845 355.249438 99.2971519 350.932171 99.2971519 350.932171 80.1778245 354.632685 80.1778245 357.099695 80.1778245 361.416963 93.7463795 365.73423 80.1778245 371.285003 80.1778245"></polygon>
        </g>
    </g>
</svg>