<svg width="24" height="24" viewBox="0 0 24 24" fill="none" xmlns="http://www.w3.org/2000/svg">
<g clip-path="url(#clip0_227_18622)">
<path opacity="0.2" d="M12 21C16.9706 21 21 16.9706 21 12C21 7.02944 16.9706 3 12 3C7.02944 3 3 7.02944 3 12C3 16.9706 7.02944 21 12 21Z" fill="white"/>
<path d="M16.5 12C16.5018 14.9332 15.9285 17.8383 14.8125 20.5509" stroke="white" stroke-opacity="0.6" stroke-width="1.2" stroke-linecap="round" stroke-linejoin="round"/>
<path d="M15.3516 8.99912C14.7438 8.32076 13.9445 7.8428 13.0593 7.62841C12.1741 7.41401 11.2447 7.47327 10.3938 7.79835C9.54304 8.12344 8.81091 8.69904 8.29421 9.44909C7.77751 10.1991 7.50057 11.0883 7.5 11.9991C7.50269 14.2862 6.92188 16.5362 5.8125 18.5363" stroke="white" stroke-opacity="0.6" stroke-width="1.2" stroke-linecap="round" stroke-linejoin="round"/>
<path d="M9 3.51201C10.3577 3.03356 11.8103 2.88752 13.2361 3.08614C14.6619 3.28476 16.0193 3.82225 17.1945 4.65356C18.3698 5.48487 19.3287 6.58578 19.9908 7.86402C20.6529 9.14226 20.999 10.5606 21 12.0001C21.0011 14.0188 20.7766 16.0313 20.3306 18.0001" stroke="white" stroke-opacity="0.6" stroke-width="1.2" stroke-linecap="round" stroke-linejoin="round"/>
<path d="M2.18164 15.7508C2.72188 14.5745 3.00109 13.2952 3.00008 12.0008C2.99883 10.7344 3.26548 9.48202 3.78252 8.32595C4.29955 7.16989 5.05528 6.13627 6.00008 5.29297" stroke="white" stroke-opacity="0.6" stroke-width="1.2" stroke-linecap="round" stroke-linejoin="round"/>
<path d="M10.365 19.5C10.1775 19.9144 9.97215 20.3206 9.74902 20.7188" stroke="white" stroke-opacity="0.6" stroke-width="1.2" stroke-linecap="round" stroke-linejoin="round"/>
<path d="M12 12C12.0022 13.5177 11.8132 15.0296 11.4375 16.5" stroke="white" stroke-opacity="0.6" stroke-width="1.2" stroke-linecap="round" stroke-linejoin="round"/>
</g>
<defs>
<clipPath id="clip0_227_18622">
<rect width="24" height="24" fill="white"/>
</clipPath>
</defs>
</svg>
