<svg width="21" height="22" viewBox="0 0 21 22" fill="none" xmlns="http://www.w3.org/2000/svg">
<g clip-path="url(#clip0_216_18765)">
<path opacity="0.2" d="M17.7188 4.4375H3.28125C3.1072 4.4375 2.94028 4.50664 2.81721 4.62971C2.69414 4.75278 2.625 4.9197 2.625 5.09375V16.9062C2.625 17.0803 2.69414 17.2472 2.81721 17.3703C2.94028 17.4934 3.1072 17.5625 3.28125 17.5625H17.7188C17.8928 17.5625 18.0597 17.4934 18.1828 17.3703C18.3059 17.2472 18.375 17.0803 18.375 16.9062V5.09375C18.375 4.9197 18.3059 4.75278 18.1828 4.62971C18.0597 4.50664 17.8928 4.4375 17.7188 4.4375ZM7.875 12.3125C7.48562 12.3125 7.10498 12.197 6.78122 11.9807C6.45746 11.7644 6.20512 11.4569 6.05611 11.0972C5.9071 10.7374 5.86811 10.3416 5.94408 9.95967C6.02004 9.57777 6.20755 9.22697 6.48288 8.95163C6.75822 8.6763 7.10902 8.48879 7.49092 8.41283C7.87282 8.33686 8.26867 8.37585 8.62841 8.52486C8.98815 8.67387 9.29563 8.92621 9.51196 9.24997C9.72828 9.57373 9.84375 9.95437 9.84375 10.3438C9.84375 10.8659 9.63633 11.3667 9.26712 11.7359C8.8979 12.1051 8.39714 12.3125 7.875 12.3125Z" fill="white"/>
<path d="M12.4688 9.6875H15.75" stroke="white" stroke-opacity="0.6" stroke-width="1.2" stroke-linecap="round" stroke-linejoin="round"/>
<path d="M12.4688 12.3125H15.75" stroke="white" stroke-opacity="0.6" stroke-width="1.2" stroke-linecap="round" stroke-linejoin="round"/>
<path d="M17.7188 4.4375H3.28125C2.91881 4.4375 2.625 4.73131 2.625 5.09375V16.9062C2.625 17.2687 2.91881 17.5625 3.28125 17.5625H17.7188C18.0812 17.5625 18.375 17.2687 18.375 16.9062V5.09375C18.375 4.73131 18.0812 4.4375 17.7188 4.4375Z" stroke="white" stroke-opacity="0.6" stroke-width="1.2" stroke-linecap="round" stroke-linejoin="round"/>
<path d="M7.875 12.3125C8.96231 12.3125 9.84375 11.4311 9.84375 10.3438C9.84375 9.25644 8.96231 8.375 7.875 8.375C6.78769 8.375 5.90625 9.25644 5.90625 10.3438C5.90625 11.4311 6.78769 12.3125 7.875 12.3125Z" stroke="white" stroke-opacity="0.6" stroke-width="1.2" stroke-linecap="round" stroke-linejoin="round"/>
<path d="M5.25 14.2812C5.54121 13.1492 6.65191 12.3125 7.875 12.3125C9.09809 12.3125 10.2096 13.1484 10.5 14.2812" stroke="white" stroke-opacity="0.6" stroke-width="1.2" stroke-linecap="round" stroke-linejoin="round"/>
</g>
<defs>
<clipPath id="clip0_216_18765">
<rect width="21" height="21" fill="white" transform="translate(0 0.5)"/>
</clipPath>
</defs>
</svg>
