<svg width="215" height="40" viewBox="0 0 215 40" fill="none" xmlns="http://www.w3.org/2000/svg">
<path d="M49.3457 20.0542C49.3457 14.8644 52.6211 11.1543 57.6922 11.1543C61.7203 11.1543 64.1951 13.2641 64.9714 16.174H61.4286C60.8703 14.8401 59.6572 13.9185 57.6922 13.9185C54.6591 13.9185 52.8877 16.3441 52.8877 20.0542C52.8877 23.7643 54.6591 26.0927 57.6922 26.0927C59.6572 26.0927 60.8711 25.1224 61.4286 23.7165H64.9714C64.1951 26.6993 61.7203 28.8576 57.6922 28.8576C52.6211 28.8576 49.3457 25.1961 49.3457 20.0549V20.0542Z" fill="white"/>
<path d="M77.0566 24.1538H70.3843L68.8317 28.4948H65.3618L71.7432 11.5195H75.6984L82.0798 28.4948H78.61L77.0574 24.1538H77.0566ZM76.1587 21.6318L73.7083 14.7931L71.2821 21.6318H76.1595H76.1587Z" fill="white"/>
<path d="M83.8032 11.5195H91.1311C95.3286 11.5195 97.3188 13.4349 97.3188 16.6121C97.3188 19.7893 95.3294 21.6804 91.1311 21.6804H87.1272V28.4948H83.8032V11.5195ZM90.9123 19.0855C92.9746 19.0855 93.8724 18.0181 93.8724 16.6121C93.8724 15.2061 92.9746 14.0901 90.9123 14.0901H87.1272V19.0855H90.9123Z" fill="white"/>
<path d="M99.4307 11.5195H102.755V28.4948H99.4307V11.5195Z" fill="white"/>
<path d="M110.228 14.2116H104.696V11.5195H119.085V14.2116H113.552V28.4948H110.228V14.2116Z" fill="white"/>
<path d="M129.058 24.1538H122.386L120.833 28.4948H117.363L123.745 11.5195H127.7L134.081 28.4948H130.611L129.059 24.1538H129.058ZM128.16 21.6318L125.71 14.7931L123.284 21.6318H128.161H128.16Z" fill="white"/>
<path d="M135.805 11.5195H139.129V25.8035H147.548V28.4956H135.805V11.5203V11.5195Z" fill="white"/>
<path d="M153.155 20.0542C153.155 14.8644 156.43 11.1543 161.501 11.1543C165.529 11.1543 168.004 13.2641 168.78 16.174H165.238C164.679 14.8401 163.466 13.9185 161.501 13.9185C158.468 13.9185 156.697 16.3441 156.697 20.0542C156.697 23.7643 158.468 26.0927 161.501 26.0927C163.466 26.0927 164.68 25.1224 165.238 23.7165H168.78C168.004 26.6993 165.529 28.8576 161.501 28.8576C156.43 28.8576 153.155 25.1961 153.155 20.0549V20.0542Z" fill="white"/>
<path d="M171.087 11.5195H174.411V25.8035H182.831V28.4956H171.086V11.5203L171.087 11.5195Z" fill="white"/>
<path d="M184.069 22.7956V11.5195H187.393V22.602C187.393 25.0511 188.727 26.0943 190.96 26.0943C193.192 26.0943 194.551 25.0511 194.551 22.602V11.5195H197.875V22.7956C197.875 26.5786 195.376 28.8584 190.96 28.8584C186.544 28.8584 184.069 26.5786 184.069 22.7956Z" fill="white"/>
<path d="M201.079 11.5195H208.334C212.29 11.5195 214.109 13.3871 214.109 15.9577C214.109 17.7767 212.92 19.207 211.561 19.5228C213.357 19.8865 214.836 21.4625 214.836 23.6452C214.836 26.6037 212.823 28.4956 208.77 28.4956H201.079V11.5203L201.079 11.5195ZM208.116 18.5526C209.742 18.5526 210.664 17.7281 210.664 16.3456C210.664 14.9632 209.718 14.0901 208.116 14.0901H204.404V18.5526H208.116ZM208.553 25.925C210.495 25.925 211.392 25.0033 211.392 23.5488C211.392 22.0942 210.494 21.1482 208.553 21.1482H204.404V25.9258H208.553V25.925Z" fill="white"/>
<path d="M20.031 0.00156657C8.98553 0.00156657 0 8.98293 0 20.0216C0 28.4888 5.37532 36.0752 13.376 38.9012C14.2722 39.2179 15.1905 39.471 16.104 39.6528L16.1597 39.663C17.0207 39.8323 17.8997 39.9459 18.7732 40V6.23445C18.1044 6.25326 16.9917 6.44213 16.1683 6.68117L16.1134 6.69684C15.1623 6.97663 14.2472 7.35516 13.3917 7.82147C10.2182 9.55426 7.87047 12.3984 6.7813 15.8302C6.49351 16.7378 6.22612 17.6845 6.20652 18.4863H13.4857V15.9055H9.49131L9.55247 15.7566C10.3319 13.8498 11.6195 12.1891 13.2748 10.9532C14.1209 10.3223 15.0525 9.8121 16.0444 9.43749L16.191 9.38185V37.0297L16.0585 36.9984C15.1034 36.775 14.1742 36.4756 13.2983 36.1081C6.78835 33.3768 2.58219 27.0617 2.58219 20.02C2.58219 10.4038 10.4095 2.57999 20.0318 2.57999C29.6541 2.57999 37.4814 10.4038 37.4814 20.02C37.4814 26.9566 33.3599 33.2342 26.9809 36.0132C26.087 36.4028 25.1523 36.7186 24.2027 36.9521L24.0686 36.9851V9.45552L24.2168 9.51507C25.2158 9.91399 26.1536 10.4547 27.0044 11.1217C28.5563 12.3388 29.7685 13.9415 30.5111 15.7558L30.5723 15.9047H26.7919V18.4855H33.8563C33.8383 17.7856 33.636 16.7676 33.3074 15.7299C32.2747 12.4775 29.9944 9.71179 26.8852 7.94294C26.0086 7.44372 25.0864 7.04324 24.1462 6.75092L24.1094 6.74073C23.2319 6.47113 22.1161 6.25717 21.4887 6.23445V39.9828C22.3905 39.9177 23.275 39.7962 24.1196 39.6207L24.1564 39.6121C25.0942 39.4153 26.018 39.1512 26.9025 38.8276C34.7761 35.9466 40.066 28.3885 40.066 20.02C40.066 8.98058 31.0796 0 20.0349 0L20.031 0.00156657Z" fill="white"/>
<path d="M33.3693 23.9146C33.6595 22.9232 33.8335 21.9608 33.8531 21.25L31.1823 21.2563H26.7896V23.8363H30.6711L30.6311 23.9742C30.1002 25.8214 28.666 27.6569 26.7896 28.8928V32.0221C29.9442 30.5182 32.277 27.6459 33.3693 23.9138V23.9146Z" fill="white"/>
<path d="M6.69251 23.9162C7.75659 27.5518 10.1035 30.392 13.4856 32.1413V29.0628C11.1261 27.5205 10.1576 25.9154 9.43231 23.9844L9.37742 23.8378H13.4856V21.2578L6.20947 21.2539C6.24868 22.0596 6.411 22.9546 6.69251 23.9162Z" fill="white"/>
</svg>
