<svg width="1500" height="617" viewBox="0 0 1500 617" fill="none" xmlns="http://www.w3.org/2000/svg">
<g clip-path="url(#clip0_56_21)">
<path d="M232.45 240.465C223.112 229.142 212.885 221.148 201.768 216.485C190.873 211.823 179.09 209.492 166.417 209.492C153.966 209.492 142.738 211.823 132.733 216.485C122.728 221.148 114.169 228.253 107.054 237.8C99.9392 247.127 94.492 259.117 90.7123 273.771C86.9327 288.202 85.0428 305.3 85.0428 325.061C85.0428 345.045 86.5992 362.031 89.7118 376.018C93.0468 389.784 97.7158 401.108 103.719 409.99C109.722 418.65 117.059 424.978 125.73 428.973C134.401 432.749 144.072 434.637 154.745 434.637C171.865 434.637 186.427 431.083 198.433 423.977C210.44 416.874 221.778 406.77 232.45 393.671V240.465ZM314.825 0V494.919H264.467C253.572 494.919 246.68 489.923 243.79 479.931L236.787 446.958C223.002 462.723 207.105 475.49 189.095 485.26C171.308 495.029 150.52 499.915 126.73 499.915C108.054 499.915 90.9347 496.03 75.3713 488.257C59.8078 480.486 46.3567 469.274 35.0177 454.619C23.901 439.743 15.2299 421.424 9.00453 399.666C3.00152 377.906 0 353.037 0 325.061C0 299.749 3.44618 276.213 10.3385 254.454C17.2308 232.694 27.1248 213.821 40.0202 197.834C52.9155 181.848 68.3678 169.413 86.3768 160.532C104.386 151.429 124.618 146.877 147.074 146.877C166.195 146.877 182.537 149.874 196.098 155.869C209.662 161.864 221.778 169.969 232.45 180.182V0H314.825Z" fill="#1652F0"/>
<path d="M481.498 153.205V494.919H398.79V153.205H481.498ZM492.837 53.6217C492.837 60.7268 491.392 67.3878 488.502 73.6048C485.612 79.8218 481.72 85.2617 476.828 89.9244C472.16 94.5873 466.602 98.3618 460.153 101.248C453.707 103.913 446.813 105.245 439.477 105.245C432.362 105.245 425.58 103.913 419.133 101.248C412.908 98.3618 407.46 94.5873 402.792 89.9244C398.122 85.2617 394.343 79.8218 391.452 73.6048C388.785 67.3878 387.45 60.7268 387.45 53.6217C387.45 46.2944 388.785 39.4113 391.452 32.9722C394.343 26.5332 398.122 20.9824 402.792 16.3195C407.46 11.6568 412.908 7.99316 419.133 5.32873C425.58 2.44226 432.362 0.999023 439.477 0.999023C446.813 0.999023 453.707 2.44226 460.153 5.32873C466.602 7.99316 472.16 11.6568 476.828 16.3195C481.72 20.9824 485.612 26.5332 488.502 32.9722C491.392 39.4113 492.837 46.2944 492.837 53.6217Z" fill="#1652F0"/>
<path d="M873.967 153.205L738.232 494.919H663.527L527.792 153.205H595.827C602.052 153.205 607.165 154.648 611.167 157.535C615.392 160.421 618.17 164.085 619.505 168.526L685.538 351.04C689.095 361.697 692.208 372.133 694.877 382.347C697.543 392.561 699.878 402.774 701.88 412.988C704.103 402.774 706.548 392.561 709.217 382.347C711.885 372.133 715.108 361.697 718.888 351.04L786.255 168.526C787.812 164.085 790.59 160.421 794.593 157.535C798.595 154.648 803.375 153.205 808.933 153.205H873.967Z" fill="#1652F0"/>
<path d="M1001.24 0V494.919H918.868V0H1001.24Z" fill="#1652F0"/>
<path d="M1394.14 153.205L1207.71 588.84C1205.27 594.613 1202.04 598.942 1198.04 601.829C1194.26 604.939 1188.37 606.493 1180.37 606.493H1119L1183.03 469.274L1044.63 153.205H1117C1123.45 153.205 1128.45 154.759 1132.01 157.868C1135.79 160.976 1138.57 164.529 1140.35 168.526L1213.05 345.71C1215.49 351.705 1217.49 357.7 1219.05 363.695C1220.83 369.69 1222.5 375.796 1224.05 382.013C1226.06 375.796 1228.06 369.69 1230.06 363.695C1232.06 357.478 1234.28 351.372 1236.73 345.377L1305.43 168.526C1307.21 164.085 1310.1 160.421 1314.1 157.535C1318.32 154.648 1322.99 153.205 1328.11 153.205H1394.14Z" fill="#1652F0"/>
<path d="M1398.95 449.623C1398.95 442.741 1400.17 436.191 1402.62 429.974C1405.28 423.756 1408.84 418.428 1413.29 413.987C1417.74 409.546 1423.07 405.993 1429.3 403.33C1435.52 400.665 1442.19 399.333 1449.31 399.333C1456.42 399.333 1462.98 400.665 1468.98 403.33C1475.21 405.993 1480.55 409.546 1484.99 413.987C1489.66 418.428 1493.33 423.756 1496 429.974C1498.67 436.191 1500 442.741 1500 449.623C1500 456.729 1498.67 463.39 1496 469.607C1493.33 475.602 1489.66 480.82 1484.99 485.261C1480.55 489.701 1475.21 493.143 1468.98 495.585C1462.98 498.249 1456.42 499.582 1449.31 499.582C1442.19 499.582 1435.52 498.249 1429.3 495.585C1423.07 493.143 1417.74 489.701 1413.29 485.261C1408.84 480.82 1405.28 475.602 1402.62 469.607C1400.17 463.39 1398.95 456.729 1398.95 449.623Z" fill="#1652F0"/>
</g>
<defs>
<clipPath id="clip0_56_21">
<rect width="1500" height="617" fill="white"/>
</clipPath>
</defs>
</svg>
