<svg width="848" height="120" viewBox="0 0 848 120" fill="none" xmlns="http://www.w3.org/2000/svg">
<g clip-path="url(#clip0_2_306)">
<path d="M95.2611 0H83.8277L57.3663 33.7034L15.7469 0H0.863281L57.7777 46.5763L95.2611 0Z" fill="white"/>
<path d="M121.448 0H110.426L72.5244 46.5763L112.217 80.5523H125.859L84.925 46.5763L121.448 0Z" fill="white"/>
<path d="M42.0713 96.5824H53.6418L72.5243 73.4342L126.544 116.451H140.605L71.7014 60.4178L42.0713 96.5824Z" fill="white"/>
<path d="M5.82222 29.0465H20.2944L58.8822 60.4179L13.957 116.451H1.96777L46.3444 62.4701L5.82222 29.0465Z" fill="white"/>
</g>
<path d="M813.391 67.7537V39.6275L789.866 6.55322H802.8L819.12 29.7313L835.527 6.55322H847.941L824.503 39.7144V67.7537H813.391Z" fill="white"/>
<path d="M769.634 68.6218C763.268 68.6218 757.799 67.3486 753.227 64.8022C748.713 62.1979 745.241 58.5519 742.81 53.8642C740.379 49.1186 739.164 43.5339 739.164 37.11C739.164 30.6861 740.379 25.1303 742.81 20.4426C745.241 15.7549 748.713 12.1379 753.227 9.59148C757.799 6.9872 763.268 5.68506 769.634 5.68506C773.743 5.68506 777.621 6.32166 781.267 7.59486C784.97 8.86807 788.009 10.6911 790.382 13.0638L786.736 21.9184C784.131 19.7192 781.469 18.1277 778.749 17.1439C776.029 16.1022 773.107 15.5813 769.981 15.5813C763.789 15.5813 759.072 17.4622 755.831 21.2239C752.591 24.9278 750.97 30.2231 750.97 37.11C750.97 43.9969 752.591 49.3212 755.831 53.0829C759.072 56.8446 763.789 58.7255 769.981 58.7255C773.107 58.7255 776.029 58.2336 778.749 57.2498C781.469 56.208 784.131 54.5876 786.736 52.3884L790.382 61.243C788.009 63.5579 784.97 65.3809 781.267 66.712C777.621 67.9852 773.743 68.6218 769.634 68.6218Z" fill="white"/>
<path d="M676.223 67.7537V6.55322H684.557L717.458 49.2634V6.55322H727.788V67.7537H719.541L686.553 24.87V67.7537H676.223Z" fill="white"/>
<path d="M624.426 67.7537V6.55322H665.139V15.4078H635.103V32.2488H663.23V41.1033H635.103V58.8992H665.139V67.7537H624.426Z" fill="white"/>
<path d="M589.934 68.6218C583.163 68.6218 577.434 67.3486 572.746 64.8022C568.116 62.2557 564.586 58.6387 562.155 53.951C559.725 49.2633 558.509 43.7075 558.509 37.2836C558.509 30.8019 559.754 25.2171 562.242 20.5294C564.731 15.7839 568.319 12.1379 573.006 9.59148C577.694 6.9872 583.308 5.68506 589.847 5.68506C594.13 5.68506 598.152 6.32166 601.914 7.59486C605.676 8.81019 608.801 10.5174 611.289 12.7166L607.556 21.3975C604.836 19.2562 602.059 17.7226 599.223 16.7966C596.387 15.8707 593.262 15.4077 589.847 15.4077C583.366 15.4077 578.446 17.2886 575.09 21.0503C571.791 24.812 570.142 30.2231 570.142 37.2836C570.142 44.402 571.849 49.8131 575.263 53.517C578.678 57.2208 583.742 59.0727 590.455 59.0727C592.365 59.0727 594.304 58.9281 596.271 58.6387C598.297 58.2915 600.293 57.7995 602.261 57.1629V42.9262H588.198V34.6793H611.55V64.1077C608.714 65.4966 605.357 66.5962 601.48 67.4064C597.602 68.2166 593.754 68.6218 589.934 68.6218Z" fill="white"/>
<path d="M490.582 67.7537L518.274 6.55322H527.389L555.081 67.7537H543.796L537.719 53.6038H507.857L501.867 67.7537H490.582ZM522.701 18.6197L511.676 44.7493H533.899L522.875 18.6197H522.701Z" fill="white"/>
<path d="M408.251 67.7537L431.603 36.5892L409.119 6.55322H422.054L437.94 28.516L453.826 6.55322H466.847L444.364 36.5892L467.629 67.7537H454.607L437.94 44.8361L421.359 67.7537H408.251Z" fill="white"/>
<path d="M391.041 67.7537V6.55322H402.153V67.7537H391.041Z" fill="white"/>
<path d="M342.296 67.7537V6.55322H353.407V58.2915H382.749V67.7537H342.296Z" fill="white"/>
<path d="M271.1 67.7537L298.792 6.55322H307.907L335.599 67.7537H324.314L318.238 53.6038H288.375L282.385 67.7537H271.1ZM303.22 18.6197L292.195 44.7493H314.418L303.393 18.6197H303.22Z" fill="white"/>
<path d="M248.524 68.6218C242.158 68.6218 236.689 67.3486 232.117 64.8022C227.603 62.1979 224.131 58.5519 221.7 53.8642C219.27 49.1186 218.054 43.5339 218.054 37.11C218.054 30.6861 219.27 25.1303 221.7 20.4426C224.131 15.7549 227.603 12.1379 232.117 9.59148C236.689 6.9872 242.158 5.68506 248.524 5.68506C252.633 5.68506 256.511 6.32166 260.157 7.59486C263.861 8.86807 266.899 10.6911 269.272 13.0638L265.626 21.9184C263.021 19.7192 260.359 18.1277 257.639 17.1439C254.919 16.1022 251.997 15.5813 248.871 15.5813C242.679 15.5813 237.962 17.4622 234.722 21.2239C231.481 24.9278 229.86 30.2231 229.86 37.11C229.86 43.9969 231.481 49.3212 234.722 53.0829C237.962 56.8446 242.679 58.7255 248.871 58.7255C251.997 58.7255 254.919 58.2336 257.639 57.2498C260.359 56.208 263.021 54.5876 265.626 52.3884L269.272 61.243C266.899 63.5579 263.861 65.3809 260.157 66.712C256.511 67.9852 252.633 68.6218 248.524 68.6218Z" fill="white"/>
<path d="M186.381 68.6218C181.578 68.6218 177.121 68.0141 173.012 66.7988C168.903 65.5256 165.431 63.8183 162.595 61.677L165.981 52.9093C168.817 54.9348 171.913 56.4974 175.269 57.597C178.684 58.6966 182.388 59.2464 186.381 59.2464C190.953 59.2464 194.281 58.494 196.364 56.9893C198.447 55.4268 199.489 53.4301 199.489 50.9995C199.489 48.9739 198.737 47.3824 197.232 46.225C195.785 45.0675 193.268 44.1126 189.68 43.3603L180.131 41.3637C169.251 39.0487 163.811 33.464 163.811 24.6095C163.811 20.7899 164.823 17.4622 166.849 14.6264C168.874 11.7906 171.681 9.59148 175.269 8.02891C178.857 6.46634 182.995 5.68506 187.683 5.68506C191.85 5.68506 195.756 6.32166 199.402 7.59486C203.048 8.81019 206.087 10.5464 208.517 12.8034L205.132 21.1371C200.328 17.086 194.483 15.0605 187.596 15.0605C183.603 15.0605 180.478 15.8996 178.221 17.5779C175.964 19.2562 174.835 21.4554 174.835 24.1754C174.835 26.2589 175.53 27.9372 176.919 29.2104C178.308 30.4257 180.68 31.3806 184.037 32.0751L193.499 34.0717C199.229 35.287 203.482 37.1968 206.26 39.8011C209.096 42.4054 210.514 45.8777 210.514 50.2182C210.514 53.8642 209.53 57.0761 207.562 59.854C205.595 62.6319 202.788 64.8022 199.142 66.3647C195.554 67.8694 191.3 68.6218 186.381 68.6218Z" fill="white"/>
<path d="M803.017 120C800.47 120 798.203 119.659 796.216 118.975C794.229 118.292 792.49 117.283 790.999 115.948L791.931 114.271C793.576 115.606 795.222 116.584 796.868 117.205C798.514 117.795 800.564 118.09 803.017 118.09C806.122 118.09 808.451 117.469 810.004 116.227C811.588 114.985 812.379 113.339 812.379 111.29C812.379 109.613 811.805 108.309 810.656 107.377C809.507 106.414 807.628 105.669 805.02 105.141L800.408 104.209C797.489 103.619 795.315 102.641 793.887 101.275C792.459 99.9085 791.744 98.0608 791.744 95.7318C791.744 93.8685 792.21 92.2382 793.142 90.8408C794.104 89.4434 795.424 88.3565 797.101 87.5802C798.809 86.8038 800.75 86.4156 802.924 86.4156C807.426 86.4156 811.013 87.8286 813.684 90.6545L812.752 92.3314C811.293 90.9029 809.786 89.8781 808.234 89.2571C806.681 88.636 804.911 88.3255 802.924 88.3255C800.191 88.3255 797.986 89.0086 796.309 90.375C794.632 91.7103 793.794 93.4959 793.794 95.7318C793.794 97.5329 794.322 98.9613 795.378 100.017C796.433 101.042 798.141 101.787 800.501 102.253L805.113 103.185C808.28 103.837 810.625 104.799 812.147 106.073C813.668 107.315 814.429 109.038 814.429 111.243C814.429 112.951 813.963 114.473 813.032 115.808C812.131 117.112 810.827 118.137 809.119 118.882C807.411 119.628 805.377 120 803.017 120Z" fill="white"/>
<path d="M754.274 119.628V86.7883H755.904L777.611 116.274V86.7883H779.427V119.628H777.844L756.091 90.0956V119.628H754.274Z" fill="white"/>
<path d="M727.631 120C724.681 120 722.134 119.317 719.992 117.951C717.849 116.584 716.188 114.643 715.008 112.128C713.859 109.613 713.284 106.632 713.284 103.185C713.284 99.7066 713.859 96.7255 715.008 94.2412C716.157 91.7258 717.802 89.8005 719.945 88.4652C722.088 87.0988 724.65 86.4156 727.631 86.4156C730.612 86.4156 733.174 87.0988 735.317 88.4652C737.491 89.8005 739.152 91.7258 740.301 94.2412C741.45 96.7255 742.024 99.6911 742.024 103.138C742.024 106.616 741.434 109.613 740.254 112.128C739.105 114.643 737.46 116.584 735.317 117.951C733.174 119.317 730.612 120 727.631 120ZM727.631 118.09C731.544 118.09 734.572 116.786 736.714 114.178C738.857 111.569 739.928 107.905 739.928 103.185C739.928 98.4645 738.857 94.8157 736.714 92.2382C734.603 89.6297 731.575 88.3255 727.631 88.3255C723.749 88.3255 720.737 89.6297 718.594 92.2382C716.452 94.8157 715.38 98.4645 715.38 103.185C715.38 107.874 716.452 111.538 718.594 114.178C720.737 116.786 723.749 118.09 727.631 118.09Z" fill="white"/>
<path d="M699.06 119.628V86.7883H701.016V119.628H699.06Z" fill="white"/>
<path d="M675.307 119.628V88.605H662.776V86.7883H689.793V88.605H677.263V119.628H675.307Z" fill="white"/>
<path d="M641.222 120C637.123 120 634.002 118.898 631.859 116.693C629.748 114.457 628.692 111.228 628.692 107.004V86.7883H630.648V106.725C630.648 114.302 634.173 118.09 641.222 118.09C648.271 118.09 651.796 114.302 651.796 106.725V86.7883H653.752V107.004C653.752 111.228 652.681 114.457 650.538 116.693C648.427 118.898 645.321 120 641.222 120Z" fill="white"/>
<path d="M600.886 119.628V86.7883H602.842V117.811H620.356V119.628H600.886Z" fill="white"/>
<path d="M574.242 120C571.292 120 568.746 119.317 566.603 117.951C564.46 116.584 562.799 114.643 561.619 112.128C560.47 109.613 559.896 106.632 559.896 103.185C559.896 99.7066 560.47 96.7255 561.619 94.2412C562.768 91.7258 564.414 89.8005 566.557 88.4652C568.699 87.0988 571.261 86.4156 574.242 86.4156C577.223 86.4156 579.785 87.0988 581.928 88.4652C584.102 89.8005 585.763 91.7258 586.912 94.2412C588.061 96.7255 588.636 99.6911 588.636 103.138C588.636 106.616 588.046 109.613 586.866 112.128C585.717 114.643 584.071 116.584 581.928 117.951C579.785 119.317 577.223 120 574.242 120ZM574.242 118.09C578.155 118.09 581.183 116.786 583.326 114.178C585.468 111.569 586.54 107.905 586.54 103.185C586.54 98.4645 585.468 94.8157 583.326 92.2382C581.214 89.6297 578.186 88.3255 574.242 88.3255C570.361 88.3255 567.348 89.6297 565.206 92.2382C563.063 94.8157 561.992 98.4645 561.992 103.185C561.992 107.874 563.063 111.538 565.206 114.178C567.348 116.786 570.361 118.09 574.242 118.09Z" fill="white"/>
<path d="M538.627 120C536.08 120 533.813 119.659 531.826 118.975C529.838 118.292 528.099 117.283 526.609 115.948L527.541 114.271C529.186 115.606 530.832 116.584 532.478 117.205C534.124 117.795 536.173 118.09 538.627 118.09C541.732 118.09 544.061 117.469 545.614 116.227C547.197 114.985 547.989 113.339 547.989 111.29C547.989 109.613 547.415 108.309 546.266 107.377C545.117 106.414 543.238 105.669 540.63 105.141L536.018 104.209C533.099 103.619 530.925 102.641 529.497 101.275C528.068 99.9085 527.354 98.0608 527.354 95.7318C527.354 93.8685 527.82 92.2382 528.752 90.8408C529.714 89.4434 531.034 88.3565 532.711 87.5802C534.419 86.8038 536.36 86.4156 538.534 86.4156C543.036 86.4156 546.623 87.8286 549.294 90.6545L548.362 92.3314C546.902 90.9029 545.396 89.8781 543.844 89.2571C542.291 88.636 540.521 88.3255 538.534 88.3255C535.801 88.3255 533.596 89.0086 531.919 90.375C530.242 91.7103 529.404 93.4959 529.404 95.7318C529.404 97.5329 529.932 98.9613 530.987 100.017C532.043 101.042 533.751 101.787 536.111 102.253L540.723 103.185C543.89 103.837 546.235 104.799 547.756 106.073C549.278 107.315 550.039 109.038 550.039 111.243C550.039 112.951 549.573 114.473 548.642 115.808C547.741 117.112 546.437 118.137 544.729 118.882C543.021 119.628 540.987 120 538.627 120Z" fill="white"/>
<path d="M488.698 120C483.605 120 479.724 118.541 477.053 115.622C474.414 112.672 473.094 108.526 473.094 103.185C473.094 99.7066 473.668 96.7255 474.817 94.2412C475.997 91.7258 477.674 89.8005 479.848 88.4652C482.022 87.0988 484.646 86.4156 487.72 86.4156C492.471 86.4156 496.244 87.8907 499.039 90.8408L498.014 92.4711C496.493 91.0116 494.909 89.9558 493.263 89.3036C491.648 88.6515 489.785 88.3255 487.673 88.3255C483.668 88.3255 480.578 89.6297 478.404 92.2382C476.261 94.8157 475.19 98.4645 475.19 103.185C475.19 108.029 476.308 111.724 478.544 114.271C480.78 116.817 484.149 118.09 488.652 118.09C491.85 118.09 494.754 117.547 497.362 116.46V104.908H488.326V103.091H499.225V117.764C498.48 118.168 497.517 118.541 496.337 118.882C495.157 119.224 493.9 119.488 492.564 119.674C491.229 119.892 489.94 120 488.698 120Z" fill="white"/>
<path d="M435.67 119.628V86.7883H437.3L459.007 116.274V86.7883H460.823V119.628H459.24L437.487 90.0956V119.628H435.67Z" fill="white"/>
<path d="M420.095 119.628V86.7883H422.051V119.628H420.095Z" fill="white"/>
<path d="M397.475 120C394.928 120 392.662 119.659 390.674 118.975C388.687 118.292 386.948 117.283 385.457 115.948L386.389 114.271C388.034 115.606 389.68 116.584 391.326 117.205C392.972 117.795 395.022 118.09 397.475 118.09C400.58 118.09 402.909 117.469 404.462 116.227C406.046 114.985 406.838 113.339 406.838 111.29C406.838 109.613 406.263 108.309 405.114 107.377C403.965 106.414 402.086 105.669 399.478 105.141L394.866 104.209C391.947 103.619 389.774 102.641 388.345 101.275C386.917 99.9085 386.202 98.0608 386.202 95.7318C386.202 93.8685 386.668 92.2382 387.6 90.8408C388.562 89.4434 389.882 88.3565 391.559 87.5802C393.267 86.8038 395.208 86.4156 397.382 86.4156C401.884 86.4156 405.471 87.8286 408.142 90.6545L407.21 92.3314C405.751 90.9029 404.245 89.8781 402.692 89.2571C401.139 88.636 399.369 88.3255 397.382 88.3255C394.649 88.3255 392.444 89.0086 390.767 90.375C389.09 91.7103 388.252 93.4959 388.252 95.7318C388.252 97.5329 388.78 98.9613 389.836 100.017C390.891 101.042 392.599 101.787 394.959 102.253L399.571 103.185C402.738 103.837 405.083 104.799 406.605 106.073C408.126 107.315 408.887 109.038 408.887 111.243C408.887 112.951 408.421 114.473 407.49 115.808C406.589 117.112 405.285 118.137 403.577 118.882C401.869 119.628 399.835 120 397.475 120Z" fill="white"/>
<path d="M371.931 119.628V86.7883H373.888V119.628H371.931Z" fill="white"/>
<path d="M348.178 119.628V88.605H335.648V86.7883H362.665V88.605H350.134V119.628H348.178Z" fill="white"/>
<path d="M305.754 119.628V86.7883H317.632C321.079 86.7883 323.718 87.5802 325.551 89.1639C327.383 90.7477 328.299 93.0146 328.299 95.9647C328.299 98.3869 327.616 100.359 326.249 101.88C324.883 103.371 322.958 104.318 320.473 104.722C321.778 105.219 322.942 106.43 323.967 108.355L330.069 119.628H327.926L322.243 109.1C321.374 107.486 320.411 106.414 319.355 105.886C318.3 105.358 316.856 105.094 315.023 105.094H307.71V119.628H305.754ZM307.71 103.278H317.446C323.315 103.278 326.249 100.825 326.249 95.9181C326.249 91.0427 323.315 88.605 317.446 88.605H307.71V103.278Z" fill="white"/>
<path d="M274.531 119.628V86.7883H294.281V88.605H276.487V102.067H293.349V103.883H276.487V117.811H294.281V119.628H274.531Z" fill="white"/>
<path d="M248.819 119.628L234.705 86.7883H236.801L249.89 117.252L262.979 86.7883H265.029L250.915 119.628H248.819Z" fill="white"/>
<path d="M201.075 119.628V86.7883H211.183C216.338 86.7883 220.297 88.1857 223.061 90.9806C225.856 93.7444 227.253 97.8124 227.253 103.185C227.253 108.526 225.856 112.609 223.061 115.435C220.297 118.23 216.338 119.628 211.183 119.628H201.075ZM203.032 117.811H210.997C220.437 117.811 225.157 112.936 225.157 103.185C225.157 93.4649 220.437 88.605 210.997 88.605H203.032V117.811Z" fill="white"/>
<path d="M160.232 119.628L174.346 86.7883H176.21L190.323 119.628H188.227L184.315 110.544H166.195L162.329 119.628H160.232ZM175.231 89.4434L167.033 108.728H183.523L175.325 89.4434H175.231Z" fill="white"/>
<defs>
<clipPath id="clip0_2_306">
<rect width="139.742" height="116.451" fill="white" transform="translate(0.863281)"/>
</clipPath>
</defs>
</svg>
