<svg width="236" height="177" viewBox="0 0 236 177" fill="none" xmlns="http://www.w3.org/2000/svg">
<path d="M209.8 0H26.2C11.8 0 0 11.8 0 26.2V150.8C0 165.2 11.8 177 26.2 177H209.8C224.2 177 236 165.2 236 150.8V26.2C236 11.8 224.2 0 209.8 0ZM226.2 148C226.2 161.2 220.3 167.1 207.1 167.1H29C15.8 167.1 9.9 161.2 9.9 148V28.9C9.9 15.7 15.8 9.8 29 9.8H207.1C220.3 9.8 226.2 15.7 226.2 28.9V148ZM73.8 68.8L98.4 88.5L162.3 34.4L211.5 78.7V152.5H24.6V108.2L73.8 68.8ZM44.3 24.6C33.4 24.6 24.6 33.4 24.6 44.3C24.6 55.2 33.4 64 44.3 64C55.2 64 64 55.2 64 44.3C64 33.4 55.1 24.6 44.3 24.6Z" fill="white"/>
</svg>
