<svg width="578" height="120" viewBox="0 0 578 120" fill="none" xmlns="http://www.w3.org/2000/svg">
<path d="M123.961 90.0919L70.6486 118.154C68.3458 119.367 65.7825 120 63.18 120C60.5776 120 58.0142 119.367 55.7114 118.154L2.40764 90.0919C1.67101 89.7045 1.05612 89.1207 0.631211 88.405C0.206306 87.6894 -0.0120164 86.87 0.000510289 86.0379C0.0130369 85.2057 0.255907 84.3933 0.702159 83.6908C1.14841 82.9883 1.78059 82.4232 2.52853 82.0582L63.18 52.4507L123.831 82.0582C124.579 82.4232 125.212 82.9883 125.658 83.6908C126.104 84.3933 126.347 85.2057 126.359 86.0379C126.372 86.87 126.154 87.6894 125.729 88.405C125.304 89.1207 124.689 89.7045 123.952 90.0919H123.961Z" fill="url(#paint0_linear_1_7)"/>
<path d="M123.961 71.9373L70.6567 99.9997C68.3539 101.212 65.7906 101.846 63.1882 101.846C60.5857 101.846 58.0224 101.212 55.7196 99.9997L2.41579 71.9373C1.67971 71.5498 1.06535 70.9659 0.640829 70.2505C0.21631 69.5351 -0.00175946 68.7162 0.0107645 67.8844C0.0232886 67.0526 0.265912 66.2406 0.711777 65.5383C1.15764 64.8361 1.78928 64.271 2.53669 63.9058L63.1882 34.2983L123.84 63.9058C124.587 64.271 125.219 64.8361 125.665 65.5383C126.11 66.2406 126.353 67.0526 126.366 67.8844C126.378 68.7162 126.16 69.5351 125.735 70.2505C125.311 70.9659 124.697 71.5498 123.961 71.9373Z" fill="url(#paint1_linear_1_7)"/>
<path d="M123.961 53.881L70.6568 81.9434C68.354 83.1557 65.7907 83.7893 63.1882 83.7893C60.5858 83.7893 58.0224 83.1557 55.7196 81.9434L2.41585 53.881C1.67978 53.4934 1.06541 52.9096 0.640893 52.1942C0.216373 51.4788 -0.0017596 50.6598 0.0107644 49.828C0.0232884 48.9963 0.265975 48.1842 0.71184 47.4819C1.15771 46.7797 1.78934 46.2146 2.53675 45.8494L63.1882 16.242L123.84 45.8494C124.587 46.2146 125.219 46.7797 125.665 47.4819C126.11 48.1842 126.353 48.9963 126.366 49.828C126.378 50.6598 126.16 51.4788 125.735 52.1942C125.311 52.9096 124.697 53.4934 123.961 53.881Z" fill="url(#paint2_linear_1_7)"/>
<path d="M123.961 35.8392L70.6486 63.9016C68.3457 65.1138 65.7824 65.7473 63.18 65.7473C60.5776 65.7473 58.0143 65.1138 55.7114 63.9016L2.40764 35.8392C1.67101 35.4518 1.05612 34.868 0.631211 34.1524C0.206306 33.4367 -0.0120164 32.6174 0.000510289 31.7853C0.0130369 30.9531 0.255907 30.1407 0.702159 29.4382C1.14841 28.7357 1.78059 28.1706 2.52853 27.8056L56.1451 1.62594C58.3359 0.556083 60.7419 0 63.18 0C65.6181 0 68.0241 0.556083 70.2149 1.62594L123.838 27.816C124.586 28.181 125.218 28.7461 125.664 29.4486C126.11 30.1511 126.353 30.9635 126.366 31.7957C126.378 32.6278 126.16 33.4472 125.735 34.1628C125.31 34.8784 124.695 35.4623 123.959 35.8496L123.961 35.8392Z" fill="url(#paint3_linear_1_7)"/>
<path d="M242.387 29.2135V89.5417H234.103V84.2374L233.845 84.0602C233.784 84.2304 233.702 84.3928 233.603 84.5439C231.991 86.5904 229.912 88.2217 227.541 89.302C225.171 90.3822 222.576 90.8801 219.973 90.754C217.371 90.6279 214.837 89.8816 212.581 88.5772C210.326 87.2728 208.415 85.4482 207.008 83.2554C204.302 79.2724 203.023 74.4906 203.38 69.6883C203.737 64.8859 205.709 60.3458 208.975 56.8068C210.515 55.1569 212.384 53.8475 214.461 52.9627C216.537 52.0779 218.776 51.6372 221.033 51.6691C223.29 51.7009 225.516 52.2044 227.567 53.1474C229.617 54.0904 231.449 55.4519 232.942 57.1446C233.28 57.5157 233.62 57.8868 234.07 58.3956V29.2135H242.387ZM222.982 82.4172C225.2 82.398 227.363 81.7205 229.196 80.4707C231.029 79.2209 232.45 77.4551 233.278 75.397C234.106 73.3389 234.304 71.0812 233.848 68.9101C233.391 66.7391 232.301 64.7525 230.714 63.202C229.127 61.6516 227.116 60.6071 224.935 60.2011C222.754 59.7951 220.502 60.0458 218.463 60.9214C216.425 61.797 214.692 63.2581 213.485 65.1194C212.278 66.9808 211.651 69.1587 211.683 71.3769C211.734 74.3337 212.95 77.151 215.065 79.2178C217.18 81.2845 220.025 82.4341 222.982 82.4172Z" fill="#3B2A82"/>
<path d="M178.176 34.3217C186.767 52.793 195.293 71.135 203.852 89.5875H199C197.436 89.5875 195.889 89.5708 194.325 89.6042C194.143 89.6282 193.959 89.586 193.806 89.4853C193.653 89.3846 193.541 89.2322 193.491 89.0558C192.315 86.4454 191.091 83.8433 189.913 81.2224C189.844 81.0145 189.705 80.8368 189.52 80.7194C189.335 80.602 189.115 80.552 188.898 80.5781C181.725 80.5948 174.553 80.5948 167.38 80.5781C167.148 80.5508 166.913 80.6048 166.716 80.7311C166.519 80.8573 166.372 81.0478 166.3 81.2703C165.14 83.8655 163.952 86.444 162.739 89.0058C162.626 89.2477 162.322 89.5542 162.113 89.5542C158.921 89.5855 155.731 89.5854 152.395 89.5854C160.994 71.1496 169.553 52.8243 178.176 34.3217ZM185.316 71.4895L178.176 55.9372L170.956 71.4916L185.316 71.4895Z" fill="#3B2A82"/>
<path d="M295.464 42.4618C293.351 44.6532 291.273 46.8279 289.194 48.99C285.678 45.4522 280.918 43.4297 275.93 43.3546C270.943 43.2795 266.124 45.1578 262.503 48.5882C258.882 52.0185 256.747 56.729 256.552 61.713C256.358 66.697 258.12 71.5595 261.463 75.2614C263.167 77.2305 265.269 78.8159 267.631 79.9132C269.992 81.0104 272.56 81.5945 275.164 81.627C277.758 81.7253 280.343 81.2832 282.757 80.3288C285.171 79.3744 287.36 77.9285 289.186 76.083L295.486 82.5945C291.533 86.4985 286.513 89.1466 281.059 90.2059C275.605 91.2652 269.959 90.6883 264.831 88.5478C259.704 86.4073 255.323 82.7988 252.241 78.1758C249.159 73.5528 247.512 68.1218 247.508 62.5655C247.503 57.0092 249.142 51.5756 252.217 46.9478C255.292 42.3201 259.667 38.7047 264.791 36.5562C269.915 34.4077 275.56 33.8221 281.016 34.8729C286.472 35.9236 291.495 38.564 295.455 42.4618H295.464Z" fill="url(#paint4_linear_1_7)"/>
<path d="M396.955 89.5418H388.685V84.2395L388.525 84.1582C388.348 84.3667 388.17 84.5606 387.993 84.7712C386.343 86.8214 384.215 88.4347 381.796 89.4691C379.376 90.5035 376.739 90.9273 374.117 90.7031C371.909 90.5622 369.756 89.9567 367.797 88.9263C365.839 87.8958 364.12 86.4636 362.754 84.7233C360.242 81.7833 358.606 78.1969 358.034 74.3726C357.461 70.5484 357.974 66.6401 359.514 63.0932C360.357 60.7435 361.698 58.6039 363.446 56.8207C365.193 55.0375 367.305 53.653 369.637 52.7619C372.72 51.5747 376.093 51.3632 379.3 52.156C382.507 52.9489 385.393 54.7078 387.568 57.1947C387.891 57.5491 388.212 57.9035 388.665 58.4185V52.8891H396.982V89.5418H396.955ZM377.324 82.4172C379.536 82.4423 381.705 81.8123 383.559 80.6066C385.413 79.401 386.868 77.6735 387.742 75.642C388.616 73.6105 388.869 71.3658 388.47 69.1907C388.07 67.0156 387.035 65.0074 385.496 63.4192C383.957 61.831 381.983 60.7338 379.821 60.2659C377.66 59.798 375.409 59.9802 373.351 60.7897C371.293 61.5992 369.52 62.9996 368.257 64.8147C366.993 66.6297 366.295 68.7782 366.25 70.9892C366.224 72.4676 366.489 73.9367 367.032 75.3122C367.574 76.6876 368.384 77.9423 369.413 79.0042C370.442 80.0661 371.67 80.9143 373.028 81.5C374.386 82.0857 375.846 82.3974 377.324 82.4172Z" fill="url(#paint5_linear_1_7)"/>
<path d="M353.679 74.7609H325.7C325.878 75.1633 325.976 75.4865 326.136 75.7763C327.048 77.4775 328.348 78.9402 329.93 80.046C331.512 81.1519 333.332 81.8699 335.243 82.142C337.51 82.6193 339.858 82.537 342.085 81.9023C344.312 81.2676 346.351 80.0996 348.025 78.4994L353.794 84.5126C352.105 86.1783 350.142 87.5416 347.991 88.543C343.849 90.5235 339.207 91.215 334.667 90.5281C330.127 89.8411 325.898 87.8073 322.527 84.6899C320.011 82.408 318.186 79.4655 317.26 76.1973C316.334 72.9291 316.344 69.4666 317.29 66.204C318.127 62.3807 320.16 58.9234 323.094 56.3335C326.029 53.7437 329.712 52.1558 333.609 51.8003C337.507 51.4448 341.417 52.3401 344.771 54.3564C348.126 56.3727 350.751 59.4051 352.266 63.0139C353.879 66.7061 354.371 70.7913 353.679 74.7609ZM344.977 67.6052C344.394 65.4112 343.096 63.4739 341.289 62.0992C339.483 60.7245 337.27 59.9906 335 60.0135C330.6 60.222 325.909 64.0272 325.667 67.6052H344.977Z" fill="url(#paint6_linear_1_7)"/>
<path d="M485.324 74.7402C488.11 82.5569 500.424 85.3739 507.565 78.4933C509.467 80.4761 511.368 82.4736 513.335 84.5065C511.923 85.9087 510.306 87.0877 508.539 88.0031C504.18 90.3434 499.182 91.2168 494.287 90.4939C489.393 89.7709 484.861 87.49 481.365 83.9894C479.126 81.569 477.542 78.617 476.763 75.4132C475.984 72.2093 476.036 68.8597 476.914 65.6816C477.792 62.5035 479.467 59.6022 481.78 57.2526C484.093 54.903 486.968 53.1828 490.132 52.2552C494.426 51.1472 498.975 51.6184 502.951 53.5827C506.927 55.5471 510.065 58.874 511.794 62.9577C513.375 66.5456 513.882 70.5154 513.253 74.3857C513.236 74.4817 513.205 74.5796 513.172 74.7402H485.324ZM485.176 67.5844H504.534C503.999 65.4219 502.755 63.5009 501 62.1278C499.246 60.7547 497.083 60.0087 494.855 60.0087C492.627 60.0087 490.463 60.7547 488.709 62.1278C486.955 63.5009 485.711 65.4219 485.176 67.5844Z" fill="url(#paint7_linear_1_7)"/>
<path d="M478.913 52.837C472.418 65.5556 465.985 78.0929 459.505 90.7845C453.027 78.1158 446.595 65.5452 440.1 52.837H441.976C444.122 52.837 446.28 52.8682 448.423 52.8203C448.745 52.7729 449.074 52.8386 449.353 53.0063C449.632 53.1739 449.845 53.4331 449.954 53.7397C452.952 59.655 456 65.539 459.028 71.4208C459.157 71.6794 459.301 71.9212 459.495 72.2757C459.672 71.9379 459.818 71.6961 459.947 71.4417L469.134 53.5521C469.22 53.3195 469.38 53.122 469.591 52.9906C469.801 52.8593 470.049 52.8015 470.295 52.8265C473.127 52.8578 475.931 52.837 478.913 52.837Z" fill="url(#paint8_linear_1_7)"/>
<path d="M416.858 89.5397H408.518V61.2229H400.595V52.8577H408.518V48.8274C408.518 47.5763 408.502 46.2961 408.535 45.0388C408.535 44.903 408.565 44.7689 408.624 44.6462C408.682 44.5236 408.768 44.4155 408.873 44.3299C411.469 42.9913 414.085 41.6861 416.819 40.3016V52.8244H425.555V61.1645H416.844L416.858 89.5397Z" fill="url(#paint9_linear_1_7)"/>
<path d="M317.302 60.2075C316.124 59.9434 314.904 59.923 313.718 60.1474C312.531 60.3719 311.403 60.8365 310.403 61.5127C309.159 62.3488 308.152 63.4906 307.477 64.8285C306.802 66.1664 306.483 67.6554 306.55 69.1523V89.5251H298.283V52.8911H306.502V56.6296L306.679 56.7589C307.995 55.2232 309.607 53.9681 311.418 53.0684C313.242 52.1501 315.26 51.6805 317.302 51.6985V60.2075Z" fill="url(#paint10_linear_1_7)"/>
<path d="M429.156 52.8891H437.374V89.5231H429.156V52.8891Z" fill="url(#paint11_linear_1_7)"/>
<path d="M438.213 39.9327C438.208 40.9116 437.912 41.8669 437.363 42.6774C436.814 43.4879 436.036 44.1169 435.129 44.4847C434.222 44.8525 433.226 44.9424 432.267 44.743C431.309 44.5436 430.431 44.0639 429.746 43.3648C429.061 42.6657 428.599 41.7788 428.418 40.8166C428.238 39.8543 428.348 38.8603 428.734 37.9606C429.119 37.0609 429.764 36.296 430.585 35.7632C431.406 35.2305 432.368 34.9537 433.346 34.9682H433.363C434.663 34.9874 435.903 35.5203 436.812 36.4504C437.72 37.3805 438.224 38.6324 438.213 39.9327Z" fill="url(#paint12_linear_1_7)"/>
<path d="M561.144 79.7733C559.923 81.5271 558.588 83.1987 557.147 84.7774C555.261 86.6839 552.971 88.1431 550.447 89.0475C547.922 89.9519 545.226 90.2785 542.559 90.0032C539.891 89.728 537.319 88.8578 535.032 87.4568C532.746 86.0559 530.802 84.1599 529.345 81.9084C526.818 78.1627 525.613 73.6802 525.923 69.1721C526.232 64.664 528.038 60.3883 531.055 57.0235C533.007 54.8423 535.46 53.1677 538.203 52.1437C540.945 51.1196 543.896 50.7767 546.8 51.1444C549.704 51.5121 552.476 52.5794 554.877 54.2547C557.278 55.9299 559.236 58.163 560.583 60.762C560.706 61.0209 560.881 61.2516 561.098 61.4396V52.2197H564.966V88.8473H561.162V79.7733H561.144ZM545.429 86.2035C548.529 86.2019 551.559 85.2811 554.135 83.5576C556.712 81.8342 558.719 79.3854 559.904 76.521C561.088 73.6566 561.398 70.5052 560.791 67.4653C560.185 64.4254 558.691 61.6335 556.498 59.4426C554.305 57.2518 551.512 55.7604 548.472 55.157C545.431 54.5536 542.28 54.8654 539.417 56.0529C536.553 57.2403 534.106 59.2502 532.385 61.8282C530.664 64.4063 529.746 67.4369 529.748 70.5366C529.748 72.5951 530.155 74.6331 530.943 76.5345C531.732 78.4359 532.887 80.1633 534.343 81.6181C535.799 83.073 537.528 84.2267 539.43 85.0135C541.332 85.8003 543.371 86.2046 545.429 86.2035Z" fill="#3B2A82"/>
<path d="M576.229 88.9246H572.958C572.795 88.9246 572.651 88.9079 572.44 88.8912V52.228H576.212V88.9246H576.229Z" fill="#3B2A82"/>
<path d="M521.833 90.0882C520.941 90.0667 520.091 89.7038 519.458 89.0742C518.825 88.4446 518.458 87.5964 518.432 86.7042C518.435 86.2566 518.525 85.8136 518.698 85.4008C518.871 84.9881 519.125 84.6135 519.443 84.2985C519.761 83.9835 520.138 83.7343 520.552 83.565C520.966 83.3957 521.411 83.3097 521.858 83.3119C522.306 83.3141 522.749 83.4044 523.161 83.5777C523.574 83.7511 523.949 84.0041 524.264 84.3222C524.579 84.6403 524.828 85.0173 524.997 85.4318C525.167 85.8462 525.253 86.2899 525.25 86.7376C525.225 87.6297 524.855 88.4774 524.218 89.1022C523.58 89.7271 522.726 90.0805 521.833 90.0882Z" fill="#3B2A82"/>
<path d="M574.375 37.4974C575.043 37.5015 575.695 37.7036 576.249 38.078C576.802 38.4524 577.232 38.9825 577.484 39.6011C577.737 40.2198 577.799 40.8993 577.666 41.5539C577.532 42.2084 577.207 42.8087 576.733 43.2788C576.258 43.7489 575.655 44.0678 574.999 44.1951C574.343 44.3224 573.664 44.2525 573.048 43.9941C572.432 43.7358 571.906 43.3006 571.537 42.7436C571.168 42.1866 570.972 41.5328 570.975 40.8647C570.982 39.968 571.344 39.1107 571.981 38.4798C572.618 37.8489 573.479 37.4957 574.375 37.4974Z" fill="#3B2A82"/>
<defs>
<linearGradient id="paint0_linear_1_7" x1="63.18" y1="52.4507" x2="63.18" y2="120" gradientUnits="userSpaceOnUse">
<stop offset="0.001" stop-color="#8F006D"/>
<stop offset="1" stop-color="#4C00B3"/>
</linearGradient>
<linearGradient id="paint1_linear_1_7" x1="63.1882" y1="34.2983" x2="63.1882" y2="101.846" gradientUnits="userSpaceOnUse">
<stop offset="0.001" stop-color="#C8006D"/>
<stop offset="1" stop-color="#8200B3"/>
</linearGradient>
<linearGradient id="paint2_linear_1_7" x1="63.1882" y1="16.242" x2="63.1882" y2="83.7893" gradientUnits="userSpaceOnUse">
<stop offset="0.001" stop-color="#C8006D"/>
<stop offset="1" stop-color="#C5009F"/>
</linearGradient>
<linearGradient id="paint3_linear_1_7" x1="63.1831" y1="-5.12829" x2="63.1831" y2="72.3877" gradientUnits="userSpaceOnUse">
<stop offset="0.001" stop-color="#FF3067"/>
<stop offset="1" stop-color="#FF009F"/>
</linearGradient>
<linearGradient id="paint4_linear_1_7" x1="267.899" y1="47.6086" x2="328.999" y2="146.434" gradientUnits="userSpaceOnUse">
<stop offset="0.001" stop-color="#FF3067"/>
<stop offset="1" stop-color="#A5009F"/>
</linearGradient>
<linearGradient id="paint5_linear_1_7" x1="351.185" y1="5.84802" x2="398.934" y2="113.047" gradientUnits="userSpaceOnUse">
<stop offset="0.001" stop-color="#FF3067"/>
<stop offset="1" stop-color="#A5009F"/>
</linearGradient>
<linearGradient id="paint6_linear_1_7" x1="313.879" y1="23.3261" x2="365.372" y2="128.608" gradientUnits="userSpaceOnUse">
<stop offset="0.001" stop-color="#FF3067"/>
<stop offset="1" stop-color="#A5009F"/>
</linearGradient>
<linearGradient id="paint7_linear_1_7" x1="444.024" y1="-42.77" x2="495.633" y2="62.4486" gradientUnits="userSpaceOnUse">
<stop offset="0.001" stop-color="#FF3067"/>
<stop offset="1" stop-color="#A5009F"/>
</linearGradient>
<linearGradient id="paint8_linear_1_7" x1="422.052" y1="-30.9767" x2="468.227" y2="76.9366" gradientUnits="userSpaceOnUse">
<stop offset="0.001" stop-color="#FF3067"/>
<stop offset="1" stop-color="#A5009F"/>
</linearGradient>
<linearGradient id="paint9_linear_1_7" x1="381.151" y1="-9.03486" x2="463.477" y2="38.2389" gradientUnits="userSpaceOnUse">
<stop offset="0.001" stop-color="#FF3067"/>
<stop offset="1" stop-color="#A5009F"/>
</linearGradient>
<linearGradient id="paint10_linear_1_7" x1="291.683" y1="34.6001" x2="373.895" y2="81.0535" gradientUnits="userSpaceOnUse">
<stop offset="0.001" stop-color="#FF3067"/>
<stop offset="1" stop-color="#A5009F"/>
</linearGradient>
<linearGradient id="paint11_linear_1_7" x1="393.863" y1="-16.862" x2="453.09" y2="-10.1988" gradientUnits="userSpaceOnUse">
<stop offset="0.001" stop-color="#FF3067"/>
<stop offset="1" stop-color="#A5009F"/>
</linearGradient>
<linearGradient id="paint12_linear_1_7" x1="405.533" y1="-21.7173" x2="453.445" y2="84.7087" gradientUnits="userSpaceOnUse">
<stop offset="0.001" stop-color="#FF3067"/>
<stop offset="1" stop-color="#A5009F"/>
</linearGradient>
</defs>
</svg>
