<svg width="947" height="111" viewBox="0 0 947 111" fill="none" xmlns="http://www.w3.org/2000/svg">
<circle cx="847" cy="61" r="37" fill="white" fill-opacity="0.3"/>
<circle cx="847" cy="61" r="29" fill="white" fill-opacity="0.6"/>
<circle cx="847" cy="61" r="21" fill="white" fill-opacity="0.6"/>
<path d="M2.68928 24.2004C4.51252 24.2612 6.41173 24.2916 8.38691 24.2916C10.3925 24.2916 12.2157 24.2916 13.8566 24.2916C14.0086 24.2916 14.4796 24.2916 15.2697 24.2916C16.0901 24.2612 16.9713 24.246 17.9134 24.246C18.8554 24.246 19.7366 24.246 20.5571 24.246C21.4079 24.2156 21.9397 24.2004 22.1524 24.2004L40.2025 73.3368C40.2329 73.1849 40.5064 72.3948 41.0229 70.9666C41.5699 69.508 42.2536 67.6392 43.0741 65.3601C43.9249 63.0507 44.8821 60.4678 45.9457 57.6114C47.0093 54.7246 48.088 51.7922 49.182 48.8142C50.3063 45.8059 51.4002 42.8735 52.4638 40.0171C53.5274 37.1303 54.4846 34.5473 55.3354 32.2683C56.1862 29.9588 56.87 28.0748 57.3865 26.6162C57.9335 25.1576 58.2374 24.3524 58.2982 24.2004C58.4197 24.2004 58.7388 24.2004 59.2554 24.2004C59.772 24.2004 60.3797 24.2156 61.0786 24.246C61.7775 24.246 62.5068 24.2612 63.2665 24.2916C64.0566 24.2916 64.8011 24.3068 65.5 24.3372C66.1989 24.3372 66.7914 24.3372 67.2776 24.3372C67.7638 24.3372 68.0677 24.3372 68.1893 24.3372C68.9489 24.3372 69.7542 24.3372 70.6051 24.3372C71.4863 24.3372 72.3523 24.3372 73.2032 24.3372C74.0844 24.3068 74.9353 24.2916 75.7557 24.2916C76.5762 24.2612 77.3359 24.2308 78.0348 24.2004V28.713H75.2087C74.0236 28.713 73.0968 28.7889 72.4283 28.9409C71.7902 29.0624 71.3192 29.2599 71.0153 29.5334C70.7114 29.7765 70.5291 30.0956 70.4683 30.4906C70.4075 30.8857 70.3771 31.3415 70.3771 31.8581V74.4308C70.3771 75.4032 70.4379 76.1628 70.5595 76.7098C70.7114 77.2568 70.9697 77.667 71.3343 77.9405C71.699 78.1836 72.2004 78.3355 72.8385 78.3963C73.507 78.4571 74.3579 78.4875 75.3911 78.4875H78.1715V83C77.1079 83 76.0748 83 75.072 83C74.0996 82.9696 73.0816 82.9544 72.0181 82.9544C70.9849 82.9544 69.8758 82.9544 68.6906 82.9544C67.5055 82.924 66.1837 82.9088 64.7251 82.9088C63.6008 82.9088 62.598 82.924 61.7167 82.9544C60.8659 82.9544 60.0758 82.9544 59.3465 82.9544C58.6172 82.9544 57.9031 82.9696 57.2042 83C56.5357 83 55.8216 83 55.0619 83V78.4875H57.7968C59.0123 78.4875 59.9543 78.3963 60.6228 78.214C61.3217 78.0013 61.8231 77.7126 62.127 77.3479C62.4612 76.9833 62.6588 76.5579 62.7195 76.0717C62.7803 75.5551 62.8107 74.9929 62.8107 74.3852V28.3027L58.6628 39.151L42.1625 83H37.0118C35.8875 80.1132 34.7328 77.0897 33.5477 73.9294C32.3625 70.7691 31.1622 67.5784 29.9468 64.3573C28.7616 61.1059 27.5613 57.8696 26.3458 54.6486C25.1304 51.3971 23.9452 48.2368 22.7905 45.1677C21.6358 42.0986 20.5267 39.151 19.4631 36.325C18.3996 33.499 17.3968 30.8857 16.4548 28.4851V74.7498C16.4548 75.6311 16.5003 76.33 16.5915 76.8466C16.7131 77.3328 16.941 77.6974 17.2752 77.9405C17.6095 78.1836 18.0957 78.3355 18.7338 78.3963C19.3719 78.4571 20.2228 78.4875 21.2864 78.4875H24.0212V83C23.2311 83 22.4867 83 21.7877 83C21.0888 82.9696 20.3443 82.9544 19.5543 82.9544C18.7946 82.9544 17.9741 82.9544 17.0929 82.9544C16.2117 82.924 15.2089 82.9088 14.0845 82.9088C12.8691 82.9088 11.7447 82.924 10.7115 82.9544C9.67838 82.9544 8.69079 82.9544 7.74878 82.9544C6.83716 82.9544 5.94073 82.9696 5.0595 83C4.17826 83 3.28184 83 2.37021 83V78.4875H5.19624C6.56367 78.4875 7.58165 78.4115 8.25017 78.2596C8.94908 78.1076 9.43528 77.8797 9.70876 77.5759C10.0126 77.272 10.1646 76.8769 10.1646 76.3907C10.195 75.9045 10.2102 75.3272 10.2102 74.6587L10.2557 31.9948C10.2557 31.2351 10.1646 30.6426 9.98225 30.2171C9.79993 29.7613 9.51125 29.4271 9.11621 29.2144C8.75156 29.0016 8.25017 28.8649 7.61204 28.8041C7.00429 28.7434 6.2598 28.713 5.37856 28.713H2.68928V24.2004Z" fill="white"/>
<path d="M215.1 78.8521C218.23 78.8521 220.98 78.609 223.35 78.1228C225.721 77.6062 227.711 76.7554 229.321 75.5703C230.932 74.3548 232.148 72.7595 232.968 70.7843C233.788 68.7787 234.214 66.2869 234.244 63.309L239.532 64.2206L239.076 76.0717C237.253 77.6518 235.323 78.9585 233.287 79.9917C231.281 81.0248 229.215 81.8453 227.088 82.453C224.991 83.0608 222.849 83.4862 220.661 83.7293C218.504 83.9724 216.361 84.0939 214.234 84.0939C209.311 84.0939 204.981 83.3646 201.244 81.9061C197.536 80.4475 194.422 78.3963 191.899 75.7526C189.377 73.0785 187.478 69.8727 186.202 66.135C184.926 62.3974 184.287 58.2495 184.287 53.6914C184.287 49.0421 185.017 44.8487 186.475 41.111C187.934 37.343 189.985 34.1219 192.629 31.4478C195.272 28.7737 198.433 26.7226 202.11 25.2944C205.817 23.8358 209.919 23.1065 214.416 23.1065C217.85 23.1065 221.087 23.6535 224.125 24.7474C227.164 25.8414 229.808 27.3759 232.056 29.3511L232.558 24.8386H238.255V41.2022L232.968 41.111C232.786 39.0143 232.223 37.1607 231.281 35.5501C230.37 33.9396 229.139 32.6025 227.589 31.539C226.07 30.445 224.247 29.6246 222.12 29.0776C220.023 28.5306 217.683 28.2572 215.1 28.2572C211.758 28.2572 208.734 28.8497 206.03 30.0348C203.355 31.2199 201.061 32.9064 199.147 35.0943C197.263 37.2822 195.804 39.9411 194.771 43.071C193.738 46.1705 193.221 49.6499 193.221 53.5091C193.221 57.429 193.738 60.954 194.771 64.0839C195.804 67.2138 197.263 69.8727 199.147 72.0605C201.061 74.2484 203.355 75.9349 206.03 77.12C208.734 78.2748 211.758 78.8521 215.1 78.8521Z" fill="white"/>
<path d="M473.689 24.2004C475.513 24.2612 477.412 24.2916 479.387 24.2916C481.392 24.2916 483.216 24.2916 484.857 24.2916C485.009 24.2916 485.48 24.2916 486.27 24.2916C487.09 24.2612 487.971 24.246 488.913 24.246C489.855 24.246 490.737 24.246 491.557 24.246C492.408 24.2156 492.94 24.2004 493.152 24.2004L511.202 73.3368C511.233 73.1849 511.506 72.3948 512.023 70.9666C512.57 69.508 513.254 67.6392 514.074 65.3601C514.925 63.0507 515.882 60.4678 516.946 57.6114C518.009 54.7246 519.088 51.7922 520.182 48.8142C521.306 45.8059 522.4 42.8735 523.464 40.0171C524.527 37.1303 525.485 34.5473 526.335 32.2683C527.186 29.9588 527.87 28.0748 528.387 26.6162C528.934 25.1576 529.237 24.3524 529.298 24.2004C529.42 24.2004 529.739 24.2004 530.255 24.2004C530.772 24.2004 531.38 24.2156 532.079 24.246C532.778 24.246 533.507 24.2612 534.267 24.2916C535.057 24.2916 535.801 24.3068 536.5 24.3372C537.199 24.3372 537.791 24.3372 538.278 24.3372C538.764 24.3372 539.068 24.3372 539.189 24.3372C539.949 24.3372 540.754 24.3372 541.605 24.3372C542.486 24.3372 543.352 24.3372 544.203 24.3372C545.084 24.3068 545.935 24.2916 546.756 24.2916C547.576 24.2612 548.336 24.2308 549.035 24.2004V28.713H546.209C545.024 28.713 544.097 28.7889 543.428 28.9409C542.79 29.0624 542.319 29.2599 542.015 29.5334C541.711 29.7765 541.529 30.0956 541.468 30.4906C541.408 30.8857 541.377 31.3415 541.377 31.8581V74.4308C541.377 75.4032 541.438 76.1628 541.559 76.7098C541.711 77.2568 541.97 77.667 542.334 77.9405C542.699 78.1836 543.2 78.3355 543.839 78.3963C544.507 78.4571 545.358 78.4875 546.391 78.4875H549.172V83C548.108 83 547.075 83 546.072 83C545.1 82.9696 544.082 82.9544 543.018 82.9544C541.985 82.9544 540.876 82.9544 539.691 82.9544C538.506 82.924 537.184 82.9088 535.725 82.9088C534.601 82.9088 533.598 82.924 532.717 82.9544C531.866 82.9544 531.076 82.9544 530.347 82.9544C529.617 82.9544 528.903 82.9696 528.204 83C527.536 83 526.822 83 526.062 83V78.4875H528.797C530.012 78.4875 530.954 78.3963 531.623 78.214C532.322 78.0013 532.823 77.7126 533.127 77.3479C533.461 76.9833 533.659 76.5579 533.72 76.0717C533.78 75.5551 533.811 74.9929 533.811 74.3852V28.3027L529.663 39.151L513.162 83H508.012C506.887 80.1132 505.733 77.0897 504.548 73.9294C503.363 70.7691 502.162 67.5784 500.947 64.3573C499.762 61.1059 498.561 57.8696 497.346 54.6486C496.13 51.3971 494.945 48.2368 493.791 45.1677C492.636 42.0986 491.527 39.151 490.463 36.325C489.4 33.499 488.397 30.8857 487.455 28.4851V74.7498C487.455 75.6311 487.5 76.33 487.592 76.8466C487.713 77.3328 487.941 77.6974 488.275 77.9405C488.609 78.1836 489.096 78.3355 489.734 78.3963C490.372 78.4571 491.223 78.4875 492.286 78.4875H495.021V83C494.231 83 493.487 83 492.788 83C492.089 82.9696 491.344 82.9544 490.554 82.9544C489.795 82.9544 488.974 82.9544 488.093 82.9544C487.212 82.924 486.209 82.9088 485.085 82.9088C483.869 82.9088 482.745 82.924 481.712 82.9544C480.678 82.9544 479.691 82.9544 478.749 82.9544C477.837 82.9544 476.941 82.9696 476.059 83C475.178 83 474.282 83 473.37 83V78.4875H476.196C477.564 78.4875 478.582 78.4115 479.25 78.2596C479.949 78.1076 480.435 77.8797 480.709 77.5759C481.013 77.272 481.165 76.8769 481.165 76.3907C481.195 75.9045 481.21 75.3272 481.21 74.6587L481.256 31.9948C481.256 31.2351 481.165 30.6426 480.982 30.2171C480.8 29.7613 480.511 29.4271 480.116 29.2144C479.752 29.0016 479.25 28.8649 478.612 28.8041C478.004 28.7434 477.26 28.713 476.379 28.713H473.689V24.2004Z" fill="#EB1F15"/>
<path d="M82.9042 36.8762C83.7816 36.9136 84.547 36.9416 85.2004 36.9602C85.8538 36.9602 86.5072 36.9602 87.1606 36.9602C88.8035 36.9602 90.185 36.9602 91.3051 36.9602C92.4439 36.9416 93.396 36.9322 94.1614 36.9322C94.9455 36.9136 95.5895 36.9042 96.0936 36.9042C96.6163 36.8856 97.1017 36.8762 97.5497 36.8762V39.6485H96.1776C95.3375 39.6485 94.6841 39.6952 94.2174 39.7885C93.7507 39.8819 93.4053 40.0219 93.1813 40.2086C92.9759 40.3766 92.8546 40.5819 92.8172 40.8246C92.7799 41.0673 92.7612 41.3287 92.7612 41.6087V68.4635C92.7612 68.8182 92.7799 69.1076 92.8172 69.3316C92.8546 69.5556 92.9759 69.733 93.1813 69.8637C93.3866 69.9944 93.7227 70.0877 94.1894 70.1437C94.6561 70.1997 95.3188 70.2277 96.1776 70.2277H97.5497V73C96.971 73 96.4109 73 95.8696 73C95.3468 72.9813 94.7961 72.972 94.2174 72.972C93.6573 72.972 93.0506 72.972 92.3972 72.972C91.7438 72.9533 91.0064 72.944 90.185 72.944C88.6915 72.944 87.3753 72.9533 86.2365 72.972C85.1164 72.9907 84.0056 73 82.9042 73V70.2277H84.2483C85.1071 70.2277 85.7605 70.181 86.2085 70.0877C86.6753 69.9944 87.0113 69.8637 87.2167 69.6957C87.4407 69.509 87.5714 69.2943 87.6087 69.0516C87.646 68.8089 87.6647 68.5475 87.6647 68.2675V41.8047C87.6647 41.394 87.6367 41.0487 87.5807 40.7686C87.5434 40.4886 87.4127 40.2646 87.1886 40.0966C86.9833 39.9285 86.6473 39.8165 86.1805 39.7605C85.7325 39.6858 85.0884 39.6485 84.2483 39.6485H82.9042V36.8762ZM100.602 36.8762C100.602 36.8762 100.714 36.8762 100.938 36.8762C101.162 36.8762 101.451 36.8762 101.806 36.8762C102.161 36.8762 102.544 36.8762 102.954 36.8762C103.384 36.8762 103.794 36.8856 104.186 36.9042C104.578 36.9042 104.933 36.9042 105.251 36.9042C105.568 36.9042 105.792 36.9042 105.923 36.9042C106.296 36.9042 106.716 36.9042 107.183 36.9042C107.649 36.9042 108.126 36.9042 108.611 36.9042C109.115 36.8856 109.61 36.8762 110.095 36.8762C110.58 36.8762 111.019 36.8762 111.411 36.8762L130.061 67.7635H130.117V41.6647C130.117 41.1793 130.061 40.806 129.949 40.5446C129.837 40.2646 129.65 40.0592 129.389 39.9285C129.128 39.7979 128.764 39.7232 128.297 39.7045C127.849 39.6672 127.28 39.6485 126.589 39.6485H125.133V36.8762C126.607 36.8762 127.849 36.8949 128.857 36.9322C129.865 36.9509 130.78 36.9602 131.601 36.9602C131.695 36.9602 131.872 36.9602 132.133 36.9602C132.395 36.9602 132.693 36.9602 133.029 36.9602C133.384 36.9602 133.767 36.9602 134.178 36.9602C134.607 36.9416 135.027 36.9322 135.438 36.9322C136.408 36.9136 137.482 36.8949 138.658 36.8762V39.6485H136.894C136.166 39.6485 135.596 39.6952 135.186 39.7885C134.794 39.8632 134.504 39.9845 134.318 40.1526C134.131 40.3206 134.019 40.5259 133.982 40.7686C133.944 41.0113 133.926 41.2914 133.926 41.6087C133.926 41.6087 133.926 41.8141 133.926 42.2248C133.926 42.6168 133.916 43.1862 133.898 43.933C133.898 44.661 133.898 45.5385 133.898 46.5652C133.898 47.592 133.898 48.7121 133.898 49.9256V65.1312C133.898 67.8755 133.907 70.5917 133.926 73.28H128.493L109.227 41.5247H109.171V68.0995C109.171 68.6222 109.218 69.0329 109.311 69.3316C109.423 69.6116 109.61 69.817 109.871 69.9477C110.132 70.0784 110.487 70.1624 110.935 70.1997C111.402 70.2184 111.999 70.2277 112.727 70.2277H114.239V73C113.735 73 113.25 73 112.783 73C112.317 72.9813 111.831 72.972 111.327 72.972C110.842 72.972 110.319 72.972 109.759 72.972C109.199 72.9533 108.564 72.944 107.855 72.944C107.089 72.944 106.38 72.9533 105.727 72.972C105.092 72.972 104.476 72.972 103.878 72.972C103.3 72.972 102.721 72.9813 102.142 73C101.582 73 101.013 73 100.434 73V70.2277H102.226C103.01 70.2277 103.617 70.1904 104.046 70.1157C104.476 70.041 104.784 69.9103 104.971 69.7237C105.176 69.537 105.288 69.3036 105.307 69.0236C105.344 68.7249 105.363 68.3608 105.363 67.9315V41.9448C105.363 41.3847 105.325 40.9553 105.251 40.6566C105.176 40.3393 105.027 40.1059 104.802 39.9565C104.597 39.8072 104.289 39.7232 103.878 39.7045C103.486 39.6672 102.964 39.6485 102.31 39.6485H100.574C100.574 39.4805 100.574 39.2751 100.574 39.0324C100.574 38.7898 100.574 38.5377 100.574 38.2764C100.593 38.015 100.602 37.763 100.602 37.5203C100.602 37.2589 100.602 37.0442 100.602 36.8762ZM155.6 36.8762C163.067 36.8762 168.687 38.3324 172.458 41.2447C176.229 44.1383 178.114 48.5721 178.114 54.5461C178.114 57.6451 177.675 60.352 176.798 62.6669C175.939 64.9632 174.604 66.8767 172.794 68.4075C170.983 69.9383 168.677 71.0865 165.877 71.8519C163.095 72.6173 159.772 73 155.908 73H141.15V70.2277H142.97C143.755 70.2277 144.352 70.1717 144.763 70.0597C145.192 69.9477 145.5 69.789 145.687 69.5836C145.892 69.3596 146.013 69.0889 146.051 68.7716C146.088 68.4355 146.107 68.0528 146.107 67.6234C146.107 67.6234 146.107 67.2594 146.107 66.5313C146.107 65.7846 146.097 64.8138 146.079 63.619C146.079 62.4056 146.079 61.0334 146.079 59.5026C146.079 57.9531 146.079 56.3756 146.079 54.7701V41.9728C146.079 41.4127 146.013 40.9833 145.883 40.6846C145.752 40.3673 145.5 40.1339 145.127 39.9845C144.772 39.8165 144.268 39.7139 143.615 39.6765C142.98 39.6392 142.158 39.6205 141.15 39.6205V36.8762H155.6ZM151.203 69.8917H156.944C159.464 69.8917 161.695 69.6023 163.637 69.0236C165.597 68.4449 167.24 67.5394 168.565 66.3073C169.909 65.0752 170.927 63.4977 171.617 61.5748C172.308 59.6519 172.654 57.3464 172.654 54.6581C172.654 52.1565 172.308 49.9816 171.617 48.1334C170.945 46.2852 169.947 44.7544 168.621 43.5409C167.296 42.3275 165.653 41.422 163.693 40.8246C161.751 40.2272 159.511 39.9285 156.972 39.9285H151.203V69.8917Z" fill="white"/>
<path d="M265.422 36.1761C268.241 36.1761 270.789 36.6335 273.067 37.5483C275.363 38.4444 277.305 39.7139 278.892 41.3567C280.497 42.9995 281.729 44.9691 282.588 47.2653C283.465 49.5615 283.904 52.1098 283.904 54.9101C283.904 57.6917 283.475 60.2307 282.616 62.5269C281.757 64.8231 280.534 66.802 278.948 68.4635C277.361 70.1064 275.438 71.3852 273.179 72.2999C270.92 73.2147 268.4 73.6721 265.618 73.6721C262.725 73.6721 260.12 73.224 257.805 72.3279C255.509 71.4318 253.549 70.1717 251.925 68.5475C250.319 66.9047 249.087 64.9352 248.228 62.6389C247.37 60.324 246.94 57.7477 246.94 54.9101C246.94 52.1098 247.37 49.5615 248.228 47.2653C249.087 44.9504 250.31 42.9809 251.897 41.3567C253.502 39.7139 255.444 38.4444 257.721 37.5483C260.018 36.6335 262.585 36.1761 265.422 36.1761ZM265.394 39.3405C263.378 39.3405 261.567 39.7045 259.962 40.4326C258.356 41.1607 256.993 42.1968 255.873 43.5409C254.772 44.8851 253.922 46.5186 253.325 48.4414C252.728 50.3643 252.429 52.5112 252.429 54.8821C252.429 57.2717 252.728 59.4279 253.325 61.3508C253.922 63.2736 254.781 64.9072 255.901 66.2513C257.021 67.5954 258.384 68.6315 259.99 69.3596C261.595 70.069 263.397 70.4237 265.394 70.4237C267.41 70.4237 269.212 70.069 270.799 69.3596C272.404 68.6315 273.767 67.5954 274.887 66.2513C276.007 64.9072 276.866 63.283 277.464 61.3788C278.061 59.4559 278.36 57.2997 278.36 54.9101C278.36 52.5019 278.061 50.3363 277.464 48.4134C276.866 46.4906 276.007 44.8571 274.887 43.5129C273.767 42.1688 272.404 41.142 270.799 40.4326C269.212 39.7045 267.41 39.3405 265.394 39.3405ZM288.021 36.8762C288.021 36.8762 288.133 36.8762 288.357 36.8762C288.581 36.8762 288.87 36.8762 289.225 36.8762C289.579 36.8762 289.962 36.8762 290.373 36.8762C290.802 36.8762 291.213 36.8856 291.605 36.9042C291.997 36.9042 292.352 36.9042 292.669 36.9042C292.986 36.9042 293.21 36.9042 293.341 36.9042C293.715 36.9042 294.135 36.9042 294.601 36.9042C295.068 36.9042 295.544 36.9042 296.029 36.9042C296.533 36.8856 297.028 36.8762 297.514 36.8762C297.999 36.8762 298.438 36.8762 298.83 36.8762L317.48 67.7635H317.536V41.6647C317.536 41.1793 317.48 40.806 317.368 40.5446C317.256 40.2646 317.069 40.0592 316.808 39.9285C316.546 39.7979 316.182 39.7232 315.716 39.7045C315.267 39.6672 314.698 39.6485 314.007 39.6485H312.551V36.8762C314.026 36.8762 315.267 36.8949 316.276 36.9322C317.284 36.9509 318.198 36.9602 319.02 36.9602C319.113 36.9602 319.291 36.9602 319.552 36.9602C319.813 36.9602 320.112 36.9602 320.448 36.9602C320.803 36.9602 321.185 36.9602 321.596 36.9602C322.025 36.9416 322.446 36.9322 322.856 36.9322C323.827 36.9136 324.9 36.8949 326.077 36.8762V39.6485H324.312C323.584 39.6485 323.015 39.6952 322.604 39.7885C322.212 39.8632 321.923 39.9845 321.736 40.1526C321.549 40.3206 321.437 40.5259 321.4 40.7686C321.363 41.0113 321.344 41.2914 321.344 41.6087C321.344 41.6087 321.344 41.8141 321.344 42.2248C321.344 42.6168 321.335 43.1862 321.316 43.933C321.316 44.661 321.316 45.5385 321.316 46.5652C321.316 47.592 321.316 48.7121 321.316 49.9256V65.1312C321.316 67.8755 321.325 70.5917 321.344 73.28H315.912L296.646 41.5247H296.59V68.0995C296.59 68.6222 296.636 69.0329 296.73 69.3316C296.842 69.6116 297.028 69.817 297.29 69.9477C297.551 70.0784 297.906 70.1624 298.354 70.1997C298.82 70.2184 299.418 70.2277 300.146 70.2277H301.658V73C301.154 73 300.669 73 300.202 73C299.735 72.9813 299.25 72.972 298.746 72.972C298.26 72.972 297.738 72.972 297.178 72.972C296.618 72.9533 295.983 72.944 295.273 72.944C294.508 72.944 293.799 72.9533 293.145 72.972C292.51 72.972 291.894 72.972 291.297 72.972C290.718 72.972 290.139 72.9813 289.561 73C289.001 73 288.431 73 287.853 73V70.2277H289.645C290.429 70.2277 291.036 70.1904 291.465 70.1157C291.894 70.041 292.202 69.9103 292.389 69.7237C292.594 69.537 292.706 69.3036 292.725 69.0236C292.762 68.7249 292.781 68.3608 292.781 67.9315V41.9448C292.781 41.3847 292.744 40.9553 292.669 40.6566C292.594 40.3393 292.445 40.1059 292.221 39.9565C292.016 39.8072 291.708 39.7232 291.297 39.7045C290.905 39.6672 290.382 39.6485 289.729 39.6485H287.993C287.993 39.4805 287.993 39.2751 287.993 39.0324C287.993 38.7898 287.993 38.5377 287.993 38.2764C288.011 38.015 288.021 37.763 288.021 37.5203C288.021 37.2589 288.021 37.0442 288.021 36.8762ZM328.485 36.8762C328.485 36.8762 328.7 36.8856 329.129 36.9042C329.577 36.9042 330.146 36.9042 330.837 36.9042C331.546 36.9042 332.331 36.9136 333.189 36.9322C334.048 36.9322 334.888 36.9322 335.71 36.9322C336.55 36.9322 337.315 36.9322 338.006 36.9322C338.715 36.9322 339.275 36.9322 339.686 36.9322H350.495C351.13 36.9322 351.867 36.9322 352.707 36.9322C353.566 36.9136 354.434 36.9042 355.312 36.9042C356.189 36.9042 357.038 36.9042 357.86 36.9042C358.7 36.8856 359.437 36.8762 360.072 36.8762V47.6854H357.104V41.9167C357.104 41.5247 357.076 41.2073 357.02 40.9646C356.964 40.722 356.786 40.5353 356.488 40.4046C356.208 40.2739 355.76 40.1899 355.144 40.1526C354.528 40.0966 353.659 40.0686 352.539 40.0686H346.883V68.6035C346.883 68.9209 346.901 69.1823 346.939 69.3876C346.976 69.593 347.107 69.761 347.331 69.8917C347.555 70.0037 347.9 70.0877 348.367 70.1437C348.834 70.1997 349.496 70.2277 350.355 70.2277H351.923V73C351.382 73 350.85 73 350.327 73C349.804 73 349.254 73 348.675 73C348.115 73 347.508 73 346.855 73C346.22 72.9813 345.511 72.9627 344.727 72.944C344.652 72.944 344.447 72.944 344.11 72.944C343.774 72.944 343.364 72.9533 342.878 72.972C342.412 72.972 341.889 72.972 341.31 72.972C340.75 72.972 340.181 72.9813 339.602 73C339.042 73 338.51 73 338.006 73C337.502 73 337.082 73 336.746 73V70.2277H338.286C339.163 70.2277 339.835 70.181 340.302 70.0877C340.787 69.9757 341.133 69.8357 341.338 69.6677C341.562 69.481 341.693 69.2756 341.73 69.0516C341.768 68.8089 341.786 68.5569 341.786 68.2955V40.0686H335.71C334.664 40.0686 333.852 40.1059 333.273 40.1806C332.695 40.2366 332.265 40.3299 331.985 40.4606C331.705 40.5726 331.537 40.7313 331.481 40.9366C331.425 41.1233 331.397 41.3474 331.397 41.6087C331.397 42.0381 331.397 42.5141 331.397 43.0369C331.397 43.5409 331.397 44.0636 331.397 44.605C331.416 45.1464 331.425 45.6878 331.425 46.2292C331.425 46.7519 331.425 47.2373 331.425 47.6854H328.485V36.8762ZM389.643 63.227C389.923 64.4591 390.185 65.5232 390.427 66.4193C390.67 67.3154 390.931 68.0528 391.211 68.6315C391.491 69.1916 391.809 69.6116 392.163 69.8917C392.518 70.1717 392.957 70.3117 393.48 70.3117C393.76 70.3117 394.04 70.2837 394.32 70.2277C394.6 70.153 394.852 70.0224 395.076 69.8357C395.3 69.6303 395.477 69.3503 395.608 68.9956C395.757 68.6409 395.832 68.1835 395.832 67.6234L398.66 67.3714C398.66 69.3129 398.128 70.8531 397.064 71.9919C396 73.112 394.497 73.6721 392.556 73.6721C391.193 73.6721 390.073 73.392 389.195 72.832C388.318 72.2719 387.58 71.4878 386.983 70.4797C386.386 69.4716 385.863 68.2675 385.415 66.8674C384.985 65.4672 384.537 63.9177 384.071 62.2189C383.735 61.0054 383.287 59.9226 382.727 58.9705C382.166 58.0184 381.625 57.1597 381.102 56.3943C380.542 56.1889 379.889 56.0396 379.142 55.9462C378.395 55.8529 377.546 55.8062 376.594 55.8062H372.897V68.7716C372.897 69.1449 372.953 69.4343 373.065 69.6396C373.178 69.8263 373.364 69.9663 373.626 70.0597C373.906 70.1344 374.27 70.181 374.718 70.1997C375.184 70.2184 375.754 70.2277 376.426 70.2277H377.882V73C377.322 73 376.771 73 376.23 73C375.688 73 375.128 73 374.55 73C373.99 73 373.383 73 372.729 73C372.095 72.9813 371.395 72.9627 370.629 72.944C369.808 72.944 369.042 72.9533 368.333 72.972C367.624 72.972 366.952 72.972 366.317 72.972C365.682 72.972 365.066 72.9813 364.469 73C363.871 73 363.274 73 362.676 73V70.2277H364.077C365.01 70.2277 365.729 70.1904 366.233 70.1157C366.737 70.041 367.101 69.929 367.325 69.7797C367.568 69.6303 367.708 69.4436 367.745 69.2196C367.782 68.9956 367.801 68.7342 367.801 68.4355V41.4407C367.801 41.0113 367.764 40.6753 367.689 40.4326C367.614 40.1899 367.409 40.0125 367.073 39.9005C366.737 39.7885 366.223 39.7232 365.533 39.7045C364.861 39.6672 363.909 39.6485 362.676 39.6485V36.8762H378.106C380.141 36.8762 382.036 37.0069 383.791 37.2683C385.564 37.511 387.095 37.9777 388.383 38.6684C389.671 39.3405 390.679 40.2832 391.407 41.4967C392.154 42.7102 392.528 44.269 392.528 46.1732C392.528 48.4134 391.837 50.2803 390.455 51.7738C389.093 53.2673 387.142 54.2847 384.603 54.8261C385.163 55.2555 385.685 55.7129 386.171 56.1982C386.656 56.665 387.114 57.225 387.543 57.8784C387.972 58.5132 388.355 59.2692 388.691 60.1467C389.046 61.0054 389.363 62.0322 389.643 63.227ZM372.897 53.0899H379.002C380.514 53.0899 381.802 52.9686 382.867 52.7259C383.949 52.4832 384.827 52.1005 385.499 51.5778C386.171 51.055 386.666 50.3736 386.983 49.5335C387.3 48.6935 387.459 47.676 387.459 46.4812C387.459 45.1184 387.235 44.0076 386.787 43.1489C386.339 42.2901 385.676 41.6274 384.799 41.1607C383.94 40.6753 382.876 40.3486 381.606 40.1806C380.337 39.9939 378.881 39.9005 377.238 39.9005H372.897V53.0899ZM419.102 36.1761C421.921 36.1761 424.47 36.6335 426.747 37.5483C429.043 38.4444 430.985 39.7139 432.572 41.3567C434.177 42.9995 435.409 44.9691 436.268 47.2653C437.146 49.5615 437.584 52.1098 437.584 54.9101C437.584 57.6917 437.155 60.2307 436.296 62.5269C435.437 64.8231 434.215 66.802 432.628 68.4635C431.041 70.1064 429.118 71.3852 426.859 72.2999C424.6 73.2147 422.08 73.6721 419.298 73.6721C416.405 73.6721 413.8 73.224 411.486 72.3279C409.189 71.4318 407.229 70.1717 405.605 68.5475C403.999 66.9047 402.767 64.9352 401.909 62.6389C401.05 60.324 400.62 57.7477 400.62 54.9101C400.62 52.1098 401.05 49.5615 401.909 47.2653C402.767 44.9504 403.99 42.9809 405.577 41.3567C407.182 39.7139 409.124 38.4444 411.402 37.5483C413.698 36.6335 416.265 36.1761 419.102 36.1761ZM419.074 39.3405C417.058 39.3405 415.247 39.7045 413.642 40.4326C412.036 41.1607 410.673 42.1968 409.553 43.5409C408.452 44.8851 407.602 46.5186 407.005 48.4414C406.408 50.3643 406.109 52.5112 406.109 54.8821C406.109 57.2717 406.408 59.4279 407.005 61.3508C407.602 63.2736 408.461 64.9072 409.581 66.2513C410.701 67.5954 412.064 68.6315 413.67 69.3596C415.275 70.069 417.077 70.4237 419.074 70.4237C421.091 70.4237 422.892 70.069 424.479 69.3596C426.084 68.6315 427.447 67.5954 428.567 66.2513C429.687 64.9072 430.546 63.283 431.144 61.3788C431.741 59.4559 432.04 57.2997 432.04 54.9101C432.04 52.5019 431.741 50.3363 431.144 48.4134C430.546 46.4906 429.687 44.8571 428.567 43.5129C427.447 42.1688 426.084 41.142 424.479 40.4326C422.892 39.7045 421.091 39.3405 419.074 39.3405ZM442.037 36.8762C443.287 36.9322 444.669 36.9602 446.181 36.9602C447.992 36.9602 449.775 36.9602 451.53 36.9602C453.303 36.9602 455.179 36.9322 457.158 36.8762V39.6485H455.17C454.405 39.6485 453.817 39.7139 453.406 39.8445C452.995 39.9752 452.687 40.1526 452.482 40.3766C452.295 40.5819 452.183 40.834 452.146 41.1327C452.108 41.4127 452.09 41.7114 452.09 42.0288V69.8077H464.831C465.279 69.8077 465.625 69.6023 465.867 69.1916C466.11 68.7809 466.287 68.1835 466.399 67.3994C466.511 66.6153 466.577 65.6632 466.595 64.5431C466.614 63.4043 466.623 62.1162 466.623 60.6787H469.844V73H442.037V70.2277H443.465C444.342 70.2277 445.014 70.1624 445.481 70.0317C445.966 69.901 446.312 69.7143 446.517 69.4716C446.741 69.2289 446.872 68.9582 446.909 68.6595C446.947 68.3422 446.965 67.9968 446.965 67.6234V42.3368C446.965 42.1874 446.965 42.0381 446.965 41.8887C446.984 41.7394 446.993 41.59 446.993 41.4407C446.993 41.1607 446.956 40.9086 446.881 40.6846C446.825 40.4606 446.676 40.2739 446.433 40.1246C446.19 39.9752 445.836 39.8632 445.369 39.7885C444.902 39.6952 444.268 39.6485 443.465 39.6485H442.037V36.8762Z" fill="white"/>
<path d="M574.682 36.8762C574.682 36.8762 574.841 37.2963 575.158 38.1364C575.476 38.9764 575.896 40.0872 576.419 41.4687C576.941 42.8502 577.539 44.4277 578.211 46.2012C578.901 47.956 579.592 49.7669 580.283 51.6338C580.992 53.482 581.683 55.2928 582.355 57.0663C583.046 58.8399 583.662 60.436 584.203 61.8548C584.745 63.255 585.183 64.4031 585.52 65.2992C585.856 66.1766 586.033 66.6433 586.052 66.6993C586.388 67.5768 586.658 68.2582 586.864 68.7436C587.088 69.2103 587.358 69.5556 587.676 69.7797C587.993 70.0037 588.422 70.1437 588.964 70.1997C589.524 70.237 590.308 70.2557 591.316 70.2557V73C590.271 73 589.235 72.9907 588.208 72.972C587.181 72.9533 586.117 72.944 585.015 72.944C584.418 72.944 583.839 72.944 583.279 72.944C582.719 72.944 582.14 72.944 581.543 72.944C580.946 72.944 580.311 72.9533 579.639 72.972C578.967 72.972 578.211 72.9813 577.371 73C577.371 72.8507 577.361 72.6266 577.343 72.3279C577.343 72.0106 577.343 71.7025 577.343 71.4038V70.3117C578.201 70.3117 578.901 70.3117 579.443 70.3117C579.984 70.2931 580.414 70.265 580.731 70.2277C581.048 70.1717 581.263 70.097 581.375 70.0037C581.506 69.8917 581.571 69.7423 581.571 69.5556C581.534 69.4623 581.506 69.341 581.487 69.1916C581.468 69.0423 581.431 68.8649 581.375 68.6595L578.407 59.7546H563.761C563.743 59.792 563.659 60.0346 563.509 60.4827C563.36 60.9121 563.173 61.4535 562.949 62.1069C562.725 62.7416 562.482 63.4323 562.221 64.1791C561.96 64.9258 561.708 65.6259 561.465 66.2793C561.241 66.914 561.054 67.4554 560.905 67.9035C560.756 68.3328 560.681 68.5569 560.681 68.5755C560.494 69.0423 560.401 69.3783 560.401 69.5836C560.401 69.9383 560.588 70.153 560.961 70.2277C561.353 70.3024 561.997 70.3397 562.893 70.3397H564.909V73C563.864 73 562.818 72.9907 561.773 72.972C560.746 72.9533 559.701 72.944 558.637 72.944C558.077 72.944 557.535 72.944 557.013 72.944C556.508 72.944 555.986 72.944 555.444 72.944C554.903 72.944 554.324 72.9533 553.708 72.972C553.111 72.972 552.439 72.9813 551.692 73V70.2277C552.625 70.209 553.353 70.1904 553.876 70.1717C554.418 70.153 554.838 70.0784 555.136 69.9477C555.435 69.817 555.659 69.621 555.808 69.3596C555.976 69.0983 556.154 68.7156 556.34 68.2115C556.359 68.1555 556.471 67.8568 556.676 67.3154C556.901 66.7553 557.181 66.0273 557.517 65.1312C557.871 64.2351 558.273 63.199 558.721 62.0229C559.169 60.8281 559.645 59.5679 560.149 58.2425C560.672 56.917 561.194 55.5635 561.717 54.182C562.258 52.7819 562.781 51.4191 563.285 50.0936C563.789 48.7681 564.265 47.5173 564.713 46.3412C565.18 45.1464 565.581 44.101 565.917 43.2049C566.272 42.3088 566.552 41.59 566.758 41.0487C566.963 40.4886 567.075 40.1806 567.094 40.1246L568.214 36.8762H574.682ZM564.825 56.9263H577.371L571.098 39.5085L564.825 56.9263ZM619.011 63.227C619.291 64.4591 619.552 65.5232 619.795 66.4193C620.038 67.3154 620.299 68.0528 620.579 68.6315C620.859 69.1916 621.177 69.6116 621.531 69.8917C621.886 70.1717 622.325 70.3117 622.847 70.3117C623.127 70.3117 623.407 70.2837 623.687 70.2277C623.968 70.153 624.22 70.0224 624.444 69.8357C624.668 69.6303 624.845 69.3503 624.976 68.9956C625.125 68.6409 625.2 68.1835 625.2 67.6234L628.028 67.3714C628.028 69.3129 627.496 70.8531 626.432 71.9919C625.368 73.112 623.865 73.6721 621.923 73.6721C620.561 73.6721 619.44 73.392 618.563 72.832C617.686 72.2719 616.948 71.4878 616.351 70.4797C615.753 69.4716 615.231 68.2675 614.783 66.8674C614.353 65.4672 613.905 63.9177 613.438 62.2189C613.102 61.0054 612.654 59.9226 612.094 58.9705C611.534 58.0184 610.993 57.1597 610.47 56.3943C609.91 56.1889 609.257 56.0396 608.51 55.9462C607.763 55.8529 606.914 55.8062 605.962 55.8062H602.265V68.7716C602.265 69.1449 602.321 69.4343 602.433 69.6396C602.545 69.8263 602.732 69.9663 602.993 70.0597C603.273 70.1344 603.637 70.181 604.085 70.1997C604.552 70.2184 605.122 70.2277 605.794 70.2277H607.25V73C606.69 73 606.139 73 605.598 73C605.056 73 604.496 73 603.917 73C603.357 73 602.751 73 602.097 73C601.463 72.9813 600.762 72.9627 599.997 72.944C599.176 72.944 598.41 72.9533 597.701 72.972C596.991 72.972 596.319 72.972 595.685 72.972C595.05 72.972 594.434 72.9813 593.836 73C593.239 73 592.642 73 592.044 73V70.2277H593.444C594.378 70.2277 595.097 70.1904 595.601 70.1157C596.105 70.041 596.469 69.929 596.693 69.7797C596.935 69.6303 597.075 69.4436 597.113 69.2196C597.15 68.9956 597.169 68.7342 597.169 68.4355V41.4407C597.169 41.0113 597.131 40.6753 597.057 40.4326C596.982 40.1899 596.777 40.0125 596.441 39.9005C596.105 39.7885 595.591 39.7232 594.9 39.7045C594.228 39.6672 593.276 39.6485 592.044 39.6485V36.8762H607.474C609.509 36.8762 611.404 37.0069 613.158 37.2683C614.932 37.511 616.463 37.9777 617.751 38.6684C619.039 39.3405 620.047 40.2832 620.775 41.4967C621.522 42.7102 621.895 44.269 621.895 46.1732C621.895 48.4134 621.205 50.2803 619.823 51.7738C618.46 53.2673 616.509 54.2847 613.97 54.8261C614.531 55.2555 615.053 55.7129 615.539 56.1982C616.024 56.665 616.481 57.225 616.911 57.8784C617.34 58.5132 617.723 59.2692 618.059 60.1467C618.414 61.0054 618.731 62.0322 619.011 63.227ZM602.265 53.0899H608.37C609.882 53.0899 611.17 52.9686 612.234 52.7259C613.317 52.4832 614.195 52.1005 614.867 51.5778C615.539 51.055 616.033 50.3736 616.351 49.5335C616.668 48.6935 616.827 47.676 616.827 46.4812C616.827 45.1184 616.603 44.0076 616.155 43.1489C615.707 42.2901 615.044 41.6274 614.167 41.1607C613.308 40.6753 612.244 40.3486 610.974 40.1806C609.705 39.9939 608.249 39.9005 606.606 39.9005H602.265V53.0899ZM652.138 41.2727C652.811 40.6566 653.147 40.2459 653.147 40.0406C653.147 39.8352 652.96 39.7232 652.587 39.7045C652.213 39.6672 651.718 39.6485 651.102 39.6485H649.674V36.8762C650.29 36.9136 651 36.9416 651.802 36.9602C652.624 36.9602 653.436 36.9602 654.239 36.9602C654.668 36.9602 655.088 36.9602 655.499 36.9602C655.91 36.9416 656.302 36.9322 656.675 36.9322L662.892 36.8762V39.6485C662.444 39.6485 662.042 39.6485 661.687 39.6485C661.351 39.6298 661.043 39.6205 660.763 39.6205C660.297 39.6205 659.895 39.6578 659.559 39.7325C659.223 39.7885 658.859 39.9192 658.467 40.1246C658.094 40.3299 657.646 40.6379 657.123 41.0487C656.619 41.4594 655.966 42.0101 655.163 42.7008L643.262 53.2299L657.963 68.6595C658.355 69.0889 658.71 69.4156 659.027 69.6396C659.345 69.845 659.699 69.9944 660.091 70.0877C660.483 70.1624 660.95 70.209 661.491 70.2277C662.052 70.2277 662.77 70.2277 663.648 70.2277V73C662.658 73 661.519 72.9907 660.231 72.972C658.962 72.9533 657.627 72.944 656.227 72.944C655.573 72.944 654.911 72.9533 654.239 72.972C653.567 72.972 652.913 72.972 652.278 72.972C651.644 72.972 651.037 72.9813 650.458 73C649.898 73 649.394 73 648.946 73V70.2277H651.97C652.456 70.2277 652.811 70.2184 653.035 70.1997C653.259 70.181 653.371 70.1064 653.371 69.9757C653.371 69.8637 653.296 69.7143 653.147 69.5276C653.016 69.341 652.792 69.0796 652.475 68.7436L640.013 55.5542L638.165 57.0943V68.4075C638.165 68.7436 638.174 69.0329 638.193 69.2756C638.23 69.4996 638.352 69.6863 638.557 69.8357C638.781 69.9663 639.117 70.069 639.565 70.1437C640.032 70.1997 640.695 70.2277 641.553 70.2277H642.954V73C641.964 73 640.844 72.9907 639.593 72.972C638.342 72.9533 637.017 72.944 635.617 72.944C634.329 72.944 633.022 72.9533 631.696 72.972C630.39 72.9907 629.26 73 628.308 73V70.2277H629.68C630.52 70.2277 631.164 70.181 631.612 70.0877C632.079 69.9757 632.415 69.8357 632.62 69.6677C632.844 69.4996 632.975 69.3036 633.012 69.0796C633.05 68.8369 633.068 68.5849 633.068 68.3235V41.7487C633.068 41.3567 633.04 41.03 632.984 40.7686C632.947 40.5073 632.816 40.2926 632.592 40.1246C632.387 39.9565 632.051 39.8352 631.584 39.7605C631.136 39.6858 630.502 39.6485 629.68 39.6485H628.308V36.8762C629.26 36.9136 630.184 36.9416 631.08 36.9602C631.995 36.9789 632.9 36.9882 633.797 36.9882C634.077 36.9882 634.347 36.9882 634.609 36.9882C634.889 36.9696 635.169 36.9602 635.449 36.9602C635.523 36.9602 635.747 36.9602 636.121 36.9602C636.494 36.9602 636.942 36.9602 637.465 36.9602C637.988 36.9416 638.548 36.9322 639.145 36.9322C639.761 36.9136 640.34 36.9042 640.881 36.9042C641.423 36.8856 641.889 36.8762 642.281 36.8762C642.673 36.8762 642.916 36.8762 643.01 36.8762V39.6485H641.553C640.713 39.6485 640.06 39.7045 639.593 39.8165C639.145 39.9285 638.809 40.0779 638.585 40.2646C638.38 40.4326 638.258 40.6379 638.221 40.8806C638.184 41.1233 638.165 41.3847 638.165 41.6647V53.762L652.138 41.2727ZM695.683 36.9322V46.0612H692.519V44.717C692.519 43.5596 692.472 42.6728 692.379 42.0568C692.304 41.422 692.183 40.9646 692.015 40.6846C691.847 40.3859 691.632 40.2179 691.371 40.1806C691.128 40.1246 690.839 40.0966 690.502 40.0966H675.633V53.0339H685.294C685.481 53.0339 685.639 53.0246 685.77 53.0059C685.901 52.9686 686.013 52.8659 686.106 52.6979C686.199 52.5112 686.274 52.2125 686.33 51.8018C686.405 51.3911 686.47 50.7937 686.526 50.0096H688.766V59.0265H686.526C686.47 58.2611 686.405 57.6731 686.33 57.2624C686.255 56.833 686.162 56.5249 686.05 56.3383C685.938 56.1329 685.807 56.0116 685.658 55.9742C685.509 55.9369 685.331 55.9182 685.126 55.9182H675.633V69.8637H690.755C691.184 69.8637 691.52 69.7797 691.763 69.6116C692.024 69.425 692.211 69.0889 692.323 68.6035C692.453 68.1182 692.537 67.4461 692.575 66.5873C692.612 65.7286 692.631 64.6178 692.631 63.255H695.767V73H665.496V70.2277H668.716C669.164 70.2277 669.51 70.1624 669.752 70.0317C669.995 69.901 670.172 69.7237 670.284 69.4996C670.396 69.2756 670.462 69.0329 670.48 68.7716C670.499 68.4915 670.508 68.2115 670.508 67.9315V42.3088C670.508 41.8607 670.499 41.478 670.48 41.1607C670.48 40.8246 670.424 40.5446 670.312 40.3206C670.219 40.0966 670.042 39.9285 669.78 39.8165C669.538 39.7045 669.183 39.6485 668.716 39.6485H665.72V36.9322H695.683ZM699.659 36.8762C699.659 36.8762 699.874 36.8856 700.304 36.9042C700.752 36.9042 701.321 36.9042 702.012 36.9042C702.721 36.9042 703.505 36.9136 704.364 36.9322C705.223 36.9322 706.063 36.9322 706.884 36.9322C707.724 36.9322 708.49 36.9322 709.18 36.9322C709.89 36.9322 710.45 36.9322 710.861 36.9322H721.67C722.304 36.9322 723.042 36.9322 723.882 36.9322C724.741 36.9136 725.609 36.9042 726.486 36.9042C727.364 36.9042 728.213 36.9042 729.035 36.9042C729.875 36.8856 730.612 36.8762 731.247 36.8762V47.6854H728.278V41.9167C728.278 41.5247 728.25 41.2073 728.194 40.9646C728.138 40.722 727.961 40.5353 727.662 40.4046C727.382 40.2739 726.934 40.1899 726.318 40.1526C725.702 40.0966 724.834 40.0686 723.714 40.0686H718.057V68.6035C718.057 68.9209 718.076 69.1823 718.113 69.3876C718.151 69.593 718.281 69.761 718.505 69.8917C718.729 70.0037 719.075 70.0877 719.542 70.1437C720.008 70.1997 720.671 70.2277 721.53 70.2277H723.098V73C722.557 73 722.024 73 721.502 73C720.979 73 720.428 73 719.85 73C719.289 73 718.683 73 718.029 73C717.395 72.9813 716.685 72.9627 715.901 72.944C715.826 72.944 715.621 72.944 715.285 72.944C714.949 72.944 714.538 72.9533 714.053 72.972C713.586 72.972 713.064 72.972 712.485 72.972C711.925 72.972 711.355 72.9813 710.777 73C710.217 73 709.684 73 709.18 73C708.676 73 708.256 73 707.92 73V70.2277H709.46C710.338 70.2277 711.01 70.181 711.477 70.0877C711.962 69.9757 712.307 69.8357 712.513 69.6677C712.737 69.481 712.867 69.2756 712.905 69.0516C712.942 68.8089 712.961 68.5569 712.961 68.2955V40.0686H706.884C705.839 40.0686 705.027 40.1059 704.448 40.1806C703.869 40.2366 703.44 40.3299 703.16 40.4606C702.88 40.5726 702.712 40.7313 702.656 40.9366C702.6 41.1233 702.572 41.3474 702.572 41.6087C702.572 42.0381 702.572 42.5141 702.572 43.0369C702.572 43.5409 702.572 44.0636 702.572 44.605C702.59 45.1464 702.6 45.6878 702.6 46.2292C702.6 46.7519 702.6 47.2373 702.6 47.6854H699.659V36.8762ZM734.467 36.8762C735.345 36.9136 736.11 36.9416 736.763 36.9602C737.417 36.9602 738.07 36.9602 738.724 36.9602C740.366 36.9602 741.748 36.9602 742.868 36.9602C744.007 36.9416 744.959 36.9322 745.724 36.9322C746.508 36.9136 747.152 36.9042 747.656 36.9042C748.179 36.8856 748.665 36.8762 749.113 36.8762V39.6485H747.74C746.9 39.6485 746.247 39.6952 745.78 39.7885C745.314 39.8819 744.968 40.0219 744.744 40.2086C744.539 40.3766 744.417 40.5819 744.38 40.8246C744.343 41.0673 744.324 41.3287 744.324 41.6087V68.4635C744.324 68.8182 744.343 69.1076 744.38 69.3316C744.417 69.5556 744.539 69.733 744.744 69.8637C744.95 69.9944 745.286 70.0877 745.752 70.1437C746.219 70.1997 746.882 70.2277 747.74 70.2277H749.113V73C748.534 73 747.974 73 747.432 73C746.91 72.9813 746.359 72.972 745.78 72.972C745.22 72.972 744.613 72.972 743.96 72.972C743.307 72.9533 742.569 72.944 741.748 72.944C740.254 72.944 738.938 72.9533 737.799 72.972C736.679 72.9907 735.569 73 734.467 73V70.2277H735.811C736.67 70.2277 737.323 70.181 737.771 70.0877C738.238 69.9944 738.574 69.8637 738.78 69.6957C739.004 69.509 739.134 69.2943 739.172 69.0516C739.209 68.8089 739.228 68.5475 739.228 68.2675V41.8047C739.228 41.394 739.2 41.0487 739.144 40.7686C739.106 40.4886 738.976 40.2646 738.752 40.0966C738.546 39.9285 738.21 39.8165 737.743 39.7605C737.295 39.6858 736.651 39.6485 735.811 39.6485H734.467V36.8762ZM752.165 36.8762C752.165 36.8762 752.277 36.8762 752.501 36.8762C752.725 36.8762 753.014 36.8762 753.369 36.8762C753.724 36.8762 754.106 36.8762 754.517 36.8762C754.947 36.8762 755.357 36.8856 755.749 36.9042C756.141 36.9042 756.496 36.9042 756.813 36.9042C757.131 36.9042 757.355 36.9042 757.485 36.9042C757.859 36.9042 758.279 36.9042 758.746 36.9042C759.212 36.9042 759.688 36.9042 760.174 36.9042C760.678 36.8856 761.173 36.8762 761.658 36.8762C762.143 36.8762 762.582 36.8762 762.974 36.8762L781.624 67.7635H781.68V41.6647C781.68 41.1793 781.624 40.806 781.512 40.5446C781.4 40.2646 781.213 40.0592 780.952 39.9285C780.691 39.7979 780.327 39.7232 779.86 39.7045C779.412 39.6672 778.842 39.6485 778.152 39.6485H776.695V36.8762C778.17 36.8762 779.412 36.8949 780.42 36.9322C781.428 36.9509 782.343 36.9602 783.164 36.9602C783.258 36.9602 783.435 36.9602 783.696 36.9602C783.958 36.9602 784.256 36.9602 784.592 36.9602C784.947 36.9602 785.33 36.9602 785.74 36.9602C786.17 36.9416 786.59 36.9322 787.001 36.9322C787.971 36.9136 789.045 36.8949 790.221 36.8762V39.6485H788.457C787.729 39.6485 787.159 39.6952 786.749 39.7885C786.357 39.8632 786.067 39.9845 785.88 40.1526C785.694 40.3206 785.582 40.5259 785.544 40.7686C785.507 41.0113 785.488 41.2914 785.488 41.6087C785.488 41.6087 785.488 41.8141 785.488 42.2248C785.488 42.6168 785.479 43.1862 785.46 43.933C785.46 44.661 785.46 45.5385 785.46 46.5652C785.46 47.592 785.46 48.7121 785.46 49.9256V65.1312C785.46 67.8755 785.47 70.5917 785.488 73.28H780.056L760.79 41.5247H760.734V68.0995C760.734 68.6222 760.78 69.0329 760.874 69.3316C760.986 69.6116 761.173 69.817 761.434 69.9477C761.695 70.0784 762.05 70.1624 762.498 70.1997C762.965 70.2184 763.562 70.2277 764.29 70.2277H765.802V73C765.298 73 764.813 73 764.346 73C763.879 72.9813 763.394 72.972 762.89 72.972C762.405 72.972 761.882 72.972 761.322 72.972C760.762 72.9533 760.127 72.944 759.418 72.944C758.652 72.944 757.943 72.9533 757.289 72.972C756.655 72.972 756.039 72.972 755.441 72.972C754.863 72.972 754.284 72.9813 753.705 73C753.145 73 752.576 73 751.997 73V70.2277H753.789C754.573 70.2277 755.18 70.1904 755.609 70.1157C756.039 70.041 756.347 69.9103 756.533 69.7237C756.739 69.537 756.851 69.3036 756.869 69.0236C756.907 68.7249 756.925 68.3608 756.925 67.9315V41.9448C756.925 41.3847 756.888 40.9553 756.813 40.6566C756.739 40.3393 756.589 40.1059 756.365 39.9565C756.16 39.8072 755.852 39.7232 755.441 39.7045C755.049 39.6672 754.527 39.6485 753.873 39.6485H752.137C752.137 39.4805 752.137 39.2751 752.137 39.0324C752.137 38.7898 752.137 38.5377 752.137 38.2764C752.156 38.015 752.165 37.763 752.165 37.5203C752.165 37.2589 752.165 37.0442 752.165 36.8762ZM827.689 47.2933H824.384C824.216 46.0425 823.852 44.9317 823.292 43.961C822.732 42.9715 821.986 42.1408 821.052 41.4687C820.137 40.7966 819.045 40.2832 817.776 39.9285C816.525 39.5738 815.125 39.3965 813.575 39.3965C811.428 39.3965 809.496 39.7605 807.779 40.4886C806.08 41.198 804.633 42.2248 803.438 43.5689C802.244 44.8944 801.329 46.5092 800.694 48.4134C800.059 50.3176 799.742 52.4645 799.742 54.8541C799.742 57.281 800.059 59.4559 800.694 61.3788C801.347 63.3017 802.281 64.9352 803.494 66.2793C804.708 67.6048 806.183 68.6222 807.919 69.3316C809.674 70.041 811.662 70.3957 813.883 70.3957C817.356 70.3957 819.979 69.8917 821.752 68.8836C823.526 67.8568 824.412 66.2886 824.412 64.1791V60.4827C824.412 60.1093 824.384 59.8293 824.328 59.6426C824.272 59.4372 824.123 59.2879 823.88 59.1946C823.656 59.1012 823.302 59.0545 822.816 59.0545C822.331 59.0359 821.668 59.0265 820.828 59.0265H817.328V56.0862C817.944 56.0862 818.551 56.0956 819.148 56.1142C819.764 56.1142 820.417 56.1142 821.108 56.1142C821.818 56.1142 822.574 56.1236 823.376 56.1422C824.198 56.1422 825.113 56.1422 826.121 56.1422C826.475 56.1422 826.905 56.1422 827.409 56.1422C827.913 56.1236 828.426 56.1142 828.949 56.1142C829.49 56.1142 830.013 56.1142 830.517 56.1142C831.04 56.0956 831.497 56.0862 831.889 56.0862C831.889 56.1236 831.88 56.2916 831.861 56.5903C831.843 56.8703 831.824 57.1877 831.805 57.5424C831.805 57.8784 831.796 58.1958 831.777 58.4945C831.759 58.7745 831.749 58.9332 831.749 58.9705C830.909 58.9892 830.256 59.0265 829.789 59.0825C829.322 59.1199 828.977 59.1946 828.753 59.3066C828.529 59.4186 828.389 59.5679 828.333 59.7546C828.296 59.9226 828.277 60.156 828.277 60.4547C828.277 61.4628 828.221 62.6856 828.109 64.1231C828.016 65.5419 827.922 67.0074 827.829 68.5195C826.802 69.565 825.71 70.4237 824.553 71.0958C823.414 71.7679 822.247 72.2999 821.052 72.692C819.876 73.0653 818.691 73.3174 817.496 73.448C816.301 73.5974 815.144 73.6721 814.023 73.6721C810.775 73.6721 807.919 73.2334 805.455 72.3559C802.99 71.4598 800.918 70.1997 799.238 68.5755C797.576 66.9327 796.326 64.9632 795.485 62.6669C794.645 60.352 794.225 57.7757 794.225 54.9381C794.225 52.1752 794.683 49.6456 795.597 47.3493C796.512 45.0344 797.782 43.0555 799.406 41.4127C801.03 39.7512 802.962 38.4631 805.202 37.5483C807.443 36.6335 809.888 36.1761 812.539 36.1761C814.761 36.1761 816.842 36.5028 818.784 37.1563C820.744 37.791 822.452 38.8084 823.908 40.2086L824.188 37.3243H827.689V47.2933Z" fill="#EB1F15"/>
<circle cx="847" cy="61" r="8.5" fill="white" stroke="black" stroke-width="7"/>
<path d="M884.521 66.9014H887.921V67.0911C887.921 68.2097 887.536 69.3477 886.768 70.5051C886 71.6529 884.949 72.4991 883.617 73.0438C882.294 73.5885 880.738 73.8608 878.948 73.8608C875.349 73.8608 872.407 72.6109 870.121 70.1112C867.835 67.6018 866.692 63.8473 866.692 58.8479C866.692 53.8776 867.83 50.1329 870.106 47.6137C872.382 45.0945 875.339 43.8349 878.977 43.8349C880.747 43.8349 882.294 44.1072 883.617 44.6519C884.949 45.1869 886 46.0428 886.768 47.2197C887.536 48.3967 887.921 49.5249 887.921 50.6046V50.7797H884.521V50.6046C884.521 49.914 884.302 49.2477 883.865 48.6058C883.437 47.9638 882.819 47.4824 882.012 47.1614C881.204 46.8404 880.232 46.6799 879.094 46.6799C876.205 46.6799 874.051 47.8228 872.63 50.1085C871.22 52.3943 870.515 55.3074 870.515 58.8479C870.515 62.4175 871.225 65.3403 872.645 67.6163C874.065 69.8924 876.21 71.0304 879.079 71.0304C881.054 71.0304 882.454 70.6219 883.281 69.8048C884.108 68.9878 884.521 68.0832 884.521 67.0911V66.9014ZM903.043 73.8608C899.503 73.8608 896.614 72.5623 894.377 69.9653C892.14 67.3586 891.021 63.6528 891.021 58.8479C891.021 54.0429 892.14 50.342 894.377 47.745C896.614 45.148 899.503 43.8495 903.043 43.8495C906.583 43.8495 909.472 45.148 911.709 47.745C913.956 50.342 915.08 54.0429 915.08 58.8479C915.08 63.6528 913.956 67.3586 911.709 69.9653C909.472 72.5623 906.583 73.8608 903.043 73.8608ZM903.043 71.0158C905.621 71.0158 907.634 69.907 909.083 67.6893C910.532 65.4619 911.257 62.5148 911.257 58.8479C911.257 55.1907 910.532 52.2484 909.083 50.021C907.634 47.7936 905.621 46.6799 903.043 46.6799C900.475 46.6799 898.467 47.7936 897.017 50.021C895.568 52.2484 894.844 55.1907 894.844 58.8479C894.844 62.5148 895.568 65.4619 897.017 67.6893C898.467 69.907 900.475 71.0158 903.043 71.0158ZM922.564 73H919.442V44.6957H923.046L931.843 64.9172L939.926 44.6957H943.501V73H940.233V56.1341L940.32 51.0715H940.233L938.409 56.1487L933.39 68.7544H929.684L924.242 56.0904L922.564 51.4946H922.462L922.564 56.0904V73Z" fill="white"/>
</svg>
