<svg width="902" height="163" viewBox="0 0 902 163" fill="none" xmlns="http://www.w3.org/2000/svg">
<path d="M83.7747 29.4667C83.769 38.2978 83.7479 46.6289 83.757 54.9601C83.7641 61.4331 83.7809 61.4607 90.4813 61.4638C111.309 61.4734 132.137 61.46 152.965 61.4557C154.619 61.4553 156.272 61.4556 158.379 61.4556C158.379 63.8054 158.93 66.0771 158.291 67.9406C153.327 82.4177 148.745 97.1122 138.999 109.356C137.139 111.692 135.075 113.907 132.866 115.917C122.879 125.004 110.061 125.047 100.08 115.444C95.5769 111.111 92.0978 105.701 88.2538 100.703C86.9859 99.0541 86.0313 97.1645 84.0689 95.6167C84.0689 108.459 84.0689 121.301 84.0689 134.595C80.7195 134.595 77.8678 134.595 74.4412 134.595C74.4412 132.692 74.4412 130.911 74.4411 129.13C74.4403 111.135 74.3411 93.1384 74.5162 75.1448C74.554 71.2555 73.4992 69.9933 69.4594 70.0319C48.4669 70.2323 27.4714 70.1285 6.47688 70.1306C4.50139 70.1309 2.52589 70.1307 0.202453 70.1307C0.202453 67.703 -0.302262 65.4559 0.282119 63.5412C5.06474 47.871 10.8038 32.5871 21.6509 19.9256C34.1621 5.32162 49.4457 5.21924 62.157 19.7581C66.5028 24.7288 69.9783 30.4603 74.0951 36.183C74.0951 25.2248 74.0951 14.281 74.0951 2.93359C77.4415 2.93359 80.1691 2.93359 83.7723 2.93359C83.7723 11.4992 83.7723 20.233 83.7747 29.4667ZM20.4721 46.2982C18.5379 51.1378 16.6037 55.9775 14.5777 61.0468C33.6594 61.0468 51.8118 61.0468 70.5059 61.0468C65.6178 48.9939 60.8118 37.5056 52.3116 28.1418C44.7414 19.8026 38.667 19.7291 31.6153 28.3912C27.3685 33.6079 24.3845 39.8528 20.4721 46.2982ZM135.679 70.2113C120.099 70.2113 104.518 70.2113 88.1131 70.2113C92.7798 82.4605 97.6648 93.6506 105.864 102.994C113.851 112.095 121.163 112.274 127.764 102.19C133.976 92.6996 138.333 81.9938 143.463 71.8011C143.622 71.4835 143.303 70.9246 143.148 70.2068C140.951 70.2068 138.807 70.2068 135.679 70.2113Z" fill="white"/>
<path d="M445.875 126.284C442.771 126.307 440.119 126.307 436.966 126.307C436.811 123.59 436.56 121.157 436.552 118.723C436.5 103.566 436.76 88.4021 436.348 73.2556C436.202 67.8761 435.295 62.2038 433.285 57.2537C429.176 47.1327 418.78 43.8653 407.678 48.3288C395.929 53.0526 388.029 64.6789 387.971 77.6098C387.907 91.5996 387.995 105.59 388.001 119.58C388.004 126.648 387.989 126.66 380.859 126.511C379.552 126.483 378.249 126.32 376.453 126.182C376.344 123.948 376.181 121.845 376.148 119.74C375.879 102.258 375.885 84.7673 375.293 67.2967C374.906 55.8875 369.682 48.8853 360.986 46.9079C354.854 45.5134 348.849 46.724 343.71 50.0391C333.856 56.3958 327.294 65.0096 327.33 77.4455C327.369 91.4361 327.348 105.427 327.352 119.418C327.354 126.777 327.268 126.862 319.831 126.513C318.848 126.467 317.87 126.322 316.154 126.149C316.154 96.8367 316.154 67.6383 316.154 38.0956C317.594 37.8689 318.846 37.6901 320.091 37.4727C324.785 36.6529 326.824 38.4068 326.363 43.3399C326.029 46.917 326.298 50.5504 326.298 55.4433C329.427 52.0872 331.662 49.5846 334.008 47.191C342.77 38.2528 353.284 34.6153 365.754 36.5202C374.776 37.8983 380.953 42.7529 384.637 50.9875C385.302 52.4728 386.019 53.9343 387.059 56.1424C388.656 54.3225 389.988 52.9747 391.128 51.4798C397.921 42.5665 406.708 37.254 417.952 35.8762C431.085 34.2668 442.72 41.6777 445.882 54.5199C447.185 59.8122 447.958 65.3564 448.053 70.8022C448.348 87.62 448.253 104.446 448.14 121.268C448.129 122.936 446.958 124.596 445.875 126.284Z" fill="white"/>
<path d="M473.082 85.4656C473.082 69.4916 473.082 54.0175 473.082 38.0127C476.544 38.0127 479.579 38.0127 483.321 38.0127C483.321 42.5386 483.321 46.9497 483.321 52.8573C485.638 50.8963 486.903 49.9928 487.97 48.8974C499.666 36.8936 513.811 32.8189 529.503 38.3031C545.538 43.9075 554.892 56.289 557.905 72.872C561.045 90.1503 557.07 105.82 544.078 118.147C529.582 131.901 507.18 131.383 492.602 117.458C490.446 115.399 488.692 112.918 486.753 110.632C486.239 110.844 485.726 111.057 485.213 111.269C485.12 112.939 484.949 114.608 484.947 116.278C484.93 129.772 484.647 143.277 485.097 156.757C485.279 162.182 482.849 162.591 478.622 162.704C474.236 162.822 472.98 161.33 473.017 156.936C473.218 133.281 473.094 109.623 473.082 85.4656ZM518.385 117.439C522.721 115.889 527.517 115.067 531.315 112.665C548.342 101.897 552.279 76.04 539.742 59.6811C526.383 42.2495 503.118 41.7141 489.188 58.7312C487.184 61.1784 485.465 64.5537 485.234 67.6218C484.609 75.901 484.587 84.2565 484.903 92.5597C485.018 95.5594 486.186 98.8959 487.882 101.393C494.925 111.758 504.29 118.272 518.385 117.439Z" fill="white"/>
<path d="M196.58 108.631C210.542 75.4728 224.462 42.7067 237.955 9.76548C239.863 5.10645 242.722 5.43876 246.407 5.14054C250.264 4.82844 251.025 7.14851 252.163 9.88026C268.031 47.952 283.976 85.9915 299.893 124.043C300.077 124.482 300.14 124.972 300.466 126.246C296.667 126.246 293.078 126.529 289.582 126.085C288.425 125.938 287.125 124.082 286.538 122.726C282.241 112.807 277.974 102.869 274.011 92.8132C272.914 90.0303 271.45 88.8334 268.586 88.8328C252.772 88.8292 236.957 88.6578 221.148 88.9014C219.462 88.9273 217.04 90.9211 216.276 92.6007C212.353 101.228 208.834 110.04 205.226 118.809C201.766 127.218 199.442 128.287 189.637 125.478C191.903 119.947 194.152 114.457 196.58 108.631ZM264.588 78.7045C265.91 78.4614 267.232 78.2183 269.008 77.8918C261.017 58.3745 253.341 39.6262 245.666 20.8779C245.19 20.9542 244.713 21.0306 244.237 21.107C236.434 40.0044 228.631 58.9018 220.45 78.7159C235.768 78.7159 249.721 78.7159 264.588 78.7045Z" fill="white"/>
<path d="M800.579 36.15C823.356 39.5834 839.589 59.4586 838.682 81.9959C838.509 86.2878 836.189 86.2141 833.084 86.2029C810.757 86.1227 788.43 86.1422 766.102 86.1418C765.295 86.1417 764.488 86.2631 763.242 86.3632C763.242 88.4558 762.833 90.4872 763.308 92.2857C766.526 104.488 773.405 113.94 785.873 117.448C798.188 120.912 809.691 118.751 818.792 108.8C824.152 102.941 824.126 102.917 832.161 106.286C826.409 121.873 802.712 132.012 783.925 126.924C760.625 120.614 746.08 97.1955 750.572 73.2255C755.134 48.8854 775.553 33.5884 800.579 36.15ZM822.203 60.1593C813.268 47.1965 798.196 41.6698 784.804 46.4455C771.079 51.3394 761.796 63.8769 762.824 76.5951C784.163 76.5951 805.533 76.5951 828.33 76.5951C826.164 70.6231 824.38 65.7036 822.203 60.1593Z" fill="white"/>
<path d="M699.952 0.685245C702.565 1.48859 704.847 2.04715 706.957 2.98871C709.304 4.03586 711.927 4.74295 710.504 8.72513C709.134 12.5607 707.228 12.8226 703.78 11.8504C687.776 7.33792 679.495 12.8638 678.378 33.3913C678.316 34.5155 678.638 35.6605 678.845 37.3061C686.717 37.3061 694.449 37.3061 702.514 37.3061C702.514 40.5652 702.514 43.2878 702.514 46.4374C694.582 46.4374 686.827 46.4374 678.557 46.4374C678.557 73.0834 678.557 99.3185 678.557 125.939C674.64 125.939 671.235 125.939 667.118 125.939C667.118 99.8384 667.118 73.6422 667.118 46.9543C662.741 46.6674 659.016 46.4234 655.006 46.1606C655.006 43.3896 655.006 40.8025 655.006 38.2982C655.436 38.0329 655.693 37.7462 655.974 37.7189C666.184 36.7309 665.573 36.6211 667.439 26.527C668.58 20.3549 671.045 13.9926 674.518 8.78394C680.394 -0.0287132 689.768 -1.00052 699.952 0.685245Z" fill="white"/>
<path d="M578.996 20.4662C578.996 13.9944 578.996 8.02256 578.996 2.23322C579.739 1.93015 580.033 1.71802 580.34 1.69834C590.766 1.02875 590.779 1.03138 590.788 11.4391C590.812 41.5874 590.818 71.7357 590.853 101.884C590.856 104.044 590.807 106.244 591.172 108.357C592.338 115.105 597.352 118.143 605.177 116.254C608.882 115.36 610.62 115.75 611.532 119.704C612.451 123.687 610.82 125.265 607.271 125.817C603.998 126.327 600.731 127.213 597.449 127.276C585.233 127.507 579.011 121.199 579.008 108.913C578.999 79.5971 578.999 50.2816 578.996 20.4662Z" fill="white"/>
<path d="M901.289 44.0421C901.547 48.2556 898.448 48.0623 896.192 48.3649C885.642 49.7803 877.31 54.8234 871.788 63.8338C869.899 66.9175 868.614 70.8882 868.544 74.4829C868.211 91.4268 868.396 108.381 868.396 125.96C864.474 125.96 860.823 125.96 856.853 125.96C856.853 96.6936 856.853 67.5041 856.853 38.4479C857.37 38.1366 857.638 37.8388 857.917 37.8271C869.206 37.3585 867.695 37.2418 867.536 46.567C867.489 49.3741 867.529 52.1828 868.638 55.5406C869.899 53.9809 871.166 52.4255 872.42 50.8608C878.01 43.8904 884.781 38.8787 893.885 37.487C901.029 36.3949 901.213 36.4648 901.289 44.0421Z" fill="white"/>
<path d="M625.296 55.4674C625.298 49.3562 625.298 43.7445 625.298 37.8926C629.448 37.8926 632.712 37.8926 636.52 37.8926C636.52 67.1128 636.52 96.2838 636.52 125.886C633.344 125.886 629.955 125.886 625.294 125.886C625.294 102.674 625.294 79.3203 625.296 55.4674Z" fill="white"/>
<path d="M730.751 50.5084C730.751 75.8876 730.751 100.774 730.751 125.935C726.611 125.935 723.204 125.935 719.462 125.935C719.462 96.6284 719.462 67.4782 719.462 38.0342C723.055 38.0342 726.465 38.0342 730.751 38.0342C730.751 42.1293 730.751 46.0727 730.751 50.5084Z" fill="white"/>
<path d="M625.189 8.3551C625.185 6.13235 625.185 4.33026 625.185 2.18457C628.974 2.18457 632.36 2.18457 636.371 2.18457C636.371 7.48929 636.371 12.687 636.371 18.1763C632.724 18.1763 629.331 18.1763 625.194 18.1763C625.194 14.9601 625.194 11.868 625.189 8.3551Z" fill="white"/>
<path d="M724.293 18.498C722.542 18.4985 721.239 18.4985 719.258 18.4985C719.258 12.9292 719.258 7.7569 719.258 2.25879C722.835 2.25879 726.069 2.25879 730.072 2.25879C730.072 7.43277 730.072 12.5872 730.072 18.4975C728.24 18.4975 726.491 18.4975 724.293 18.498Z" fill="white"/>
</svg>
