<svg width="2423" height="232" viewBox="0 0 2423 232" fill="none" xmlns="http://www.w3.org/2000/svg">
<path d="M96.6377 210.813C94.3868 223.02 89.8423 228.268 77.0207 228.132C33.8057 227.675 33.3435 228.403 26.651 186.025C17.7242 129.498 9.57427 72.8493 1.16168 16.2423C0.644382 12.7614 0.74823 9.18839 0.585938 6.09437C2.33249 4.93301 3.28146 3.77054 4.31131 3.69373C42.7228 0.831362 43.3226 0.769851 47.9017 37.2732C52.8249 76.5206 56.4263 115.933 60.7566 155.257C61.1266 158.617 62.6405 161.852 64.8404 169.224C69.1481 158.711 72.5005 152.015 74.6834 144.957C87.271 104.258 100.144 63.6308 111.681 22.6308C115.71 8.31382 121.397 2.71713 137.481 2.29782C154.866 1.84424 158.908 10.2153 162.641 23.5529C174.773 66.8972 187.501 110.075 200.183 153.263C201.128 156.481 203.528 159.271 209.171 162.224C216.3 109.928 223.429 57.6312 230.7 4.29054C244.959 4.29054 258.643 4.29054 274.815 4.29054C270.44 33.8721 266.21 62.5517 261.954 91.2275C255.876 132.187 249.468 173.102 243.914 214.133C242.579 223.991 238.942 227.28 228.977 227.649C183.62 229.326 183.916 229.538 171.198 186.921C161.665 154.975 151.321 123.271 141.191 91.5058C140.343 88.8486 138.377 86.5486 134.723 80.3214C121.486 125.631 109.249 167.517 96.6377 210.813Z" fill="#F1264C"/>
<path d="M1948.67 225.351C1936.17 227.182 1924.04 228.66 1912.09 227.746C1907.8 227.418 1901.95 222.098 1900.26 217.724C1894.34 202.451 1889.87 186.616 1884.97 170.957C1877.38 146.721 1873.9 144.041 1848.99 144.074C1835.6 144.092 1822.22 144.203 1808.83 144.409C1807.13 144.435 1805.44 145.296 1801.46 146.41C1801.46 159.186 1801.46 172.389 1801.46 185.592C1801.46 198.926 1801.46 212.26 1801.46 227.111C1786.37 227.111 1772.3 227.111 1757.32 227.111C1757.32 152.965 1757.32 79.6845 1757.32 5.78585C1799.11 5.78585 1839.83 3.80786 1880.23 6.53024C1904.35 8.15511 1923.11 23.1506 1930.85 47.9611C1938.91 73.8035 1932.39 92.165 1906.82 117.339C1932.74 148.209 1936.07 188.05 1948.67 225.351ZM1866.52 103.826C1883.07 99.1528 1890.72 87.6829 1889.2 71.1212C1887.61 53.8636 1875.45 45.3224 1859.64 44.113C1841.06 42.692 1822.29 43.7802 1802.57 43.7802C1802.57 64.6811 1802.57 84.2983 1802.57 104.516C1823.66 104.516 1843.56 104.516 1866.52 103.826Z" fill="#F1254C"/>
<path d="M330.014 178.998C281.985 100.732 334.854 3.58647 423.689 1.12655C477.622 -0.36693 524.23 34.2636 538.809 87.0497C552.7 137.342 529.148 192.04 482.475 217.883C436.441 243.372 378.022 233.641 342.122 194.376C338.029 189.899 334.528 184.881 330.014 178.998ZM354.868 111.469C352.162 164.516 400.285 197.484 442.917 186.894C477.273 178.36 501.688 144.874 498.484 111.011C494.914 73.273 465.597 44.1321 429.832 42.771C392.232 41.34 362.136 67.9278 354.868 111.469Z" fill="#F1254C"/>
<path d="M699.553 3.84738C747.186 7.50003 775.669 33.7675 769.562 71.2674C766.768 88.4273 754.833 104.099 746.642 121.286C772.837 147.573 771.973 189.687 790.148 228.261C773.498 228.261 760.335 229.049 747.377 227.762C743.679 227.395 739.053 221.57 737.474 217.282C731.384 200.741 725.937 183.929 721.054 166.987C716.601 151.538 708.402 143.215 690.999 144.515C674.667 145.734 658.173 144.776 639.393 144.776C639.393 172.442 639.393 199.44 639.393 227.664C623.425 227.664 609.783 227.664 595.162 227.664C595.162 153.588 595.162 79.6291 595.162 3.83789C629.971 3.83789 663.923 3.83789 699.553 3.84738ZM696.224 43.6834C677.587 43.6834 658.95 43.6834 639.824 43.6834C639.824 65.1094 639.824 84.7629 639.824 105.602C658.691 105.602 676.301 106.55 693.765 105.357C714.591 103.934 724.749 94.2689 726.153 77.4846C727.576 60.4885 719.954 51.1277 696.224 43.6834Z" fill="#F0244A"/>
<path d="M1228.03 56.7658C1273.05 139.325 1220.69 228.405 1128.28 228.684C1101.55 228.764 1074.83 228.696 1046.53 228.696C1046.53 153.978 1046.53 80.2415 1046.53 6.23662C1082.97 6.23662 1119.62 3.34277 1155.57 7.12302C1186.09 10.3322 1210.47 28.985 1228.03 56.7658ZM1185.62 166.689C1206.73 135.843 1208.39 99.2911 1188.78 71.1032C1163.83 35.2244 1126.72 43.082 1090.48 43.7069C1090.48 92.9912 1090.48 140.64 1090.48 189.818C1123.85 188.514 1157.89 197.651 1185.62 166.689Z" fill="#F2244C"/>
<path d="M2080.88 40.502C2073.06 43.0066 2065.36 43.685 2060.96 47.8509C2055.27 53.2457 2048.21 61.9661 2049.07 68.2562C2050.05 75.434 2057.89 85.062 2064.84 87.4125C2086.64 94.7769 2109.94 97.6788 2131.7 105.126C2171.81 118.851 2185.5 162.397 2162.1 197.409C2160.42 199.93 2158.56 202.384 2156.5 204.6C2124.41 239.024 2045.25 239.675 2012.44 205.828C1999.22 192.186 1992.98 175.835 1992.86 153.253C2006.6 153.253 2020.36 153.253 2034.31 153.253C2050.42 187.36 2074.22 199.096 2106.87 188.51C2118.68 184.681 2127.37 177.958 2127.67 164.048C2127.97 150.198 2118.56 144.523 2107.58 141.659C2090.52 137.209 2073.03 134.424 2055.86 130.387C2024.11 122.926 2005.55 103.086 2003.43 75.0112C2001.32 47.0936 2017.79 20.3391 2046.19 9.11322C2076.32 -2.79318 2107.22 -2.2849 2136.99 10.5303C2162.42 21.4756 2176.36 45.7776 2175.01 75.2131C2163.81 75.2131 2152.39 75.6746 2141.04 74.9294C2137.68 74.7084 2132.53 71.7509 2131.6 68.9298C2123.61 44.5544 2104.84 39.4911 2080.88 40.502Z" fill="#F0254C"/>
<path d="M1651.74 4.5889C1666.17 4.58979 1678.8 4.58979 1692.37 4.58979C1692.37 17.7252 1692.37 29.1054 1692.37 42.9658C1673.61 42.9658 1654.55 42.9658 1634.4 42.9658C1634.4 92.6311 1634.4 139.835 1634.4 188.826C1653.51 188.826 1672.13 188.826 1691.88 188.826C1691.88 202.556 1691.88 214.519 1691.88 227.869C1637.91 227.869 1584.13 227.869 1529.07 227.869C1529.07 216.161 1529.07 204.312 1529.07 190.313C1547.37 190.313 1565.94 190.313 1586.1 190.313C1586.1 140.697 1586.1 93.179 1586.1 43.7703C1566.32 43.7703 1547.69 43.7703 1528.36 43.7703C1528.36 30.457 1528.36 19.0204 1528.36 4.58789C1569.03 4.58789 1609.49 4.58789 1651.74 4.5889Z" fill="#F0234A"/>
<path d="M1301.01 60.7753C1301.01 41.3539 1301.01 23.7575 1301.01 4.74219C1356.87 4.74219 1411.36 4.74219 1467.2 4.74219C1467.2 16.7553 1467.2 28.5903 1467.2 43.2255C1434.76 43.2255 1402.12 43.2157 1369.49 43.2289C1345.87 43.2384 1345.61 43.2548 1345.86 67.0964C1346.26 104.933 1340.73 99.6833 1378.77 100.013C1402.43 100.218 1426.1 100.051 1450.98 100.051C1450.98 113.185 1450.98 124.912 1450.98 138.354C1424.12 138.354 1398.06 138.329 1372 138.361C1345.78 138.394 1345.8 138.42 1345.83 165.529C1345.85 185.545 1345.83 205.561 1345.83 226.855C1330.88 226.855 1317.28 226.855 1301.01 226.855C1301.01 171.751 1301.01 117.176 1301.01 60.7753Z" fill="#F3254C"/>
<path d="M2227.13 42.9426C2223.68 30.6129 2221.94 18.5711 2220.01 5.18457C2289.19 5.18457 2355.28 5.18457 2422.6 5.18457C2422.6 17.4311 2422.6 29.1718 2422.6 43.3622C2402.44 43.3622 2382.53 44.2672 2362.74 43.0656C2347.87 42.1626 2344.07 47.8131 2344.24 61.8702C2344.84 110.55 2344.31 159.243 2344.21 207.932C2344.2 213.938 2344.21 219.944 2344.21 227.36C2329.48 227.36 2315.94 227.36 2300.04 227.36C2300.04 166.604 2300.04 106.135 2300.04 43.2306C2274.79 43.2306 2251.81 43.2306 2227.13 42.9426Z" fill="#F02249"/>
<path d="M987.86 227.108C940.332 228.223 894.113 228.223 846.536 228.223C846.536 154.343 846.536 80.9317 846.536 6.02832C860.454 6.02832 874.652 6.02832 890.454 6.02832C890.454 66.4778 890.454 126.502 890.454 188.445C923.899 188.445 955.853 188.445 989.17 188.445C989.17 202.214 989.17 214.104 987.86 227.108Z" fill="#F2234B"/>
</svg>
