<svg width="482" height="120" viewBox="0 0 482 120" fill="none" xmlns="http://www.w3.org/2000/svg">
<path d="M0.549316 115.597C14.812 90.4144 29.0746 65.2323 43.4618 39.8304C47.9747 46.8997 52.3346 53.7293 56.8398 60.7866C64.98 40.4569 73.0625 20.2713 81.1451 0.0856838C81.2697 0.0571224 81.3943 0.0285614 81.5189 0C82.0864 1.30383 82.6862 2.59461 83.216 3.91368C85.9461 10.7109 88.6687 17.5112 91.3736 24.3186C93.6848 30.1355 95.9494 35.9712 98.2695 41.7846C100.739 47.9712 103.116 54.2002 105.807 60.2895C106.868 62.6929 106.769 64.8159 106.033 67.1658C104.658 71.5604 103.39 75.9887 102.296 80.6245C102.555 80.3971 102.898 80.2183 103.061 79.9349C105.008 76.536 106.946 73.1314 108.852 69.7091C111.677 64.6385 114.474 59.5528 117.279 54.4717C117.344 54.3541 117.371 54.2153 117.556 54.0782C117.852 54.0426 118.008 54.0153 118.164 53.9881C121.425 59.172 124.739 64.3231 127.932 69.5488C131.364 75.1674 134.674 80.8617 138.054 86.5128C142.277 93.5721 146.522 100.618 150.746 107.676C152 109.771 153.217 111.889 154.579 114.216C152.58 114.883 150.707 115.654 148.762 116.127C144.33 117.206 139.876 118.204 135.404 119.102C133.526 119.479 131.585 119.612 129.666 119.695C126.007 119.854 122.342 119.909 118.68 119.986C112.959 120.106 107.308 119.463 101.647 118.669C94.5493 117.673 87.6397 115.927 80.7828 113.937C72.4134 111.507 64.1071 108.854 55.7128 106.517C52.648 105.664 49.4147 105.401 46.2472 104.947C44.3882 104.681 42.509 104.432 40.636 104.409C32.1304 104.303 23.8792 105.723 15.8591 108.608C10.5957 110.501 5.73235 113.134 0.935929 116.091C0.727959 115.882 0.638633 115.739 0.549316 115.597ZM118.097 61.0256C117.842 61.0779 117.587 61.1302 117.329 61.3692C117.303 61.4533 117.291 61.5447 117.25 61.6205C113.863 67.8554 110.471 74.0876 107.086 80.3235C105.078 84.0231 103.081 87.7286 101.037 91.5071C115.508 96.924 129.951 102.331 144.535 107.79C144.428 107.407 144.408 107.195 144.316 107.024C140.061 99.1508 135.765 91.2999 131.553 83.404C129.184 78.9641 126.901 74.4913 123.994 70.3564C121.912 67.3942 120.091 64.2471 118.097 61.0256ZM57.1038 68.7208C54.9025 65.2804 52.7026 61.8391 50.4995 58.3998C48.4157 55.1469 46.3026 51.9124 44.2597 48.6339C43.6987 47.7336 43.2619 47.7188 42.7192 48.5495C41.8934 49.8137 40.931 51.0203 40.3104 52.3816C37.8348 57.8121 35.4781 63.297 33.0601 68.7541C30.3345 74.9052 27.5904 81.0479 24.8377 87.2315C28.6035 91.701 32.3591 96.1586 36.1488 100.657C36.5955 100.396 36.953 100.222 37.2733 99.9954C41.3021 97.1431 45.3146 94.2672 49.3679 91.4504C49.7559 91.1808 50.435 91.0913 50.9016 91.2141C56.8507 92.7797 62.7869 94.3951 68.7239 96.0067C74.7033 97.6297 80.6837 99.2487 86.6567 100.895C92.3726 102.471 98.0762 104.091 103.792 105.668C106.185 106.328 108.596 106.927 111.169 107.598C111.015 107.195 110.993 106.936 110.853 106.804C108.095 104.194 105.305 101.618 102.56 98.9945C99.6739 96.2363 96.83 93.4336 93.9598 90.6583C93.7396 90.4454 93.4207 90.332 93.2118 90.1113C92.1357 88.9741 90.6532 88.2072 90.808 86.155C90.9341 84.4849 90.5099 82.7701 90.3043 81.0782C89.9589 78.235 89.5814 75.3957 89.2404 72.552C89.0214 70.7256 88.8664 68.8913 88.6416 67.0656C88.3137 64.4018 87.9204 61.746 87.6075 59.0805C87.2936 56.4065 87.0782 53.7207 86.758 51.0475C86.3431 47.5825 85.8381 44.1283 85.4268 40.6628C85.1042 37.9444 84.9019 35.2115 84.5801 32.493C84.0698 28.1817 83.5491 23.8706 82.9467 19.5717C82.5356 16.6382 81.9777 13.7255 81.4245 10.4419C81.0859 11.0767 80.8809 11.39 80.7428 11.7307C79.292 15.3096 77.8485 18.8915 76.4093 22.4752C73.1339 30.6314 69.8544 38.786 66.5915 46.9473C64.3032 52.6708 62.0566 58.4111 59.754 64.1288C59.1158 65.7135 58.3441 67.244 57.4564 68.7997C57.3973 68.7995 57.3383 68.7994 57.1038 68.7208Z" fill="#0C8FF2"/>
<path d="M254.889 41.2172C259.15 38.3685 263.697 36.3598 268.631 35.5166C271.695 34.9931 274.799 34.7415 277.995 35.0285C281.766 35.3673 285.384 36.1087 288.915 37.3523C292.338 38.5582 295.359 40.5358 298.237 42.7177C302.206 45.7267 305.463 49.3762 308.094 53.629C310.518 57.5478 312.079 61.8057 312.826 66.2867C313.452 70.0453 313.668 73.8619 313.271 77.7368C312.84 81.9492 312.072 86.0155 310.479 89.9316C308.87 93.8845 306.661 97.4462 303.927 100.726C301.717 103.379 299.208 105.666 296.419 107.656C292.344 110.563 287.773 112.499 282.903 113.318C278.686 114.027 274.388 114.097 270.046 113.512C264.43 112.756 259.486 110.56 254.768 107.642C253.748 107.012 252.815 106.221 251.913 105.422C247.552 101.562 243.867 97.1597 241.362 91.8495C239.368 87.6209 238.284 83.1792 237.852 78.4938C237.286 72.3426 238.112 66.4435 240.067 60.6432C242.169 54.4061 245.59 49.021 250.457 44.6051C251.805 43.3823 253.357 42.3866 254.889 41.2172ZM294.645 72.8015C294.657 69.7935 293.833 66.9645 292.473 64.3477C290.693 60.9197 288.048 58.2422 284.726 56.2334C280.307 53.5604 275.573 52.8603 270.686 54.3437C265.063 56.0504 260.908 59.6541 258.35 65.0296C256.876 68.129 256.395 71.3898 256.43 74.8084C256.498 81.2938 258.784 86.6129 263.924 90.7082C268.326 94.2144 273.177 95.8005 278.749 94.7977C284.898 93.691 289.371 90.1644 292.396 84.7966C294.437 81.1761 294.826 77.1578 294.645 72.8015Z" fill="#0C8FF2"/>
<path d="M480.146 49.058C478.825 50.6037 477.072 50.9725 475.283 50.9857C468.15 51.0381 461.016 51.0073 453.681 51.0073C453.681 51.5817 453.681 52.1065 453.681 52.6314C453.681 70.1922 453.714 87.7532 453.66 105.314C453.645 110.281 451.967 111.975 447.593 112.511C445.077 112.819 442.437 112.583 439.912 112.202C437.389 111.821 436.094 109.903 435.697 107.449C435.503 106.256 435.417 105.032 435.416 103.821C435.399 86.7622 435.404 69.7031 435.404 52.644C435.404 52.1508 435.404 51.6577 435.404 51.0073C434.827 51.0073 434.344 51.0073 433.86 51.0073C427.269 51.0073 420.678 51.0282 414.088 50.9841C413.131 50.9777 412.16 50.7227 411.225 50.4721C409.801 50.0907 408.79 49.1872 408.419 47.7233C407.702 44.9 407.62 42.0649 408.383 39.2272C408.847 37.4998 409.87 36.4241 411.699 36.2034C412.977 36.0493 414.25 35.703 415.526 35.7009C435.117 35.6683 454.708 35.6692 474.299 35.7012C475.438 35.703 476.596 35.9535 477.709 36.2343C479.763 36.7525 480.744 38.1242 480.998 40.2674C481.297 42.7945 481.441 45.275 480.69 47.7365C480.562 48.1568 480.342 48.549 480.146 49.058Z" fill="#0C8FF2"/>
<path d="M352.204 58.1244C352.204 55.7151 352.204 53.4426 352.204 51.0073C351.633 51.0073 351.151 51.0073 350.668 51.0073C343.987 51.0073 337.306 51.04 330.625 50.9765C329.453 50.9653 328.2 50.7433 327.132 50.2783C325.351 49.5027 324.786 47.7371 324.698 45.9849C324.597 43.9637 324.719 41.9122 324.951 39.8979C325.23 37.4767 326.462 36.3132 328.88 35.9741C330.166 35.7938 331.474 35.6914 332.771 35.6903C352.042 35.6728 371.312 35.6662 390.583 35.7031C391.994 35.7057 393.433 35.9451 394.809 36.2824C396.804 36.7718 397.532 38.5599 397.639 40.2524C397.797 42.7467 397.513 45.2811 397.274 47.7847C397.112 49.4911 395.74 50.2336 394.299 50.6576C393.372 50.9306 392.356 50.9894 391.379 50.9931C384.475 51.0198 377.572 51.0073 370.481 51.0073C370.481 51.5977 370.481 52.1244 370.481 52.6511C370.481 69.4801 370.496 86.3091 370.457 103.138C370.453 104.829 370.248 106.548 369.9 108.204C369.529 109.97 368.606 111.393 366.67 111.927C363.224 112.878 359.795 112.866 356.323 112.08C353.52 111.445 352.276 109.41 352.246 106.422C352.139 95.8877 352.204 85.3518 352.204 74.8166C352.204 69.2981 352.204 63.7797 352.204 58.1244Z" fill="#0C8FF2"/>
<path d="M170.8 94.5309C170.8 77.5162 170.792 60.6382 170.818 43.7603C170.82 42.6986 171.026 41.6245 171.243 40.5783C171.876 37.5191 174.097 36.3416 176.903 35.9695C180.167 35.5366 183.364 35.6003 186.484 36.9598C188.272 37.7395 189.05 39.1296 189.312 40.8431C189.564 42.4869 189.608 44.1749 189.61 45.8436C189.63 62.311 189.622 78.7783 189.622 95.2457C189.622 95.7823 189.622 96.3189 189.622 96.9945C190.219 96.9945 190.705 96.9945 191.191 96.9945C200.556 96.9945 209.92 96.9807 219.284 97.0155C220.244 97.0191 221.216 97.2561 222.157 97.4861C224.107 97.9624 225.016 99.4589 225.273 101.265C225.67 104.058 225.812 106.868 224.838 109.624C224.393 110.884 223.559 111.719 222.352 112.003C220.929 112.336 219.446 112.568 217.989 112.573C204.806 112.615 191.623 112.614 178.44 112.581C176.311 112.576 174.167 112.147 172.725 110.465C171.909 109.514 171.236 108.149 171.142 106.921C170.859 103.214 170.89 99.4837 170.801 95.7626C170.792 95.3979 170.8 95.0328 170.8 94.5309Z" fill="#0C8FF2"/>
<path d="M0.466904 115.639C0.638862 115.739 0.728187 115.882 0.840813 116.106C0.65552 116.376 0.446925 116.565 0.23833 116.753C0.174024 116.706 0.109719 116.659 0.0454102 116.611C0.158361 116.301 0.271313 115.991 0.466904 115.639Z" fill="#0C8FF2"/>
<path d="M118.157 53.8938C118.009 54.0154 117.852 54.0426 117.645 54.0297C117.678 53.8251 117.763 53.6607 117.847 53.4964C117.948 53.5974 118.049 53.6984 118.157 53.8938Z" fill="#0C8FF2"/>
<path d="M118.125 61.1041C117.947 61.1693 117.742 61.156 117.434 61.1626C117.587 61.1302 117.842 61.078 118.125 61.1041Z" fill="#0C8FF2"/>
<path d="M57.5456 68.7996C57.5357 68.8465 57.4371 68.8936 57.3091 68.87C57.3388 68.7994 57.3979 68.7996 57.5456 68.7996Z" fill="#0C8FF2"/>
</svg>
