<svg width="939" height="320" viewBox="0 0 939 320" fill="none" xmlns="http://www.w3.org/2000/svg">
<path d="M335.998 173.474L338.945 161.684L340.629 161.263L349.471 170.947L361.261 169.263L362.103 167.579C361.682 166.736 360.84 166.315 359.998 165.473C357.892 162.947 354.945 160.421 353.261 158.316C359.156 155.789 363.787 151.579 365.05 146.947C365.471 144.842 365.471 143.158 365.05 141.895V141.474C365.05 141.474 365.05 141.053 364.629 141.053C364.629 140.632 364.208 140.631 363.787 140.21L363.366 139.789C362.945 139.368 362.524 139.368 362.103 139.368C362.103 139.368 361.682 139.368 361.682 138.947C361.261 138.526 360.419 138.526 359.577 138.526H359.156C358.734 138.526 357.892 138.526 357.05 138.526C356.208 138.526 354.945 138.526 353.682 138.947L332.208 142.315L323.787 175.158L335.998 173.474ZM342.734 148.211L350.313 146.947C350.734 146.947 351.156 146.947 351.577 146.947H351.998C352.419 146.947 352.419 146.947 352.419 147.368C352.419 147.368 352.419 147.368 352.84 147.789L353.261 148.211C353.261 148.211 353.261 148.21 353.261 148.631C353.261 149.052 353.261 149.053 353.261 149.474C352.84 150.316 351.998 151.579 350.313 152C349.892 152.421 349.05 152.421 348.629 152.421L341.471 153.684L342.734 148.211Z" fill="white"/>
<path d="M367.574 168.842C367.996 168.842 368.838 168.842 369.68 168.842C371.364 168.421 373.048 167.579 374.732 166.316C375.153 165.895 375.574 165.473 375.996 164.631C376.417 163.789 376.838 162.947 377.259 162.105C377.259 161.263 377.259 160.842 377.259 160C377.259 160 377.259 159.578 376.838 159.578C376.838 159.157 376.417 158.737 376.417 158.737L375.996 158.316C375.574 158.316 375.574 157.895 375.153 157.895C374.732 157.895 374.732 157.895 374.311 157.895C373.89 157.895 373.048 157.895 372.627 157.895C369.259 158.316 366.311 161.263 365.469 164.631C364.627 166.737 365.89 168.421 367.574 168.842Z" fill="white"/>
<path d="M300.206 179.368C303.153 178.947 305.68 178.105 307.785 177.263C316.627 173.895 322.522 167.157 324.627 159.578C326.732 151.999 323.785 145.684 314.943 145.684C314.943 145.684 314.943 145.684 314.522 145.684C313.258 145.684 311.995 145.684 310.311 146.105L290.522 149.052L282.101 181.895L300.206 179.368ZM300.206 155.789L304.837 154.947C306.101 154.947 306.943 154.526 307.785 154.526C308.627 154.526 309.048 154.526 309.469 154.526C309.89 154.526 310.732 154.947 311.153 154.947C311.153 154.947 311.574 154.947 311.574 155.368C311.995 155.368 311.995 155.789 312.416 155.789C313.68 157.053 313.68 159.157 313.258 161.263C312.837 163.368 311.574 165.053 309.469 166.737C307.364 168.421 304.416 170.105 300.627 170.526L295.995 171.368C296.837 168.421 296.837 167.158 300.206 155.789Z" fill="white"/>
<path d="M847.157 144.421L851.789 117.895L853.894 105.684C854.315 103.158 854.315 101.474 854.315 99.3686C854.315 97.6844 854.315 96.0002 853.894 94.737C853.894 93.8949 853.473 93.0524 853.473 92.2103C853.473 91.7892 853.473 91.7896 853.052 91.3686C853.052 90.9475 852.631 90.105 852.21 89.6839C852.21 89.2629 851.789 89.2633 851.789 88.8423C851.368 88.4212 851.368 87.9997 850.947 87.5787C850.947 87.1576 850.526 87.1581 850.526 86.737C850.105 86.316 850.105 85.8945 849.684 85.8945C849.263 85.8945 849.263 85.4734 848.842 85.4734C848.421 85.0524 848 85.0528 847.578 84.6317C847.157 84.6317 847.157 84.2107 846.736 84.2107C846.315 84.2107 845.894 83.7892 845.473 83.7892C845.052 83.7892 845.052 83.7892 844.631 83.3682C844.21 83.3682 843.368 83.3682 842.947 83.3682C842.526 83.3682 842.526 83.3682 842.105 83.3682C841.263 83.3682 840 83.3682 839.157 83.7892C827.368 85.4734 818.947 96.8423 818.947 96.8423L827.789 43.3682L805.894 46.737L791.578 130.948C786.105 147.369 776.842 157.053 765.894 160.842C764.21 161.263 762.947 161.684 761.263 162.105C760.842 162.105 760 162.105 759.578 162.526C759.578 162.526 759.157 162.526 758.736 162.526C758.315 162.526 757.894 162.526 757.052 162.526C756.21 162.526 755.789 162.526 754.947 162.526H754.526C754.105 162.526 753.263 162.526 752.842 162.105H752.421C752 162.105 751.157 161.684 750.736 161.263H750.315C749.473 160.842 749.052 160.421 748.631 160L748.21 159.579C747.789 159.158 747.368 158.737 746.947 157.895C746.947 157.474 746.526 157.473 746.526 157.052C746.105 156.21 745.684 155.369 745.684 154.105C744 144.421 748.631 119.579 758.736 117.895C759.157 117.895 759.157 117.895 759.578 117.895C760 117.895 760.421 117.895 760.421 118.316C760.842 118.316 760.842 118.737 760.842 119.158C760.842 119.579 761.263 120 761.263 120.421C761.263 120.421 761.263 120.421 761.263 120.842C761.263 121.263 761.263 122.105 761.263 122.526V122.948C761.263 123.79 761.263 124.631 760.842 125.473V125.894C760.842 126.737 760.421 128 760.421 129.263V129.684C760 130.947 760 132.21 759.578 133.894V134.316C759.157 136 758.736 137.684 758.315 139.79L780.631 136.421C781.052 134.737 781.473 133.053 781.894 131.369C781.894 130.948 781.894 130.526 782.315 129.684C782.315 128.842 782.736 127.579 782.736 126.737C782.736 126.316 782.736 125.474 782.736 125.053C782.736 124.211 782.736 123.369 782.736 122.526C782.736 122.105 782.736 121.263 782.736 120.842C782.736 120 782.736 119.158 782.736 118.737C782.736 118.316 782.736 117.473 782.736 117.052C782.736 116.21 782.736 115.789 782.315 114.947C782.315 114.526 782.315 114.105 781.894 113.263C781.894 112.421 781.473 112 781.473 111.579C781.473 111.158 781.052 110.737 781.052 110.316C781.052 109.895 780.631 109.052 780.21 108.631C780.21 108.21 779.789 107.79 779.789 107.369C779.368 106.948 779.368 106.526 778.947 105.684C778.947 105.263 778.526 104.842 778.526 104.842C778.105 104.421 777.684 104 777.263 103.579C777.263 103.158 776.842 103.158 776.842 102.737C776.421 101.894 775.578 101.474 774.736 101.053C773.894 100.632 773.473 100.211 772.631 99.3686C772.21 99.3686 772.21 98.9475 771.789 98.9475C771.368 98.5265 770.526 98.5261 770.105 98.105C769.684 98.105 769.263 97.6844 768.842 97.6844C768.421 97.6844 767.578 97.2633 767.157 97.2633C766.736 97.2633 766.315 97.2633 765.894 97.2633C765.473 97.2633 764.631 97.2633 764.21 96.8423C763.789 96.8423 763.368 96.8423 762.947 96.8423C762.526 96.8423 762.105 96.8423 761.263 96.8423C760 96.8423 758.315 96.8423 756.631 97.2633C752.421 98.1054 749.052 99.3686 745.684 101.053C744.421 101.474 743.578 102.316 742.736 103.158C730.947 111.579 725.473 127.158 724.21 141.053C722.526 145.684 721.263 150.316 719.578 153.684C717.894 157.474 716.631 160.421 714.947 163.368C712 168.421 708.631 171.368 706.105 171.789H705.684C705.684 171.789 705.684 171.789 705.263 171.789C705.263 171.789 705.263 171.789 704.842 171.789H704.421C704.421 171.789 704 171.79 704 171.369C704 171.369 704 170.948 703.579 170.948C703.579 170.948 703.579 170.948 703.579 170.526V170.105V169.684V169.263V168.842V168.421V168C703.579 167.579 703.579 167.579 703.579 167.158V166.737C703.579 166.316 703.579 166.316 703.579 165.894C703.579 165.473 703.579 165.474 703.579 165.053C703.579 164.632 703.579 164.211 703.579 164.211C703.579 163.79 703.579 163.789 703.579 163.368C703.579 162.947 703.579 162.526 703.579 162.105C703.579 161.684 703.579 161.684 703.579 161.263C703.579 160.842 703.579 160.421 703.579 160C703.579 159.579 703.579 159.158 703.579 159.158C703.579 158.737 703.578 157.894 704 157.473C704 157.052 704 157.053 704 156.632C704 155.79 704.421 154.526 704.421 153.684L712.421 107.369L730.105 104.421L732.631 90.5265L714.526 93.4738L717.894 77.4734L695.578 80.8423L692.21 96.8423L682.526 98.5261L680 112.421L690.105 110.737L683.368 149.474C677.473 168.421 671.157 178.105 666.526 178.526H666.105C666.105 178.526 666.105 178.526 665.684 178.526H665.263C665.263 178.526 665.263 178.526 664.842 178.105C664.842 178.105 664.842 178.105 664.842 177.684C664.842 177.684 664.842 177.684 664.842 177.263V176.842C664.842 176.842 664.842 176.842 664.842 176.421V176V175.579V175.158V174.737C664.842 174.316 664.842 174.316 664.842 173.894V173.474C664.842 173.053 664.842 173.053 664.842 172.632C664.842 172.211 664.842 172.21 664.842 171.789C664.842 171.368 664.842 170.948 664.842 170.948C664.842 170.526 664.842 170.526 664.842 170.105C664.842 169.684 664.842 169.263 664.842 168.842C664.842 168.421 664.842 168.421 664.842 168C664.842 167.579 664.842 167.158 664.842 166.737C664.842 166.316 664.842 165.894 664.842 165.894C664.842 165.473 664.842 164.632 665.263 164.211C665.263 163.79 665.263 163.368 665.263 163.368C665.263 162.526 665.684 161.263 665.684 160.421L673.684 114.105L651.368 117.473L649.684 128C649.684 128 649.684 128 649.684 127.579C649.684 127.158 649.263 127.158 649.263 126.737C648.842 126.316 648.842 125.894 648.421 125.473C648.421 125.473 648.421 125.474 648.421 125.053C648 124.632 647.578 124.21 647.157 123.368C647.157 123.368 647.157 123.369 646.736 122.948C646.315 122.526 645.473 121.684 645.052 121.263C645.052 121.263 645.052 121.263 644.631 121.263C643.789 120.842 642.947 120.421 642.105 120C641.263 119.579 640.421 119.158 639.157 119.158C639.157 119.158 639.157 119.158 638.736 119.158C637.894 118.737 636.631 118.737 635.368 118.737H634.947C634.105 118.737 633.263 118.737 632.421 119.158C627.368 120 623.157 122.526 619.789 126.737C618.526 128.421 617.263 130.105 616 131.789C614.736 133.473 613.894 135.579 613.052 137.684C610.105 145.263 608 154.105 607.157 162.105C605.052 169.263 602.526 175.158 600.421 179.79C597.052 187.369 593.684 191.158 590.736 192H590.315C590.315 192 590.315 192 589.894 192H589.473C589.473 192 589.052 192 589.052 191.579C589.052 191.579 589.052 191.579 588.631 191.158C588.631 191.158 588.631 191.158 588.631 190.737C588.631 190.737 588.631 190.737 588.631 190.316V189.895V189.474V189.052V188.631V188.211V187.79C588.631 187.369 588.631 187.368 588.631 186.947V186.526C588.631 186.105 588.631 186.105 588.631 185.684C588.631 185.263 588.631 185.263 588.631 184.842C588.631 184.421 588.631 184 588.631 184C588.631 183.579 588.631 183.579 588.631 183.158C588.631 182.737 588.631 182.316 588.631 181.895C588.631 181.474 588.631 181.474 588.631 181.053C588.631 180.632 588.631 180.211 588.631 179.79C588.631 179.369 588.631 179.369 588.631 178.948C588.631 178.526 588.631 177.684 589.052 177.263C589.052 176.842 589.052 176.842 589.052 176.421C589.052 175.579 589.473 174.316 589.473 173.474L597.473 127.158L575.157 130.526L568 171.789C565.894 178.526 564.21 183.158 562.526 186.947C560 192.842 557.894 195.368 555.368 195.368H554.947C554.526 195.368 554.526 195.368 554.105 195.368C553.684 195.368 553.684 194.948 553.263 194.948C553.263 194.526 552.842 194.526 552.842 194.105C552.842 193.684 552.421 193.263 552.421 192.842C552.421 192.842 552.421 192.842 552.421 192.421C552.421 192 552.421 191.158 552.421 190.737V190.316C552.421 189.474 552.421 188.632 552.421 187.79V187.369C552.421 186.526 552.421 185.263 552.842 184V183.579C552.842 182.316 553.263 180.632 553.684 178.948L561.684 132.632L539.789 136L533.052 175.158C532.631 176.421 532.21 177.263 531.789 178.526C531.789 178.947 531.368 178.948 531.368 179.369C530.947 180.211 530.947 180.632 530.526 181.474C530.526 181.895 530.105 182.316 530.105 182.737C529.684 183.579 529.684 184 529.263 184.842C529.263 185.263 528.842 185.684 528.842 186.105C528.421 186.526 528.421 187.369 528 187.79C528 188.211 527.579 188.631 527.579 189.052C527.157 189.473 527.157 190.316 526.736 190.737C526.736 191.158 526.315 191.579 526.315 192C525.894 192.421 525.894 192.842 525.473 193.263C525.052 193.684 525.052 194.105 524.631 194.526C524.21 194.948 524.21 195.369 523.789 195.79C523.368 196.211 523.368 196.632 522.947 197.053C522.526 197.474 522.526 197.894 522.105 198.316C521.684 198.737 521.684 199.158 521.263 199.158C520.842 199.579 520.842 200 520.421 200.421C520 200.842 520 200.842 519.579 201.263C519.157 201.684 519.157 202.105 518.736 202.105C518.315 202.526 518.315 202.526 517.894 202.948C517.473 203.369 517.473 203.368 517.052 203.789C516.631 204.21 516.631 204.21 516.21 204.631C515.789 205.052 515.789 205.053 515.368 205.474C514.947 205.474 514.947 205.894 514.526 205.894C514.105 205.894 514.105 206.316 513.684 206.316C513.263 206.316 513.263 206.737 512.842 206.737C512.421 206.737 512 207.158 512 207.158C511.579 207.158 511.579 207.158 511.157 207.579C510.736 207.579 510.315 207.579 510.315 207.579C509.894 207.579 509.894 207.579 509.473 207.579C509.052 207.579 508.21 207.579 507.789 207.579L519.579 139.369L497.263 142.737L495.579 153.263C495.579 153.263 495.579 153.263 495.157 152.842C495.157 152.421 494.736 152.421 494.736 152C494.736 152 494.736 152 494.736 151.579C494.315 151.158 494.315 150.737 493.894 150.316C493.473 149.895 493.052 149.473 492.631 148.631C492.21 148.21 491.368 147.368 490.947 146.947C490.947 146.947 490.526 146.947 490.526 146.526C489.684 146.105 489.263 145.684 488.421 145.263H488C487.157 144.842 486.315 144.421 485.052 144.421C484.21 144 482.947 144 481.684 144H481.263C480.421 144 479.579 144 478.315 144.421C470.315 145.684 464.421 151.158 460.631 158.737C458.105 163.369 456.421 168.421 455.157 173.894C453.473 181.052 452.631 188.632 452.21 195.79C451.789 202.526 452.21 208.421 453.052 212.21C453.473 213.473 453.473 214.737 453.894 215.579C453.894 216 454.315 216.421 454.315 216.421C454.736 217.263 454.736 217.684 455.157 218.526C455.157 218.947 455.579 219.369 455.579 219.79C456 220.211 456.421 221.052 456.421 221.473C456.842 221.894 456.842 222.316 457.263 222.316C457.684 222.737 458.105 223.158 458.526 223.579C458.947 224 459.368 224 459.368 224.421C459.789 224.842 460.21 225.263 460.631 225.684C461.052 226.105 461.473 226.105 461.894 226.526C462.315 226.948 462.736 226.948 463.579 227.369C464 227.369 464.421 227.789 464.842 227.789C465.263 227.789 466.105 228.211 466.526 228.211C466.947 228.211 467.368 228.211 467.789 228.211C468.631 228.211 469.894 228.211 470.736 228.211C476.631 227.369 481.263 223.158 484.21 219.368L479.579 250.105C479.157 251.368 479.157 252.632 479.157 253.895C479.157 254.316 479.157 254.737 479.157 255.158C479.157 256 479.157 256.842 479.157 257.684C479.157 258.105 479.157 258.526 479.157 258.948C479.157 259.79 479.157 260.211 479.157 261.053C479.157 261.474 479.157 261.895 479.157 262.316C479.157 262.737 479.157 263.579 479.157 264C479.157 264.421 479.157 264.842 479.157 265.263C479.157 265.684 479.157 266.526 479.579 266.947C479.579 267.368 479.579 267.79 480 268.211C480 268.632 480.421 269.052 480.421 269.894C480.421 270.316 480.842 270.737 480.842 271.158C480.842 271.579 481.263 272 481.263 272.421C481.263 272.842 481.684 273.263 481.684 273.684C481.684 274.105 482.105 274.526 482.105 274.948C482.105 275.369 482.526 275.79 482.526 275.79C482.947 276.211 482.947 276.632 483.368 277.053C483.368 277.474 483.789 277.474 483.789 277.895C484.21 278.316 484.21 278.737 484.631 278.737C485.052 279.158 485.052 279.158 485.473 279.579C485.894 280 486.315 280 486.315 280.421C486.736 280.421 486.736 280.842 487.157 280.842C487.579 281.263 488 281.263 488.421 281.684C488.842 281.684 488.842 282.105 489.263 282.105C489.684 282.526 490.105 282.526 490.526 282.526C490.947 282.526 490.947 282.526 491.368 282.947C492.21 283.369 492.631 283.369 493.473 283.369C493.473 283.369 493.473 283.369 493.894 283.369C494.736 283.369 495.157 283.369 496 283.369C496.842 283.369 497.684 283.369 498.526 282.947C508.631 281.263 515.368 267.79 519.157 253.895C520 250.948 520.421 248.421 520.842 245.474C521.684 240 522.526 234.948 522.526 230.737C522.526 225.684 522.105 221.895 520.842 218.948C520.421 218.105 520 216.842 519.579 216C522.105 214.737 524.631 212.631 526.736 210.105C528.842 207.579 530.947 205.052 532.631 201.684C533.052 202.947 533.473 203.79 533.894 205.053C533.894 205.474 534.315 205.473 534.315 205.894C534.736 206.737 535.157 207.158 535.157 207.579C535.157 208 535.579 208 536 208.421C536.421 208.842 536.842 209.263 537.263 209.684C537.684 210.105 537.684 210.105 538.105 210.526C538.526 210.948 538.947 211.369 539.368 211.369C539.789 211.79 539.789 211.79 540.21 211.79C540.631 212.211 541.052 212.211 541.473 212.632C541.894 212.632 541.894 213.052 542.315 213.052C542.736 213.052 543.157 213.474 544 213.474C544.421 213.474 544.421 213.474 544.842 213.895C545.684 213.895 546.105 213.895 546.947 213.895H547.368C548.21 213.895 549.052 213.895 550.315 213.474C558.736 212.211 564.631 205.895 568.842 196.632C569.263 197.895 569.684 198.737 570.105 199.579C570.105 200 570.526 200 570.526 200.421C570.947 200.842 571.368 201.684 571.789 202.105C572.21 202.526 572.21 202.526 572.631 202.948C573.052 203.369 573.473 203.79 573.894 204.211C574.315 204.632 574.315 204.632 574.736 205.053C575.157 205.474 575.579 205.473 576 205.894C576.421 205.894 576.421 206.316 576.842 206.316C577.263 206.737 577.684 206.737 578.105 207.158C578.526 207.158 578.526 207.579 578.947 207.579C579.368 207.579 580.21 208 580.631 208H581.052C581.894 208 582.736 208 583.579 208C584.421 208 585.263 208 586.105 207.579C589.473 207.158 592.842 205.474 596.21 202.948C598.315 201.263 600 199.579 602.105 197.053C604.631 193.684 607.157 189.895 609.684 185.263C610.105 186.526 610.105 187.368 610.526 188.631C610.526 189.052 610.947 189.474 610.947 189.474C611.368 190.316 611.368 190.737 611.789 191.579C611.789 192 612.21 192.421 612.21 192.842C612.631 193.263 613.052 194.105 613.052 194.526C613.473 194.948 613.473 195.368 613.894 195.368C614.315 195.789 614.736 196.211 615.157 196.632C615.579 197.053 615.579 197.052 616 197.473C616.421 197.894 616.842 198.316 617.263 198.316C617.684 198.737 618.105 198.737 618.526 199.158C618.947 199.579 619.368 199.579 619.789 200C620.21 200 620.631 200.421 621.052 200.421C621.473 200.421 622.315 200.842 622.736 200.842C623.157 200.842 623.578 200.842 624 200.842C624.842 200.842 625.684 200.842 626.947 200.842C638.315 199.158 645.052 185.263 645.052 185.263C645.052 185.263 645.052 185.263 645.052 185.684C645.052 186.105 645.473 186.105 645.473 186.526C645.894 186.947 645.894 187.369 646.315 187.79C646.315 187.79 646.315 187.79 646.315 188.211C646.736 188.632 647.157 189.474 647.579 189.895C647.579 189.895 647.578 189.895 648 190.316C648.421 190.737 649.263 191.579 649.684 192C649.684 192 649.684 192 650.105 192C650.947 192.421 651.789 193.263 652.631 193.684C653.473 194.105 654.315 194.526 655.578 194.948C655.578 194.948 655.579 194.948 656 194.948C656.842 195.369 658.105 195.368 659.368 195.368H659.789C660.631 195.368 661.473 195.369 662.736 194.948C672.421 193.263 679.579 186.105 685.473 175.579C685.894 176.842 686.315 178.105 686.736 178.948C686.736 179.369 687.157 179.79 687.157 179.79C687.578 180.632 688 181.053 688 181.474C688.421 181.895 688.421 182.316 688.842 182.316C689.263 182.737 689.684 183.158 690.105 183.579C690.526 184 690.526 184 690.947 184.421C691.368 184.842 691.789 185.263 692.21 185.263C692.631 185.684 692.631 185.684 693.052 185.684C693.473 186.105 693.894 186.105 694.315 186.526C694.736 186.526 694.736 186.947 695.157 186.947C695.579 186.947 696.421 187.369 696.842 187.369C697.263 187.369 697.263 187.369 697.684 187.369C698.526 187.369 699.368 187.79 700.21 187.79C701.052 187.79 702.315 187.79 703.157 187.369C714.526 185.684 722.947 175.158 729.263 162.105C729.684 163.369 730.526 165.053 730.947 166.316C731.368 166.737 731.368 167.158 731.789 167.579C732.21 168.421 732.631 169.263 733.473 170.105C733.894 170.526 734.315 170.948 734.315 171.369C734.736 172.211 735.579 172.632 736 173.053C736.421 173.474 736.842 173.894 737.263 173.894C738.105 174.316 738.526 174.737 739.368 175.158C739.789 175.579 740.21 175.579 740.631 176C741.473 176.421 742.315 176.842 743.157 177.263C743.578 177.263 744 177.684 744.421 177.684C745.684 178.105 747.368 178.526 748.631 178.526C748.631 178.526 748.631 178.526 749.052 178.526C750.315 178.526 752 178.948 753.684 178.948C755.789 178.948 757.894 178.947 760 178.526C762.947 178.105 765.894 177.263 768.842 176.421C771.368 175.579 774.315 174.316 776.421 172.632C781.052 169.684 785.263 166.316 788.631 162.105L786.947 172.21L809.263 168.842L818.105 118.737C822.315 111.158 827.368 106.947 830.315 106.526C830.736 106.526 831.157 106.526 831.578 106.526H832C832.421 106.526 832.421 106.526 832.842 106.947C832.842 106.947 833.263 106.948 833.263 107.369L833.684 107.79C833.684 107.79 833.684 107.79 834.105 108.211C834.105 108.632 834.526 109.053 834.526 109.474C834.526 109.895 834.526 110.316 834.526 111.158L828.21 151.579C828.21 152.421 828.21 153.684 828.21 154.526C828.21 154.948 828.21 155.368 828.21 155.368C828.21 156.21 828.21 156.631 828.631 157.052C828.631 157.473 829.052 157.895 829.052 157.895C829.473 158.316 829.473 158.737 829.894 159.579C829.894 160 830.315 160.421 830.736 160.421C831.157 160.842 831.578 161.263 831.578 161.684C832 162.105 832 162.105 832.421 162.526C832.842 162.948 833.263 163.368 833.684 163.368C834.105 163.789 834.526 163.79 834.526 164.211C834.947 164.632 835.368 164.632 835.789 165.053C836.21 165.053 836.631 165.473 837.052 165.473C837.473 165.473 837.894 165.894 838.736 165.894C839.157 165.894 839.578 165.894 840 165.894C840.842 165.894 841.684 165.894 842.526 165.894L846.315 165.053C846.315 165.053 846.315 165.053 846.736 165.053L899.368 156.211L899.789 154.105L904.421 128L847.157 144.421ZM490.526 168.421L486.736 191.158C486.736 191.158 486.736 191.158 486.736 191.579C486.736 192 486.315 192.421 486.315 192.842C486.315 193.263 485.894 193.684 485.473 194.526C485.473 194.526 485.473 194.526 485.473 194.948C485.052 195.369 484.631 196.211 484.631 196.632C484.631 196.632 484.631 196.632 484.631 197.053C484.21 197.474 483.789 198.316 483.368 198.737C483.368 198.737 483.368 198.737 482.947 199.158C482.526 199.579 482.105 200.421 481.263 200.842C481.263 200.842 481.263 200.842 480.842 200.842C480.421 201.263 479.579 201.684 478.736 202.105C477.894 202.526 477.052 202.948 476.21 202.948C475.789 202.948 475.368 202.948 474.947 202.948H474.526C474.105 202.948 474.105 202.947 473.684 202.526C473.684 202.526 473.263 202.526 473.263 202.105C472.842 202.105 472.842 201.684 472.421 201.263L472 200.842C471.579 200.421 471.579 200 471.157 199.158C470.736 197.053 470.736 193.684 471.157 189.895C471.579 186.948 472 184 472.421 181.053C472.842 180.211 472.842 178.947 473.263 178.105C473.684 176 474.526 173.894 475.368 172.21C476.631 168.421 478.736 165.473 480.842 163.789C482.105 162.947 482.947 162.105 484.21 162.105C484.631 162.105 485.052 162.105 485.894 162.105H486.315C486.736 162.105 487.157 162.526 487.579 162.526C487.579 162.526 487.579 162.526 488 162.526C488.421 162.948 488.842 163.368 489.263 163.789C489.263 163.789 489.263 164.211 489.684 164.211C489.684 164.632 490.105 164.632 490.105 165.053C490.105 165.053 490.105 165.473 490.526 165.473C490.526 165.894 490.947 165.895 490.947 166.316V166.737C490.947 167.158 490.947 167.158 491.368 167.579C491.368 167.579 491.368 167.579 491.368 168C490.526 168 490.526 168.421 490.526 168.421C490.947 168.421 490.947 168.421 490.526 168.421ZM509.473 228.632C508.631 235.369 507.368 245.473 505.263 253.052C504.842 254.737 504.421 256.421 503.579 257.684C502.736 259.79 501.894 261.473 501.052 262.737C500.21 263.579 499.789 264 498.947 264C498.526 264 498.526 264 498.105 264C498.105 264 498.105 264 497.684 264H497.263C497.263 264 497.263 264 496.842 263.579C496.842 263.579 496.842 263.579 496.842 263.158V262.737V262.316V261.895V261.473C496.842 261.052 496.842 261.052 496.842 260.631V260.211C496.842 259.79 496.842 259.369 496.842 258.948V258.526C496.842 257.684 496.842 257.263 497.263 256.421L503.579 217.684C506.947 217.684 510.736 221.053 509.473 228.632ZM641.684 166.737C641.684 166.737 641.263 168 640 170.105C639.157 171.368 638.315 172.631 637.473 173.894C637.052 174.737 636.21 175.158 635.789 175.579C634.526 176.842 632.842 177.684 631.157 177.684C630.736 177.684 630.315 177.684 629.894 177.684H629.473C629.052 177.684 629.052 177.263 628.631 177.263C628.631 177.263 628.21 177.263 628.21 176.842C627.789 176.421 627.789 176.421 627.368 176L626.947 175.579C626.526 175.158 626.526 174.316 626.526 173.474C626.105 171.79 626.105 169.684 626.526 167.158C626.947 162.948 627.789 157.473 629.052 152.842C629.473 150.737 630.315 149.053 630.736 147.369C631.157 146.526 631.579 145.684 632 144.842C633.684 141.473 635.368 139.368 637.473 138.105C637.894 137.684 638.736 137.684 639.157 137.684C639.579 137.684 640 137.684 640.421 137.684C640.842 137.684 640.842 137.684 641.263 137.684C641.684 137.684 641.684 138.105 642.105 138.105L642.526 138.526C642.947 138.526 642.947 138.948 642.947 138.948L643.368 139.369C643.368 139.79 643.789 139.789 643.789 140.21L644.21 140.631C644.21 141.052 644.631 141.053 644.631 141.474C644.631 141.474 644.631 141.895 645.052 141.895C645.052 142.316 645.052 142.316 645.473 142.737V143.158C645.473 143.579 645.473 143.579 645.473 143.579V144L641.684 166.737Z" fill="white"/>
<path d="M444.207 117.895C447.575 114.947 469.47 110.737 473.68 109.895C474.102 108.631 474.102 106.526 474.523 104.42C474.944 102.315 475.365 99.7893 475.786 97.263C477.891 81.6841 477.891 59.3679 456.417 53.8942C454.312 53.4731 452.628 53.0525 450.944 52.6314C450.523 52.6314 449.68 52.6314 449.259 52.6314C447.996 52.6314 446.733 52.21 445.891 52.21C445.049 52.21 444.207 52.21 443.365 52.21C442.944 52.21 442.523 52.21 441.68 52.21C440.417 52.21 439.575 52.6314 438.733 52.6314C438.312 52.6314 438.312 52.6314 437.891 52.6314C436.628 53.0525 435.365 53.0525 434.102 53.4735C433.68 53.4735 433.68 53.4731 433.259 53.8942C432.417 54.3152 431.575 54.3156 430.733 54.7367C430.312 54.7367 429.891 55.1577 429.47 55.1577C428.628 55.5788 428.207 55.9994 427.365 55.9994C426.944 55.9994 426.523 56.4209 426.102 56.842C425.259 57.263 424.838 57.6836 423.996 58.1047C423.575 58.5257 423.154 58.5262 422.733 58.9472C421.891 59.3683 421.47 59.7889 420.629 60.21C420.208 60.631 420.208 60.6314 419.787 61.0525C418.944 61.4735 418.102 62.3152 417.681 62.7363C417.681 62.7363 417.26 62.7367 417.26 63.1577C416.418 63.9999 415.576 64.4209 414.734 65.263C414.313 65.6841 414.313 65.6841 413.892 66.1051C413.471 66.5262 413.05 66.9472 412.208 67.3683C411.787 67.7893 411.787 67.7893 411.366 68.2104C410.944 68.6314 410.523 69.0525 410.102 69.4735C409.681 69.8946 409.681 69.8946 409.26 70.3156C408.839 70.7367 408.418 71.1577 408.418 71.5788C408.418 71.9999 407.997 71.9999 407.997 72.4209C407.576 72.842 407.155 73.263 407.155 73.6841L406.734 74.1051C406.313 74.5262 405.892 74.9472 405.471 75.7893C399.576 83.3683 396.208 95.9999 394.944 109.474C393.681 122.947 396.208 140.21 402.102 160.842C403.366 163.789 404.208 167.579 405.471 170.947C407.576 177.684 410.102 186.947 409.681 194.947C409.681 196.631 409.26 197.894 409.26 199.578C409.26 199.999 408.839 200.421 408.839 200.842C408.418 201.684 408.418 202.947 407.997 203.789C407.997 204.21 407.576 204.631 407.155 205.474C406.734 206.316 406.313 207.158 406.313 207.579C405.892 208 405.892 208.42 405.471 208.842C405.05 209.263 404.629 210.105 404.208 210.526C403.787 210.947 403.366 211.368 402.944 211.789C402.523 212.21 402.102 212.631 401.26 213.052C400.839 213.473 400.418 213.474 399.997 213.895C399.576 214.316 398.734 214.737 398.313 214.737C397.892 215.158 397.05 215.157 396.629 215.157C395.787 215.157 395.366 215.579 394.523 215.579C394.102 215.579 393.26 215.579 392.418 215.579C391.155 215.579 390.313 215.579 389.05 215.579C373.471 214.316 367.576 204.21 365.892 193.684C365.892 192.421 365.471 191.158 365.471 189.895C365.471 188.21 365.471 186.947 365.471 185.684C365.471 185.263 365.471 185.263 365.471 184.842C365.471 183.999 365.471 183.157 365.471 182.315C365.471 181.052 365.471 179.789 365.892 178.947L355.787 180.631L332.208 184L312.839 186.947L280.418 192L279.155 197.895L274.523 217.684L324.629 204.631C325.05 206.315 325.471 207.579 325.892 209.263C325.892 209.684 326.313 210.105 326.313 210.947C326.734 211.789 327.155 213.052 327.155 213.895C327.576 214.316 327.576 215.158 327.997 215.579C328.418 216.421 328.839 217.263 329.26 218.526C329.681 219.368 330.102 219.789 330.102 220.21C330.523 221.052 330.944 221.894 331.366 222.736C331.787 223.578 332.208 224 332.629 224.421C333.05 225.263 333.471 226.105 334.313 226.947C334.734 227.368 335.155 228.21 335.576 228.631C335.997 229.474 336.839 230.316 337.26 230.737C337.681 231.158 338.102 232 338.944 232.421C339.787 233.263 340.208 233.684 341.05 234.526C341.471 234.947 342.313 235.789 342.734 236.21C343.576 237.052 343.997 237.473 344.839 238.315C345.26 238.736 346.102 239.157 346.523 239.578C347.366 239.999 348.208 240.842 349.05 241.263C349.471 241.684 350.313 242.105 350.734 242.526C351.576 242.947 352.418 243.789 353.26 244.21C353.681 244.631 354.523 245.052 354.944 245.474C355.787 245.895 357.05 246.316 357.892 247.158C358.313 247.579 359.155 247.578 359.576 247.999C361.26 248.842 362.523 249.263 364.208 249.684H364.629C366.313 250.105 367.997 250.526 370.102 250.947C370.523 250.947 371.366 250.947 371.787 251.368C373.05 251.368 374.313 251.789 375.576 251.789C376.418 251.789 377.26 251.789 377.681 251.789C378.944 251.789 380.208 251.789 381.05 251.789C383.576 251.789 385.681 251.789 388.208 251.368C394.102 250.526 399.155 249.263 404.208 247.158C409.26 245.052 413.892 242.526 418.102 239.578C420.208 237.894 422.312 236.631 423.996 234.947C427.786 231.579 431.154 227.789 433.68 223.578C434.944 221.473 436.207 219.368 437.47 216.842C437.891 216 437.891 215.579 438.312 214.737C442.102 205.895 443.365 196.21 442.102 185.263C441.68 180.21 440.417 174.736 438.312 169.684C437.891 168.842 437.891 167.999 437.47 167.578C434.944 161.263 431.996 154.947 427.786 148.631C426.523 146.526 425.259 144.42 424.417 142.736C422.312 138.947 420.629 134.737 418.944 130.947C418.102 129.263 417.681 127.157 417.26 125.473C415.576 118.315 414.734 111.579 415.155 105.263C415.576 100.21 416.418 96.4209 417.26 92.6314C418.102 88.842 419.787 85.8946 421.47 82.9472C422.312 81.6841 423.154 80.4205 423.996 79.1573C426.944 75.7889 429.891 73.263 432.838 72.4209C433.68 71.9999 434.523 71.9999 435.786 71.9999C436.207 71.9999 436.207 71.9999 436.628 71.9999C437.47 71.9999 438.312 71.9999 439.154 71.9999C439.996 71.9999 440.838 72.4205 441.68 72.8415C441.68 72.8415 442.102 72.8415 442.102 73.2626C442.944 73.6836 443.786 74.1047 444.207 74.9468C446.733 77.0521 448.417 79.9999 448.838 84.2104C449.259 85.4735 449.259 87.1577 449.259 88.842C449.259 94.3156 448.417 101.052 445.47 108.631C446.312 111.999 445.47 114.947 444.207 117.895Z" fill="white"/>
<path d="M936.417 141.894C936.838 149.052 931.785 154.947 924.627 155.368C917.469 155.789 911.574 150.736 911.153 143.999C910.732 137.263 915.785 131.368 922.943 130.947C930.101 130.105 935.995 135.157 936.417 141.894ZM914.522 143.578C914.943 150.736 922.101 155.368 930.101 151.157C930.943 150.736 931.785 149.894 932.627 148.631C936.417 140.21 931.364 132.631 923.785 133.052C917.89 133.473 914.101 138.105 914.522 143.578ZM922.522 149.474H919.574L918.732 137.263C919.996 136.842 921.259 136.842 923.364 136.42C925.89 136.42 926.732 136.421 927.574 136.842C928.417 137.263 928.838 138.105 928.838 139.368C928.838 140.631 927.995 141.894 926.311 142.315C927.574 142.736 928.417 143.579 928.838 145.263C929.259 146.947 929.68 147.789 930.101 148.21L927.153 148.631C926.732 148.21 926.311 146.947 925.89 145.684C925.469 144.42 924.627 143.999 923.364 143.999H922.101L922.522 149.474ZM922.101 142.736H923.364C925.048 142.736 926.311 141.894 925.89 140.631C925.89 139.368 925.048 138.947 922.943 138.947C922.101 138.947 921.68 138.947 921.259 139.368L922.101 142.736Z" fill="white"/>
<path d="M124.628 307.789C186.484 307.789 236.628 241.999 236.628 160.842C236.628 79.6852 186.484 13.8945 124.628 13.8945C62.7718 13.8945 12.6279 79.6852 12.6279 160.842C12.6279 241.999 62.7718 307.789 124.628 307.789Z" fill="#BDA888"/>
<path d="M260.628 99.3684C260.628 88.4211 251.786 80 241.26 80C238.734 80 236.207 80.4206 233.681 81.6838C232.418 78.7364 231.155 76.2105 229.47 73.6842C243.365 72.8421 254.312 61.0526 254.312 46.7368C254.312 31.9999 242.102 20.2102 227.365 20.2102C220.207 20.2102 213.47 23.1577 208.418 28.2103C205.891 30.7366 203.786 33.6839 202.523 37.0523C183.997 18.9471 161.681 6.73684 136.839 4.21053C136.418 4.21053 136.418 4.21053 135.997 4.21053C134.312 4.21053 133.049 3.78906 131.365 3.78906C130.944 3.78906 130.944 3.78906 130.523 3.78906C128.839 3.78906 127.155 3.78906 125.47 3.78906C56.8388 3.78906 0.838867 74.1048 0.838867 161.263C0.838867 248.421 56.4177 318.737 125.47 318.737C194.102 318.737 250.102 248.421 250.102 161.263C250.102 159.579 250.102 157.895 250.102 156.211C250.102 155.789 250.102 155.368 250.102 154.947C250.102 153.684 250.102 152.421 250.102 151.157C250.102 150.736 250.102 150.316 250.102 150.316C250.102 146.947 249.681 143.579 249.26 140.21C249.26 140.21 249.26 140.211 249.26 139.789C248.418 132.632 247.155 125.894 245.891 119.157C254.312 116.21 260.628 108.632 260.628 99.3684ZM125.891 312.421C60.6283 312.421 7.57571 244.632 7.57571 160.842C7.57571 77.0526 60.6283 9.26295 125.891 9.26295C154.523 9.26295 180.628 22.3155 200.839 43.368C200.839 44.2101 200.839 45.4737 200.839 46.7368C200.839 59.7895 210.102 70.3154 222.312 72.8417C224.418 76.6312 226.523 80.4211 228.207 84.6316C223.997 88 221.47 93.4737 221.47 99.3684C221.47 104.421 223.576 109.473 226.944 113.263C230.312 116.631 234.523 118.737 239.576 118.737C242.523 132.211 244.207 146.105 244.207 160.842C244.207 244.632 191.155 312.421 125.891 312.421Z" fill="#BDA888"/>
<path d="M148.205 206.736C148.626 205.052 149.889 201.684 150.31 198.737C150.31 198.737 149.889 198.736 149.889 198.315C149.047 197.894 147.784 197.895 146.942 197.895C144.837 197.895 142.31 197.894 140.205 198.315C138.521 198.736 136.837 199.157 135.152 199.578C135.994 201.263 138.1 205.052 139.363 207.579C142.731 206.316 146.521 206.736 148.205 206.736Z" fill="#CC6328"/>
<path d="M163.783 196.21C161.257 195.789 159.152 195.368 156.626 194.526C156.626 194.947 156.204 195.368 156.204 195.79C155.783 197.053 154.941 198.316 154.099 200L153.257 201.263L151.994 200.421C151.573 203.789 150.31 207.579 149.889 208.421C151.573 211.368 153.257 214.737 154.941 218.105C156.204 220.632 157.468 223.158 158.31 225.684C161.257 210.105 162.941 200.421 163.783 196.21Z" fill="#5A3714"/>
<path d="M127.994 143.579C127.152 143.579 124.626 147.368 122.521 151.158C124.205 151.579 125.889 151.579 127.573 152C129.257 152 130.942 152.421 132.205 152.421C130.521 148.211 128.415 144 127.994 143.579Z" fill="white"/>
<path d="M138.943 147.369C138.101 147.369 135.996 150.316 135.153 152C135.153 152 135.153 152.421 134.732 152.421C135.575 152.421 136.417 152.421 137.68 152.421C139.364 152.421 141.469 152.421 143.153 152.421C141.89 149.895 139.785 147.369 138.943 147.369Z" fill="white"/>
<path d="M130.942 306.526C159.574 306.526 203.785 268.211 203.785 250.526C198.311 233.684 185.679 215.579 180.627 209.263C180.206 214.737 179.363 220.631 178.1 221.473H177.679H177.258C173.469 221.894 170.1 222.736 169.679 223.579C170.1 224 170.521 224 170.942 224.421C172.627 225.684 175.995 227.79 175.995 232.421C175.995 236.632 165.048 258.947 156.206 276.21L144.416 295.579C146.942 282.105 150.311 265.263 151.153 261.473L150.732 260.631C142.311 247.579 127.995 242.105 120.837 239.158C118.311 238.316 117.469 237.894 117.048 237.473C115.785 236.21 116.206 232.842 116.627 228.211C116.627 227.368 117.048 226.105 117.048 225.263C116.627 225.684 116.206 225.684 115.363 226.105C113.679 227.368 111.153 228.631 108.627 229.052C104.837 229.473 74.5213 207.158 68.2055 201.263C64.8371 204.211 49.6792 218.947 38.7318 238.315C38.3108 274.105 95.1529 306.526 130.942 306.526Z" fill="#911A1D"/>
<path d="M133.888 264C133.888 264.842 133.046 265.684 131.783 265.684L126.309 266.526C116.204 268.21 105.678 268.631 95.1512 267.789L84.2038 266.526C81.6775 266.105 79.5723 264.842 79.5723 263.158V259.368C79.5723 258.947 79.9933 258.105 80.4144 258.105C81.2565 257.263 82.0986 257.263 83.3617 257.263H83.7828L91.7828 258.526C100.204 259.368 109.046 259.368 117.888 258.526L131.362 257.263C132.204 257.263 133.046 257.263 133.467 257.684C133.467 257.684 133.888 258.105 133.888 258.526V264Z" fill="#213521"/>
<path d="M157.891 227.79C157.049 224.421 155.365 221.053 153.681 217.685C151.996 214.737 150.312 211.369 148.628 208.422C147.365 208.422 143.575 208.001 139.365 209.685L138.944 211.791V212.211C139.365 213.053 140.207 214.316 140.628 215.158L141.049 216.001L140.207 216.421C139.786 216.842 139.365 216.843 138.523 216.843L137.681 231.58C144.418 240.001 149.891 247.159 152.418 250.527C154.944 242.106 156.207 234.527 157.891 227.79Z" fill="#CC6328"/>
<path d="M150.731 120.842C150.731 125.053 154.1 128.421 158.31 128.421C162.521 128.421 165.889 125.053 165.889 120.842C165.889 116.632 162.521 113.263 158.31 113.263C154.1 113.263 150.731 116.632 150.731 120.842Z" fill="white"/>
<path d="M126.309 120.842C126.309 116.632 122.941 113.263 118.73 113.263C114.52 113.263 111.151 116.632 111.151 120.842C111.151 125.053 114.52 128.421 118.73 128.421C122.941 128.421 126.309 125.053 126.309 120.842Z" fill="white"/>
<path d="M77.0472 183.579L74.0999 186.105C77.0472 187.79 79.9946 188.632 83.363 189.474C87.1525 190.316 90.942 190.737 94.7314 190.316H95.9946C96.4157 190.316 96.8367 190.316 97.6788 190.316C98.942 190.316 99.7841 190.316 101.047 190.316C103.153 190.316 105.258 190.737 107.363 191.579C111.152 192.842 114.1 194.948 116.626 197.895C117.047 197.474 117.468 197.474 117.889 197.053C118.731 196.632 119.152 196.211 119.995 195.79C121.258 194.948 122.521 194.527 123.784 194.105C123.363 193.263 123.363 192.421 122.942 192C123.784 191.579 124.626 191.579 125.047 192.421C125.468 192.842 125.468 193.263 125.468 193.684C125.889 194.527 126.31 195.369 126.31 196.632C126.731 197.895 127.152 199.158 127.152 200.421C128.837 199.579 130.521 198.737 132.205 198.316C134.31 197.473 136.837 196.631 138.942 196.21C141.468 195.789 143.574 195.369 146.1 195.79C147.363 195.79 148.626 195.789 149.889 196.21C150.31 196.21 151.152 196.632 151.574 197.053C151.574 197.053 151.995 197.052 151.995 197.473C152.416 196.631 152.837 195.79 153.258 194.948C153.679 194.105 154.1 193.684 154.1 192.842C154.521 192 155.363 191.579 156.626 191.579C156.626 192 156.205 192.421 156.205 192.842C157.468 193.263 158.731 193.684 159.995 193.684C161.679 194.105 163.363 194.105 165.047 194.105C166.731 194.105 168.416 193.684 169.679 193.263C170.521 192.842 171.363 192.842 172.205 192C172.205 192 172.205 192 171.784 192C171.363 191.579 170.521 191.158 170.1 190.316C169.679 189.895 168.837 189.053 168.416 188.211C167.995 187.369 167.574 186.527 167.152 185.684L166.731 184.842L167.574 184.421C168.837 183.579 169.679 182.737 170.521 181.895C170.942 181.474 171.363 181.052 171.784 180.21L172.205 179.79C171.784 179.369 171.363 178.947 171.363 178.526C170.942 177.684 170.1 176.842 170.1 175.579C169.679 174.737 169.679 173.474 169.258 172.632C169.258 171.79 169.258 170.526 169.258 169.684H170.942V170.948C171.784 171.369 172.205 171.369 173.047 171.369C173.468 171.369 173.468 171.369 173.889 171.369C173.468 170.527 173.468 169.684 173.468 169.263C173.468 168 173.468 166.737 173.468 165.473C173.468 163.789 173.889 162.527 173.889 160.842C173.047 160 172.205 159.158 171.363 158.316C170.521 157.895 170.1 157.053 169.258 156.632C168.837 156.211 168.416 156.211 168.416 155.79C168.416 156.632 168.416 157.053 168.416 157.895C168.416 159.158 167.995 160.421 167.152 161.263C166.31 162.105 165.468 162.947 164.626 163.789C163.784 164.21 162.521 164.632 161.679 165.053C161.258 165.895 160.416 167.158 159.574 167.579L159.152 166.737C159.995 165.895 160.416 165.053 160.837 164.211C160.837 163.79 161.258 162.948 161.258 162.527C157.468 163.79 153.679 164.631 149.889 165.473C145.679 166.316 141.047 166.737 136.837 166.737C132.626 166.737 127.995 166.316 123.784 165.895C121.679 165.473 119.574 165.053 117.468 164.632C116.205 164.211 115.363 164.21 114.1 163.789C113.679 163.789 112.837 163.368 112.416 163.368C111.995 163.368 111.574 162.948 111.574 162.948C111.574 162.948 111.574 162.947 111.574 163.368C110.731 164.631 109.468 165.895 108.626 166.737L107.784 165.895C108.626 165.052 109.889 163.79 110.731 162.948C111.152 162.105 111.995 161.263 112.416 160C111.152 160 109.889 160 108.626 159.579C106.942 159.158 105.679 158.737 103.995 158.316C102.31 157.895 101.047 157.053 99.7841 156.211C98.5209 155.369 97.2578 154.527 95.9946 153.684L95.1525 153.263L95.9946 152.421L101.047 147.79C100.626 147.369 100.205 146.527 99.7841 145.684C99.363 144.842 98.942 144 98.5209 142.737V141.895H99.363C99.7841 141.895 100.205 141.895 100.205 141.474C100.626 141.474 101.047 141.053 101.047 141.053C101.468 141.053 101.468 140.631 101.889 140.631C101.047 139.789 100.205 138.947 99.7841 138.105C98.942 136.842 98.5209 135.579 97.6788 134.316C97.2578 133.052 96.8367 131.79 96.4157 130.527C96.4157 129.684 95.9946 129.263 95.9946 128.421L95.5735 126.316L95.1525 124.632L96.8367 125.053C97.6788 125.474 98.942 125.895 99.7841 125.895C100.205 125.895 100.626 125.895 101.468 125.895H101.889C101.889 125.473 101.468 125.053 101.468 124.632C101.468 123.79 101.047 122.948 101.047 122.105C101.047 120.421 101.047 118.737 101.468 117.052C101.889 115.368 102.31 113.684 102.731 112L103.574 109.474L104.416 107.79C103.574 107.369 103.152 106.948 102.31 106.105C101.468 105.263 101.047 104 100.626 103.158C100.205 100.632 100.626 98.1051 102.31 96.4208L102.731 95.9998L103.153 96.8423C104.416 98.5265 106.1 99.7893 108.205 100.21C109.889 100.631 111.574 101.053 113.258 101.053C112.416 99.7897 111.574 98.5265 111.152 96.8423C110.731 96.0002 110.731 95.1577 110.31 93.8945C110.31 93.0524 110.31 91.7897 110.731 90.9476L111.995 91.3686C111.995 91.7897 111.995 92.2107 111.995 92.6318C112.416 92.6318 112.837 92.6318 113.679 92.6318C114.521 92.6318 115.363 93.0524 115.784 93.8945C117.047 94.7366 117.889 96.0002 118.31 97.2634C119.153 98.5265 119.574 99.7893 120.416 100.631C120.837 101.473 121.258 101.895 122.1 102.316C122.1 101.895 122.521 101.895 122.521 101.474C122.942 100.632 123.363 99.3682 123.784 98.5261L124.626 96.8423L125.468 98.1051C127.995 101.895 130.942 105.684 134.31 108.631C135.995 110.316 137.679 111.579 139.784 112.842C141.047 113.684 142.731 114.526 144.416 115.368C143.995 113.263 143.574 111.579 143.574 109.474C143.574 108.211 143.152 106.948 143.152 105.684C143.152 104.421 143.152 103.158 143.152 101.895L143.574 100.21L144.837 101.474C145.679 101.895 146.1 102.737 146.942 103.158C147.363 103.579 147.784 103.579 148.626 104C149.047 101.895 149.047 100.21 149.468 98.1051C149.889 95.9998 150.31 93.895 151.152 91.3686L152.416 91.7893C151.995 92.6314 151.995 93.4735 151.574 94.3156C151.574 94.3156 151.574 94.3156 151.995 94.3156C152.416 94.3156 152.837 94.3156 153.258 94.3156C154.1 94.3156 154.942 94.7371 155.784 95.1581H156.205V95.5792C156.626 96.8423 157.468 98.1055 157.889 99.3686C158.731 100.632 159.152 101.895 159.995 102.737C160.837 104 161.258 105.263 161.679 106.526C162.1 107.368 162.1 108.632 162.1 109.474H166.731V112L159.995 111.579C163.784 112.421 166.731 116.211 166.731 120C166.731 121.684 166.31 123.79 165.047 125.053C165.047 127.158 165.468 129.263 166.31 131.369C166.731 132.211 167.152 133.053 167.995 133.474C168.837 133.895 169.679 133.895 170.521 133.895H171.363V134.737C171.784 136.842 171.363 138.948 170.521 141.053C170.1 141.895 169.679 143.158 168.837 143.579C168.416 144 167.574 144.842 166.731 144.842C166.731 145.684 166.731 146.105 167.152 146.947C167.574 147.789 167.574 148.632 167.995 149.474H168.416C171.363 150.316 173.889 151.579 175.995 153.263C175.995 152.421 175.995 151.158 175.995 150.316C175.995 149.053 175.995 148.21 175.574 146.947C175.574 146.526 175.152 145.684 175.152 145.263C175.152 144.842 174.731 144 174.731 144L173.468 141.895H175.995C176.416 141.895 176.837 141.895 177.258 141.895C177.679 141.895 178.1 141.895 178.521 141.474C178.942 141.053 179.363 141.052 179.784 140.631C176.416 136.421 174.31 131.369 172.626 126.316C171.784 123.79 171.363 120.842 170.521 117.895C170.1 116.632 170.1 114.948 169.679 113.684L169.258 111.579C169.258 111.158 168.837 110.316 168.837 109.895C167.995 107.369 166.731 104.842 165.468 102.737C164.205 100.21 162.942 97.6844 161.679 95.1581C160.416 92.6318 159.152 90.1055 158.731 87.1581C158.31 85.895 158.31 84.2107 158.731 82.5265C159.152 81.2634 159.574 80.4208 160.416 79.5787C156.626 75.3682 152.416 71.9998 148.205 68.6314C146.1 66.9472 143.574 65.6844 141.468 64.0002L142.31 64.4208C141.889 63.9998 141.047 63.5792 140.626 63.1581C138.521 61.8949 136.837 60.2107 134.731 58.9476C133.047 57.6844 130.942 55.9998 129.258 54.3156C128.416 53.8945 127.995 53.0528 127.152 52.6318C126.731 52.2107 125.889 51.3686 125.468 50.9476V51.3686C125.468 52.2107 125.468 53.0528 125.468 53.4739C125.468 53.8949 125.468 53.8945 125.468 54.3156C125.468 54.7366 125.468 55.5787 125.889 55.9998C125.889 56.8419 126.31 57.684 126.731 58.1051L126.31 58.5261L125.889 58.9476C125.468 58.1055 125.047 57.263 124.626 56.4208C124.205 55.5787 124.205 54.7371 124.205 53.4739V53.0528C122.1 51.7897 119.995 50.5265 117.889 48.8423C113.258 45.8949 109.047 42.1054 105.258 38.3159C104.837 39.158 104.837 39.5791 104.416 40.4212C103.995 41.6843 103.574 42.9476 103.153 44.2107C102.731 45.4739 102.31 46.7366 101.889 47.9998C101.468 49.2629 101.468 50.5261 101.047 51.7893C101.468 52.6314 101.889 53.0524 101.889 53.8945L101.047 54.3156L100.205 54.7371C99.7841 53.8949 99.363 53.0528 98.5209 52.6318C98.0999 52.6318 98.0999 52.2103 97.6788 52.2103C96.8367 54.7366 95.9946 57.684 95.1525 60.2103C93.8893 63.1577 92.6262 66.5265 90.942 69.4739C89.2578 72.4213 87.1525 75.3686 85.4683 77.895C83.7841 80.0002 82.0999 81.684 80.4157 83.7893C80.8367 83.7893 81.2578 83.7893 81.6788 83.7893L82.0999 84.6318L82.942 83.7893C84.2051 83.7893 85.0472 83.3686 86.3104 82.5265L86.7314 83.3682L87.1525 84.2107C85.8893 85.0528 84.6262 85.4735 83.363 85.8945C82.942 87.1577 82.0999 88.4208 81.6788 89.684C80.8367 91.3682 79.9946 93.0528 79.1525 94.7371C77.4683 98.1055 76.2051 101.474 75.363 105.263C74.5209 109.053 73.2578 112.421 72.4157 116.211C71.5735 119.158 71.1525 122.105 70.7314 125.473C71.1525 125.473 71.5735 125.473 72.4157 125.473C73.2578 125.473 73.6788 125.895 74.5209 125.895C74.5209 125.895 74.942 125.895 74.942 126.316C75.363 125.053 76.2051 123.79 76.6262 122.105L78.3104 122.948C77.8893 124.211 77.0472 125.895 76.6262 127.158C76.6262 127.579 76.6262 127.579 76.6262 128V128.842C74.942 135.158 73.6788 141.474 73.2578 147.79C72.4157 153.684 71.9946 159.579 71.5736 165.473L73.6788 164.632V162.527H75.363V166.737V168.842C75.363 169.684 75.363 170.527 74.942 170.948C74.5209 173.474 74.0999 176 73.6788 178.948C73.6788 178.948 74.0999 178.948 74.0999 179.369C74.5209 179.369 74.942 179.79 75.363 179.79C76.2051 179.79 76.6262 179.79 77.4683 179.79C77.4683 179.369 77.8893 178.526 77.8893 178.105L80.4157 178.526C80.4157 179.789 79.9946 180.632 79.5736 181.895C78.7314 181.895 77.8893 183.158 77.0472 183.579Z" fill="#5A3714"/>
<path d="M163.786 161.263C163.786 162.105 163.365 162.526 163.365 163.368C163.786 162.947 164.628 162.947 165.049 162.526C165.891 162.105 166.733 161.263 167.154 160.421C167.575 159.579 167.996 158.737 167.996 157.473C167.996 156.631 167.996 155.789 167.996 154.947C166.733 154.105 165.049 153.684 163.786 153.684C162.102 153.263 160.418 153.263 158.312 153.684H157.049C150.733 154.526 143.996 154.526 137.681 154.105C136.418 154.105 135.154 154.105 133.891 153.684C131.786 153.684 129.681 153.263 127.575 153.263C124.628 152.842 121.26 152.421 118.312 151.579C117.891 151.579 117.47 150.737 117.891 150.316C119.154 150.737 119.996 150.737 121.26 151.158C123.365 147.789 126.733 142.315 128.418 142.737C130.102 143.158 132.628 148.211 133.891 152.421C133.891 152 134.312 152 134.312 151.579C136.418 148.632 138.102 146.526 139.365 146.526C141.049 146.526 143.575 150.315 144.839 152.842C146.102 152.842 146.944 152.842 148.207 152.842C151.154 152.842 153.681 152.421 156.628 152C156.628 152 157.049 152 157.049 151.579C157.47 151.158 157.891 151.158 158.312 150.737C159.996 149.894 161.681 149.474 163.786 149.474C164.628 149.474 165.891 149.474 166.733 149.474C166.312 149.053 166.312 148.632 165.891 147.79C165.47 146.947 165.47 145.684 165.47 144.421V143.579H166.312C167.154 143.579 167.575 143.158 168.418 142.737C168.839 142.315 169.681 141.473 169.681 140.631C170.523 139.368 170.523 137.684 170.523 136C169.681 136 168.839 135.579 167.575 135.158C167.154 134.737 166.312 134.315 166.312 133.894C165.891 133.473 165.891 132.631 165.47 132.21C165.049 130.526 164.628 128.842 164.628 126.737C162.944 128.421 160.418 129.263 157.891 129.263C153.681 128.842 149.891 125.473 149.891 121.263C149.47 116.631 152.839 112.421 157.049 111.579L149.049 111.158V108.631L160.839 109.052C160.839 108.21 160.839 107.368 160.418 106.526C159.996 105.263 159.575 104 159.154 102.737C158.312 101.473 157.891 100.211 157.049 99.3685C156.207 98.1054 155.786 97.2628 154.944 95.9997C154.523 95.5786 153.681 95.5791 153.26 95.5791C152.839 95.5791 152.418 95.5791 152.418 95.5791C151.996 95.5791 151.575 95.5791 151.575 95.5791C151.575 96.0001 151.154 96.8422 151.154 97.2633C150.733 99.3685 150.312 101.474 150.312 104V104.842H149.47C148.628 104.842 148.207 104.842 147.786 104.421C147.365 104.421 146.944 104 146.523 103.579C146.102 103.158 145.681 103.158 145.26 102.737C145.26 103.158 145.26 104 145.26 104.421C145.26 105.684 145.26 106.947 145.681 108.211C146.102 110.737 146.102 113.263 146.944 115.368L147.365 117.052L145.681 116.632C143.154 115.79 141.049 114.947 138.944 113.684C136.839 112.421 134.733 110.737 133.049 109.474C129.681 106.526 127.154 103.158 124.628 99.7896C124.628 100.211 124.207 100.21 124.207 100.631C123.786 101.473 123.365 102.315 123.365 102.737L122.944 104L121.681 103.579C120.418 102.737 119.154 101.473 118.312 100.631C117.47 99.3681 116.628 98.1054 116.207 97.2633C115.365 96.0001 114.944 95.1576 114.102 94.3155C113.26 93.4734 112.418 93.4738 111.575 93.0527C111.575 93.8948 111.996 94.7369 112.418 95.5791C113.26 97.2633 114.102 98.947 114.944 100.21L115.786 101.053L114.523 101.474C112.418 101.895 109.891 101.895 107.786 101.053C106.102 100.211 103.996 99.3685 102.733 97.6843C101.891 98.9475 101.47 100.631 101.891 102.315C102.312 104 103.996 105.684 105.681 106.526L106.523 106.947L106.102 107.79L105.26 109.895L104.418 112C103.996 113.684 103.575 114.947 103.154 116.632C102.733 118.316 102.733 119.579 102.733 121.263C102.733 122.105 102.733 122.947 103.154 123.368C103.154 124.21 103.575 125.052 103.996 125.473L104.418 126.316L103.575 126.737C102.733 127.158 102.312 127.158 101.47 127.158C101.049 127.158 100.207 127.158 99.7859 127.158C98.9438 127.158 98.5228 126.737 97.6807 126.737V127.158C97.6807 128 98.1017 128.421 98.1017 129.263C98.5228 130.526 98.9438 131.79 99.3649 133.053C99.7859 134.316 100.628 135.579 101.47 136.421C102.312 137.263 103.154 138.526 103.996 139.369L104.839 139.79L104.418 140.631C103.996 141.473 103.154 141.894 102.312 142.315C101.891 142.315 101.47 142.737 101.049 142.737H100.628C100.628 143.158 101.049 144 101.47 144.421C101.891 145.263 102.312 146.105 103.154 146.947L103.575 147.79L103.154 148.211L98.5228 152.842C99.3649 153.684 100.207 154.105 101.47 154.947C102.733 155.789 103.996 156.211 105.681 156.632C106.944 157.053 108.628 157.474 109.891 157.895C111.154 158.316 112.839 158.316 114.102 158.316H114.944L114.523 159.158C114.102 160 114.102 160.842 113.681 161.684C114.102 161.684 114.102 162.105 114.523 162.105C114.944 162.105 115.365 162.526 115.786 162.526C116.628 162.947 117.891 162.947 118.733 163.368C120.839 163.789 122.944 164.211 125.049 164.632C129.26 165.474 133.47 165.473 137.681 165.473C141.891 165.473 146.102 165.053 150.312 164.211C154.523 163.369 158.733 162.526 162.523 160.842L163.786 160.421V161.263ZM109.891 120.842C109.891 117.053 112.418 113.684 115.786 112.421H108.628V109.895L128.418 109.474V112H121.26C125.049 113.263 127.575 116.632 127.575 120.421C127.575 125.474 123.786 129.263 118.733 129.263C113.681 129.684 109.891 125.474 109.891 120.842Z" fill="#E8C5AA"/>
<path d="M132.626 211.368C133.047 212.632 133.468 213.473 133.889 214.315C134.731 215.157 135.573 215.579 136.415 216C137.257 216 138.1 216 138.521 216C138.521 215.579 138.1 215.578 138.1 215.157C137.678 214.736 137.257 213.895 137.257 213.474C136.836 213.053 136.836 212.21 136.836 211.368C136.836 210.526 136.836 210.105 137.257 209.263C135.994 206.737 133.889 202.526 133.047 200.842C130.942 201.684 129.257 202.526 127.152 203.368L125.468 204.21V202.526C125.468 200.842 125.047 198.737 124.626 197.053C124.626 196.632 124.626 196.631 124.626 196.21C123.363 196.631 122.521 197.053 121.257 197.895C120.415 198.316 119.994 198.737 119.152 199.158C118.31 199.579 117.889 200 117.468 200.421L116.626 201.263L115.784 200.421C113.257 197.473 110.31 195.368 106.521 194.105C105.679 193.684 104.415 193.684 103.573 193.263C112.415 201.263 126.31 217.263 136.836 230.737L137.257 217.684H136.836C135.573 217.263 134.31 216.842 133.468 215.579C132.626 214.737 132.205 213.473 132.205 212.21L131.784 212.632C131.363 213.053 130.521 213.474 129.678 213.474C128.836 213.474 128.415 213.474 127.573 213.474C126.731 213.474 126.31 213.052 125.468 213.052L124.205 212.632L125.047 211.789C125.468 211.368 126.31 210.526 126.731 209.684C127.152 208.842 127.573 208.421 127.994 207.579C128.836 208 128.836 208.421 128.836 209.263C128.836 209.684 128.415 210.105 127.994 210.526C127.573 210.947 127.573 211.368 127.152 211.789H127.573C127.994 211.789 128.836 211.789 129.257 211.789C130.1 211.789 130.942 210.947 131.784 210.526C131.784 209.684 131.784 209.263 131.784 208.421C132.626 208.421 133.047 208.842 133.047 209.684C133.047 210.105 133.047 210.947 133.468 211.368C132.626 210.947 132.626 210.947 132.626 211.368C132.626 210.947 132.626 210.947 132.626 211.368Z" fill="#5A3714"/>
<path d="M68.627 198.316V199.158L69.4691 199.579C74.9427 204.21 104.837 226.947 108.206 226.947C110.311 226.947 112.416 225.263 114.101 224.421C116.206 223.158 117.469 222.316 118.311 223.579C118.732 224 118.732 225.263 118.311 228.211C117.89 230.316 117.469 235.368 118.311 236.21C118.732 236.631 119.995 237.052 121.68 237.473C128.416 240 142.732 245.474 151.153 258.105L152.837 253.052C149.469 248.421 115.364 204.632 100.627 192.421C99.7848 192.421 99.3638 192.421 98.5217 192.421C98.1006 192.421 97.6796 192.421 97.2585 192.421H95.5743C91.3638 192.842 87.1533 192.842 83.3638 192C79.9954 191.158 77.048 190.316 74.1006 188.631C69.8901 192.842 69.048 196.631 68.627 198.316Z" fill="#213521"/>
<path d="M146.102 288.842L154.523 253.474L154.944 252.631C161.681 221.474 165.049 202.526 165.891 196.21H166.312C167.996 196.21 170.102 196.21 171.786 195.368C172.207 195.368 172.207 195.368 172.628 194.947C174.312 195.789 177.259 197.894 178.523 199.578C178.944 200.421 179.365 203.368 178.944 206.316C178.944 211.368 177.681 218.105 176.838 219.368C173.891 219.789 168.417 220.631 167.996 222.736C167.575 223.999 168.838 224.842 169.681 225.684C171.365 226.947 174.312 228.631 173.891 231.999C172.628 242.947 146.102 288.842 146.102 288.842Z" fill="#213521"/>
<path d="M171.786 155.368C172.628 155.789 173.47 156.631 173.891 157.052C174.313 157.473 175.155 158.316 175.576 158.737C176.418 159.579 177.26 160.421 177.681 161.263C178.944 162.526 180.207 163.789 181.049 165.473C182.313 166.737 183.155 168.421 184.418 170.105L185.681 172.21L186.523 173.474L186.944 173.894L187.365 174.316C188.207 175.579 189.47 176.421 191.155 177.263C192.839 178.105 194.102 178.526 195.786 178.948C199.155 179.79 202.523 180.21 205.891 180.21C209.26 179.789 212.628 178.948 215.155 176.842C215.155 176.842 215.576 176.421 215.576 176C215.576 175.579 215.997 175.158 215.997 174.737C216.418 173.895 216.418 173.052 216.418 172.21C216.839 170.526 216.839 168.842 217.26 167.158L217.681 164.632V163.368C217.681 162.947 217.681 162.948 217.681 162.526C217.681 162.105 217.26 161.263 216.839 161.263C216.418 161.263 216.418 160.842 215.997 160.842C215.576 160.842 215.155 160.421 214.734 160.421C211.365 159.579 207.997 159.158 204.207 159.158H203.365C202.944 159.158 202.944 159.158 202.944 159.158C202.523 159.158 202.523 159.158 202.102 159.579C201.681 160 201.26 160.421 200.839 160.842C200.839 161.263 200.839 161.263 200.418 161.684V162.948C200.418 163.79 199.997 164.631 199.997 165.473C199.997 166.316 199.576 167.158 199.576 168C199.155 168.842 199.155 169.684 198.734 170.948C198.313 171.369 197.891 172.21 197.049 172.21C196.628 172.631 195.786 172.632 195.365 172.632C194.102 172.632 193.26 172.632 191.997 172.632C191.155 172.211 189.892 172.211 189.049 171.369C188.628 170.948 188.207 170.948 187.786 170.526C187.365 170.105 186.944 169.684 186.944 169.263C186.102 168 184.839 166.316 183.997 165.053C182.313 162.948 180.628 160.842 178.523 158.737C178.102 158.316 177.681 157.894 176.839 157.473C176.418 157.052 176.418 157.053 175.997 156.632C174.734 155.79 173.47 154.526 172.207 154.105C170.944 153.263 169.681 152.842 167.997 152.421C166.313 152 165.049 151.579 163.365 151.579C162.523 151.579 161.681 151.579 160.839 152C161.681 152 162.523 152 163.786 152C165.892 152.421 167.576 152.842 169.26 153.684C170.102 154.105 170.944 154.526 171.786 155.368Z" fill="#CC6328"/>
<path d="M210.1 140.21C210.1 140.631 210.1 141.474 210.1 141.895C208.416 140.631 207.574 138.526 207.574 136.421C207.574 132.631 210.521 129.263 214.732 129.263C215.153 129.263 215.574 129.263 215.574 129.263C212.626 131.789 210.1 135.999 210.1 140.21ZM226.1 136.842C226.1 130.526 221.047 125.473 214.732 125.473C208.416 125.473 203.363 130.526 203.363 136.842C203.363 143.158 208.416 148.21 214.732 148.21C221.047 148.21 226.1 143.158 226.1 136.842Z" fill="white"/>
<path d="M240.838 83.7891C231.996 83.7891 225.259 90.9474 225.259 99.3684C225.259 108.211 232.417 114.947 240.838 114.947C249.68 114.947 256.417 107.789 256.417 99.3684C256.838 90.9474 249.68 83.7891 240.838 83.7891ZM232.417 103.158C229.89 101.895 229.048 98.1053 230.311 94.7368C231.575 91.7895 234.522 89.6838 237.469 89.6838C238.311 89.6838 238.732 89.6838 239.575 90.1049C234.522 93.0522 231.996 97.2632 232.417 103.158Z" fill="white"/>
<path d="M250.522 46.7371C250.522 34.1054 239.996 24 227.364 24C214.732 24 204.206 34.5263 204.206 47.1581C204.206 59.7897 214.732 70.316 227.364 70.316C240.417 69.895 250.522 59.3686 250.522 46.7371ZM214.311 54.3156C210.522 51.7893 207.996 44.6318 211.364 37.8949C213.89 33.6844 218.522 30.3158 223.574 30.3158C224.838 30.3158 226.101 30.3157 227.364 30.7368C217.259 35.7894 213.048 43.3682 214.311 54.3156Z" fill="white"/>
<path d="M130.94 254.737L117.467 256C109.046 256.842 100.204 256.842 91.7826 256L83.7826 254.737C81.6773 254.737 79.9931 255.157 78.73 256.421C77.8879 257.263 77.4668 258.105 77.4668 258.947V262.736C77.4668 265.263 79.9931 267.789 83.7826 268.211L94.73 269.474C98.5194 269.895 102.309 269.894 106.098 269.894C112.835 269.894 119.572 269.474 126.309 268.211L131.783 267.368C133.888 266.947 135.572 265.263 135.572 263.578V257.684C135.572 256.842 135.151 256 134.73 255.579C133.888 254.737 132.625 254.737 130.94 254.737ZM133.888 264C133.888 264.842 133.046 265.684 131.783 265.684L126.309 266.526C116.204 268.21 105.677 268.631 95.151 267.789L84.2036 266.526C81.6773 266.105 79.5721 264.842 79.5721 263.158V259.368C79.5721 258.947 79.9931 258.105 80.4142 258.105C81.2563 257.263 82.0984 257.263 83.3615 257.263H83.7826L91.7826 258.526C100.204 259.368 109.046 259.368 117.888 258.526L131.362 257.263C132.204 257.263 133.046 257.263 133.467 257.684C133.467 257.684 133.888 258.105 133.888 258.526V264Z" fill="#1A110C"/>
<path d="M114.52 147.789C114.099 148.21 114.099 148.631 113.678 149.052C113.678 149.473 113.257 149.895 113.257 150.316C113.257 150.737 113.257 151.158 113.257 151.579H114.099C114.099 151.158 114.099 150.737 114.099 150.316C114.099 149.895 114.099 149.474 114.52 149.474C114.941 149.052 114.941 148.631 115.362 148.631C115.783 148.21 115.783 147.789 115.362 147.368C115.362 147.368 114.941 146.947 114.941 147.368C114.941 147.368 114.941 147.368 114.52 147.789Z" fill="#1A110C"/>
<path d="M157.891 211.79H159.154L158.733 210.527C158.733 209.684 158.312 208.421 158.312 207.579C158.312 206.737 158.312 205.473 158.312 204.631C157.47 204.631 157.049 205.052 157.049 205.895C157.049 206.737 157.049 207.158 157.049 208C157.049 208.842 157.049 209.263 157.049 210.105C156.628 210.105 156.628 210.105 156.207 210.105C155.786 210.105 155.365 210.105 154.944 210.527L154.522 210.947C154.944 211.368 155.365 211.79 156.207 211.79C156.628 211.79 157.47 211.79 157.891 211.79Z" fill="#1A110C"/>
<path d="M220.205 161.263C219.784 159.999 218.942 159.158 218.1 158.316C217.679 157.895 217.258 157.894 216.416 157.473C215.994 157.473 215.573 157.052 215.152 157.052C211.363 156.21 207.994 155.789 204.205 155.789H203.363C202.942 155.789 202.942 155.789 202.521 155.789C202.1 155.789 201.258 156.21 200.837 156.21C199.573 156.631 198.731 157.473 198.31 158.737C197.889 159.158 197.889 160 197.889 160.421V161.684C197.889 162.526 197.468 163.368 197.468 164.21C197.468 165.052 197.047 165.895 197.047 166.737C197.047 167.579 196.626 168.421 196.205 168.842C196.205 169.263 196.205 169.263 195.784 169.263C195.363 169.263 195.363 169.684 194.942 169.684C194.1 169.684 193.679 169.684 192.837 169.684C191.994 169.684 191.152 169.263 190.731 168.842C190.31 168.842 190.31 168.42 189.889 167.999C189.468 167.578 189.468 167.579 189.047 167.158C187.784 165.895 186.942 164.21 185.679 162.947L183.994 160.842C183.573 160 182.731 159.579 182.31 158.737C181.889 157.895 181.047 157.473 180.205 156.631C179.784 156.21 179.363 155.789 178.942 155.368C179.363 153.684 179.363 152 179.363 150.316C179.363 149.052 179.363 147.789 178.942 146.526C178.942 146.105 178.521 145.263 178.521 144.841C178.942 144.841 179.784 144.42 180.205 144.42C181.047 143.999 181.468 143.579 181.889 143.158C182.31 142.737 182.731 141.895 183.152 141.052L183.573 140.21L183.152 139.789C179.784 135.579 177.679 130.947 175.994 125.473C175.152 122.947 174.731 120.42 173.889 117.473C173.468 116.21 173.468 114.947 173.047 113.263L172.626 111.157C172.626 110.315 172.205 109.473 172.205 109.052C171.363 106.105 170.1 103.579 168.837 101.473C167.573 98.9471 166.31 96.4204 165.047 94.3151C163.784 91.7888 162.942 89.2629 162.1 86.7366C161.679 85.4735 161.679 84.2099 162.1 83.3678C162.521 82.5257 162.942 81.684 163.784 80.8419L165.047 79.9998L163.784 78.7366C159.573 74.105 154.942 69.8941 149.889 66.5257C147.784 65.2625 145.679 63.9994 143.994 62.3151C143.152 61.8941 142.731 61.4735 141.889 61.0524C139.784 59.7892 138.1 58.5261 136.416 56.8419C134.731 55.5787 132.626 53.8945 130.942 52.6314C129.258 50.9471 127.573 49.6836 125.889 47.9994L124.626 46.3156L124.205 48.4208C124.205 49.2629 123.784 49.684 123.784 50.5261C122.1 49.684 120.837 48.4204 119.152 47.5783C114.1 44.2099 109.468 40.4208 105.679 35.7892L104.416 34.5259L103.573 36.2102C102.731 37.4734 102.31 38.7366 101.889 39.9998C101.468 41.2629 101.047 42.5261 100.626 44.2103C100.205 45.4735 99.7839 47.1577 99.7839 48.4208C99.7839 48.8419 99.784 49.6836 99.3629 50.1046C98.9418 49.6836 98.5208 49.2629 98.0997 48.8419L96.8366 48.4208L96.4155 49.6836C95.5734 52.6309 94.3103 55.9998 93.0471 58.9471C91.7839 61.8945 90.5208 64.8419 88.8366 67.7892C87.1524 70.7366 85.4682 73.2629 83.3629 75.7892C81.2576 78.3156 79.1524 80.8415 77.0471 83.3678L75.3629 85.0524L77.4682 85.473C78.3103 85.473 79.1524 85.473 79.9945 85.473C79.5734 86.3151 79.1524 86.7362 78.7313 87.5783C77.8892 89.2625 77.0471 90.9471 76.205 92.6314C74.5208 95.9998 73.2576 99.7893 71.9945 103.579C70.7313 107.368 69.8892 110.737 69.0471 114.526C68.205 118.316 67.3629 122.105 66.9418 125.473L66.5208 127.578L68.626 127.158C69.0471 127.158 69.4682 126.737 69.8892 126.737C70.3103 126.737 70.7313 126.737 71.1524 126.737C71.5734 126.737 71.9945 126.737 71.9945 127.158C71.9945 127.158 71.9945 127.158 72.4155 127.158C70.7313 133.473 69.8892 139.368 69.0471 145.684C68.6261 149.052 68.205 152.42 68.205 155.368C67.7839 158.736 67.784 162.105 67.784 165.052V167.158L69.4682 166.316L72.4155 165.473C72.4155 166.736 71.9945 168 71.9945 169.263C71.5734 172.21 70.7313 174.737 70.3103 177.684L69.8892 178.526L70.3103 178.947C70.7313 179.368 71.5734 179.789 71.9945 180.21C72.4155 180.631 73.2576 180.631 73.6787 181.052C74.0997 181.052 74.0997 181.052 74.5208 181.052L70.3103 184.841L69.0471 186.105L70.3103 186.947C70.3103 186.947 70.7313 186.947 70.7313 187.368C67.3629 191.158 66.0997 195.368 65.6787 197.473C65.2576 197.894 43.7839 217.263 31.1525 242.947L30.7314 244.21L33.2578 245.473L33.6788 244.21C45.0471 221.473 63.5734 203.789 66.9418 200.42C73.2576 206.315 103.152 228.631 107.363 228.21C109.889 227.789 112.416 226.526 114.1 225.263C114.521 224.842 115.363 224.421 115.784 224.421C115.784 225.263 115.784 226.105 115.363 227.368C114.942 232 114.521 235.368 115.784 236.631C116.205 237.052 117.468 237.473 119.573 238.315C126.731 240.841 141.047 246.737 149.468 259.789L149.889 260.631C147.784 270.736 145.258 281.684 142.731 293.895L141.889 298.105L144.416 294.315C149.468 287.578 174.731 238.316 174.731 231.579C174.731 227.368 171.784 224.841 169.679 223.578C169.258 223.157 168.837 223.157 168.415 222.736C168.837 221.894 172.626 221.052 175.994 220.631H176.416H176.837C178.1 219.368 179.363 213.895 179.363 208.421C184.837 215.579 199.994 237.052 204.205 255.579L206.731 255.157C201.679 231.999 180.626 205.473 179.784 204.21C179.784 201.263 179.363 198.737 178.942 197.895C177.679 196.21 175.573 194.526 173.468 193.263C174.31 192.841 175.152 192.421 175.573 192L176.837 190.736L175.152 189.895C174.731 189.473 173.889 189.052 173.468 188.631C173.047 188.21 172.205 187.789 171.784 187.368C170.942 186.526 170.521 186.105 170.1 185.263C170.942 184.421 171.784 184 172.626 183.158C173.047 182.737 173.468 181.895 173.889 181.473C174.31 181.052 174.731 180.21 175.152 179.368L175.994 178.105L174.731 177.263C174.731 177.263 174.31 176.841 173.889 176.42C173.468 175.999 173.468 176 173.047 175.579C172.626 175.158 172.205 174.316 171.784 173.473C171.784 173.473 171.784 173.052 171.363 173.052C171.784 173.052 172.205 173.052 172.626 173.052C173.047 173.052 173.889 173.052 174.31 173.052C174.731 173.052 175.152 173.052 175.994 172.631L177.679 171.789L176.416 170.526C175.994 169.684 175.573 168.841 175.573 167.999C175.573 166.736 175.573 165.895 175.573 164.631C175.573 163.789 175.573 163.368 175.994 162.526C176.837 163.368 177.679 164.21 178.1 165.473C179.363 166.736 180.205 168.42 181.047 169.684L182.31 171.789C182.731 172.631 183.152 173.473 183.994 174.315C185.258 175.999 186.942 176.842 188.626 177.684C190.31 178.526 191.994 179.368 193.679 179.789C197.047 180.631 200.837 181.473 204.626 181.052C208.416 180.631 212.205 179.789 215.152 177.263C215.573 176.842 215.994 176 216.416 175.579C216.837 175.158 216.837 174.736 216.837 174.315C217.258 173.473 217.258 172.631 217.679 171.368C218.1 169.684 218.1 167.578 218.521 165.894L218.942 163.368V162.105C220.626 162.526 220.626 162.105 220.205 161.263ZM215.573 175.579C215.573 176 215.152 175.999 215.152 176.42C212.626 178.526 209.258 179.368 205.889 179.789C202.521 180.21 199.152 179.789 195.784 178.526C194.1 178.105 192.416 177.263 191.152 176.842C189.468 176 188.205 175.157 187.363 173.894L186.942 173.473L186.521 173.052L185.679 171.789L184.416 169.684C183.573 167.999 182.31 166.737 181.047 165.052C179.784 163.789 178.942 162.105 177.679 160.842C176.837 160 175.994 159.158 175.573 158.316C175.152 157.895 174.31 157.052 173.889 156.631C173.047 156.21 172.626 155.368 171.784 154.947C170.942 154.526 170.1 154.105 169.258 153.263C167.573 152.42 165.889 151.579 163.784 151.579C162.942 151.579 162.1 151.579 160.837 151.579C161.679 151.579 162.521 151.157 163.363 151.157C165.047 151.157 166.31 151.579 167.994 152C169.258 152.421 170.942 152.842 172.205 153.684C173.468 154.526 174.731 155.368 175.994 156.21C176.416 156.631 176.415 156.631 176.837 157.052C177.258 157.473 177.679 157.895 178.521 158.316C180.626 160.421 182.31 162.105 183.994 164.631C185.258 165.895 186.1 167.579 186.942 168.842C187.363 169.263 187.363 169.684 187.784 170.105C188.205 170.526 188.626 170.947 189.047 170.947C189.889 171.368 190.731 171.789 191.994 172.21C192.837 172.631 194.1 172.631 195.363 172.21C195.784 172.21 196.626 171.789 197.047 171.789C197.468 171.368 198.31 170.947 198.731 170.526C199.152 169.263 199.573 168.42 199.573 167.578C199.994 166.736 199.994 165.895 199.994 165.052C199.994 164.21 200.416 163.368 200.416 162.526V161.263C200.416 160.841 200.416 160.842 200.837 160.421C201.258 160 201.679 159.578 202.1 159.157C202.521 159.157 202.521 158.737 202.942 158.737H203.363H204.205C207.573 158.737 211.363 159.158 214.731 160C215.152 160 215.573 160.421 215.994 160.421C216.416 160.421 216.415 160.842 216.837 160.842C217.258 161.263 217.679 161.684 217.679 162.105C217.679 162.526 217.679 162.526 217.679 162.947V164.21L217.258 166.737C217.258 168.421 216.837 170.105 216.416 171.789C216.416 172.631 215.994 173.473 215.994 174.315C215.994 175.157 215.994 175.579 215.573 175.579ZM167.573 157.473C167.573 158.315 167.152 159.579 166.731 160.421C166.31 161.263 165.468 162.105 164.626 162.526C164.205 162.947 163.784 162.947 162.942 163.368C163.363 162.947 163.363 162.105 163.363 161.263V160L162.1 160.421C158.31 161.684 154.1 162.947 149.889 163.789C145.679 164.631 141.468 165.052 137.258 165.052C133.047 165.052 128.837 164.631 124.626 164.21C122.521 163.789 120.416 163.368 118.31 162.947C117.468 162.526 116.205 162.526 115.363 162.105C114.942 162.105 114.521 161.684 114.1 161.684C113.679 161.684 113.679 161.263 113.258 161.263C113.679 160.42 114.1 159.579 114.1 158.737L114.521 157.895H113.679C112.416 157.895 110.731 157.473 109.468 157.473C108.205 157.052 106.521 156.631 105.258 156.21C103.994 155.789 102.31 154.947 101.047 154.526C100.205 154.105 98.9418 153.263 98.0997 152.421L102.731 147.789L103.152 147.368L102.731 146.526C102.31 145.684 101.468 144.842 101.047 144C100.626 143.579 100.626 142.736 100.205 142.315H100.626C101.047 142.315 101.468 141.895 101.889 141.895C102.731 141.473 103.152 141.052 103.994 140.21L104.416 139.368L103.573 138.947C102.731 138.105 101.889 137.263 101.047 135.999C100.205 134.736 99.7839 133.895 98.9418 132.631C98.5208 131.368 98.0997 130.105 97.6787 128.842C97.6787 128 97.2576 127.579 97.2576 126.737V126.316C98.0997 126.316 98.5208 126.737 99.3629 126.737C99.784 126.737 100.626 126.737 101.047 126.737C101.889 126.737 102.31 126.737 103.152 126.316L103.994 125.894L103.573 125.052C103.152 124.631 103.152 123.789 102.731 122.947C102.731 122.105 102.31 121.263 102.31 120.842C102.31 119.158 102.31 117.895 102.731 116.21C103.152 114.526 103.573 113.263 103.994 111.579L104.837 109.473L105.679 107.368L106.1 106.526L105.258 106.105C103.573 105.263 101.889 104 101.468 101.895C101.047 100.21 101.468 98.5261 102.31 97.2629C103.573 98.9471 105.679 99.7888 107.363 100.631C109.468 101.473 111.994 101.473 114.1 101.052L115.363 100.631L114.521 99.7893C113.258 98.5261 112.416 96.8419 111.994 95.1577C111.573 94.3156 111.573 93.4735 111.152 92.6314C111.994 92.6314 112.837 93.052 113.679 93.8941C114.521 94.7362 115.363 95.9998 115.784 96.8419C116.626 98.105 117.047 99.3678 117.889 100.21C118.731 101.473 119.573 102.316 121.258 103.158L122.521 103.579L122.942 102.315C122.942 101.473 123.363 101.052 123.784 100.21C123.784 99.7888 124.205 99.7893 124.205 99.3682C126.731 103.158 129.258 106.105 132.626 109.052C134.31 110.736 136.416 111.999 138.521 113.263C140.626 114.526 142.731 115.789 145.258 116.21L146.942 116.631L146.521 114.947C145.679 112.841 145.679 110.316 145.258 107.789C145.258 106.526 144.837 105.263 144.837 104C144.837 103.579 144.837 102.736 144.837 102.315C145.258 102.736 145.679 102.737 146.1 103.158C146.521 103.579 146.942 103.579 147.363 104C147.784 104 148.626 104.42 149.047 104.42H149.889V103.579C150.31 101.473 150.31 99.3682 150.731 96.8419C150.731 96.4208 151.152 95.5787 151.152 95.1577C151.573 95.1577 151.573 95.1577 151.994 95.1577C152.416 95.1577 152.837 95.1577 152.837 95.1577C153.679 95.1577 154.1 95.5787 154.521 95.5787C155.363 96.4208 155.784 97.684 156.626 98.9471C157.468 100.21 157.889 101.473 158.731 102.315C159.573 103.578 159.994 104.842 159.994 106.105C159.994 106.947 160.416 107.789 160.416 108.631L148.626 108.21V110.736L156.626 111.157C151.994 111.999 149.047 115.789 149.468 120.842C149.889 125.052 153.258 128.421 157.468 128.842C159.994 128.842 162.521 128 164.205 126.316C164.205 128 164.626 129.684 165.047 131.789C165.047 132.21 165.468 133.052 165.889 133.473C166.31 133.895 166.731 134.316 167.152 134.737C167.994 135.158 168.837 135.579 170.1 135.579C170.1 137.263 169.679 138.526 169.258 140.21C168.837 141.052 168.416 141.894 167.994 142.315C167.573 142.736 166.731 143.158 165.889 143.158H165.047V144C165.047 145.263 165.468 146.105 165.468 147.368C165.468 147.789 165.889 148.631 166.31 149.052C165.468 149.052 164.205 148.631 163.363 149.052C161.679 149.052 159.573 149.473 157.889 150.316C157.468 150.316 157.047 150.736 156.626 151.157C156.626 151.157 156.205 151.158 156.205 151.579C153.679 152 150.731 152 147.784 152.421C146.521 152.421 145.679 152.421 144.416 152.421C143.152 149.895 140.626 146.105 138.942 146.105C137.679 146.105 135.994 148.21 133.889 151.157C133.889 151.578 133.468 151.579 133.468 152C131.784 148.21 129.679 142.736 127.994 142.315C126.31 141.894 122.942 147.368 120.837 150.736C119.573 150.315 118.731 150.316 117.468 149.895C117.468 150.316 117.468 150.736 117.889 151.157C120.837 151.999 124.205 152.42 127.152 152.841C129.258 153.263 131.363 153.263 133.468 153.263C134.731 153.263 135.994 153.263 137.258 153.684C143.573 154.105 150.31 154.105 156.626 153.263H157.889C159.573 153.263 161.258 153.263 163.363 153.263C165.047 153.684 166.31 154.105 167.573 154.526C167.994 155.789 167.994 156.631 167.573 157.473ZM158.31 128.421C154.1 128.421 150.731 125.052 150.731 120.842C150.731 116.631 154.1 113.263 158.31 113.263C162.521 113.263 165.889 116.631 165.889 120.842C165.889 125.052 162.521 128.421 158.31 128.421ZM143.152 152.421C141.468 152.421 139.363 152.421 137.679 152.421C136.837 152.421 135.994 152.421 134.731 152.421C134.731 152.421 134.731 152 135.152 152C136.416 150.316 138.521 147.368 138.942 147.368C139.784 147.368 141.889 149.895 143.152 152.421ZM132.205 152C130.521 152 128.837 151.579 127.573 151.579C125.889 151.579 124.205 151.157 122.521 150.736C124.626 146.947 127.152 143.579 127.994 143.158C128.416 144 130.521 148.21 132.205 152ZM116.626 201.263L117.468 200.42C117.889 199.999 118.731 199.579 119.152 199.158C119.994 198.737 120.416 198.316 121.258 197.895C122.1 197.473 123.363 196.631 124.626 196.21C124.626 196.631 124.626 196.631 124.626 197.052C125.047 198.737 125.047 200.841 125.468 202.526V204.21L127.152 203.368C129.258 202.526 130.942 201.684 133.047 200.842C133.889 202.526 135.994 206.737 137.258 209.263C136.837 210.105 136.837 210.947 136.837 211.368C136.837 212.21 137.258 212.631 137.258 213.473C137.679 213.895 137.679 214.736 138.1 215.157C138.1 215.578 138.521 215.579 138.521 216C137.679 216 136.837 216.421 136.416 216C135.573 216 134.31 215.157 133.889 214.315C133.047 213.473 132.626 212.21 132.626 211.368V210.947C132.626 210.526 132.626 209.684 132.205 209.263C132.205 208.421 131.784 207.999 130.942 207.999C130.942 208.841 130.942 209.263 130.942 210.105C130.1 210.947 129.258 211.368 128.416 211.368C127.994 211.368 127.573 211.368 126.731 211.368H126.31C126.731 210.947 126.731 210.526 127.152 210.105C127.573 209.684 127.573 209.263 127.994 208.841C128.416 208.42 127.994 207.579 127.152 207.158C126.731 208 126.31 208.421 125.889 209.263C125.468 210.105 125.047 210.526 124.205 211.368L123.363 212.21L124.626 212.631C125.468 213.052 125.889 213.052 126.731 213.052C127.573 213.052 127.994 213.052 128.837 213.052C129.679 213.052 130.1 212.631 130.942 212.21C130.942 212.21 131.363 212.21 131.363 211.789C131.784 213.052 132.205 213.894 132.626 215.157C133.468 216.42 134.731 217.263 135.994 217.263C136.416 217.263 136.416 217.263 136.416 217.263L135.994 230.316C125.047 216.842 111.573 200.841 102.731 192.841C103.573 192.841 104.837 193.263 105.679 193.684C109.468 194.947 112.416 197.052 114.942 200L116.626 201.263ZM156.205 195.368C156.205 194.947 156.626 194.526 156.626 194.105C158.731 194.947 161.258 195.789 163.784 195.789C162.942 200 161.258 209.684 158.31 224.421C157.468 221.895 156.205 219.368 154.942 216.842C153.258 213.473 151.573 210.526 149.889 207.158C150.31 205.895 151.573 202.105 151.994 199.158L153.258 200L154.1 198.737C154.942 198.316 155.784 196.631 156.205 195.368ZM121.258 237.473C119.573 237.052 118.31 236.21 117.889 236.21C117.047 235.368 117.889 230.737 117.889 228.21C118.31 225.263 118.31 223.999 117.889 223.578C117.047 222.315 115.784 223.158 113.679 224.421C111.994 225.263 109.889 226.947 107.784 226.947C104.416 226.947 74.5208 204.631 69.0471 199.578L68.205 199.158V198.315C68.626 196.631 69.4682 192.42 72.8366 189.052C75.7839 190.736 79.1524 191.579 82.0997 192.421C86.3103 193.263 90.5208 193.263 94.3103 192.841H95.9945C96.4155 192.841 96.8366 192.841 97.2576 192.841C98.0997 192.841 98.5208 192.841 99.3629 192.841C114.1 204.631 148.205 248.842 151.573 253.473L149.889 258.526C142.31 245.473 127.994 239.999 121.258 237.473ZM138.942 217.263C139.363 217.263 140.205 216.842 140.626 216.842L141.468 216.42L141.047 215.579C140.205 214.737 139.784 213.473 139.363 212.631V212.21L139.784 210.105C143.573 208.42 147.784 208.841 149.047 208.841C150.731 211.789 152.837 214.737 154.1 218.105C155.784 221.473 157.047 224.842 158.31 228.21C157.047 234.947 155.363 242.526 153.679 250.947C151.152 247.999 145.679 240.42 138.942 231.999V217.263ZM148.205 206.736C146.521 206.736 142.731 206.315 138.942 207.999C137.679 205.473 135.573 201.684 134.731 200C136.416 199.579 138.1 198.737 139.784 198.737C141.889 198.316 144.416 198.315 146.521 198.315C147.784 198.315 148.626 198.316 149.468 198.737C149.468 198.737 149.889 198.737 149.889 199.158C149.889 201.684 148.626 205.052 148.205 206.736ZM146.1 288.841L154.521 253.473L154.942 252.631C161.679 221.473 165.047 202.526 165.889 196.21H166.31C167.994 196.21 170.1 196.21 171.784 195.368C172.205 195.368 172.205 195.368 172.626 194.947C174.31 195.789 177.258 197.894 178.521 199.578C178.942 200.42 179.363 203.368 178.942 206.316C178.942 211.368 177.679 218.105 176.837 219.368C173.889 219.789 168.416 220.631 167.994 222.736C167.573 223.999 168.837 224.841 169.679 225.684C171.363 226.947 174.31 228.631 173.889 231.999C172.626 242.947 146.1 288.841 146.1 288.841ZM174.731 169.263C174.731 170.105 175.152 170.947 175.152 171.368C174.731 171.368 174.731 171.368 174.31 171.368C173.468 171.368 173.047 171.368 172.205 170.947V169.684H170.521C170.521 170.526 170.521 171.789 170.521 172.631C170.521 173.473 170.942 174.737 171.363 175.579C171.784 176.421 172.205 177.262 172.626 178.526C173.047 178.947 173.468 179.368 173.468 179.789L173.047 180.21C172.626 180.631 172.205 181.052 171.784 181.895C170.942 182.737 169.679 183.578 168.837 184.42L167.994 184.841L168.415 185.684C168.837 186.526 169.258 187.368 169.679 188.21C170.1 189.052 170.521 189.473 171.363 190.316C171.784 190.737 172.626 191.579 173.047 192C173.047 192 173.047 192 173.468 192C172.626 192.421 171.784 192.841 170.942 193.263C169.258 193.684 167.994 193.684 166.31 194.105C164.626 194.105 162.942 194.105 161.258 193.684C159.994 193.263 158.731 193.263 157.468 192.841C157.468 192.42 157.889 192 157.889 191.579C157.047 191.158 155.784 191.578 155.363 192.841C154.942 193.684 154.521 194.105 154.521 194.947C154.1 195.789 153.679 196.631 153.258 197.473C153.258 197.473 152.837 197.473 152.837 197.052C152.416 196.631 151.573 196.631 151.152 196.21C149.889 195.789 148.626 195.789 147.363 195.789C144.837 195.789 142.731 195.789 140.205 196.21C137.679 196.631 135.573 197.473 133.468 198.315C131.784 199.157 130.1 199.578 128.416 200.42C127.994 199.157 127.994 197.895 127.573 196.631C127.152 195.789 127.152 194.947 126.731 193.684C126.731 193.263 126.31 192.842 126.31 192.421C125.889 191.579 125.047 191.579 124.205 192C124.626 192.842 125.047 193.263 125.047 194.105C123.784 194.526 122.521 194.947 121.258 195.789C120.416 196.21 119.573 196.631 119.152 197.052C118.731 197.473 118.31 197.473 117.889 197.895C115.363 194.947 111.994 192.842 108.626 191.579C106.521 190.737 104.416 190.316 102.31 190.316C101.047 190.316 100.205 190.316 98.9418 190.316C98.5208 190.316 98.0997 190.316 97.2576 190.316H95.9945C92.205 190.737 88.4155 190.316 84.6261 189.473C81.2576 188.631 78.3103 187.789 75.3629 186.105L78.3103 183.579C79.1524 182.737 79.5734 181.894 79.9945 180.631C80.4155 179.789 80.8366 178.526 80.8366 177.263L78.3103 176.842C78.3103 177.263 77.8892 178.105 77.8892 178.526C77.0471 178.526 76.6261 178.947 75.7839 178.526C75.3629 178.526 74.9418 178.105 74.5208 178.105C74.5208 178.105 74.0997 178.105 74.0997 177.684C74.5208 175.158 74.9418 172.631 75.3629 169.684C75.3629 168.841 75.3629 167.999 75.7839 167.578V165.473V161.263H74.0997V163.368L71.9945 164.21C72.4155 158.316 72.8366 152.42 73.6787 146.526C74.5208 140.21 75.3629 133.473 77.0471 127.578V126.737C77.0471 126.316 77.0471 126.315 77.0471 125.894C77.4682 124.631 77.8892 122.947 78.7313 121.684L77.0471 120.842C76.205 122.105 75.7839 123.368 75.3629 125.052L74.9418 124.631C74.5208 124.21 73.6787 124.21 72.8366 124.21C72.4155 124.21 71.9945 124.21 71.1524 124.21C71.5734 121.263 72.4155 118.315 72.8366 114.947C73.6787 111.157 74.5208 107.789 75.7839 104C76.6261 100.631 78.3103 96.8419 79.5734 93.4735C80.4155 91.7893 81.2576 90.105 82.0997 88.4208C82.9418 87.1577 83.3629 85.8945 83.7839 84.6314C85.0471 84.2103 86.3103 83.7893 87.5734 82.9471L87.1524 82.105L86.7313 81.2625C85.8892 81.6836 84.626 82.105 83.3629 82.5261H82.9418H82.5208C82.0997 82.5261 81.6787 82.5261 81.2576 82.5261C82.9418 80.8419 84.6261 78.7366 86.3103 76.6314C88.4155 74.105 90.0997 71.1577 91.7839 68.2103C93.4682 65.2629 94.7313 62.3156 95.9945 58.9471C96.8366 56.4208 97.6787 53.8945 98.5208 50.9471C98.9418 50.9471 98.9418 51.3682 99.3629 51.3682C100.205 51.7892 100.626 52.6314 101.047 53.4735L101.889 53.0524L102.731 52.6314C102.31 51.7892 102.31 51.3682 101.889 50.5261C102.31 49.2629 102.31 47.9998 102.731 46.7366C103.152 45.4735 103.573 44.2103 103.994 42.9471C104.416 41.6838 104.837 40.4205 105.258 39.1574C105.679 38.3153 105.679 37.8942 106.1 37.0521C109.889 40.8416 114.1 44.6309 118.731 47.5783C120.837 48.8415 122.942 50.1046 125.047 51.7888V52.2099C125.047 53.052 125.468 53.8945 125.468 55.1577C125.889 55.9998 126.31 56.8419 126.731 57.684L127.152 57.2629L127.573 56.8419C127.152 55.9998 126.731 55.5787 126.731 54.7366C126.731 54.3156 126.31 53.4735 126.31 53.0524C126.31 52.6314 126.31 52.6309 126.31 52.2099C126.31 51.3678 126.31 50.5257 126.31 50.1046V49.6836C126.731 50.5257 127.573 50.9471 127.994 51.3682C128.416 51.7892 129.258 52.6314 130.1 53.0524C131.784 54.7366 133.889 55.9998 135.573 57.684C137.258 58.9471 139.363 60.6314 141.468 61.8945C141.889 62.3156 142.731 62.7366 143.152 63.1577L142.31 62.7362C144.416 63.9994 146.942 65.684 149.047 67.3682C153.679 70.7366 157.889 74.105 161.258 78.3156C160.416 79.1577 159.573 80.4204 159.573 81.2625C159.152 82.9467 159.152 84.6309 159.573 85.8941C160.416 88.8415 161.258 91.3678 162.521 93.8941C163.784 96.4204 165.047 98.9471 166.31 101.473C167.573 104 168.837 106.526 169.679 108.631C169.679 109.052 170.1 109.895 170.1 110.316L170.521 112.421C170.521 113.684 170.942 115.368 171.363 116.631C171.784 119.579 172.626 122.105 173.468 125.052C175.152 130.105 177.258 135.158 180.626 139.368C180.205 139.789 179.784 140.21 179.363 140.21C178.942 140.21 178.521 140.631 178.1 140.631C177.679 140.631 177.258 140.631 176.837 140.631H174.31L175.573 142.736C175.573 143.157 175.994 143.579 175.994 144C175.994 144.421 176.416 145.263 176.416 145.684C176.837 146.947 176.837 147.789 176.837 149.052C176.837 149.894 176.837 151.158 176.837 152C174.31 150.316 171.784 149.052 169.258 148.21H168.837C168.416 147.368 167.994 146.526 167.994 145.684C167.994 145.263 167.573 144.421 167.573 143.579C168.416 143.158 169.258 142.736 169.679 142.315C170.521 141.473 170.942 140.631 171.363 139.789C172.205 137.684 172.626 135.579 172.205 133.473V132.631H171.363C170.521 132.631 169.258 132.631 168.837 132.21C167.994 131.789 167.573 130.947 167.152 130.105C166.31 128.42 166.31 125.894 165.889 123.789C166.731 122.526 167.573 120.421 167.573 118.737C167.573 114.526 164.626 111.158 160.837 110.316L167.573 110.736V108.21H162.942C162.942 107.368 162.521 106.105 162.521 105.263C162.1 104 161.679 102.316 160.837 101.473C159.994 100.21 159.573 98.9467 158.731 98.1046C157.889 96.8415 157.468 95.5783 157.047 94.3151V93.8941H156.626C155.784 93.473 154.942 93.0524 154.1 93.0524C153.679 93.0524 153.258 93.0524 152.837 93.0524C152.837 93.0524 152.837 93.0524 152.416 93.0524C152.837 92.2103 152.837 91.3682 153.258 90.5261L151.994 90.1046C151.152 92.2099 150.731 94.3156 150.31 96.8419C149.889 98.9471 149.468 100.631 149.468 102.736C149.047 102.736 148.626 102.316 147.784 101.895C146.942 101.473 146.1 100.631 145.679 100.21L144.416 98.9471L143.994 100.631C143.573 101.894 143.573 103.157 143.994 104.42C143.994 105.684 143.994 106.947 144.416 108.21C144.416 110.316 144.837 112 145.258 114.105C143.573 113.684 142.31 112.842 140.626 111.579C138.521 110.316 136.837 109.052 135.152 107.368C131.784 104.421 128.837 100.631 126.31 96.8419L125.468 95.5787L124.626 97.2629C124.205 98.105 123.784 99.3678 123.363 100.21C123.363 100.631 122.942 100.631 122.942 101.052C122.521 100.631 121.679 99.7893 121.258 99.3682C120.416 98.5261 119.994 97.2625 119.152 95.9994C118.31 94.7362 117.889 93.4735 116.626 92.6314C116.205 92.2103 115.363 91.7893 114.521 91.3682C114.1 91.3682 113.679 91.3682 112.837 91.3682C112.837 90.9471 112.837 90.5257 112.837 90.1046L111.573 89.6836C111.152 90.5257 111.152 91.7892 111.152 92.6314C111.152 93.4735 111.573 94.7366 111.994 95.5787C112.416 96.8419 113.258 98.5261 114.1 99.7893C112.416 99.7893 110.731 99.7892 109.047 98.9471C106.942 98.105 105.258 97.2629 103.994 95.5787L103.573 94.7366L103.152 95.1577C101.468 96.8419 100.626 99.3682 101.468 101.895C101.889 103.158 102.31 103.999 103.152 104.841C103.573 105.684 104.416 106.105 105.258 106.526L104.416 108.21L103.573 110.736C103.152 112.42 102.31 114.105 102.31 115.789C101.889 117.473 101.889 119.158 101.889 120.842C101.889 121.684 101.889 122.526 102.31 123.368C102.31 123.789 102.731 124.21 102.731 124.631H102.31C101.889 124.631 101.468 124.631 100.626 124.631C99.7839 124.631 98.5208 124.21 97.6787 123.789L95.9945 123.368L96.4155 125.052L96.8366 127.158C96.8366 128 97.2576 128.421 97.2576 129.263C97.6787 130.526 98.0997 131.789 98.5208 133.052C98.9418 134.316 99.7839 135.579 100.626 136.842C101.468 137.684 101.889 138.526 102.731 139.368C102.31 139.368 102.31 139.789 101.889 139.789C101.468 139.789 101.468 140.21 101.047 140.21C100.626 140.21 100.205 140.631 100.205 140.631H99.3629V141.473C99.3629 142.737 100.205 143.578 100.626 144.42C101.047 145.263 101.468 145.684 101.889 146.526L96.8366 151.157L95.9945 152L96.8366 152.421C98.0997 153.263 99.3629 154.526 100.626 154.947C101.889 155.789 103.573 156.21 104.837 157.052C106.521 157.473 107.784 157.895 109.468 158.316C110.731 158.737 111.994 158.737 113.258 158.737C112.837 159.579 112.416 160.841 111.573 161.684C110.731 162.947 109.889 163.789 108.626 164.631L109.468 165.473C110.731 164.631 111.573 163.368 112.416 162.105C112.416 162.105 112.416 162.105 112.416 161.684C112.837 161.684 113.258 162.105 113.258 162.105C113.679 162.526 114.521 162.526 114.942 162.526C116.205 162.947 117.047 163.368 118.31 163.368C120.416 163.789 122.521 164.21 124.626 164.631C128.837 165.473 133.468 165.473 137.679 165.473C141.889 165.473 146.521 165.052 150.731 164.21C154.521 163.368 158.31 162.526 162.1 161.263C162.1 161.684 161.679 162.526 161.679 162.947C161.258 163.789 160.837 165.052 159.994 165.473L160.416 166.316C161.258 165.473 162.1 164.631 162.521 163.789C163.784 163.368 164.626 162.947 165.468 162.526C166.31 162.105 167.573 161.263 167.994 160C168.837 159.158 169.258 157.895 169.258 156.631C169.258 155.789 169.258 155.368 169.258 154.526C169.679 154.947 170.1 154.947 170.1 155.368C170.942 155.789 171.363 156.21 172.205 157.052C173.047 157.894 173.889 158.736 174.731 159.578C174.31 161.263 174.31 162.526 174.31 164.21C174.731 166.316 174.731 168 174.731 169.263ZM131.784 135.999C131.784 136.42 132.205 136.842 132.205 137.263C132.205 137.263 132.626 137.684 132.626 137.263C133.047 136.842 133.047 136.841 133.047 136.42C133.047 135.999 133.047 136 132.626 135.579C132.626 135.158 132.205 134.315 132.205 133.894C132.205 133.473 132.205 132.631 132.205 132.631L132.626 132.21L133.047 131.789C134.731 130.947 137.258 130.526 139.363 130.526C140.626 130.526 141.468 130.526 142.731 130.526C143.994 130.526 144.837 130.947 145.679 131.368C146.1 131.368 146.1 132.631 145.679 133.894C145.258 134.736 145.258 135.578 144.837 136.42C144.837 136.841 144.837 137.263 145.258 137.684H145.679C146.1 136.842 146.942 136 146.942 134.737C146.942 134.316 147.363 133.473 147.363 132.631C147.363 132.21 147.363 131.789 146.942 131.368C146.942 130.947 146.521 130.526 146.1 130.526C144.837 130.105 143.573 129.684 142.731 129.684C141.468 129.684 140.205 129.684 139.363 129.684C136.837 129.684 134.731 129.684 132.205 130.947C131.784 130.947 131.784 131.368 131.363 131.368L130.942 131.789L130.521 132.21C130.1 133.052 130.1 133.473 130.521 134.315C131.784 134.736 131.784 135.157 131.784 135.999Z" fill="#1A110C"/>
<path d="M127.574 120.842C127.574 117.052 125.048 113.684 121.259 112.421H128.416V109.895L108.627 110.316V112.841H115.785C112.416 114.105 109.89 117.473 109.89 121.263C109.89 126.315 113.68 130.105 118.732 130.105C123.785 129.684 127.574 125.473 127.574 120.842ZM111.153 120.842C111.153 116.631 114.522 113.263 118.732 113.263C122.943 113.263 126.311 116.631 126.311 120.842C126.311 125.052 122.943 128.421 118.732 128.421C114.522 128.421 111.153 125.052 111.153 120.842Z" fill="#1A110C"/>
<path d="M209.679 160.842C206.311 160.421 203.363 160.842 203.363 161.263C203.363 162.105 206.311 162.947 209.679 162.947C213.047 163.368 215.995 162.947 215.995 162.526C215.995 161.684 213.047 160.842 209.679 160.842Z" fill="#1A110C"/>
<path d="M160.839 122.947C162.002 122.947 162.944 122.005 162.944 120.842C162.944 119.679 162.002 118.737 160.839 118.737C159.676 118.737 158.733 119.679 158.733 120.842C158.733 122.005 159.676 122.947 160.839 122.947Z" fill="#1A110C"/>
<path d="M121.259 122.526C122.522 122.526 123.364 121.684 123.364 120.421C123.364 119.158 122.522 118.316 121.259 118.316C119.995 118.316 119.153 119.158 119.153 120.421C119.574 121.684 120.416 122.526 121.259 122.526Z" fill="#1A110C"/>
<path d="M221.469 99.3687C221.469 93.4739 223.995 88.4213 228.206 84.6318C226.521 80.4213 224.416 76.6314 222.311 72.8419C210.1 70.3156 200.837 59.7897 200.837 46.7371C200.837 45.4739 200.837 44.6314 200.837 43.3682C180.206 21.8947 154.1 9.26318 125.89 9.26318C60.6267 9.26318 7.57422 77.0529 7.57422 160.842C7.57422 244.632 60.6267 312.421 125.89 312.421C191.153 312.421 244.206 244.632 244.206 160.842C244.206 146.105 242.521 132.211 239.574 118.737C234.942 118.316 230.311 116.631 226.942 113.263C223.574 109.473 221.469 104.842 221.469 99.3687ZM226.942 153.684C226.942 156.211 226.942 158.316 226.942 160.842C226.942 162.527 226.942 164.632 226.942 166.316C226.942 166.737 226.942 167.158 226.942 167.158C226.942 168.842 226.942 170.526 226.521 172.21C226.521 172.631 226.521 173.053 226.521 173.053C226.521 174.737 226.1 176.421 226.1 178.526C226.1 180.21 225.679 181.895 225.679 184C225.679 184.421 225.679 184.421 225.679 184.842C225.258 186.526 225.258 188.211 224.837 189.895C224.837 190.316 224.837 190.316 224.837 190.737C224.416 192.421 224.416 194.105 223.995 195.79C223.574 197.474 223.153 199.158 222.732 200.842V201.263C222.311 202.948 221.89 204.632 221.469 206.316C221.469 206.737 221.469 206.737 221.469 207.158C220.627 210.527 219.785 213.895 218.521 217.263V217.684C218.1 219.369 217.258 221.052 216.837 222.737V223.158C215.574 226.527 214.311 229.895 213.048 232.842C212.206 234.527 211.785 235.789 210.943 237.473C210.943 237.473 210.943 237.474 210.943 237.895C209.258 240.842 207.995 244.211 206.311 247.158C187.364 280.421 158.311 301.473 125.048 301.473C87.9951 301.473 55.9951 274.527 37.89 234.527C36.6268 232 35.3637 229.053 34.5216 226.527C32.8374 222.316 31.5742 218.105 30.3111 213.895C30.3111 213.895 30.3111 213.895 30.3111 213.474C29.469 210.527 28.6268 207.579 28.2058 204.631V204.211C27.7847 202.948 27.3637 201.263 27.3637 200C27.3637 200 27.3637 200 27.3637 199.579C26.9426 197.895 26.9426 196.632 26.5216 194.948V194.527C26.1005 193.263 26.1005 192 25.6795 190.737C25.6795 190.316 25.6795 190.316 25.6795 189.895C25.2584 186.948 24.8374 184 24.4163 181.053C24.4163 180.632 24.4163 180.211 24.4163 179.79C24.4163 178.527 23.9953 177.263 23.9953 176C23.9953 175.579 23.9953 175.579 23.9953 175.158C23.9953 173.474 23.9953 172.211 23.5742 170.527C23.5742 170.105 23.5742 169.684 23.5742 169.684C23.5742 168.421 23.5742 167.158 23.5742 165.895C23.5742 165.473 23.5742 165.053 23.5742 164.632C23.5742 162.948 23.5742 161.684 23.5742 160C23.5742 139.369 26.9426 119.579 32.8374 101.895C33.6795 98.9476 34.9426 95.5792 36.2058 92.6318C36.6268 91.7897 37.0479 90.5261 37.469 89.684C38.3111 87.5788 39.1532 85.8946 39.9953 83.7893C45.0478 73.263 50.9425 63.5792 57.2583 55.5792C58.9425 53.4739 61.0478 50.9476 62.732 48.8423C63.9951 47.5792 65.2583 45.895 66.5215 44.6318C69.0478 42.1054 71.9951 39.5788 74.9425 37.4735C75.7846 37.0524 76.2057 36.2108 77.0478 35.7897C79.9951 33.6844 82.9425 31.5791 85.8899 29.8949C98.1004 22.737 111.574 18.9476 125.89 18.9476C127.153 18.9476 128.416 18.9476 129.679 18.9476C130.1 18.9476 130.1 18.9476 130.521 18.9476C131.785 18.9476 133.048 18.9475 134.311 19.3686C134.732 19.3686 134.732 19.3686 135.153 19.3686C136.416 19.3686 137.679 19.7895 138.942 19.7895C140.206 20.2106 141.469 20.2103 142.732 20.6314C143.153 20.6314 143.153 20.6314 143.574 20.6314C144.837 21.0524 146.1 21.0528 147.364 21.4738C147.785 21.4738 147.785 21.4738 148.206 21.4738C149.469 21.8949 150.732 22.3156 151.995 22.7367C153.258 23.1577 154.521 23.579 155.785 24C155.785 24 156.206 23.9999 156.206 24.421C157.469 24.842 158.732 25.2632 159.574 26.1053C159.574 26.1053 159.995 26.1052 159.995 26.5263C162.521 27.7894 164.627 29.0527 167.153 30.3158C167.153 30.3158 167.574 30.3157 167.574 30.7368C168.837 31.5789 169.679 31.9999 170.943 32.842L171.364 33.263C173.469 34.9472 175.995 36.6317 178.1 38.3159C178.1 38.3159 178.521 38.3158 178.521 38.7369C179.785 39.579 180.627 40.4209 181.89 41.684L182.311 42.1055C184.416 44.2108 186.521 46.316 188.627 48.4213C188.627 48.4213 188.627 48.4213 189.048 48.8423C189.89 50.1055 191.153 50.9472 191.995 52.2103C191.995 52.2103 191.995 52.2108 192.416 52.6318C194.521 55.1581 196.206 57.2634 198.311 59.7897C199.153 61.0529 199.995 62.316 201.258 63.5792C202.521 65.2634 203.364 66.9472 204.627 68.6314C206.311 71.1577 207.574 73.6844 209.258 76.6318C210.1 78.316 210.942 79.9998 211.785 81.684C213.048 84.6314 214.732 87.5792 215.995 90.5266C218.942 97.6844 221.469 105.263 223.574 113.263C224.416 116.21 224.837 119.158 225.679 122.527C229.89 125.474 232.416 130.105 232.416 135.158C232.416 138.948 231.153 142.316 229.048 144.842C229.048 144.842 229.048 145.263 228.627 145.263C226.521 148.632 226.521 151.158 226.942 153.684Z" fill="#213521"/>
</svg>
