<svg width="976" height="372" viewBox="0 0 976 372" fill="none" xmlns="http://www.w3.org/2000/svg">
<path d="M226.233 269.231C214.08 272.39 202.418 273.164 190.582 273.125C141.775 272.966 92.9573 272.493 44.1634 273.305C19.2122 273.72 -0.337282 255.327 0.00441146 229.404C0.961659 156.78 0.317501 84.1347 0.318473 11.4977C0.318632 0.0693484 0.350626 0.0640113 11.7712 0.0241561C17.5132 0.00412334 23.2552 0.00575391 28.9973 0.000626412C41.1178 -0.010204 41.162 -0.00941679 41.1702 11.7575C41.1922 43.0517 41.1682 74.3459 41.1703 105.64C41.1727 141.241 41.1491 176.842 41.2085 212.442C41.2313 226.135 46.2235 231.234 59.8014 231.319C78.3272 231.436 96.8542 231.348 116.101 231.348C79.3924 168.439 108.529 112.335 144.304 89.5094C167.527 74.6931 192.622 70.5954 219.384 75.6898C246.196 80.7936 266.028 96.678 283.039 118.991C304.433 90.4107 331.336 73.7755 367.235 73.666C403.36 73.5558 430.045 90.6147 452.01 119.354C473.615 91.173 500.153 73.7618 536.156 73.7081C572.131 73.6544 599.34 89.7085 620.577 118.262C625.232 115.503 627.818 111.34 630.926 107.782C676.67 55.4207 759.289 64.0105 792.698 124.928C802.664 143.1 806.71 162.999 806.123 183.813C805.876 192.553 800.529 193.907 793.39 193.894C750.325 193.816 707.259 193.851 664.194 193.933C660.864 193.939 657.346 192.994 653.149 195.569C659.391 208.838 669.285 218.325 682.4 224.121C705.46 234.312 729.529 233.456 753.275 227.618C786.84 219.365 813.679 199.959 834.872 173.169C857.839 144.138 879.811 114.319 902.197 84.8275C902.859 83.9543 903.289 82.9043 903.998 81.6302C899.381 78.6334 894.043 81.7127 887.477 77.9189C916.262 61.3593 943.928 45.4433 971.107 29.8075C975.494 32.8007 974.709 36.2339 974.806 39.2494C975.173 50.7203 975.186 62.2047 975.693 73.668C975.917 78.7324 973.613 80.8977 969.112 80.0859C958.28 78.1326 952.67 84.1547 946.863 92.1349C928.802 116.96 910.164 141.372 891.424 165.693C887.44 170.864 887.034 174.657 891.072 180.001C910.97 206.339 930.553 232.914 950.208 259.435C952.184 262.1 954.822 264.508 955.02 269.432C939.248 269.432 923.898 269.536 908.552 269.348C905.34 269.309 904.038 266.072 902.377 263.798C891.032 248.269 879.789 232.664 868.369 217.189C866.22 214.277 864.661 210.717 860.639 208.696C851.991 216.929 843.881 225.826 834.376 233.215C781.749 274.133 724.138 284.479 661.226 261.212C647.716 256.215 637.244 246.75 628.372 235.52C626.293 232.888 624.172 230.289 621.743 227.267C583.794 275.195 537.904 285.176 483.698 258.871C480.899 261.244 482.146 264.633 482.136 267.568C482.031 298.287 482.091 329.007 482.057 359.727C482.044 371.051 481.982 371.063 470.378 371.104C463.775 371.128 457.139 370.704 450.576 371.22C442.685 371.84 439.925 368.838 440.04 360.9C440.41 335.353 440.193 309.798 440.2 284.246C440.204 270.901 440.201 257.556 440.201 241.967C415.851 265.2 388.986 275.519 357.83 272.512C326.621 269.499 302.239 254.087 283.425 227.638C267.934 247.176 250.514 262.508 226.233 269.231ZM478.792 176.542C480.765 211.391 511.697 235.684 547.668 230.635C578.375 226.324 600.599 192.804 593.746 161.135C587.157 130.685 561.144 112.835 528.223 116.173C500.301 119.004 478.922 144.43 478.792 176.542ZM143.404 191.165C154.08 220.202 180.661 235.74 210.752 230.533C235.162 226.309 256.773 200.958 257.003 175.321C257.224 150.744 246.589 131.513 224.208 121.195C202.624 111.244 180.886 113.03 161.965 128.655C142.513 144.719 137.213 165.694 143.404 191.165ZM365.505 231.192C398.87 234.498 434.619 200.106 423.475 157.592C416.057 129.296 388.053 111.832 356.916 116.378C329.351 120.403 308.121 147.092 309.46 176.039C310.84 205.903 334.029 229.382 365.505 231.192ZM685.801 118.911C670.332 125.138 658.646 135.065 652.645 151.821C688.836 151.821 723.897 151.821 758.785 151.821C759.549 149.342 758.45 147.907 757.698 146.398C745.168 121.264 718.419 110.667 685.801 118.911Z" fill="white"/>
<path d="M830.548 79.7004C835.127 85.657 839.092 91.2578 843.219 96.7358C845.767 100.117 845.29 102.893 842.363 105.765C835.423 112.574 828.595 119.498 821.736 126.39C819.239 128.899 816.567 130.532 813.921 126.825C803.3 111.947 792.779 96.9969 782.26 82.0464C781.982 81.6505 782.144 80.9442 781.962 78.5647C798.034 78.1192 813.972 76.6842 830.548 79.7004Z" fill="#F7CE46"/>
<path d="M530.791 347.035H521.51V316.962H531.202C534.119 316.962 536.615 317.564 538.691 318.768C540.766 319.962 542.357 321.68 543.463 323.922C544.569 326.154 545.122 328.827 545.122 331.94C545.122 335.072 544.564 337.769 543.448 340.031C542.332 342.282 540.707 344.015 538.573 345.229C536.439 346.433 533.845 347.035 530.791 347.035ZM525.152 343.805H530.556C533.042 343.805 535.103 343.325 536.738 342.366C538.372 341.406 539.591 340.041 540.394 338.269C541.197 336.497 541.598 334.387 541.598 331.94C541.598 329.512 541.202 327.422 540.409 325.67C539.616 323.908 538.431 322.557 536.855 321.617C535.279 320.667 533.316 320.192 530.967 320.192H525.152V343.805ZM603.667 316.962V347.035H600.025V316.962H603.667ZM680.32 326.36C679.997 325.371 679.571 324.485 679.043 323.702C678.524 322.909 677.902 322.234 677.178 321.676C676.463 321.118 675.651 320.692 674.74 320.398C673.83 320.104 672.831 319.957 671.745 319.957C669.963 319.957 668.343 320.418 666.884 321.338C665.425 322.258 664.265 323.614 663.404 325.405C662.542 327.197 662.112 329.395 662.112 331.999C662.112 334.603 662.547 336.8 663.419 338.592C664.29 340.383 665.469 341.739 666.957 342.659C668.445 343.579 670.119 344.04 671.979 344.04C673.702 344.04 675.22 343.672 676.532 342.938C677.853 342.194 678.881 341.147 679.615 339.796C680.359 338.435 680.731 336.835 680.731 334.994L681.847 335.229H672.802V331.999H684.255V335.229C684.255 337.706 683.727 339.859 682.67 341.69C681.622 343.521 680.173 344.94 678.323 345.949C676.483 346.947 674.368 347.446 671.979 347.446C669.317 347.446 666.977 346.82 664.96 345.567C662.954 344.314 661.387 342.532 660.261 340.222C659.145 337.911 658.587 335.17 658.587 331.999C658.587 329.62 658.906 327.481 659.542 325.582C660.188 323.673 661.098 322.048 662.273 320.706C663.448 319.365 664.838 318.337 666.444 317.623C668.049 316.908 669.816 316.551 671.745 316.551C673.33 316.551 674.809 316.791 676.179 317.27C677.559 317.74 678.788 318.411 679.865 319.282C680.952 320.143 681.857 321.176 682.581 322.38C683.306 323.575 683.805 324.901 684.079 326.36H680.32ZM742.928 316.962V347.035H739.286V316.962H742.928ZM797.379 320.192V316.962H819.934V320.192H810.477V347.035H806.836V320.192H797.379ZM872.069 347.035H868.251L879.293 316.962H883.053L894.095 347.035H890.277L881.29 321.72H881.055L872.069 347.035ZM873.478 335.288H888.867V338.518H873.478V335.288ZM947.573 347.035V316.962H951.215V343.805H965.194V347.035H947.573Z" fill="white"/>
</svg>
