<svg width="2953" height="320" viewBox="0 0 2953 320" fill="none" xmlns="http://www.w3.org/2000/svg">
<path d="M1197.41 107.096C1235.37 125.4 1271.35 99.9723 1298.4 132.433C1313.46 150.466 1313.37 156.868 1296.06 169.852C1271.26 188.427 1243.22 188.337 1214.73 188.246C1200.21 188.246 1184.07 183.287 1176.31 201.952C1172.98 209.977 1165.31 219.174 1167.12 225.936C1170.45 239.011 1184.25 235.314 1194.08 234.232C1222.21 231.166 1250.61 228.732 1278.11 222.51C1305.34 216.289 1324.01 227.92 1331.85 249.831C1339.25 270.66 1318.69 282.832 1302.46 288.152C1249.44 305.464 1194.35 312.588 1139.25 302.489C1101.38 295.636 1080.92 247.036 1098.41 203.845C1115.9 160.565 1145.21 121.432 1122.03 70.217C1113.2 50.6506 1132.13 40.101 1148.18 35.7729C1200.12 21.7969 1252.23 8.54228 1306.25 4.48473C1329.42 2.77155 1351.96 9.35379 1356.92 31.1744C1362.87 57.4131 1338.07 65.1676 1317.52 70.3071C1279.65 79.8649 1240.33 84.8241 1197.5 107.186L1197.41 107.096Z" fill="white"/>
<path d="M2083.58 180.942C2026.87 207.361 1977 265.249 1917.49 192.213C1902.71 226.567 1889.36 257.765 1875.75 288.963C1871.51 298.611 1866.82 309.431 1854.83 309.972C1839.77 310.603 1835.89 297.8 1832.19 286.348C1827.06 270.659 1821.65 254.158 1827.51 238.109C1848.97 179.229 1872.86 121.341 1908.66 69.3147C1915.24 59.7569 1924.62 45.4203 1936.61 52.6337C1957.44 65.2572 1980.52 77.3396 1984.94 106.824C1992.06 155.064 1999.91 157.95 2038.5 127.743C2054.91 114.94 2069.34 99.611 2084.84 85.635C2095.84 75.7166 2099.27 50.7402 2121.36 62.0111C2140.03 71.4787 2159.41 87.6187 2156.17 110.07C2148.41 162.819 2149.22 217.28 2128.31 267.864C2121.72 283.824 2112.71 301.226 2094.85 298.701C2071.68 295.455 2074.2 272.372 2075.02 255.331C2076.1 231.797 2080.34 208.443 2083.67 180.942H2083.58Z" fill="white"/>
<path d="M83.4791 160.294C120.718 108.358 146.326 59.126 185.008 19.3621C196.369 7.73048 205.656 -7.32752 225.854 4.03361C246.412 15.5751 248.306 32.8873 243.797 53.4455C240.1 70.397 229.19 82.4795 218.64 95.0128C170.401 151.818 128.292 212.501 100.431 282.291C95.1107 295.726 85.2824 305.284 70.7654 306.366C53.6336 307.628 41.7314 295.906 36.5017 282.111C27.5751 258.577 21.9847 233.781 15.8533 209.345C2.238 155.425 8.00873 99.6113 0.614987 45.0599C-1.45887 29.6412 1.15599 13.5914 17.1157 6.8288C37.5837 -1.91746 40.4691 19.2719 49.576 29.3707C81.315 64.3558 71.8474 110.612 83.4791 160.384V160.294Z" fill="white"/>
<path d="M2787.34 254.97C2819.62 257.855 2848.83 244.42 2877.15 234.322C2902.3 225.395 2918.08 236.756 2925.57 252.445C2935.22 272.733 2912.49 279.856 2898.16 284.725C2861.55 297.168 2824.49 308.71 2786.89 317.727C2753.89 325.661 2727.38 312.677 2713.94 281.119C2700.33 249.289 2712.23 223.862 2738.47 202.853C2774.09 174.45 2816.83 155.335 2855.15 115.751C2831.52 115.751 2816.01 114.759 2800.68 115.931C2774.9 118.005 2765.34 101.955 2762.54 81.307C2759.03 55.5191 2780.49 57.5028 2795.91 57.1421C2833.24 56.4208 2870.66 59.0356 2907.89 57.4126C2930.08 56.5109 2941.71 67.8721 2949.46 84.4629C2958.93 104.751 2945.85 118.546 2931.16 129.907C2891.21 161.015 2856.5 198.705 2811.78 224.223C2801.32 230.174 2786.17 235.313 2787.43 254.79L2787.34 254.97Z" fill="white"/>
<path d="M1475.85 306.906C1442.4 302.578 1407.77 300.775 1379.64 276.79C1344.84 247.125 1336.9 188.155 1363.68 151.457C1397.76 104.57 1449.7 82.9295 1499.2 59.035C1522.92 47.5837 1540.59 68.2321 1549.34 85.9952C1559.26 106.193 1541.94 120.079 1524.18 125.759C1483.69 138.833 1447 157.678 1416.34 187.253C1406.42 196.721 1397.76 207.541 1401.19 222.509C1405.07 239.731 1420.58 239.19 1433.47 240.993C1454.21 243.789 1475.04 246.674 1495.96 246.854C1517.42 246.944 1538.97 251.363 1540.23 274.175C1541.58 297.889 1519.85 303.48 1498.84 304.021C1491.45 304.201 1484.06 305.824 1476.03 306.906H1475.85Z" fill="white"/>
<path d="M984.073 294.193C953.957 293.472 929.341 299.423 904.545 305.554C849.453 319.35 816.632 291.308 824.837 234.322C833.313 174.901 862.798 121.522 879.389 64.2655C885.79 42.1744 901.209 56.7816 912.39 59.4866C933.128 64.6261 942.867 76.8889 934.481 99.0702C920.776 135.318 907.611 171.745 893.815 207.993C884.167 233.33 883.176 248.568 919.243 239.912C939.08 235.133 961.441 234.682 981.549 238.379C1002.38 242.166 1031.59 246.945 1029.43 275.709C1026.99 308.71 997.869 291.488 984.073 294.103V294.193Z" fill="white"/>
<path d="M241.094 229.814C242.897 177.427 259.668 132.704 270.308 86.7183C273.734 72.0209 282.12 55.7006 298.17 55.4301C317.736 55.0694 314.67 77.431 319.54 89.4233C325.31 103.489 329.458 119.99 322.966 136.761C305.834 181.575 296.366 227.741 302.949 276.161C305.383 293.924 296.006 304.744 279.415 308.441C262.013 312.228 255.791 299.153 251.463 286.169C244.881 266.513 237.216 246.856 241.003 229.814H241.094Z" fill="white"/>
<path fill-rule="evenodd" clip-rule="evenodd" d="M464.71 228.461C484.847 248.74 510.299 253.356 535.558 257.936C542.195 259.14 548.818 260.341 555.329 261.823C569.944 265.184 574.126 255.673 578.211 246.386L578.211 246.385C578.839 244.958 579.464 243.536 580.125 242.166C583.743 234.692 587.81 227.296 591.879 219.895C601.702 202.028 611.539 184.137 615.11 165.073C622.447 126.309 649.469 106.249 676.243 86.3722C686.649 78.6467 697.018 70.949 706.179 62.1918C720.335 48.6666 746.574 57.9539 755.14 82.4795C757.658 89.6813 758.693 97.4154 759.726 105.139C760.284 109.309 760.842 113.476 761.632 117.555C762.623 122.452 763.269 128.406 763.919 134.399C765.4 148.048 766.903 161.896 772.542 163.901C816.03 179.15 807.7 203.939 799.421 228.577C796.147 238.319 792.881 248.038 792.83 257.134C792.83 269.577 788.953 281.029 780.026 289.595C779.075 290.493 778.118 291.412 777.153 292.338L777.15 292.342C765.039 303.972 751.731 316.751 733.86 303.39C714.384 288.783 710.958 270.569 739.631 252.896C726.235 247.171 712.741 249.201 699.794 251.148C682.153 253.802 665.526 256.303 651.537 238.83C646.774 232.835 640.365 247.634 636.399 256.794C636.01 257.691 635.645 258.534 635.307 259.298C616.102 302.489 568.673 326.563 522.507 314.661C486.26 305.284 451.546 291.849 422.151 268.766C412.729 269.39 411.123 275.454 409.563 281.341C408.868 283.962 408.183 286.548 406.822 288.603C399.789 299.062 392.125 309.071 378.78 306.005C368.05 303.571 361.648 293.201 360.386 282.562C353.714 227.83 363.993 171.024 390.051 127.834C403.035 106.284 433.151 80.045 459.48 60.4786C466.694 55.0685 474.178 50.2896 484.006 51.6422C508.351 54.8882 549.738 108.538 554.697 143.793C559.747 179.229 536.393 194.107 509.343 207.001C504.691 209.209 499.674 210.648 494.581 212.109L494.581 212.109C484.075 215.123 473.243 218.23 464.62 228.371L464.71 228.461ZM436.847 169.04C440.16 164.149 443.038 159.352 445.749 154.834C455.582 138.444 463.205 125.74 481.3 125.669C489.415 125.669 498.161 138.292 494.374 145.867C484.907 164.801 465.811 166.521 439.155 168.921C438.392 168.99 437.623 169.06 436.847 169.13V169.04ZM703.836 149.204C687.787 161.918 679.311 175.082 671.827 194.649H671.917C673.593 194.9 675.267 195.166 676.932 195.431C693.178 198.014 708.491 200.448 715.198 187.525C721.239 175.894 713.034 161.106 703.836 149.204Z" fill="white"/>
<path fill-rule="evenodd" clip-rule="evenodd" d="M2472.11 237.292C2473.49 215.768 2474.84 194.767 2500.52 184.911C2501.69 167.779 2490.87 160.836 2482.03 159.483C2449.18 154.32 2444.83 130.696 2440.48 107.1C2439.82 103.499 2439.16 99.8995 2438.39 96.3659C2436.44 87.236 2435.07 77.9593 2433.7 68.6875C2432.23 58.7299 2430.76 48.7779 2428.56 39.0193C2421.26 6.37858 2387.99 -3.26936 2371.31 9.80495C2362.63 16.619 2352.82 22.7375 2343.1 28.7956C2325.94 39.4919 2309.08 49.9999 2299.35 63.8154C2258.33 121.974 2232.36 189.78 2207.2 256.684C2200.17 275.529 2211.17 296.899 2232.54 302.399C2254.27 307.899 2268.52 294.915 2275.19 273.365C2279.52 259.209 2285.38 245.503 2291.42 231.978L2291.55 231.685C2294.82 224.415 2300.55 211.673 2308.91 223.683C2324.18 245.669 2342.4 241.501 2360.76 237.304C2365.06 236.319 2369.37 235.334 2373.65 234.683C2375.87 234.34 2378.25 233.696 2380.65 233.046C2387.72 231.131 2394.99 229.163 2398.9 234.683C2406.74 245.774 2398.09 253.528 2386.91 257.766C2376.63 261.733 2378.7 268.496 2383.75 275.078C2386.3 278.397 2388.22 282.342 2390.15 286.288C2394.76 295.742 2399.37 305.205 2412.6 306.096C2434.15 307.539 2448.94 295.186 2461.11 279.226C2470.19 267.348 2471.16 252.195 2472.11 237.292ZM2326.04 172.105C2333.62 148.932 2346.6 130.628 2364.63 114.307C2392.41 170.482 2389.07 175.531 2326.04 172.105Z" fill="white"/>
<path fill-rule="evenodd" clip-rule="evenodd" d="M1663.1 309.881C1663.11 309.881 1663.12 309.882 1663.13 309.882H1663.04C1663.06 309.882 1663.08 309.881 1663.1 309.881ZM1573.59 198.886C1547.36 261.995 1579.45 307.436 1663.1 309.881C1691.5 309.416 1731.23 298.327 1768.63 279.045C1804.6 260.47 1814.07 233.42 1801.36 193.566C1797.2 180.634 1791.01 168.504 1784.79 156.328C1773.19 133.612 1761.5 110.739 1762.85 82.2086C1763.49 68.8638 1741.85 35.592 1714.34 54.0763C1657.63 92.2173 1601.09 132.793 1573.59 198.886ZM1642.76 248.344C1645.71 248.322 1648.6 248.299 1651.14 248.748C1702.17 249.289 1757.54 223.591 1751.04 201.049C1750.09 197.705 1749.24 194.129 1748.37 190.46C1743.64 170.582 1738.26 147.968 1712 144.695C1683.87 141.178 1619.67 205.828 1621.92 232.879C1623.16 248.495 1633.27 248.417 1642.76 248.344Z" fill="white"/>
<path fill-rule="evenodd" clip-rule="evenodd" d="M2673.46 242.617C2689.42 229.182 2704.74 214.394 2705.2 190.229V190.139C2705.05 188.962 2704.93 187.703 2704.8 186.394C2704.52 183.59 2704.22 180.556 2703.66 177.606C2694.74 131.53 2589.51 51.1909 2543.34 54.7074C2531.08 55.6091 2528.02 64.716 2528.47 72.9213C2531.98 136.399 2533.97 199.426 2511.88 260.74C2509.35 268.044 2513.41 278.594 2516.66 286.799C2522.43 301.496 2530.27 313.489 2550.11 304.923C2559.44 300.89 2568.9 297.089 2578.36 293.288C2611.84 279.836 2645.34 266.379 2673.46 242.617ZM2569.95 121.07C2576.8 158.58 2577.34 192.213 2569.86 236.755C2582.1 228.535 2596.2 223.131 2609.41 218.067C2635.62 208.024 2658.33 199.322 2656.06 172.646C2653.35 141.088 2609.44 126.39 2569.95 121.07Z" fill="white"/>
</svg>
