<svg width="1170" height="320" viewBox="0 0 1170 320" fill="none" xmlns="http://www.w3.org/2000/svg">
<path d="M238.906 13.221C295.583 7.47211 331.181 39.5307 361.616 82.8391C551.623 63.3154 433.331 271.764 323.854 301.072C174.653 341.021 183.671 192.249 123.725 143.034C94.7771 119.271 104.381 146.911 78.4096 154.328C25.1816 169.524 -8.88351 114.424 24.6179 70.6199C53.1821 33.2633 113.354 43.1829 152.063 56.5069C171.362 37.8398 212.934 15.8813 238.906 13.2436V13.221Z" fill="white"/>
<path d="M278.11 319.04C205.494 319.04 179.116 262.746 157.225 215.988C145.142 190.197 133.734 165.849 116.577 151.758C111.866 147.903 109.07 146.189 107.559 145.423C107.063 146.032 106.5 146.753 106.026 147.362C101.765 152.885 95.3402 161.227 81.4978 165.172C52.9111 173.333 25.7221 164.563 10.5495 142.312C-5.18669 119.226 -3.18021 88.3848 15.6446 63.766C49.4617 19.5558 116.239 33.3081 149.357 43.7463C171.09 25.3047 210.093 4.81154 237.755 2.016C301.512 -4.45434 340.289 34.3226 367.027 71.0254C448.548 64.6227 467.914 101.438 472.13 124.389C477.766 154.982 462.909 196.464 432.361 235.376C402.309 273.657 362.833 302.289 326.762 311.961C308.523 316.853 292.426 319.04 278.11 319.04ZM106.567 122.315C113.421 122.315 120.68 125.944 130.893 134.331C151.995 151.645 165.049 179.488 177.651 206.429C203.803 262.227 228.489 314.959 320.945 290.183C352.485 281.728 387.497 256.05 414.641 221.466C440.838 188.078 454.365 152.434 449.969 128.469C443.498 93.277 398.973 90.3237 362.766 94.0436L356.183 94.7199L352.373 89.3092C316.82 38.7413 284.242 19.9165 240.01 24.4255C218.232 26.6348 178.53 46.5193 159.863 64.5776L154.903 69.3796L148.365 67.1252C128.504 60.2716 61.5457 40.8155 33.5451 77.4281C20.7172 94.1788 19.0038 114.649 29.1715 129.574C38.8431 143.755 56.0899 148.94 75.298 143.462C82.0163 141.545 84.8569 137.848 88.171 133.564C91.5076 129.258 96.0617 123.352 104.313 122.405C105.057 122.315 105.778 122.27 106.522 122.27L106.567 122.315Z" fill="white"/>
<path d="M238.957 13.8601C295.657 8.12228 331.269 40.1191 361.716 83.3441C551.799 63.858 433.46 271.905 323.939 301.157C174.679 341.029 183.7 192.543 123.73 143.423C94.7712 119.706 104.379 147.293 78.3972 154.696C25.148 169.862 -8.93058 114.868 24.5842 71.1484C53.1597 33.8638 113.355 43.7643 152.08 57.0626C171.386 38.4315 212.975 16.5153 238.957 13.8826V13.8601Z" fill="black"/>
<path d="M281.39 40.5622V42.4733C222.223 33.0792 177.583 98.0315 165.222 100.104C152.928 102.176 125.544 82.9274 110.431 78.9672C94.5056 74.7997 76.7759 74.0169 60.377 73.211C102.31 54.1697 141.018 84.6542 157.665 80.9012C194.455 49.9793 232.058 24.2839 281.39 40.5622Z" fill="#FDB765"/>
<path d="M281.159 43.1337C282.843 43.4057 284.1 45.9672 288.679 45.0151C316.624 58.0036 329.531 78.767 346.006 103.656C410.225 106.671 457.093 97.8304 429.664 172.701C409.933 226.559 347.488 281.301 289.621 285.245C222.372 289.847 206.84 242.199 183.406 189.724C193.432 192.883 203.458 196.033 213.484 199.177C229.69 294.765 350.406 281.822 354.469 189.724C359.946 186.505 419.136 159.078 398.643 150.94C389.732 147.404 306.254 194.983 227.58 179.32C173.417 168.53 153.148 135.73 135.483 122.583C94.3837 92.0048 29.065 100.074 81.9036 125.417C34.699 154.93 17.0338 93.2515 61.2305 73.3948C77.549 74.1882 95.1917 74.9589 111.039 79.0617C126.078 82.9605 153.305 101.91 165.561 99.8704C177.861 97.8077 222.283 33.8627 281.159 43.1337Z" fill="#FE8A00"/>
<path d="M288.421 44.7828C283.867 45.6981 282.617 43.1754 280.942 42.9298V41.0769C288.042 43.3763 288.042 44.6265 288.421 44.8051V44.7828Z" fill="#D6994D"/>
<path d="M328.629 193.821C334.612 197.215 317.512 250.213 266.009 235.747C280.654 210.922 300.679 199.246 328.629 193.821Z" fill="#EE5259"/>
<path d="M779.361 103.34L791.283 89.7218L822.76 136.581H863.681L814.634 65.3211L863.011 12.4565H821.51L779.361 61.4366V12.4565H744.691V136.581H779.361V103.34Z" fill="white"/>
<path d="M553.526 100.17H583.955C583.955 100.17 623.201 100.884 623.201 58.4452C623.201 16.0063 586.41 12.479 586.41 12.479H518.834V136.603H553.482V100.17H553.526ZM553.526 41.4563H574.601C581.856 41.4563 588.375 46.2337 588.375 58.6015C588.375 70.9693 578.351 73.4473 574.779 73.4473H553.549V41.4339L553.526 41.4563Z" fill="white"/>
<path d="M898.328 12.4565H863.681V136.581H898.328V12.4565Z" fill="white"/>
<path d="M992.404 75.635L943.96 12.4565H909.312V136.581H943.96V75.7243L992.404 136.581H1027.07V120.842V12.4565H992.404V75.635Z" fill="white"/>
<path d="M1002.79 176.542H961.285L919.136 225.522V176.542H884.466V300.689H919.136V267.448L931.057 253.83L962.535 300.689H1003.46L954.409 229.429L1002.79 176.542Z" fill="white"/>
<path d="M642.645 136.581L650.905 115.105H698.278L706.404 136.581H744.69L723.683 88.0028V87.0652H723.281L691.022 12.4565H658.138L604.827 136.581H642.645ZM687.674 87.0652H661.665L674.77 52.9756L687.674 87.0652Z" fill="white"/>
<path d="M1097.02 63.2452V88.8961H1121.78V103.228C1121.78 103.228 1117.18 109.412 1101.62 109.412C1086.06 109.412 1068.2 97.558 1068.2 74.3182C1068.2 51.0783 1084.47 40.6304 1100.9 40.6304C1117.33 40.6304 1129.9 52.3061 1129.9 52.3061L1149.88 28.4412C1149.88 28.4412 1131.49 9.86719 1101.08 9.86719C1070.67 9.86719 1033.53 31.522 1033.53 74.5414C1033.53 117.561 1068.71 138.769 1100.19 138.769C1131.67 138.769 1153.41 119.324 1153.41 119.324V63.2675H1097L1097.02 63.2452Z" fill="white"/>
<path d="M605.073 185.584C593.553 179.467 580.605 176.564 567.545 176.564H518.855V300.689H568.014C580.985 300.689 593.866 297.787 605.296 291.67C620.834 283.365 637.198 267.716 637.198 238.627C637.198 209.538 620.722 193.888 605.073 185.584ZM577.859 269.524H553.525V207.104H578.127C586.075 207.104 602.171 218.334 602.171 238.627C602.171 258.92 584.467 269.524 577.837 269.524H577.859Z" fill="white"/>
<path d="M757.439 176.542H722.077V253.584C722.077 253.584 720.314 271.622 699.44 271.622C678.567 271.622 677.518 253.227 677.518 253.227V176.52H642.334V250.749C642.334 250.749 639.499 302.564 698.927 302.564C758.355 302.564 757.462 252.334 757.462 252.334V176.52L757.439 176.542Z" fill="white"/>
<path d="M827.894 206.033C843.811 206.033 854.058 219.651 854.058 219.651L880.044 200.206C880.044 200.206 863.077 174.22 828.229 174.22C793.38 174.22 762.104 199.603 762.104 238.627C762.104 277.65 793.045 304.819 827.001 304.819C860.957 304.819 880.044 274.993 880.044 274.993L855.286 256.598C855.286 256.598 845.91 271.801 827.18 271.801C808.449 271.801 796.952 256.241 796.952 237.488C796.952 218.735 811.977 206.01 827.894 206.01V206.033Z" fill="white"/>
</svg>
