<svg width="1147" height="240" viewBox="0 0 1147 240" fill="none" xmlns="http://www.w3.org/2000/svg">
<rect x="769.956" y="42.2383" width="376.769" height="44.6173" fill="#04D7A3"/>
<rect x="769.956" y="131.473" width="376.769" height="44.6173" fill="#04D7A3"/>
<path d="M941.03 42.5947L856.316 239.625H805.631L837.518 170.379L782.787 42.5947H834.662L862.741 118.266L889.869 42.5947H941.03Z" fill="white"/>
<path d="M770.742 0V176.09H724.102V0H770.742Z" fill="white"/>
<path d="M644.533 41.4053C661.348 41.4053 674.515 46.4817 684.034 56.6347C693.711 66.7876 698.549 80.6685 698.549 98.2775V176.09H651.909V104.464C651.909 97.3257 649.926 91.7733 645.96 87.8073C641.994 83.8413 636.601 81.8583 629.779 81.8583C622.958 81.8583 617.564 83.8413 613.598 87.8073C609.632 91.7733 607.649 97.3257 607.649 104.464V176.09H561.009V104.464C561.009 97.3257 559.026 91.7733 555.06 87.8073C551.253 83.8413 545.938 81.8583 539.117 81.8583C532.137 81.8583 526.663 83.8413 522.698 87.8073C518.732 91.7733 516.749 97.3257 516.749 104.464V176.09H470.109V42.5951H516.749V60.204C520.873 54.493 526.188 49.9718 532.692 46.6404C539.355 43.1503 546.969 41.4053 555.536 41.4053C565.372 41.4053 574.097 43.5469 581.711 47.8302C589.485 52.1134 595.592 58.1417 600.034 65.9151C604.793 58.6177 611.06 52.748 618.833 48.3061C626.606 43.7055 635.173 41.4053 644.533 41.4053Z" fill="white"/>
<path d="M300.757 109.223C300.757 95.4213 303.216 83.3647 308.133 73.0532C313.21 62.7416 320.031 54.8096 328.598 49.2573C337.323 43.7049 347 40.9287 357.629 40.9287C366.83 40.9287 374.762 42.7531 381.425 46.4018C388.088 50.0505 393.243 54.9683 396.892 61.1552V42.5944H443.532V176.089H396.892V157.529C393.243 163.716 388.008 168.633 381.187 172.282C374.524 175.931 366.671 177.755 357.629 177.755C347 177.755 337.323 174.979 328.598 169.427C320.031 163.874 313.21 155.942 308.133 145.631C303.216 135.161 300.757 123.025 300.757 109.223ZM396.892 109.223C396.892 100.656 394.513 93.9143 389.753 88.9964C385.153 84.0786 379.442 81.6197 372.62 81.6197C365.64 81.6197 359.85 84.0786 355.249 88.9964C350.649 93.7556 348.348 100.498 348.348 109.223C348.348 117.79 350.649 124.611 355.249 129.687C359.85 134.605 365.64 137.064 372.62 137.064C379.442 137.064 385.153 134.605 389.753 129.687C394.513 124.77 396.892 117.948 396.892 109.223Z" fill="white"/>
<path d="M289.284 107.795C289.284 111.444 289.046 115.093 288.571 118.741H200.288C200.764 126.039 202.747 131.512 206.237 135.161C209.885 138.651 214.486 140.396 220.038 140.396C227.812 140.396 233.364 136.906 236.695 129.925H286.429C284.367 139.126 280.321 147.376 274.293 154.673C268.423 161.812 260.967 167.444 251.925 171.568C242.882 175.693 232.888 177.755 221.942 177.755C208.775 177.755 197.036 174.979 186.724 169.427C176.571 163.874 168.56 155.942 162.69 145.631C156.979 135.319 154.124 123.183 154.124 109.223C154.124 95.2627 156.979 83.2061 162.69 73.0532C168.401 62.7416 176.333 54.8096 186.486 49.2573C196.798 43.7049 208.616 40.9287 221.942 40.9287C235.109 40.9287 246.769 43.6256 256.922 49.0193C267.075 54.4131 275.007 62.1864 280.718 72.3393C286.429 82.3336 289.284 94.1522 289.284 107.795ZM241.693 96.1352C241.693 90.4242 239.789 85.9823 235.982 82.8095C232.174 79.4781 227.415 77.8124 221.704 77.8124C215.993 77.8124 211.313 79.3988 207.664 82.5716C204.016 85.5857 201.636 90.1069 200.526 96.1352H241.693Z" fill="white"/>
<path d="M46.64 61.1555C50.2887 54.8099 55.4445 49.8921 62.1073 46.402C68.7702 42.7533 76.6228 40.929 85.6653 40.929C96.2941 40.929 105.892 43.7051 114.458 49.2575C123.183 54.8099 130.005 62.7419 134.923 73.0534C139.999 83.365 142.537 95.4216 142.537 109.223C142.537 123.025 139.999 135.161 134.923 145.631C130.005 155.943 123.183 163.874 114.458 169.427C105.892 174.979 96.2941 177.755 85.6653 177.755C76.6228 177.755 68.7702 176.01 62.1073 172.52C55.4445 168.872 50.2887 163.874 46.64 157.529V176.09H0V0H46.64V61.1555ZM95.1836 109.223C95.1836 100.498 92.804 93.7559 88.0449 88.9967C83.4443 84.0789 77.7333 81.62 70.9118 81.62C64.0903 81.62 58.3 84.0789 53.5408 88.9967C48.9403 93.9145 46.64 100.657 46.64 109.223C46.64 117.948 48.9403 124.77 53.5408 129.688C58.3 134.606 64.0903 137.064 70.9118 137.064C77.7333 137.064 83.4443 134.606 88.0449 129.688C92.804 124.611 95.1836 117.79 95.1836 109.223Z" fill="white"/>
</svg>
