<?xml version="1.0" encoding="utf-8"?>
<!-- Generator: Adobe Illustrator 26.0.3, SVG Export Plug-In . SVG Version: 6.00 Build 0)  -->
<svg version="1.1" id="Layer_1" xmlns="http://www.w3.org/2000/svg" xmlns:xlink="http://www.w3.org/1999/xlink" x="0px" y="0px"
	 viewBox="0 0 217.4 101" style="enable-background:new 0 0 217.4 101;" xml:space="preserve">
<style type="text/css">
	.st0{fill:#FF8300;}
</style>
<g>
	<g>
		<g>
			<g>
				<g>
					<path class="st0" d="M198.5,78.1L198.5,78.1c0,0.5-0.3,0.8-0.7,0.8H148c-0.4,0-0.7,0.3-0.7,0.7v16.6c0,0.4,0.3,0.7,0.7,0.7
						h53.4c0.4,0,0.7,0.3,0.7,0.7l0,0c0,0.4-0.3,0.7-0.7,0.7h-55.2c-0.4,0-0.7-0.3-0.7-0.7V58.7c0-0.4,0.3-0.7,0.7-0.7h55.2
						c0.4,0,0.7,0.3,0.7,0.7l0,0c0,0.4-0.3,0.7-0.7,0.7H148c-0.4,0-0.7,0.3-0.7,0.7v16.5c0,0.4,0.3,0.7,0.7,0.7h49.8
						C198.2,77.4,198.5,77.7,198.5,78.1z"/>
					<path class="st0" d="M46,57.4c4.3,0,8.6-0.1,12.9,0c4.1,0.1,8,1.2,11.5,3.5c3.9,2.5,6.4,6,7.6,10.4c1.6,5.5,1.4,10.9-0.7,16.2
						c-2.2,5.5-6.4,8.8-12,10.5c-2.8,0.9-5.8,1.2-8.7,1.2c-7.3,0-14.6,0-22,0c-3.9,0-7.6-0.7-11.1-2.5c-4.9-2.4-8.2-6.3-9.6-11.6
						c-1.6-5.8-1.3-11.5,1.3-16.9c2.2-4.7,6-7.7,10.8-9.4c3.3-1.2,6.7-1.5,10.1-1.5C39.3,57.3,42.6,57.3,46,57.4
						C46,57.3,46,57.3,46,57.4z M45.9,97.6c3.4,0,6.8,0,10.3,0c2.6,0,5.1-0.2,7.6-0.9c5.7-1.7,10-5,12.1-10.7
						c1.4-3.8,1.6-7.8,0.9-11.8c-1-5.8-4-10.2-9.2-12.9c-3.5-1.8-7.2-2.5-11-2.5c-7.1,0-14.2,0-21.3,0c-2.5,0-5,0.3-7.4,1
						c-5.4,1.6-9.5,4.8-11.7,10.1c-1.8,4.4-2,9-1,13.6c1.1,4.9,3.8,8.7,8.2,11.2c3.7,2.1,7.6,2.9,11.8,2.9
						C38.7,97.6,42.3,97.6,45.9,97.6z"/>
					<path class="st0" d="M84.9,60c0-1.5,1.6-2.5,2.9-1.8c0.1,0.1,0.3,0.2,0.4,0.3c15.5,12.6,31.1,25.1,46.7,37.6
						c0.2,0.1,0.3,0.2,0.6,0.5V58.8c0-0.5,0.4-0.9,0.9-0.9l0,0c0.5,0,0.9,0.4,0.9,0.9v37.5c0,1.6-1.9,2.6-3.1,1.6l0,0
						C118.6,85.4,103,72.8,87.5,60.3c-0.2-0.2-0.5-0.4-0.9-0.7v38.1c0,0.5-0.4,0.9-0.9,0.9l0,0c-0.5,0-0.9-0.4-0.9-0.9L84.9,60z"/>
				</g>
			</g>
			<g>
				<g>
					<path class="st0" d="M208.5,4.4h-1.2V4h2.8v0.3h-1.2v3.2h-0.4L208.5,4.4L208.5,4.4z"/>
					<path class="st0" d="M214.3,4v3.5H214V4.7l-1.4,2.4h-0.2L211,4.8v2.8h-0.4V4h0.3l1.5,2.6L214,4H214.3z"/>
				</g>
			</g>
			<path class="st0" d="M203.9,4.1h-7.5c-3.5,0-7,0-10.4,0c-0.4,0-0.8,0.3-1.1,0.5l-14.3,15c-2.1,1.9-3.8,0.6-4.4,0.1l-14-15
				c-0.1-0.1-0.1-0.1-0.2-0.2c0,0,0,0-0.1-0.1l-0.1-0.1c0,0-0.1,0-0.1-0.1l-0.1-0.1h-0.1c0,0-0.1,0-0.1-0.1h-0.1h-0.1h-0.1H151h-0.1
				h-0.1h-0.1h-0.1c-3.2,0-6.4,0-9.6,0h-0.1c-2.5,0-5.1,0-7.6,0c-0.1,0-0.2,0-0.2,0c-0.4,0-2,0.2-0.4,2c9.1,9.5,18.2,19,27.3,28.5
				c0.3,0.4,0.6,1,0.6,1.5c0,4.4,0,8.7,0,13.1c0,0.1,0,0.1,0,0.2c0,0.2,0,0.3,0.1,0.5c0.1,0.3,0.4,0.5,0.9,0.5c4.7,0,9.3,0,13.9,0
				c0.5,0,0.8-0.2,0.9-0.5c0-0.1,0.1-0.3,0.1-0.4c0-0.1,0-0.1,0-0.2c0-4.3,0-8.6,0-13c0-0.3,0-0.6,0.1-0.9c0.1-0.2,0.1-0.3,0.2-0.5
				c0.1-0.2,0.3-0.5,0.5-0.7c9-9.3,18-18.7,27-28.1C205.8,4.4,204.4,4.2,203.9,4.1z"/>
			<g>
				<path class="st0" d="M78.9,25.8c0-0.8-0.1-1.6-0.2-2.5c-0.7-5.1-2.7-9.6-6.4-13c-0.5-0.5-1.1-1-1.7-1.4C69,7.8,67.5,7,66,6.3
					c-3.5-1.5-7.2-2.1-11.1-2.1c-0.5,0-1,0-1.5,0c-0.2,0-0.4,0-0.7,0s-0.6,0-0.9,0c-0.2,0-0.3,0-0.5,0c-0.4,0-0.8,0-1.2,0
					c-0.2,0,0.6,0,0.4,0c-0.3,0-0.7,0-1,0s-0.6,0-0.9,0c-0.3,0-0.6,0-0.8,0c-0.3,0-0.7,0-1,0c-0.2,0-0.5,0-0.7,0c-0.3,0-0.7,0-1,0
					s-0.6,0-0.8,0c-0.3,0-0.7,0-1,0s-0.6,0-0.8,0c-0.3,0-0.6,0-0.9,0l0,0h-0.4c-0.2,0-0.4,0-0.6,0l0,0h-0.5c-0.3,0-0.6,0-0.7,0.1
					c-0.3,0.1-0.5,0.4-0.5,0.9l0,0v0.2l0,0c0,0.1,0,0.1,0,0.2v8.1l0,0v1.6l0,0v0.3l0,0c0,0.1,0,0.3,0.1,0.4c0.1,0.3,0.4,0.5,0.8,0.5
					l0,0c0.1,0,0.2,0,0.3,0c0,0,0,0,0.1,0s0.2,0,0.3,0s0.1,0,0.2,0c0,0,0,0,0.1,0c0.4,0,0.7,0,1.1,0c0.1,0,0.2,0,0.3,0
					c0.3,0,0.5,0,0.8,0c0.1,0,0.2,0,0.3,0c0.2,0,0.5,0,0.7,0c0.1,0,0.3,0,0.4,0c0.2,0,0.4,0,0.6,0c0.1,0,0.3,0,0.4,0
					c0.2,0,0.4,0,0.6,0c0.1,0,0.3,0,0.4,0c0.2,0,0.4,0,0.5,0c0.2,0,0.3,0,0.5,0s0.3,0,0.5,0c0.1,0,0.3,0,0.4,0c0.2,0,0.3,0,0.5,0
					c0.1,0,0.3,0,0.4,0c0.2,0,0.4,0,0.5,0s0.2,0,0.3,0c0.3,0,0.5,0,0.8,0c1.4,0,1.9,0.2,3.3,0.4c0.4,0.1,0.8,0.2,1.3,0.3
					c0.4,0.1,0.8,0.2,1.2,0.3c0.2,0.1,0.5,0.1,0.7,0.2c0.5,0.2,0.9,0.4,1.3,0.6c0.2,0.1,0.4,0.2,0.6,0.3c1,0.6,1.7,1.4,2.4,2.3
					c0.2,0.4,0.5,0.7,0.6,1.2c0.1,0.2,0.2,0.4,0.3,0.6c0.2,0.4,0.3,0.9,0.4,1.3c0.1,0.5,0.2,1,0.2,1.5c0.2,1.6,0.2,3.2-0.1,4.6
					c-0.1,0.4-0.2,0.8-0.3,1.2c-0.1,0.4-0.3,0.8-0.5,1.2c-0.2,0.4-0.4,0.8-0.7,1.1c-0.4,0.5-0.9,1.1-1.5,1.5
					c-1.1,0.9-2.2,1.5-3.5,1.9c-0.6,0.2-1.3,0.4-1.9,0.5c-0.7,0.1-1.3,0.2-2,0.2c-1.2,0-1.9,0.1-3.9,0.1c-0.6,0-1.1,0-1.8,0
					c-0.9,0-1.8,0-2.8,0s-1.9,0-2.9,0s-2,0-2.9,0l0,0c-0.4,0-0.9,0-1.2,0c-0.7,0-1-0.1-1.1-0.5c-0.1-0.2-0.1-0.4-0.1-0.7
					s0-0.5,0-0.8s0-0.5,0-0.8c0-6.1,0-12.3,0-18.4c0-3.2,0-6.4,0-9.6l0,0c0,0,0-1.5,0-2.2c0-0.1,0-0.1,0-0.2l0,0l0,0
					c0-0.5-0.2-0.8-0.5-0.9c-0.2-0.1-0.4-0.1-0.7-0.1h-1.6l0,0c-3.8,0-6.7,0-10.6,0c-0.3,0-0.8,0.3-1,0.6C21,4.4,21,4.5,20.9,4.5
					c-0.5,0.5-1,1.1-1.5,1.5c-2,1.9-4.2,3.3-6.8,4.3c-2.2,0.9-4.6,1.5-6.9,2.3c-0.4,0.1-0.6,0.5-0.6,0.9v10.8c0,0.5,0.4,0.9,1,0.9
					c4.3-0.2,8.4-1,12.1-3.3l0,0c0,0,1.3-0.5,1.3,1.4l0,0c0,8.6,0,17.1,0,25.7c0,0.3,0,0.6,0.1,0.7c0.1,0.4,0.5,0.5,1.1,0.5
					c0.7,0,1.4,0,2.2,0l0,0c4.2,0,8.9,0,13.9,0c0.2,0,0.4,0,0.6,0c2.2,0,4.4,0,6.6,0c3.7,0,6.1,0,9.1,0c0.9,0,1.7,0,2.6-0.1
					c0.4,0,0.9-0.1,1.3-0.1c0.9-0.1,1.7-0.2,2.6-0.3c0.9-0.1,1.7-0.3,2.5-0.5c0.4-0.1,0.8-0.2,1.3-0.3c0.4-0.1,0.8-0.3,1.2-0.4
					c0.4-0.1,0.8-0.3,1.2-0.4c0.8-0.3,1.5-0.7,2.3-1c0.7-0.4,1.4-0.8,2.1-1.2s1.3-0.9,1.9-1.5c0.9-0.8,1.7-1.7,2.4-2.6s1.4-2,2-3.1
					c0.2-0.4,0.4-0.8,0.5-1.2c0.2-0.4,0.3-0.8,0.5-1.2c0.1-0.3,0.2-0.5,0.3-0.8c0.1-0.3,0.2-0.5,0.2-0.8c0.2-0.5,0.3-1.1,0.4-1.6
					s0.2-1.1,0.3-1.6c0.2-1.1,0.2-2.2,0.3-3.2C78.9,27.5,78.9,26.6,78.9,25.8z"/>
			</g>
			<g>
				<path class="st0" d="M151.7,48.3l-28-43.4c0-0.1-0.1-0.1-0.1-0.2c0,0,0,0-0.1-0.1l-0.1-0.1c0,0,0,0-0.1-0.1l-0.1-0.1
					c0,0,0,0-0.1,0c0,0-0.1,0-0.1-0.1h-0.1h-0.1h-0.1h-0.1h-0.1h-0.1h-0.1h-0.1l0,0c-0.5,0-1,0-1.6,0c-2.5,0-5,0-7.5,0l0,0
					c-3,0-6,0-9,0l0,0c-0.1,0-0.1,0-0.2,0s-0.1,0-0.2,0s-0.1,0-0.1,0h-0.1h-0.1h-0.1c0,0-0.1,0-0.1,0.1h-0.1L103,4.4
					c0,0-0.1,0-0.1,0.1l-0.1,0.1c0,0-0.1,0-0.1,0.1l-0.1,0.1c0,0,0,0-0.1,0.1s-0.1,0.2-0.2,0.2L74.5,48.4c-0.8,1.6,0.5,1.9,1.2,1.9
					h14.9c0.4,0,0.8-0.4,1.1-0.7c0.6-0.9,1.2-1.8,1.8-2.8c0.6-0.9,1.2-1.9,1.7-2.8c0.1-0.1,0.2-0.2,0.2-0.3c0,0,0.1,0,0.1-0.1
					c0.1-0.1,0.1-0.1,0.2-0.2h0.1c0.1,0,0.1-0.1,0.2-0.1s0.1,0,0.2,0s0.2,0,0.2,0l0,0c5.5,0,11.1,0,16.6,0s11.1,0,16.6,0
					c0,0,0.1,0,0.2,0c0.1,0,0.2,0.1,0.3,0.1s0.1,0.1,0.2,0.1c0.2,0.1,0.3,0.2,0.4,0.3l0.1,0.1c0.6,0.9,1.2,1.8,1.8,2.7
					s1.2,1.8,1.8,2.8l0,0c0,0.1,0.1,0.1,0.1,0.2c0,0,0,0,0,0.1l0.1,0.1c0,0,0,0,0.1,0.1l0.1,0.1c0,0,0,0,0.1,0c0,0,0.1,0,0.1,0.1
					h0.1h0.1h0.1h0.1h0.1h0.1h0.1h0.1l14.8-0.1C151.4,50.3,152.6,49.9,151.7,48.3z M120.5,31.4c-4.9,0-9.8,0-14.8,0
					c-0.7-0.1-2-0.4-1.1-2l7.6-11.8c0.4-0.7,1.4-0.7,1.8,0c0.5,0.8,1,1.6,1.5,2.4c1.9,2.9,3.8,5.9,5.7,8.8v0.1
					C122.5,31,121.3,31.4,120.5,31.4z"/>
			</g>
		</g>
	</g>
</g>
</svg>
