<svg width="175" height="32" viewBox="0 0 175 32" fill="none" xmlns="http://www.w3.org/2000/svg">
<g clip-path="url(#clip0_4872_60986)">
<path d="M29.157 17.6558V26.6665H30.5372V29.3332H2.93481V26.6665H4.31492V17.6558C3.46528 17.108 2.76879 16.3659 2.28728 15.4955C1.80577 14.6252 1.55412 13.6534 1.55469 12.6665C1.55469 11.5638 1.86383 10.5012 2.4283 9.59584L6.17118 3.33317C6.29231 3.13048 6.46653 2.96217 6.67632 2.84515C6.88612 2.72812 7.12411 2.66651 7.36636 2.6665H26.107C26.3492 2.66651 26.5872 2.72812 26.797 2.84515C27.0068 2.96217 27.181 3.13048 27.3022 3.33317L31.0312 9.57584C31.8546 10.897 32.1192 12.4739 31.7702 13.9787C31.4211 15.4835 30.4852 16.8005 29.157 17.6558ZM26.3968 18.6292C25.4479 18.732 24.4872 18.6219 23.5895 18.3074C22.6919 17.9929 21.8814 17.4824 21.2214 16.8158C20.642 17.4013 19.9459 17.8672 19.1749 18.1855C18.404 18.5038 17.5743 18.6679 16.736 18.6678C15.8978 18.6682 15.0682 18.5046 14.2973 18.1867C13.5264 17.8689 12.8302 17.4034 12.2506 16.8185C11.5904 17.4849 10.7799 17.995 9.88225 18.3093C8.98459 18.6236 8.02397 18.7335 7.07516 18.6305V26.6665H26.3968V18.6305V18.6292ZM8.16407 5.33317L4.80625 10.9505C4.47995 11.7294 4.47016 12.5985 4.77882 13.3841C5.08749 14.1696 5.69184 14.8136 6.47092 15.187C7.25 15.5605 8.14633 15.6359 8.98052 15.3983C9.81472 15.1606 10.5252 14.6273 10.9698 13.9052C11.4322 12.7892 13.0676 12.7892 13.5313 13.9052C13.7871 14.5244 14.2291 15.0553 14.8004 15.4293C15.3717 15.8033 16.0459 16.0032 16.736 16.0032C17.4261 16.0032 18.1003 15.8033 18.6716 15.4293C19.2428 15.0553 19.6849 14.5244 19.9406 13.9052C20.403 12.7892 22.0384 12.7892 22.5021 13.9052C22.6812 14.3311 22.9496 14.7166 23.2903 15.0375C23.6311 15.3584 24.0369 15.6078 24.4822 15.7699C24.9275 15.932 25.4027 16.0033 25.878 15.9794C26.3532 15.9555 26.8182 15.8369 27.2436 15.6311C27.6691 15.4252 28.046 15.1365 28.3504 14.7832C28.6549 14.4299 28.8804 14.0195 29.0128 13.5779C29.1452 13.1363 29.1816 12.6731 29.1197 12.2172C29.0578 11.7614 28.899 11.3229 28.6533 10.9292L25.3065 5.33317H8.16545H8.16407Z" fill="#F2F2F2"/>
</g>
<path d="M63.0114 24.5L61.4754 20.204H54.8754L53.3394 24.5H49.9074L56.2194 7.7H60.1314L66.4434 24.5H63.0114ZM55.7634 17.708H60.5874L58.1634 10.94L55.7634 17.708ZM74.6741 15.188H82.5221V24.5H79.4501V22.532C78.3941 23.9 76.8341 24.86 74.5541 24.86C69.8021 24.86 66.7781 21.236 66.7781 16.148C66.7781 11.012 70.0181 7.34 75.0341 7.34C79.0661 7.34 81.5861 9.5 82.3301 12.308H78.8261C78.2741 11.012 77.0501 10.076 75.0341 10.076C72.0341 10.076 70.2821 12.476 70.2821 16.148C70.2821 19.868 72.2021 22.124 75.3221 22.124C77.6021 22.124 78.8021 21.188 79.4501 20.012V17.756H74.6741V15.188ZM85.4998 24.5V7.7H97.3558V10.316H88.7878V14.66H96.7558V17.276H88.7878V21.884H97.4758V24.5H85.4998ZM100.148 24.5V7.7H104.18L111.188 20.012V7.7H114.476V24.5H110.444L103.436 12.188V24.5H100.148ZM125.284 24.86C120.268 24.86 117.028 21.236 117.028 16.148C117.028 11.012 120.268 7.34 125.284 7.34C129.268 7.34 131.716 9.428 132.484 12.308H128.98C128.428 10.988 127.228 10.076 125.284 10.076C122.284 10.076 120.532 12.476 120.532 16.148C120.532 19.796 122.284 22.124 125.284 22.124C127.228 22.124 128.428 21.164 128.98 19.772H132.484C131.716 22.724 129.268 24.86 125.284 24.86ZM134.765 24.5V7.7H138.053V24.5H134.765ZM141.398 24.5V7.7H153.254V10.316H144.686V14.66H152.654V17.276H144.686V21.884H153.374V24.5H141.398ZM162.287 24.86C157.967 24.86 155.543 22.724 155.015 19.772H158.471C158.903 21.332 160.175 22.292 162.287 22.292C164.639 22.292 165.671 21.26 165.671 19.916C165.671 16.148 155.471 18.74 155.471 12.428C155.471 9.308 158.063 7.34 161.807 7.34C165.551 7.34 168.167 9.572 168.671 12.308H165.215C164.831 10.964 163.823 9.908 161.807 9.908C159.863 9.908 158.831 10.916 158.831 12.14C158.831 15.716 169.031 13.1 169.031 19.628C169.031 22.892 166.535 24.86 162.287 24.86Z" fill="#F2F2F2"/>
<defs>
<clipPath id="clip0_4872_60986">
<rect width="33.1228" height="32" fill="white" transform="translate(0.171875)"/>
</clipPath>
</defs>
</svg>
