<svg width="149" height="32" viewBox="0 0 149 32" fill="none" xmlns="http://www.w3.org/2000/svg">
<g clip-path="url(#clip0_5659_22626)">
<path d="M16.559 29.3332C8.9366 29.3332 2.75781 23.3638 2.75781 15.9998C2.75781 8.63584 8.9366 2.6665 16.559 2.6665C24.1814 2.6665 30.3602 8.63584 30.3602 15.9998C30.3602 23.3638 24.1814 29.3332 16.559 29.3332ZM16.559 26.6665C19.4872 26.6665 22.2955 25.5427 24.3661 23.5423C26.4367 21.5419 27.5999 18.8288 27.5999 15.9998C27.5999 13.1709 26.4367 10.4578 24.3661 8.45737C22.2955 6.45698 19.4872 5.33317 16.559 5.33317C13.6307 5.33317 10.8224 6.45698 8.75186 8.45737C6.68129 10.4578 5.51805 13.1709 5.51805 15.9998C5.51805 18.8288 6.68129 21.5419 8.75186 23.5423C10.8224 25.5427 13.6307 26.6665 16.559 26.6665V26.6665ZM15.1789 21.3332H11.0385V10.6665H15.1789V7.99984H17.9391V10.6665H19.3192C19.96 10.6665 20.5881 10.8389 21.1332 11.1643C21.6782 11.4898 22.1187 11.9554 22.4053 12.5091C22.6918 13.0628 22.8131 13.6827 22.7556 14.2992C22.698 14.9157 22.4639 15.5046 22.0795 15.9998C22.4639 16.4951 22.698 17.0839 22.7556 17.7005C22.8131 18.317 22.6918 18.9369 22.4053 19.4906C22.1187 20.0442 21.6782 20.5099 21.1332 20.8353C20.5881 21.1608 19.96 21.3332 19.3192 21.3332H17.9391V23.9998H15.1789V21.3332ZM13.7988 17.3332V18.6665H19.3192C19.5022 18.6665 19.6778 18.5963 19.8072 18.4712C19.9366 18.3462 20.0093 18.1766 20.0093 17.9998C20.0093 17.823 19.9366 17.6535 19.8072 17.5284C19.6778 17.4034 19.5022 17.3332 19.3192 17.3332H13.7988ZM13.7988 13.3332V14.6665H19.3192C19.5022 14.6665 19.6778 14.5963 19.8072 14.4712C19.9366 14.3462 20.0093 14.1766 20.0093 13.9998C20.0093 13.823 19.9366 13.6535 19.8072 13.5284C19.6778 13.4034 19.5022 13.3332 19.3192 13.3332H13.7988Z" fill="#F2F2F2"/>
</g>
<path d="M58.6591 24.86C53.6431 24.86 50.4031 21.236 50.4031 16.148C50.4031 11.012 53.6431 7.34 58.6591 7.34C62.6431 7.34 65.0911 9.428 65.8591 12.308H62.3551C61.8031 10.988 60.6031 10.076 58.6591 10.076C55.6591 10.076 53.9071 12.476 53.9071 16.148C53.9071 19.796 55.6591 22.124 58.6591 22.124C60.6031 22.124 61.8031 21.164 62.3551 19.772H65.8591C65.0911 22.724 62.6431 24.86 58.6591 24.86ZM68.1404 24.5V7.7H75.2924C79.2044 7.7 81.5084 9.38 81.5084 12.404C81.5084 14.564 80.0684 16.004 78.7244 16.22C80.1404 16.412 81.1244 17.204 81.1244 19.052C81.1244 22.82 81.3164 23.732 82.1084 24.5H78.6044C78.0284 23.66 77.8364 22.94 77.8364 19.58C77.8364 18.188 76.9244 17.756 75.6284 17.756H71.4284V24.5H68.1404ZM71.4284 15.188H75.0764C76.8764 15.188 78.1004 14.468 78.1004 12.764C78.1004 11.156 76.9964 10.244 75.0764 10.244H71.4284V15.188ZM88.4309 24.5V17.924L82.0469 7.7H85.6469L90.0869 15.092L94.5509 7.7H98.1269L91.7189 17.924V24.5H88.4309ZM99.7576 24.5V7.7H107.006C111.158 7.7 113.126 9.596 113.126 12.74C113.126 15.86 111.158 17.756 107.006 17.756H103.046V24.5H99.7576ZM103.046 15.188H106.79C108.83 15.188 109.718 14.132 109.718 12.74C109.718 11.324 108.83 10.244 106.79 10.244H103.046V15.188ZM119.025 24.5V10.364H113.553V7.7H127.785V10.364H122.313V24.5H119.025ZM136.306 24.86C131.338 24.86 128.098 21.236 128.098 16.1C128.098 11.012 131.338 7.34 136.306 7.34C141.274 7.34 144.514 11.012 144.514 16.1C144.514 21.236 141.274 24.86 136.306 24.86ZM136.306 22.124C139.258 22.124 141.01 19.772 141.01 16.1C141.01 12.452 139.258 10.076 136.306 10.076C133.354 10.076 131.602 12.452 131.602 16.1C131.602 19.772 133.354 22.124 136.306 22.124Z" fill="#F2F2F2"/>
<defs>
<clipPath id="clip0_5659_22626">
<rect width="33.1228" height="32" fill="white"/>
</clipPath>
</defs>
</svg>
