<svg width="221" height="32" viewBox="0 0 221 32" fill="none" xmlns="http://www.w3.org/2000/svg">
<g clip-path="url(#clip0_4872_60980)">
<path d="M5.7993 21.3332V5.33317H3.03906V2.6665H7.17941C7.54544 2.6665 7.89648 2.80698 8.1553 3.05703C8.41413 3.30708 8.55953 3.64622 8.55953 3.99984V19.9998H25.7254L28.4857 9.33317H11.3198V6.6665H30.255C30.4648 6.66651 30.6718 6.71272 30.8603 6.80162C31.0488 6.89052 31.2139 7.01977 31.343 7.17955C31.472 7.33933 31.5617 7.52544 31.6051 7.72372C31.6486 7.922 31.6447 8.12724 31.5937 8.32384L28.1434 21.6572C28.0686 21.9455 27.8963 22.2014 27.6537 22.3843C27.4112 22.5672 27.1124 22.6665 26.8047 22.6665H7.17941C6.81338 22.6665 6.46235 22.526 6.20352 22.276C5.9447 22.0259 5.7993 21.6868 5.7993 21.3332ZM8.55953 30.6665C7.82747 30.6665 7.1254 30.3856 6.60775 29.8855C6.09011 29.3854 5.7993 28.7071 5.7993 27.9998C5.7993 27.2926 6.09011 26.6143 6.60775 26.1142C7.1254 25.6141 7.82747 25.3332 8.55953 25.3332C9.29159 25.3332 9.99367 25.6141 10.5113 26.1142C11.029 26.6143 11.3198 27.2926 11.3198 27.9998C11.3198 28.7071 11.029 29.3854 10.5113 29.8855C9.99367 30.3856 9.29159 30.6665 8.55953 30.6665ZM25.1209 30.6665C24.3889 30.6665 23.6868 30.3856 23.1692 29.8855C22.6515 29.3854 22.3607 28.7071 22.3607 27.9998C22.3607 27.2926 22.6515 26.6143 23.1692 26.1142C23.6868 25.6141 24.3889 25.3332 25.1209 25.3332C25.853 25.3332 26.5551 25.6141 27.0727 26.1142C27.5904 26.6143 27.8812 27.2926 27.8812 27.9998C27.8812 28.7071 27.5904 29.3854 27.0727 29.8855C26.5551 30.3856 25.853 30.6665 25.1209 30.6665Z" fill="#F2F2F2"/>
</g>
<path d="M51.6248 24.5V7.7H63.4808V10.316H54.9128V14.66H62.8808V17.276H54.9128V21.884H63.6008V24.5H51.6248ZM65.5845 19.724V17.276H73.7925V19.724H65.5845ZM84.1903 24.86C79.1743 24.86 75.9343 21.236 75.9343 16.148C75.9343 11.012 79.1743 7.34 84.1903 7.34C88.1743 7.34 90.6223 9.428 91.3903 12.308H87.8863C87.3343 10.988 86.1343 10.076 84.1903 10.076C81.1903 10.076 79.4383 12.476 79.4383 16.148C79.4383 19.796 81.1903 22.124 84.1903 22.124C86.1343 22.124 87.3343 21.164 87.8863 19.772H91.3903C90.6223 22.724 88.1743 24.86 84.1903 24.86ZM101.088 24.86C96.1196 24.86 92.8796 21.236 92.8796 16.1C92.8796 11.012 96.1196 7.34 101.088 7.34C106.056 7.34 109.296 11.012 109.296 16.1C109.296 21.236 106.056 24.86 101.088 24.86ZM101.088 22.124C104.04 22.124 105.792 19.772 105.792 16.1C105.792 12.452 104.04 10.076 101.088 10.076C98.1356 10.076 96.3836 12.452 96.3836 16.1C96.3836 19.772 98.1356 22.124 101.088 22.124ZM111.812 24.5V7.7H116.972L120.668 20.948L124.34 7.7H129.5V24.5H126.26V11.468L122.42 24.5H118.892L115.052 11.468V24.5H111.812ZM132.812 24.5V7.7H137.972L141.668 20.948L145.34 7.7H150.5V24.5H147.26V11.468L143.42 24.5H139.892L136.052 11.468V24.5H132.812ZM153.812 24.5V7.7H165.668V10.316H157.1V14.66H165.068V17.276H157.1V21.884H165.788V24.5H153.812ZM168.461 24.5V7.7H175.613C179.525 7.7 181.829 9.38 181.829 12.404C181.829 14.564 180.389 16.004 179.045 16.22C180.461 16.412 181.445 17.204 181.445 19.052C181.445 22.82 181.637 23.732 182.429 24.5H178.925C178.349 23.66 178.157 22.94 178.157 19.58C178.157 18.188 177.245 17.756 175.949 17.756H171.749V24.5H168.461ZM171.749 15.188H175.397C177.197 15.188 178.421 14.468 178.421 12.764C178.421 11.156 177.317 10.244 175.397 10.244H171.749V15.188ZM192.214 24.86C187.198 24.86 183.958 21.236 183.958 16.148C183.958 11.012 187.198 7.34 192.214 7.34C196.198 7.34 198.646 9.428 199.414 12.308H195.91C195.358 10.988 194.158 10.076 192.214 10.076C189.214 10.076 187.462 12.476 187.462 16.148C187.462 19.796 189.214 22.124 192.214 22.124C194.158 22.124 195.358 21.164 195.91 19.772H199.414C198.646 22.724 196.198 24.86 192.214 24.86ZM201.695 24.5V7.7H213.551V10.316H204.983V14.66H212.951V17.276H204.983V21.884H213.671V24.5H201.695Z" fill="#F2F2F2"/>
<defs>
<clipPath id="clip0_4872_60980">
<rect width="33.1228" height="32" fill="white" transform="translate(0.28125)"/>
</clipPath>
</defs>
</svg>
