<svg width="299" height="34" viewBox="0 0 299 34" fill="none" xmlns="http://www.w3.org/2000/svg">
<g clip-path="url(#clip0_5659_22632)">
<path d="M8.79519 2.8335C12.7397 2.8335 16.1623 4.98258 17.8823 8.13325C19.6082 5.78441 22.4471 4.25016 25.6585 4.25016H30.7908V7.79183C30.7908 12.8777 26.5237 17.0002 21.2594 17.0002H19.0598V18.4168H26.3917V28.3335C26.3917 29.8989 25.0793 31.1668 23.4589 31.1668H11.7279C10.1076 31.1668 8.79519 29.8989 8.79519 28.3335V18.4168H16.1271V15.5835H13.1943C7.52531 15.5835 2.92969 11.1437 2.92969 5.66683V2.8335H8.79519ZM23.4589 21.2502H11.7279V28.3335H23.4589V21.2502ZM27.8581 7.0835H25.6585C22.0146 7.0835 19.0598 9.93808 19.0598 13.4585V14.1668H21.2594C24.9033 14.1668 27.8581 11.3122 27.8581 7.79183V7.0835ZM8.79519 5.66683H5.86244C5.86244 9.57825 9.14565 12.7502 13.1943 12.7502H16.1271C16.1271 8.83875 12.8438 5.66683 8.79519 5.66683Z" fill="#F2F2F2"/>
</g>
<path d="M57.5793 7.7H60.8673V24.5H57.5793V17.276H50.1393V24.5H46.8513V7.7H50.1393V14.66H57.5793V7.7ZM64.1716 24.5V7.7H76.0276V10.316H67.4596V14.66H75.4276V17.276H67.4596V21.884H76.1476V24.5H64.1716ZM90.2458 24.5L88.7098 20.204H82.1098L80.5738 24.5H77.1418L83.4538 7.7H87.3658L93.6778 24.5H90.2458ZM82.9978 17.708H87.8218L85.3978 10.94L82.9978 17.708ZM95.3904 24.5V7.7H98.6784V21.836H107.006V24.5H95.3904ZM110.181 24.5V10.364H104.709V7.7H118.941V10.364H113.469V24.5H110.181ZM131.572 7.7H134.86V24.5H131.572V17.276H124.132V24.5H120.844V7.7H124.132V14.66H131.572V7.7ZM158.418 24.5H154.866L153.594 23.18C152.178 24.212 150.33 24.86 147.978 24.86C144.378 24.86 142.314 22.916 142.314 20.132C142.314 17.852 143.874 16.484 146.13 15.356C144.978 14.084 144.09 12.812 144.09 11.348C144.09 9.116 145.77 7.34 148.986 7.34C152.01 7.34 153.93 8.948 153.93 11.348C153.93 13.412 152.73 14.876 150.33 16.124L153.498 19.412C153.906 18.764 154.218 18.092 154.362 17.468H157.434C156.954 18.884 156.282 20.228 155.394 21.38L158.418 24.5ZM149.01 9.836C147.954 9.836 147.21 10.484 147.21 11.468C147.21 12.14 147.498 12.956 148.578 14.252C150.354 13.316 150.81 12.428 150.81 11.468C150.81 10.412 150.114 9.836 149.01 9.836ZM148.554 22.364C149.778 22.364 150.858 21.932 151.77 21.26L147.906 17.228C146.538 17.9 145.602 18.74 145.602 20.036C145.602 21.452 146.778 22.364 148.554 22.364ZM166.779 24.5L162.531 7.7H165.915L168.675 20.66L171.435 7.7H175.563L178.323 20.66L181.083 7.7H184.443L180.219 24.5H176.259L173.499 11.54L170.739 24.5H166.779ZM186.445 24.5V7.7H198.301V10.316H189.733V14.66H197.701V17.276H189.733V21.884H198.421V24.5H186.445ZM201.094 24.5V7.7H204.382V21.836H212.71V24.5H201.094ZM214.664 24.5V7.7H217.952V21.836H226.28V24.5H214.664ZM228.234 24.5V7.7H232.266L239.274 20.012V7.7H242.562V24.5H238.53L231.522 12.188V24.5H228.234ZM245.906 24.5V7.7H257.762V10.316H249.194V14.66H257.162V17.276H249.194V21.884H257.882V24.5H245.906ZM266.794 24.86C262.474 24.86 260.05 22.724 259.522 19.772H262.978C263.41 21.332 264.682 22.292 266.794 22.292C269.146 22.292 270.178 21.26 270.178 19.916C270.178 16.148 259.978 18.74 259.978 12.428C259.978 9.308 262.57 7.34 266.314 7.34C270.058 7.34 272.674 9.572 273.178 12.308H269.722C269.338 10.964 268.33 9.908 266.314 9.908C264.37 9.908 263.338 10.916 263.338 12.14C263.338 15.716 273.538 13.1 273.538 19.628C273.538 22.892 271.042 24.86 266.794 24.86ZM282.169 24.86C277.849 24.86 275.425 22.724 274.897 19.772H278.353C278.785 21.332 280.057 22.292 282.169 22.292C284.521 22.292 285.553 21.26 285.553 19.916C285.553 16.148 275.353 18.74 275.353 12.428C275.353 9.308 277.945 7.34 281.689 7.34C285.433 7.34 288.049 9.572 288.553 12.308H285.097C284.713 10.964 283.705 9.908 281.689 9.908C279.745 9.908 278.713 10.916 278.713 12.14C278.713 15.716 288.913 13.1 288.913 19.628C288.913 22.892 286.417 24.86 282.169 24.86Z" fill="#F2F2F2"/>
<defs>
<clipPath id="clip0_5659_22632">
<rect width="35.193" height="34" fill="white"/>
</clipPath>
</defs>
</svg>
