<svg width="178" height="32" viewBox="0 0 178 32" fill="none" xmlns="http://www.w3.org/2000/svg">
<g clip-path="url(#clip0_4872_61020)">
<path d="M13.5961 11.72L11.0705 12.608V17.3333H8.31023V10.7333H8.33093L15.6014 8.176C15.9381 8.052 16.3053 7.98933 16.6806 8.00133C17.4307 8.0194 18.1564 8.26281 18.7567 8.69771C19.357 9.13261 19.8021 9.7374 20.0302 10.428C20.2869 11.2053 20.5215 11.7307 20.734 12.004C21.3764 12.8315 22.2095 13.503 23.1673 13.9652C24.125 14.4274 25.1811 14.6675 26.2518 14.6667V17.3333C24.8265 17.3348 23.4186 17.031 22.1295 16.4438C20.8403 15.8566 19.702 15.0006 18.7964 13.9373L17.8344 19.212L20.7313 21.56V30.6667H17.9711V22.8027L14.8382 20.264L13.8348 25.7667L4.32031 24.1467L4.80059 21.52L11.5963 22.6773L13.5961 11.72ZM18.6611 7.33333C17.9291 7.33333 17.227 7.05238 16.7093 6.55228C16.1917 6.05219 15.9009 5.37391 15.9009 4.66667C15.9009 3.95942 16.1917 3.28115 16.7093 2.78105C17.227 2.28095 17.9291 2 18.6611 2C19.3932 2 20.0952 2.28095 20.6129 2.78105C21.1305 3.28115 21.4213 3.95942 21.4213 4.66667C21.4213 5.37391 21.1305 6.05219 20.6129 6.55228C20.0952 7.05238 19.3932 7.33333 18.6611 7.33333Z" fill="#F2F2F2"/>
</g>
<path d="M51.3748 24V7.2H54.6628V21.336H62.9908V24H51.3748ZM64.9451 24V7.2H68.2331V24H64.9451ZM71.5779 24V7.2H83.0739V9.816H74.8659V14.16H82.8339V16.776H74.8659V24H71.5779ZM85.4763 24V7.2H97.3323V9.816H88.7643V14.16H96.7323V16.776H88.7643V21.384H97.4523V24H85.4763ZM106.365 24.36C102.045 24.36 99.6208 22.224 99.0928 19.272H102.549C102.981 20.832 104.253 21.792 106.365 21.792C108.717 21.792 109.749 20.76 109.749 19.416C109.749 15.648 99.5488 18.24 99.5488 11.928C99.5488 8.808 102.141 6.84 105.885 6.84C109.629 6.84 112.245 9.072 112.749 11.808H109.293C108.909 10.464 107.901 9.408 105.885 9.408C103.941 9.408 102.909 10.416 102.909 11.64C102.909 15.216 113.109 12.6 113.109 19.128C113.109 22.392 110.613 24.36 106.365 24.36ZM118.9 24V9.864H113.428V7.2H127.66V9.864H122.188V24H118.9ZM134.384 24V17.424L128 7.2H131.6L136.04 14.592L140.504 7.2H144.08L137.672 17.424V24H134.384ZM145.711 24V7.2H148.999V21.336H157.327V24H145.711ZM159.281 24V7.2H171.137V9.816H162.569V14.16H170.537V16.776H162.569V21.384H171.257V24H159.281Z" fill="#F2F2F2"/>
<defs>
<clipPath id="clip0_4872_61020">
<rect width="33.1228" height="32" fill="white" transform="translate(0.03125)"/>
</clipPath>
</defs>
</svg>
