<svg width="186" height="34" viewBox="0 0 186 34" fill="none" xmlns="http://www.w3.org/2000/svg">
<path d="M45.6794 26V9.2H50.8394L54.5354 22.448L58.2074 9.2H63.3674V26H60.1274V12.968L56.2874 26H52.7594L48.9194 12.968V26H45.6794ZM78.1754 26L76.6394 21.704H70.0394L68.5034 26H65.0714L71.3834 9.2H75.2954L81.6074 26H78.1754ZM70.9274 19.208H75.7514L73.3274 12.44L70.9274 19.208ZM83.3201 26V9.2H90.4721C94.3841 9.2 96.6881 10.88 96.6881 13.904C96.6881 16.064 95.2481 17.504 93.9041 17.72C95.3201 17.912 96.3041 18.704 96.3041 20.552C96.3041 24.32 96.4961 25.232 97.2881 26H93.7841C93.2081 25.16 93.0161 24.44 93.0161 21.08C93.0161 19.688 92.1041 19.256 90.8081 19.256H86.6081V26H83.3201ZM86.6081 16.688H90.2561C92.0561 16.688 93.2801 15.968 93.2801 14.264C93.2801 12.656 92.1761 11.744 90.2561 11.744H86.6081V16.688ZM114.247 26H110.215L102.991 18.128V26H99.7029V9.2H102.991V16.736L109.999 9.2H113.887L106.279 17.432L114.247 26ZM115.617 26V9.2H127.473V11.816H118.905V16.16H126.873V18.776H118.905V23.384H127.593V26H115.617ZM134.11 26V11.864H128.638V9.2H142.87V11.864H137.398V26H134.11ZM144.773 26V9.2H148.061V26H144.773ZM151.406 26V9.2H155.438L162.446 21.512V9.2H165.734V26H161.702L154.694 13.688V26H151.406ZM176.182 16.688H184.03V26H180.958V24.032C179.902 25.4 178.342 26.36 176.062 26.36C171.31 26.36 168.286 22.736 168.286 17.648C168.286 12.512 171.526 8.84 176.542 8.84C180.574 8.84 183.094 11 183.838 13.808H180.334C179.782 12.512 178.558 11.576 176.542 11.576C173.542 11.576 171.79 13.976 171.79 17.648C171.79 21.368 173.71 23.624 176.83 23.624C179.11 23.624 180.31 22.688 180.958 21.512V19.256H176.182V16.688Z" fill="#F2F2F2"/>
<path d="M25.5026 17.0069C25.5026 17.786 26.1401 18.4235 26.9193 18.4235H29.7526C30.5318 18.4235 31.1693 17.786 31.1693 17.0069C31.1693 16.2277 30.5318 15.5902 29.7526 15.5902H26.9193C26.1401 15.5902 25.5026 16.2277 25.5026 17.0069Z" fill="white"/>
<path d="M23.5051 23.8352C23.0376 24.4585 23.1651 25.3227 23.7884 25.776C24.5393 26.3285 25.3326 26.9235 26.0834 27.4902C26.7068 27.9577 27.5851 27.8302 28.0384 27.2069C28.0384 27.1927 28.0526 27.1927 28.0526 27.1785C28.5201 26.5552 28.3926 25.6769 27.7693 25.2235C27.0184 24.6569 26.2251 24.0619 25.4884 23.5094C24.8651 23.0419 23.9868 23.1835 23.5193 23.8069C23.5193 23.821 23.5051 23.8352 23.5051 23.8352Z" fill="white"/>
<path d="M28.0668 6.82103C28.0668 6.80686 28.0526 6.80686 28.0526 6.79269C27.5851 6.16936 26.7068 6.04186 26.0976 6.50936C25.3468 7.07603 24.5393 7.67103 23.8026 8.23769C23.1793 8.70519 23.0659 9.58353 23.5334 10.1927C23.5334 10.2069 23.5476 10.2069 23.5476 10.221C24.0151 10.8444 24.8793 10.9719 25.5026 10.5044C26.2534 9.95186 27.0468 9.34269 27.7976 8.77603C28.4068 8.32269 28.5201 7.44436 28.0668 6.82103Z" fill="white"/>
<path d="M11.3359 12.7569H5.66927C4.11094 12.7569 2.83594 14.0319 2.83594 15.5902V18.4235C2.83594 19.9819 4.11094 21.2569 5.66927 21.2569H7.08594V25.5069C7.08594 26.286 7.72344 26.9235 8.5026 26.9235C9.28177 26.9235 9.91927 26.286 9.91927 25.5069V21.2569H11.3359L18.4193 25.5069V8.50686L11.3359 12.7569Z" fill="white"/>
<path d="M21.9609 17.0069C21.9609 15.1227 21.1393 13.4227 19.8359 12.261V21.7385C21.1393 20.591 21.9609 18.891 21.9609 17.0069Z" fill="white"/>
</svg>
