<svg width="147" height="32" viewBox="0 0 147 32" fill="none" xmlns="http://www.w3.org/2000/svg">
<g clip-path="url(#clip0_5659_22642)">
<path d="M2.75781 17.3333H11.0385V28H2.75781V17.3333ZM22.0795 10.6667H30.3602V28H22.0795V10.6667ZM12.4186 4H20.6993V28H12.4186V4ZM5.51805 20V25.3333H8.27828V20H5.51805ZM15.1789 6.66667V25.3333H17.9391V6.66667H15.1789ZM24.8397 13.3333V25.3333H27.5999V13.3333H24.8397Z" fill="#F2F2F2"/>
</g>
<path d="M56.146 24.86C51.826 24.86 49.402 22.724 48.874 19.772H52.33C52.762 21.332 54.034 22.292 56.146 22.292C58.498 22.292 59.53 21.26 59.53 19.916C59.53 16.148 49.33 18.74 49.33 12.428C49.33 9.308 51.922 7.34 55.666 7.34C59.41 7.34 62.026 9.572 62.53 12.308H59.074C58.69 10.964 57.682 9.908 55.666 9.908C53.722 9.908 52.69 10.916 52.69 12.14C52.69 15.716 62.89 13.1 62.89 19.628C62.89 22.892 60.394 24.86 56.146 24.86ZM68.6808 24.5V10.364H63.2088V7.7H77.4408V10.364H71.9688V24.5H68.6808ZM85.9626 24.86C80.9946 24.86 77.7546 21.236 77.7546 16.1C77.7546 11.012 80.9946 7.34 85.9626 7.34C90.9306 7.34 94.1706 11.012 94.1706 16.1C94.1706 21.236 90.9306 24.86 85.9626 24.86ZM85.9626 22.124C88.9146 22.124 90.6666 19.772 90.6666 16.1C90.6666 12.452 88.9146 10.076 85.9626 10.076C83.0106 10.076 81.2586 12.452 81.2586 16.1C81.2586 19.772 83.0106 22.124 85.9626 22.124ZM104.151 24.86C99.1353 24.86 95.8953 21.236 95.8953 16.148C95.8953 11.012 99.1353 7.34 104.151 7.34C108.135 7.34 110.583 9.428 111.351 12.308H107.847C107.295 10.988 106.095 10.076 104.151 10.076C101.151 10.076 99.3993 12.476 99.3993 16.148C99.3993 19.796 101.151 22.124 104.151 22.124C106.095 22.124 107.295 21.164 107.847 19.772H111.351C110.583 22.724 108.135 24.86 104.151 24.86ZM128.177 24.5H124.145L116.921 16.628V24.5H113.633V7.7H116.921V15.236L123.929 7.7H127.817L120.209 15.932L128.177 24.5ZM135.13 24.86C130.81 24.86 128.386 22.724 127.858 19.772H131.314C131.746 21.332 133.018 22.292 135.13 22.292C137.482 22.292 138.514 21.26 138.514 19.916C138.514 16.148 128.314 18.74 128.314 12.428C128.314 9.308 130.906 7.34 134.65 7.34C138.394 7.34 141.01 9.572 141.514 12.308H138.058C137.674 10.964 136.666 9.908 134.65 9.908C132.706 9.908 131.674 10.916 131.674 12.14C131.674 15.716 141.874 13.1 141.874 19.628C141.874 22.892 139.378 24.86 135.13 24.86Z" fill="#F2F2F2"/>
<defs>
<clipPath id="clip0_5659_22642">
<rect width="33.1228" height="32" fill="white"/>
</clipPath>
</defs>
</svg>
