<svg width="836" height="120" viewBox="0 0 836 120" fill="none" xmlns="http://www.w3.org/2000/svg">
<g clip-path="url(#clip0_1_113)">
<path d="M0.301514 84.748L11.2734 73.388C16.847 80.556 22.4207 84.62 30.3699 84.62C39.3169 84.62 45.4124 78.664 45.4124 65.948V4H62.6134V66.496C62.6134 77.72 59.2316 86.104 53.6789 91.652C48.1261 97.2 40.1268 100 30.6496 100C16.0204 100.04 6.53479 93.276 0.301514 84.748ZM83.384 72.908V28H100.322V68.096C100.322 79.096 106.079 85.2 116.137 85.2C125.923 85.2 132.783 78.784 132.783 67.784V28H149.854V98.572H132.783V87.572C127.986 94.252 121.176 100 109.695 100C93.0366 100.04 83.384 89.34 83.384 72.908ZM166.471 25.476H183.442V36.292C188.247 29.744 195.074 24 206.572 24C223.255 24 232.937 34.692 232.937 50.988V96H215.969V55.932C215.969 44.94 210.2 38.692 200.121 38.692C190.306 38.692 183.442 45.244 183.442 56.2V96H166.467L166.471 25.476ZM253.114 111.744L259.285 99.804C267.092 104.404 275.167 107.156 285.028 107.156C299.82 107.156 307.895 99.804 307.895 85.892V80.492C301.874 87.976 294.343 93.224 282.427 93.224C265.447 93.224 249.553 81.144 249.553 60.828V60.548C249.553 40.08 265.581 28 282.427 28C294.635 28 302.15 33.4 307.782 39.816V29.468H324.332V84.588C324.332 96.284 321.184 104.924 315.155 110.684C308.584 116.98 298.447 119.996 285.441 119.996C274.082 120.12 262.904 117.267 253.114 111.744ZM308.037 60.692V60.432C308.037 49.148 298.317 41.408 286.811 41.408C275.309 41.408 266.262 49.02 266.262 60.432V60.692C266.262 71.988 275.438 79.724 286.811 79.724C298.184 79.724 308.037 71.988 308.037 60.692ZM345.102 0H361.719V96H345.102V0ZM378.335 64.148V63.924C378.335 44.22 393.119 28 413.99 28C437.207 28 448.96 45.24 448.96 65.096C448.96 66.532 448.818 67.972 448.684 69.576H395.064C396.856 80.808 405.289 87.076 416.065 87.076C424.223 87.076 430.022 84.2 435.833 78.844L445.645 87.076C438.731 94.916 429.195 100 415.789 100C394.647 99.928 378.335 85.42 378.335 64.148ZM432.356 59.052C431.266 48.868 424.916 40.896 413.856 40.896C403.627 40.896 396.438 48.34 394.902 59.052H432.356Z" fill="white"/>
<path d="M461.422 85.1L471.63 73.368C480.873 81.104 490.259 85.488 502.12 85.488C512.599 85.488 519.225 80.684 519.225 73.744V73.476C519.225 66.812 515.363 63.208 497.465 59.212C476.907 54.412 465.3 48.54 465.3 31.332V31.072C465.3 15.064 479.103 4 498.283 4C512.349 4 523.521 8.132 533.282 15.732L524.193 28.152C515.496 21.888 506.812 18.552 497.974 18.552C488.042 18.552 482.251 23.488 482.251 29.624V29.892C482.251 37.088 486.672 40.292 505.289 44.524C525.713 49.324 536.196 56.412 536.196 71.86V72.124C536.196 89.604 522.005 100 501.702 100C486.796 100.07 472.411 94.7494 461.422 85.1ZM544.504 64.328V64.068C544.504 44.468 560.273 28 581.891 28C595.356 28 603.785 32.84 610.582 39.892L600.249 50.48C595.218 45.38 589.912 41.848 581.754 41.848C569.792 41.848 560.954 51.776 560.954 63.804V64.064C560.954 76.348 569.792 86.152 582.397 86.152C590.145 86.152 595.861 82.752 601.042 77.656L610.975 87.064C603.898 94.648 595.611 99.996 581.603 99.996C560.269 99.996 544.504 83.928 544.504 64.324V64.328ZM710.678 72.908V28H727.603V68.096C727.603 79.096 733.365 85.2 743.418 85.2C753.217 85.2 760.068 78.784 760.068 67.784V28H777.144V98.572H760.081V87.572C755.279 94.252 748.466 100 736.993 100C720.33 100.04 710.678 89.34 710.678 72.908ZM798.883 79.08V41.584H789.606V27.56H798.883V8H815.637V27.56H835.302V41.584H815.637V76.516C815.637 82.86 818.961 85.42 824.639 85.42C828.253 85.4303 831.816 84.5955 835.018 82.988V96.344C830.425 98.876 825.206 100.136 819.929 99.988C807.605 99.988 798.883 94.724 798.883 79.076V79.08ZM619.283 64.308V64.048C619.283 44.344 636.104 28 658.803 28C681.507 28 698.215 44.068 698.215 63.824V64.084C698.215 83.684 681.39 100 658.544 100C635.958 99.964 619.283 83.904 619.283 64.308ZM681.24 64.308V64.048C681.24 51.904 671.846 41.848 658.528 41.848C644.896 41.848 636.246 51.768 636.246 63.788V64.048C636.246 76.068 645.648 86.128 658.816 86.128C672.539 86.128 681.24 76.196 681.24 64.308Z" fill="#F57704"/>
<path d="M660.824 48C667.12 49.5 672.193 56.372 672.193 64.092C672.193 71.056 668.122 77.524 662.853 80C671.642 78.692 677.933 71.408 677.411 63.144C676.885 54.884 669.717 48.336 660.824 48Z" fill="#F57704"/>
</g>
<defs>
<clipPath id="clip0_1_113">
<rect width="835" height="120" fill="white" transform="translate(0.301514)"/>
</clipPath>
</defs>
</svg>
