<svg width="32" height="32" viewBox="0 0 32 32" fill="none" xmlns="http://www.w3.org/2000/svg">
<g clip-path="url(#clip0_829_48148)">
<path d="M21.1382 0.388672H10.8594C5.07552 0.388672 0.386719 5.07747 0.386719 10.8614V21.1402C0.386719 26.9241 5.07552 31.6129 10.8594 31.6129H21.1382C26.9222 31.6129 31.611 26.9241 31.611 21.1402V10.8614C31.611 5.07747 26.9222 0.388672 21.1382 0.388672Z" stroke="black" stroke-opacity="0.03" stroke-width="1.6"/>
<path fill-rule="evenodd" clip-rule="evenodd" d="M2.9082 10.7738C2.90791 10.0708 3.09813 9.38077 3.45866 8.77718C3.81919 8.1736 4.33654 7.67899 4.95572 7.34595L14.1678 2.40001C14.7308 2.09768 15.3599 1.93945 15.9989 1.93945C16.6379 1.93945 17.2669 2.09768 17.8299 2.40001L27.042 7.34547C27.6614 7.67848 28.1789 8.17314 28.5395 8.77682C28.9001 9.3805 29.0904 10.0706 29.09 10.7738V21.2262C29.0903 21.9293 28.9 22.6193 28.5394 23.2229C28.1787 23.8265 27.6613 24.3211 27.042 24.6541L17.8299 29.6C17.2669 29.9023 16.6379 30.0606 15.9989 30.0606C15.3599 30.0606 14.7308 29.9023 14.1678 29.6L4.95572 24.6546C4.33647 24.3215 3.81907 23.8268 3.45854 23.2231C3.09801 22.6194 2.90782 21.9293 2.9082 21.2262V10.7738Z" fill="white" fill-opacity="0.5"/>
<path fill-rule="evenodd" clip-rule="evenodd" d="M4.36328 11.3036C4.36338 10.6734 4.53367 10.0548 4.85617 9.51334C5.17867 8.97186 5.64141 8.52751 6.19552 8.22723L14.3313 3.81754C14.8435 3.53993 15.417 3.39453 15.9996 3.39453C16.5823 3.39453 17.1557 3.53993 17.668 3.81754L25.8038 8.22723C26.3579 8.52751 26.8206 8.97186 27.1431 9.51334C27.4656 10.0548 27.6359 10.6734 27.636 11.3036V20.6971C27.6359 21.3273 27.4656 21.9458 27.1431 22.4873C26.8206 23.0288 26.3579 23.4731 25.8038 23.7734L17.668 28.1831C17.1557 28.4607 16.5823 28.6061 15.9996 28.6061C15.417 28.6061 14.8435 28.4607 14.3313 28.1831L6.19552 23.7734C5.64141 23.4731 5.17867 23.0288 4.85617 22.4873C4.53367 21.9458 4.36338 21.3273 4.36328 20.6971V11.3036Z" fill="url(#paint0_radial_829_48148)"/>
<path fill-rule="evenodd" clip-rule="evenodd" d="M8.308 10.3023C8.79285 10.2698 9.77952 10.3896 10.4612 10.6262C9.92207 11.174 9.60169 11.8999 9.56037 12.6674C9.53012 13.1807 9.62496 13.6936 9.83673 14.1622C9.77153 14.2153 9.70425 14.2657 9.63503 14.3135C8.98728 14.7542 8.20425 14.7159 7.8857 14.2286C7.72715 13.9857 7.71406 13.6768 7.82073 13.3738C7.60012 13.2638 7.43285 13.0902 7.35916 12.8657C7.28449 12.6407 7.31406 12.3998 7.42412 12.1748C7.1594 12.0002 6.98679 11.7471 6.96837 11.4553C6.932 10.8705 7.53176 10.3547 8.308 10.3023ZM23.7596 10.3556C24.5354 10.4201 25.1269 10.9457 25.0809 11.5299C25.0581 11.8213 24.8811 12.072 24.6139 12.2427C24.7206 12.4686 24.7458 12.7105 24.6673 12.9336C24.5897 13.1571 24.4205 13.3282 24.1979 13.4349C24.2998 13.7394 24.2818 14.0478 24.1189 14.2882C23.7931 14.7707 23.0096 14.7959 22.3686 14.345C22.3297 14.3174 22.2915 14.2888 22.2542 14.2591C22.4215 13.7573 22.4947 13.2288 22.4699 12.7004C22.436 11.8732 22.1853 11.1295 21.8028 10.584C22.469 10.4007 23.3213 10.3193 23.7596 10.3556ZM16.211 13.1736C16.211 13.1736 17.8852 15.7151 19.1686 15.0102C19.2239 15.2671 19.3262 15.5096 19.4649 15.7253C18.612 16.3634 17.4886 16.7508 16.2581 16.7508C14.8326 16.7508 13.5502 16.2305 12.6644 15.4029C13.1735 14.6848 13.7179 13.6337 14.1078 12.8284C14.7788 13.3699 15.5623 13.7059 16.211 13.1736ZM16.2581 8.58594C18.8098 8.58594 20.9 10.2514 21.0847 12.3634L20.9829 12.3741C20.4341 11.2274 19.4333 10.217 17.8246 9.90763C14.8098 9.32873 13.2326 10.5176 12.7536 10.9753L12.6745 11.0543C12.6489 11.081 12.6295 11.1028 12.6159 11.1183C12.0825 11.6041 11.6859 12.2199 11.4222 12.855L11.4183 12.6684C11.4183 10.4138 13.5856 8.58594 16.2581 8.58594Z" fill="white"/>
<path fill-rule="evenodd" clip-rule="evenodd" d="M12.3931 9.62099C12.5856 9.39796 14.1531 7.73105 17.6038 8.39917C21.4661 9.14681 21.8244 13.9662 20.8304 14.98C19.8365 15.9934 19.2173 13.3349 19.2173 13.3349C17.9131 14.6309 15.9907 11.6894 15.9907 11.6894C15.341 12.2266 14.5579 11.8877 13.8864 11.3432C13.1912 12.7914 12.0009 15.028 11.4103 14.7386C10.3781 14.2324 10.6413 11.2777 12.3519 9.65784L12.3931 9.62099Z" fill="white"/>
<path fill-rule="evenodd" clip-rule="evenodd" d="M12.3931 10.2501C12.5856 10.0266 14.1531 8.35967 17.6038 9.02828C21.4661 9.77591 21.8244 14.5948 20.8304 15.6086C19.8365 16.622 19.2173 13.9635 19.2173 13.9635C18.1725 15.118 16.4212 12.2583 16.4212 12.2583C15.7221 12.8368 14.7693 12.4125 13.9635 11.8103C13.2828 13.2455 12.0236 15.6683 11.4103 15.3672C10.3781 14.8615 10.6413 11.9068 12.3519 10.2869L12.3931 10.2501Z" fill="white"/>
<mask id="mask0_829_48148" style="mask-type:alpha" maskUnits="userSpaceOnUse" x="11" y="16" width="10" height="8">
<path fill-rule="evenodd" clip-rule="evenodd" d="M13.0479 16.5161C12.3657 17.0417 11.9492 17.7442 11.9492 18.5166C11.9492 20.1447 13.8013 23.2899 16.0855 23.2899C18.3701 23.2899 20.2222 20.1447 20.2222 18.5166C20.2222 17.8 19.8634 17.1425 19.2661 16.632C18.4379 17.1934 17.3849 17.529 16.2396 17.529C15.0169 17.529 13.9002 17.1474 13.0479 16.5161Z" fill="#87BDF3"/>
</mask>
<g mask="url(#mask0_829_48148)">
<path d="M18.4258 18.0739C17.4263 18.3417 16.4734 18.026 16.2973 17.3688C16.1212 16.7115 16.7886 15.9617 17.788 15.6939C18.7875 15.4261 19.7404 15.7418 19.9165 16.399C20.0926 17.0562 19.4252 17.8061 18.4258 18.0739Z" fill="white"/>
<path d="M13.7598 18.0739C14.7592 18.3417 15.7122 18.026 15.8883 17.3688C16.0644 16.7115 15.3969 15.9617 14.3975 15.6939C13.3981 15.4261 12.4451 15.7418 12.269 16.399C12.0929 17.0562 12.7604 17.8061 13.7598 18.0739Z" fill="white"/>
</g>
<path fill-rule="evenodd" clip-rule="evenodd" d="M19.79 17.9311C20.0814 18.3335 20.2458 18.7902 20.2458 19.2741C20.2458 20.9018 18.3835 24.047 16.0858 24.047C13.7886 24.047 11.9258 20.9018 11.9258 19.2741C11.9258 18.7868 12.0931 18.3267 12.3883 17.9219C12.6337 18.319 13.1263 18.6671 13.7459 18.8319C14.6734 19.0792 15.5617 18.829 15.8322 18.2724C16.0074 18.2845 16.1831 18.2887 16.3588 18.285C16.6366 18.8329 17.5175 19.0773 18.4388 18.8319C19.0531 18.6681 19.5428 18.3243 19.79 17.9311Z" fill="white"/>
</g>
<defs>
<radialGradient id="paint0_radial_829_48148" cx="0" cy="0" r="1" gradientUnits="userSpaceOnUse" gradientTransform="translate(15.9996 2.91281) rotate(90) scale(26.1746 23.2727)">
<stop stop-color="#646464"/>
<stop offset="1" stop-color="#171717"/>
</radialGradient>
<clipPath id="clip0_829_48148">
<rect width="32" height="32" fill="white"/>
</clipPath>
</defs>
</svg>
