<svg width="25" height="24" viewBox="0 0 25 24" fill="none" xmlns="http://www.w3.org/2000/svg">
<path opacity="0.4" d="M16.25 10.5L12.5 14.25L8.75 10.5H16.25Z" fill="currentColor"/>
<path d="M21.5 14.25V19.5C21.5 19.8978 21.342 20.2794 21.0607 20.5607C20.7794 20.842 20.3978 21 20 21H5C4.60218 21 4.22064 20.842 3.93934 20.5607C3.65804 20.2794 3.5 19.8978 3.5 19.5V14.25C3.5 14.0511 3.57902 13.8603 3.71967 13.7197C3.86032 13.579 4.05109 13.5 4.25 13.5C4.44891 13.5 4.63968 13.579 4.78033 13.7197C4.92098 13.8603 5 14.0511 5 14.25V19.5H20V14.25C20 14.0511 20.079 13.8603 20.2197 13.7197C20.3603 13.579 20.5511 13.5 20.75 13.5C20.9489 13.5 21.1397 13.579 21.2803 13.7197C21.421 13.8603 21.5 14.0511 21.5 14.25ZM8.21937 11.0306C8.11437 10.9257 8.04284 10.792 8.01385 10.6465C7.98487 10.5009 7.99972 10.35 8.05653 10.2129C8.11335 10.0758 8.20957 9.95861 8.33301 9.87621C8.45646 9.79381 8.60158 9.74988 8.75 9.75H11.75V3.75C11.75 3.55109 11.829 3.36032 11.9697 3.21967C12.1103 3.07902 12.3011 3 12.5 3C12.6989 3 12.8897 3.07902 13.0303 3.21967C13.171 3.36032 13.25 3.55109 13.25 3.75V9.75H16.25C16.3984 9.74988 16.5435 9.79381 16.667 9.87621C16.7904 9.95861 16.8867 10.0758 16.9435 10.2129C17.0003 10.35 17.0151 10.5009 16.9861 10.6465C16.9572 10.792 16.8856 10.9257 16.7806 11.0306L13.0306 14.7806C12.961 14.8504 12.8783 14.9057 12.7872 14.9434C12.6962 14.9812 12.5986 15.0006 12.5 15.0006C12.4014 15.0006 12.3038 14.9812 12.2128 14.9434C12.1217 14.9057 12.039 14.8504 11.9694 14.7806L8.21937 11.0306ZM10.5631 11.25L12.5 13.1897L14.4397 11.25H10.5631Z" fill="currentColor"/>
</svg>
