<svg width="32" height="32" viewBox="0 0 32 32" fill="none" xmlns="http://www.w3.org/2000/svg">
<g clip-path="url(#clip0_829_48143)">
<path d="M21.1382 0.388672H10.8594C5.07552 0.388672 0.386719 5.07747 0.386719 10.8614V21.1402C0.386719 26.9241 5.07552 31.6129 10.8594 31.6129H21.1382C26.9222 31.6129 31.611 26.9241 31.611 21.1402V10.8614C31.611 5.07747 26.9222 0.388672 21.1382 0.388672Z" stroke="black" stroke-opacity="0.03" stroke-width="1.6"/>
<path fill-rule="evenodd" clip-rule="evenodd" d="M2.9082 10.7738C2.90791 10.0708 3.09813 9.38077 3.45866 8.77718C3.81919 8.1736 4.33654 7.67899 4.95572 7.34595L14.1678 2.40001C14.7308 2.09768 15.3599 1.93945 15.9989 1.93945C16.6379 1.93945 17.2669 2.09768 17.8299 2.40001L27.042 7.34547C27.6614 7.67848 28.1789 8.17314 28.5395 8.77682C28.9001 9.3805 29.0904 10.0706 29.09 10.7738V21.2262C29.0903 21.9293 28.9 22.6193 28.5394 23.2229C28.1787 23.8265 27.6613 24.3211 27.042 24.6541L17.8299 29.6C17.2669 29.9023 16.6379 30.0606 15.9989 30.0606C15.3599 30.0606 14.7308 29.9023 14.1678 29.6L4.95572 24.6546C4.33647 24.3215 3.81907 23.8268 3.45854 23.2231C3.09801 22.6194 2.90782 21.9293 2.9082 21.2262V10.7738Z" fill="white" fill-opacity="0.5"/>
<path fill-rule="evenodd" clip-rule="evenodd" d="M4.36328 11.3036C4.36338 10.6734 4.53367 10.0548 4.85617 9.51334C5.17867 8.97186 5.64141 8.52751 6.19552 8.22723L14.3313 3.81754C14.8435 3.53993 15.417 3.39453 15.9996 3.39453C16.5823 3.39453 17.1557 3.53993 17.668 3.81754L25.8038 8.22723C26.3579 8.52751 26.8206 8.97186 27.1431 9.51334C27.4656 10.0548 27.6359 10.6734 27.636 11.3036V20.6971C27.6359 21.3273 27.4656 21.9458 27.1431 22.4873C26.8206 23.0288 26.3579 23.4731 25.8038 23.7734L17.668 28.1831C17.1557 28.4607 16.5823 28.6061 15.9996 28.6061C15.417 28.6061 14.8435 28.4607 14.3313 28.1831L6.19552 23.7734C5.64141 23.4731 5.17867 23.0288 4.85617 22.4873C4.53367 21.9458 4.36338 21.3273 4.36328 20.6971V11.3036Z" fill="url(#paint0_radial_829_48143)"/>
<path fill-rule="evenodd" clip-rule="evenodd" d="M22.5371 8.25824C14.9831 12.1317 11.4699 12.9302 10.941 18.8667C11.9495 17.4437 15.8457 14.5826 15.499 15.0156C15.2896 15.2774 15.0307 15.4975 14.7936 15.7462C14.6359 15.9116 14.4791 16.0779 14.3233 16.2451C11.9499 18.4706 10.2287 20.8658 9.23867 23.0728C9.20961 23.1445 9.2095 23.2248 9.23837 23.2966C9.26723 23.3684 9.32281 23.4263 9.39344 23.458C9.46406 23.4897 9.54423 23.4928 9.61708 23.4666C9.68994 23.4404 9.74981 23.387 9.78412 23.3176C10.1366 22.5322 11.0268 20.905 11.4869 20.1957C14.2215 20.1259 17.5305 18.2985 18.8038 17.37C20.077 16.441 18.2981 17.0161 18.4847 16.8313C18.6981 16.6204 19.1005 16.4827 19.9465 15.8573C20.7931 15.2318 21.036 14.8371 21.4472 14.075C21.4714 14.0294 21.4836 13.9783 21.4824 13.9267C21.4812 13.875 21.4667 13.8246 21.4404 13.7802C21.4137 13.7359 21.376 13.6992 21.331 13.6737C21.286 13.6482 21.2351 13.6348 21.1834 13.6347H20.077C21.3027 12.9084 22.0571 12.1331 22.3402 11.3089C22.7659 10.0725 22.8358 9.83012 22.8358 8.55739C22.8358 8.39254 22.6864 8.18212 22.5371 8.25824Z" fill="white"/>
</g>
<defs>
<radialGradient id="paint0_radial_829_48143" cx="0" cy="0" r="1" gradientUnits="userSpaceOnUse" gradientTransform="translate(15.9996 2.91281) rotate(90) scale(26.1746 23.2727)">
<stop stop-color="#646464"/>
<stop offset="1" stop-color="#171717"/>
</radialGradient>
<clipPath id="clip0_829_48143">
<rect width="32" height="32" fill="white"/>
</clipPath>
</defs>
</svg>
