<svg width="155" height="154" viewBox="0 0 155 154" fill="none" xmlns="http://www.w3.org/2000/svg">
<g opacity="0.4" clip-path="url(#clip0_3615_109296)">
<path opacity="0.6" d="M136.711 50.3995V97.3111C136.711 99.6237 135.794 101.842 134.161 103.477C132.528 105.112 130.313 106.031 128.003 106.031C125.694 106.031 123.479 105.112 121.846 103.477C120.213 101.842 119.295 99.6237 119.295 97.3111V59.1191H128.003C129.718 59.1229 131.394 58.6166 132.821 57.6644C134.247 56.7122 135.359 55.3572 136.014 53.7711C136.473 52.7062 136.71 51.559 136.711 50.3995ZM90.7917 3.77861C89.6563 3.75962 88.5295 3.9773 87.4827 4.41796C85.8834 5.07589 84.5158 6.19577 83.5543 7.63478C82.5928 9.07378 82.0809 10.7668 82.0838 12.4982V21.2179H44.0594C41.75 21.2179 39.5351 20.2992 37.9021 18.664C36.269 17.0287 35.3516 14.8108 35.3516 12.4982C35.3516 10.1856 36.269 7.96772 37.9021 6.33248C39.5351 4.69723 41.75 3.77861 44.0594 3.77861H90.7917Z" fill="white"/>
<path d="M152.503 151.082C151.693 151.909 150.727 152.567 149.66 153.016C148.593 153.465 147.448 153.697 146.291 153.698C144.109 153.633 142.034 152.74 140.486 151.198L130.617 141.432L118.194 129.167L37.7332 49.4113L20.3175 31.972L2.90176 14.5328C2.04045 13.7422 1.34685 12.786 0.862274 11.7213C0.377697 10.6567 0.11205 9.50526 0.0811674 8.33564C0.0502845 7.16602 0.254783 6.00203 0.682499 4.91321C1.11022 3.82439 1.75239 2.8329 2.57078 1.9978C3.38917 1.1627 4.36703 0.50118 5.44612 0.0524212C6.52521 -0.396338 7.68346 -0.623105 8.85188 -0.614252C10.0203 -0.6054 11.175 -0.361191 12.2471 0.103868C13.3193 0.568926 14.2871 1.2453 15.0928 2.09271L32.5085 19.532L36.5722 23.543L130.675 116.552L136.48 122.365L152.619 138.351C153.482 139.175 154.166 140.167 154.63 141.266C155.095 142.365 155.328 143.548 155.318 144.742C155.307 145.935 155.051 147.114 154.567 148.204C154.083 149.295 153.38 150.274 152.503 151.082Z" fill="white"/>
<path opacity="0.6" d="M130.617 141.432C128.373 143.94 125.625 145.945 122.554 147.317C119.483 148.69 116.158 149.398 112.795 149.396H44.061C37.6916 149.381 31.5875 146.84 27.0836 142.33C22.5797 137.821 20.0427 131.708 20.0273 125.33V32.3208L37.4431 49.76L118.078 129.516L130.617 141.432Z" fill="white"/>
<path d="M136.713 50.3993C136.712 51.5588 136.475 52.7061 136.017 53.771C135.361 55.357 134.249 56.712 132.823 57.6642C131.396 58.6164 129.72 59.1228 128.005 59.1189H91.4324C88.9536 59.1189 86.5763 58.1329 84.8235 56.3777C83.0707 54.6225 82.0859 52.2421 82.0859 49.7599V12.4981C82.083 10.7667 82.595 9.07362 83.5565 7.63461C84.518 6.19561 85.8855 5.07572 87.4849 4.4178C88.5316 3.97713 89.6585 3.75946 90.7938 3.77844C91.1593 3.7217 91.5313 3.7217 91.8968 3.77844C92.262 3.71773 92.6347 3.71773 92.9998 3.77844C93.4029 3.83228 93.7948 3.95 94.1609 4.12722C94.6932 4.34021 95.1996 4.61315 95.6702 4.94095C96.0374 5.16213 96.3699 5.43644 96.6571 5.75487L133.811 43.5981L134.798 44.8188C135.125 45.29 135.398 45.7972 135.61 46.3302C136.321 47.5692 136.701 48.9705 136.713 50.3993Z" fill="white"/>
</g>
<defs>
<clipPath id="clip0_3615_109296">
<rect width="155" height="153.465" fill="white"/>
</clipPath>
</defs>
</svg>
