<svg width="25" height="24" viewBox="0 0 25 24" fill="none" xmlns="http://www.w3.org/2000/svg">
<g opacity="0.6" clip-path="url(#clip0_1107_72454)">
<path opacity="0.4" d="M7.25 3.739V20.2615C7.25245 20.3933 7.28962 20.5222 7.35776 20.6351C7.4259 20.748 7.5226 20.841 7.63812 20.9046C7.75364 20.9682 7.88388 21.0002 8.01572 20.9974C8.14756 20.9946 8.27634 20.9571 8.38906 20.8887L21.8966 12.6274C22.0045 12.5621 22.0937 12.4701 22.1556 12.3602C22.2175 12.2504 22.2501 12.1264 22.2501 12.0003C22.2501 11.8741 22.2175 11.7501 22.1556 11.6403C22.0937 11.5304 22.0045 11.4384 21.8966 11.3731L8.38906 3.11181C8.27634 3.04338 8.14756 3.00588 8.01572 3.0031C7.88388 3.00031 7.75364 3.03233 7.63812 3.09594C7.5226 3.15954 7.4259 3.25248 7.35776 3.36538C7.28962 3.47828 7.25245 3.60715 7.25 3.739Z" fill="black"/>
<path d="M7.25 3.739V20.2615C7.25245 20.3933 7.28962 20.5222 7.35776 20.6351C7.4259 20.748 7.5226 20.841 7.63812 20.9046C7.75364 20.9682 7.88388 21.0002 8.01572 20.9974C8.14756 20.9946 8.27634 20.9571 8.38906 20.8887L21.8966 12.6274C22.0045 12.5621 22.0937 12.4701 22.1556 12.3602C22.2175 12.2504 22.2501 12.1264 22.2501 12.0003C22.2501 11.8741 22.2175 11.7501 22.1556 11.6403C22.0937 11.5304 22.0045 11.4384 21.8966 11.3731L8.38906 3.11181C8.27634 3.04338 8.14756 3.00588 8.01572 3.0031C7.88388 3.00031 7.75364 3.03233 7.63812 3.09594C7.5226 3.15954 7.4259 3.25248 7.35776 3.36538C7.28962 3.47828 7.25245 3.60715 7.25 3.739Z" stroke="black" stroke-width="1.2" stroke-linecap="round" stroke-linejoin="round"/>
</g>
<defs>
<clipPath id="clip0_1107_72454">
<rect width="24" height="24" fill="white" transform="translate(0.5)"/>
</clipPath>
</defs>
</svg>
