<svg width="24" height="24" viewBox="0 0 24 24" fill="none" xmlns="http://www.w3.org/2000/svg">
<g opacity="0.6" clip-path="url(#clip0_3582_109770)">
<path opacity="0.2" d="M21.1004 18.63C19.5573 16.9866 15.5064 13.5 9.75011 13.5V18L2.25011 10.5L9.75011 3V7.5C14.7001 7.5 21.046 12.2297 21.7501 18.3319C21.7599 18.4109 21.7442 18.491 21.7054 18.5605C21.6666 18.63 21.6067 18.6854 21.5343 18.7186C21.462 18.7518 21.3809 18.7611 21.3029 18.7452C21.2249 18.7293 21.154 18.6889 21.1004 18.63Z" fill="white"/>
<path d="M21.1004 18.63C19.5573 16.9866 15.5064 13.5 9.75011 13.5V18L2.25011 10.5L9.75011 3V7.5C14.7001 7.5 21.046 12.2297 21.7501 18.3319C21.7599 18.4109 21.7442 18.491 21.7054 18.5605C21.6666 18.63 21.6067 18.6854 21.5343 18.7186C21.462 18.7518 21.3809 18.7611 21.3029 18.7452C21.2249 18.7293 21.154 18.6889 21.1004 18.63Z" stroke="white" stroke-width="2" stroke-linecap="round" stroke-linejoin="round"/>
</g>
<defs>
<clipPath id="clip0_3582_109770">
<rect width="24" height="24" fill="white" transform="matrix(-1 0 0 1 24 0)"/>
</clipPath>
</defs>
</svg>
