<svg width="24" height="24" viewBox="0 0 24 24" fill="none" xmlns="http://www.w3.org/2000/svg">
<g clip-path="url(#clip0_1107_66178)">
<path opacity="0.2" d="M13.7814 17.1619C13.1895 17.2209 12.595 17.2503 12.0001 17.25C11.4053 17.2503 10.8108 17.2209 10.2189 17.1619L9.25795 19.7559C9.2212 19.8539 9.16471 19.9434 9.09197 20.0186C9.01923 20.0939 8.93181 20.1534 8.83511 20.1935C8.73842 20.2336 8.63452 20.2534 8.52986 20.2517C8.4252 20.2499 8.32201 20.2267 8.2267 20.1834L1.94545 17.3991C1.78372 17.328 1.65226 17.2022 1.57422 17.0437C1.49619 16.8852 1.47659 16.7043 1.51889 16.5328L4.29107 5.625C4.32722 5.48164 4.40454 5.35198 4.51349 5.25203C4.62244 5.15208 4.75826 5.08619 4.9042 5.0625L8.28482 4.5075C8.47311 4.4755 8.66654 4.51563 8.82656 4.61988C8.98658 4.72412 9.10145 4.88484 9.14826 5.07L9.61701 6.91031C11.2 6.69906 12.804 6.69906 14.387 6.91031L14.8558 5.07C14.9026 4.88484 15.0174 4.72412 15.1775 4.61988C15.3375 4.51563 15.5309 4.4755 15.7192 4.5075L19.0961 5.0625C19.242 5.08619 19.3778 5.15208 19.4868 5.25203C19.5957 5.35198 19.673 5.48164 19.7092 5.625L22.4776 16.5347C22.5199 16.7062 22.5003 16.8871 22.4223 17.0456C22.3443 17.2041 22.2128 17.3299 22.0511 17.4009L15.7698 20.1853C15.6745 20.2286 15.5713 20.2518 15.4667 20.2535C15.362 20.2553 15.2581 20.2355 15.1614 20.1954C15.0647 20.1553 14.9773 20.0958 14.9046 20.0205C14.8318 19.9452 14.7753 19.8558 14.7386 19.7578L13.7814 17.1619Z" fill="white" fill-opacity="0.6"/>
<path d="M8.625 14.25C9.24632 14.25 9.75 13.7463 9.75 13.125C9.75 12.5037 9.24632 12 8.625 12C8.00368 12 7.5 12.5037 7.5 13.125C7.5 13.7463 8.00368 14.25 8.625 14.25Z" fill="white" fill-opacity="0.6"/>
<path d="M15.375 14.25C15.9963 14.25 16.5 13.7463 16.5 13.125C16.5 12.5037 15.9963 12 15.375 12C14.7537 12 14.25 12.5037 14.25 13.125C14.25 13.7463 14.7537 14.25 15.375 14.25Z" fill="white" fill-opacity="0.6"/>
<path d="M14.385 6.90842L14.8538 5.06811C14.9006 4.88295 15.0154 4.72223 15.1755 4.61798C15.3355 4.51373 15.5289 4.47361 15.7172 4.50561L19.0959 5.06248C19.2419 5.08618 19.3777 5.15206 19.4866 5.25201C19.5956 5.35197 19.6729 5.48162 19.7091 5.62498L22.4775 16.5347C22.5198 16.7062 22.5002 16.8871 22.4222 17.0456C22.3441 17.204 22.2127 17.3299 22.0509 17.4009L15.7697 20.1853C15.6744 20.2286 15.5712 20.2518 15.4665 20.2535C15.3619 20.2553 15.258 20.2355 15.1613 20.1954C15.0646 20.1553 14.9772 20.0958 14.9044 20.0205C14.8317 19.9452 14.7752 19.8558 14.7384 19.7578L13.7812 17.1619" stroke="white" stroke-opacity="0.6" stroke-width="1.2" stroke-linecap="round" stroke-linejoin="round"/>
<path d="M9.6148 6.90842L9.14605 5.06811C9.09924 4.88295 8.98437 4.72223 8.82435 4.61798C8.66433 4.51373 8.4709 4.47361 8.28262 4.50561L4.90387 5.06248C4.75792 5.08618 4.62211 5.15206 4.51316 5.25201C4.40421 5.35197 4.32689 5.48162 4.29074 5.62498L1.5223 16.5328C1.48001 16.7043 1.49961 16.8852 1.57764 17.0437C1.65568 17.2022 1.78714 17.328 1.94887 17.399L8.23012 20.1834C8.32543 20.2267 8.42862 20.2499 8.53328 20.2516C8.63794 20.2534 8.74184 20.2336 8.83853 20.1935C8.93523 20.1534 9.02265 20.0939 9.09539 20.0186C9.16813 19.9433 9.22462 19.8539 9.26137 19.7559L10.2186 17.1619" stroke="white" stroke-opacity="0.6" stroke-width="1.2" stroke-linecap="round" stroke-linejoin="round"/>
<path d="M7.5 7.34156C8.96628 6.94143 10.4801 6.74242 12 6.74999C13.5199 6.74242 15.0337 6.94143 16.5 7.34156" stroke="white" stroke-opacity="0.6" stroke-width="1.2" stroke-linecap="round" stroke-linejoin="round"/>
<path d="M16.5 16.6584C15.0337 17.0586 13.5199 17.2576 12 17.25C10.4801 17.2576 8.96628 17.0586 7.5 16.6584" stroke="white" stroke-opacity="0.6" stroke-width="1.2" stroke-linecap="round" stroke-linejoin="round"/>
</g>
<defs>
<clipPath id="clip0_1107_66178">
<rect width="24" height="24" fill="white"/>
</clipPath>
</defs>
</svg>
