<svg width="154" height="49" viewBox="0 0 154 49" fill="none" xmlns="http://www.w3.org/2000/svg">
<path d="M0 39.0216V7.95456H22.5014V13.7241H7.4117V20.4257H21.3919V26.1953H7.4117V33.252H22.7233V39.0216H0Z" fill="white"/>
<path d="M29.0369 39.0216V7.95456H43.0614C50.3844 7.95456 54.6894 11.1944 54.6894 16.7421C54.6894 20.9139 51.9377 23.3549 49.763 23.7544C52.3372 24.1538 54.1568 25.7515 54.1568 28.9914C54.1568 36.0924 54.4231 37.5126 56.0208 39.0216H48.2097C47.0558 37.4238 46.7451 36.1812 46.7451 30.1009C46.7451 27.8374 45.2361 26.9942 43.239 26.9942H36.4486V39.0216H29.0369ZM36.4486 21.4021H42.3957C45.3249 21.4021 47.0558 19.9375 47.0558 17.4966C47.0558 15.1444 45.458 13.5466 42.3957 13.5466H36.4486V21.4021Z" fill="white"/>
<path d="M61.7145 39.0216V7.95456H75.739C83.0619 7.95456 87.3669 11.1944 87.3669 16.7421C87.3669 20.9139 84.6153 23.3549 82.4406 23.7544C85.0147 24.1538 86.8344 25.7515 86.8344 28.9914C86.8344 36.0924 87.1007 37.5126 88.6984 39.0216H80.8873C79.7333 37.4238 79.4227 36.1812 79.4227 30.1009C79.4227 27.8374 77.9137 26.9942 75.9165 26.9942H69.1262V39.0216H61.7145ZM69.1262 21.4021H75.0733C78.0025 21.4021 79.7333 19.9375 79.7333 17.4966C79.7333 15.1444 78.1356 13.5466 75.0733 13.5466H69.1262V21.4021Z" fill="white"/>
<path d="M126.633 39.0216V7.95456H140.657C147.98 7.95456 152.285 11.1944 152.285 16.7421C152.285 20.9139 149.534 23.3549 147.359 23.7544C149.933 24.1538 151.753 25.7515 151.753 28.9914C151.753 36.0924 152.019 37.5126 153.617 39.0216H145.806C144.652 37.4238 144.341 36.1812 144.341 30.1009C144.341 27.8374 142.832 26.9942 140.835 26.9942H134.044V39.0216H126.633ZM134.044 21.4021H139.992C142.921 21.4021 144.652 19.9375 144.652 17.4966C144.652 15.1444 143.054 13.5466 139.992 13.5466H134.044V21.4021Z" fill="white"/>
<path d="M113.883 12.5794C120.266 16.2648 122.46 24.4523 118.774 30.8355C115.089 37.2187 106.901 39.4125 100.518 35.7272C94.135 32.0419 91.9411 23.8543 95.6264 17.4711C99.3118 11.088 107.499 8.89412 113.883 12.5794ZM115.3 10.1244C107.552 5.65137 97.6444 8.30622 93.1714 16.0537C88.6984 23.8012 91.3532 33.7092 99.1007 38.1823C106.848 42.6553 116.756 40.0004 121.229 32.2529C125.702 24.5054 123.047 14.5974 115.3 10.1244Z" fill="white"/>
<path d="M89.6641 14.0288L124.736 34.2779" stroke="white" stroke-width="3"/>
</svg>
