<svg width="366" height="295" viewBox="0 0 366 295" fill="none" xmlns="http://www.w3.org/2000/svg">
    <path d="M116.535 146.139H146.463V164.678H116.535V215H94.0223V164.678H3.17822V146.139L94.0223 29.6039H116.535V146.139ZM27.0149 146.139H94.0223V60.8564L27.0149 146.139Z" fill="white"/>
    <path d="M280.538 218.973C264.823 218.973 251.846 215 241.605 207.054C231.54 199.109 225.007 189.309 222.006 177.656H245.842C247.961 184.012 251.934 189.221 257.761 193.282C263.764 197.167 271.356 199.109 280.538 199.109C296.605 199.109 308.877 192.664 317.352 179.775C326.004 166.885 330.506 148.081 330.86 123.361C325.916 133.073 318.765 140.753 309.407 146.403C300.049 152.054 289.366 154.879 277.36 154.879C260.586 154.879 246.372 148.699 234.718 136.339C223.242 123.803 217.503 108.441 217.503 90.2549C217.503 71.8918 223.418 56.5304 235.248 44.1707C247.255 31.811 263.411 25.6311 283.716 25.6311C306.493 25.6311 323.797 33.5766 335.627 49.4677C347.457 65.3588 353.372 86.7235 353.372 113.562C353.372 146.757 347.016 172.624 334.303 191.163C321.59 209.703 303.668 218.973 280.538 218.973ZM283.716 135.015C296.076 135.015 306.228 130.865 314.174 122.567C322.296 114.092 326.357 103.321 326.357 90.2549C326.357 77.1889 322.296 66.5065 314.174 58.2078C306.228 49.7326 296.076 45.4949 283.716 45.4949C271.356 45.4949 261.204 49.6443 253.258 57.943C245.313 66.2417 241.34 77.0123 241.34 90.2549C241.34 103.497 245.313 114.268 253.258 122.567C261.38 130.865 271.533 135.015 283.716 135.015Z" fill="white"/>
    <path d="M179.436 250.459V0" stroke="url(#paint0_linear_9318_10791)" stroke-width="3.44084" stroke-linejoin="round"/>
    <defs>
        <linearGradient id="paint0_linear_9318_10791" x1="-nan" y1="-nan" x2="-nan" y2="-nan" gradientUnits="userSpaceOnUse">
            <stop stop-color="white"/>
            <stop offset="0.09" stop-color="#F8F8F8"/>
            <stop offset="0.22" stop-color="#E6E6E6"/>
            <stop offset="0.37" stop-color="#C7C7C7"/>
            <stop offset="0.53" stop-color="#9D9D9D"/>
            <stop offset="0.71" stop-color="#676767"/>
            <stop offset="0.9" stop-color="#262626"/>
            <stop offset="1"/>
        </linearGradient>
    </defs>
</svg>
