<svg width="20" height="20" viewBox="0 0 20 20" fill="none" xmlns="http://www.w3.org/2000/svg">
<g clip-path="url(#clip0_1482_20600)">
<path d="M12.1673 6.66602H17.5007C17.9427 6.66602 18.3666 6.84161 18.6792 7.15417C18.9917 7.46673 19.1673 7.89066 19.1673 8.33268V10.086C19.1675 10.3038 19.1251 10.5196 19.0423 10.721L16.4631 16.9835C16.4002 17.1362 16.2934 17.2667 16.1561 17.3586C16.0189 17.4504 15.8575 17.4994 15.6923 17.4993H1.66732C1.4463 17.4993 1.23434 17.4116 1.07806 17.2553C0.921782 17.099 0.833984 16.887 0.833984 16.666V8.33268C0.833984 8.11167 0.921782 7.89971 1.07806 7.74343C1.23434 7.58715 1.4463 7.49935 1.66732 7.49935H4.56898C4.7024 7.49938 4.83387 7.46738 4.95235 7.40604C5.07082 7.3447 5.17284 7.25581 5.24982 7.14685L9.79398 0.707683C9.85143 0.626277 9.93614 0.568151 10.0328 0.543842C10.1294 0.519533 10.2315 0.530653 10.3207 0.575183L11.8323 1.33102C12.2577 1.54365 12.5976 1.89545 12.7954 2.32795C12.9933 2.76045 13.0372 3.24762 12.9198 3.70852L12.1673 6.66602ZM5.83398 8.82268V15.8327H15.134L17.5007 10.086V8.33268H12.1673C11.9135 8.33265 11.663 8.27463 11.435 8.16306C11.207 8.0515 11.0075 7.88933 10.8517 7.68892C10.6959 7.48852 10.588 7.25518 10.5361 7.0067C10.4842 6.75823 10.4897 6.50118 10.5523 6.25518L11.3048 3.29852C11.3284 3.20629 11.3196 3.10878 11.2801 3.02221C11.2405 2.93564 11.1725 2.86522 11.0873 2.82268L10.5365 2.54768L6.61148 8.10768C6.40315 8.40268 6.13648 8.64435 5.83398 8.82268V8.82268ZM4.16732 9.16602H2.50065V15.8327H4.16732V9.16602Z" fill="currentColor"/>
</g>
<defs>
<clipPath id="clip0_1482_20600">
<rect width="20" height="20" fill="white"/>
</clipPath>
</defs>
</svg>
