<svg width="512" height="512" viewBox="0 0 512 512" fill="none" xmlns="http://www.w3.org/2000/svg">
<path d="M256 0C166.272 0 93.536 72.736 93.536 162.464V192H64C55.5131 192 47.3737 195.371 41.3726 201.373C35.3714 207.374 32 215.513 32 224V480C32 488.487 35.3714 496.626 41.3726 502.627C47.3737 508.629 55.5131 512 64 512H448C456.487 512 464.626 508.629 470.627 502.627C476.629 496.626 480 488.487 480 480V224C480 215.513 476.629 207.374 470.627 201.373C464.626 195.371 456.487 192 448 192H418.464V162.464C418.464 72.736 345.728 0 256 0ZM157.536 162.464C157.536 108.16 201.696 64 256 64C310.304 64 354.464 108.16 354.464 162.464V192H157.536V162.464ZM256 416C220.64 416 192 387.36 192 352C192 316.64 220.64 288 256 288C291.36 288 320 316.64 320 352C320 387.36 291.36 416 256 416Z" fill="white"/>
</svg>
