<svg width="192" height="36" viewBox="0 0 192 36" fill="none" xmlns="http://www.w3.org/2000/svg">
<path d="M44.1758 18.044C44.1758 13.3989 47.1015 10.0781 51.6313 10.0781C55.2294 10.0781 57.44 11.9665 58.1335 14.571H54.9689C54.4702 13.3771 53.3866 12.5522 51.6313 12.5522C48.922 12.5522 47.3397 14.7232 47.3397 18.044C47.3397 21.3647 48.922 23.4488 51.6313 23.4488C53.3866 23.4488 54.4709 22.5804 54.9689 21.3219H58.1335C57.44 23.9917 55.2294 25.9236 51.6313 25.9236C47.1015 25.9236 44.1758 22.6463 44.1758 18.0447V18.044Z" fill="white"/>
<path d="M68.9268 21.7122H62.9668L61.5799 25.5976H58.4805L64.1807 10.4038H67.7137L73.4139 25.5976H70.3144L68.9275 21.7122H68.9268ZM68.1248 19.4548L65.936 13.3338L63.7688 19.4548H68.1255H68.1248Z" fill="white"/>
<path d="M74.957 10.4038H81.5027C85.2521 10.4038 87.0298 12.1182 87.0298 14.9619C87.0298 17.8057 85.2528 19.4983 81.5027 19.4983H77.9262V25.5976H74.957V10.4038ZM81.3072 17.1758C83.1494 17.1758 83.9514 16.2204 83.9514 14.9619C83.9514 13.7035 83.1494 12.7046 81.3072 12.7046H77.9262V17.1758H81.3072Z" fill="white"/>
<path d="M88.9141 10.4038H91.8832V25.5976H88.9141V10.4038Z" fill="white"/>
<path d="M98.5588 12.8133H93.6172V10.4038H106.47V12.8133H101.528V25.5976H98.5588V12.8133Z" fill="white"/>
<path d="M115.38 21.7122H109.42L108.033 25.5976H104.934L110.634 10.4038H114.167L119.867 25.5976H116.768L115.381 21.7122H115.38ZM114.578 19.4548L112.389 13.3338L110.222 19.4548H114.579H114.578Z" fill="white"/>
<path d="M121.406 10.4038H124.375V23.1888H131.896V25.5983H121.406V10.4045V10.4038Z" fill="white"/>
<path d="M136.902 18.044C136.902 13.3989 139.828 10.0781 144.358 10.0781C147.956 10.0781 150.167 11.9665 150.86 14.571H147.695C147.197 13.3771 146.113 12.5522 144.358 12.5522C141.649 12.5522 140.066 14.7232 140.066 18.044C140.066 21.3647 141.649 23.4488 144.358 23.4488C146.113 23.4488 147.197 22.5804 147.695 21.3219H150.86C150.167 23.9917 147.956 25.9236 144.358 25.9236C139.828 25.9236 136.902 22.6463 136.902 18.0447V18.044Z" fill="white"/>
<path d="M152.923 10.4038H155.892V23.1888H163.412V25.5983H152.922V10.4045L152.923 10.4038Z" fill="white"/>
<path d="M164.52 20.4965V10.4038H167.489V20.3233C167.489 22.5153 168.681 23.449 170.675 23.449C172.669 23.449 173.882 22.5153 173.882 20.3233V10.4038H176.852V20.4965C176.852 23.8825 174.62 25.9231 170.675 25.9231C166.73 25.9231 164.52 23.8825 164.52 20.4965Z" fill="white"/>
<path d="M179.712 10.4038H186.192C189.725 10.4038 191.35 12.0754 191.35 14.3762C191.35 16.0043 190.288 17.2845 189.074 17.5672C190.678 17.8927 192 19.3033 192 21.2569C192 23.9049 190.201 25.5983 186.582 25.5983H179.711V10.4045L179.712 10.4038ZM185.997 16.6988C187.449 16.6988 188.273 15.9608 188.273 14.7234C188.273 13.4861 187.428 12.7046 185.997 12.7046H182.682V16.6988H185.997ZM186.388 23.2975C188.122 23.2975 188.923 22.4726 188.923 21.1706C188.923 19.8687 188.121 19.022 186.388 19.022H182.682V23.2982H186.388V23.2975Z" fill="white"/>
<path d="M17.9894 0C8.06978 0 0 8.0816 0 18.0158C0 25.8519 5.02286 32.5319 12.0126 35.0053C12.8055 35.2859 13.6229 35.5139 14.4627 35.6815C14.4788 35.685 14.4956 35.6871 14.5124 35.6906C15.3116 35.8478 16.1291 35.953 16.9626 36V5.57807C16.3644 5.57807 15.3004 5.75414 14.5124 5.98281C14.4956 5.98772 14.4795 5.99193 14.4627 5.99684C13.6047 6.25007 12.7838 6.58958 12.0126 7.01187C9.2031 8.54808 7.04434 11.1323 6.06162 14.2356C5.80736 15.0388 5.53979 15.9689 5.54259 16.7391H12.2395V14.2356H8.71909C9.41393 12.5331 10.5605 11.0628 12.0126 9.97767C12.7564 9.42141 13.5802 8.96826 14.4627 8.63436V33.1184C13.618 32.9206 12.7985 32.6568 12.0126 32.3264C6.43005 29.9793 2.49917 24.4496 2.49917 18.0165C2.49917 9.46279 9.44755 2.50354 17.9894 2.50354C26.5313 2.50354 33.4797 9.46279 33.4797 18.0165C33.4797 24.3753 29.6378 29.8502 24.1575 32.2429C23.3674 32.5881 22.543 32.8679 21.6913 33.0784V8.7031C22.5836 9.06015 23.4122 9.54206 24.1575 10.1271C25.5178 11.1961 26.5964 12.6089 27.2598 14.2356H23.9306V16.7391H30.4349C30.437 15.9892 30.1932 14.9497 29.939 14.1472C28.9786 11.1147 26.8731 8.67013 24.1582 7.122C23.3835 6.68007 22.5584 6.31601 21.692 6.04665C21.6808 6.04314 21.6695 6.04033 21.6583 6.03683C20.8668 5.79342 19.765 5.57666 19.1921 5.57737V35.9867C20.0305 35.9313 20.8549 35.8211 21.6583 35.6535C21.6695 35.6514 21.6808 35.6479 21.692 35.6458C22.5367 35.4683 23.3611 35.2326 24.1582 34.9401C31.0492 32.4134 35.9796 25.7803 35.9796 18.0158C35.9789 8.0816 27.9091 0 17.9894 0Z" fill="white"/>
<path d="M23.9297 25.9046V28.9104C27.034 27.4829 29.0758 24.6785 29.9962 21.5282C30.2309 20.7236 30.4305 19.7563 30.434 19.019L27.9495 19.0254H23.9297V21.5289H27.3654C26.8757 23.237 25.5274 24.8644 23.9297 25.906V25.9046Z" fill="white"/>
<path d="M12.2399 19.0247H8.02883L5.54297 19.0205C5.57169 19.8595 5.7475 20.7237 5.98215 21.5276C6.92354 24.7501 9.04658 27.4122 12.2399 29.0206V26.0548C10.2107 24.7368 9.29383 23.3444 8.613 21.5283H12.2399V19.0247Z" fill="white"/>
</svg>
