<svg width="408" height="408" viewBox="0 0 408 408" fill="none" xmlns="http://www.w3.org/2000/svg">
<g clip-path="url(#clip0_4138_111756)">
<path d="M203.346 353.353C163.816 353.353 126.652 337.51 98.701 308.743C70.7541 279.978 55.3623 241.735 55.3623 201.06C55.3623 160.385 70.7541 122.14 98.701 93.3768C126.652 64.6095 163.816 48.7666 203.346 48.7666C242.876 48.7666 280.039 64.6095 307.991 93.3768C335.938 122.142 351.329 160.385 351.329 201.06C351.329 241.735 335.938 279.98 307.991 308.743C280.039 337.51 242.876 353.353 203.346 353.353ZM203.346 49.7454C122.288 49.7454 56.3458 117.625 56.3458 201.058C56.3458 284.49 122.29 352.37 203.346 352.37C284.401 352.37 350.346 284.49 350.346 201.058C350.346 117.625 284.403 49.7454 203.346 49.7454Z" fill="#2F2F2F"/>
<path d="M339.103 142.084C339.085 142.084 339.069 142.084 339.051 142.081C297.878 137.785 250.891 135.513 203.175 135.513C155.458 135.513 108.521 137.783 67.3628 142.075C67.0863 142.104 66.8521 141.907 66.8232 141.638C66.7942 141.368 66.9904 141.127 67.2602 141.098C108.449 136.802 155.447 134.532 203.173 134.532C250.898 134.532 297.945 136.804 339.152 141.105C339.422 141.134 339.618 141.375 339.589 141.644C339.562 141.896 339.35 142.084 339.1 142.084H339.103Z" fill="#2F2F2F"/>
<path d="M203.34 266.971C155.548 266.971 108.492 264.695 67.2602 260.387C66.9904 260.358 66.7942 260.118 66.8232 259.848C66.8521 259.578 67.093 259.386 67.3628 259.411C108.561 263.714 155.581 265.99 203.34 265.99C251.098 265.99 298.168 263.714 339.384 259.404C339.649 259.375 339.894 259.571 339.923 259.841C339.952 260.111 339.756 260.352 339.486 260.381C298.239 264.693 251.161 266.971 203.342 266.971H203.34Z" fill="#2F2F2F"/>
<path d="M297.645 84.7896C297.623 84.7896 297.601 84.7896 297.578 84.7851C267.27 80.6248 235.561 78.5135 203.337 78.5135C171.112 78.5135 139.453 80.6204 109.166 84.7739C108.896 84.8118 108.649 84.6223 108.613 84.3548C108.575 84.0873 108.765 83.8398 109.032 83.8019C139.363 79.6416 171.092 77.5303 203.337 77.5303C235.581 77.5303 267.357 79.6439 297.712 83.8108C297.98 83.8487 298.169 84.0962 298.131 84.3637C298.098 84.609 297.886 84.7873 297.645 84.7873V84.7896Z" fill="#2F2F2F"/>
<path d="M203.294 320.199C168.994 320.199 135.374 317.764 103.368 312.962C103.101 312.921 102.916 312.672 102.956 312.404C102.996 312.137 103.246 311.952 103.513 311.992C135.472 316.787 169.043 319.218 203.294 319.218C237.546 319.218 272.125 316.821 302.797 312.288C303.066 312.248 303.314 312.433 303.354 312.703C303.394 312.971 303.209 313.22 302.939 313.26C272.22 317.8 237.764 320.201 203.294 320.201V320.199Z" fill="#2F2F2F"/>
<path d="M200.659 353.352C173.332 353.352 147.657 337.485 128.359 308.673C109.102 279.921 98.4961 241.703 98.4961 201.059C98.4961 160.415 109.102 122.197 128.359 93.443C147.655 64.6311 173.332 48.7637 200.659 48.7637C227.986 48.7637 253.66 64.6311 272.959 93.443C292.216 122.195 302.822 160.413 302.822 201.059C302.822 241.705 292.216 279.921 272.959 308.673C253.663 337.485 227.986 353.352 200.659 353.352ZM200.659 49.7447C144.868 49.7447 99.4795 117.624 99.4795 201.057C99.4795 284.49 144.868 352.369 200.659 352.369C256.45 352.369 301.838 284.49 301.838 201.057C301.838 117.624 256.45 49.7447 200.659 49.7447Z" fill="#2F2F2F"/>
<path d="M200.594 353.352C188.968 353.352 178.099 337.434 169.984 308.533C161.922 279.819 157.482 241.65 157.482 201.059C157.482 160.469 161.922 122.3 169.984 93.5835C178.099 64.6801 188.968 48.7637 200.594 48.7637C212.219 48.7637 223.088 64.6824 231.203 93.5835C239.265 122.297 243.705 160.466 243.705 201.059C243.705 241.652 239.265 279.819 231.203 308.533C223.088 337.436 212.217 353.352 200.594 353.352ZM200.594 49.7447C189.45 49.7447 178.915 65.4069 170.93 93.8488C162.89 122.478 158.464 160.553 158.464 201.057C158.464 241.56 162.89 279.636 170.93 308.265C178.915 336.707 189.45 352.369 200.594 352.369C211.737 352.369 222.272 336.707 230.258 308.265C238.297 279.636 242.724 241.56 242.724 201.057C242.724 160.553 238.297 122.478 230.258 93.8488C222.272 65.4069 211.737 49.7447 200.594 49.7447Z" fill="#2F2F2F"/>
<path d="M350.839 201.547H55.8558C55.5838 201.547 55.3652 201.327 55.3652 201.057C55.3652 200.787 55.586 200.566 55.8558 200.566H350.839C351.111 200.566 351.33 200.787 351.33 201.057C351.33 201.327 351.109 201.547 350.839 201.547Z" fill="#2F2F2F"/>
<path d="M247.57 134.609H236.215V376.27H247.57C256.299 376.27 263.372 369.196 263.372 360.472V150.41C263.372 141.684 256.296 134.612 247.57 134.612V134.609Z" fill="#2F2F2F"/>
<path d="M266.09 162.105H258.31V181.953H266.09V162.105Z" fill="#353535"/>
<path d="M262.043 162.105H258.31V181.953H262.043V162.105Z" fill="black"/>
<path d="M262.045 182.445H258.312C258.04 182.445 257.821 182.225 257.821 181.955V162.108C257.821 161.836 258.042 161.617 258.312 161.617H262.045C262.317 161.617 262.536 161.838 262.536 162.108V181.955C262.536 182.227 262.315 182.445 262.045 182.445ZM258.803 181.464H261.554V162.598H258.803V181.464Z" fill="#353535"/>
<path d="M239.12 376.76H135.218C126.137 376.76 118.749 369.374 118.749 360.295V150.581C118.749 141.503 126.137 134.116 135.218 134.116H239.12C248.201 134.116 255.589 141.503 255.589 150.581V360.295C255.589 369.374 248.201 376.76 239.12 376.76ZM135.218 135.099C126.679 135.099 119.732 142.044 119.732 150.581V360.295C119.732 368.832 126.679 375.777 135.218 375.777H239.12C247.659 375.777 254.606 368.832 254.606 360.295V150.581C254.606 142.044 247.659 135.099 239.12 135.099H135.218Z" fill="#353535"/>
<path d="M197.002 141.327H170.332C170.06 141.327 169.842 141.106 169.842 140.836C169.842 140.566 170.063 140.346 170.332 140.346H197.002C197.274 140.346 197.492 140.566 197.492 140.836C197.492 141.106 197.271 141.327 197.002 141.327Z" fill="#353535"/>
<path d="M201.718 143.288C200.366 143.288 199.265 142.189 199.265 140.835C199.265 139.482 200.364 138.383 201.718 138.383C203.071 138.383 204.171 139.482 204.171 140.835C204.171 142.189 203.071 143.288 201.718 143.288ZM201.718 139.364C200.906 139.364 200.246 140.024 200.246 140.835C200.246 141.647 200.906 142.307 201.718 142.307C202.529 142.307 203.19 141.647 203.19 140.835C203.19 140.024 202.529 139.364 201.718 139.364Z" fill="#353535"/>
<path d="M252.517 208.671L174.648 198.242L173.945 203.495L251.813 213.924L252.517 208.671Z" fill="#2F2F2F"/>
<path d="M114.549 135.799L170.103 191.339L173.851 187.592L118.297 132.051L114.549 135.799Z" fill="#2F2F2F"/>
<path d="M162.809 225.373L127.19 295.383L131.915 297.785L167.534 227.776L162.809 225.373Z" fill="#2F2F2F"/>
<path d="M219.028 194.417C219.028 196.379 218.877 198.305 218.584 200.187C217.135 209.58 212.195 217.82 205.135 223.546C198.69 228.772 190.475 231.906 181.528 231.906C168.64 231.906 157.272 225.407 150.521 215.508C148.652 212.768 147.138 209.77 146.043 206.575C144.734 202.762 144.027 198.673 144.027 194.417C144.027 181.399 150.664 169.933 160.735 163.213C166.687 159.24 173.839 156.926 181.528 156.926C192.573 156.926 202.504 161.699 209.365 169.297C215.371 175.943 219.028 184.752 219.028 194.417Z" fill="#2F2F2F"/>
<path d="M212.518 194.416C212.518 196.037 212.393 197.629 212.153 199.185C210.955 206.946 206.872 213.757 201.036 218.49C195.708 222.809 188.92 225.4 181.525 225.4C170.874 225.4 161.479 220.029 155.902 211.849C154.356 209.586 153.105 207.106 152.2 204.464C151.118 201.314 150.534 197.934 150.534 194.418C150.534 183.661 156.018 174.183 164.343 168.63C169.26 165.346 175.172 163.433 181.525 163.433C190.653 163.433 198.859 167.377 204.532 173.657C209.497 179.148 212.518 186.43 212.518 194.418V194.416Z" fill="black"/>
<path d="M181.527 225.891C171.106 225.891 161.375 220.746 155.498 212.126C153.913 209.803 152.648 207.279 151.738 204.626C150.615 201.351 150.046 197.918 150.046 194.42C150.046 183.876 155.289 174.082 164.073 168.223C169.247 164.769 175.283 162.943 181.53 162.943C190.421 162.943 198.937 166.729 204.901 173.328C210.132 179.116 213.013 186.607 213.013 194.417C213.013 196.036 212.889 197.663 212.641 199.26C211.452 206.967 207.441 213.93 201.35 218.871C195.768 223.396 188.73 225.889 181.532 225.889L181.527 225.891ZM181.527 163.927C175.475 163.927 169.628 165.695 164.617 169.039C156.107 174.715 151.027 184.204 151.027 194.42C151.027 197.808 151.578 201.135 152.666 204.307C153.547 206.878 154.771 209.322 156.308 211.573C162.001 219.925 171.43 224.91 181.527 224.91C188.501 224.91 195.32 222.496 200.728 218.11C206.631 213.324 210.516 206.577 211.669 199.113C211.907 197.565 212.03 195.987 212.03 194.42C212.03 186.853 209.24 179.596 204.171 173.988C198.395 167.594 190.142 163.927 181.53 163.927H181.527Z" fill="#353535"/>
<path d="M171.951 335.14C171.951 338.89 171.662 342.571 171.104 346.169C168.332 364.121 158.892 379.875 145.394 390.82C133.073 400.81 117.371 406.799 100.271 406.799C75.6403 406.799 53.9085 394.378 41.0055 375.456C37.4307 370.219 34.5383 364.487 32.4443 358.38C29.9445 351.092 28.5908 343.278 28.5908 335.142C28.5908 310.261 41.2753 288.343 60.5273 275.498C71.9027 267.905 85.5729 263.481 100.271 263.481C121.383 263.481 140.363 272.605 153.482 287.128C164.96 299.829 171.951 316.669 171.951 335.142V335.14Z" fill="#2F2F2F"/>
<path d="M165.035 335.139C165.035 338.528 164.772 341.852 164.27 345.103C161.766 361.323 153.236 375.556 141.042 385.444C129.909 394.469 115.724 399.88 100.274 399.88C78.0208 399.88 58.3853 388.657 46.7288 371.563C43.4997 366.832 40.8861 361.653 38.995 356.135C36.736 349.551 35.5117 342.49 35.5117 335.139C35.5117 312.659 46.9719 292.857 64.3663 281.252C74.6445 274.392 86.9945 270.395 100.274 270.395C119.348 270.395 136.497 278.637 148.35 291.758C158.722 303.233 165.035 318.449 165.035 335.139Z" fill="black"/>
<path d="M100.274 400.371C78.6736 400.371 58.5051 389.705 46.3224 371.838C43.0353 367.022 40.4128 361.792 38.5284 356.292C36.2002 349.505 35.0205 342.388 35.0205 335.138C35.0205 313.284 45.8875 292.987 64.0936 280.841C74.8157 273.684 87.3262 269.9 100.274 269.9C118.701 269.9 136.356 277.746 148.713 291.426C159.555 303.423 165.525 318.947 165.525 335.138C165.525 338.491 165.266 341.871 164.753 345.178C162.287 361.15 153.976 375.586 141.349 385.824C129.78 395.203 115.191 400.369 100.272 400.369L100.274 400.371ZM100.274 270.884C87.5224 270.884 75.1992 274.609 64.64 281.659C46.7082 293.622 36.004 313.614 36.004 335.138C36.004 342.279 37.1658 349.291 39.4605 355.973C41.3159 361.388 43.8983 366.541 47.1363 371.285C59.134 388.883 78.9992 399.388 100.276 399.388C114.972 399.388 129.34 394.3 140.736 385.061C153.173 374.977 161.359 360.757 163.788 345.028C164.292 341.771 164.546 338.442 164.546 335.138C164.546 319.19 158.665 303.9 147.986 292.086C135.814 278.611 118.424 270.884 100.274 270.884Z" fill="#353535"/>
<path d="M195.473 237.047L200.876 237.486L202.243 225.014C202.444 223.179 201.398 221.592 199.906 221.469C198.414 221.349 197.043 222.738 196.84 224.575L195.473 237.047Z" fill="white"/>
<path d="M200.383 240.816L205.929 241.267L207.296 228.795C207.497 226.96 206.451 225.372 204.959 225.25C203.467 225.127 202.096 226.518 201.893 228.355L200.381 240.816H200.383Z" fill="white"/>
<path d="M205.794 242.392L210.618 242.785L211.84 231.646C212.021 230.008 211.086 228.59 209.753 228.48C208.421 228.371 207.195 229.613 207.014 231.254L205.792 242.392H205.794Z" fill="white"/>
<path d="M190.629 231.471L195.412 235.165L204.841 211.896C205.483 210.373 204.926 208.529 203.597 207.778C202.267 207.024 200.671 207.648 200.029 209.171L190.629 231.468V231.471Z" fill="white"/>
<path d="M181.658 250.461L190.665 243.449L184.97 222.864C184.613 221.11 183.137 220.142 181.676 220.7C180.213 221.257 179.317 223.13 179.676 224.884L181.616 234.407L181.661 250.464L181.658 250.461Z" fill="white"/>
<path d="M181.811 250.965L175.926 270.192L194.906 277.703L200.336 260.69L210.607 242.811L190.628 231.47L181.811 250.965Z" fill="white"/>
<path d="M176.786 267.609L195.768 275.12L199.073 264.699L181.146 253.206L176.786 267.609Z" fill="white"/>
<path d="M201.042 236.628C201.024 236.628 201.006 236.628 200.989 236.626C200.719 236.597 200.525 236.354 200.554 236.084L201.756 224.961C201.954 223.144 201.441 222.633 200.913 222.37C200.67 222.25 200.569 221.955 200.69 221.712C200.81 221.469 201.104 221.369 201.348 221.489C202.857 222.236 202.86 223.888 202.73 225.066L201.528 236.189C201.501 236.441 201.287 236.628 201.04 236.628H201.042Z" fill="#353535"/>
<path d="M206.069 240.393C206.051 240.393 206.033 240.393 206.013 240.39C205.744 240.361 205.549 240.118 205.578 239.849L206.807 228.743C206.903 227.867 206.68 227.029 206.198 226.445C205.853 226.026 205.411 225.783 204.918 225.743C203.694 225.644 202.552 226.839 202.381 228.411L201.527 236.192C201.498 236.462 201.254 236.654 200.985 236.627C200.715 236.598 200.521 236.355 200.55 236.085L201.404 228.304C201.634 226.209 203.253 224.621 204.999 224.764C205.75 224.824 206.444 225.199 206.954 225.818C207.606 226.608 207.907 227.711 207.782 228.85L206.553 239.958C206.526 240.21 206.312 240.395 206.065 240.395L206.069 240.393Z" fill="#353535"/>
<path d="M195.858 234.924C195.798 234.924 195.735 234.913 195.677 234.888C195.425 234.788 195.303 234.502 195.403 234.25L204.384 211.715C204.934 210.408 204.471 208.839 203.353 208.205C202.869 207.931 202.323 207.875 201.812 208.049C201.235 208.245 200.749 208.725 200.481 209.36L191.081 231.658C190.977 231.907 190.687 232.025 190.439 231.918C190.189 231.814 190.071 231.526 190.178 231.276L199.578 208.979C199.955 208.085 200.655 207.405 201.498 207.12C202.276 206.854 203.108 206.937 203.839 207.349C205.376 208.219 206.027 210.343 205.293 212.085L196.318 234.612C196.242 234.803 196.057 234.922 195.86 234.922L195.858 234.924Z" fill="#353535"/>
<path d="M176.824 267.341C176.775 267.341 176.726 267.334 176.677 267.319C176.419 267.238 176.274 266.962 176.356 266.703L181.32 250.894L181.124 234.456L179.195 224.98C178.791 223.005 179.828 220.878 181.503 220.238C182.281 219.942 183.104 219.995 183.816 220.387C184.641 220.842 185.238 221.707 185.453 222.766L189.036 235.715C189.108 235.976 188.956 236.246 188.693 236.32C188.432 236.391 188.162 236.239 188.088 235.976L184.498 222.996C184.333 222.189 183.914 221.565 183.343 221.25C182.879 220.996 182.364 220.965 181.853 221.159C180.607 221.634 179.848 223.261 180.158 224.786L182.099 234.308C182.105 234.34 182.107 234.371 182.107 234.4L182.304 250.963C182.304 251.014 182.297 251.065 182.281 251.115L177.295 266.998C177.228 267.207 177.036 267.341 176.827 267.341H176.824Z" fill="#353535"/>
<path d="M186.575 240.544C186.504 240.544 186.432 240.529 186.365 240.497C186.12 240.381 186.015 240.089 186.131 239.844L190.185 231.263C190.301 231.018 190.594 230.913 190.839 231.029C191.084 231.145 191.189 231.437 191.073 231.682L187.019 240.263C186.934 240.442 186.758 240.544 186.575 240.544Z" fill="#353535"/>
<path d="M195.925 274.868C195.875 274.868 195.824 274.861 195.773 274.843C195.514 274.761 195.374 274.484 195.456 274.226L199.867 260.539C199.878 260.505 199.892 260.474 199.91 260.445L209.414 243.898C209.891 243.068 210.199 242.105 210.308 241.113L211.352 231.593C211.437 230.824 211.243 230.09 210.819 229.577C210.52 229.214 210.137 229.004 209.713 228.969C208.647 228.884 207.655 229.93 207.503 231.305L206.555 239.954C206.526 240.223 206.285 240.417 206.013 240.388C205.743 240.359 205.549 240.116 205.578 239.847L206.526 231.198C206.734 229.299 208.199 227.856 209.791 227.99C210.476 228.046 211.109 228.387 211.575 228.951C212.166 229.667 212.438 230.668 212.327 231.698L211.283 241.218C211.16 242.344 210.808 243.438 210.264 244.386L200.786 260.889L196.391 274.527C196.324 274.734 196.132 274.868 195.922 274.868H195.925Z" fill="#353535"/>
<path d="M14.0528 233.096L13.7183 233.29C12.7482 233.85 12.2844 235.147 12.63 236.331L12.969 237.49C12.4739 235.999 10.9619 235.306 9.70643 236.03C8.65385 236.639 8.15209 238.043 8.52674 239.328L11.6154 249.895C12.0368 251.34 12.7103 252.667 13.5956 253.799L14.8645 255.445L14.8311 255.46L13.4864 253.741C12.5787 252.58 11.8896 251.215 11.4659 249.73L9.72651 243.577C9.29834 242.063 7.79975 241.341 6.56207 242.056L6.38367 242.159C5.37792 242.741 4.89623 244.083 5.25304 245.312L7.46301 252.901C7.82428 254.14 8.3751 255.295 9.08425 256.314C8.74306 255.942 8.42416 255.541 8.13202 255.113L4.67322 250.011C3.82135 248.756 2.19788 248.667 1.24788 249.824L1.10961 249.991C0.335788 250.932 0.282267 252.386 0.982501 253.398L5.31102 259.663C6.13613 260.854 7.16418 261.839 8.3305 262.555L19.8754 269.638L22.7723 281.755L37.4125 277.009L37.4928 262.909C37.5062 260.726 37.2073 258.555 36.6097 256.484L33.2111 244.69C32.7673 243.151 31.3245 242.317 29.9887 242.828L29.7679 242.913C28.4321 243.423 27.7074 245.084 28.1511 246.623L31.4538 258.082L30.2964 257.795C29.7902 257.668 29.3219 257.402 28.9272 257.025L22.0118 248.19C20.957 246.843 20.1587 245.258 19.6658 243.535L17.0968 234.55C16.682 233.094 15.2392 232.405 14.0506 233.092L14.0528 233.096ZM13.2723 238.521L15.7699 247.071C15.955 247.706 16.1914 248.317 16.4724 248.899C16.1223 248.212 15.8324 247.483 15.6161 246.721L13.2723 238.518V238.521Z" fill="white"/>
<path d="M22.7742 282.196L37.4144 277.449L37.4479 271.659L21.0303 276.161L22.7742 282.196Z" fill="white"/>
<path d="M31.3936 259.023C31.3535 259.023 31.3133 259.018 31.2754 259.007L31.0435 258.949C29.7612 258.63 28.6239 257.872 27.752 256.757L21.626 248.93C20.5266 247.523 19.7082 245.9 19.1953 244.107L16.6285 235.122C16.4568 234.522 16.071 234.063 15.567 233.86C15.1478 233.691 14.6973 233.724 14.2981 233.956L13.9636 234.148C13.1898 234.596 12.8196 235.659 13.1006 236.625L16.2382 247.367C16.6441 248.758 17.2819 250.018 18.1338 251.106L21.9895 256.037C22.1568 256.251 22.1189 256.559 21.9048 256.726C21.6907 256.893 21.383 256.855 21.2157 256.641L17.36 251.71C16.4323 250.521 15.7365 249.152 15.2949 247.641L12.1573 236.899C11.7447 235.49 12.2978 233.974 13.4708 233.296L13.8053 233.104C14.4631 232.725 15.237 232.667 15.9327 232.948C16.7177 233.265 17.3154 233.958 17.5696 234.852L20.1364 243.837C20.6136 245.509 21.374 247.019 22.3954 248.325L28.5213 256.153C29.2572 257.094 30.2095 257.732 31.2777 257.997L31.5096 258.055C31.7727 258.12 31.9333 258.387 31.8664 258.65C31.8106 258.873 31.6099 259.023 31.3914 259.023H31.3936Z" fill="#353535"/>
<path d="M16.898 258.948C16.753 258.948 16.6081 258.884 16.51 258.759L13.2073 254.534C12.2773 253.346 11.5838 251.977 11.1423 250.465L8.05364 239.897C7.61209 238.386 8.20306 236.762 9.45857 236.036C10.1521 235.634 10.9416 235.567 11.6797 235.851C12.4959 236.16 13.1381 236.861 13.4392 237.766C13.5239 238.022 13.3857 238.301 13.127 238.386C12.8683 238.47 12.5918 238.332 12.507 238.073C12.2996 237.449 11.8715 236.972 11.3318 236.767C10.8746 236.593 10.3863 236.635 9.95141 236.885C9.09507 237.38 8.68698 238.555 8.99695 239.621L12.0856 250.189C12.4914 251.58 13.1292 252.839 13.9811 253.927L17.2838 258.152C17.4511 258.366 17.4131 258.674 17.1991 258.841C17.1099 258.91 17.0028 258.946 16.898 258.946V258.948Z" fill="#353535"/>
<path d="M22.931 283.418L19.1533 270.21L8.07666 263.413C6.84345 262.657 5.77749 261.638 4.91 260.383L0.581486 254.118C-0.24809 252.916 -0.183419 251.235 0.733129 250.12L0.871392 249.953C1.41998 249.286 2.19827 248.928 3.00554 248.961C3.82843 248.999 4.58442 249.44 5.08172 250.176L9.19838 256.031C9.35448 256.254 9.30096 256.559 9.07795 256.715C8.85495 256.871 8.54943 256.818 8.39333 256.595L4.27221 250.733C3.94662 250.252 3.46939 249.966 2.95871 249.942C2.45918 249.922 1.98195 250.145 1.62738 250.575L1.48911 250.742C0.855782 251.514 0.811181 252.727 1.38653 253.56L5.71505 259.825C6.50448 260.967 7.47232 261.892 8.58734 262.577L19.9896 269.573L23.5799 282.125L36.9245 277.111L37.0026 263.35C37.0137 261.21 36.7238 259.094 36.1395 257.063L32.741 245.269C32.5514 244.609 32.1299 244.074 31.5858 243.802C31.1353 243.577 30.6291 243.552 30.1653 243.728L29.9445 243.813C28.8428 244.234 28.2496 245.632 28.6243 246.928L32.8725 261.671C32.9483 261.932 32.7967 262.204 32.5358 262.28C32.2749 262.354 32.0028 262.204 31.927 261.943L27.6788 247.2C27.1658 245.425 28.0244 243.494 29.5921 242.894L29.8129 242.81C30.5377 242.533 31.3226 242.573 32.0229 242.921C32.8123 243.314 33.4167 244.069 33.682 244.995L37.0806 256.789C37.6917 258.909 37.9949 261.118 37.9838 263.352L37.9013 277.788L22.9288 283.416L22.931 283.418Z" fill="#353535"/>
<path d="M12.4036 261.329C12.2609 261.329 12.1204 261.269 12.0245 261.15L9.06749 257.552C8.13087 256.355 7.43509 254.986 6.99355 253.474L4.78357 245.885C4.35986 244.431 4.93075 242.868 6.13944 242.168L6.31784 242.066C6.99578 241.673 7.79636 241.615 8.5122 241.908C9.32394 242.238 9.9372 242.955 10.2003 243.878L10.3319 244.347C10.4055 244.607 10.2539 244.88 9.99295 244.953C9.73204 245.027 9.45997 244.875 9.38638 244.614L9.25481 244.146C9.07641 243.517 8.67277 243.031 8.14425 242.817C7.70493 242.639 7.22993 242.675 6.81068 242.915L6.63228 243.018C5.82277 243.486 5.43474 244.599 5.72911 245.609L7.93908 253.198C8.34495 254.589 8.98497 255.849 9.83685 256.937L12.7872 260.524C12.9589 260.734 12.9299 261.043 12.7203 261.215C12.6289 261.291 12.5196 261.327 12.4081 261.327L12.4036 261.329Z" fill="#353535"/>
<path d="M183 318.457L183.009 318.462L176.129 336.198C174.238 341.067 170.275 344.572 165.665 345.044C165.204 345.093 164.738 345.113 164.272 345.098C161.901 345.049 159.519 344.244 157.403 342.623L134.556 325.003L141.044 385.439C129.911 394.461 115.726 399.877 100.278 399.877C78.0203 399.877 58.3892 388.653 46.7305 371.555L53.2021 340.251L45.281 351.022C43.5616 353.354 41.4364 355.041 39.1238 356.069C39.0792 356.089 39.0391 356.109 38.9967 356.127C38.9878 356.132 38.9811 356.132 38.9722 356.136C37.7189 356.716 36.3786 357.108 34.9759 357.289C34.4073 357.362 33.8409 357.396 33.2811 357.396C25.6053 357.396 19.0021 350.75 18.1369 341.769L12.2295 280.342L42.5447 276.478L44.5785 297.607L50.7267 289.237C54.1677 284.549 59.0939 281.688 64.3679 281.24C64.8452 281.2 65.3246 281.182 65.8018 281.182L128.575 281.149C132.478 281.149 136.289 282.473 139.536 284.964L148.349 291.752L158.061 299.235L175.669 256.221L203.197 266.815L183.002 318.455L183 318.457Z" fill="black"/>
<path d="M100.275 400.372C78.673 400.372 58.5045 389.704 46.324 371.837C46.2481 371.728 46.2214 371.592 46.2481 371.46L52.2648 342.356L45.675 351.317C43.9668 353.635 41.768 355.435 39.3216 356.52L39.1945 356.578C39.1945 356.578 39.1722 356.587 39.1611 356.592C37.8409 357.198 36.4582 357.595 35.0377 357.78C34.4624 357.854 33.8714 357.891 33.2804 357.891C25.25 357.891 18.5309 350.982 17.6478 341.821L11.7404 280.394C11.7159 280.131 11.9032 279.894 12.1664 279.859L42.4816 275.995C42.6132 275.977 42.747 276.015 42.8496 276.097C42.9544 276.18 43.019 276.303 43.0324 276.434L44.9413 296.283L50.3269 288.951C53.8147 284.2 58.9148 281.212 64.3227 280.755C64.811 280.715 65.3083 280.695 65.7989 280.695L128.572 280.661C132.598 280.661 136.491 282.015 139.832 284.576L157.848 298.455L175.214 256.036C175.314 255.789 175.595 255.668 175.845 255.764L203.373 266.359C203.495 266.406 203.593 266.499 203.645 266.62C203.698 266.74 203.7 266.874 203.654 266.997L183.494 318.541C183.49 318.574 183.481 318.607 183.467 318.639L176.588 336.374C174.583 341.542 170.415 345.052 165.716 345.531C165.223 345.585 164.73 345.602 164.255 345.587C161.711 345.533 159.236 344.644 157.104 343.012L135.164 326.094L141.529 385.386C141.547 385.551 141.48 385.713 141.351 385.818C129.777 395.2 115.19 400.366 100.275 400.366V400.372ZM47.2517 371.456C59.2627 388.953 79.0677 399.392 100.275 399.392C114.876 399.392 129.159 394.364 140.523 385.232L134.065 325.062C134.045 324.866 134.141 324.676 134.313 324.58C134.484 324.484 134.696 324.5 134.852 324.62L157.699 342.238C159.661 343.741 161.938 344.561 164.278 344.61C164.715 344.624 165.161 344.608 165.611 344.559C169.944 344.115 173.798 340.845 175.669 336.022L182.513 318.378C182.517 318.344 182.526 318.311 182.54 318.278L202.556 267.099L175.939 256.855L158.513 299.423C158.455 299.565 158.335 299.67 158.185 299.71C158.038 299.75 157.88 299.719 157.757 299.625L139.23 285.354C136.063 282.926 132.377 281.642 128.57 281.642L65.7967 281.676C65.3329 281.676 64.8645 281.696 64.4029 281.734C59.2805 282.168 54.4369 285.011 51.1186 289.532L44.9703 297.902C44.8499 298.067 44.6403 298.138 44.444 298.085C44.2478 298.031 44.1051 297.862 44.085 297.659L42.1003 277.034L12.7596 280.773L18.6201 341.728C19.4519 350.382 25.754 356.908 33.2737 356.908C33.8223 356.908 34.3709 356.873 34.9061 356.803C36.2397 356.632 37.5376 356.257 38.7597 355.691C38.7686 355.686 38.7842 355.68 38.7976 355.675L38.9202 355.62C41.2127 354.603 43.2733 352.913 44.8811 350.73L52.8 339.959C52.936 339.774 53.1836 339.708 53.3954 339.801C53.6051 339.895 53.7233 340.122 53.6764 340.35L47.2472 371.451L47.2517 371.456Z" fill="#353535"/>
<path d="M21.9677 328.868C21.8673 328.868 21.7647 328.837 21.6778 328.772C21.4592 328.612 21.4124 328.304 21.5729 328.086L44.1744 297.27C44.335 297.051 44.6428 297.004 44.8613 297.165C45.0798 297.325 45.1267 297.633 44.9661 297.851L22.3646 328.668C22.2687 328.799 22.1193 328.868 21.9677 328.868Z" fill="#353535"/>
<path d="M45.2764 351.028L59.4728 311.383L53.2019 340.255L45.2764 351.028Z" fill="#353535"/>
<path d="M158.371 299.975C158.31 299.975 158.25 299.964 158.192 299.941C157.94 299.843 157.815 299.558 157.913 299.306L174.938 255.746C175.036 255.494 175.321 255.369 175.573 255.467C175.825 255.565 175.95 255.851 175.852 256.102L158.828 299.663C158.752 299.857 158.567 299.975 158.371 299.975Z" fill="#353535"/>
<path d="M164.598 345.599C161.967 345.599 159.367 344.702 157.165 343.017L125.465 318.724C125.249 318.559 125.209 318.252 125.374 318.035C125.539 317.821 125.847 317.779 126.063 317.944L157.763 342.237C160.125 344.047 162.863 344.85 165.678 344.562C170.011 344.116 173.864 340.845 175.737 336.023L202.56 267.095L175.218 256.378C174.966 256.28 174.841 255.995 174.939 255.743C175.037 255.491 175.323 255.366 175.575 255.464L203.372 266.36C203.624 266.458 203.749 266.743 203.651 266.995L176.652 336.377C174.647 341.543 170.479 345.052 165.778 345.536C165.385 345.576 164.991 345.596 164.598 345.596V345.599Z" fill="#353535"/>
<path d="M134.554 325.498C134.449 325.498 134.344 325.464 134.255 325.397L116.675 311.927C116.459 311.762 116.419 311.454 116.584 311.238C116.749 311.022 117.057 310.981 117.273 311.146L134.852 324.617C135.069 324.782 135.109 325.09 134.944 325.306C134.848 325.433 134.701 325.498 134.554 325.498Z" fill="#353535"/>
<path d="M169.463 308.401C169.358 308.401 169.253 308.368 169.164 308.301L139.877 285.854C136.284 283.101 132.109 281.647 127.799 281.647L100.757 281.663C100.485 281.663 100.267 281.444 100.267 281.172C100.267 280.9 100.485 280.682 100.757 280.682L127.799 280.666C132.326 280.666 136.71 282.191 140.474 285.076L169.761 307.523C169.978 307.688 170.018 307.995 169.853 308.212C169.757 308.339 169.61 308.403 169.463 308.403V308.401Z" fill="#353535"/>
<path d="M97.5619 271.05C103.557 271.05 108.418 265.83 108.418 259.39C108.418 252.95 103.557 247.729 97.5619 247.729C91.5664 247.729 86.7061 252.95 86.7061 259.39C86.7061 265.83 91.5664 271.05 97.5619 271.05Z" fill="white"/>
<path d="M97.5613 271.54C91.306 271.54 86.2148 266.089 86.2148 259.389C86.2148 252.689 91.3038 247.238 97.5613 247.238C103.819 247.238 108.908 252.689 108.908 259.389C108.908 266.089 103.819 271.54 97.5613 271.54ZM97.5613 248.221C91.8457 248.221 87.1983 253.231 87.1983 259.389C87.1983 265.547 91.8479 270.557 97.5613 270.557C103.275 270.557 107.927 265.547 107.927 259.389C107.927 253.231 103.277 248.221 97.5613 248.221Z" fill="#353535"/>
<path d="M86.7061 281.16H100.836L101.237 258.212H86.7061V281.16Z" fill="white"/>
<path d="M100.761 281.651C100.489 281.651 100.271 281.43 100.271 281.16V265.373C100.271 265.101 100.491 264.883 100.761 264.883C101.031 264.883 101.252 265.104 101.252 265.373V281.16C101.252 281.432 101.031 281.651 100.761 281.651Z" fill="#353535"/>
<path d="M94.2294 265.919C96.2676 269.823 69.9598 265.188 70.7983 265.326L69.9331 264.686C69.9732 264.69 69.8037 264.2 69.8037 264.2C70.5642 261.217 70.7492 259.712 73.0975 254.386C74.3418 251.556 75.8962 249.282 77.649 247.481C88.2038 236.637 105.886 243.044 105.886 249.615L105.922 249.755C106.031 250.17 106.102 250.584 106.142 250.99C107.023 259.509 94.2294 265.917 94.2294 265.917V265.919Z" fill="#505050"/>
<path d="M69.8497 311.074C79.3097 311.074 86.9786 303.409 86.9786 293.953C86.9786 284.498 79.3097 276.833 69.8497 276.833C60.3896 276.833 52.7207 284.498 52.7207 293.953C52.7207 303.409 60.3896 311.074 69.8497 311.074Z" fill="#505050"/>
<path d="M82.7482 289.195C90.8535 289.195 97.4241 282.627 97.4241 274.525C97.4241 266.423 90.8535 259.854 82.7482 259.854C74.6429 259.854 68.0723 266.423 68.0723 274.525C68.0723 282.627 74.6429 289.195 82.7482 289.195Z" fill="#505050"/>
<path d="M47.1549 317.986C57.4254 317.986 65.7513 309.664 65.7513 299.399C65.7513 289.133 57.4254 280.812 47.1549 280.812C36.8845 280.812 28.5586 289.133 28.5586 299.399C28.5586 309.664 36.8845 317.986 47.1549 317.986Z" fill="#505050"/>
<path d="M65.0641 300.655C75.3346 300.655 83.6604 292.333 83.6604 282.068C83.6604 271.802 75.3346 263.48 65.0641 263.48C54.7936 263.48 46.4678 271.802 46.4678 282.068C46.4678 292.333 54.7936 300.655 65.0641 300.655Z" fill="#505050"/>
<path d="M100.274 400.37C78.6736 400.37 58.5051 389.704 46.3223 371.837C46.0235 371.398 45.7291 370.956 45.4392 370.511C45.292 370.283 45.3567 369.98 45.5842 369.833C45.8117 369.686 46.1172 369.75 46.2621 369.978C46.5476 370.417 46.8352 370.854 47.1318 371.284C59.1295 388.882 78.9947 399.387 100.272 399.387C114.968 399.387 129.336 394.299 140.731 385.06C141.612 384.347 142.484 383.6 143.323 382.844C143.523 382.661 143.835 382.679 144.016 382.88C144.197 383.08 144.181 383.39 143.98 383.573C143.129 384.342 142.245 385.098 141.351 385.823C129.782 395.202 115.193 400.368 100.274 400.368V400.37Z" fill="#353535"/>
<path d="M163.884 92.5121C163.884 96.7259 163.558 100.864 162.931 104.906C159.816 125.081 149.208 142.783 134.039 155.083C120.193 166.311 102.546 173.04 83.33 173.04C55.6485 173.04 31.2273 159.081 16.7275 137.816C12.7112 131.932 9.45981 125.489 7.10711 118.624C4.29726 110.433 2.77637 101.651 2.77637 92.5099C2.77637 64.5474 17.0308 39.9158 38.6667 25.4819C51.4515 16.9496 66.8121 11.9756 83.33 11.9756C107.055 11.9756 128.386 22.2291 143.129 38.5491C156.029 52.8224 163.884 71.7487 163.884 92.5099V92.5121Z" fill="#2F2F2F"/>
<path d="M156.109 92.5115C156.109 96.3195 155.815 100.056 155.251 103.708C152.436 121.937 142.852 137.931 129.146 149.043C116.635 159.187 100.693 165.267 83.3295 165.267C58.3196 165.267 36.2533 152.655 23.154 133.443C19.5257 128.126 16.5865 122.304 14.4635 116.104C11.9235 108.704 10.5498 100.77 10.5498 92.5093C10.5498 67.2467 23.4305 44.9918 42.9769 31.9492C54.5263 24.2395 68.4061 19.7471 83.3295 19.7471C104.765 19.7471 124.037 29.0107 137.357 43.7566C149.011 56.6521 156.109 73.7524 156.109 92.5093V92.5115Z" fill="black"/>
<path d="M83.3299 165.759C59.0737 165.759 36.4276 153.782 22.7508 133.721C19.06 128.312 16.1164 122.439 14.0001 116.264C11.3864 108.643 10.0596 100.653 10.0596 92.5105C10.0596 67.9726 22.2624 45.1803 42.7052 31.5424C54.7452 23.505 68.7922 19.2578 83.3299 19.2578C104.02 19.2578 123.845 28.0688 137.721 43.4279C149.895 56.8986 156.6 74.3289 156.6 92.5105C156.6 96.2762 156.308 100.071 155.735 103.783C152.967 121.717 143.633 137.928 129.454 149.423C116.464 159.955 100.082 165.757 83.3299 165.757V165.759ZM83.3299 20.2388C68.9863 20.2388 55.1265 24.4303 43.2493 32.3584C23.0808 45.8157 11.0408 68.3025 11.0408 92.5128C11.0408 100.546 12.3476 108.431 14.9278 115.947C17.0151 122.038 19.9186 127.833 23.5603 133.168C37.0565 152.961 59.3993 164.778 83.3299 164.778C99.859 164.778 116.02 159.055 128.836 148.663C142.825 137.319 152.033 121.329 154.765 103.634C155.331 99.9682 155.619 96.2271 155.619 92.5105C155.619 74.5741 149.005 57.3757 136.994 44.0856C123.303 28.9294 103.744 20.2388 83.3299 20.2388Z" fill="#353535"/>
<path d="M113.669 158.66C104.432 162.903 94.1557 165.266 83.3266 165.266C60.8768 165.266 40.7952 155.102 27.4551 139.123L39.591 124.272L106.412 129.438L113.669 158.658V158.66Z" fill="black"/>
<path d="M83.3266 165.757C61.5435 165.757 41.0405 156.164 27.0782 139.438C26.9265 139.257 26.9265 138.994 27.0737 138.814L39.2074 123.963C39.31 123.838 39.4638 123.773 39.6266 123.784L106.45 128.95C106.662 128.966 106.838 129.115 106.889 129.323L114.146 158.542C114.202 158.772 114.088 159.008 113.874 159.107C104.267 163.519 93.9884 165.757 83.3266 165.757ZM28.0928 139.119C41.8634 155.43 61.9694 164.776 83.3266 164.776C93.7097 164.776 103.723 162.627 113.093 158.384L106.02 129.902L39.8073 124.783L28.0928 139.119Z" fill="#353535"/>
<path d="M83.3268 165.756C61.5438 165.756 41.0407 156.163 27.0784 139.437C25.5642 137.638 24.1058 135.711 22.7477 133.718C22.4132 133.223 22.0831 132.73 21.7598 132.227C21.6126 131.999 21.6795 131.694 21.9092 131.549C22.1366 131.402 22.4421 131.469 22.5871 131.698C22.9038 132.195 23.2338 132.681 23.5594 133.167C24.8997 135.132 26.338 137.031 27.8299 138.806C41.6071 155.309 61.8337 164.773 83.3246 164.773C93.8437 164.773 103.984 162.566 113.461 158.211C118.954 155.688 124.123 152.473 128.831 148.658C129.81 147.869 130.789 147.033 131.746 146.168C131.946 145.985 132.256 146 132.439 146.201C132.622 146.402 132.606 146.712 132.406 146.895C131.436 147.771 130.443 148.622 129.451 149.421C124.683 153.287 119.44 156.546 113.874 159.103C104.267 163.515 93.9887 165.754 83.3268 165.754V165.756Z" fill="#353535"/>
<path d="M160.069 86.8898L183.025 64.1064L197.757 81.4855L174.232 104.391L160.069 86.8898Z" fill="white"/>
<path d="M191.325 59.9295L213.986 36.0872C215.302 34.7405 215.668 32.8521 214.321 31.5367C212.974 30.2213 210.757 30.3752 209.442 31.7218L186.445 55.1695L191.325 59.9295Z" fill="white"/>
<path d="M197.448 65.036C198.503 66.0727 200.2 66.0593 201.237 65.007L207.133 58.9828L209.628 61.4375L211.058 59.9861C213.341 57.6697 212.924 54.7535 212.918 54.7936C212.71 51.7481 209.017 49.4383 206.636 51.8551L197.414 61.2503C196.375 62.3026 196.389 63.997 197.443 65.036H197.448Z" fill="white"/>
<path d="M204.427 65.4944C205.482 66.5311 207.179 66.5177 208.216 65.4654L210.934 62.6896L213.43 65.1443L214.514 63.5235C216.572 60.3152 216.463 57.9073 216.458 57.9475C216.251 54.902 212.821 53.1473 210.439 55.5641L204.396 61.7109C203.357 62.7632 203.37 64.4576 204.425 65.4966L204.427 65.4944Z" fill="white"/>
<path d="M182.704 59.0915C182.805 63.1871 183.242 67.2671 184.015 71.2914L185.258 77.7703L196.236 82.8558L214.83 63.1314L199.541 48.2561L189.867 58.1484L189.611 47.1123C189.557 44.8405 188.616 42.6778 186.988 41.0904L184.125 38.2991C182.865 37.0706 180.847 37.0929 179.616 38.3526L179.348 38.6268C178.117 39.8843 178.142 41.902 179.402 43.1304L179.852 43.5696C181.478 45.1548 182.419 47.313 182.475 49.5826L182.706 59.0937L182.704 59.0915Z" fill="white"/>
<path d="M191.779 63.2003C192.833 64.237 194.53 64.2236 195.567 63.1713L203.315 55.2543L205.81 57.709L207.24 56.2576C209.523 53.9411 209.106 51.025 209.099 51.0651C208.892 48.0196 205.199 45.7098 202.817 48.1266L191.747 59.4146C190.708 60.4669 190.722 62.1613 191.776 63.2003H191.779Z" fill="white"/>
<path d="M193.654 64.4595C192.851 64.4595 192.05 64.1541 191.435 63.5499C190.831 62.9569 190.496 62.1632 190.489 61.3182C190.483 60.471 190.806 59.675 191.401 59.0708L202.471 47.7828C203.528 46.7104 204.942 46.3626 206.352 46.8331C208.033 47.3927 209.322 48.9622 209.563 50.7347C209.599 51.0045 209.411 51.2497 209.141 51.2876C208.872 51.3233 208.626 51.136 208.588 50.8662C208.401 49.4773 207.353 48.1997 206.039 47.7628C204.985 47.4127 203.966 47.6624 203.169 48.4695L192.099 59.7575C191.689 60.1744 191.466 60.7251 191.471 61.3093C191.475 61.8934 191.707 62.4396 192.124 62.8498C192.958 63.6703 194.285 63.6926 195.143 62.8989L197.081 60.9169C197.271 60.7229 197.581 60.7207 197.775 60.9102C197.969 61.0997 197.971 61.4096 197.782 61.6035L195.826 63.6034C195.206 64.1764 194.428 64.4595 193.652 64.4595H193.654Z" fill="#353535"/>
<path d="M199.327 66.2924C198.524 66.2924 197.719 65.9892 197.104 65.385C196.499 64.792 196.165 63.9983 196.158 63.1533C196.152 62.3083 196.475 61.5101 197.07 60.9059L206.289 51.5108C207.349 50.4361 208.765 50.0906 210.172 50.561C211.853 51.1228 213.145 52.6924 213.381 54.4693C213.417 54.7391 213.229 54.9843 212.959 55.02C212.694 55.0535 212.444 54.8684 212.406 54.5986C212.219 53.2074 211.173 51.9299 209.86 51.4907C208.803 51.1384 207.784 51.3881 206.987 52.1975L197.768 61.5926C197.358 62.0095 197.135 62.5602 197.14 63.1443C197.144 63.7285 197.376 64.2747 197.793 64.6849C198.651 65.5299 200.041 65.5188 200.888 64.6604L203.682 61.8044C203.872 61.6104 204.184 61.6082 204.376 61.7977C204.57 61.9872 204.572 62.2971 204.383 62.4911L201.586 65.3471C200.966 65.9758 200.146 66.2924 199.325 66.2924H199.327Z" fill="#353535"/>
<path d="M191.397 88.1681C191.272 88.1681 191.149 88.1213 191.053 88.0276C190.859 87.8381 190.857 87.526 191.047 87.3343L191.172 87.2072C197.853 80.3916 202.723 75.4688 205.633 72.5392C210.749 67.3891 216.041 62.0628 215.972 58.3373C215.954 57.3719 215.575 56.5559 214.815 55.8447C212.854 54.012 211.202 55.4322 209.081 57.6372C208.916 57.8089 208.756 57.9761 208.599 58.1366C208.289 58.4532 207.879 58.8144 207.447 59.1979C206.037 60.4442 204.11 62.152 204.122 63.6034C204.128 64.464 204.518 65.1217 205.221 65.4539C206.059 65.8507 207.145 65.6969 207.922 65.0726C208.501 64.6067 209.045 64.0069 209.572 63.4272C209.844 63.1263 210.116 62.8275 210.39 62.5488C210.58 62.3548 210.892 62.3526 211.084 62.5421C211.278 62.7316 211.28 63.0415 211.09 63.2355C210.825 63.5075 210.562 63.7973 210.297 64.0872C209.746 64.6936 209.175 65.3223 208.535 65.8373C207.471 66.6935 205.97 66.8964 204.797 66.3412C203.751 65.8463 203.147 64.8519 203.138 63.6123C203.122 61.715 205.158 59.9135 206.795 58.4644C207.215 58.092 207.612 57.742 207.897 57.4499C208.053 57.2916 208.211 57.1267 208.372 56.9594C210.185 55.0755 212.665 52.4937 215.486 55.129C216.438 56.0186 216.933 57.0932 216.955 58.3217C217.031 62.4619 211.835 67.6945 206.331 73.2326C203.424 76.16 198.553 81.0805 191.874 87.8961L191.749 88.0232C191.653 88.1213 191.526 88.1703 191.399 88.1703L191.397 88.1681Z" fill="#353535"/>
<path d="M175.986 71.5833C175.859 71.5833 175.734 71.5342 175.638 71.4383C175.446 71.2466 175.448 70.9345 175.64 70.745L182.513 63.9227C182.014 59.2251 181.933 55.0648 182.268 51.2145C182.159 49.034 181.124 47.0609 180.029 44.9719C179.485 43.9329 178.923 42.8605 178.488 41.7636C177.917 40.446 178.102 39.0748 178.992 38.1117C180.024 36.9924 181.757 36.6692 183.512 37.2689C183.539 37.2778 183.566 37.2912 183.592 37.3046C187.925 39.7102 190.097 44.0756 190.211 50.6237C191.518 49.2659 193.683 47.0007 196.11 44.4635C199.827 40.573 204.452 35.7328 208.027 32.0318C208.799 31.2314 210.821 29.4299 212.922 29.9517C214.057 30.2348 214.991 31.1355 215.359 32.306C215.718 33.452 215.469 34.6671 214.688 35.5544C211.263 39.456 208.52 42.5239 205.616 45.7722L203.099 48.5903C202.918 48.7932 202.608 48.8111 202.405 48.6305C202.202 48.4499 202.184 48.14 202.365 47.9371L204.883 45.119C207.784 41.8728 210.527 38.805 213.948 34.9056C214.508 34.268 214.679 33.4275 214.418 32.5981C214.153 31.7531 213.488 31.1021 212.683 30.9037C211.033 30.4912 209.24 32.1856 208.732 32.714C205.157 36.4128 200.534 41.253 196.819 45.1413C193.625 48.4833 191.105 51.1231 190.071 52.1821C189.93 52.327 189.714 52.3694 189.529 52.2913C189.344 52.2133 189.223 52.0305 189.228 51.8276C189.366 44.9183 187.435 40.582 183.153 38.1852C181.786 37.7326 180.47 37.9578 179.712 38.7783C179.085 39.4583 178.97 40.408 179.393 41.389C179.815 42.4503 180.363 43.5004 180.896 44.517C181.998 46.6195 183.137 48.7932 183.249 51.2033C183.249 51.2256 183.249 51.2479 183.249 51.268C182.912 55.1273 182.997 59.3076 183.514 64.052C183.53 64.2014 183.479 64.3485 183.372 64.4533L176.331 71.4406C176.236 71.5364 176.111 71.5833 175.986 71.5833Z" fill="#353535"/>
<path d="M175.985 71.0928L174.302 72.8741L189.676 89.018L175.985 71.0928Z" fill="#353535"/>
<path d="M110.212 164.695L114.407 179.731C114.808 181.171 113.965 182.662 112.524 183.064L112.232 183.146C110.792 183.548 109.298 182.705 108.896 181.267L104.701 166.231C104.233 164.55 103.504 162.949 102.545 161.489L93.6738 147.996L99.1865 146.462L108.058 159.955C109.017 161.415 109.746 163.014 110.214 164.697L110.212 164.695Z" fill="white"/>
<path d="M104.701 166.228L108.421 179.558C108.822 180.999 107.979 182.49 106.539 182.891L106.247 182.974C104.806 183.375 103.312 182.532 102.91 181.094L99.1907 167.764C98.7223 166.083 97.9931 164.482 97.0342 163.022L88.1631 149.529L93.6758 147.995L102.547 161.488C103.506 162.948 104.235 164.547 104.703 166.23L104.701 166.228Z" fill="white"/>
<path d="M99.1882 167.762L101.53 176.154C101.931 177.594 101.088 179.086 99.6476 179.487L99.3554 179.57C97.9148 179.971 96.4207 179.128 96.0193 177.69L93.6755 169.289C93.2295 167.691 92.0766 166.384 90.5468 165.74L86.9519 164.226C82.668 162.423 79.4434 158.766 78.1968 154.294L77.6816 152.448L88.1628 149.529L97.034 163.022C97.9929 164.483 98.7221 166.081 99.1904 167.764L99.1882 167.762Z" fill="white"/>
<path d="M98.3118 142.649C102.455 144.127 106.001 146.912 108.416 150.586L113.568 158.418C114.527 159.879 115.256 161.477 115.724 163.16L118.391 172.718C118.781 174.114 117.963 175.561 116.567 175.949L116.114 176.074C114.716 176.462 113.269 175.646 112.878 174.25L110.211 164.692C109.743 163.009 109.014 161.41 108.055 159.95L99.5629 147.034L78.6562 155.636L30.0234 138.288L56.0637 127.575L98.3141 142.644L98.3118 142.649Z" fill="white"/>
<path d="M111.506 183.735C110.105 183.735 108.816 182.807 108.421 181.396L104.227 166.36C103.77 164.724 103.065 163.177 102.133 161.756L95.4582 151.605C95.3088 151.378 95.3712 151.075 95.5987 150.925C95.8261 150.776 96.1294 150.841 96.2788 151.066L102.953 161.217C103.941 162.72 104.688 164.363 105.172 166.095L109.367 181.131C109.695 182.308 110.921 182.999 112.099 182.669L112.391 182.587C112.962 182.428 113.437 182.056 113.727 181.541C114.019 181.026 114.09 180.429 113.932 179.858L109.737 164.822C109.28 163.185 108.575 161.638 107.643 160.218L100.777 149.777C100.627 149.55 100.69 149.247 100.917 149.097C101.145 148.948 101.448 149.013 101.597 149.238L108.464 159.678C109.452 161.181 110.199 162.824 110.683 164.557L114.877 179.592C115.107 180.415 115.002 181.278 114.581 182.02C114.162 182.765 113.477 183.3 112.652 183.53L112.36 183.612C112.074 183.693 111.784 183.73 111.501 183.73L111.506 183.735Z" fill="#353535"/>
<path d="M105.517 183.563C104.117 183.563 102.828 182.635 102.433 181.224L98.7134 167.894C98.2562 166.257 97.5516 164.71 96.6194 163.29L89.7531 152.849C89.6037 152.622 89.6661 152.318 89.8936 152.169C90.121 152.02 90.4243 152.084 90.5737 152.309L97.4401 162.75C98.428 164.253 99.175 165.896 99.6589 167.628L103.379 180.959C103.706 182.136 104.933 182.825 106.11 182.497L106.403 182.415C106.973 182.256 107.448 181.884 107.738 181.369C108.031 180.854 108.102 180.256 107.944 179.686L104.224 166.355C103.767 164.719 103.062 163.172 102.13 161.751L95.4553 151.6C95.3059 151.373 95.3683 151.07 95.5958 150.92C95.8233 150.771 96.1266 150.836 96.276 151.061L102.95 161.212C103.938 162.717 104.685 164.358 105.169 166.09L108.889 179.42C109.119 180.243 109.014 181.106 108.593 181.85C108.173 182.595 107.489 183.13 106.664 183.36L106.371 183.442C106.086 183.523 105.798 183.56 105.513 183.56L105.517 183.563Z" fill="#353535"/>
<path d="M98.6267 180.161C97.2262 180.161 95.9372 179.233 95.5425 177.822L93.1987 169.421C92.7906 167.959 91.7537 166.781 90.3532 166.193L86.7584 164.679C82.9004 163.056 79.8162 159.912 78.2641 156.035L28.6523 138.326L56.0484 127.054L98.475 142.188C102.692 143.693 106.367 146.578 108.825 150.316L113.974 158.149C114.962 159.654 115.709 161.294 116.193 163.029L118.86 172.587C119.083 173.387 118.98 174.228 118.572 174.952C118.162 175.677 117.495 176.199 116.694 176.422L116.242 176.547C114.585 177.008 112.863 176.036 112.402 174.382L109.735 164.826C109.277 163.19 108.573 161.64 107.641 160.222L102.148 151.868C101.999 151.641 102.061 151.338 102.288 151.188C102.516 151.039 102.819 151.103 102.969 151.329L108.461 159.683C109.449 161.185 110.196 162.828 110.68 164.563L113.347 174.119C113.664 175.251 114.841 175.916 115.979 175.601L116.431 175.476C116.98 175.323 117.437 174.966 117.718 174.471C117.999 173.976 118.068 173.401 117.914 172.85L115.247 163.292C114.79 161.656 114.085 160.106 113.153 158.688L108.004 150.856C105.662 147.295 102.161 144.544 98.145 143.113L56.073 128.106L31.3886 138.261L79.0157 155.261L79.0959 155.473C80.5232 159.201 83.4535 162.226 87.1375 163.776L90.7323 165.29C92.4115 165.997 93.6537 167.408 94.1443 169.16L96.4881 177.561C96.8159 178.738 98.0402 179.429 99.2199 179.099L99.512 179.017C100.083 178.859 100.558 178.486 100.848 177.971C101.14 177.456 101.211 176.859 101.053 176.288L98.7114 167.896C98.2565 166.262 97.5518 164.712 96.6174 163.292L89.7511 152.851C89.6017 152.624 89.6641 152.321 89.8916 152.171C90.1191 152.022 90.4223 152.084 90.5717 152.312L97.4381 162.753C98.4282 164.258 99.173 165.898 99.657 167.631L101.999 176.023C102.228 176.845 102.123 177.708 101.702 178.451C101.283 179.193 100.598 179.73 99.7729 179.96L99.4808 180.042C99.1953 180.123 98.9054 180.161 98.6222 180.161H98.6267Z" fill="#353535"/>
<path d="M78.6164 156.066C78.4023 156.066 78.2038 155.924 78.1436 155.707L76.6004 150.178C76.5268 149.917 76.6807 149.645 76.9416 149.574C77.2025 149.5 77.4746 149.654 77.546 149.915L79.0892 155.444C79.1628 155.705 79.0089 155.977 78.748 156.049C78.7034 156.06 78.6588 156.066 78.6164 156.066Z" fill="#353535"/>
<path d="M62.4678 150.046L68.3149 131.949L73.2835 133.719L62.4678 150.046Z" fill="#353535"/>
<path d="M127.078 127.989L148.034 95.9154L103.643 60.2277C95.8266 51.8224 82.6671 51.3364 74.2509 59.1441L61.999 70.5102L127.076 127.989H127.078Z" fill="#282828"/>
<path d="M116.229 116.719L124.351 125.452C133.969 135.793 150.153 136.39 160.507 126.786L196.616 93.2872L171.082 65.833L116.229 116.719Z" fill="#282828"/>
<path d="M126.382 107.792C126.251 107.792 126.119 107.738 126.023 107.636C125.838 107.437 125.849 107.127 126.05 106.942L143.36 90.8855C143.558 90.7005 143.868 90.7116 144.053 90.9123C144.238 91.1107 144.227 91.4206 144.026 91.6057L126.717 107.663C126.623 107.75 126.503 107.794 126.382 107.794V107.792Z" fill="black"/>
<path d="M29.7379 129.441H110.619L99.4178 63.7198C99.4178 58.1282 94.8775 53.5934 89.2778 53.5934L43.2385 53.4307L29.7334 129.441H29.7379Z" fill="#282828"/>
<path d="M110.619 129.931C110.385 129.931 110.175 129.762 110.135 129.523L103.322 89.5483C103.287 89.3409 103.387 89.1358 103.57 89.0355C105.74 87.8472 107.089 85.5753 107.089 83.105C107.089 79.9079 104.817 77.1232 101.688 76.4856C101.494 76.4455 101.344 76.2961 101.304 76.1021L99.5781 67.5765C99.5246 67.3112 99.6963 67.0525 99.9617 66.999C100.227 66.9455 100.486 67.1172 100.539 67.3825L102.203 75.596C105.622 76.4477 108.07 79.5556 108.07 83.105C108.07 85.8161 106.652 88.3176 104.346 89.7199L111.101 129.358C111.145 129.626 110.967 129.88 110.699 129.925C110.673 129.929 110.644 129.931 110.617 129.931H110.619Z" fill="black"/>
<path d="M4.78027 102.598L38.3224 119.386L66.9361 62.3549L53.9661 55.8626C42.6041 50.1751 28.7778 54.7657 23.0822 66.1184L4.78027 102.598Z" fill="#282828"/>
<path d="M6.08277 100.088L3.97538 104.291C-4.14199 120.47 2.40765 140.161 18.6022 148.268L56.2052 167.089L73.0131 133.588L6.08277 100.088Z" fill="#282828"/>
<path d="M39.5896 117.348C39.516 117.348 39.4401 117.33 39.371 117.297C39.1279 117.174 39.0298 116.88 39.1525 116.637L51.2125 92.5985C51.3352 92.3555 51.6296 92.2574 51.8726 92.38C52.1157 92.5026 52.2138 92.7969 52.0912 93.0399L40.0311 117.078C39.9441 117.25 39.7724 117.348 39.5918 117.348H39.5896Z" fill="black"/>
<path d="M56.2054 167.58C56.1319 167.58 56.056 167.562 55.9869 167.529C55.7438 167.406 55.6457 167.112 55.7684 166.869L72.3554 133.807L30.2968 112.756C30.0537 112.636 29.9556 112.339 30.0782 112.098C30.1987 111.855 30.493 111.757 30.7361 111.88L73.2341 133.15C73.35 133.207 73.4392 133.31 73.4794 133.433C73.5195 133.555 73.5106 133.691 73.4526 133.807L56.6448 167.308C56.5578 167.479 56.3861 167.578 56.2054 167.578V167.58Z" fill="black"/>
<path d="M60.0781 53.514V44.0342H69.0139V67.3125L60.0781 53.514Z" fill="white"/>
<path d="M69.0146 67.8022C68.8518 67.8022 68.6934 67.7198 68.602 67.5771L59.664 53.7809C59.6127 53.7006 59.5859 53.6092 59.5859 53.5133V44.0335C59.5859 43.7615 59.8067 43.543 60.0765 43.543H69.0146C69.2866 43.543 69.5052 43.7637 69.5052 44.0335V67.3095C69.5052 67.528 69.3624 67.7198 69.1528 67.78C69.106 67.7933 69.0592 67.8 69.0146 67.8V67.8022ZM60.5672 53.3684L68.5217 65.6485V44.524H60.5672V53.3662V53.3684Z" fill="#353535"/>
<path d="M62.2127 44.1484H59.2178C59.3783 44.9466 61.178 47.2831 63.0468 48.8103C64.7795 50.2261 67.6407 50.9529 69.0054 50.9886C69.0077 50.9306 69.0144 45.5174 69.0144 45.5174L62.2127 44.1484Z" fill="#353535"/>
<path d="M62.9399 46.1065C68.0758 46.1065 72.2392 41.9481 72.2392 36.8184C72.2392 31.6887 68.0758 27.5303 62.9399 27.5303C57.8041 27.5303 53.6406 31.6887 53.6406 36.8184C53.6406 41.9481 57.8041 46.1065 62.9399 46.1065Z" fill="#505050"/>
<path d="M64.6956 47.0609C69.2575 47.0609 72.9557 43.3676 72.9557 38.8117C72.9557 34.2558 69.2575 30.5625 64.6956 30.5625C60.1337 30.5625 56.4355 34.2558 56.4355 38.8117C56.4355 43.3676 60.1337 47.0609 64.6956 47.0609Z" fill="white"/>
<path d="M64.695 47.5536C59.8692 47.5536 55.9443 43.6319 55.9443 38.8139C55.9443 33.9959 59.8692 30.0742 64.695 30.0742C69.5208 30.0742 73.4457 33.9959 73.4457 38.8139C73.4457 43.6319 69.5208 47.5536 64.695 47.5536ZM64.695 31.053C60.4111 31.053 56.9256 34.5332 56.9256 38.8117C56.9256 43.0901 60.4111 46.5704 64.695 46.5704C68.9789 46.5704 72.4645 43.0901 72.4645 38.8117C72.4645 34.5332 68.9789 31.053 64.695 31.053Z" fill="#353535"/>
<path d="M60.7236 40.6904C61.8788 45.0937 65.661 46.0234 69.4966 42.483L60.7236 40.6904Z" fill="#353535"/>
<path d="M47.1937 29.6792C55.4 29.6792 62.0525 23.0353 62.0525 14.8396C62.0525 6.64392 55.4 0 47.1937 0C38.9875 0 32.335 6.64392 32.335 14.8396C32.335 23.0353 38.9875 29.6792 47.1937 29.6792Z" fill="#505050"/>
<path d="M53.9065 30.7495C53.7548 30.7495 53.6054 30.6782 53.5095 30.5466C53.349 30.3282 53.398 30.0205 53.6188 29.8622L58.9798 25.9695C59.1984 25.8089 59.5061 25.858 59.6644 26.0787C59.8228 26.2972 59.776 26.6049 59.5552 26.7632L54.1942 30.6559C54.1072 30.7183 54.0068 30.7495 53.9065 30.7495Z" fill="#505050"/>
<path d="M407.388 204.866C407.388 209.071 407.063 213.198 406.438 217.231C403.332 237.357 392.748 255.017 377.615 267.288C363.802 278.487 346.198 285.202 327.029 285.202C299.414 285.202 275.051 271.277 260.587 250.065C256.579 244.195 253.335 237.767 250.991 230.92C248.188 222.749 246.669 213.99 246.669 204.869C246.669 176.975 260.89 152.402 282.472 138.001C295.226 129.489 310.549 124.528 327.029 124.528C350.696 124.528 371.975 134.757 386.682 151.037C399.552 165.277 407.386 184.157 407.386 204.866H407.388Z" fill="#2F2F2F"/>
<path d="M399.633 204.867C399.633 208.666 399.338 212.394 398.776 216.037C395.969 234.221 386.406 250.178 372.736 261.263C360.257 271.382 344.352 277.447 327.031 277.447C302.082 277.447 280.071 264.866 267.003 245.701C263.384 240.397 260.451 234.591 258.333 228.404C255.799 221.022 254.428 213.108 254.428 204.867C254.428 179.665 267.275 157.464 286.775 144.454C298.297 136.763 312.141 132.281 327.029 132.281C348.413 132.281 367.638 141.523 380.925 156.233C392.552 169.097 399.63 186.155 399.63 204.867H399.633Z" fill="black"/>
<path d="M327.028 277.937C302.832 277.937 280.24 265.989 266.594 245.977C262.912 240.581 259.975 234.722 257.866 228.562C255.259 220.961 253.937 212.989 253.937 204.867C253.937 180.387 266.11 157.65 286.502 144.046C298.513 136.028 312.526 131.79 327.031 131.79C347.672 131.79 367.45 140.579 381.292 155.902C393.437 169.339 400.125 186.73 400.125 204.867C400.125 208.623 399.835 212.407 399.262 216.112C396.499 234.004 387.188 250.175 373.045 261.643C360.087 272.151 343.745 277.939 327.031 277.939L327.028 277.937ZM327.028 132.771C312.72 132.771 298.894 136.951 287.046 144.862C266.929 158.286 254.918 180.717 254.918 204.867C254.918 212.879 256.222 220.745 258.796 228.245C260.879 234.323 263.775 240.102 267.408 245.426C280.871 265.17 303.16 276.958 327.031 276.958C343.52 276.958 359.641 271.248 372.425 260.883C386.379 249.568 395.564 233.616 398.29 215.965C398.854 212.309 399.141 208.577 399.141 204.869C399.141 186.975 392.543 169.821 380.561 156.564C366.904 141.446 347.393 132.775 327.028 132.775V132.771Z" fill="#353535"/>
<path d="M345.46 200.673L341.521 210.96L327.983 246.318L326.275 250.772L316.362 276.663C314.788 276.434 313.231 276.151 311.697 275.821C299.371 273.17 288.208 267.398 279.087 259.365L303.368 203.05L304.393 200.673H345.462H345.46Z" fill="#282828"/>
<path d="M368.295 267.692L366.912 268.639L365.96 272.124C365.569 273.649 364.017 274.567 362.494 274.179L362.347 274.144C360.822 273.754 359.903 272.202 360.287 270.679L360.574 269.544C360.222 270.779 359.076 271.578 357.829 271.537C357.729 271.537 357.626 271.533 357.523 271.522C357.428 271.513 357.327 271.491 357.231 271.466L356.924 271.388C356.846 271.37 356.767 271.346 356.694 271.319C356.616 271.292 356.538 271.259 356.464 271.228C348.2 274.9 339.119 277.073 329.568 277.399L326.967 256.392V256.379L326.272 250.776L325.859 247.443L325.817 247.109L320.808 206.668L320.065 200.675H355.909L358.46 214.473L361.629 231.636L361.656 231.788L361.803 232.588L364.234 245.749L365.594 253.111L367.119 261.364L367.137 261.451L367.777 264.934L367.782 264.956L368.29 267.694L368.295 267.692Z" fill="#282828"/>
<path d="M329.571 277.887C329.325 277.887 329.116 277.704 329.084 277.456L326.484 256.45C326.482 256.43 326.48 256.41 326.48 256.39L325.376 247.501C325.342 247.231 325.534 246.986 325.804 246.952C326.072 246.923 326.319 247.11 326.353 247.38L327.461 256.316C327.463 256.336 327.465 256.356 327.465 256.376L330.063 277.338C330.097 277.608 329.905 277.853 329.637 277.887C329.617 277.889 329.597 277.891 329.577 277.891L329.571 277.887Z" fill="#353535"/>
<path d="M368.293 268.182C368.061 268.182 367.854 268.017 367.811 267.781L355.43 200.762C355.381 200.494 355.557 200.24 355.825 200.189C356.092 200.14 356.347 200.316 356.398 200.583L368.779 267.603C368.828 267.87 368.652 268.124 368.387 268.175C368.355 268.18 368.326 268.184 368.297 268.184L368.293 268.182Z" fill="#353535"/>
<path d="M381.329 215.699L401.787 197.995L376.757 154.68L348.476 158.809L381.329 215.699Z" fill="white"/>
<path d="M381.328 216.19C381.302 216.19 381.275 216.19 381.246 216.183C381.101 216.158 380.976 216.071 380.902 215.944L348.049 159.056C347.969 158.916 347.962 158.744 348.034 158.597C348.105 158.45 348.243 158.35 348.404 158.325L376.683 154.196C376.882 154.169 377.078 154.263 377.178 154.437L402.208 197.752C402.326 197.954 402.282 198.215 402.103 198.369L381.645 216.071C381.556 216.15 381.442 216.192 381.324 216.192L381.328 216.19ZM349.263 159.192L381.455 214.939L401.158 197.89L376.496 155.215L349.26 159.192H349.263Z" fill="#353535"/>
<path d="M362.034 174.27L384.033 167.272L377.963 156.294L343.649 158.809L362.034 174.27Z" fill="#353535"/>
<path d="M400.705 196.612C400.536 196.612 400.371 196.525 400.279 196.367L376.331 154.925C376.195 154.691 376.275 154.39 376.509 154.254C376.743 154.118 377.044 154.198 377.181 154.432L401.129 195.874C401.265 196.108 401.185 196.409 400.951 196.545C400.873 196.59 400.788 196.612 400.705 196.612Z" fill="#353535"/>
<path d="M304.543 171.23L274.041 196.571C265.743 203.462 253.433 202.325 246.537 194.034L245.944 193.318C245.788 193.146 245.634 192.97 245.487 192.787L213.332 153.417L236.31 149.056L260.705 173.841L287.927 151.229L304.543 171.228V171.23Z" fill="white"/>
<path d="M261.576 201.561C255.825 201.561 250.116 199.104 246.16 194.349L245.565 193.631C245.418 193.47 245.259 193.285 245.105 193.096L212.95 153.727C212.841 153.593 212.81 153.41 212.87 153.248C212.93 153.085 213.071 152.967 213.24 152.933L236.219 148.572C236.379 148.541 236.544 148.593 236.66 148.711L260.738 173.175L287.614 150.851C287.715 150.769 287.844 150.726 287.974 150.74C288.103 150.751 288.223 150.815 288.306 150.913L304.922 170.914C305.096 171.124 305.067 171.432 304.857 171.605L274.355 196.946C270.624 200.045 266.086 201.557 261.576 201.557V201.561ZM214.235 153.745L245.868 192.476C246.011 192.652 246.156 192.821 246.307 192.986L246.916 193.72C253.626 201.789 265.653 202.899 273.728 196.195L303.854 171.169L287.864 151.923L261.019 174.221C260.823 174.383 260.535 174.37 260.354 174.187L236.143 149.589L214.233 153.747L214.235 153.745Z" fill="#353535"/>
<path d="M276.074 161.079L297.313 177.238L304.545 171.232L287.927 151.233L276.074 161.079Z" fill="#353535"/>
<path d="M229.127 144.441L210.333 120.666C209.26 119.308 209.49 117.34 210.848 116.265C212.206 115.19 214.175 115.422 215.25 116.78L234.045 140.555L229.127 144.439V144.441Z" fill="white"/>
<path d="M223.041 148.522C221.977 149.369 220.43 149.193 219.582 148.131L214.774 142.056L212.257 144.06L211.09 142.596C209.226 140.257 209.888 137.63 209.89 137.668C210.372 134.904 213.969 133.145 215.912 135.584L223.431 145.064C224.279 146.127 224.103 147.674 223.041 148.522Z" fill="white"/>
<path d="M216.622 148.272C215.558 149.12 214.01 148.944 213.163 147.882L210.946 145.084L208.428 147.089L207.262 145.624C205.398 143.285 206.06 140.659 206.062 140.697C206.544 137.932 210.141 136.173 212.083 138.612L217.014 144.815C217.862 145.878 217.685 147.425 216.624 148.272H216.622Z" fill="white"/>
<path d="M237.086 144.504C236.6 148.241 235.808 151.931 234.716 155.536L232.958 161.342L223.055 164.626L207.436 145.262L222.751 132.976L230.637 142.953L231.933 132.886C232.2 130.813 233.266 128.927 234.907 127.631L237.791 125.353C239.06 124.35 240.902 124.566 241.905 125.834L242.124 126.111C243.127 127.379 242.911 129.221 241.642 130.224L241.187 130.583C239.548 131.876 238.482 133.76 238.212 135.829L237.084 144.507L237.086 144.504Z" fill="white"/>
<path d="M228.398 147.391C227.334 148.238 225.787 148.062 224.939 147.001L218.624 139.017L216.106 141.021L214.94 139.556C213.076 137.218 213.738 134.591 213.74 134.629C214.222 131.865 217.819 130.106 219.761 132.545L228.791 143.933C229.638 144.996 229.462 146.544 228.4 147.391H228.398Z" fill="white"/>
<path d="M226.864 148.419C226.044 148.419 225.23 148.078 224.645 147.413L223.035 145.378C222.868 145.166 222.904 144.856 223.116 144.689C223.327 144.521 223.637 144.557 223.805 144.769L225.399 146.787C226.077 147.558 227.266 147.663 228.091 147.007C228.503 146.68 228.762 146.211 228.82 145.688C228.88 145.166 228.731 144.651 228.403 144.238L219.374 132.85C218.513 131.769 217.429 131.818 216.863 131.943C215.634 132.212 214.566 133.267 214.265 134.507C214.2 134.77 213.934 134.93 213.671 134.868C213.408 134.803 213.245 134.538 213.31 134.275C213.705 132.661 215.047 131.338 216.653 130.984C218 130.687 219.273 131.144 220.145 132.239L229.175 143.627C230.189 144.901 229.977 146.76 228.704 147.774C228.16 148.207 227.511 148.419 226.864 148.419Z" fill="#353535"/>
<path d="M221.515 149.55C221.403 149.55 221.29 149.543 221.178 149.529C220.395 149.44 219.693 149.052 219.2 148.435L216.919 145.552C216.751 145.34 216.787 145.03 216.999 144.863C217.211 144.694 217.521 144.732 217.688 144.943L219.967 147.824C220.643 148.671 221.885 148.812 222.735 148.136C223.147 147.808 223.406 147.34 223.464 146.816C223.524 146.292 223.375 145.779 223.047 145.367L215.527 135.887C214.664 134.806 213.583 134.855 213.014 134.98C211.785 135.252 210.717 136.306 210.416 137.548C210.353 137.811 210.088 137.976 209.823 137.909C209.56 137.845 209.397 137.579 209.461 137.316C209.854 135.7 211.196 134.376 212.802 134.021C214.151 133.725 215.425 134.182 216.297 135.276L223.816 144.756C224.307 145.371 224.53 146.143 224.441 146.928C224.351 147.71 223.963 148.413 223.346 148.905C222.817 149.327 222.177 149.55 221.513 149.55H221.515Z" fill="#353535"/>
<path d="M213.332 153.908C213.187 153.908 213.044 153.843 212.946 153.723C212.721 153.438 212.438 153.096 212.117 152.706C209.688 149.759 205.168 144.272 205.736 140.426C205.906 139.28 206.506 138.359 207.516 137.684C210.482 135.709 212.447 138.235 213.881 140.078C214.008 140.241 214.133 140.404 214.257 140.56C214.492 140.852 214.817 141.211 215.165 141.59C216.525 143.077 218.22 144.93 218.022 146.68C217.892 147.828 217.232 148.693 216.215 149.05C215.078 149.449 213.709 149.115 212.81 148.221C212.273 147.688 211.813 147.057 211.365 146.448C211.151 146.156 210.939 145.866 210.723 145.592C210.553 145.38 210.591 145.07 210.803 144.903C211.015 144.736 211.325 144.769 211.492 144.983C211.717 145.266 211.936 145.567 212.157 145.868C212.58 146.448 213.02 147.046 213.502 147.527C214.139 148.163 215.1 148.403 215.89 148.127C216.548 147.895 216.96 147.344 217.047 146.573C217.194 145.266 215.604 143.525 214.443 142.257C214.084 141.864 213.745 141.494 213.49 141.173C213.363 141.015 213.236 140.85 213.107 140.683C211.394 138.478 210.116 137.135 208.062 138.502C207.282 139.022 206.838 139.699 206.709 140.571C206.203 143.984 210.542 149.253 212.875 152.082C213.2 152.479 213.488 152.824 213.716 153.114C213.885 153.326 213.847 153.636 213.635 153.803C213.544 153.875 213.437 153.91 213.33 153.91L213.332 153.908Z" fill="#353535"/>
<path d="M236.31 149.55C236.276 149.55 236.24 149.545 236.205 149.538C235.939 149.481 235.772 149.22 235.828 148.954C236.756 144.667 237.237 140.852 237.3 137.294C237.3 137.272 237.302 137.249 237.304 137.229C237.639 135.027 238.892 133.145 240.103 131.326C240.687 130.449 241.289 129.542 241.769 128.626C242.25 127.77 242.237 126.905 241.738 126.236C241.133 125.426 239.971 125.101 238.698 125.38C234.572 127.154 232.4 130.924 231.863 137.238C231.845 137.439 231.707 137.608 231.515 137.666C231.323 137.724 231.114 137.657 230.989 137.501C230.627 137.044 230.014 136.289 229.225 135.316C225.902 131.228 219.723 123.625 215.82 117.917C215.715 117.813 215.606 117.699 215.49 117.578C214.738 116.798 213.806 115.828 212.618 115.802C211.567 116.109 210.356 116.805 209.964 117.692C209.768 118.136 209.792 118.586 210.037 119.07C211.679 122.307 213.998 124.96 216.239 127.524C217.595 129.076 218.998 130.681 220.229 132.391C220.387 132.612 220.336 132.918 220.117 133.076C219.896 133.234 219.591 133.183 219.433 132.964C218.231 131.292 216.844 129.705 215.501 128.169C213.22 125.558 210.86 122.858 209.163 119.511C208.789 118.771 208.755 118.004 209.067 117.295C209.632 116.013 211.17 115.184 212.421 114.836C212.47 114.823 212.522 114.818 212.569 114.818C214.199 114.818 215.354 116.02 216.199 116.896C216.322 117.023 216.435 117.144 216.547 117.251C216.569 117.273 216.589 117.298 216.607 117.322C220.485 123.001 226.667 130.608 229.99 134.694C230.375 135.169 230.721 135.593 231.013 135.956C231.763 130.006 234.171 126.238 238.357 124.454C238.384 124.443 238.413 124.434 238.439 124.428C240.116 124.046 241.682 124.512 242.527 125.645C243.258 126.624 243.299 127.912 242.634 129.092C242.139 130.039 241.521 130.969 240.924 131.867C239.726 133.669 238.593 135.37 238.283 137.343C238.216 140.957 237.728 144.823 236.791 149.159C236.742 149.389 236.537 149.547 236.312 149.547L236.31 149.55Z" fill="#353535"/>
<path d="M279.166 155.443C279.166 155.443 288.189 143.528 298.605 143.528H355.978C367.683 143.528 380.062 152.995 383.608 161.587L362.032 174.271L364.376 215.7L296.835 201.694L297.263 168.626L279.166 155.443Z" fill="black"/>
<path d="M364.376 216.189C364.343 216.189 364.31 216.187 364.276 216.178L296.735 202.175C296.505 202.128 296.34 201.923 296.344 201.689L296.768 168.873L278.877 155.839C278.77 155.761 278.698 155.645 278.68 155.513C278.66 155.384 278.696 155.25 278.774 155.146C279.149 154.651 288.067 143.037 298.606 143.037H355.978C368.065 143.037 380.48 152.715 384.063 161.399C384.157 161.625 384.07 161.885 383.858 162.01L362.541 174.542L364.867 215.672C364.876 215.824 364.814 215.973 364.698 216.071C364.608 216.149 364.492 216.189 364.376 216.189ZM297.332 201.296L363.85 215.088L361.542 174.297C361.531 174.114 361.625 173.938 361.783 173.847L382.986 161.382C379.311 153.103 367.162 144.018 355.976 144.018H298.604C289.612 144.018 281.533 153.308 279.867 155.346L297.549 168.226C297.678 168.32 297.752 168.469 297.752 168.63L297.33 201.294L297.332 201.296Z" fill="#353535"/>
<path d="M364.376 216.189C364.343 216.189 364.31 216.187 364.276 216.178L296.735 202.175C296.505 202.128 296.34 201.923 296.344 201.689L296.768 168.873L278.877 155.839C278.77 155.761 278.698 155.645 278.68 155.513C278.66 155.384 278.696 155.25 278.774 155.146C279.149 154.651 288.067 143.037 298.606 143.037H355.978C368.065 143.037 380.48 152.715 384.063 161.399C384.157 161.625 384.07 161.885 383.858 162.01L362.541 174.542L364.867 215.672C364.876 215.824 364.814 215.973 364.698 216.071C364.608 216.149 364.492 216.189 364.376 216.189ZM297.332 201.296L363.85 215.088L361.542 174.297C361.531 174.114 361.625 173.938 361.783 173.847L382.986 161.382C379.311 153.103 367.162 144.018 355.976 144.018H298.604C289.612 144.018 281.533 153.308 279.867 155.346L297.549 168.226C297.678 168.32 297.752 168.469 297.752 168.63L297.33 201.294L297.332 201.296Z" fill="#353535"/>
<path d="M361.809 232.166L376.69 247.438L401.751 212.633C404.603 208.673 404.777 203.383 402.195 199.242L390.425 180.381L361.809 232.163V232.166Z" fill="white"/>
<path d="M342.099 254.082L342.217 253.614L342.878 251.021L343.056 250.323L343.08 250.299C344.26 246.361 346.751 242.935 350.152 240.596L363.568 231.377L376.687 247.443L369.237 262.108L346.347 254.916L345.38 259.032L344.911 258.905C342.815 258.336 341.564 256.189 342.099 254.087V254.082Z" fill="white"/>
<path d="M369.239 262.597C369.19 262.597 369.141 262.59 369.092 262.574L346.203 255.382C345.944 255.302 345.799 255.025 345.882 254.767C345.964 254.508 346.241 254.365 346.497 254.446L368.989 261.513L376.105 247.505L363.189 231.687C363.017 231.477 363.048 231.167 363.258 230.996C363.468 230.824 363.778 230.855 363.949 231.065L377.069 247.131C377.191 247.282 377.214 247.49 377.127 247.663L369.676 262.327C369.591 262.496 369.42 262.597 369.239 262.597Z" fill="#353535"/>
<path d="M353.979 248.085L349.608 265.244C349.225 266.745 347.696 267.654 346.194 267.271L345.963 267.212C344.461 266.83 343.553 265.301 343.935 263.799L348.307 246.64L353.977 248.084L353.979 248.085Z" fill="white"/>
<path d="M359.223 251.206L354.621 269.268C354.236 270.778 352.696 271.693 351.186 271.308L350.989 271.258C349.478 270.873 348.565 269.336 348.95 267.826L353.552 249.764L359.222 251.208L359.223 251.206Z" fill="white"/>
<path d="M370.488 254.352L368.565 261.897L367.796 264.927H367.791L367.787 264.953L366.835 268.688L365.961 272.121C365.57 273.646 364.018 274.565 362.495 274.177L362.348 274.141C360.822 273.751 359.904 272.199 360.287 270.676L360.575 269.542V269.537L360.662 269.198L360.698 269.051L360.702 269.047L362.062 263.714L362.288 262.831L362.975 260.14L364.814 252.907L365.597 253.108L368.991 253.973L370.488 254.352Z" fill="white"/>
<path d="M376.669 247.576L376.556 248.029L373.369 260.742L373.135 261.671C372.595 263.783 371.308 265.622 369.513 266.853L368.296 267.691L366.913 268.639L366.835 268.69L364.948 269.985L365.914 266.164L367.105 261.44L367.123 261.361L368.991 253.973L370.653 247.38L370.969 246.125L376.625 247.563L376.672 247.576H376.669Z" fill="white"/>
<path d="M365.141 251.632L364.815 252.905L362.975 260.137L362.289 262.828L362.063 263.711L360.703 269.044L360.699 269.048C360.69 269.1 360.676 269.149 360.658 269.2C360.181 270.707 358.859 271.681 357.527 271.516C357.432 271.508 357.331 271.485 357.235 271.461L356.928 271.383C356.85 271.365 356.772 271.34 356.698 271.314C356.624 271.287 356.551 271.253 356.477 271.218C355.277 270.64 354.651 269.106 355.048 267.55L356.165 263.16L357.383 258.376L359.213 251.192L359.47 250.185L365.139 251.627L365.141 251.632Z" fill="white"/>
<path d="M351.874 271.873C351.604 271.873 351.33 271.84 351.056 271.771L350.859 271.722C350.001 271.503 349.281 270.964 348.828 270.201C348.375 269.441 348.248 268.549 348.467 267.691L350.231 260.768C350.297 260.505 350.563 260.347 350.828 260.414C351.091 260.481 351.25 260.748 351.183 261.011L349.419 267.934C349.265 268.538 349.356 269.165 349.673 269.7C349.992 270.235 350.498 270.616 351.103 270.77L351.299 270.819C352.545 271.138 353.819 270.382 354.135 269.133L355.687 263.04C355.754 262.777 356.022 262.619 356.285 262.686C356.548 262.752 356.707 263.02 356.64 263.283L355.088 269.376C354.706 270.875 353.355 271.873 351.874 271.873Z" fill="#353535"/>
<path d="M357.918 272.037C357.764 272.037 357.61 272.026 357.454 272.003C357.36 271.994 357.235 271.968 357.117 271.941L356.805 271.861C356.713 271.838 356.615 271.809 356.524 271.776C356.444 271.749 356.354 271.711 356.27 271.676C354.871 271.045 354.098 269.504 354.425 268.008C354.43 267.981 354.439 267.932 354.452 267.885L355.862 262.347C355.928 262.084 356.196 261.926 356.459 261.993C356.722 262.06 356.881 262.327 356.814 262.59L355.389 268.193C355.155 269.263 355.694 270.34 356.667 270.779C356.725 270.804 356.791 270.833 356.856 270.855C356.921 270.88 356.979 270.895 357.037 270.909L357.351 270.989C357.418 271.005 357.496 271.025 357.57 271.031C358.691 271.194 359.749 270.523 360.083 269.471V269.448L360.119 269.357L361.586 263.596C361.653 263.333 361.923 263.177 362.184 263.241C362.447 263.308 362.605 263.576 362.538 263.839L361.073 269.593C361.069 269.616 361.058 269.647 361.046 269.682C360.645 271.089 359.347 272.041 357.918 272.041V272.037Z" fill="#353535"/>
<path d="M376.081 248.763L389.548 228.111L368.193 221.681L354.039 243.149L376.081 248.763Z" fill="white"/>
<path d="M346.884 267.838C346.61 267.838 346.335 267.805 346.063 267.736L345.834 267.678C344.072 267.23 343.004 265.43 343.452 263.669L347.421 248.091C347.488 247.828 347.756 247.67 348.019 247.737C348.282 247.804 348.44 248.071 348.374 248.334L344.404 263.912C344.09 265.149 344.839 266.411 346.077 266.728L346.306 266.786C346.906 266.94 347.528 266.848 348.061 266.534C348.592 266.217 348.971 265.714 349.123 265.116L350.543 259.544C350.61 259.281 350.878 259.123 351.141 259.19C351.404 259.257 351.562 259.524 351.496 259.787L350.075 265.359C349.856 266.213 349.321 266.931 348.563 267.379C348.046 267.687 347.47 267.843 346.884 267.843V267.838Z" fill="#353535"/>
<path d="M363.204 274.758C362.928 274.758 362.647 274.723 362.372 274.654L362.227 274.618C360.443 274.163 359.36 272.342 359.81 270.556L361.81 262.708C361.877 262.445 362.145 262.286 362.408 262.353C362.671 262.42 362.829 262.688 362.763 262.951L360.762 270.796C360.443 272.056 361.21 273.345 362.468 273.666L362.613 273.702C363.226 273.858 363.86 273.766 364.402 273.445C364.944 273.124 365.327 272.611 365.483 272L366.485 268.335L369.234 266.449C370.931 265.285 372.147 263.544 372.66 261.548L372.878 260.681V260.251H372.99L376.134 247.826C376.201 247.563 376.471 247.404 376.729 247.471C376.993 247.538 377.151 247.806 377.084 248.067L373.61 261.789C373.039 264.017 371.683 265.958 369.789 267.256L367.336 268.939L366.431 272.25C366.212 273.106 365.668 273.833 364.901 274.288C364.379 274.598 363.795 274.756 363.202 274.756L363.204 274.758Z" fill="#353535"/>
<path d="M345.13 259.562C345.087 259.562 345.045 259.556 345.001 259.545C342.61 258.896 341.031 256.285 341.624 253.957L342.583 250.199C342.594 250.152 342.614 250.107 342.639 250.065C343.861 246.063 346.428 242.558 349.878 240.188L363.294 230.969C363.517 230.815 363.822 230.873 363.976 231.096C364.13 231.319 364.072 231.624 363.849 231.778L350.433 240.997C347.144 243.258 344.699 246.611 343.553 250.435C343.542 250.471 343.529 250.504 343.511 250.535L342.576 254.2C342.119 255.995 343.397 258.091 345.259 258.597C345.52 258.668 345.676 258.938 345.605 259.199C345.545 259.418 345.348 259.562 345.132 259.562H345.13Z" fill="#353535"/>
<path d="M376.69 247.931C376.59 247.931 376.491 247.902 376.404 247.84C376.184 247.681 376.135 247.374 376.293 247.155L400.605 213.392C403.812 208.939 404.108 202.993 401.363 198.242L389.368 177.485C389.232 177.251 389.312 176.95 389.546 176.814C389.78 176.678 390.081 176.759 390.217 176.993L402.213 197.749C405.15 202.833 404.831 209.198 401.401 213.962L377.089 247.726C376.993 247.86 376.844 247.929 376.69 247.929V247.931Z" fill="#353535"/>
<path d="M360.841 233.74C360.76 233.74 360.678 233.72 360.602 233.678C360.366 233.546 360.281 233.245 360.413 233.009L380.601 196.989C380.735 196.752 381.034 196.668 381.27 196.799C381.507 196.931 381.591 197.232 381.46 197.468L361.271 233.488C361.182 233.649 361.015 233.74 360.843 233.74H360.841Z" fill="#353535"/>
<path d="M331.029 129.417C336.705 128.049 340.197 122.339 338.828 116.664C337.459 110.989 331.747 107.498 326.071 108.866C320.395 110.235 316.903 115.945 318.272 121.62C319.641 127.295 325.352 130.786 331.029 129.417Z" fill="#505050"/>
<path d="M329.144 150.843C325.868 150.843 323.214 148.19 323.214 144.915V127.938H335.073V144.915C335.073 148.19 332.419 150.843 329.144 150.843Z" fill="white"/>
<path d="M329.143 151.333C325.602 151.333 322.723 148.453 322.723 144.914V127.937C322.723 127.665 322.943 127.446 323.213 127.446H335.073C335.345 127.446 335.563 127.667 335.563 127.937V144.914C335.563 148.455 332.682 151.333 329.143 151.333ZM323.704 128.427V144.914C323.704 147.913 326.144 150.352 329.143 150.352C332.142 150.352 334.582 147.913 334.582 144.914V128.427H323.704Z" fill="#353535"/>
<path d="M335.073 132.432V127.938H323.214V137.861C324.284 138.075 326.418 138.343 328.867 137.536C332.7 136.271 334.583 133.275 335.073 132.434V132.432Z" fill="#353535"/>
<path d="M320.244 116.66H334.828C336.229 118.493 337.074 120.858 337.074 123.445C337.074 129.266 332.803 133.983 327.536 133.983C322.269 133.983 317.998 129.264 317.998 123.445C317.998 120.858 318.845 118.493 320.244 116.66Z" fill="white"/>
<path d="M327.535 134.477C322.005 134.477 317.507 129.527 317.507 123.445C317.507 120.861 318.341 118.344 319.853 116.362C319.947 116.239 320.089 116.168 320.243 116.168H334.828C334.981 116.168 335.124 116.239 335.218 116.362C336.732 118.344 337.564 120.861 337.564 123.445C337.564 129.527 333.066 134.477 327.535 134.477ZM320.491 117.151C319.197 118.933 318.488 121.158 318.488 123.445C318.488 128.985 322.547 133.493 327.535 133.493C332.524 133.493 336.583 128.985 336.583 123.445C336.583 121.158 335.873 118.933 334.58 117.151H320.488H320.491Z" fill="#353535"/>
<path d="M331.449 128.466C330.548 129.333 329.377 129.933 328.041 130.102C325.064 130.482 322.323 128.611 321.512 125.817L331.449 128.466Z" fill="#353535"/>
<path d="M327.027 277.933C324.454 277.933 321.853 277.797 319.298 277.527C318.265 277.418 317.253 277.291 316.292 277.148C314.753 276.925 313.172 276.64 311.595 276.301C299.459 273.693 288.106 267.963 278.762 259.734C275.955 257.263 273.314 254.555 270.917 251.683C269.401 249.875 267.944 247.953 266.593 245.973C266.261 245.483 265.933 244.99 265.609 244.488C265.462 244.261 265.529 243.956 265.757 243.811C265.986 243.663 266.29 243.73 266.435 243.958C266.753 244.453 267.075 244.939 267.402 245.423C268.736 247.376 270.17 249.271 271.668 251.054C274.035 253.888 276.639 256.559 279.409 258.998C288.626 267.118 299.827 272.77 311.798 275.343C313.355 275.677 314.913 275.958 316.432 276.179C317.382 276.319 318.379 276.444 319.398 276.551C321.92 276.816 324.487 276.952 327.025 276.952C327.91 276.952 328.762 276.937 329.552 276.908C338.565 276.6 347.309 274.645 355.545 271.095C355.792 270.988 356.082 271.102 356.189 271.352C356.296 271.601 356.183 271.889 355.933 271.996C347.584 275.594 338.719 277.579 329.585 277.889C328.784 277.92 327.921 277.935 327.023 277.935L327.027 277.933Z" fill="#353535"/>
<path d="M273.102 361.98C290.177 344.91 290.177 317.233 273.102 300.162C256.028 283.092 228.344 283.092 211.27 300.162C194.195 317.233 194.195 344.91 211.27 361.98C228.344 379.051 256.028 379.051 273.102 361.98Z" fill="black"/>
<path d="M242.187 375.274C217.808 375.274 197.972 355.445 197.972 331.069C197.972 306.694 217.806 286.867 242.187 286.867C266.568 286.867 286.402 306.696 286.402 331.069C286.402 355.442 266.568 375.274 242.187 375.274ZM242.187 287.848C218.348 287.848 198.955 307.238 198.955 331.069C198.955 354.901 218.35 374.291 242.187 374.291C266.024 374.291 285.418 354.901 285.418 331.069C285.418 307.238 266.024 287.848 242.187 287.848Z" fill="#353535"/>
<path d="M242.186 334.022C229.654 334.022 218.193 338.611 209.394 346.2C215.118 358.581 227.646 367.173 242.186 367.173C256.726 367.173 269.257 358.581 274.979 346.2C266.179 338.613 254.719 334.022 242.186 334.022Z" fill="#282828"/>
<path d="M254.114 318.338C255.67 311.748 251.587 305.145 244.996 303.59C238.404 302.034 231.799 306.115 230.244 312.705C228.688 319.295 232.77 325.899 239.362 327.454C245.953 329.009 252.558 324.928 254.114 318.338Z" fill="#282828"/>
<path d="M331.264 407.51C347.811 407.51 361.225 394.1 361.225 377.557C361.225 361.014 347.811 347.604 331.264 347.604C314.718 347.604 301.304 361.014 301.304 377.557C301.304 394.1 314.718 407.51 331.264 407.51Z" fill="black"/>
<path d="M331.264 408C314.474 408 300.812 394.342 300.812 377.556C300.812 360.77 314.474 347.112 331.264 347.112C348.054 347.112 361.715 360.77 361.715 377.556C361.715 394.342 348.054 408 331.264 408ZM331.264 348.093C315.013 348.093 301.794 361.31 301.794 377.556C301.794 393.803 315.013 407.019 331.264 407.019C347.514 407.019 360.734 393.803 360.734 377.556C360.734 361.31 347.514 348.093 331.264 348.093Z" fill="#353535"/>
<path d="M331.265 379.578C322.677 379.578 314.825 382.722 308.795 387.921C312.718 396.404 321.303 402.292 331.265 402.292C341.226 402.292 349.814 396.404 353.735 387.921C347.705 382.722 339.853 379.578 331.265 379.578Z" fill="#282828"/>
<path d="M339.43 368.822C340.496 364.306 337.699 359.782 333.182 358.716C328.665 357.65 324.14 360.447 323.074 364.963C322.008 369.478 324.805 374.003 329.322 375.068C333.838 376.134 338.364 373.338 339.43 368.822Z" fill="#282828"/>
<path d="M307.452 75.113C324.527 58.0425 324.527 30.3657 307.452 13.2952C290.377 -3.77526 262.694 -3.77527 245.619 13.2952C228.545 30.3657 228.545 58.0425 245.619 75.113C262.694 92.1835 290.377 92.1835 307.452 75.113Z" fill="black"/>
<path d="M276.533 88.4067C252.155 88.4067 232.318 68.5774 232.318 44.2022C232.318 19.827 252.155 0 276.533 0C300.912 0 320.749 19.8292 320.749 44.2045C320.749 68.5797 300.915 88.4089 276.533 88.4089V88.4067ZM276.533 0.980984C252.694 0.980984 233.302 20.371 233.302 44.2022C233.302 68.0334 252.697 87.4235 276.533 87.4235C300.37 87.4235 319.765 68.0334 319.765 44.2022C319.765 20.371 300.373 0.980984 276.533 0.980984Z" fill="#353535"/>
<path d="M276.533 47.1533C264 47.1533 252.54 51.7416 243.74 59.3309C249.465 71.7114 261.993 80.3039 276.533 80.3039C291.073 80.3039 303.601 71.7114 309.326 59.3309C300.526 51.7439 289.066 47.1533 276.533 47.1533Z" fill="#282828"/>
<path d="M281.227 39.9981C287.484 37.4069 290.455 30.2351 287.864 23.9795C285.272 17.7239 278.098 14.7532 271.841 17.3444C265.584 19.9356 262.613 27.1073 265.205 33.363C267.796 39.6186 274.97 42.5892 281.227 39.9981Z" fill="#282828"/>
<path d="M400.642 330.044C409.796 320.891 409.796 306.052 400.642 296.9C391.487 287.747 376.644 287.747 367.489 296.9C358.334 306.052 358.334 320.891 367.489 330.044C376.644 339.196 391.487 339.196 400.642 330.044Z" fill="black"/>
<path d="M384.066 337.4C370.868 337.4 360.133 326.667 360.133 313.473C360.133 300.279 370.87 289.546 384.066 289.546C397.261 289.546 407.998 300.279 407.998 313.473C407.998 326.667 397.263 337.4 384.066 337.4ZM384.066 290.527C371.41 290.527 361.114 300.821 361.114 313.473C361.114 326.125 371.41 336.419 384.066 336.419C396.721 336.419 407.017 326.125 407.017 313.473C407.017 300.821 396.721 290.527 384.066 290.527Z" fill="#353535"/>
<path d="M384.066 315.055C377.347 315.055 371.201 317.516 366.484 321.583C369.553 328.222 376.272 332.828 384.066 332.828C391.86 332.828 398.579 328.222 401.648 321.583C396.929 317.514 390.785 315.055 384.066 315.055Z" fill="#282828"/>
<path d="M384.066 311.717C387.697 311.717 390.641 308.775 390.641 305.145C390.641 301.515 387.697 298.572 384.066 298.572C380.436 298.572 377.492 301.515 377.492 305.145C377.492 308.775 380.436 311.717 384.066 311.717Z" fill="#282828"/>
<path d="M73.2187 225.083C82.3735 215.93 82.3735 201.091 73.2187 191.939C64.0639 182.786 49.2211 182.786 40.0664 191.939C30.9116 201.091 30.9116 215.93 40.0664 225.083C49.2211 234.235 64.0639 234.235 73.2187 225.083Z" fill="black"/>
<path d="M56.6418 232.438C43.4444 232.438 32.709 221.705 32.709 208.511C32.709 195.317 43.4444 184.584 56.6418 184.584C69.8392 184.584 80.5747 195.317 80.5747 208.511C80.5747 221.705 69.8392 232.438 56.6418 232.438ZM56.6418 185.565C43.9863 185.565 33.6902 195.859 33.6902 208.511C33.6902 221.164 43.9863 231.457 56.6418 231.457C69.2973 231.457 79.5934 221.164 79.5934 208.511C79.5934 195.859 69.2973 185.565 56.6418 185.565Z" fill="#353535"/>
<path d="M56.6422 210.091C49.9231 210.091 43.7771 212.552 39.0605 216.619C42.1291 223.258 48.8482 227.864 56.6422 227.864C64.4362 227.864 71.1553 223.258 74.2239 216.619C69.5051 212.55 63.3613 210.091 56.6422 210.091Z" fill="white"/>
<path d="M56.6425 206.754C60.2733 206.754 63.2167 203.811 63.2167 200.181C63.2167 196.551 60.2733 193.608 56.6425 193.608C53.0117 193.608 50.0684 196.551 50.0684 200.181C50.0684 203.811 53.0117 206.754 56.6425 206.754Z" fill="white"/>
<path d="M400.185 95.2919C409.34 86.1393 409.34 71.3001 400.186 62.1475C391.031 52.995 376.188 52.995 367.033 62.1476C357.878 71.3001 357.878 86.1393 367.033 95.2919C376.188 104.444 391.031 104.444 400.185 95.2919Z" fill="black"/>
<path d="M383.61 102.651C370.412 102.651 359.677 91.9182 359.677 78.724C359.677 65.5297 370.412 54.7969 383.61 54.7969C396.807 54.7969 407.542 65.532 407.542 78.724C407.542 91.916 396.807 102.651 383.61 102.651ZM383.61 55.7779C370.954 55.7779 360.658 66.0715 360.658 78.724C360.658 91.3764 370.954 101.67 383.61 101.67C396.265 101.67 406.561 91.3764 406.561 78.724C406.561 66.0715 396.265 55.7779 383.61 55.7779Z" fill="#353535"/>
<path d="M383.609 80.3047C376.89 80.3047 370.744 82.7661 366.027 86.8327C369.096 93.4722 375.815 98.0783 383.609 98.0783C391.403 98.0783 398.122 93.4722 401.191 86.8327C396.472 82.7638 390.328 80.3047 383.609 80.3047Z" fill="#282828"/>
<path d="M385.002 76.8217C388.551 76.0528 390.804 72.5535 390.035 69.006C389.265 65.4584 385.765 63.2059 382.217 63.9749C378.669 64.7438 376.416 68.243 377.185 71.7906C377.954 75.3382 381.454 77.5907 385.002 76.8217Z" fill="#282828"/>
</g>
<defs>
<clipPath id="clip0_4138_111756">
<rect width="408" height="408" fill="white"/>
</clipPath>
</defs>
</svg>
