<svg width="21" height="21" viewBox="0 0 21 21" fill="none" xmlns="http://www.w3.org/2000/svg">
<g clip-path="url(#clip0_216_18736)">
<path opacity="0.2" d="M10.5 4.59375C3.9375 4.59375 1.3125 10.5 1.3125 10.5C1.3125 10.5 3.9375 16.4062 10.5 16.4062C17.0625 16.4062 19.6875 10.5 19.6875 10.5C19.6875 10.5 17.0625 4.59375 10.5 4.59375ZM10.5 13.7812C9.85103 13.7812 9.21663 13.5888 8.67704 13.2283C8.13744 12.8677 7.71687 12.3553 7.46852 11.7557C7.22017 11.1561 7.15519 10.4964 7.2818 9.85986C7.40841 9.22336 7.72091 8.6387 8.17981 8.17981C8.6387 7.72091 9.22336 7.40841 9.85986 7.2818C10.4964 7.15519 11.1561 7.22017 11.7557 7.46852C12.3553 7.71687 12.8677 8.13744 13.2283 8.67704C13.5888 9.21663 13.7812 9.85103 13.7812 10.5C13.7812 11.3702 13.4355 12.2048 12.8202 12.8202C12.2048 13.4355 11.3702 13.7812 10.5 13.7812Z" fill="currentColor"/>
<path d="M10.5 4.59375C3.9375 4.59375 1.3125 10.5 1.3125 10.5C1.3125 10.5 3.9375 16.4062 10.5 16.4062C17.0625 16.4062 19.6875 10.5 19.6875 10.5C19.6875 10.5 17.0625 4.59375 10.5 4.59375Z" stroke="currentColor" stroke-opacity="0.6" stroke-width="1.2" stroke-linecap="round" stroke-linejoin="round"/>
<path d="M10.5 13.7812C12.3122 13.7812 13.7812 12.3122 13.7812 10.5C13.7812 8.68782 12.3122 7.21875 10.5 7.21875C8.68782 7.21875 7.21875 8.68782 7.21875 10.5C7.21875 12.3122 8.68782 13.7812 10.5 13.7812Z" stroke="currentColor" stroke-opacity="0.6" stroke-width="1.2" stroke-linecap="round" stroke-linejoin="round"/>
</g>
<defs>
<clipPath id="clip0_216_18736">
<rect width="21" height="21" fill="currentColor"/>
</clipPath>
</defs>
</svg>
