<svg width="12" height="12" viewBox="0 0 12 12" fill="none" xmlns="http://www.w3.org/2000/svg">
<path d="M11.0976 4.19659L7.87094 3.91659L6.61094 0.949922C6.38427 0.409922 5.61094 0.409922 5.38427 0.949922L4.12427 3.92326L0.904274 4.19659C0.317607 4.24326 0.077607 4.97659 0.524274 5.36326L2.97094 7.48326L2.23761 10.6299C2.10427 11.2033 2.72427 11.6566 3.23094 11.3499L5.99761 9.68326L8.76427 11.3566C9.27094 11.6633 9.89094 11.2099 9.75761 10.6366L9.02427 7.48326L11.4709 5.36326C11.9176 4.97659 11.6843 4.24326 11.0976 4.19659ZM5.99761 8.43659L3.49094 9.94992L4.15761 7.09659L1.94427 5.17659L4.86427 4.92326L5.99761 2.23659L7.13761 4.92992L10.0576 5.18326L7.84427 7.10326L8.51094 9.95659L5.99761 8.43659Z" fill="currentColor"/>
</svg>
