<svg width="416" height="260" viewBox="0 0 416 260" fill="none" xmlns="http://www.w3.org/2000/svg">
<rect x="0.5" y="0.5" width="415" height="259" fill="#0D0D0D" stroke="#C4E3A7"/>
<rect x="111.57" y="146.5" width="192.864" height="39.3887" fill="#0D0D0D" stroke="#C4E3A7"/>
<path d="M187.173 169.256C185.805 169.256 185.037 168.56 184.837 167.592H185.773C185.941 168.192 186.413 168.528 187.173 168.528C188.053 168.528 188.453 168.136 188.453 167.624C188.453 166.224 184.997 167.144 184.997 165.048C184.997 164.048 185.821 163.416 187.029 163.416C188.253 163.416 189.061 164.144 189.253 165.04H188.317C188.157 164.536 187.797 164.144 187.029 164.144C186.293 164.144 185.909 164.528 185.909 164.984C185.909 166.304 189.365 165.392 189.365 167.56C189.365 168.6 188.589 169.256 187.173 169.256ZM191.362 169.136V164.264H189.49V163.536H194.122V164.264H192.25V169.136H191.362ZM197.999 169.136L197.407 167.56H195.071L194.479 169.136H193.543L195.719 163.536H196.759L198.935 169.136H197.999ZM195.335 166.856H197.143L196.239 164.456L195.335 166.856ZM199.548 169.136V163.536H201.812C203.092 163.536 203.852 164.08 203.852 165.088C203.852 165.776 203.388 166.288 202.9 166.368C203.364 166.424 203.708 166.672 203.708 167.304C203.708 168.552 203.78 168.896 204.028 169.136H203.06C202.876 168.872 202.82 168.608 202.82 167.472C202.82 166.96 202.484 166.808 201.996 166.808H200.436V169.136H199.548ZM200.436 166.096H201.78C202.436 166.096 202.924 165.864 202.924 165.184C202.924 164.552 202.492 164.248 201.78 164.248H200.436V166.096ZM206.088 169.136V164.264H204.216V163.536H208.848V164.264H206.976V169.136H206.088ZM213.32 166.096H215.896V169.136H215.064V168.416C214.704 168.904 214.16 169.256 213.36 169.256C211.8 169.256 210.768 168.048 210.768 166.352C210.768 164.64 211.832 163.416 213.464 163.416C214.76 163.416 215.568 164.12 215.84 165.04H214.896C214.68 164.544 214.232 164.176 213.464 164.176C212.36 164.176 211.712 165.032 211.712 166.352C211.712 167.672 212.4 168.496 213.52 168.496C214.384 168.496 214.824 168.12 215.064 167.648V166.808H213.32V166.096ZM220.795 169.136L220.203 167.56H217.867L217.275 169.136H216.339L218.515 163.536H219.555L221.731 169.136H220.795ZM218.131 166.856H219.939L219.035 164.456L218.131 166.856ZM222.345 169.136V163.536H223.705L225.153 168.216L226.609 163.536H227.961V169.136H227.081V164.68L225.641 169.136H224.665L223.225 164.68V169.136H222.345ZM229.158 169.136V163.536H233.022V164.256H230.046V165.92H232.822V166.64H230.046V168.416H233.062V169.136H229.158Z" fill="#C4E3A7"/>
<path d="M132.648 90.9268H130.855V92.7194H132.648V90.9268Z" fill="black"/>
<path d="M132.648 89.1338H130.855V90.9265H132.648V89.1338Z" fill="black"/>
<path d="M132.648 87.3418H130.855V89.1345H132.648V87.3418Z" fill="black"/>
<path d="M132.648 85.5479H130.855V87.3405H132.648V85.5479Z" fill="black"/>
<path d="M130.855 94.5127H129.062V96.3054H130.855V94.5127Z" fill="black"/>
<path d="M130.855 92.7188H129.062V94.5114H130.855V92.7188Z" fill="black"/>
<path d="M130.855 90.9268H129.062V92.7194H130.855V90.9268Z" fill="#C4E3A7"/>
<path d="M130.855 89.1338H129.062V90.9265H130.855V89.1338Z" fill="#C4E3A7"/>
<path d="M130.855 87.3418H129.062V89.1345H130.855V87.3418Z" fill="#C4E3A7"/>
<path d="M130.855 85.5479H129.062V87.3405H130.855V85.5479Z" fill="#C4E3A7"/>
<path d="M130.855 83.7559H129.062V85.5485H130.855V83.7559Z" fill="black"/>
<path d="M130.855 81.9629H129.062V83.7556H130.855V81.9629Z" fill="black"/>
<path d="M129.066 96.3047H127.273V98.0974H129.066V96.3047Z" fill="black"/>
<path d="M129.066 94.5127H127.273V96.3054H129.066V94.5127Z" fill="#C4E3A7"/>
<path d="M129.066 92.7188H127.273V94.5114H129.066V92.7188Z" fill="#C4E3A7"/>
<path d="M129.066 90.9268H127.273V92.7194H129.066V90.9268Z" fill="#C4E3A7"/>
<path d="M129.066 89.1338H127.273V90.9265H129.066V89.1338Z" fill="#C4E3A7"/>
<path d="M129.066 87.3418H127.273V89.1345H129.066V87.3418Z" fill="#C4E3A7"/>
<path d="M129.066 85.5479H127.273V87.3405H129.066V85.5479Z" fill="#C4E3A7"/>
<path d="M129.066 83.7559H127.273V85.5485H129.066V83.7559Z" fill="#C4E3A7"/>
<path d="M129.066 81.9629H127.273V83.7556H129.066V81.9629Z" fill="#C4E3A7"/>
<path d="M129.066 80.1709H127.273V81.9636H129.066V80.1709Z" fill="black"/>
<path d="M127.269 98.0967H125.477V99.8894H127.269V98.0967Z" fill="black"/>
<path d="M127.269 96.3047H125.477V98.0974H127.269V96.3047Z" fill="#C4E3A7"/>
<path d="M127.269 94.5127H125.477V96.3054H127.269V94.5127Z" fill="#C4E3A7"/>
<path d="M127.269 92.7188H125.477V94.5114H127.269V92.7188Z" fill="#C4E3A7"/>
<path d="M127.269 90.9268H125.477V92.7194H127.269V90.9268Z" fill="#C4E3A7"/>
<path d="M127.269 89.1338H125.477V90.9265H127.269V89.1338Z" fill="black"/>
<path d="M127.269 87.3418H125.477V89.1345H127.269V87.3418Z" fill="black"/>
<path d="M127.269 85.5479H125.477V87.3405H127.269V85.5479Z" fill="#C4E3A7"/>
<path d="M127.269 83.7559H125.477V85.5485H127.269V83.7559Z" fill="#C4E3A7"/>
<path d="M127.269 81.9629H125.477V83.7556H127.269V81.9629Z" fill="#C4E3A7"/>
<path d="M127.269 80.1709H125.477V81.9636H127.269V80.1709Z" fill="#C4E3A7"/>
<path d="M127.269 78.3779H125.477V80.1706H127.269V78.3779Z" fill="black"/>
<path d="M125.472 99.8896H123.68V101.682H125.472V99.8896Z" fill="black"/>
<path d="M125.472 98.0967H123.68V99.8894H125.472V98.0967Z" fill="#C4E3A7"/>
<path d="M125.472 96.3047H123.68V98.0974H125.472V96.3047Z" fill="#C4E3A7"/>
<path d="M125.472 94.5127H123.68V96.3054H125.472V94.5127Z" fill="#C4E3A7"/>
<path d="M125.472 92.7188H123.68V94.5114H125.472V92.7188Z" fill="#C4E3A7"/>
<path d="M125.472 90.9268H123.68V92.7194H125.472V90.9268Z" fill="black"/>
<path d="M125.472 89.1338H123.68V90.9265H125.472V89.1338Z" fill="black"/>
<path d="M125.472 87.3418H123.68V89.1345H125.472V87.3418Z" fill="black"/>
<path d="M125.472 85.5479H123.68V87.3405H125.472V85.5479Z" fill="black"/>
<path d="M125.472 83.7559H123.68V85.5485H125.472V83.7559Z" fill="#C4E3A7"/>
<path d="M125.472 81.9629H123.68V83.7556H125.472V81.9629Z" fill="#C4E3A7"/>
<path d="M125.472 80.1709H123.68V81.9636H125.472V80.1709Z" fill="#C4E3A7"/>
<path d="M125.472 78.3779H123.68V80.1706H125.472V78.3779Z" fill="#C4E3A7"/>
<path d="M125.472 76.5859H123.68V78.3786H125.472V76.5859Z" fill="black"/>
<path d="M123.683 101.683H121.891V103.475H123.683V101.683Z" fill="black"/>
<path d="M123.683 99.8896H121.891V101.682H123.683V99.8896Z" fill="#C4E3A7"/>
<path d="M123.683 98.0967H121.891V99.8894H123.683V98.0967Z" fill="#C4E3A7"/>
<path d="M123.683 96.3047H121.891V98.0974H123.683V96.3047Z" fill="#C4E3A7"/>
<path d="M123.683 94.5127H121.891V96.3054H123.683V94.5127Z" fill="#C4E3A7"/>
<path d="M123.683 92.7188H121.891V94.5114H123.683V92.7188Z" fill="black"/>
<path d="M123.683 90.9268H121.891V92.7194H123.683V90.9268Z" fill="black"/>
<path d="M123.683 89.1338H121.891V90.9265H123.683V89.1338Z" fill="black"/>
<path d="M123.683 87.3418H121.891V89.1345H123.683V87.3418Z" fill="black"/>
<path d="M123.683 85.5479H121.891V87.3405H123.683V85.5479Z" fill="black"/>
<path d="M123.683 83.7559H121.891V85.5485H123.683V83.7559Z" fill="#C4E3A7"/>
<path d="M123.683 81.9629H121.891V83.7556H123.683V81.9629Z" fill="#C4E3A7"/>
<path d="M123.683 80.1709H121.891V81.9636H123.683V80.1709Z" fill="#C4E3A7"/>
<path d="M123.683 78.3779H121.891V80.1706H123.683V78.3779Z" fill="#C4E3A7"/>
<path d="M123.683 76.5859H121.891V78.3786H123.683V76.5859Z" fill="#C4E3A7"/>
<path d="M123.683 74.793H121.891V76.5857H123.683V74.793Z" fill="black"/>
<path d="M121.89 103.477H120.098V105.269H121.89V103.477Z" fill="black"/>
<path d="M121.89 101.683H120.098V103.475H121.89V101.683Z" fill="#C4E3A7"/>
<path d="M121.89 99.8896H120.098V101.682H121.89V99.8896Z" fill="#C4E3A7"/>
<path d="M121.89 98.0967H120.098V99.8894H121.89V98.0967Z" fill="#C4E3A7"/>
<path d="M121.89 96.3047H120.098V98.0974H121.89V96.3047Z" fill="#C4E3A7"/>
<path d="M121.89 94.5127H120.098V96.3054H121.89V94.5127Z" fill="#C4E3A7"/>
<path d="M121.89 92.7188H120.098V94.5114H121.89V92.7188Z" fill="black"/>
<path d="M121.89 90.9268H120.098V92.7194H121.89V90.9268Z" fill="black"/>
<path d="M121.89 89.1338H120.098V90.9265H121.89V89.1338Z" fill="black"/>
<path d="M121.89 87.3418H120.098V89.1345H121.89V87.3418Z" fill="black"/>
<path d="M121.89 85.5479H120.098V87.3405H121.89V85.5479Z" fill="black"/>
<path d="M121.89 83.7559H120.098V85.5485H121.89V83.7559Z" fill="#C4E3A7"/>
<path d="M121.89 81.9629H120.098V83.7556H121.89V81.9629Z" fill="#C4E3A7"/>
<path d="M121.89 80.1709H120.098V81.9636H121.89V80.1709Z" fill="#C4E3A7"/>
<path d="M121.89 78.3779H120.098V80.1706H121.89V78.3779Z" fill="#C4E3A7"/>
<path d="M121.89 76.5859H120.098V78.3786H121.89V76.5859Z" fill="#C4E3A7"/>
<path d="M121.89 74.793H120.098V76.5857H121.89V74.793Z" fill="black"/>
<path d="M120.097 105.269H118.305V107.061H120.097V105.269Z" fill="black"/>
<path d="M120.097 103.477H118.305V105.269H120.097V103.477Z" fill="#C4E3A7"/>
<path d="M120.097 101.683H118.305V103.475H120.097V101.683Z" fill="#C4E3A7"/>
<path d="M120.097 99.8896H118.305V101.682H120.097V99.8896Z" fill="#C4E3A7"/>
<path d="M120.097 98.0967H118.305V99.8894H120.097V98.0967Z" fill="#C4E3A7"/>
<path d="M120.097 96.3047H118.305V98.0974H120.097V96.3047Z" fill="#C4E3A7"/>
<path d="M120.097 94.5127H118.305V96.3054H120.097V94.5127Z" fill="#C4E3A7"/>
<path d="M120.097 92.7188H118.305V94.5114H120.097V92.7188Z" fill="black"/>
<path d="M120.097 90.9268H118.305V92.7194H120.097V90.9268Z" fill="black"/>
<path d="M120.097 89.1338H118.305V90.9265H120.097V89.1338Z" fill="black"/>
<path d="M120.097 87.3418H118.305V89.1345H120.097V87.3418Z" fill="black"/>
<path d="M120.097 85.5479H118.305V87.3405H120.097V85.5479Z" fill="#C4E3A7"/>
<path d="M120.097 83.7559H118.305V85.5485H120.097V83.7559Z" fill="#C4E3A7"/>
<path d="M120.097 81.9629H118.305V83.7556H120.097V81.9629Z" fill="#C4E3A7"/>
<path d="M120.097 80.1709H118.305V81.9636H120.097V80.1709Z" fill="#C4E3A7"/>
<path d="M120.097 78.3779H118.305V80.1706H120.097V78.3779Z" fill="#C4E3A7"/>
<path d="M120.097 76.5859H118.305V78.3786H120.097V76.5859Z" fill="#C4E3A7"/>
<path d="M120.097 74.793H118.305V76.5857H120.097V74.793Z" fill="#C4E3A7"/>
<path d="M120.097 73H118.305V74.7927H120.097V73Z" fill="black"/>
<path d="M118.304 107.061H116.512V108.853H118.304V107.061Z" fill="black"/>
<path d="M118.304 105.269H116.512V107.061H118.304V105.269Z" fill="#C4E3A7"/>
<path d="M118.304 103.477H116.512V105.269H118.304V103.477Z" fill="#C4E3A7"/>
<path d="M118.304 101.683H116.512V103.475H118.304V101.683Z" fill="#C4E3A7"/>
<path d="M118.304 99.8896H116.512V101.682H118.304V99.8896Z" fill="black"/>
<path d="M118.304 98.0967H116.512V99.8894H118.304V98.0967Z" fill="black"/>
<path d="M118.304 96.3047H116.512V98.0974H118.304V96.3047Z" fill="#C4E3A7"/>
<path d="M118.304 94.5127H116.512V96.3054H118.304V94.5127Z" fill="#C4E3A7"/>
<path d="M118.304 92.7188H116.512V94.5114H118.304V92.7188Z" fill="#C4E3A7"/>
<path d="M118.304 90.9268H116.512V92.7194H118.304V90.9268Z" fill="black"/>
<path d="M118.304 89.1338H116.512V90.9265H118.304V89.1338Z" fill="black"/>
<path d="M118.304 87.3418H116.512V89.1345H118.304V87.3418Z" fill="#C4E3A7"/>
<path d="M118.304 85.5479H116.512V87.3405H118.304V85.5479Z" fill="#C4E3A7"/>
<path d="M118.304 83.7559H116.512V85.5485H118.304V83.7559Z" fill="#C4E3A7"/>
<path d="M118.304 81.9629H116.512V83.7556H118.304V81.9629Z" fill="#C4E3A7"/>
<path d="M118.304 80.1709H116.512V81.9636H118.304V80.1709Z" fill="#C4E3A7"/>
<path d="M118.304 78.3779H116.512V80.1706H118.304V78.3779Z" fill="#C4E3A7"/>
<path d="M118.304 76.5859H116.512V78.3786H118.304V76.5859Z" fill="#C4E3A7"/>
<path d="M118.304 74.793H116.512V76.5857H118.304V74.793Z" fill="#C4E3A7"/>
<path d="M118.304 73H116.512V74.7927H118.304V73Z" fill="black"/>
<path d="M116.515 108.854H114.723V110.646H116.515V108.854Z" fill="black"/>
<path d="M116.515 107.061H114.723V108.853H116.515V107.061Z" fill="#C4E3A7"/>
<path d="M116.515 105.269H114.723V107.061H116.515V105.269Z" fill="#C4E3A7"/>
<path d="M116.515 103.477H114.723V105.269H116.515V103.477Z" fill="#C4E3A7"/>
<path d="M116.515 101.683H114.723V103.475H116.515V101.683Z" fill="black"/>
<path d="M116.515 99.8896H114.723V101.682H116.515V99.8896Z" fill="black"/>
<path d="M116.515 98.0967H114.723V99.8894H116.515V98.0967Z" fill="#C4E3A7"/>
<path d="M116.515 96.3047H114.723V98.0974H116.515V96.3047Z" fill="#C4E3A7"/>
<path d="M116.515 94.5127H114.723V96.3054H116.515V94.5127Z" fill="#C4E3A7"/>
<path d="M116.515 92.7188H114.723V94.5114H116.515V92.7188Z" fill="#C4E3A7"/>
<path d="M116.515 90.9268H114.723V92.7194H116.515V90.9268Z" fill="#C4E3A7"/>
<path d="M116.515 89.1338H114.723V90.9265H116.515V89.1338Z" fill="#C4E3A7"/>
<path d="M116.515 87.3418H114.723V89.1345H116.515V87.3418Z" fill="#C4E3A7"/>
<path d="M116.515 85.5479H114.723V87.3405H116.515V85.5479Z" fill="#C4E3A7"/>
<path d="M116.515 83.7559H114.723V85.5485H116.515V83.7559Z" fill="#C4E3A7"/>
<path d="M116.515 81.9629H114.723V83.7556H116.515V81.9629Z" fill="#C4E3A7"/>
<path d="M116.515 80.1709H114.723V81.9636H116.515V80.1709Z" fill="#C4E3A7"/>
<path d="M116.515 78.3779H114.723V80.1706H116.515V78.3779Z" fill="#C4E3A7"/>
<path d="M116.515 76.5859H114.723V78.3786H116.515V76.5859Z" fill="#C4E3A7"/>
<path d="M116.515 74.793H114.723V76.5857H116.515V74.793Z" fill="#C4E3A7"/>
<path d="M116.515 73H114.723V74.7927H116.515V73Z" fill="black"/>
<path d="M114.718 108.854H112.926V110.646H114.718V108.854Z" fill="black"/>
<path d="M114.718 107.061H112.926V108.853H114.718V107.061Z" fill="#C4E3A7"/>
<path d="M114.718 105.269H112.926V107.061H114.718V105.269Z" fill="#C4E3A7"/>
<path d="M114.718 103.477H112.926V105.269H114.718V103.477Z" fill="#C4E3A7"/>
<path d="M114.718 101.683H112.926V103.475H114.718V101.683Z" fill="black"/>
<path d="M114.718 99.8896H112.926V101.682H114.718V99.8896Z" fill="black"/>
<path d="M114.718 98.0967H112.926V99.8894H114.718V98.0967Z" fill="#C4E3A7"/>
<path d="M114.718 96.3047H112.926V98.0974H114.718V96.3047Z" fill="#C4E3A7"/>
<path d="M114.718 94.5127H112.926V96.3054H114.718V94.5127Z" fill="#C4E3A7"/>
<path d="M114.718 92.7188H112.926V94.5114H114.718V92.7188Z" fill="#C4E3A7"/>
<path d="M114.718 90.9268H112.926V92.7194H114.718V90.9268Z" fill="#C4E3A7"/>
<path d="M114.718 89.1338H112.926V90.9265H114.718V89.1338Z" fill="#C4E3A7"/>
<path d="M114.718 87.3418H112.926V89.1345H114.718V87.3418Z" fill="#C4E3A7"/>
<path d="M114.718 85.5479H112.926V87.3405H114.718V85.5479Z" fill="#C4E3A7"/>
<path d="M114.718 83.7559H112.926V85.5485H114.718V83.7559Z" fill="#C4E3A7"/>
<path d="M114.718 81.9629H112.926V83.7556H114.718V81.9629Z" fill="#C4E3A7"/>
<path d="M114.718 80.1709H112.926V81.9636H114.718V80.1709Z" fill="#C4E3A7"/>
<path d="M114.718 78.3779H112.926V80.1706H114.718V78.3779Z" fill="#C4E3A7"/>
<path d="M114.718 76.5859H112.926V78.3786H114.718V76.5859Z" fill="#C4E3A7"/>
<path d="M114.718 74.793H112.926V76.5857H114.718V74.793Z" fill="#C4E3A7"/>
<path d="M114.718 73H112.926V74.7927H114.718V73Z" fill="black"/>
<path d="M112.929 108.854H111.137V110.646H112.929V108.854Z" fill="black"/>
<path d="M112.929 107.061H111.137V108.853H112.929V107.061Z" fill="#C4E3A7"/>
<path d="M112.929 105.269H111.137V107.061H112.929V105.269Z" fill="#C4E3A7"/>
<path d="M112.929 103.477H111.137V105.269H112.929V103.477Z" fill="#C4E3A7"/>
<path d="M112.929 101.683H111.137V103.475H112.929V101.683Z" fill="black"/>
<path d="M112.929 99.8896H111.137V101.682H112.929V99.8896Z" fill="black"/>
<path d="M112.929 98.0967H111.137V99.8894H112.929V98.0967Z" fill="#C4E3A7"/>
<path d="M112.929 96.3047H111.137V98.0974H112.929V96.3047Z" fill="#C4E3A7"/>
<path d="M112.929 94.5127H111.137V96.3054H112.929V94.5127Z" fill="#C4E3A7"/>
<path d="M112.929 92.7188H111.137V94.5114H112.929V92.7188Z" fill="#C4E3A7"/>
<path d="M112.929 90.9268H111.137V92.7194H112.929V90.9268Z" fill="#C4E3A7"/>
<path d="M112.929 89.1338H111.137V90.9265H112.929V89.1338Z" fill="#C4E3A7"/>
<path d="M112.929 87.3418H111.137V89.1345H112.929V87.3418Z" fill="#C4E3A7"/>
<path d="M112.929 85.5479H111.137V87.3405H112.929V85.5479Z" fill="#C4E3A7"/>
<path d="M112.929 83.7559H111.137V85.5485H112.929V83.7559Z" fill="#C4E3A7"/>
<path d="M112.929 81.9629H111.137V83.7556H112.929V81.9629Z" fill="#C4E3A7"/>
<path d="M112.929 80.1709H111.137V81.9636H112.929V80.1709Z" fill="#C4E3A7"/>
<path d="M112.929 78.3779H111.137V80.1706H112.929V78.3779Z" fill="#C4E3A7"/>
<path d="M112.929 76.5859H111.137V78.3786H112.929V76.5859Z" fill="#C4E3A7"/>
<path d="M112.929 74.793H111.137V76.5857H112.929V74.793Z" fill="#C4E3A7"/>
<path d="M112.929 73H111.137V74.7927H112.929V73Z" fill="black"/>
<path d="M111.133 107.061H109.34V108.853H111.133V107.061Z" fill="black"/>
<path d="M111.133 105.269H109.34V107.061H111.133V105.269Z" fill="#C4E3A7"/>
<path d="M111.133 103.477H109.34V105.269H111.133V103.477Z" fill="#C4E3A7"/>
<path d="M111.133 101.683H109.34V103.475H111.133V101.683Z" fill="#C4E3A7"/>
<path d="M111.133 99.8896H109.34V101.682H111.133V99.8896Z" fill="black"/>
<path d="M111.133 98.0967H109.34V99.8894H111.133V98.0967Z" fill="black"/>
<path d="M111.133 96.3047H109.34V98.0974H111.133V96.3047Z" fill="#C4E3A7"/>
<path d="M111.133 94.5127H109.34V96.3054H111.133V94.5127Z" fill="#C4E3A7"/>
<path d="M111.133 92.7188H109.34V94.5114H111.133V92.7188Z" fill="#C4E3A7"/>
<path d="M111.133 90.9268H109.34V92.7194H111.133V90.9268Z" fill="black"/>
<path d="M111.133 89.1338H109.34V90.9265H111.133V89.1338Z" fill="black"/>
<path d="M111.133 87.3418H109.34V89.1345H111.133V87.3418Z" fill="#C4E3A7"/>
<path d="M111.133 85.5479H109.34V87.3405H111.133V85.5479Z" fill="#C4E3A7"/>
<path d="M111.133 83.7559H109.34V85.5485H111.133V83.7559Z" fill="#C4E3A7"/>
<path d="M111.133 81.9629H109.34V83.7556H111.133V81.9629Z" fill="#C4E3A7"/>
<path d="M111.133 80.1709H109.34V81.9636H111.133V80.1709Z" fill="#C4E3A7"/>
<path d="M111.133 78.3779H109.34V80.1706H111.133V78.3779Z" fill="#C4E3A7"/>
<path d="M111.133 76.5859H109.34V78.3786H111.133V76.5859Z" fill="#C4E3A7"/>
<path d="M111.133 74.793H109.34V76.5857H111.133V74.793Z" fill="#C4E3A7"/>
<path d="M111.133 73H109.34V74.7927H111.133V73Z" fill="black"/>
<path d="M109.343 105.269H107.551V107.061H109.343V105.269Z" fill="black"/>
<path d="M109.343 103.477H107.551V105.269H109.343V103.477Z" fill="#C4E3A7"/>
<path d="M109.343 101.683H107.551V103.475H109.343V101.683Z" fill="#C4E3A7"/>
<path d="M109.343 99.8896H107.551V101.682H109.343V99.8896Z" fill="#C4E3A7"/>
<path d="M109.343 98.0967H107.551V99.8894H109.343V98.0967Z" fill="#C4E3A7"/>
<path d="M109.343 96.3047H107.551V98.0974H109.343V96.3047Z" fill="#C4E3A7"/>
<path d="M109.343 94.5127H107.551V96.3054H109.343V94.5127Z" fill="#C4E3A7"/>
<path d="M109.343 92.7188H107.551V94.5114H109.343V92.7188Z" fill="black"/>
<path d="M109.343 90.9268H107.551V92.7194H109.343V90.9268Z" fill="black"/>
<path d="M109.343 89.1338H107.551V90.9265H109.343V89.1338Z" fill="black"/>
<path d="M109.343 87.3418H107.551V89.1345H109.343V87.3418Z" fill="black"/>
<path d="M109.343 85.5479H107.551V87.3405H109.343V85.5479Z" fill="#C4E3A7"/>
<path d="M109.343 83.7559H107.551V85.5485H109.343V83.7559Z" fill="#C4E3A7"/>
<path d="M109.343 81.9629H107.551V83.7556H109.343V81.9629Z" fill="#C4E3A7"/>
<path d="M109.343 80.1709H107.551V81.9636H109.343V80.1709Z" fill="#C4E3A7"/>
<path d="M109.343 78.3779H107.551V80.1706H109.343V78.3779Z" fill="#C4E3A7"/>
<path d="M109.343 76.5859H107.551V78.3786H109.343V76.5859Z" fill="#C4E3A7"/>
<path d="M109.343 74.793H107.551V76.5857H109.343V74.793Z" fill="#C4E3A7"/>
<path d="M109.343 73H107.551V74.7927H109.343V73Z" fill="black"/>
<path d="M107.551 103.477H105.758V105.269H107.551V103.477Z" fill="black"/>
<path d="M107.551 101.683H105.758V103.475H107.551V101.683Z" fill="#C4E3A7"/>
<path d="M107.551 99.8896H105.758V101.682H107.551V99.8896Z" fill="#C4E3A7"/>
<path d="M107.551 98.0967H105.758V99.8894H107.551V98.0967Z" fill="#C4E3A7"/>
<path d="M107.551 96.3047H105.758V98.0974H107.551V96.3047Z" fill="#C4E3A7"/>
<path d="M107.551 94.5127H105.758V96.3054H107.551V94.5127Z" fill="#C4E3A7"/>
<path d="M107.551 92.7188H105.758V94.5114H107.551V92.7188Z" fill="black"/>
<path d="M107.551 90.9268H105.758V92.7194H107.551V90.9268Z" fill="black"/>
<path d="M107.551 89.1338H105.758V90.9265H107.551V89.1338Z" fill="black"/>
<path d="M107.551 87.3418H105.758V89.1345H107.551V87.3418Z" fill="black"/>
<path d="M107.551 85.5479H105.758V87.3405H107.551V85.5479Z" fill="black"/>
<path d="M107.551 83.7559H105.758V85.5485H107.551V83.7559Z" fill="#C4E3A7"/>
<path d="M107.551 81.9629H105.758V83.7556H107.551V81.9629Z" fill="#C4E3A7"/>
<path d="M107.551 80.1709H105.758V81.9636H107.551V80.1709Z" fill="#C4E3A7"/>
<path d="M107.551 78.3779H105.758V80.1706H107.551V78.3779Z" fill="#C4E3A7"/>
<path d="M107.551 76.5859H105.758V78.3786H107.551V76.5859Z" fill="#C4E3A7"/>
<path d="M107.551 74.793H105.758V76.5857H107.551V74.793Z" fill="black"/>
<path d="M105.758 101.683H103.965V103.475H105.758V101.683Z" fill="black"/>
<path d="M105.758 99.8896H103.965V101.682H105.758V99.8896Z" fill="#C4E3A7"/>
<path d="M105.758 98.0967H103.965V99.8894H105.758V98.0967Z" fill="#C4E3A7"/>
<path d="M105.758 96.3047H103.965V98.0974H105.758V96.3047Z" fill="#C4E3A7"/>
<path d="M105.758 94.5127H103.965V96.3054H105.758V94.5127Z" fill="#C4E3A7"/>
<path d="M105.758 92.7188H103.965V94.5114H105.758V92.7188Z" fill="black"/>
<path d="M105.758 90.9268H103.965V92.7194H105.758V90.9268Z" fill="black"/>
<path d="M105.758 89.1338H103.965V90.9265H105.758V89.1338Z" fill="black"/>
<path d="M105.758 87.3418H103.965V89.1345H105.758V87.3418Z" fill="black"/>
<path d="M105.758 85.5479H103.965V87.3405H105.758V85.5479Z" fill="black"/>
<path d="M105.758 83.7559H103.965V85.5485H105.758V83.7559Z" fill="#C4E3A7"/>
<path d="M105.758 81.9629H103.965V83.7556H105.758V81.9629Z" fill="#C4E3A7"/>
<path d="M105.758 80.1709H103.965V81.9636H105.758V80.1709Z" fill="#C4E3A7"/>
<path d="M105.758 78.3779H103.965V80.1706H105.758V78.3779Z" fill="#C4E3A7"/>
<path d="M105.758 76.5859H103.965V78.3786H105.758V76.5859Z" fill="#C4E3A7"/>
<path d="M105.758 74.793H103.965V76.5857H105.758V74.793Z" fill="black"/>
<path d="M103.965 99.8896H102.172V101.682H103.965V99.8896Z" fill="black"/>
<path d="M103.965 98.0967H102.172V99.8894H103.965V98.0967Z" fill="#C4E3A7"/>
<path d="M103.965 96.3047H102.172V98.0974H103.965V96.3047Z" fill="#C4E3A7"/>
<path d="M103.965 94.5127H102.172V96.3054H103.965V94.5127Z" fill="#C4E3A7"/>
<path d="M103.965 92.7188H102.172V94.5114H103.965V92.7188Z" fill="#C4E3A7"/>
<path d="M103.965 90.9268H102.172V92.7194H103.965V90.9268Z" fill="black"/>
<path d="M103.965 89.1338H102.172V90.9265H103.965V89.1338Z" fill="black"/>
<path d="M103.965 87.3418H102.172V89.1345H103.965V87.3418Z" fill="black"/>
<path d="M103.965 85.5479H102.172V87.3405H103.965V85.5479Z" fill="black"/>
<path d="M103.965 83.7559H102.172V85.5485H103.965V83.7559Z" fill="#C4E3A7"/>
<path d="M103.965 81.9629H102.172V83.7556H103.965V81.9629Z" fill="#C4E3A7"/>
<path d="M103.965 80.1709H102.172V81.9636H103.965V80.1709Z" fill="#C4E3A7"/>
<path d="M103.965 78.3779H102.172V80.1706H103.965V78.3779Z" fill="#C4E3A7"/>
<path d="M103.965 76.5859H102.172V78.3786H103.965V76.5859Z" fill="black"/>
<path d="M102.168 98.0967H100.375V99.8894H102.168V98.0967Z" fill="black"/>
<path d="M102.168 96.3047H100.375V98.0974H102.168V96.3047Z" fill="#C4E3A7"/>
<path d="M102.168 94.5127H100.375V96.3054H102.168V94.5127Z" fill="#C4E3A7"/>
<path d="M102.168 92.7188H100.375V94.5114H102.168V92.7188Z" fill="#C4E3A7"/>
<path d="M102.168 90.9268H100.375V92.7194H102.168V90.9268Z" fill="#C4E3A7"/>
<path d="M102.168 89.1338H100.375V90.9265H102.168V89.1338Z" fill="black"/>
<path d="M102.168 87.3418H100.375V89.1345H102.168V87.3418Z" fill="black"/>
<path d="M102.168 85.5479H100.375V87.3405H102.168V85.5479Z" fill="#C4E3A7"/>
<path d="M102.168 83.7559H100.375V85.5485H102.168V83.7559Z" fill="#C4E3A7"/>
<path d="M102.168 81.9629H100.375V83.7556H102.168V81.9629Z" fill="#C4E3A7"/>
<path d="M102.168 80.1709H100.375V81.9636H102.168V80.1709Z" fill="#C4E3A7"/>
<path d="M102.168 78.3779H100.375V80.1706H102.168V78.3779Z" fill="black"/>
<path d="M100.379 96.3047H98.5859V98.0974H100.379V96.3047Z" fill="black"/>
<path d="M100.379 94.5127H98.5859V96.3054H100.379V94.5127Z" fill="#C4E3A7"/>
<path d="M100.379 92.7188H98.5859V94.5114H100.379V92.7188Z" fill="#C4E3A7"/>
<path d="M100.379 90.9268H98.5859V92.7194H100.379V90.9268Z" fill="#C4E3A7"/>
<path d="M100.379 89.1338H98.5859V90.9265H100.379V89.1338Z" fill="#C4E3A7"/>
<path d="M100.379 87.3418H98.5859V89.1345H100.379V87.3418Z" fill="#C4E3A7"/>
<path d="M100.379 85.5479H98.5859V87.3405H100.379V85.5479Z" fill="#C4E3A7"/>
<path d="M100.379 83.7559H98.5859V85.5485H100.379V83.7559Z" fill="#C4E3A7"/>
<path d="M100.379 81.9629H98.5859V83.7556H100.379V81.9629Z" fill="#C4E3A7"/>
<path d="M100.379 80.1709H98.5859V81.9636H100.379V80.1709Z" fill="black"/>
<path d="M98.5818 94.5127H96.7891V96.3054H98.5818V94.5127Z" fill="black"/>
<path d="M98.5818 92.7188H96.7891V94.5114H98.5818V92.7188Z" fill="black"/>
<path d="M98.5818 90.9268H96.7891V92.7194H98.5818V90.9268Z" fill="#C4E3A7"/>
<path d="M98.5818 89.1338H96.7891V90.9265H98.5818V89.1338Z" fill="#C4E3A7"/>
<path d="M98.5818 87.3418H96.7891V89.1345H98.5818V87.3418Z" fill="#C4E3A7"/>
<path d="M98.5818 85.5479H96.7891V87.3405H98.5818V85.5479Z" fill="#C4E3A7"/>
<path d="M98.5818 83.7559H96.7891V85.5485H98.5818V83.7559Z" fill="black"/>
<path d="M98.5818 81.9629H96.7891V83.7556H98.5818V81.9629Z" fill="black"/>
<path d="M96.7927 90.9268H95V92.7194H96.7927V90.9268Z" fill="black"/>
<path d="M96.7927 89.1338H95V90.9265H96.7927V89.1338Z" fill="black"/>
<path d="M96.7927 87.3418H95V89.1345H96.7927V87.3418Z" fill="black"/>
<path d="M96.7927 85.5479H95V87.3405H96.7927V85.5479Z" fill="black"/>
<path d="M141.988 74.2707H170.357V78.3607H158.726V110.19H153.67V78.3607H141.988V74.2707Z" fill="#C4E3A7"/>
<path d="M176.46 74.2707H198.527V78.3607H181.491V88.9947H197.78V93.0847H181.491V106.1H199.001V110.19H176.46V74.2707Z" fill="#C4E3A7"/>
<path d="M203.459 74.2707H231.828V78.3607H220.197V110.19H215.14V78.3607H203.459V74.2707Z" fill="#C4E3A7"/>
<path d="M251.953 93.229C253.248 93.5498 254.352 94.1593 255.266 95.0575C256.179 95.9396 257.316 97.712 258.678 100.374L263.734 110.19H258.329L253.896 101.12C252.617 98.538 251.463 96.8779 250.434 96.1401C249.421 95.3863 248.092 95.0094 246.449 95.0094H241.642V110.19H236.585V74.2707H246.947C251.032 74.2707 254.161 75.1609 256.337 76.9412C258.512 78.7216 259.6 81.2958 259.6 84.6641C259.6 87.0379 258.927 88.9786 257.582 90.4863C256.254 91.9779 254.377 92.8922 251.953 93.229ZM241.642 78.2644V91.0156H247.146C249.554 91.0156 251.347 90.4943 252.526 89.4518C253.705 88.4092 254.294 86.8133 254.294 84.6641C254.294 82.595 253.663 81.0152 252.401 79.9245C251.156 78.8178 249.338 78.2644 246.947 78.2644H241.642Z" fill="#C4E3A7"/>
<path d="M268.765 74.2707H289.413V78.3607H281.617V106.1H289.413V110.19H268.765V106.1H276.561V78.3607H268.765V74.2707Z" fill="#C4E3A7"/>
<path d="M319.7 75.4977V80.4297C318.173 79.4834 316.637 78.7697 315.093 78.2885C313.565 77.8073 312.021 77.5667 310.46 77.5667C308.085 77.5667 306.209 78.104 304.831 79.1787C303.453 80.2373 302.764 81.6728 302.764 83.4852C302.764 85.0731 303.212 86.284 304.109 87.1181C305.022 87.9521 306.715 88.6498 309.19 89.2112L311.83 89.7886C315.317 90.5745 317.857 91.8095 319.451 93.4937C321.045 95.1778 321.842 97.4714 321.842 100.374C321.842 103.791 320.746 106.397 318.555 108.194C316.363 109.99 313.175 110.888 308.99 110.888C307.247 110.888 305.495 110.704 303.735 110.335C301.975 109.982 300.206 109.445 298.43 108.723V103.55C300.339 104.721 302.141 105.579 303.835 106.125C305.545 106.67 307.263 106.943 308.99 106.943C311.531 106.943 313.507 106.397 314.918 105.307C316.33 104.2 317.035 102.66 317.035 100.687C317.035 98.8908 316.545 97.5195 315.566 96.5732C314.603 95.6269 312.917 94.8971 310.51 94.3838L307.82 93.7824C304.366 93.0285 301.859 91.8897 300.298 90.366C298.737 88.8423 297.956 86.7973 297.956 84.231C297.956 81.0232 299.069 78.4569 301.294 76.5322C303.536 74.5915 306.508 73.6211 310.211 73.6211C311.639 73.6211 313.141 73.7815 314.719 74.1023C316.296 74.407 317.957 74.8722 319.7 75.4977Z" fill="#C4E3A7"/>
</svg>
