<svg width="20" height="20" viewBox="0 0 20 20" fill="none" xmlns="http://www.w3.org/2000/svg">
<g opacity="0.6" clip-path="url(#clip0_1379_47038)">
<path opacity="0.4" d="M10 17.5C13.797 17.5 16.875 14.422 16.875 10.625C16.875 6.82804 13.797 3.75 10 3.75C6.20304 3.75 3.125 6.82804 3.125 10.625C3.125 14.422 6.20304 17.5 10 17.5Z" fill="currentColor"/>
<path d="M10 17.5C13.797 17.5 16.875 14.422 16.875 10.625C16.875 6.82804 13.797 3.75 10 3.75C6.20304 3.75 3.125 6.82804 3.125 10.625C3.125 14.422 6.20304 17.5 10 17.5Z" stroke="currentColor" stroke-width="1.2" stroke-linecap="round" stroke-linejoin="round"/>
<path d="M10 10.625L13.125 7.5" stroke="currentColor" stroke-width="1.2" stroke-linecap="round" stroke-linejoin="round"/>
<path d="M8.125 1.25H11.875" stroke="currentColor" stroke-width="1.2" stroke-linecap="round" stroke-linejoin="round"/>
</g>
<defs>
<clipPath id="clip0_1379_47038">
<rect width="20" height="20" fill="currentColor"/>
</clipPath>
</defs>
</svg>
