<svg width="32" height="32" viewBox="0 0 32 32" fill="none" xmlns="http://www.w3.org/2000/svg">
<g opacity="0.6" clip-path="url(#clip0_829_49022)">
<path opacity="0.4" d="M26 5H6C5.73478 5 5.48043 5.10536 5.29289 5.29289C5.10536 5.48043 5 5.73478 5 6V26C5 26.2652 5.10536 26.5196 5.29289 26.7071C5.48043 26.8946 5.73478 27 6 27H26C26.2652 27 26.5196 26.8946 26.7071 26.7071C26.8946 26.5196 27 26.2652 27 26V6C27 5.73478 26.8946 5.48043 26.7071 5.29289C26.5196 5.10536 26.2652 5 26 5ZM7.2225 27C7.67579 25.0112 8.79121 23.2354 10.386 21.9636C11.9807 20.6918 13.9602 19.9994 16 20C15.0111 20 14.0444 19.7068 13.2221 19.1573C12.3999 18.6079 11.759 17.827 11.3806 16.9134C11.0022 15.9998 10.9031 14.9945 11.0961 14.0245C11.289 13.0546 11.7652 12.1637 12.4645 11.4645C13.1637 10.7652 14.0546 10.289 15.0245 10.0961C15.9945 9.90315 16.9998 10.0022 17.9134 10.3806C18.827 10.759 19.6079 11.3999 20.1573 12.2221C20.7068 13.0444 21 14.0111 21 15C21 16.3261 20.4732 17.5979 19.5355 18.5355C18.5979 19.4732 17.3261 20 16 20C18.0398 19.9994 20.0193 20.6918 21.614 21.9636C23.2088 23.2354 24.3242 25.0112 24.7775 27H7.2225Z" fill="black"/>
<path d="M16 20C18.7614 20 21 17.7614 21 15C21 12.2386 18.7614 10 16 10C13.2386 10 11 12.2386 11 15C11 17.7614 13.2386 20 16 20Z" stroke="black" stroke-width="1.2" stroke-linecap="round" stroke-linejoin="round"/>
<path d="M26 5H6C5.44772 5 5 5.44772 5 6V26C5 26.5523 5.44772 27 6 27H26C26.5523 27 27 26.5523 27 26V6C27 5.44772 26.5523 5 26 5Z" stroke="black" stroke-width="1.2" stroke-linecap="round" stroke-linejoin="round"/>
<path d="M7.22266 26.9999C7.67375 25.0091 8.78824 23.2307 10.3832 21.9567C11.9782 20.6827 13.9588 19.9888 16.0002 19.9888C18.0415 19.9888 20.0222 20.6827 21.6171 21.9567C23.2121 23.2307 24.3266 25.0091 24.7777 26.9999" stroke="black" stroke-width="1.2" stroke-linecap="round" stroke-linejoin="round"/>
</g>
<defs>
<clipPath id="clip0_829_49022">
<rect width="32" height="32" fill="currentColor"/>
</clipPath>
</defs>
</svg>
