<svg width="1260" height="320" viewBox="0 0 1260 320" fill="none" xmlns="http://www.w3.org/2000/svg">
<g clip-path="url(#clip0_94_2)">
<path d="M244.412 118.592C242.464 52.1915 187.574 -0.915006 120.493 0.0119525C54.0806 0.938911 0.117538 55.5825 0.000201781 122.007C-0.0467328 148.126 8.09642 172.344 22.0125 192.233C23.6435 194.568 21.9773 197.759 19.126 197.759H3.57896C1.58424 197.759 0.00020178 199.414 0.05887 201.408C2.00666 267.809 56.8967 320.915 123.978 319.988C190.402 319.062 244.353 264.418 244.471 197.994C244.518 171.875 236.374 147.656 222.458 127.768C220.827 125.433 222.494 122.241 225.345 122.241H240.904C242.898 122.241 244.482 120.587 244.424 118.592" fill="#2AB673"/>
<path d="M66.342 156.574L141.426 81.4902C143.643 79.2726 147.433 80.8449 147.433 83.9778V153.476C147.433 155.424 149.006 156.996 150.953 156.996H179.138C182.27 156.996 183.843 160.786 181.625 163.004L106.542 238.087C104.324 240.305 100.534 238.733 100.534 235.6V166.102C100.534 164.154 98.9616 162.581 97.0138 162.581H68.8296C65.6967 162.581 64.1244 158.791 66.342 156.574Z" fill="white"/>
<path d="M418.785 136.286C426.166 138.445 432.936 139.666 441.244 142.13C467.703 150.132 480.634 163.051 480.634 192.901C480.634 226.436 452.942 243.978 420.628 243.978C376.979 243.978 362.159 219.384 361.819 192.138C361.795 190.179 363.391 188.583 365.339 188.583H397.841C399.671 188.583 401.208 189.991 401.338 191.822C402.077 202.135 406.723 210.736 421.226 210.736C431.998 210.736 440.61 205.503 440.61 195.964C440.61 186.424 435.682 182.118 424.3 179.044C415.383 176.58 408.296 175.042 399.378 171.663C376.615 163.356 365.221 147.973 365.221 123.051C365.221 95.3593 388.607 75.0483 421.531 75.0483C454.456 75.0483 475.4 91.3346 477.113 123.356C477.219 125.362 475.6 127.04 473.593 127.04H442.675C440.903 127.04 439.366 125.726 439.179 123.966C438.029 113.23 432.162 107.034 420.604 107.034C410.76 107.034 404.294 112.573 404.294 120.88C404.294 129.187 408.906 133.494 418.762 136.263" fill="white"/>
<path d="M540.663 180.592C540.663 196.597 547.128 206.747 561.889 206.747C576.65 206.747 584.664 195.975 584.664 180.287V80.7274C584.664 78.7796 586.236 77.2073 588.184 77.2073H622.376C624.324 77.2073 625.896 78.7796 625.896 80.7274V238.298C625.896 240.246 624.324 241.819 622.376 241.819H588.489C586.541 241.819 584.969 240.246 584.969 238.298V229.51C580.663 235.048 569.891 243.661 550.507 243.661C513.887 243.661 499.431 219.044 499.431 185.509V80.7157C499.431 78.7679 501.003 77.1956 502.951 77.1956H537.143C539.09 77.1956 540.663 78.7679 540.663 80.7157V180.581V180.592Z" fill="white"/>
<path d="M692.461 273.898L658.269 302.294C655.969 304.195 652.496 302.564 652.496 299.583V80.7275C652.496 78.7797 654.068 77.2074 656.016 77.2074H688.049C689.997 77.2074 691.569 78.7797 691.569 80.7275V92.8953C699.877 84.5878 715.881 74.4382 742.036 74.4382C791.88 74.4382 824.5 109.522 824.5 159.05C824.5 208.577 792.502 244.588 740.193 244.588C718.345 244.588 702.035 235.67 693.728 228.583V271.176C693.728 272.221 693.259 273.218 692.461 273.887M738.046 207.967C766.043 207.967 783.279 187.656 783.279 159.66C783.279 131.663 765.127 111.047 737.741 111.047C710.355 111.047 692.508 131.663 692.508 159.66C692.508 187.656 710.66 207.967 738.046 207.967Z" fill="white"/>
<path d="M881.713 241.819H847.521C845.573 241.819 844.001 240.246 844.001 238.298V53.2823C844.001 51.9212 844.611 50.6423 845.655 49.774L879.472 21.6954C881.772 19.7945 885.245 21.4255 885.245 24.4058V238.31C885.245 240.258 883.672 241.83 881.725 241.83" fill="white"/>
<path d="M907.855 42.4406C907.855 28.5949 918.932 17.5183 932.473 17.5183C946.013 17.5183 957.09 28.5949 957.09 42.4406C957.09 56.2863 946.318 66.7527 932.473 66.7527C918.627 66.7527 907.855 55.9812 907.855 42.4406ZM949.569 241.83H915.377C913.429 241.83 911.857 240.258 911.857 238.31V80.7275C911.857 78.7797 913.429 77.2074 915.377 77.2074H949.569C951.516 77.2074 953.089 78.7797 953.089 80.7275V238.299C953.089 240.246 951.516 241.819 949.569 241.819" fill="white"/>
<path d="M1026.95 77.2073H1047.74C1049.69 77.2073 1051.26 78.7796 1051.26 80.7274V108.454C1051.26 110.402 1049.69 111.974 1047.74 111.974H1026.95V238.299C1026.95 240.246 1025.38 241.819 1023.43 241.819H989.24C987.293 241.819 985.72 240.246 985.72 238.299V111.974H973.857C971.91 111.974 970.337 110.402 970.337 108.454V80.7274C970.337 78.7796 971.91 77.2073 973.857 77.2073H985.72V69.8269C985.72 37.5241 998.639 16.5913 1038.03 16.5913C1039.66 16.5913 1044.08 16.5913 1047.87 16.7204C1049.76 16.7908 1051.26 18.3514 1051.26 20.2405V47.838C1051.26 49.7858 1049.69 51.3581 1047.74 51.3581H1043.57C1029.72 51.3581 1026.95 60.2874 1026.95 70.1319V77.2073Z" fill="white"/>
<path d="M1106.71 180.592C1106.71 196.597 1113.17 206.747 1127.93 206.747C1142.69 206.747 1150.7 195.975 1150.7 180.287V80.7274C1150.7 78.7796 1152.27 77.2073 1154.22 77.2073H1188.41C1190.35 77.2073 1191.93 78.7796 1191.93 80.7274V238.298C1191.93 240.246 1190.35 241.819 1188.41 241.819H1154.52C1152.57 241.819 1151 240.246 1151 238.298V229.51C1146.69 235.048 1135.92 243.661 1116.54 243.661C1079.92 243.661 1065.46 219.044 1065.46 185.509V80.7157C1065.46 78.7679 1067.03 77.1956 1068.98 77.1956H1103.17C1105.12 77.1956 1106.69 78.7679 1106.69 80.7157V180.581L1106.71 180.592Z" fill="white"/>
<path d="M1256.26 241.819H1222.07C1220.12 241.819 1218.55 240.246 1218.55 238.298V52.7896C1218.55 51.7453 1219.02 50.7479 1219.82 50.0791L1254.01 21.6837C1256.3 19.7828 1259.78 21.4138 1259.78 24.3941V238.298C1259.78 240.246 1258.21 241.819 1256.26 241.819Z" fill="white"/>
</g>
<defs>
<clipPath id="clip0_94_2">
<rect width="1259.78" height="320" fill="white"/>
</clipPath>
</defs>
</svg>
