<svg width="646" height="120" viewBox="0 0 646 120" fill="none" xmlns="http://www.w3.org/2000/svg">
<rect x="0.0839844" width="120" height="120" rx="24" fill="white"/>
<path d="M83.2053 24H107.495L91.4192 98.6079L63.0439 80.5479L30.1883 102L27.3401 91.8234L54.1366 74.7662L62.7772 68.4724L83.5467 81.3693L93.8727 34.3901L83.2053 24Z" fill="#1067FF"/>
<path d="M74.7249 24H46.2109L35.6182 33.846H54.2222L54.4889 59.0958L35.6182 71.182L27.3403 33.5687L37.9224 24H12.6726L27.3403 87.8871L63.5882 65.3469V33.7073H85.3177L74.7249 24Z" fill="#1067FF"/>
<path d="M158.766 83.5L145.22 36.9545H157.652L164.675 67.4545H165.061L173.084 36.9545H183.22L191.243 67.5227H191.629L198.675 36.9545H211.084L197.561 83.5H186.72L178.334 55.2727H177.97L169.584 83.5H158.766ZM215.732 83.5V48.5909H226.845V83.5H215.732ZM221.3 44.5227C219.739 44.5227 218.398 44.0076 217.277 42.9773C216.156 41.9318 215.595 40.6742 215.595 39.2045C215.595 37.75 216.156 36.5076 217.277 35.4773C218.398 34.4318 219.739 33.9091 221.3 33.9091C222.876 33.9091 224.217 34.4318 225.323 35.4773C226.444 36.5076 227.004 37.75 227.004 39.2045C227.004 40.6742 226.444 41.9318 225.323 42.9773C224.217 44.0076 222.876 44.5227 221.3 44.5227ZM245.033 63.5909V83.5H233.919V48.5909H244.487V55H244.874C245.646 52.8636 246.965 51.1894 248.828 49.9773C250.692 48.75 252.912 48.1364 255.487 48.1364C257.942 48.1364 260.071 48.6894 261.874 49.7955C263.692 50.8864 265.101 52.4167 266.101 54.3864C267.116 56.3409 267.616 58.6288 267.601 61.25V83.5H256.487V63.4318C256.503 61.4924 256.01 59.9773 255.01 58.8864C254.025 57.7955 252.654 57.25 250.896 57.25C249.73 57.25 248.7 57.5076 247.806 58.0227C246.927 58.5227 246.245 59.2424 245.76 60.1818C245.29 61.1212 245.048 62.2576 245.033 63.5909ZM285.595 63.5909V83.5H274.482V48.5909H285.05V55H285.436C286.209 52.8636 287.527 51.1894 289.391 49.9773C291.254 48.75 293.474 48.1364 296.05 48.1364C298.504 48.1364 300.633 48.6894 302.436 49.7955C304.254 50.8864 305.664 52.4167 306.664 54.3864C307.679 56.3409 308.179 58.6288 308.164 61.25V83.5H297.05V63.4318C297.065 61.4924 296.573 59.9773 295.573 58.8864C294.588 57.7955 293.217 57.25 291.459 57.25C290.292 57.25 289.262 57.5076 288.368 58.0227C287.489 58.5227 286.807 59.2424 286.323 60.1818C285.853 61.1212 285.61 62.2576 285.595 63.5909ZM315.044 83.5V48.5909H326.158V83.5H315.044ZM320.612 44.5227C319.052 44.5227 317.711 44.0076 316.59 42.9773C315.468 41.9318 314.908 40.6742 314.908 39.2045C314.908 37.75 315.468 36.5076 316.59 35.4773C317.711 34.4318 319.052 33.9091 320.612 33.9091C322.188 33.9091 323.529 34.4318 324.635 35.4773C325.756 36.5076 326.317 37.75 326.317 39.2045C326.317 40.6742 325.756 41.9318 324.635 42.9773C323.529 44.0076 322.188 44.5227 320.612 44.5227ZM344.345 63.5909V83.5H333.232V48.5909H343.8V55H344.186C344.959 52.8636 346.277 51.1894 348.141 49.9773C350.004 48.75 352.224 48.1364 354.8 48.1364C357.254 48.1364 359.383 48.6894 361.186 49.7955C363.004 50.8864 364.414 52.4167 365.414 54.3864C366.429 56.3409 366.929 58.6288 366.914 61.25V83.5H355.8V63.4318C355.815 61.4924 355.323 59.9773 354.323 58.8864C353.338 57.7955 351.967 57.25 350.209 57.25C349.042 57.25 348.012 57.5076 347.118 58.0227C346.239 58.5227 345.557 59.2424 345.073 60.1818C344.603 61.1212 344.36 62.2576 344.345 63.5909ZM390.067 97.3182C386.749 97.3182 383.908 96.8561 381.544 95.9318C379.181 95.0076 377.325 93.7424 375.976 92.1364C374.628 90.5303 373.817 88.7121 373.544 86.6818L384.067 86.0909C384.264 86.803 384.628 87.4242 385.158 87.9545C385.703 88.4848 386.408 88.8939 387.271 89.1818C388.15 89.4697 389.181 89.6136 390.362 89.6136C392.226 89.6136 393.764 89.1591 394.976 88.25C396.203 87.3561 396.817 85.7879 396.817 83.5455V77.4091H396.431C395.991 78.4848 395.325 79.447 394.431 80.2955C393.537 81.1439 392.423 81.8106 391.09 82.2955C389.771 82.7803 388.256 83.0227 386.544 83.0227C383.999 83.0227 381.665 82.4318 379.544 81.25C377.438 80.053 375.749 78.2045 374.476 75.7045C373.218 73.1894 372.59 69.9545 372.59 66C372.59 61.9242 373.241 58.5682 374.544 55.9318C375.847 53.2803 377.552 51.3182 379.658 50.0455C381.779 48.7727 384.059 48.1364 386.499 48.1364C388.332 48.1364 389.9 48.4545 391.203 49.0909C392.521 49.7121 393.605 50.5152 394.453 51.5C395.302 52.4848 395.946 53.5076 396.385 54.5682H396.703V48.5909H407.771V83.6364C407.771 86.5909 407.029 89.0833 405.544 91.1136C404.059 93.1439 401.984 94.6818 399.317 95.7273C396.65 96.7879 393.567 97.3182 390.067 97.3182ZM390.408 74.9318C391.756 74.9318 392.908 74.5758 393.862 73.8636C394.817 73.1515 395.552 72.1288 396.067 70.7955C396.582 69.4621 396.84 67.8636 396.84 66C396.84 64.1061 396.582 62.4773 396.067 61.1136C395.567 59.7348 394.832 58.6742 393.862 57.9318C392.908 57.1894 391.756 56.8182 390.408 56.8182C389.029 56.8182 387.862 57.197 386.908 57.9545C385.953 58.7121 385.226 59.7803 384.726 61.1591C384.241 62.5227 383.999 64.1364 383.999 66C383.999 67.8636 384.249 69.4621 384.749 70.7955C385.249 72.1288 385.968 73.1515 386.908 73.8636C387.862 74.5758 389.029 74.9318 390.408 74.9318ZM428.607 83.5V36.9545H439.857V55.6364H458.198V36.9545H469.425V83.5H458.198V64.7955H439.857V83.5H428.607ZM499.004 68.4318V48.5909H510.095V83.5H499.504V77H499.141C498.368 79.1364 497.05 80.8333 495.186 82.0909C493.338 83.3333 491.103 83.9545 488.482 83.9545C486.103 83.9545 484.012 83.4091 482.209 82.3182C480.406 81.2273 479.004 79.7045 478.004 77.75C477.004 75.7803 476.497 73.4773 476.482 70.8409V48.5909H487.595V68.6591C487.61 70.553 488.11 72.0455 489.095 73.1364C490.08 74.2273 491.421 74.7727 493.118 74.7727C494.224 74.7727 495.217 74.5303 496.095 74.0455C496.989 73.5455 497.694 72.8258 498.209 71.8864C498.739 70.9318 499.004 69.7803 499.004 68.4318ZM528.283 63.5909V83.5H517.169V48.5909H527.737V55H528.124C528.896 52.8636 530.215 51.1894 532.078 49.9773C533.942 48.75 536.162 48.1364 538.737 48.1364C541.192 48.1364 543.321 48.6894 545.124 49.7955C546.942 50.8864 548.351 52.4167 549.351 54.3864C550.366 56.3409 550.866 58.6288 550.851 61.25V83.5H539.737V63.4318C539.753 61.4924 539.26 59.9773 538.26 58.8864C537.275 57.7955 535.904 57.25 534.146 57.25C532.98 57.25 531.95 57.5076 531.056 58.0227C530.177 58.5227 529.495 59.2424 529.01 60.1818C528.54 61.1212 528.298 62.2576 528.283 63.5909ZM577.436 48.5909V56.7727H555.414V48.5909H577.436ZM560.027 40.2273H571.141V72.5227C571.141 73.2045 571.247 73.7576 571.459 74.1818C571.686 74.5909 572.012 74.8864 572.436 75.0682C572.86 75.2348 573.368 75.3182 573.959 75.3182C574.383 75.3182 574.83 75.2803 575.3 75.2045C575.785 75.1136 576.148 75.0379 576.391 74.9773L578.073 83C577.542 83.1515 576.792 83.3409 575.823 83.5682C574.868 83.7955 573.724 83.9394 572.391 84C569.785 84.1212 567.55 83.8182 565.686 83.0909C563.838 82.3485 562.421 81.197 561.436 79.6364C560.467 78.0758 559.997 76.1136 560.027 73.75V40.2273ZM599.05 84.1591C595.398 84.1591 592.247 83.4394 589.595 82C586.959 80.5455 584.929 78.4773 583.504 75.7955C582.095 73.0985 581.391 69.8939 581.391 66.1818C581.391 62.5758 582.103 59.4242 583.527 56.7273C584.951 54.0152 586.959 51.9091 589.55 50.4091C592.141 48.8939 595.194 48.1364 598.709 48.1364C601.194 48.1364 603.467 48.5227 605.527 49.2955C607.588 50.0682 609.368 51.2121 610.868 52.7273C612.368 54.2424 613.535 56.1136 614.368 58.3409C615.201 60.553 615.618 63.0909 615.618 65.9545V68.7273H585.277V62.2727H605.277C605.262 61.0909 604.982 60.0379 604.436 59.1136C603.891 58.1894 603.141 57.4697 602.186 56.9545C601.247 56.4242 600.164 56.1591 598.936 56.1591C597.694 56.1591 596.58 56.4394 595.595 57C594.61 57.5455 593.83 58.2955 593.254 59.25C592.679 60.1894 592.376 61.2576 592.345 62.4545V69.0227C592.345 70.447 592.626 71.697 593.186 72.7727C593.747 73.8333 594.542 74.6591 595.573 75.25C596.603 75.8409 597.83 76.1364 599.254 76.1364C600.239 76.1364 601.133 76 601.936 75.7273C602.739 75.4545 603.429 75.053 604.004 74.5227C604.58 73.9924 605.012 73.3409 605.3 72.5682L615.504 72.8636C615.08 75.1515 614.148 77.1439 612.709 78.8409C611.285 80.5227 609.414 81.8333 607.095 82.7727C604.777 83.697 602.095 84.1591 599.05 84.1591ZM621.294 83.5V48.5909H632.09V54.9545H632.453C633.09 52.6515 634.128 50.9394 635.567 49.8182C637.006 48.6818 638.681 48.1136 640.59 48.1136C641.105 48.1136 641.635 48.1515 642.181 48.2273C642.726 48.2879 643.234 48.3864 643.703 48.5227V58.1818C643.173 58 642.476 57.8561 641.612 57.75C640.764 57.6439 640.006 57.5909 639.34 57.5909C638.021 57.5909 636.832 57.8864 635.771 58.4773C634.726 59.053 633.9 59.8636 633.294 60.9091C632.703 61.9394 632.408 63.1515 632.408 64.5455V83.5H621.294Z" fill="white"/>
</svg>
