<svg width="753" height="218" viewBox="0 0 753 218" fill="none" xmlns="http://www.w3.org/2000/svg">
<path d="M0.0508953 82.8798C0.0509063 74.0497 -0.129526 65.7126 0.189003 57.3947C0.260725 55.5218 1.60468 52.9367 3.15857 52.0018C15.7168 44.4457 28.4767 37.2255 41.1522 29.8636C55.0807 21.774 68.9843 13.6414 82.9005 5.53052C85.5492 3.98675 88.1571 2.36366 90.8695 0.940451C96.0305 -1.76757 99.8112 2.01658 103.636 4.19394C122.957 15.1921 142.118 26.471 161.361 37.6053C169.718 42.4406 178.21 47.0477 186.458 52.058C187.807 52.8774 188.937 55.2506 188.944 56.9106C189.086 91.5633 189.086 126.217 188.943 160.87C188.936 162.524 187.793 164.916 186.443 165.708C171.166 174.662 155.727 183.337 140.371 192.155C126.821 199.936 113.263 207.707 99.835 215.694C96.0874 217.923 93.015 217.89 89.2509 215.686C72.9925 206.165 56.5653 196.933 40.2489 187.51C27.9696 180.419 15.8306 173.082 3.47795 166.123C0.701597 164.558 -0.00209089 162.752 0.00661811 159.85C0.0830931 134.36 0.0508973 108.87 0.0508953 82.8798ZM70.2516 27.8784C59.2118 34.3129 48.172 40.7473 37.1322 47.1817C43.5961 46.793 49.8267 46.0626 55.9382 44.7696C58.4684 44.2343 61.395 43.0538 62.9994 41.1859C66.3378 37.2994 68.9146 32.7587 72.2483 28.1009C72.3895 27.7634 72.5308 27.4259 72.6721 27.0884C72.1068 27.3255 71.5415 27.5626 70.2516 27.8784ZM83.5865 184.911C86.1039 188.107 88.5891 191.329 91.1465 194.492C94.7695 198.974 94.7788 198.947 98.0488 193.923C109.668 176.073 121.316 158.242 132.914 140.378C138.321 132.049 143.639 123.661 149.767 114.1C114.673 122.474 80.9328 130.525 46.6945 138.695C59.1516 154.35 71.1078 169.376 83.5865 184.911ZM138.371 103.877C140.797 103.147 143.223 102.418 146.071 101.561C119.965 87.2623 94.4652 73.2955 68.5625 59.1081C60.8091 81.3839 53.3319 102.866 45.334 125.845C76.8181 118.343 107.169 111.111 138.371 103.877ZM146.013 144.249C135.946 159.587 125.879 174.926 115.812 190.264C116.108 190.501 116.404 190.739 116.7 190.976C136.223 179.699 155.747 168.423 175.376 157.085C171.033 144.337 166.836 132.018 162.363 118.892C156.531 127.715 151.31 135.612 146.013 144.249ZM114.544 46.8754C109.034 39.0945 103.567 31.2822 97.9808 23.5563C96.686 21.7656 94.8383 18.9976 92.5967 22.0111C86.4693 30.2485 80.7311 38.7754 74.574 47.5654C96.4976 59.6131 117.972 71.4139 139.446 83.2148C139.693 82.8896 139.939 82.5643 140.186 82.2391C131.811 70.6259 123.437 59.0126 114.544 46.8754ZM153.087 78.231C156.068 82.1716 159.049 86.1123 162.563 90.7577C166.938 80.1896 171.016 70.341 175.101 60.4744C156.3 49.6494 137.679 38.9275 119.058 28.2057C118.699 28.6372 118.341 29.0687 117.983 29.5002C129.659 45.4998 141.336 61.4994 153.087 78.231ZM43.0951 92.5573C47.1401 81.1627 51.1852 69.768 55.4248 57.8256C41.9314 60.0639 29.2116 62.1739 16.1785 64.3359C22.3967 81.1093 28.6575 97.9977 35.2005 115.647C38.063 107.526 40.557 100.451 43.0951 92.5573ZM40.6733 172.84C49.8401 178.016 59.0069 183.193 68.1737 188.369C68.3741 188.016 68.5745 187.662 68.7749 187.309C57.3625 172.986 45.9501 158.663 34.4029 144.171C28.3137 149.426 22.9367 154.067 17.1071 159.099C25.3215 163.856 32.6912 168.125 40.6733 172.84ZM12.051 96.7745C12.051 112.785 12.051 128.795 12.051 145.972C18.1241 140.927 23.1104 136.786 27.7737 132.912C22.8407 119.525 18.1096 106.685 12.9353 92.6431C12.4203 94.5248 12.2365 95.1966 12.051 96.7745ZM177.051 111.236C177.051 105.121 177.051 99.0057 177.051 92.8903C170.615 104.464 170.677 109.225 177.051 118.933C177.051 115.931 177.051 114.059 177.051 111.236Z" fill="#E7E8E9"/>
<path d="M556.051 99.9166C556.051 109.38 556.051 118.349 556.051 127.598C550.407 127.598 545.007 127.598 539.326 127.598C539.326 104.56 539.326 81.5024 539.326 57.8824C543.549 57.8824 548.133 56.9206 551.986 58.185C555.1 59.2067 557.59 62.6965 559.909 65.4662C567.019 73.9559 573.912 82.6268 580.891 91.2253C582.496 93.202 584.109 95.1709 586.711 98.3585C586.711 84.0403 586.711 71.239 586.711 58.1626C592.694 58.1626 598.095 58.1626 603.775 58.1626C603.775 81.1982 603.775 104.256 603.775 127.877C599.554 127.877 594.969 128.841 591.117 127.575C588.001 126.55 585.51 123.056 583.188 120.283C576.078 111.794 569.183 103.124 562.203 94.5263C560.6 92.5519 558.989 90.5841 557.381 88.6133C556.938 88.7145 556.494 88.8157 556.051 88.917C556.051 92.4186 556.051 95.9201 556.051 99.9166Z" fill="#E7E8E9"/>
<path d="M482.029 127.914C467.756 125.843 456.242 115.372 453.05 101.316C450.178 88.6668 453.216 77.2075 461.845 68.0307C465.929 63.687 472.118 60.6074 477.928 58.7517C489.81 54.9563 501.754 55.7806 512.469 62.9035C522.922 69.8523 528.193 79.4474 528.223 92.4619C528.258 108.125 521.371 119.006 507.679 125.466C499.808 129.18 491.19 130.341 482.029 127.914ZM502.256 74.9023C496.512 71.2831 490.231 70.8221 483.939 72.5774C474.249 75.2809 467.964 85.0187 469.959 97.411C471.146 104.787 478.498 112.451 485.308 113.809C494.955 115.733 503.822 111.596 508.229 104.338C512.926 96.6026 512.56 82.5124 502.256 74.9023Z" fill="#E7E8E9"/>
<path d="M688.384 98.14C686.776 112.806 677.953 121.663 665.529 126.444C653.608 131.032 641.011 130.521 629.833 123.708C618.35 116.709 613.042 106.321 612.753 92.2798C612.423 76.1848 624.471 62.1979 637.906 58.5346C654.79 53.9307 673.737 57.6999 683.969 74.4433C688.284 81.5058 689.979 89.4277 688.384 98.14ZM638.846 110.858C644.588 114.476 650.905 115.04 657.155 113.171C671.953 108.747 676.036 89.2389 665.794 77.694C656.99 67.7702 634.077 70.5075 630.83 86.3175C628.839 96.0121 630.584 104.007 638.846 110.858Z" fill="#E7E8E9"/>
<path d="M384.051 116.86C384.051 97.0579 384.051 77.7535 384.051 57.6689C399.44 59.1922 414.665 55.67 429.777 60.6679C442.016 64.7154 446.851 78.0824 444.715 88.4856C442.88 97.4263 439.475 101.189 431.337 105.193C436.383 112.497 441.415 119.78 447.008 127.876C440.499 127.876 435.213 127.954 429.934 127.804C428.994 127.777 427.805 127.017 427.206 126.233C424.849 123.148 422.139 120.164 420.56 116.689C417.607 110.186 413.019 107.674 406.105 108.844C404.663 109.089 403.143 108.88 401.249 108.88C401.249 115.133 401.249 121.21 401.249 127.581C395.439 127.581 390.037 127.581 384.051 127.581C384.051 124.233 384.051 120.795 384.051 116.86ZM408.575 94.8799C411.228 94.8797 413.888 94.9968 416.534 94.8557C422.655 94.5291 427.488 89.9498 428.048 84.0968C428.513 79.2412 425.192 74.1473 419.501 73.0388C413.533 71.8765 407.322 71.9658 401.366 71.5193C401.366 79.9487 401.366 87.3288 401.366 94.8799C403.654 94.8799 405.628 94.8799 408.575 94.8799Z" fill="#E7E8E9"/>
<path d="M319.917 57.8799C323.024 57.485 324.217 58.2097 324.126 61.2583C323.897 68.901 324.05 76.5552 324.05 84.5421C333.91 84.5421 343.643 84.5421 353.788 84.5421C353.788 76.0192 353.788 67.2815 353.788 58.2138C359.585 58.2138 364.987 58.2138 370.723 58.2138C370.723 81.0879 370.723 104.143 370.723 127.54C365.532 127.54 360.128 127.54 354.31 127.54C354.31 118.682 354.31 109.611 354.31 100.212C344.18 100.212 334.447 100.212 324.302 100.212C324.302 109.086 324.302 118.156 324.302 127.551C318.506 127.551 313.103 127.551 307.373 127.551C307.373 104.661 307.373 81.6058 307.373 57.8799C311.265 57.8799 315.349 57.8799 319.917 57.8799Z" fill="#E7E8E9"/>
<path d="M698.697 67.7394C703.34 60.9489 709.946 58.1664 717.287 57.2792C728.62 55.9095 739.692 56.8053 750.002 63.0616C748.171 67.5022 746.428 71.7283 745.261 74.5587C737.164 73.2581 729.791 71.7139 722.342 71.0771C719.811 70.8607 716.665 72.404 714.549 74.0856C711.575 76.4487 712.391 80.975 716.008 82.2287C723.268 84.745 730.849 86.3596 738.036 89.0467C741.975 90.5198 746.491 92.6146 748.823 95.826C756.388 106.242 752.175 122.467 737.889 126.775C723.97 130.972 710.376 129.447 697.233 123.014C694.053 121.457 694.443 119.449 695.333 117.293C696.617 114.183 698.389 111.275 700.171 107.865C709.856 113.45 719.921 117.241 730.995 113.684C733.226 112.968 734.742 110.021 736.355 108.344C732.567 101.759 726.319 101.548 720.822 99.8957C716.525 98.6039 712.078 97.7391 707.891 96.169C695.834 91.6478 693.711 81.4377 697.64 69.787C697.847 69.1749 698.151 68.5958 698.697 67.7394Z" fill="#E7E8E9"/>
<path d="M287.915 107.466C290.184 109.315 292.404 111.227 294.733 112.996C298.132 115.577 297.259 117.764 294.384 120.061C284.219 128.179 272.876 130.289 260.124 128.053C249.623 126.212 241.579 121.058 236.122 112.304C223.923 92.7299 232.244 62.819 259.479 57.8174C271.189 55.6668 281.998 56.9392 291.961 63.8432C298.398 68.304 298.524 70.5375 292.231 74.8632C290.899 75.7791 289.708 76.9009 287.503 78.0685C286.098 78.2372 285.642 78.2651 285.186 78.2931C273.594 66.3071 252.763 70.6979 248.526 87.0323C247.634 90.4707 248.178 94.2816 247.888 98.5377C248.105 99.7297 248.495 100.305 248.884 100.88C253.86 111.717 262.794 115.454 273.899 113.656C277.696 113.042 281.076 109.849 285.597 107.692C287.004 107.522 287.46 107.494 287.915 107.466Z" fill="#E7E8E9"/>
<path d="M248.959 100.573C248.495 100.305 248.105 99.7297 247.938 98.9937C248.451 99.3103 248.743 99.7878 248.959 100.573Z" fill="#E7E8E9"/>
<path d="M287.731 107.18C287.46 107.494 287.004 107.522 285.864 107.516C285.969 107.285 286.758 107.089 287.731 107.18Z" fill="#E7E8E9"/>
<path d="M285.371 78.5802C285.642 78.2655 286.098 78.2375 287.237 78.2439C287.132 78.4745 286.344 78.6707 285.371 78.5802Z" fill="#E7E8E9"/>
<path d="M71.1777 27.9778C71.5412 27.5626 72.1065 27.3255 72.6718 27.0884C72.5305 27.4259 72.3892 27.7634 72.026 28.2939C71.6625 28.3765 71.521 28.2662 71.1777 27.9778Z" fill="black"/>
<path d="M390.085 174.88H384.812L392.846 151.607H399.187L407.21 174.88H401.937L396.108 156.925H395.926L390.085 174.88ZM389.755 165.732H402.21V169.573H389.755V165.732ZM440.349 159.13C440.19 158.577 439.967 158.088 439.679 157.664C439.391 157.232 439.038 156.869 438.622 156.573C438.213 156.27 437.743 156.039 437.213 155.88C436.69 155.721 436.11 155.641 435.474 155.641C434.285 155.641 433.239 155.937 432.338 156.528C431.444 157.119 430.747 157.978 430.247 159.107C429.747 160.228 429.497 161.6 429.497 163.221C429.497 164.842 429.743 166.221 430.235 167.357C430.728 168.494 431.425 169.361 432.326 169.959C433.228 170.55 434.292 170.846 435.52 170.846C436.633 170.846 437.584 170.649 438.372 170.255C439.167 169.853 439.773 169.289 440.19 168.562C440.614 167.834 440.826 166.975 440.826 165.982L441.826 166.13H435.826V162.425H445.565V165.357C445.565 167.403 445.133 169.16 444.27 170.63C443.406 172.092 442.217 173.221 440.701 174.016C439.186 174.804 437.451 175.198 435.497 175.198C433.315 175.198 431.398 174.717 429.747 173.755C428.095 172.785 426.807 171.41 425.883 169.63C424.967 167.842 424.508 165.721 424.508 163.266C424.508 161.38 424.781 159.698 425.326 158.221C425.879 156.736 426.652 155.478 427.645 154.448C428.637 153.418 429.792 152.634 431.11 152.096C432.429 151.558 433.857 151.289 435.395 151.289C436.713 151.289 437.94 151.482 439.076 151.869C440.213 152.247 441.22 152.785 442.099 153.482C442.985 154.179 443.709 155.009 444.27 155.971C444.83 156.925 445.19 157.978 445.349 159.13H440.349ZM465.261 174.88V151.607H480.943V155.664H470.181V161.209H480.136V165.266H470.181V170.823H480.988V174.88H465.261ZM520.321 151.607V174.88H516.071L505.946 160.232H505.775V174.88H500.855V151.607H505.173L515.218 166.244H515.423V151.607H520.321ZM560.92 159.755H555.943C555.852 159.111 555.666 158.539 555.386 158.039C555.106 157.531 554.746 157.1 554.306 156.744C553.867 156.387 553.359 156.115 552.784 155.925C552.216 155.736 551.598 155.641 550.931 155.641C549.727 155.641 548.678 155.94 547.784 156.539C546.89 157.13 546.197 157.994 545.704 159.13C545.212 160.259 544.966 161.63 544.966 163.244C544.966 164.903 545.212 166.297 545.704 167.425C546.204 168.554 546.901 169.406 547.795 169.982C548.689 170.558 549.723 170.846 550.897 170.846C551.556 170.846 552.166 170.759 552.727 170.584C553.295 170.41 553.799 170.156 554.238 169.823C554.678 169.482 555.041 169.069 555.329 168.584C555.625 168.1 555.829 167.547 555.943 166.925L560.92 166.948C560.791 168.016 560.469 169.047 559.954 170.039C559.447 171.024 558.761 171.906 557.897 172.687C557.041 173.459 556.019 174.073 554.829 174.528C553.647 174.975 552.31 175.198 550.818 175.198C548.742 175.198 546.886 174.728 545.25 173.789C543.621 172.85 542.333 171.49 541.386 169.709C540.447 167.929 539.977 165.774 539.977 163.244C539.977 160.706 540.454 158.547 541.409 156.766C542.363 154.986 543.659 153.63 545.295 152.698C546.931 151.759 548.772 151.289 550.818 151.289C552.166 151.289 553.416 151.478 554.568 151.857C555.727 152.236 556.753 152.789 557.647 153.516C558.541 154.236 559.269 155.119 559.829 156.164C560.397 157.209 560.761 158.406 560.92 159.755ZM579.085 151.607H584.596L589.903 161.63H590.13L595.437 151.607H600.949L592.46 166.653V174.88H587.574V166.653L579.085 151.607Z" fill="white"/>
</svg>
