<svg width="1655" height="325" viewBox="0 0 1655 325" fill="none" xmlns="http://www.w3.org/2000/svg">
<path fill-rule="evenodd" clip-rule="evenodd" d="M160 320C248.366 320 320 248.366 320 160C320 71.6344 248.366 0 160 0C71.6344 0 0 71.6344 0 160C0 248.366 71.6344 320 160 320ZM160 282.105C227.437 282.105 282.105 227.437 282.105 160C282.105 92.5631 227.437 37.8947 160 37.8947C92.5631 37.8947 37.8947 92.5631 37.8947 160C37.8947 227.437 92.5631 282.105 160 282.105Z" fill="url(#paint0_angular_97_43)"/>
<path d="M521.701 123.444C521.701 132.965 519.456 141.948 514.964 150.391C510.473 158.835 503.287 165.751 493.406 171.141C483.526 176.351 470.86 178.956 455.411 178.956H421.457V254.947H390.737V67.663H455.411C469.783 67.663 481.909 70.1781 491.79 75.2083C501.85 80.0588 509.305 86.7058 514.156 95.1494C519.186 103.593 521.701 113.024 521.701 123.444ZM455.411 153.895C467.088 153.895 475.801 151.29 481.55 146.08C487.298 140.69 490.173 133.145 490.173 123.444C490.173 102.964 478.585 92.7241 455.411 92.7241H421.457V153.895H455.411ZM540.76 180.034C540.76 165.123 543.814 151.918 549.922 140.421C556.21 128.923 564.653 120.031 575.253 113.743C586.032 107.276 597.888 104.042 610.823 104.042C622.5 104.042 632.651 106.377 641.274 111.048C650.077 115.54 657.083 121.198 662.293 128.025V106.467H693.282V254.947H662.293V232.85C657.083 239.857 649.987 245.695 641.004 250.366C632.022 255.037 621.782 257.373 610.284 257.373C597.529 257.373 585.852 254.139 575.253 247.671C564.653 241.024 556.21 231.862 549.922 220.185C543.814 208.328 540.76 194.944 540.76 180.034ZM662.293 180.573C662.293 170.333 660.137 161.44 655.825 153.895C651.693 146.349 646.214 140.601 639.387 136.648C632.561 132.696 625.195 130.72 617.291 130.72C609.386 130.72 602.02 132.696 595.194 136.648C588.367 140.421 582.798 146.08 578.486 153.625C574.354 160.991 572.288 169.794 572.288 180.034C572.288 190.274 574.354 199.256 578.486 206.981C582.798 214.706 588.367 220.634 595.194 224.766C602.2 228.718 609.566 230.695 617.291 230.695C625.195 230.695 632.561 228.718 639.387 224.766C646.214 220.814 651.693 215.065 655.825 207.52C660.137 199.795 662.293 190.813 662.293 180.573ZM867.291 106.467L776.209 324.741H744.411L774.592 252.522L716.116 106.467H750.339L792.107 219.646L835.493 106.467H867.291ZM954.878 257.373C940.865 257.373 928.2 254.229 916.882 247.941C905.564 241.474 896.672 232.491 890.204 220.994C883.737 209.316 880.503 195.843 880.503 180.573C880.503 165.482 883.827 152.098 890.474 140.421C897.121 128.744 906.193 119.761 917.691 113.474C929.188 107.186 942.033 104.042 956.225 104.042C970.418 104.042 983.263 107.186 994.76 113.474C1006.26 119.761 1015.33 128.744 1021.98 140.421C1028.62 152.098 1031.95 165.482 1031.95 180.573C1031.95 195.663 1028.53 209.047 1021.71 220.724C1014.88 232.401 1005.54 241.474 993.682 247.941C982.005 254.229 969.07 257.373 954.878 257.373ZM954.878 230.695C962.783 230.695 970.148 228.808 976.975 225.036C983.981 221.263 989.64 215.604 993.952 208.059C998.263 200.514 1000.42 191.351 1000.42 180.573C1000.42 169.794 998.353 160.721 994.221 153.356C990.089 145.81 984.61 140.151 977.783 136.379C970.957 132.606 963.591 130.72 955.686 130.72C947.782 130.72 940.416 132.606 933.59 136.379C926.943 140.151 921.643 145.81 917.691 153.356C913.738 160.721 911.762 169.794 911.762 180.573C911.762 196.561 915.804 208.957 923.889 217.76C932.152 226.383 942.482 230.695 954.878 230.695ZM1137.23 104.042C1148.91 104.042 1159.33 106.467 1168.49 111.318C1177.83 116.168 1185.11 123.354 1190.32 132.876C1195.53 142.397 1198.13 153.895 1198.13 167.368V254.947H1167.68V171.949C1167.68 158.655 1164.36 148.505 1157.71 141.499C1151.06 134.313 1141.99 130.72 1130.49 130.72C1119 130.72 1109.83 134.313 1103.01 141.499C1096.36 148.505 1093.04 158.655 1093.04 171.949V254.947H1062.32V106.467H1093.04V123.444C1098.07 117.336 1104.44 112.575 1112.17 109.162C1120.07 105.749 1128.43 104.042 1137.23 104.042ZM1373.4 177.069C1373.4 182.638 1373.04 187.669 1372.32 192.16H1258.87C1259.77 204.017 1264.17 213.538 1272.08 220.724C1279.98 227.91 1289.68 231.503 1301.18 231.503C1317.71 231.503 1329.39 224.587 1336.21 210.754H1369.36C1364.87 224.407 1356.69 235.635 1344.84 244.438C1333.16 253.061 1318.61 257.373 1301.18 257.373C1286.99 257.373 1274.23 254.229 1262.92 247.941C1251.78 241.474 1242.97 232.491 1236.51 220.994C1230.22 209.316 1227.08 195.843 1227.08 180.573C1227.08 165.302 1230.13 151.918 1236.24 140.421C1242.53 128.744 1251.24 119.761 1262.38 113.474C1273.69 107.186 1286.63 104.042 1301.18 104.042C1315.19 104.042 1327.68 107.096 1338.64 113.204C1349.6 119.312 1358.13 127.935 1364.24 139.074C1370.35 150.032 1373.4 162.697 1373.4 177.069ZM1341.33 167.368C1341.15 156.05 1337.11 146.978 1329.21 140.151C1321.3 133.325 1311.51 129.911 1299.83 129.911C1289.23 129.911 1280.16 133.325 1272.62 140.151C1265.07 146.798 1260.58 155.871 1259.14 167.368H1341.33ZM1539.72 177.069C1539.72 182.638 1539.36 187.669 1538.64 192.16H1425.19C1426.09 204.017 1430.49 213.538 1438.39 220.724C1446.3 227.91 1456 231.503 1467.5 231.503C1484.02 231.503 1495.7 224.587 1502.53 210.754H1535.67C1531.18 224.407 1523.01 235.635 1511.15 244.438C1499.47 253.061 1484.92 257.373 1467.5 257.373C1453.3 257.373 1440.55 254.229 1429.23 247.941C1418.09 241.474 1409.29 232.491 1402.82 220.994C1396.54 209.316 1393.39 195.843 1393.39 180.573C1393.39 165.302 1396.45 151.918 1402.55 140.421C1408.84 128.744 1417.55 119.761 1428.69 113.474C1440.01 107.186 1452.95 104.042 1467.5 104.042C1481.51 104.042 1494 107.096 1504.95 113.204C1515.91 119.312 1524.45 127.935 1530.55 139.074C1536.66 150.032 1539.72 162.697 1539.72 177.069ZM1507.65 167.368C1507.47 156.05 1503.43 146.978 1495.52 140.151C1487.62 133.325 1477.83 129.911 1466.15 129.911C1455.55 129.911 1446.48 133.325 1438.93 140.151C1431.39 146.798 1426.9 155.871 1425.46 167.368H1507.65ZM1600.67 128.025C1605.16 120.48 1611.09 114.641 1618.45 110.509C1626 106.198 1634.89 104.042 1645.13 104.042V135.84H1637.32C1625.28 135.84 1616.12 138.894 1609.83 145.002C1603.72 151.11 1600.67 161.709 1600.67 176.8V254.947H1569.95V106.467H1600.67V128.025Z" fill="white"/>
<defs>
<radialGradient id="paint0_angular_97_43" cx="0" cy="0" r="1" gradientUnits="userSpaceOnUse" gradientTransform="translate(148.947 184.211) rotate(-156.388) scale(296.968)">
<stop stop-color="#FD4611"/>
<stop offset="0.2" stop-color="#C9D80B"/>
<stop offset="0.4" stop-color="#15D691"/>
<stop offset="0.6" stop-color="#0590F1"/>
<stop offset="0.8" stop-color="#D652D7"/>
<stop offset="1" stop-color="#FF4402"/>
</radialGradient>
</defs>
</svg>
