<svg width="581" height="166" viewBox="0 0 581 166" fill="none" xmlns="http://www.w3.org/2000/svg">
<path d="M139.174 32.378L103.204 6.50774C91.142 -2.16925 74.881 -2.16925 62.8119 6.50774L26.8336 32.378C17.8066 38.8721 12.4501 49.3106 12.4501 60.4307V105.569C12.4501 116.689 17.7989 127.128 26.8336 133.622L62.8042 159.492C74.8657 168.169 91.1267 168.169 103.196 159.492L139.166 133.622C148.194 127.128 153.55 116.689 153.55 105.569V60.4307C153.55 49.3106 148.201 38.8721 139.174 32.378ZM70.8887 17.7273C78.1301 12.5196 87.8852 12.5196 95.1193 17.7273L125.442 39.531C127.634 41.1083 127.634 44.3632 125.442 45.9408L95.1193 67.7443C87.8775 72.9522 78.1225 72.9522 70.8887 67.7443L40.5659 45.9408C38.3741 44.3632 38.3741 41.1083 40.5659 39.531L70.8887 17.7273ZM139.726 105.562C139.726 112.232 136.515 118.497 131.097 122.395L95.1269 148.265C87.8852 153.473 78.1301 153.473 70.8964 148.265L34.9258 122.395C29.5081 118.497 26.2972 112.232 26.2972 105.562V60.423C26.2972 60.4001 26.2972 60.3771 26.2972 60.3541C26.3049 57.1605 29.9449 55.3224 32.535 57.1835L62.8195 78.964C74.881 87.641 91.142 87.641 103.211 78.964L133.496 57.1835C136.094 55.3147 139.726 57.1528 139.734 60.3541C139.734 60.3771 139.734 60.4001 139.734 60.423V105.562H139.726Z" fill="#225AEA"/>
<path d="M103.007 92.5731C96.9909 93.7526 92.9986 98.5085 90.033 103.977C89.1592 105.585 89.2205 107.607 90.5769 108.687C91.5809 109.483 92.9067 109.437 93.8797 108.602C97.6042 105.432 101.949 103.64 104.761 103.027C107.574 102.414 112.195 102.246 116.677 103.624C117.857 103.984 119.099 103.463 119.773 102.307C120.693 100.729 120.08 98.8453 118.762 97.6967C113.965 93.5228 109.114 91.3709 103.007 92.5731Z" fill="#225AEA"/>
<path d="M63.0545 92.5731C69.0697 93.7526 73.0623 98.5085 76.028 103.977C76.9014 105.585 76.8401 107.607 75.4837 108.687C74.4801 109.483 73.1543 109.437 72.181 108.602C68.4568 105.432 64.1118 103.64 61.2993 103.027C58.4872 102.414 53.8664 102.246 49.3834 103.624C48.2032 103.984 46.9617 103.463 46.2875 102.307C45.3681 100.729 45.981 98.8453 47.2991 97.6967C52.0962 93.5228 56.9469 91.3709 63.0545 92.5731Z" fill="#225AEA"/>
<path d="M185.154 111.537H208.131C215.759 111.537 222.378 109.989 227.989 106.894C233.599 103.799 237.949 99.5419 241.038 94.1246C244.127 88.643 245.671 82.4196 245.671 75.4547C245.671 68.4894 244.127 62.2985 241.038 56.8812C237.949 51.4638 233.599 47.2075 227.989 44.1119C222.378 41.0164 215.759 39.4684 208.131 39.4684H185.154V111.537ZM199.81 98.4779V52.5278H208.51C213.111 52.5278 217.083 53.4632 220.424 55.3332C223.765 57.2036 226.35 59.8478 228.178 63.2658C230.069 66.6838 231.015 70.7466 231.015 75.4547C231.015 80.0979 230.069 84.1607 228.178 87.6432C226.35 91.0615 223.765 93.7376 220.424 95.6725C217.083 97.5429 213.111 98.4779 208.51 98.4779H199.81Z" fill="white"/>
<path d="M251.18 111.537H265.364V83.0967C265.364 79.1628 266.435 76.1318 268.579 74.0034C270.722 71.811 273.527 70.7144 276.994 70.7144H281.439V58.1386H278.413C275.261 58.1386 272.455 58.7512 269.997 59.9768C267.602 61.1375 265.742 63.3625 264.418 66.6516V58.719H251.18V111.537Z" fill="white"/>
<path d="M310.444 112.698C315.55 112.698 320.182 111.505 324.345 109.119C328.504 106.733 331.815 103.476 334.273 99.3484C336.795 95.1566 338.056 90.4164 338.056 85.1283C338.056 79.7755 336.795 75.0355 334.273 70.9079C331.815 66.7805 328.504 63.5237 324.345 61.1375C320.182 58.7512 315.55 57.5583 310.444 57.5583C305.338 57.5583 300.673 58.7512 296.449 61.1375C292.288 63.5237 288.947 66.7805 286.426 70.9079C283.967 75.0355 282.738 79.7755 282.738 85.1283C282.738 90.4164 283.967 95.1566 286.426 99.3484C288.947 103.476 292.288 106.733 296.449 109.119C300.673 111.505 305.338 112.698 310.444 112.698ZM310.444 99.6386C306.598 99.6386 303.446 98.2845 300.988 95.5758C298.592 92.8671 297.394 89.3846 297.394 85.1283C297.394 80.9362 298.592 77.4859 300.988 74.7773C303.446 72.0044 306.598 70.6177 310.444 70.6177C314.289 70.6177 317.409 72.0044 319.805 74.7773C322.2 77.4859 323.397 80.9362 323.397 85.1283C323.397 89.3846 322.2 92.8671 319.805 95.5758C317.409 98.2845 314.289 99.6386 310.444 99.6386Z" fill="white"/>
<path d="M343.575 130.885H357.759V107.474C359.585 109.216 361.762 110.538 364.281 111.441C366.866 112.279 369.609 112.698 372.507 112.698C377.551 112.698 382.059 111.473 386.03 109.022C390.001 106.571 393.123 103.25 395.393 99.0583C397.723 94.8664 398.892 90.2229 398.892 85.1283C398.892 79.9689 397.723 75.3257 395.393 71.198C393.059 67.0062 389.908 63.6849 385.937 61.2342C381.963 58.7835 377.519 57.5583 372.603 57.5583C365.733 57.5583 360.469 59.7833 356.811 64.2331V58.719H343.575V130.885ZM370.806 99.6386C366.962 99.6386 363.808 98.3167 361.35 95.6725C358.956 92.9638 357.759 89.4491 357.759 85.1283C357.759 80.8717 358.956 77.3892 361.35 74.6805C363.808 71.9722 366.962 70.6177 370.806 70.6177C374.716 70.6177 377.931 72.0044 380.453 74.7773C382.972 77.4859 384.233 80.9362 384.233 85.1283C384.233 89.3846 382.972 92.8671 380.453 95.5758C377.931 98.2845 374.716 99.6386 370.806 99.6386Z" fill="white"/>
<path d="M424.596 112.698C430.585 112.698 435.408 111.183 439.064 108.152C442.719 105.12 444.548 101.154 444.548 96.2529C444.548 92.448 443.415 89.2556 441.145 86.6759C438.875 84.0318 435.597 82.065 431.309 80.775L423.083 78.2601C419.364 77.1635 417.503 75.5836 417.503 73.5198C417.503 72.1656 418.007 71.1013 419.016 70.3275C420.089 69.5537 421.538 69.1668 423.367 69.1668C425.889 69.1668 428.127 69.8439 430.08 71.198C432.098 72.488 433.483 74.2291 434.24 76.4219L444.736 71.3915C443.163 67.0062 440.449 63.6205 436.606 61.2342C432.823 58.7835 428.411 57.5583 423.367 57.5583C419.52 57.5583 416.117 58.2676 413.155 59.6866C410.192 61.0408 407.891 62.9434 406.253 65.3938C404.612 67.8445 403.792 70.7144 403.792 74.0034C403.792 77.7439 404.928 81.0007 407.198 83.7738C409.468 86.4825 412.714 88.4496 416.938 89.6748L425.729 92.19C429.136 93.1573 430.837 94.7052 430.837 96.8332C430.837 99.9933 428.756 101.573 424.596 101.573C421.822 101.573 419.3 100.767 417.03 99.155C414.761 97.5429 412.966 95.3178 411.642 92.4802L401.241 97.5106C402.754 102.154 405.589 105.862 409.752 108.635C413.975 111.344 418.923 112.698 424.596 112.698Z" fill="white"/>
<path d="M450.189 111.537H464.372V80.6782C464.372 77.6471 465.253 75.229 467.019 73.4231C468.784 71.5527 471.054 70.6177 473.828 70.6177C476.602 70.6177 478.872 71.5527 480.637 73.4231C482.402 75.229 483.283 77.6471 483.283 80.6782V111.537H497.467V77.5827C497.467 73.5843 496.646 70.1018 495.009 67.1352C493.371 64.1041 491.069 61.7501 488.107 60.0735C485.205 58.3966 481.802 57.5583 477.895 57.5583C474.993 57.5583 472.379 58.0741 470.045 59.1062C467.715 60.0735 465.822 61.5889 464.372 63.6527V38.3077H450.189V111.537Z" fill="white"/>
<path d="M503.957 53.979H518.14V39.4684H503.957V53.979ZM503.957 111.537H518.14V58.719H503.957V111.537Z" fill="white"/>
<path d="M525.684 130.885H539.867V107.474C541.696 109.216 543.87 110.538 546.392 111.441C548.975 112.279 551.717 112.698 554.619 112.698C559.663 112.698 564.17 111.473 568.141 109.022C572.113 106.571 575.231 103.25 577.501 99.0583C579.835 94.8664 581 90.2229 581 85.1283C581 79.9689 579.835 75.3257 577.501 71.198C575.168 67.0062 572.017 63.6849 568.046 61.2342C564.074 58.7835 559.631 57.5583 554.711 57.5583C547.841 57.5583 542.577 59.7833 538.922 64.2331V58.719H525.684V130.885ZM552.917 99.6386C549.071 99.6386 545.92 98.3167 543.462 95.6725C541.064 92.9638 539.867 89.4491 539.867 85.1283C539.867 80.8717 541.064 77.3892 543.462 74.6805C545.92 71.9722 549.071 70.6177 552.917 70.6177C556.825 70.6177 560.039 72.0044 562.561 74.7773C565.083 77.4859 566.344 80.9362 566.344 85.1283C566.344 89.3846 565.083 92.8671 562.561 95.5758C560.039 98.2845 556.825 99.6386 552.917 99.6386Z" fill="white"/>
</svg>
