<svg width="632" height="120" viewBox="0 0 632 120" fill="none" xmlns="http://www.w3.org/2000/svg">
<path d="M188.989 19.814C173.975 6.36167 156.709 -0.777992 136.292 0.0673735C122.132 0.655454 109.975 5.56225 99.7203 15.3483C93.6373 21.1648 88.2986 27.5877 83.2908 34.3139C81.7838 36.3538 80.4423 36.8132 78.7331 34.6355C78.1726 33.9187 77.4559 33.3307 76.8403 32.6507C70.2335 25.3089 63.3787 18.1876 55.3478 12.3803C50.3858 8.80588 45.0104 5.90223 38.7253 5.38766C26.4675 4.38609 14.1821 5.15794 1.90597 4.97417C1.24438 4.96498 0.362263 4.98336 0.251998 5.83791C0.123355 6.86705 1.07899 7.41838 1.69463 8.06159C19.7505 26.8158 37.8064 45.5793 55.8899 64.3151C59.3265 67.8712 59.3908 67.8252 56.3953 71.7396C44.9001 86.7724 32.4035 101.024 21.3218 116.388C20.8256 117.077 19.7505 117.674 20.3754 118.722C20.844 119.494 21.818 119.282 22.599 119.31C31.4203 119.613 40.2415 120.247 49.081 119.898C60.2086 119.466 69.5536 115.598 76.2797 106.197C79.4131 101.833 83.1437 97.8908 86.6538 93.8018C90.8347 88.9226 95.0891 84.1169 98.8014 78.8609C99.2516 78.2269 99.904 77.5377 99.4905 76.6924C99.0219 75.7459 98.1122 76.1686 97.3404 76.2237C84.3934 77.1702 73.0912 73.5039 63.8933 64.1405C52.876 52.9211 41.7668 41.7935 30.9976 30.3535C25.8059 24.8311 20.4121 19.52 15.2389 13.9975C14.5865 13.3084 13.1898 12.757 13.7778 11.5809C14.2097 10.7079 15.4502 11.1031 16.3323 11.0939C22.305 11.0755 28.2869 11.3787 34.232 11.002C40.3242 10.6161 45.5342 12.5457 50.3675 15.8628C60.1994 22.6074 68.5152 31.1254 75.9398 40.2682C86.562 53.3438 100.979 57.9106 116.021 53.9686C125.697 51.4325 133.912 46.296 140.73 39.0277C143.275 36.3078 146.022 35.9954 149.119 37.3921C162.893 43.6496 171.19 54.4372 171.512 69.4425C172.054 94.491 155.909 108.017 131.054 105.848C126.175 105.416 121.286 105.178 116.407 104.847C119.844 108.78 123.933 111.334 128.178 113.521C140.022 119.641 152.51 121.543 165.53 118.124C178.826 114.624 189.182 106.951 197.185 95.7958C212.613 74.2757 211.759 40.213 188.989 19.814ZM66.1537 73.5314C72.0805 77.5929 78.5953 80.3863 85.7625 81.4797C86.6447 81.6176 87.8025 81.5992 88.1241 82.564C88.4732 83.5931 87.3338 84.1077 86.7733 84.7785C81.1957 91.4679 75.5998 98.1389 70.0038 104.819C65.2533 110.498 59.2438 113.668 51.7825 113.751C44.9369 113.815 38.0821 113.76 30.6851 113.76C33.7542 108.927 37.2275 104.883 40.5447 100.721C47.5465 91.9365 54.6494 83.2348 61.5318 74.3493C63.0755 72.3645 64.0036 72.0612 66.1537 73.5314ZM144.414 26.6596C140.16 30.1789 137.422 35.1041 133.048 38.5682C124.539 45.3128 115.369 50.1185 104.177 49.7142C97.809 49.4753 92.0752 47.3343 86.9938 43.475C85.8177 42.5745 84.8161 41.6832 86.0198 40.0936C94.8318 28.4606 103.607 16.7817 117.216 10.1658C125.495 6.15033 134.371 5.24983 143.385 5.72765C153.989 6.29735 163.895 9.33883 173.001 14.8521C173.754 15.3115 174.7 15.578 175.178 17.186C163.196 15.3575 153.263 19.3362 144.414 26.6596ZM189.513 96.4758C181.169 106.547 170.437 112.262 157.37 113.797C151.435 114.504 145.829 113.245 140.243 111.839C144.378 110.939 148.632 110.397 152.629 109.064C164.299 105.15 171.503 96.5676 175.077 85.192C180.388 68.303 176.658 53.2611 164.234 40.553C160.678 36.9143 156.305 34.2863 151.609 32.375C148.595 31.1529 149.174 30.2157 151.214 28.5893C161.515 20.3653 177.246 20.8615 188.272 29.2233C196.432 35.4165 199.721 43.9988 201.219 53.4173C203.774 69.4149 199.905 83.9331 189.513 96.4758Z" fill="#CFCFCF"/>
<path d="M538.896 59.7736C543.371 59.7736 547.846 59.8287 552.321 59.7552C554.627 59.7185 555.73 60.619 555.583 63.0172C554.526 80.7699 543.95 94.7644 526.372 98.3572C505.596 102.602 484.94 87.3399 481.77 66.3895C478.774 46.5969 491.923 25.4536 513.802 22.2835C526.078 20.5101 537.233 23.6342 546.89 31.656C548.416 32.9241 548.37 33.99 547.184 35.405C545.521 37.3898 544.345 36.278 542.939 35.0283C529.946 23.4688 508.04 24.0477 496.214 36.2688C479.224 53.8285 485.399 85.7962 511.119 93.1472C528.66 98.1642 546.688 87.0091 549.822 69.1737C550.502 65.3236 549.978 64.6345 546.137 64.6161C539.365 64.5793 532.593 64.6161 525.821 64.5885C524.01 64.5885 521.842 64.8642 521.97 62.0157C522.09 59.3877 524.167 59.8104 525.821 59.792C530.185 59.7369 534.541 59.7736 538.905 59.7736H538.896Z" fill="#CFCFCF"/>
<path d="M415.069 49.1514C415.069 55.6938 415.033 62.2361 415.079 68.7785C415.152 78.4175 418.708 86.4393 427.336 91.1623C435.965 95.8854 444.96 95.2605 453.258 90.1608C461.004 85.401 463.77 77.5538 463.944 68.9347C464.22 55.2803 464.036 41.6166 464.055 27.9529C464.055 26.8043 464.073 25.6557 464.238 24.5255C464.45 23.1472 465.479 22.6969 466.756 22.7061C468.024 22.7061 469.044 23.138 469.292 24.5163C469.439 25.2973 469.467 26.1151 469.467 26.9146C469.476 40.2291 469.641 53.5528 469.384 66.8581C469.283 72.1049 468.392 77.3425 466.278 82.286C462.787 90.4732 456.731 95.7016 448.149 97.7691C436.727 100.526 426.188 98.9085 417.651 90.1516C412.175 84.5372 409.896 77.3149 409.712 69.7342C409.354 55.3905 409.584 41.0377 409.584 26.694C409.584 24.8379 409.464 22.798 412.166 22.7061C415.088 22.6142 415.033 24.746 415.033 26.7584C415.042 34.2196 415.033 41.6809 415.033 49.1422L415.069 49.1514Z" fill="#CFCFCF"/>
<path d="M570.616 59.02C570.616 74.7787 577.048 85.3733 589.913 91.1714C602.979 97.0523 615.448 94.654 626.576 85.6398C627.899 84.5647 628.901 83.4529 630.564 85.2631C632.172 87.0181 631.703 88.2678 630.123 89.5634C622.266 96.0323 613.169 99.1932 603.08 98.936C588.24 98.5592 576.764 91.9433 569.78 78.7758C557.504 55.6569 570.736 29.2117 592.826 23.4228C605.938 19.9862 618.04 22.1455 628.937 30.3511C629.489 30.7646 629.994 31.2332 630.509 31.6927C631.694 32.7494 632.098 33.7969 630.849 35.2028C629.553 36.6638 628.597 36.5168 627.127 35.3314C618.894 28.6696 609.54 25.9313 598.909 27.0248C582.893 28.6696 569.21 44.3272 570.607 59.0384L570.616 59.02Z" fill="#CFCFCF"/>
<path d="M289.073 81.1926C291.315 70.598 287.06 62.1351 280.913 53.8836C274.407 45.1543 268.619 35.8829 262.628 26.7768C261.948 25.7385 259.954 24.2867 261.856 23.0278C263.454 21.9711 265.531 22.504 266.772 24.1948C268.674 26.7768 270.438 29.4691 272.211 32.143C278.184 41.1296 284.203 50.0795 290.047 59.1488C291.572 61.5195 292.399 61.3449 293.842 59.158C301.046 48.2326 308.332 37.3715 315.601 26.492C316.235 25.5363 316.823 24.5164 317.604 23.6986C318.964 22.2835 320.976 22.063 322.336 23.037C323.926 24.1764 322.152 25.4812 321.491 26.4736C313.221 38.8784 304.914 51.2648 296.534 63.6053C295.11 65.7004 294.448 67.8138 294.476 70.3499C294.577 77.8112 294.568 85.2724 294.476 92.7245C294.448 94.6817 295.459 97.5486 291.885 97.5945C288.053 97.6405 289.201 94.5898 289.119 92.5499C288.972 88.7642 289.073 84.9784 289.073 81.1926Z" fill="#CFCFCF"/>
<path fill-rule="evenodd" clip-rule="evenodd" d="M359.321 99.0003C380.391 99.0371 397.188 82.1298 397.224 60.8486H397.234C398.281 39.0989 379.233 21.6219 359.854 21.8148C338.646 22.0262 321.463 38.6854 321.436 59.6173C321.399 81.7255 337.985 98.9636 359.321 99.0003ZM326.59 60.1781C326.599 81.8544 341.88 93.5884 359.035 94.1765H359.045C377.679 94.2776 392.271 79.4102 392.345 60.2516C392.418 41.5617 377.927 26.6024 359.486 26.7494C340.63 26.8964 326.572 40.3028 326.59 60.1781Z" fill="#FEFEFE"/>
</svg>
