<svg width="1053" height="320" viewBox="0 0 1053 320" fill="none" xmlns="http://www.w3.org/2000/svg">
<path d="M965.213 155.261H928.538C904.873 155.261 891.862 173.035 891.862 203.845V314.064H820.884V155.261H791.311C767.646 155.261 754.636 173.035 754.636 203.845V314.064H683.658V96.0034H754.636V129.191C766.468 103.12 781.835 96.0034 805.5 96.0034H891.845V129.191C903.678 103.12 919.045 96.0034 942.71 96.0034H966.375L965.213 155.261ZM667.129 221.636H520.444C523.995 246.526 539.362 259.562 564.205 259.562C583.124 259.562 596.151 251.265 600.881 238.229L663.578 256.003C648.194 293.929 610.34 316.442 564.222 316.442C487.336 316.442 451.856 256.003 451.856 203.862C451.856 152.9 482.607 92.462 559.493 92.462C641.108 92.462 668.324 154.081 668.324 200.304C668.308 210.961 668.308 216.897 667.129 221.636ZM599.703 180.152C598.525 161.197 584.319 144.604 560.671 144.604C538.201 144.604 525.19 154.081 520.461 180.152H599.703ZM328.818 314.064H390.32L468.384 97.1838H397.44L359.586 223.997L321.732 96.0034H250.754L328.818 314.064ZM40.2102 314.064H109.993V155.261H177.42V314.064H247.203V96.0034H109.993V82.9679C109.993 68.7521 120.647 59.258 136.015 59.258H177.42V0H125.377C74.5126 0 40.2102 32.0068 40.2102 78.2125V95.9865H0V155.245H40.2102V314.064Z" fill="white"/>
<path d="M1008.99 320C1032.66 320 1052.75 299.848 1052.75 276.155C1052.75 252.445 1032.64 232.311 1008.99 232.311C985.327 232.311 965.23 252.462 965.23 276.155C965.214 299.848 985.327 320 1008.99 320Z" fill="#40B071"/>
</svg>
