<svg width="392" height="451" viewBox="0 0 392 451" fill="none" xmlns="http://www.w3.org/2000/svg">
<rect width="392" height="451" fill="#121212"/>
<path d="M223.829 30.4999L203.455 61.0319L183.082 30.4999L223.829 30.4999Z" stroke="white" stroke-width="3" stroke-linecap="square"/>
<path d="M203.457 39.6885L203.457 58.3917" stroke="white" stroke-width="3" stroke-linecap="square"/>
<path d="M222.349 38.4541H184.625" stroke="white" stroke-width="3" stroke-linecap="square"/>
<path d="M32.1758 60.4265V31.3573H43.2636L48.3299 52.7024L53.3963 31.3573H64.4426V60.4265H57.6736V38.5L51.9844 60.4265H44.634L38.9863 38.5V60.4265H32.1758Z" fill="white"/>
<path d="M89.665 60.4265L87.464 53.8236H76.9161L74.7151 60.4265H67.4893L77.9542 31.3573H86.4258L96.8907 60.4265H89.665ZM78.6187 48.7157H85.7614L82.19 37.9186L78.6187 48.7157Z" fill="white"/>
<path d="M99.9206 60.4265V31.3573H113.043C119.895 31.3573 123.923 34.3888 123.923 39.5797C123.923 43.4833 121.349 45.7673 119.314 46.141C121.723 46.5148 123.425 48.0098 123.425 51.0413C123.425 57.6857 123.674 59.0145 125.169 60.4265H117.86C116.781 58.9315 116.49 57.7687 116.49 52.0795C116.49 49.9616 115.078 49.1725 113.209 49.1725H106.856V60.4265H99.9206ZM106.856 43.9401H112.42C115.161 43.9401 116.781 42.5697 116.781 40.2857C116.781 38.0847 115.286 36.5897 112.42 36.5897H106.856V43.9401Z" fill="white"/>
<path d="M155.662 60.4265H147.274L136.186 47.1792V60.4265H129.251V31.3573H136.186V44.0647L147.108 31.3573H155.164L142.955 45.6012L155.662 60.4265Z" fill="white"/>
<path d="M158.014 60.4265V31.3573H179.068V36.7558H164.949V43.0265H178.03V48.4251H164.949V55.0279H179.276V60.4265H158.014Z" fill="white"/>
<path d="M227.987 60.4265V31.3573H241.193C248.502 31.3573 252.032 34.7625 252.032 40.2857C252.032 45.8088 248.502 49.1725 241.193 49.1725H234.922V60.4265H227.987ZM234.922 43.9401H240.57C243.602 43.9401 244.889 42.279 244.889 40.2857C244.889 38.3339 243.602 36.5897 240.57 36.5897H234.922V43.9401Z" fill="white"/>
<path d="M255.574 60.4265V31.3573H262.509V54.8618H276.338V60.4265H255.574Z" fill="white"/>
<path d="M299.599 60.4265L297.398 53.8236H286.85L284.649 60.4265H277.423L287.888 31.3573H296.36L306.825 60.4265H299.599ZM288.553 48.7157H295.695L292.124 37.9186L288.553 48.7157Z" fill="white"/>
<path d="M322.133 61.0494C313.204 61.0494 307.473 54.7788 307.473 45.9749C307.473 37.0881 313.204 30.7344 322.133 30.7344C329.192 30.7344 333.553 34.3888 334.881 39.4967H327.407C326.617 37.5864 324.873 36.3406 322.133 36.3406C317.523 36.3406 314.907 40.1611 314.907 45.9749C314.907 51.7472 317.523 55.4432 322.133 55.4432C324.873 55.4432 326.617 54.1143 327.407 52.0795H334.881C333.553 57.3119 329.192 61.0494 322.133 61.0494Z" fill="white"/>
<path d="M338.739 60.4265V31.3573H359.793V36.7558H345.674V43.0265H358.755V48.4251H345.674V55.0279H360.001V60.4265H338.739Z" fill="white"/>
<path d="M171 122V109H174.089V122H171Z" fill="white"/>
<path d="M180.248 122V116.93L175.402 109H178.731L181.802 114.274L184.891 109H188.22L183.337 116.93V122H180.248Z" fill="white"/>
<path d="M201.269 122H197.533L192.594 116.076V122H189.505V109H192.594V114.683L197.459 109H201.047L195.609 115.37L201.269 122Z" fill="white"/>
<path d="M205.979 122V116.93L201.133 109H204.462L207.533 114.274L210.622 109H213.951L209.068 116.93V122H205.979Z" fill="white"/>
<path d="M227 122H223.264L218.325 116.076V122H215.236V109H218.325V114.683L223.19 109H226.778L221.34 115.37L227 122Z" fill="white"/>
<path d="M116.115 425.375C113.449 425.375 111.307 424.533 109.69 422.85C108.09 421.167 107.29 418.983 107.29 416.3C107.29 413.6 108.09 411.4 109.69 409.7C111.307 407.983 113.449 407.125 116.115 407.125C118.165 407.125 119.849 407.608 121.165 408.575C122.499 409.525 123.374 410.8 123.79 412.4H119.29C118.774 411.133 117.715 410.5 116.115 410.5C114.749 410.5 113.682 411.025 112.915 412.075C112.149 413.125 111.765 414.533 111.765 416.3C111.765 418.05 112.149 419.442 112.915 420.475C113.682 421.492 114.749 422 116.115 422C117.715 422 118.774 421.325 119.29 419.975H123.79C123.374 421.608 122.499 422.917 121.165 423.9C119.849 424.883 118.165 425.375 116.115 425.375ZM140.413 422.825C138.813 424.525 136.704 425.375 134.088 425.375C131.471 425.375 129.363 424.525 127.763 422.825C126.163 421.125 125.363 418.933 125.363 416.25C125.363 413.567 126.163 411.375 127.763 409.675C129.363 407.975 131.471 407.125 134.088 407.125C136.704 407.125 138.813 407.975 140.413 409.675C142.013 411.375 142.813 413.567 142.813 416.25C142.813 418.933 142.013 421.125 140.413 422.825ZM130.963 420.45C131.713 421.483 132.754 422 134.088 422C135.421 422 136.463 421.483 137.213 420.45C137.963 419.417 138.337 418.017 138.337 416.25C138.337 414.5 137.954 413.108 137.187 412.075C136.438 411.025 135.404 410.5 134.088 410.5C132.771 410.5 131.729 411.025 130.963 412.075C130.213 413.108 129.838 414.5 129.838 416.25C129.838 418.017 130.213 419.417 130.963 420.45ZM145.405 425V407.5H152.08L155.13 420.35L158.18 407.5H164.83V425H160.755V411.8L157.33 425H152.905L149.505 411.8V425H145.405ZM168.19 425V407.5H172.365V425H168.19ZM175.739 425V407.5H180.814L187.164 419.3V407.5H191.339V425H186.264L179.914 413.2V425H175.739ZM202.441 415.075H210.791V425H206.916V423.125C205.716 424.625 204.099 425.375 202.066 425.375C199.582 425.375 197.607 424.533 196.141 422.85C194.674 421.167 193.941 418.983 193.941 416.3C193.941 413.6 194.741 411.4 196.341 409.7C197.957 407.983 200.099 407.125 202.766 407.125C204.849 407.125 206.574 407.617 207.941 408.6C209.307 409.583 210.191 410.85 210.591 412.4H206.116C205.582 411.133 204.466 410.5 202.766 410.5C201.399 410.5 200.332 411.025 199.566 412.075C198.799 413.125 198.416 414.533 198.416 416.3C198.416 418.1 198.841 419.5 199.691 420.5C200.541 421.5 201.716 422 203.216 422C205.049 422 206.282 421.392 206.916 420.175V418.225H202.441V415.075ZM226.041 425.375C223.757 425.375 221.932 424.883 220.566 423.9C219.216 422.917 218.407 421.608 218.141 419.975H222.541C222.724 420.658 223.107 421.2 223.691 421.6C224.291 422 225.074 422.2 226.041 422.2C227.041 422.2 227.782 422.017 228.266 421.65C228.766 421.283 229.016 420.792 229.016 420.175C229.016 419.658 228.757 419.233 228.241 418.9C227.724 418.567 227.082 418.333 226.316 418.2C225.549 418.05 224.707 417.858 223.791 417.625C222.891 417.375 222.057 417.1 221.291 416.8C220.524 416.483 219.882 415.975 219.366 415.275C218.849 414.558 218.591 413.683 218.591 412.65C218.591 410.967 219.224 409.625 220.491 408.625C221.774 407.625 223.441 407.125 225.491 407.125C227.441 407.125 229.099 407.633 230.466 408.65C231.849 409.667 232.657 410.917 232.891 412.4H228.491C228.341 411.767 228.016 411.258 227.516 410.875C227.016 410.492 226.341 410.3 225.491 410.3C224.657 410.3 224.007 410.483 223.541 410.85C223.091 411.2 222.866 411.667 222.866 412.25C222.866 412.683 223.057 413.042 223.441 413.325C223.824 413.608 224.324 413.825 224.941 413.975C225.557 414.125 226.232 414.275 226.966 414.425C227.716 414.558 228.457 414.742 229.191 414.975C229.924 415.208 230.599 415.508 231.216 415.875C231.832 416.225 232.332 416.733 232.716 417.4C233.099 418.067 233.291 418.858 233.291 419.775C233.291 421.525 232.641 422.9 231.341 423.9C230.041 424.883 228.274 425.375 226.041 425.375ZM250.073 422.825C248.473 424.525 246.364 425.375 243.748 425.375C241.131 425.375 239.023 424.525 237.423 422.825C235.823 421.125 235.023 418.933 235.023 416.25C235.023 413.567 235.823 411.375 237.423 409.675C239.023 407.975 241.131 407.125 243.748 407.125C246.364 407.125 248.473 407.975 250.073 409.675C251.673 411.375 252.473 413.567 252.473 416.25C252.473 418.933 251.673 421.125 250.073 422.825ZM240.623 420.45C241.373 421.483 242.414 422 243.748 422C245.081 422 246.123 421.483 246.873 420.45C247.623 419.417 247.998 418.017 247.998 416.25C247.998 414.5 247.614 413.108 246.848 412.075C246.098 411.025 245.064 410.5 243.748 410.5C242.431 410.5 241.389 411.025 240.623 412.075C239.873 413.108 239.498 414.5 239.498 416.25C239.498 418.017 239.873 419.417 240.623 420.45ZM269.366 422.825C267.766 424.525 265.657 425.375 263.041 425.375C260.424 425.375 258.316 424.525 256.716 422.825C255.116 421.125 254.316 418.933 254.316 416.25C254.316 413.567 255.116 411.375 256.716 409.675C258.316 407.975 260.424 407.125 263.041 407.125C265.657 407.125 267.766 407.975 269.366 409.675C270.966 411.375 271.766 413.567 271.766 416.25C271.766 418.933 270.966 421.125 269.366 422.825ZM259.916 420.45C260.666 421.483 261.707 422 263.041 422C264.374 422 265.416 421.483 266.166 420.45C266.916 419.417 267.291 418.017 267.291 416.25C267.291 414.5 266.907 413.108 266.141 412.075C265.391 411.025 264.357 410.5 263.041 410.5C261.724 410.5 260.682 411.025 259.916 412.075C259.166 413.108 258.791 414.5 258.791 416.25C258.791 418.017 259.166 419.417 259.916 420.45ZM274.359 425V407.5H279.434L285.784 419.3V407.5H289.959V425H284.884L278.534 413.2V425H274.359Z" fill="white"/>
<g filter="url(#filter0_f_7703_21562)">
<path d="M216.074 175.607C216.074 186.535 207.215 195.394 196.287 195.394C185.359 195.394 176.5 186.535 176.5 175.607C176.5 164.679 185.359 155.82 196.287 155.82C207.215 155.82 216.074 164.679 216.074 175.607Z" stroke="white" stroke-width="3" stroke-linecap="round" stroke-linejoin="round"/>
<path d="M196.438 151L196.438 172.438" stroke="white" stroke-width="3" stroke-linejoin="round"/>
<path d="M173.718 267.227L195.622 229.258L217.524 267.227H173.718Z" stroke="white" stroke-width="3" stroke-linecap="round" stroke-linejoin="round"/>
<path d="M195.75 243.283L195.75 271.56" stroke="white" stroke-width="3" stroke-linejoin="round"/>
<path d="M215.156 301.749V340.109H176.501V301.749H215.156Z" stroke="white" stroke-width="3" stroke-linecap="round" stroke-linejoin="round"/>
<path d="M195.977 345.155L195.977 297" stroke="white" stroke-width="3" stroke-linejoin="round"/>
</g>
<defs>
<filter id="filter0_f_7703_21562" x="156.121" y="136" width="79" height="224.155" filterUnits="userSpaceOnUse" color-interpolation-filters="sRGB">
<feFlood flood-opacity="0" result="BackgroundImageFix"/>
<feBlend mode="normal" in="SourceGraphic" in2="BackgroundImageFix" result="shape"/>
<feGaussianBlur stdDeviation="7.5" result="effect1_foregroundBlur_7703_21562"/>
</filter>
</defs>
</svg>
