<svg width="1498" height="566" viewBox="0 0 1498 566" fill="none" xmlns="http://www.w3.org/2000/svg">
<path d="M0 0H1498V566H0V0Z" fill="#121212"/>
<path d="M764.631 71.5093L744.279 101.583L723.928 71.5093L764.631 71.5093Z" stroke="white" stroke-width="3" stroke-linecap="square"/>
<path d="M744.281 80.5488L744.281 98.9914" stroke="white" stroke-width="3" stroke-linecap="square"/>
<path d="M763.174 79.332H725.449" stroke="white" stroke-width="3" stroke-linecap="square"/>
<path d="M573 100.999V72.3349H584.088L589.154 93.3825L594.221 72.3349H605.267V100.999H598.498V79.3781L592.809 100.999H585.458L579.81 79.3781V100.999H573Z" fill="white"/>
<path d="M630.489 100.999L628.288 94.4881H617.74L615.539 100.999H608.314L618.778 72.3349H627.25L637.715 100.999H630.489ZM619.443 89.4515H626.586L623.014 78.8048L619.443 89.4515Z" fill="white"/>
<path d="M640.745 100.999V72.3349H653.868C660.72 72.3349 664.748 75.3242 664.748 80.4428C664.748 84.2919 662.173 86.5441 660.138 86.9126C662.547 87.2812 664.249 88.7553 664.249 91.7446C664.249 98.2964 664.499 99.6067 665.994 100.999H658.685C657.605 99.5248 657.314 98.3783 657.314 92.7683C657.314 90.6799 655.902 89.9019 654.034 89.9019H647.68V100.999H640.745ZM647.68 84.7424H653.245C655.985 84.7424 657.605 83.3911 657.605 81.1389C657.605 78.9686 656.11 77.4945 653.245 77.4945H647.68V84.7424Z" fill="white"/>
<path d="M696.487 100.999H688.098L677.01 87.9364V100.999H670.075V72.3349H677.01V84.8652L687.932 72.3349H695.988L683.779 86.3803L696.487 100.999Z" fill="white"/>
<path d="M698.838 100.999V72.3349H719.892V77.6583H705.773V83.8415H718.854V89.1648H705.773V95.6757H720.1V100.999H698.838Z" fill="white"/>
<path d="M768.811 100.999V72.3349H782.017C789.326 72.3349 792.856 75.6927 792.856 81.1389C792.856 86.5851 789.326 89.9019 782.017 89.9019H775.747V100.999H768.811ZM775.747 84.7424H781.394C784.426 84.7424 785.713 83.1044 785.713 81.1389C785.713 79.2143 784.426 77.4945 781.394 77.4945H775.747V84.7424Z" fill="white"/>
<path d="M796.398 100.999V72.3349H803.333V95.5119H817.162V100.999H796.398Z" fill="white"/>
<path d="M840.423 100.999L838.222 94.4881H827.674L825.473 100.999H818.248L828.713 72.3349H837.184L847.649 100.999H840.423ZM829.377 89.4515H836.52L832.948 78.8048L829.377 89.4515Z" fill="white"/>
<path d="M862.957 101.613C854.028 101.613 848.298 95.43 848.298 86.7489C848.298 77.9858 854.028 71.7207 862.957 71.7207C870.016 71.7207 874.377 75.3242 875.706 80.3609H868.231C867.442 78.4772 865.698 77.2488 862.957 77.2488C858.347 77.2488 855.731 81.016 855.731 86.7489C855.731 92.4407 858.347 96.0851 862.957 96.0851C865.698 96.0851 867.442 94.7748 868.231 92.7683H875.706C874.377 97.9278 870.016 101.613 862.957 101.613Z" fill="white"/>
<path d="M879.563 100.999V72.3349H900.618V77.6583H886.498V83.8415H899.579V89.1648H886.498V95.6757H900.825V100.999H879.563Z" fill="white"/>
<path d="M712 162V149H715.089V162H712Z" fill="white"/>
<path d="M721.248 162V156.93L716.402 149H719.731L722.802 154.274L725.891 149H729.22L724.337 156.93V162H721.248Z" fill="white"/>
<path d="M742.269 162H738.533L733.594 156.076V162H730.505V149H733.594V154.683L738.459 149H742.047L736.609 155.37L742.269 162Z" fill="white"/>
<path d="M746.979 162V156.93L742.133 149H745.462L748.533 154.274L751.622 149H754.951L750.068 156.93V162H746.979Z" fill="white"/>
<path d="M768 162H764.264L759.325 156.076V162H756.236V149H759.325V154.683L764.19 149H767.778L762.34 155.37L768 162Z" fill="white"/>
<path d="M657.115 461.375C654.449 461.375 652.307 460.533 650.69 458.85C649.09 457.167 648.29 454.983 648.29 452.3C648.29 449.6 649.09 447.4 650.69 445.7C652.307 443.983 654.449 443.125 657.115 443.125C659.165 443.125 660.849 443.608 662.165 444.575C663.499 445.525 664.374 446.8 664.79 448.4H660.29C659.774 447.133 658.715 446.5 657.115 446.5C655.749 446.5 654.682 447.025 653.915 448.075C653.149 449.125 652.765 450.533 652.765 452.3C652.765 454.05 653.149 455.442 653.915 456.475C654.682 457.492 655.749 458 657.115 458C658.715 458 659.774 457.325 660.29 455.975H664.79C664.374 457.608 663.499 458.917 662.165 459.9C660.849 460.883 659.165 461.375 657.115 461.375ZM681.413 458.825C679.813 460.525 677.704 461.375 675.088 461.375C672.471 461.375 670.363 460.525 668.763 458.825C667.163 457.125 666.363 454.933 666.363 452.25C666.363 449.567 667.163 447.375 668.763 445.675C670.363 443.975 672.471 443.125 675.088 443.125C677.704 443.125 679.813 443.975 681.413 445.675C683.013 447.375 683.813 449.567 683.813 452.25C683.813 454.933 683.013 457.125 681.413 458.825ZM671.963 456.45C672.713 457.483 673.754 458 675.088 458C676.421 458 677.463 457.483 678.213 456.45C678.963 455.417 679.337 454.017 679.337 452.25C679.337 450.5 678.954 449.108 678.187 448.075C677.438 447.025 676.404 446.5 675.088 446.5C673.771 446.5 672.729 447.025 671.963 448.075C671.213 449.108 670.838 450.5 670.838 452.25C670.838 454.017 671.213 455.417 671.963 456.45ZM686.405 461V443.5H693.08L696.13 456.35L699.18 443.5H705.83V461H701.755V447.8L698.33 461H693.905L690.505 447.8V461H686.405ZM709.19 461V443.5H713.365V461H709.19ZM716.739 461V443.5H721.814L728.164 455.3V443.5H732.339V461H727.264L720.914 449.2V461H716.739ZM743.441 451.075H751.791V461H747.916V459.125C746.716 460.625 745.099 461.375 743.066 461.375C740.582 461.375 738.607 460.533 737.141 458.85C735.674 457.167 734.941 454.983 734.941 452.3C734.941 449.6 735.741 447.4 737.341 445.7C738.957 443.983 741.099 443.125 743.766 443.125C745.849 443.125 747.574 443.617 748.941 444.6C750.307 445.583 751.191 446.85 751.591 448.4H747.116C746.582 447.133 745.466 446.5 743.766 446.5C742.399 446.5 741.332 447.025 740.566 448.075C739.799 449.125 739.416 450.533 739.416 452.3C739.416 454.1 739.841 455.5 740.691 456.5C741.541 457.5 742.716 458 744.216 458C746.049 458 747.282 457.392 747.916 456.175V454.225H743.441V451.075ZM767.041 461.375C764.757 461.375 762.932 460.883 761.566 459.9C760.216 458.917 759.407 457.608 759.141 455.975H763.541C763.724 456.658 764.107 457.2 764.691 457.6C765.291 458 766.074 458.2 767.041 458.2C768.041 458.2 768.782 458.017 769.266 457.65C769.766 457.283 770.016 456.792 770.016 456.175C770.016 455.658 769.757 455.233 769.241 454.9C768.724 454.567 768.082 454.333 767.316 454.2C766.549 454.05 765.707 453.858 764.791 453.625C763.891 453.375 763.057 453.1 762.291 452.8C761.524 452.483 760.882 451.975 760.366 451.275C759.849 450.558 759.591 449.683 759.591 448.65C759.591 446.967 760.224 445.625 761.491 444.625C762.774 443.625 764.441 443.125 766.491 443.125C768.441 443.125 770.099 443.633 771.466 444.65C772.849 445.667 773.657 446.917 773.891 448.4H769.491C769.341 447.767 769.016 447.258 768.516 446.875C768.016 446.492 767.341 446.3 766.491 446.3C765.657 446.3 765.007 446.483 764.541 446.85C764.091 447.2 763.866 447.667 763.866 448.25C763.866 448.683 764.057 449.042 764.441 449.325C764.824 449.608 765.324 449.825 765.941 449.975C766.557 450.125 767.232 450.275 767.966 450.425C768.716 450.558 769.457 450.742 770.191 450.975C770.924 451.208 771.599 451.508 772.216 451.875C772.832 452.225 773.332 452.733 773.716 453.4C774.099 454.067 774.291 454.858 774.291 455.775C774.291 457.525 773.641 458.9 772.341 459.9C771.041 460.883 769.274 461.375 767.041 461.375ZM791.073 458.825C789.473 460.525 787.364 461.375 784.748 461.375C782.131 461.375 780.023 460.525 778.423 458.825C776.823 457.125 776.023 454.933 776.023 452.25C776.023 449.567 776.823 447.375 778.423 445.675C780.023 443.975 782.131 443.125 784.748 443.125C787.364 443.125 789.473 443.975 791.073 445.675C792.673 447.375 793.473 449.567 793.473 452.25C793.473 454.933 792.673 457.125 791.073 458.825ZM781.623 456.45C782.373 457.483 783.414 458 784.748 458C786.081 458 787.123 457.483 787.873 456.45C788.623 455.417 788.998 454.017 788.998 452.25C788.998 450.5 788.614 449.108 787.848 448.075C787.098 447.025 786.064 446.5 784.748 446.5C783.431 446.5 782.389 447.025 781.623 448.075C780.873 449.108 780.498 450.5 780.498 452.25C780.498 454.017 780.873 455.417 781.623 456.45ZM810.366 458.825C808.766 460.525 806.657 461.375 804.041 461.375C801.424 461.375 799.316 460.525 797.716 458.825C796.116 457.125 795.316 454.933 795.316 452.25C795.316 449.567 796.116 447.375 797.716 445.675C799.316 443.975 801.424 443.125 804.041 443.125C806.657 443.125 808.766 443.975 810.366 445.675C811.966 447.375 812.766 449.567 812.766 452.25C812.766 454.933 811.966 457.125 810.366 458.825ZM800.916 456.45C801.666 457.483 802.707 458 804.041 458C805.374 458 806.416 457.483 807.166 456.45C807.916 455.417 808.291 454.017 808.291 452.25C808.291 450.5 807.907 449.108 807.141 448.075C806.391 447.025 805.357 446.5 804.041 446.5C802.724 446.5 801.682 447.025 800.916 448.075C800.166 449.108 799.791 450.5 799.791 452.25C799.791 454.017 800.166 455.417 800.916 456.45ZM815.359 461V443.5H820.434L826.784 455.3V443.5H830.959V461H825.884L819.534 449.2V461H815.359Z" fill="white"/>
<g filter="url(#filter0_f_7703_21619)">
<path d="M756.898 214.573C756.898 225.318 748.059 234.064 737.111 234.064C726.163 234.064 717.324 225.318 717.324 214.573C717.324 203.829 726.163 195.083 737.111 195.083C748.059 195.083 756.898 203.829 756.898 214.573Z" stroke="white" stroke-width="3" stroke-linecap="round" stroke-linejoin="round"/>
<path d="M737.262 190.309L737.262 211.448" stroke="white" stroke-width="3" stroke-linejoin="round"/>
<path d="M714.561 304.895L736.446 267.486L758.33 304.895H714.561Z" stroke="white" stroke-width="3" stroke-linecap="round" stroke-linejoin="round"/>
<path d="M736.574 281.306L736.574 309.188" stroke="white" stroke-width="3" stroke-linejoin="round"/>
<path d="M755.98 338.979V376.762H717.325V338.979H755.98Z" stroke="white" stroke-width="3" stroke-linecap="round" stroke-linejoin="round"/>
<path d="M736.801 381.759L736.801 334.275" stroke="white" stroke-width="3" stroke-linejoin="round"/>
</g>
<defs>
<filter id="filter0_f_7703_21619" x="696.945" y="175.309" width="79" height="221.45" filterUnits="userSpaceOnUse" color-interpolation-filters="sRGB">
<feFlood flood-opacity="0" result="BackgroundImageFix"/>
<feBlend mode="normal" in="SourceGraphic" in2="BackgroundImageFix" result="shape"/>
<feGaussianBlur stdDeviation="7.5" result="effect1_foregroundBlur_7703_21619"/>
</filter>
</defs>
</svg>
