<svg width="169" height="68" viewBox="0 0 169 68" fill="none" xmlns="http://www.w3.org/2000/svg">
<path d="M60.4448 44.4371H65.4329V35.8861H67.6016L72.8995 44.4371H78.2284L72.3729 35.0187C74.9754 34.2442 76.9272 32.4781 76.9272 29.1321V29.0082C76.9272 24.4229 73.6121 22.2852 68.3762 22.2852H60.4448V44.4371ZM65.4329 32.4781V26.1269H68.2522C70.6689 26.1269 72.0321 26.9015 72.0321 29.1631V29.2871C72.0321 31.4248 70.7618 32.4781 68.2522 32.4781H65.4329Z" fill="white"/>
<path d="M86.7901 44.7754C91.2205 44.7754 94.0089 42.8236 94.5355 39.3226H90.291C90.0122 40.6858 88.9898 41.5843 86.9141 41.5843C84.4665 41.5843 83.0104 40.0352 82.8864 37.3398H94.5666V36.1005C94.5666 30.3069 90.8487 27.8594 86.6662 27.8594C81.957 27.8594 78.332 31.1744 78.332 36.2864V36.5342C78.332 41.7083 81.895 44.7754 86.7901 44.7754ZM82.9484 34.5824C83.2891 32.2897 84.6524 30.9576 86.6662 30.9576C88.804 30.9576 90.0432 32.1348 90.1981 34.5824H82.9484Z" fill="white"/>
<path d="M96.6992 44.4329H101.161V20.8867H96.6992V44.4329Z" fill="white"/>
<path d="M109.72 44.7786C112.384 44.7786 114.026 43.5394 114.862 41.8974V44.4379H119.324V28.2344H114.862V37.7458C114.862 40.1315 113.375 41.3087 111.486 41.3087C109.565 41.3087 108.666 40.2553 108.666 38.0556V28.2344H104.205V38.6752C104.205 42.9197 106.56 44.7786 109.72 44.7786Z" fill="white"/>
<path d="M122.371 44.4346H126.864V34.8613C126.864 32.6616 128.257 31.5461 129.992 31.5461C131.573 31.5461 132.533 32.4756 132.533 34.5514V44.4346H136.995V34.8613C136.995 32.6616 138.388 31.5461 140.123 31.5461C141.734 31.5461 142.664 32.4756 142.664 34.5514V44.4346H147.126V34.0558C147.126 29.7493 144.802 27.8594 141.796 27.8594C139.752 27.8594 137.645 28.7268 136.344 30.6787C135.569 28.7579 133.958 27.8594 131.821 27.8594C129.403 27.8594 127.669 29.1915 126.864 30.7097V28.2311H122.371V44.4346Z" fill="white"/>
<path d="M157.501 44.7754C161.932 44.7754 164.721 42.8236 165.247 39.3226H161.002C160.723 40.6858 159.701 41.5843 157.625 41.5843C155.177 41.5843 153.722 40.0352 153.598 37.3398H165.278V36.1005C165.278 30.3069 161.56 27.8594 157.377 27.8594C152.668 27.8594 149.043 31.1744 149.043 36.2864V36.5342C149.043 41.7083 152.606 44.7754 157.501 44.7754ZM153.66 34.5824C154.001 32.2897 155.364 30.9576 157.377 30.9576C159.515 30.9576 160.755 32.1348 160.91 34.5824H153.66Z" fill="white"/>
<path fill-rule="evenodd" clip-rule="evenodd" d="M43.2776 23.6095L42.9764 23.0717C42.588 22.4212 42.04 21.8806 41.3844 21.5011L26.9477 13.1747C26.2939 12.7955 25.5519 12.5951 24.7962 12.5938H24.1722C23.4165 12.5951 22.6744 12.7955 22.0207 13.1747L7.58407 21.5226C6.93211 21.8996 6.39053 22.4412 6.01347 23.0932L5.71226 23.6311C5.33305 24.2847 5.13269 25.0268 5.13135 25.7825V42.4568C5.13269 43.2125 5.33305 43.9545 5.71226 44.6083L6.01347 45.1462C6.40028 45.7906 6.93967 46.3299 7.58407 46.7168L22.0422 55.0431C22.6927 55.4301 23.4369 55.6311 24.1937 55.624H24.7962C25.5519 55.6226 26.2939 55.4223 26.9477 55.0431L41.3844 46.6953C42.0428 46.3267 42.5864 45.7831 42.9549 45.1247L43.2776 44.5868C43.6523 43.9311 43.8523 43.1903 43.8585 42.4353V25.761C43.8573 25.0053 43.6569 24.2632 43.2776 23.6095ZM24.1722 16.8967H24.7962L37.4041 24.1688L24.4949 31.613L11.5859 24.1688L24.1722 16.8967ZM26.6465 50.2454L39.2328 42.9732L39.5555 42.4354V27.8912L26.6465 35.3569V50.2454Z" fill="white"/>
</svg>
