<svg width="144" height="59" viewBox="0 0 144 59" fill="none" xmlns="http://www.w3.org/2000/svg">
<path d="M47.7419 25.9304C47.7419 23.4748 45.3609 20.87 41.2328 20.87C36.5953 20.87 31.5086 24.265 30.7213 31.0492C29.9267 37.9081 34.1969 40.9388 38.4875 40.9388C42.7767 40.9388 45.0346 39.2675 47.3277 37.0272C45.3478 34.5335 42.7942 35.694 42.3113 35.937C41.7771 36.2047 41.0762 36.575 39.6523 36.575C37.9899 36.575 36.3041 35.8228 36.3041 32.7365C46.9311 31.718 47.7419 28.3873 47.7419 25.9304ZM42.4752 26.3416C42.4064 27.0981 42.0961 28.4078 36.7183 29.1279C37.8524 25.1006 40.0153 24.8021 41.0147 24.8021C41.9513 24.8021 42.5483 25.5279 42.4752 26.3416ZM24.4756 26.9957C24.4756 26.9957 22.1899 34.1633 22.0127 34.7648C21.9513 34.1633 20.2787 21.2886 20.2787 21.2886C16.3861 21.2886 14.3037 24.0544 13.2062 26.9928C13.2062 26.9928 10.4257 34.1809 10.2004 34.7823C10.1873 34.2189 9.77308 27.0675 9.77308 27.0675C9.53748 23.4733 6.25661 21.2973 3.59766 21.2973L6.79514 40.8027C10.8794 40.7895 13.0657 38.0281 14.2189 35.0955C14.2189 35.0955 16.6641 28.7532 16.7652 28.465C16.79 28.7401 18.5241 40.8027 18.5241 40.8027C22.6113 40.8027 24.8166 38.2169 26.0034 35.3897L31.7384 21.2973C27.6995 21.2973 25.5731 24.0558 24.4756 26.9957ZM62.7532 20.8436C60.2406 20.8436 58.3045 22.209 56.6744 24.227L56.6772 24.2123L58.126 12.4922C54.7807 12.4922 52.0471 15.4043 51.5276 19.7242L48.9828 40.6505C50.913 40.6505 52.9573 40.09 54.0607 38.672C55.0485 39.9407 56.5163 40.9519 58.6893 40.9519C64.3307 40.9519 68.2086 34.3945 68.2086 28.2381C68.2086 22.6202 65.4751 20.8436 62.7532 20.8436ZM62.2352 30.8971C61.6498 34.3389 59.7372 36.6598 57.8845 36.6598C56.0173 36.6598 55.2285 35.8345 55.2285 35.8345C55.5768 32.8258 55.808 30.9805 56.4885 29.3913C57.1675 27.8021 58.7728 25.266 60.4527 25.266C62.0858 25.266 62.8205 27.4567 62.2352 30.8971ZM82.3508 21.2988H78.4011L78.4201 21.0925C78.6893 18.514 79.3069 17.1603 81.3059 16.9525C82.6712 16.8121 83.2888 16.1023 83.4322 15.3355C83.5449 14.7341 83.9267 12.6078 83.9267 12.6078C76.004 12.5624 73.5207 15.9823 72.8871 21.1803L72.8724 21.2973L72.7948 21.3003C71.5085 21.3003 70.0964 22.7563 69.849 24.606L69.7628 25.2864H72.3969L70.1857 43.5919L69.5155 46.8815L69.7876 46.8903C73.4855 46.7498 75.8651 43.8333 76.3904 39.5866L78.1172 25.2864H79.3552C80.5669 25.2864 81.9907 24.0719 82.2541 22.0422L82.3508 21.2988ZM102.847 20.9593C98.2958 20.9593 94.0066 24.3089 92.6878 29.5786C91.3708 34.8468 93.3733 41.0675 100.062 41.0675C106.753 41.0675 110.597 34.5833 110.597 29.1996C110.597 23.8128 106.956 20.9593 102.847 20.9593ZM104.692 30.7405C104.456 33.1302 103.403 36.7403 100.523 36.7403C97.631 36.7403 98.0421 32.5039 98.3219 30.4932C98.6224 28.3376 99.8332 25.2864 102.411 25.2864C104.739 25.2864 104.958 28.042 104.692 30.7405ZM133.071 26.9957C133.071 26.9957 130.785 34.1633 130.61 34.7648C130.547 34.1633 128.875 21.2886 128.875 21.2886C124.982 21.2886 122.901 24.0544 121.802 26.9928C121.802 26.9928 119.023 34.1809 118.798 34.7823C118.784 34.2189 118.37 27.0675 118.37 27.0675C118.135 23.4733 114.852 21.2973 112.195 21.2973L115.391 40.8027C119.475 40.7895 121.663 38.0281 122.816 35.0955C122.816 35.0955 125.261 28.7532 125.362 28.465C125.387 28.7401 127.12 40.8027 127.12 40.8027C131.207 40.8027 133.412 38.2169 134.599 35.3897L140.336 21.2973C136.295 21.2973 134.169 24.0558 133.071 26.9957ZM86.0677 12.6078L82.7517 39.3525L82.7429 39.348L82.0697 42.6553L82.3405 42.664C85.9111 42.6201 88.4442 39.4871 88.9213 35.5359L90.8364 20.1851C91.4176 15.5097 88.6301 12.6078 86.0677 12.6078Z" fill="white"/>
</svg>
