<svg width="961" height="337" viewBox="0 0 961 337" fill="none" xmlns="http://www.w3.org/2000/svg">
<path d="M235.547 9.10809H95.2954C47.6955 9.10809 9.10811 47.6955 9.10811 95.2954V235.518C9.10811 283.118 47.6955 321.706 95.2954 321.706H235.547C283.146 321.706 321.734 283.118 321.734 235.518V95.2954C321.734 47.6955 283.146 9.10809 235.547 9.10809Z" stroke="#F4C632" stroke-width="0.37"/>
<path fill-rule="evenodd" clip-rule="evenodd" d="M178.222 84.5506C175.735 83.7427 173.07 85.1372 172.314 87.6401L170.666 93.1049C139.705 91.2905 101.456 103.948 78.405 113.065C73.0629 115.178 74.4842 122.77 80.2223 123.202C100.965 124.765 132.436 128.046 158.142 134.624L127.251 237.032C126.274 240.272 128.066 243.698 131.285 244.744L146.866 249.803C150.058 250.839 153.496 249.157 154.637 246.001L190.705 146.185C217.135 157.991 245.803 175.332 263.008 186.281C267.274 188.995 272.195 184.453 269.633 180.085C257.159 158.823 233.142 122.448 205.745 104.563L207.689 99.1836C208.585 96.7044 207.25 93.9765 204.742 93.1623L178.222 84.5506Z" fill="url(#paint0_linear_62_17)"/>
<path d="M238.523 20.849H92.4282C52.8962 20.849 20.849 52.8961 20.849 92.4282V238.494C20.849 278.026 52.8962 310.074 92.4282 310.074H238.523C278.055 310.074 310.103 278.026 310.103 238.494V92.4282C310.103 52.8961 278.055 20.849 238.523 20.849Z" stroke="url(#paint1_linear_62_17)" stroke-width="2.24539"/>
<path d="M395.98 96.0455H422.614L468.92 209.114H470.625L516.932 96.0455H543.565V241.5H522.685V136.244H521.335L478.438 241.287H461.108L418.21 136.173H416.861V241.5H395.98V96.0455ZM573.768 241.5V132.409H595.004V241.5H573.768ZM584.492 115.577C580.799 115.577 577.627 114.346 574.975 111.884C572.371 109.374 571.069 106.391 571.069 102.935C571.069 99.4309 572.371 96.4479 574.975 93.9858C577.627 91.4763 580.799 90.2216 584.492 90.2216C588.185 90.2216 591.334 91.4763 593.938 93.9858C596.59 96.4479 597.915 99.4309 597.915 102.935C597.915 106.391 596.59 109.374 593.938 111.884C591.334 114.346 588.185 115.577 584.492 115.577ZM644.808 176.727V241.5H623.572V132.409H643.956V150.165H645.305C647.815 144.388 651.745 139.748 657.095 136.244C662.493 132.741 669.287 130.989 677.479 130.989C684.912 130.989 691.423 132.551 697.01 135.676C702.597 138.754 706.929 143.347 710.007 149.455C713.085 155.562 714.624 163.115 714.624 172.111V241.5H693.388V174.668C693.388 166.76 691.328 160.581 687.209 156.131C683.089 151.633 677.431 149.384 670.234 149.384C665.31 149.384 660.93 150.449 657.095 152.58C653.307 154.71 650.301 157.835 648.075 161.955C645.897 166.027 644.808 170.951 644.808 176.727ZM790.121 243.702C779.373 243.702 770.116 241.405 762.351 236.812C754.633 232.172 748.667 225.662 744.453 217.281C740.286 208.853 738.203 198.981 738.203 187.665C738.203 176.491 740.286 166.642 744.453 158.119C748.667 149.597 754.538 142.944 762.067 138.162C769.643 133.38 778.497 130.989 788.629 130.989C794.785 130.989 800.75 132.007 806.527 134.043C812.304 136.079 817.488 139.275 822.081 143.631C826.674 147.987 830.296 153.645 832.947 160.605C835.599 167.518 836.925 175.922 836.925 185.818V193.347H750.206V177.438H816.115C816.115 171.85 814.979 166.902 812.706 162.594C810.433 158.238 807.237 154.805 803.118 152.295C799.046 149.786 794.264 148.531 788.771 148.531C782.805 148.531 777.597 149.999 773.146 152.935C768.743 155.823 765.334 159.611 762.919 164.298C760.552 168.938 759.368 173.981 759.368 179.426V191.855C759.368 199.147 760.646 205.349 763.203 210.463C765.807 215.577 769.429 219.483 774.07 222.182C778.71 224.833 784.131 226.159 790.334 226.159C794.358 226.159 798.028 225.591 801.342 224.455C804.657 223.271 807.521 221.519 809.936 219.199C812.351 216.879 814.197 214.014 815.476 210.605L835.575 214.227C833.965 220.146 831.077 225.33 826.911 229.781C822.791 234.185 817.607 237.617 811.357 240.08C805.154 242.494 798.075 243.702 790.121 243.702ZM892.234 243.915C885.321 243.915 879.071 242.636 873.484 240.08C867.897 237.475 863.469 233.711 860.202 228.787C856.983 223.863 855.373 217.826 855.373 210.676C855.373 204.521 856.557 199.455 858.924 195.477C861.291 191.5 864.487 188.351 868.512 186.031C872.537 183.711 877.035 181.959 882.006 180.776C886.978 179.592 892.044 178.692 897.205 178.077C903.739 177.319 909.042 176.704 913.114 176.23C917.186 175.709 920.146 174.881 921.992 173.744C923.839 172.608 924.762 170.761 924.762 168.205V167.707C924.762 161.505 923.01 156.699 919.506 153.29C916.05 149.881 910.889 148.176 904.023 148.176C896.874 148.176 891.239 149.762 887.12 152.935C883.048 156.06 880.231 159.54 878.668 163.375L858.711 158.83C861.078 152.201 864.535 146.85 869.08 142.778C873.673 138.659 878.952 135.676 884.918 133.83C890.884 131.936 897.158 130.989 903.739 130.989C908.095 130.989 912.712 131.509 917.589 132.551C922.513 133.545 927.106 135.392 931.367 138.091C935.676 140.79 939.203 144.649 941.95 149.668C944.696 154.639 946.069 161.102 946.069 169.057V241.5H925.33V226.585H924.478C923.105 229.331 921.045 232.03 918.299 234.682C915.553 237.333 912.025 239.535 907.717 241.287C903.408 243.039 898.247 243.915 892.234 243.915ZM896.85 226.869C902.721 226.869 907.74 225.709 911.907 223.389C916.121 221.069 919.317 218.039 921.495 214.298C923.72 210.51 924.833 206.462 924.833 202.153V188.091C924.076 188.848 922.608 189.559 920.43 190.222C918.299 190.837 915.861 191.382 913.114 191.855C910.368 192.281 907.693 192.684 905.089 193.062C902.485 193.394 900.307 193.678 898.555 193.915C894.435 194.436 890.671 195.312 887.262 196.543C883.9 197.774 881.201 199.549 879.165 201.869C877.177 204.142 876.183 207.172 876.183 210.96C876.183 216.216 878.124 220.193 882.006 222.892C885.889 225.544 890.837 226.869 896.85 226.869Z" fill="white"/>
<defs>
<linearGradient id="paint0_linear_62_17" x1="111.915" y1="96.6425" x2="251.86" y2="233.487" gradientUnits="userSpaceOnUse">
<stop stop-color="#FFAC4A"/>
<stop offset="0.510417" stop-color="#FFC44A"/>
<stop offset="0.760417" stop-color="#FFD74A"/>
</linearGradient>
<linearGradient id="paint1_linear_62_17" x1="153.789" y1="10.6234" x2="137.722" y2="320.299" gradientUnits="userSpaceOnUse">
<stop offset="0.447294" stop-color="#FFC24A"/>
<stop offset="1" stop-color="#FFD336"/>
</linearGradient>
</defs>
</svg>
