<svg width="1581" height="469" viewBox="0 0 1581 469" fill="none" xmlns="http://www.w3.org/2000/svg">
<g clip-path="url(#clip0_72_1819)">
<path d="M79.5459 1C80 84.7237 80 168.447 80 252.171C80.5226 252.39 81.0452 252.609 81.5678 252.828C85.5141 248.505 89.5554 244.265 93.389 239.844C105.371 226.028 117.366 212.22 129.181 198.261C138.942 186.727 149.441 175.68 154.935 161.152C159.919 147.973 156.725 139.328 144.507 132.169C142.932 131.246 142.338 128.649 141.289 126.827C143.022 125.895 144.75 124.161 146.49 124.149C173.149 123.977 199.809 123.967 226.468 124.167C228.24 124.181 229.997 126.195 231.76 127.279C230.434 128.925 229.443 131.402 227.73 132.094C200.431 143.12 178.208 161.183 158.281 182.282C141.264 200.301 124.717 218.763 107.734 237.403C107.69 237.878 107.874 237.979 108.058 238.08C120.939 236.254 133.592 236.679 145.916 241.446C159.745 246.795 170.598 255.728 178.572 268.154C192.413 289.722 205.716 311.653 220.135 332.827C229.163 346.084 242.119 354.008 258.88 353.973C270.416 353.95 278.842 348.584 284.601 338.753C289.012 331.225 290.94 322.979 290.947 314.377C291.014 229.715 291.117 145.053 290.761 60.3934C290.729 52.818 288.389 44.9283 285.599 37.7786C282.752 30.4853 276.393 26.2804 268.376 24.8613C266.842 24.5899 265.592 22.7213 264.21 21.5896C265.535 19.9927 266.603 17.3725 268.226 16.9655C278.552 14.3757 288.996 12.2545 299.409 10.0174C309.173 7.91999 318.959 5.92243 328.706 3.75058C330.427 3.36722 332.004 2.34358 333.824 1.30781C337.031 1 340.061 1 343.546 1C344 106.305 344.006 211.61 343.993 316.916C343.992 327.223 346.389 336.722 353.254 344.688C357.909 350.09 363.875 353.141 370.997 353.865C371.825 353.949 372.771 353.782 373.464 354.128C375.514 355.152 377.464 356.375 379.453 357.52C377.341 358.344 375.23 359.884 373.117 359.889C313.633 360.017 254.148 360.074 194.665 359.924C181.503 359.891 171.182 353.329 164.048 342.786C152.211 325.294 141.04 307.345 129.812 289.449C121.055 275.492 112.646 261.315 104.047 247.257C103.379 246.167 102.435 245.245 101.191 243.718C94.3142 251.251 87.626 258.361 81.2628 265.75C80.1476 267.046 80.0766 269.513 80.0658 271.443C79.9777 287.271 79.4391 303.131 80.2739 318.916C80.6665 326.341 83.1063 333.886 85.8548 340.891C88.2481 346.991 94.0337 350.22 100.168 352.585C101.961 353.276 103.226 355.336 104.733 356.769C102.792 357.841 100.859 359.828 98.9101 359.845C73.4187 360.059 47.9249 359.995 22.4318 360C15.6003 360.001 8.7688 360 1.46866 360C1 357.958 1 355.917 1.4025 353.427C10.4066 352.018 16.6423 347.493 20.8525 340.101C25.2425 332.393 26.9972 323.989 26.9973 315.178C26.9989 230.711 27.0154 146.243 26.9464 61.7754C26.943 57.6423 26.4925 53.4516 25.7229 49.3876C23.1198 35.6411 12.8832 25.677 1 25C1 22.6294 1 20.2589 1.4118 17.423C23.1871 12.4654 44.5571 8.00373 65.8997 3.41415C67.3714 3.09765 68.638 1.82695 70 1C73.0306 1 76.0612 1 79.5459 1Z" fill="white"/>
<path d="M999.469 470C997.417 469.259 995.905 468.226 994.241 467.822C967.37 461.309 949.686 439.104 951.126 412.95C951.728 402.019 956.378 392.877 966.598 387.823C977.22 382.569 988.101 381.95 998.429 388.727C1008.53 395.351 1010.68 407.219 1004.29 419.278C1002.66 422.367 1000.82 425.355 999.282 428.488C993.786 439.653 999.131 451.205 1011.11 454.214C1027.87 458.424 1041.51 451.345 1051.4 434.285C1064.52 411.657 1064.8 388.818 1055.31 364.789C1041.61 330.107 1028.85 295.058 1015.56 260.216C1003.99 229.886 992.495 199.523 980.435 169.388C975.871 157.984 970.517 146.681 960.814 138.437C957.848 135.918 954.096 134.347 950.924 132.039C949.138 130.738 947.801 128.819 946.261 127.179C948.219 126.124 950.171 124.165 952.136 124.152C981.464 123.95 1010.79 124.003 1040.12 124.003C1043.29 124.003 1046.5 123.76 1049.6 124.204C1051.07 124.414 1053.51 126.056 1053.45 126.922C1053.36 128.491 1052.07 130.717 1050.68 131.361C1036.79 137.774 1033.11 145.009 1035.51 160.254C1038.87 181.524 1047.54 201.078 1054.67 221.122C1066.06 253.11 1077.68 285.013 1089.24 316.942C1089.55 317.802 1090.16 318.551 1091.16 320.229C1092.39 316.806 1093.36 314.228 1094.26 311.627C1107.61 272.917 1121.24 234.294 1134.15 195.435C1137.95 183.983 1140.64 171.979 1142.21 160.014C1143.93 146.947 1138.15 133.502 1122.94 131.63C1120.91 131.38 1117.31 131.759 1117.8 127.74C1118.25 124.12 1121.05 124.018 1123.82 124.018C1145.98 124.019 1168.15 123.949 1190.31 124.157C1192.13 124.174 1193.93 126.091 1195.74 127.125C1194.76 128.661 1194.06 131.221 1192.75 131.574C1178.48 135.449 1170.88 146.458 1163.49 157.933C1154.1 172.509 1148.68 188.832 1142.67 204.849C1132.78 231.187 1123.14 257.628 1114.03 284.244C1104.01 313.539 1095.04 343.194 1084.99 372.48C1077.01 395.735 1070.28 419.466 1057.74 441.03C1050.26 453.887 1039.82 462.132 1026.23 467.096C1024.54 467.711 1022.96 468.619 1021.17 469.695C1013.98 470 1006.96 470 999.469 470Z" fill="white"/>
<path d="M1582 124.6C1523.22 124.999 1464.45 125.002 1405.67 124.994C1397.13 124.993 1397.01 124.865 1397.01 116.324C1397 78.195 1397 40.0659 1397 1.46818C1457.5 0.999528 1518 1.00525 1578.5 0.976384C1580.68 0.975344 1582.92 0.561436 1581.67 4.58152C1579.91 6.73836 1578.23 8.1484 1577.11 9.91385C1567.21 25.447 1557.61 41.1749 1547.45 56.5387C1544.52 60.98 1544.53 64.2527 1547.3 68.5748C1557.5 84.509 1567.38 100.648 1577.51 116.633C1578.6 118.348 1580.48 119.556 1582 121C1582 122.066 1582 123.133 1582 124.6Z" fill="white"/>
<path d="M863 124C881.665 124 899.831 123.993 917.997 124.004C926.936 124.01 926.994 124.06 926.995 132.86C927.003 194.023 926.985 255.186 927.018 316.349C927.023 326.557 928.715 336.504 935.778 344.296C938.991 347.84 943.847 349.859 947.799 352.784C949.317 353.909 950.394 355.63 951.672 357.079C949.982 358.043 948.302 359.825 946.602 359.843C927.606 360.053 908.606 359.993 889.607 359.999C877.608 360.002 865.606 360.122 853.612 359.869C851.507 359.825 848.23 358.696 847.6 357.188C846.286 354.047 849.546 353.328 851.886 352.426C866.404 346.825 872.043 334.956 872.815 320.661C873.618 305.781 873.152 290.834 873.261 275.917C873.392 258.045 873.587 240.173 873.675 222.301C873.781 200.935 873.958 179.566 873.818 158.201C873.679 136.9 855.569 125.39 834.647 132.704C817.648 138.646 807.082 151.414 799.945 166.716C791.52 184.781 784.299 203.467 777.542 222.239C761.7 266.256 746.404 310.471 731.023 354.653C729.634 358.643 727.437 360.138 723.333 360.044C715.005 359.852 706.662 359.78 698.339 360.07C693.464 360.239 691.184 358.105 689.7 353.685C682.068 330.953 674.544 308.175 666.377 285.633C656.284 257.776 645.757 230.072 635.096 202.426C629.59 188.148 623.945 173.869 617.273 160.119C613.782 152.924 608.354 146.5 602.99 140.447C599.903 136.964 595.053 135.1 591.283 132.143C589.594 130.818 588.607 128.598 587.302 126.785C589.211 125.862 591.115 124.151 593.031 124.137C618.361 123.952 643.693 124.003 669.025 124.002C676.192 124.001 683.366 123.839 690.518 124.158C692.278 124.236 693.968 125.909 695.689 126.848C694.31 128.351 693.205 130.632 691.506 131.233C678.68 135.774 673.44 144.306 676.592 158.706C679.501 172.002 682.997 185.246 687.356 198.134C700.582 237.236 714.351 276.154 727.913 315.141C728.338 316.362 728.825 317.561 729.669 319.788C733.266 309.63 736.453 300.403 739.795 291.234C753.306 254.161 767.017 217.16 780.271 179.996C782.748 173.053 784.388 165.534 784.792 158.191C785.498 145.325 778.162 136.108 765.706 132.189C764.436 131.79 762.913 131.732 761.943 130.965C760.8 130.061 759.199 128.27 759.473 127.379C759.883 126.049 761.602 124.709 763.049 124.221C764.705 123.663 766.673 124.005 768.506 124.005C799.837 123.999 831.168 124 863 124Z" fill="white"/>
<path d="M1206 155.001C1224.56 135.704 1246.38 123.025 1272.76 119.219C1306.11 114.404 1336.73 121.211 1363.46 142.362C1390.02 163.368 1407.13 190.287 1411.62 224.142C1416.28 259.354 1408.49 291.778 1386.25 319.888C1366.75 344.541 1341.87 360.912 1310.2 365.402C1274.11 370.518 1241.88 361.807 1214.16 337.699C1190.84 317.423 1176.63 291.929 1172.52 261.422C1167.23 222.268 1176.53 187.098 1203.87 157.585C1204.55 156.854 1205.17 156.064 1206 155.001ZM1236.78 293.698C1241.87 310.856 1248.01 327.487 1259.66 341.523C1273.23 357.865 1295.64 364.606 1315.39 349.201C1329.17 338.447 1337.36 323.908 1343.09 307.889C1352.07 282.809 1355.09 256.931 1353.22 230.311C1351.9 211.556 1348.58 193.329 1341.72 175.857C1336.34 162.185 1330.09 148.959 1319.12 138.598C1305.12 125.387 1286.67 123.03 1271.04 133.168C1260.95 139.716 1253.42 148.806 1247.8 159.45C1235.8 182.18 1231.4 206.822 1230.11 232.103C1229.06 252.656 1231.13 272.996 1236.78 293.698Z" fill="white"/>
<path d="M540.116 127.871C561.329 137.422 572.788 154.448 578.918 175.713C583.378 191.185 584.769 207.125 584.909 223.1C585.206 256.917 584.812 290.741 585.176 324.557C585.242 330.705 587.013 337.015 588.993 342.916C591.576 350.614 597.709 354.265 605.761 355.003C607.172 355.132 608.466 356.54 609.814 357.358C608.858 358.916 608.182 361.535 606.905 361.872C588.243 366.785 569.479 371.046 551.2 360.54C543.524 356.127 539.555 348.819 537.013 340.714C535.394 335.552 534.322 330.218 532.792 324.116C530.093 327.798 527.936 331.011 525.51 334.006C510.186 352.925 490.31 363.332 466.169 366.201C449.368 368.197 433.242 366.273 418.017 358.933C399.505 350.009 391.322 334.254 390.047 314.403C388.376 288.361 402.127 270.838 422.683 257.849C440.583 246.538 460.871 240.628 481.107 235.086C496.337 230.915 511.817 227.653 527.204 224.064C530.119 223.385 532.889 222.725 532.901 218.999C532.962 200.378 534.356 181.617 529.011 163.425C523.402 144.339 512.447 130.234 491.391 127.473C471.956 124.924 454.179 132.803 450.874 152.285C449.587 159.87 452.743 168.218 453.93 176.21C454.78 181.93 456.951 187.766 456.368 193.323C455.127 205.146 444.897 212.776 431.747 213.99C408.795 216.108 400.257 196.576 402.463 178.461C405.126 156.594 419.445 143.065 436.92 132.142C457.275 119.42 479.642 116.4 503.14 118.678C515.832 119.909 528.178 122.193 540.116 127.871ZM511.988 331.508C522.836 323.719 531.483 313.834 532.168 300.218C533.264 278.452 532.781 256.605 532.857 234.792C532.867 231.75 530.741 231.872 528.597 232.771C510.504 240.354 492.051 247.196 474.421 255.737C453.607 265.821 442.803 282.877 445.122 306.603C446.458 320.279 451.449 332.053 465.211 338.149C481.943 345.56 497.021 341.463 511.988 331.508Z" fill="white"/>
<path d="M924.614 43.4546C932.808 55.6344 933.925 68.051 926.188 80.2418C919.417 90.9091 908.988 95.809 896.383 94.7928C881.018 93.5539 870.167 83.3341 867.364 68.2975C864.89 55.0229 871.928 41.0339 884.341 34.556C896.933 27.9843 912.267 30.5497 922.407 40.9342C923.103 41.6475 923.743 42.4162 924.614 43.4546Z" fill="white"/>
<path d="M107.96 237.966C107.874 237.979 107.69 237.878 107.586 237.702C107.666 237.626 107.862 237.853 107.96 237.966Z" fill="white"/>
</g>
<defs>
<clipPath id="clip0_72_1819">
<rect width="1581" height="469" fill="white"/>
</clipPath>
</defs>
</svg>
